<?xml version="1.0" encoding="UTF-8"?>
<!DOCTYPE svg PUBLIC "-//W3C//DTD SVG 1.1//EN" "http://www.w3.org/Graphics/SVG/1.1/DTD/svg11.dtd">
<!-- Creator: CorelDRAW -->
<svg xmlns="http://www.w3.org/2000/svg" xml:space="preserve" width="21.3122in" height="10.5341in" version="1.1" style="shape-rendering:geometricPrecision; text-rendering:geometricPrecision; image-rendering:optimizeQuality; fill-rule:evenodd; clip-rule:evenodd"
viewBox="0 0 21313.67 10534.79"
 xmlns:xlink="http://www.w3.org/1999/xlink"
 xmlns:xodm="http://www.corel.com/coreldraw/odm/2003">
 <defs>
  <style type="text/css">
   <![CDATA[
    .str0 {stroke:black;stroke-width:3;stroke-miterlimit:2.61313}
    .fil1 {fill:none;fill-rule:nonzero}
    .fil3 {fill:#2B2B2A;fill-rule:nonzero}
    .fil0 {fill:black;fill-rule:nonzero}
    .fil2 {fill:black;fill-rule:nonzero}
   ]]>
  </style>
 </defs>
 <g id="Layer_x0020_1">
  <metadata id="CorelCorpID_0Corel-Layer"/>
  <path class="fil0" d="M4403.82 10494.74l-421.14 0 0 -6.34c33.43,0 64.9,-9.52 94.67,-28.31 30.01,-18.78 45.63,-45.14 47.58,-79.05l0 -805.67c-5.13,-30.01 -21.96,-53.44 -50.75,-70.76 -28.55,-17.08 -58.56,-25.62 -90.03,-25.62l0 -7.08 495.31 0c64.42,0 123.22,9.03 176.65,27.08 53.43,18.06 95.89,45.63 127.61,82.47 31.72,37.09 47.58,83.93 47.58,140.54 0,56.61 -15.86,103.45 -47.58,140.54 -31.72,36.85 -74.17,64.42 -127.61,82.47 -53.44,18.06 -112.24,27.08 -176.65,27.08l-216.42 0 0 410.4c2.44,32.94 18.06,58.8 47.58,77.59 29.28,18.79 60.27,28.31 93.21,28.31l0 6.34zm75.64 -543.13c42.94,0 80.52,-11.47 112.73,-34.4 32.21,-22.93 57.09,-51.97 74.9,-86.86 18.06,-35.13 26.84,-71.25 26.84,-108.33 0,-36.6 -8.78,-72.71 -26.35,-107.85 -17.56,-35.38 -42.45,-64.41 -74.66,-87.35 -32.21,-22.93 -70.03,-34.16 -113.46,-34.16l-130.78 0c-23.67,0 -43.92,8.3 -60.75,24.89 -16.59,16.84 -24.89,37.09 -24.89,60.75l0 373.31 216.42 0z"/>
  <path id="_1" class="fil0" d="M5431.38 10494.74c-74.66,0 -142.98,-11.47 -204.22,-34.65 -61.48,-23.18 -110.53,-57.58 -147.13,-103.7 -36.35,-45.87 -54.65,-102.48 -54.65,-169.82l0 -615.35c-6.59,-29.03 -24.16,-51.73 -52.7,-67.83 -28.79,-16.35 -58.56,-24.4 -89.55,-24.4l0 -7.08 421.14 0 0 7.08c-30.5,0 -60.02,8.05 -88.57,24.4 -28.79,16.1 -46.36,38.8 -52.94,67.83l0 615.35c0,48.8 11.47,94.91 34.16,138.83 22.93,43.67 54.65,79.54 94.91,107.6 40.26,27.81 86.86,41.72 139.56,41.72 60.02,0 114.92,-12.93 164.45,-39.04 49.53,-25.86 89.06,-60.75 118.34,-104.18 29.28,-43.68 43.92,-91.99 43.92,-144.93l0 -633.17c-5.12,-22.93 -22.69,-40.99 -52.21,-54.41 -29.53,-13.42 -57.09,-20.01 -82.71,-20.01l0 -7.08 290.11 0 0 7.08c-25.13,0 -52.7,6.59 -82.23,20.01 -29.52,13.42 -46.85,31.47 -52.21,54.41l0 633.17c0,56.85 -15.62,108.57 -46.85,155.18 -31.23,46.85 -72.95,83.94 -125.65,111.5 -52.7,27.57 -111.02,41.48 -174.95,41.48z"/>
  <path id="_2" class="fil0" d="M6769.3 10494.74l-804.21 0 0 -6.34c31.47,0 61.73,-8.78 90.52,-25.86 28.79,-17.08 45.87,-40.99 51,-71.49l0 -814.94c-5.13,-30.01 -22.2,-53.68 -51,-71 -28.79,-17.32 -59.05,-26.11 -90.52,-26.11l0 -6.34 764.19 0 13.66 208.62 -6.59 0c0,-19.52 -5.85,-42.94 -18.06,-70.03 -12.2,-27.08 -30.99,-52.21 -56.12,-75.15 -25.38,-22.69 -57.83,-37.09 -97.35,-42.7l-243.75 0c-20.99,0 -38.8,7.32 -53.93,21.96 -14.88,14.88 -22.45,32.94 -22.45,54.41l0 403.08 255.22 0c22.93,-5.12 40.99,-22.45 54.17,-52.22 13.42,-29.52 20.25,-56.85 20.74,-81.98l6.59 0 0 290.11 -6.59 0c-0.49,-25.62 -7.32,-53.44 -20.74,-82.96 -13.17,-29.52 -31.23,-46.85 -54.17,-52.22l-255.22 0 0 391.85c0,24.64 8.54,45.87 26.11,63.2 17.32,17.32 38.55,26.11 63.19,26.11l250.09 0c39.77,-6.59 73.69,-24.89 102.24,-54.41 28.79,-29.52 50.75,-61.24 66.12,-94.91 15.62,-33.92 23.42,-60.76 23.42,-80.76l7.08 0 -13.66 250.09z"/>
  <path id="_3" class="fil0" d="M7789.05 10496.21l-428.21 0 0 -6.34c22.45,0 45.38,-3.42 69.05,-9.76 23.67,-6.34 42.21,-17.32 56.12,-32.45 9.52,-11.47 14.4,-25.86 14.4,-42.94 0,-7.08 -0.73,-14.64 -2.2,-22.2l0.73 0c-9.52,-60.51 -24.16,-121.26 -43.92,-182.51 -20.01,-61.24 -50.02,-113.21 -90.52,-155.91 -40.5,-42.7 -96.87,-66.37 -168.84,-71.25l-73.44 0 0 411.13c2.44,32.94 18.06,58.8 47.58,77.59 29.28,18.79 60.27,28.31 93.21,28.31l0 6.34 -421.14 0 0 -6.34c33.43,0 64.9,-9.76 94.67,-28.79 30.01,-19.03 45.63,-45.14 47.58,-78.56l0 -805.67c-5.13,-30.01 -21.96,-53.68 -50.75,-71 -28.55,-17.32 -58.56,-26.11 -90.03,-26.11l0 -6.59 474.57 0c64.41,0 123.22,9.03 176.65,26.84 53.44,18.06 95.89,45.38 127.61,82.23 31.72,37.09 47.58,83.93 47.58,140.54 0,40.02 -8.05,74.91 -24.4,104.43 -33.18,61.97 -87.35,103.7 -162.26,124.92 -43.19,12.93 -81.98,19.52 -115.65,19.52 63.19,18.54 113.7,50.26 151.52,95.4 37.58,44.9 66.12,95.89 85.64,152.5 19.52,56.85 34.4,112.24 44.4,166.65 9.52,28.06 27.08,52.46 52.95,72.95 25.62,20.5 54.65,30.75 87.1,30.75l0 6.34zm-471.15 -544.11c42.94,0 80.52,-11.22 112.72,-33.91 32.21,-22.69 57.09,-51.48 75.15,-86.86 17.81,-35.13 26.6,-71.49 26.6,-108.58 0,-36.11 -8.78,-71.98 -26.35,-107.11 -17.57,-35.38 -42.46,-64.42 -74.66,-87.35 -32.21,-22.93 -70.02,-34.16 -113.46,-34.16l-110.04 0c-23.67,0 -43.92,8.3 -60.75,24.89 -16.59,16.59 -24.89,36.85 -24.89,60.76l0 372.33 195.68 0z"/>
  <path id="_4" class="fil0" d="M8439.64 10494.74l-420.89 0 0 -6.34c33.18,0 64.9,-9.52 94.67,-28.31 29.77,-18.78 45.63,-45.14 47.58,-79.05l0 -888.38 -224.47 0c-39.53,6.59 -73.69,24.64 -102.24,53.92 -28.55,29.28 -50.5,60.76 -65.88,94.67 -15.13,33.92 -22.93,60.76 -23.42,80.77l-6.59 0 13.66 -250.1 959.39 0 14.15 250.1 -7.08 0c0,-20.01 -7.81,-46.85 -23.18,-80.77 -15.62,-33.91 -37.57,-65.39 -65.88,-94.67 -28.3,-29.28 -62.46,-47.33 -102.48,-53.92l-228.13 0 0 889.85c2.44,32.94 18.3,58.8 47.58,77.59 29.28,18.79 60.51,28.31 93.2,28.31l0 6.34z"/>
  <path id="_5" class="fil0" d="M9287.87 10494.74c-93.94,0 -179.58,-22.93 -256.93,-69.05 -77.34,-45.87 -139.08,-107.6 -184.7,-184.71 -45.87,-77.1 -68.81,-162.99 -68.81,-257.41 0,-93.7 22.93,-179.34 68.81,-256.44 45.63,-77.35 107.36,-138.83 184.7,-184.95 77.35,-45.87 162.99,-69.05 256.93,-69.05 94.42,0 180.07,23.18 257.41,69.05 77.1,46.11 138.83,107.6 184.71,184.95 46.11,77.1 69.05,162.74 69.05,256.44 0,94.42 -22.93,180.31 -69.05,257.41 -45.87,77.1 -107.6,138.83 -184.71,184.71 -77.34,46.11 -162.99,69.05 -257.41,69.05zm0 -20.74c50.99,0 98.82,-13.91 143.47,-41.48 44.41,-27.57 83.45,-64.66 117.12,-111.02 33.67,-46.6 60.02,-99.06 79.05,-157.37 19.03,-58.32 28.55,-118.58 28.55,-180.56 0,-61.49 -9.52,-121.51 -28.55,-180.07 -19.03,-58.56 -45.38,-111.26 -79.05,-157.87 -33.67,-46.85 -72.71,-83.94 -117.12,-111.5 -44.65,-27.82 -92.48,-41.48 -143.47,-41.48 -50.51,0 -98.09,13.66 -142.49,41.48 -44.65,27.57 -83.69,64.66 -117.36,111.5 -33.42,46.6 -60.02,99.31 -79.3,157.87 -19.27,58.56 -29.03,118.58 -29.03,180.07 0,61.97 9.76,122.24 29.03,180.56 19.28,58.31 45.87,110.77 79.3,157.37 33.67,46.36 72.71,83.45 117.36,111.02 44.41,27.57 91.99,41.48 142.49,41.48z"/>
  <path id="_6" class="fil0" d="M13859.59 10494.74c-74.66,0 -142.98,-11.47 -204.22,-34.65 -61.48,-23.18 -110.53,-57.58 -147.13,-103.7 -36.35,-45.87 -54.65,-102.48 -54.65,-169.82l0 -615.35c-6.59,-29.03 -24.16,-51.73 -52.7,-67.83 -28.79,-16.35 -58.56,-24.4 -89.55,-24.4l0 -7.08 421.14 0 0 7.08c-30.5,0 -60.02,8.05 -88.57,24.4 -28.79,16.1 -46.36,38.8 -52.94,67.83l0 615.35c0,48.8 11.47,94.91 34.16,138.83 22.93,43.67 54.65,79.54 94.91,107.6 40.26,27.81 86.86,41.72 139.56,41.72 60.02,0 114.92,-12.93 164.45,-39.04 49.53,-25.86 89.06,-60.75 118.34,-104.18 29.28,-43.68 43.92,-91.99 43.92,-144.93l0 -633.17c-5.12,-22.93 -22.69,-40.99 -52.21,-54.41 -29.53,-13.42 -57.09,-20.01 -82.71,-20.01l0 -7.08 290.11 0 0 7.08c-25.13,0 -52.7,6.59 -82.23,20.01 -29.52,13.42 -46.85,31.47 -52.21,54.41l0 633.17c0,56.85 -15.62,108.57 -46.85,155.18 -31.23,46.85 -72.95,83.94 -125.65,111.5 -52.7,27.57 -111.02,41.48 -174.95,41.48z"/>
  <path id="_7" class="fil0" d="M15197.51 10494.74l-804.21 0 0 -6.34c31.47,0 61.73,-8.78 90.52,-25.86 28.79,-17.08 45.87,-40.99 51,-71.49l0 -814.94c-5.13,-30.01 -22.2,-53.68 -51,-71 -28.79,-17.32 -59.05,-26.11 -90.52,-26.11l0 -6.34 764.19 0 13.66 208.62 -6.59 0c0,-19.52 -5.85,-42.94 -18.06,-70.03 -12.2,-27.08 -30.99,-52.21 -56.12,-75.15 -25.38,-22.69 -57.83,-37.09 -97.35,-42.7l-243.75 0c-20.99,0 -38.8,7.32 -53.93,21.96 -14.88,14.88 -22.45,32.94 -22.45,54.41l0 403.08 255.22 0c22.93,-5.12 40.99,-22.45 54.17,-52.22 13.42,-29.52 20.25,-56.85 20.74,-81.98l6.59 0 0 290.11 -6.59 0c-0.49,-25.62 -7.32,-53.44 -20.74,-82.96 -13.17,-29.52 -31.23,-46.85 -54.17,-52.22l-255.22 0 0 391.85c0,24.64 8.54,45.87 26.11,63.2 17.32,17.32 38.55,26.11 63.19,26.11l250.09 0c39.77,-6.59 73.69,-24.89 102.24,-54.41 28.79,-29.52 50.75,-61.24 66.12,-94.91 15.62,-33.92 23.42,-60.76 23.42,-80.76l7.08 0 -13.66 250.09z"/>
  <path id="_8" class="fil0" d="M16125.77 10494.74l-19.28 0 -676.11 -933.52 0 847.15c2.68,24.16 18.78,43.43 47.82,57.83 29.03,14.15 56.36,21.71 82.23,22.2l0 6.34 -279.62 0 0 -6.34c25.38,-0.49 52.7,-8.05 81.98,-22.2 29.28,-14.4 45.38,-33.43 48.07,-57.09l0 -814.21c0,-22.93 -7.08,-43.19 -21.71,-60.51 -14.4,-17.32 -32.45,-30.99 -53.93,-40.99 -21.47,-10 -43.19,-15.13 -65.15,-15.13l0 -6.34 265.96 0 570.46 796.89 -0.73 -710.51c-2.44,-24.16 -18.3,-43.68 -47.58,-57.83 -29.28,-14.4 -56.61,-21.72 -81.74,-22.21l0 -6.34 279.37 0 0 7.08c-25.13,0 -52.22,7.08 -81.49,20.99 -29.04,14.15 -45.14,33.18 -48.55,56.85l0 937.91zm-253.03 -1165.8c-21.47,0 -41.24,-8.05 -59.29,-24.4 -16.59,-14.15 -32.94,-21.47 -48.55,-21.47 -3.91,0 -11.96,1.46 -23.91,4.39 -12.2,2.93 -24.4,14.88 -36.11,36.35l-35.14 -37.82c15.13,-45.39 37.09,-72.22 65.88,-80.76 9.03,-2.93 18.06,-4.39 27.08,-4.39 18.06,0 35.62,6.35 52.94,18.79 23.18,18.06 42.94,27.08 59.29,27.08 2.44,0 8.3,-0.73 18.3,-2.2 9.76,-1.46 21.96,-10.74 36.6,-27.82l31.48 45.63c-22.69,44.4 -52.46,66.61 -88.57,66.61z"/>
  <path id="_9" class="fil0" d="M16818.33 10494.74c-93.94,0 -179.58,-22.93 -256.93,-69.05 -77.34,-45.87 -139.08,-107.6 -184.7,-184.71 -45.87,-77.1 -68.81,-162.99 -68.81,-257.41 0,-93.7 22.93,-179.34 68.81,-256.44 45.63,-77.35 107.36,-138.83 184.7,-184.95 77.35,-45.87 162.99,-69.05 256.93,-69.05 94.42,0 180.07,23.18 257.41,69.05 77.1,46.11 138.83,107.6 184.71,184.95 46.11,77.1 69.05,162.74 69.05,256.44 0,94.42 -22.93,180.31 -69.05,257.41 -45.87,77.1 -107.6,138.83 -184.71,184.71 -77.34,46.11 -162.99,69.05 -257.41,69.05zm0 -20.74c50.99,0 98.82,-13.91 143.47,-41.48 44.41,-27.57 83.45,-64.66 117.12,-111.02 33.67,-46.6 60.02,-99.06 79.05,-157.37 19.03,-58.32 28.55,-118.58 28.55,-180.56 0,-61.49 -9.52,-121.51 -28.55,-180.07 -19.03,-58.56 -45.38,-111.26 -79.05,-157.87 -33.67,-46.85 -72.71,-83.94 -117.12,-111.5 -44.65,-27.82 -92.48,-41.48 -143.47,-41.48 -50.51,0 -98.09,13.66 -142.49,41.48 -44.65,27.57 -83.69,64.66 -117.36,111.5 -33.42,46.6 -60.02,99.31 -79.3,157.87 -19.27,58.56 -29.03,118.58 -29.03,180.07 0,61.97 9.76,122.24 29.03,180.56 19.28,58.31 45.87,110.77 79.3,157.37 33.67,46.36 72.71,83.45 117.36,111.02 44.41,27.57 91.99,41.48 142.49,41.48z"/>
  <path id="_10" class="fil0" d="M10757.3 10496.21l-428.21 0 0 -6.34c22.45,0 45.38,-3.42 69.05,-9.76 23.67,-6.34 42.21,-17.32 56.12,-32.45 9.52,-11.47 14.4,-25.86 14.4,-42.94 0,-7.08 -0.73,-14.64 -2.2,-22.2l0.73 0c-9.52,-60.51 -24.16,-121.26 -43.92,-182.51 -20.01,-61.24 -50.02,-113.21 -90.52,-155.91 -40.5,-42.7 -96.87,-66.37 -168.84,-71.25l-73.44 0 0 411.13c2.44,32.94 18.06,58.8 47.58,77.59 29.28,18.79 60.27,28.31 93.21,28.31l0 6.34 -421.14 0 0 -6.34c33.43,0 64.9,-9.76 94.67,-28.79 30.01,-19.03 45.63,-45.14 47.58,-78.56l0 -805.67c-5.13,-30.01 -21.96,-53.68 -50.75,-71 -28.55,-17.32 -58.56,-26.11 -90.03,-26.11l0 -6.59 474.57 0c64.41,0 123.22,9.03 176.65,26.84 53.44,18.06 95.89,45.38 127.61,82.23 31.72,37.09 47.58,83.93 47.58,140.54 0,40.02 -8.05,74.91 -24.4,104.43 -33.18,61.97 -87.35,103.7 -162.26,124.92 -43.19,12.93 -81.98,19.52 -115.65,19.52 63.19,18.54 113.7,50.26 151.52,95.4 37.58,44.9 66.12,95.89 85.64,152.5 19.52,56.85 34.4,112.24 44.4,166.65 9.52,28.06 27.08,52.46 52.95,72.95 25.62,20.5 54.65,30.75 87.1,30.75l0 6.34zm-471.15 -544.11c42.94,0 80.52,-11.22 112.72,-33.91 32.21,-22.69 57.09,-51.48 75.15,-86.86 17.81,-35.13 26.6,-71.49 26.6,-108.58 0,-36.11 -8.78,-71.98 -26.35,-107.11 -17.57,-35.38 -42.46,-64.42 -74.66,-87.35 -32.21,-22.93 -70.02,-34.16 -113.46,-34.16l-110.04 0c-23.67,0 -43.92,8.3 -60.75,24.89 -16.59,16.59 -24.89,36.85 -24.89,60.76l0 372.33 195.68 0z"/>
  <path id="_11" class="fil0" d="M11756.31 10496.21l-428.21 0 0 -6.34c22.45,0 45.38,-3.42 69.05,-9.76 23.67,-6.34 42.21,-17.32 56.12,-32.45 9.52,-11.47 14.4,-25.86 14.4,-42.94 0,-7.08 -0.73,-14.64 -2.2,-22.2l0.73 0c-9.52,-60.51 -24.16,-121.26 -43.92,-182.51 -20.01,-61.24 -50.02,-113.21 -90.52,-155.91 -40.5,-42.7 -96.87,-66.37 -168.84,-71.25l-73.44 0 0 411.13c2.44,32.94 18.06,58.8 47.58,77.59 29.28,18.79 60.27,28.31 93.21,28.31l0 6.34 -421.14 0 0 -6.34c33.43,0 64.9,-9.76 94.67,-28.79 30.01,-19.03 45.63,-45.14 47.58,-78.56l0 -805.67c-5.13,-30.01 -21.96,-53.68 -50.75,-71 -28.55,-17.32 -58.56,-26.11 -90.03,-26.11l0 -6.59 474.57 0c64.41,0 123.22,9.03 176.65,26.84 53.44,18.06 95.89,45.38 127.61,82.23 31.72,37.09 47.58,83.93 47.58,140.54 0,40.02 -8.05,74.91 -24.4,104.43 -33.18,61.97 -87.35,103.7 -162.26,124.92 -43.19,12.93 -81.98,19.52 -115.65,19.52 63.19,18.54 113.7,50.26 151.52,95.4 37.58,44.9 66.12,95.89 85.64,152.5 19.52,56.85 34.4,112.24 44.4,166.65 9.52,28.06 27.08,52.46 52.95,72.95 25.62,20.5 54.65,30.75 87.1,30.75l0 6.34zm-471.15 -544.11c42.94,0 80.52,-11.22 112.72,-33.91 32.21,-22.69 57.09,-51.48 75.15,-86.86 17.81,-35.13 26.6,-71.49 26.6,-108.58 0,-36.11 -8.78,-71.98 -26.35,-107.11 -17.57,-35.38 -42.46,-64.42 -74.66,-87.35 -32.21,-22.93 -70.02,-34.16 -113.46,-34.16l-110.04 0c-23.67,0 -43.92,8.3 -60.75,24.89 -16.59,16.59 -24.89,36.85 -24.89,60.76l0 372.33 195.68 0z"/>
  <path id="_12" class="fil0" d="M12229.27 10494.74l-421.14 0 0 -6.34c33.43,0 64.9,-9.52 94.67,-28.31 30.01,-18.78 45.87,-45.14 48.31,-79.05l0 -794.93c-2.44,-33.67 -18.3,-60.02 -48.31,-78.81 -29.77,-18.79 -61.24,-28.31 -94.67,-28.31l0 -6.34 421.14 0 0 6.34c-32.45,0 -63.2,9.52 -92.48,28.31 -29.52,18.79 -45.63,44.65 -48.31,77.59l0 797.62c2.69,32.94 18.79,58.8 48.31,77.59 29.28,18.79 60.02,28.31 92.48,28.31l0 6.34z"/>
  <path id="_13" class="fil0" d="M13183.39 10533.29c-37.82,0 -73.2,-9.03 -106.63,-27.08 -27.08,-14.4 -54.41,-32.21 -81.49,-53.68 -63.44,28.06 -131.27,42.21 -203.73,42.21 -93.94,0 -179.34,-22.93 -256.68,-69.05 -77.1,-45.87 -138.59,-107.6 -184.7,-184.71 -45.87,-77.1 -69.05,-162.99 -69.05,-257.41 0,-93.7 23.18,-179.34 69.05,-256.44 46.11,-77.35 107.6,-138.83 184.7,-184.95 77.35,-45.87 162.74,-69.05 256.68,-69.05 94.42,0 180.07,23.18 257.41,69.05 77.1,46.11 138.83,107.6 184.71,184.95 46.11,77.1 69.05,162.74 69.05,256.44 0,82.47 -17.81,158.59 -53.19,228.38 -35.62,69.78 -83.94,128.34 -144.94,175.67 20.01,7.08 40.75,10.74 62.22,10.74 13.42,0 32.21,-2.44 56.12,-7.32 24.16,-4.64 55.87,-23.91 95.4,-57.83 2.44,-1.95 5.13,-2.93 8.05,-2.93 2.2,0.49 4.39,1.71 6.35,3.66 9.02,12.44 13.66,30.99 13.66,55.63 0,5.37 -0.73,17.81 -1.95,37.57 -1.22,19.77 -15.62,43.19 -43.19,70.52 -24.89,23.67 -64.17,35.62 -117.85,35.62zm-155.91 -180.07c40.99,-48.07 73.2,-104.43 96.87,-169.09 23.67,-64.66 35.38,-131.27 35.38,-200.56 0,-61.49 -9.52,-121.51 -28.55,-180.07 -19.03,-58.56 -45.38,-111.26 -79.05,-157.87 -33.67,-46.85 -72.71,-83.94 -117.12,-111.5 -44.65,-27.82 -92.48,-41.48 -143.47,-41.48 -50.51,0 -98.09,13.66 -142.49,41.48 -44.65,27.57 -83.69,64.66 -117.36,111.5 -33.42,46.6 -59.78,99.31 -79.05,157.87 -19.03,58.56 -28.55,118.58 -28.55,180.07 0,101.01 24.64,195.93 73.69,284.5 68.56,-39.04 130.78,-58.56 186.65,-58.56 52.7,0 101.99,10.49 147.62,31.47 45.38,20.99 88.57,45.14 129.56,72.22 22.45,14.4 44.4,27.57 65.88,40.01zm-235.94 120.78c58.07,0 111.99,-17.81 161.52,-53.68 -37.57,-30.99 -78.32,-60.26 -122.24,-88.08 -43.68,-28.06 -92.72,-48.07 -146.4,-60.51 -23.91,-5.61 -49.29,-8.54 -76.62,-8.54 -32.94,0 -68.07,4.15 -105.65,12.93 34.16,59.05 76.37,106.87 126.39,143.22 50.02,36.36 104.43,54.66 162.99,54.66z"/>
  <path id="_14" class="fil1 str0" d="M4403.82 10494.74l-421.14 0 0 -6.34c33.43,0 64.9,-9.52 94.67,-28.31 30.01,-18.78 45.63,-45.14 47.58,-79.05l0 -805.67c-5.13,-30.01 -21.96,-53.44 -50.75,-70.76 -28.55,-17.08 -58.56,-25.62 -90.03,-25.62l0 -7.08 495.31 0c64.42,0 123.22,9.03 176.65,27.08 53.43,18.06 95.89,45.63 127.61,82.47 31.72,37.09 47.58,83.93 47.58,140.54 0,56.61 -15.86,103.45 -47.58,140.54 -31.72,36.85 -74.17,64.42 -127.61,82.47 -53.44,18.06 -112.24,27.08 -176.65,27.08l-216.42 0 0 410.4c2.44,32.94 18.06,58.8 47.58,77.59 29.28,18.79 60.27,28.31 93.21,28.31l0 6.34zm75.64 -543.13c42.94,0 80.52,-11.47 112.73,-34.4 32.21,-22.93 57.09,-51.97 74.9,-86.86 18.06,-35.13 26.84,-71.25 26.84,-108.33 0,-36.6 -8.78,-72.71 -26.35,-107.85 -17.56,-35.38 -42.45,-64.41 -74.66,-87.35 -32.21,-22.93 -70.03,-34.16 -113.46,-34.16l-130.78 0c-23.67,0 -43.92,8.3 -60.75,24.89 -16.59,16.84 -24.89,37.09 -24.89,60.75l0 373.31 216.42 0z"/>
  <path id="_15" class="fil1 str0" d="M5431.38 10494.74c-74.66,0 -142.98,-11.47 -204.22,-34.65 -61.48,-23.18 -110.53,-57.58 -147.13,-103.7 -36.35,-45.87 -54.65,-102.48 -54.65,-169.82l0 -615.35c-6.59,-29.03 -24.16,-51.73 -52.7,-67.83 -28.79,-16.35 -58.56,-24.4 -89.55,-24.4l0 -7.08 421.14 0 0 7.08c-30.5,0 -60.02,8.05 -88.57,24.4 -28.79,16.1 -46.36,38.8 -52.94,67.83l0 615.35c0,48.8 11.47,94.91 34.16,138.83 22.93,43.67 54.65,79.54 94.91,107.6 40.26,27.81 86.86,41.72 139.56,41.72 60.02,0 114.92,-12.93 164.45,-39.04 49.53,-25.86 89.06,-60.75 118.34,-104.18 29.28,-43.68 43.92,-91.99 43.92,-144.93l0 -633.17c-5.12,-22.93 -22.69,-40.99 -52.21,-54.41 -29.53,-13.42 -57.09,-20.01 -82.71,-20.01l0 -7.08 290.11 0 0 7.08c-25.13,0 -52.7,6.59 -82.23,20.01 -29.52,13.42 -46.85,31.47 -52.21,54.41l0 633.17c0,56.85 -15.62,108.57 -46.85,155.18 -31.23,46.85 -72.95,83.94 -125.65,111.5 -52.7,27.57 -111.02,41.48 -174.95,41.48z"/>
  <path id="_16" class="fil1 str0" d="M6769.3 10494.74l-804.21 0 0 -6.34c31.47,0 61.73,-8.78 90.52,-25.86 28.79,-17.08 45.87,-40.99 51,-71.49l0 -814.94c-5.13,-30.01 -22.2,-53.68 -51,-71 -28.79,-17.32 -59.05,-26.11 -90.52,-26.11l0 -6.34 764.19 0 13.66 208.62 -6.59 0c0,-19.52 -5.85,-42.94 -18.06,-70.03 -12.2,-27.08 -30.99,-52.21 -56.12,-75.15 -25.38,-22.69 -57.83,-37.09 -97.35,-42.7l-243.75 0c-20.99,0 -38.8,7.32 -53.93,21.96 -14.88,14.88 -22.45,32.94 -22.45,54.41l0 403.08 255.22 0c22.93,-5.12 40.99,-22.45 54.17,-52.22 13.42,-29.52 20.25,-56.85 20.74,-81.98l6.59 0 0 290.11 -6.59 0c-0.49,-25.62 -7.32,-53.44 -20.74,-82.96 -13.17,-29.52 -31.23,-46.85 -54.17,-52.22l-255.22 0 0 391.85c0,24.64 8.54,45.87 26.11,63.2 17.32,17.32 38.55,26.11 63.19,26.11l250.09 0c39.77,-6.59 73.69,-24.89 102.24,-54.41 28.79,-29.52 50.75,-61.24 66.12,-94.91 15.62,-33.92 23.42,-60.76 23.42,-80.76l7.08 0 -13.66 250.09z"/>
  <path id="_17" class="fil1 str0" d="M7789.05 10496.21l-428.21 0 0 -6.34c22.45,0 45.38,-3.42 69.05,-9.76 23.67,-6.34 42.21,-17.32 56.12,-32.45 9.52,-11.47 14.4,-25.86 14.4,-42.94 0,-7.08 -0.73,-14.64 -2.2,-22.2l0.73 0c-9.52,-60.51 -24.16,-121.26 -43.92,-182.51 -20.01,-61.24 -50.02,-113.21 -90.52,-155.91 -40.5,-42.7 -96.87,-66.37 -168.84,-71.25l-73.44 0 0 411.13c2.44,32.94 18.06,58.8 47.58,77.59 29.28,18.79 60.27,28.31 93.21,28.31l0 6.34 -421.14 0 0 -6.34c33.43,0 64.9,-9.76 94.67,-28.79 30.01,-19.03 45.63,-45.14 47.58,-78.56l0 -805.67c-5.13,-30.01 -21.96,-53.68 -50.75,-71 -28.55,-17.32 -58.56,-26.11 -90.03,-26.11l0 -6.59 474.57 0c64.41,0 123.22,9.03 176.65,26.84 53.44,18.06 95.89,45.38 127.61,82.23 31.72,37.09 47.58,83.93 47.58,140.54 0,40.02 -8.05,74.91 -24.4,104.43 -33.18,61.97 -87.35,103.7 -162.26,124.92 -43.19,12.93 -81.98,19.52 -115.65,19.52 63.19,18.54 113.7,50.26 151.52,95.4 37.58,44.9 66.12,95.89 85.64,152.5 19.52,56.85 34.4,112.24 44.4,166.65 9.52,28.06 27.08,52.46 52.95,72.95 25.62,20.5 54.65,30.75 87.1,30.75l0 6.34zm-471.15 -544.11c42.94,0 80.52,-11.22 112.72,-33.91 32.21,-22.69 57.09,-51.48 75.15,-86.86 17.81,-35.13 26.6,-71.49 26.6,-108.58 0,-36.11 -8.78,-71.98 -26.35,-107.11 -17.57,-35.38 -42.46,-64.42 -74.66,-87.35 -32.21,-22.93 -70.02,-34.16 -113.46,-34.16l-110.04 0c-23.67,0 -43.92,8.3 -60.75,24.89 -16.59,16.59 -24.89,36.85 -24.89,60.76l0 372.33 195.68 0z"/>
  <path id="_18" class="fil1 str0" d="M8439.64 10494.74l-420.89 0 0 -6.34c33.18,0 64.9,-9.52 94.67,-28.31 29.77,-18.78 45.63,-45.14 47.58,-79.05l0 -888.38 -224.47 0c-39.53,6.59 -73.69,24.64 -102.24,53.92 -28.55,29.28 -50.5,60.76 -65.88,94.67 -15.13,33.92 -22.93,60.76 -23.42,80.77l-6.59 0 13.66 -250.1 959.39 0 14.15 250.1 -7.08 0c0,-20.01 -7.81,-46.85 -23.18,-80.77 -15.62,-33.91 -37.57,-65.39 -65.88,-94.67 -28.3,-29.28 -62.46,-47.33 -102.48,-53.92l-228.13 0 0 889.85c2.44,32.94 18.3,58.8 47.58,77.59 29.28,18.79 60.51,28.31 93.2,28.31l0 6.34z"/>
  <path id="_19" class="fil1 str0" d="M9287.87 10494.74c-93.94,0 -179.58,-22.93 -256.93,-69.05 -77.34,-45.87 -139.08,-107.6 -184.7,-184.71 -45.87,-77.1 -68.81,-162.99 -68.81,-257.41 0,-93.7 22.93,-179.34 68.81,-256.44 45.63,-77.35 107.36,-138.83 184.7,-184.95 77.35,-45.87 162.99,-69.05 256.93,-69.05 94.42,0 180.07,23.18 257.41,69.05 77.1,46.11 138.83,107.6 184.71,184.95 46.11,77.1 69.05,162.74 69.05,256.44 0,94.42 -22.93,180.31 -69.05,257.41 -45.87,77.1 -107.6,138.83 -184.71,184.71 -77.34,46.11 -162.99,69.05 -257.41,69.05zm0 -20.74c50.99,0 98.82,-13.91 143.47,-41.48 44.41,-27.57 83.45,-64.66 117.12,-111.02 33.67,-46.6 60.02,-99.06 79.05,-157.37 19.03,-58.32 28.55,-118.58 28.55,-180.56 0,-61.49 -9.52,-121.51 -28.55,-180.07 -19.03,-58.56 -45.38,-111.26 -79.05,-157.87 -33.67,-46.85 -72.71,-83.94 -117.12,-111.5 -44.65,-27.82 -92.48,-41.48 -143.47,-41.48 -50.51,0 -98.09,13.66 -142.49,41.48 -44.65,27.57 -83.69,64.66 -117.36,111.5 -33.42,46.6 -60.02,99.31 -79.3,157.87 -19.27,58.56 -29.03,118.58 -29.03,180.07 0,61.97 9.76,122.24 29.03,180.56 19.28,58.31 45.87,110.77 79.3,157.37 33.67,46.36 72.71,83.45 117.36,111.02 44.41,27.57 91.99,41.48 142.49,41.48z"/>
  <path id="_20" class="fil1 str0" d="M13859.59 10494.74c-74.66,0 -142.98,-11.47 -204.22,-34.65 -61.48,-23.18 -110.53,-57.58 -147.13,-103.7 -36.35,-45.87 -54.65,-102.48 -54.65,-169.82l0 -615.35c-6.59,-29.03 -24.16,-51.73 -52.7,-67.83 -28.79,-16.35 -58.56,-24.4 -89.55,-24.4l0 -7.08 421.14 0 0 7.08c-30.5,0 -60.02,8.05 -88.57,24.4 -28.79,16.1 -46.36,38.8 -52.94,67.83l0 615.35c0,48.8 11.47,94.91 34.16,138.83 22.93,43.67 54.65,79.54 94.91,107.6 40.26,27.81 86.86,41.72 139.56,41.72 60.02,0 114.92,-12.93 164.45,-39.04 49.53,-25.86 89.06,-60.75 118.34,-104.18 29.28,-43.68 43.92,-91.99 43.92,-144.93l0 -633.17c-5.12,-22.93 -22.69,-40.99 -52.21,-54.41 -29.53,-13.42 -57.09,-20.01 -82.71,-20.01l0 -7.08 290.11 0 0 7.08c-25.13,0 -52.7,6.59 -82.23,20.01 -29.52,13.42 -46.85,31.47 -52.21,54.41l0 633.17c0,56.85 -15.62,108.57 -46.85,155.18 -31.23,46.85 -72.95,83.94 -125.65,111.5 -52.7,27.57 -111.02,41.48 -174.95,41.48z"/>
  <path id="_21" class="fil1 str0" d="M15197.51 10494.74l-804.21 0 0 -6.34c31.47,0 61.73,-8.78 90.52,-25.86 28.79,-17.08 45.87,-40.99 51,-71.49l0 -814.94c-5.13,-30.01 -22.2,-53.68 -51,-71 -28.79,-17.32 -59.05,-26.11 -90.52,-26.11l0 -6.34 764.19 0 13.66 208.62 -6.59 0c0,-19.52 -5.85,-42.94 -18.06,-70.03 -12.2,-27.08 -30.99,-52.21 -56.12,-75.15 -25.38,-22.69 -57.83,-37.09 -97.35,-42.7l-243.75 0c-20.99,0 -38.8,7.32 -53.93,21.96 -14.88,14.88 -22.45,32.94 -22.45,54.41l0 403.08 255.22 0c22.93,-5.12 40.99,-22.45 54.17,-52.22 13.42,-29.52 20.25,-56.85 20.74,-81.98l6.59 0 0 290.11 -6.59 0c-0.49,-25.62 -7.32,-53.44 -20.74,-82.96 -13.17,-29.52 -31.23,-46.85 -54.17,-52.22l-255.22 0 0 391.85c0,24.64 8.54,45.87 26.11,63.2 17.32,17.32 38.55,26.11 63.19,26.11l250.09 0c39.77,-6.59 73.69,-24.89 102.24,-54.41 28.79,-29.52 50.75,-61.24 66.12,-94.91 15.62,-33.92 23.42,-60.76 23.42,-80.76l7.08 0 -13.66 250.09z"/>
  <path id="_22" class="fil1 str0" d="M16125.77 10494.74l-19.28 0 -676.11 -933.52 0 847.15c2.68,24.16 18.78,43.43 47.82,57.83 29.03,14.15 56.36,21.71 82.23,22.2l0 6.34 -279.62 0 0 -6.34c25.38,-0.49 52.7,-8.05 81.98,-22.2 29.28,-14.4 45.38,-33.43 48.07,-57.09l0 -814.21c0,-22.93 -7.08,-43.19 -21.71,-60.51 -14.4,-17.32 -32.45,-30.99 -53.93,-40.99 -21.47,-10 -43.19,-15.13 -65.15,-15.13l0 -6.34 265.96 0 570.46 796.89 -0.73 -710.51c-2.44,-24.16 -18.3,-43.68 -47.58,-57.83 -29.28,-14.4 -56.61,-21.72 -81.74,-22.21l0 -6.34 279.37 0 0 7.08c-25.13,0 -52.22,7.08 -81.49,20.99 -29.04,14.15 -45.14,33.18 -48.55,56.85l0 937.91zm-253.03 -1165.8c-21.47,0 -41.24,-8.05 -59.29,-24.4 -16.59,-14.15 -32.94,-21.47 -48.55,-21.47 -3.91,0 -11.96,1.46 -23.91,4.39 -12.2,2.93 -24.4,14.88 -36.11,36.35l-35.14 -37.82c15.13,-45.39 37.09,-72.22 65.88,-80.76 9.03,-2.93 18.06,-4.39 27.08,-4.39 18.06,0 35.62,6.35 52.94,18.79 23.18,18.06 42.94,27.08 59.29,27.08 2.44,0 8.3,-0.73 18.3,-2.2 9.76,-1.46 21.96,-10.74 36.6,-27.82l31.48 45.63c-22.69,44.4 -52.46,66.61 -88.57,66.61z"/>
  <path id="_23" class="fil1 str0" d="M16818.33 10494.74c-93.94,0 -179.58,-22.93 -256.93,-69.05 -77.34,-45.87 -139.08,-107.6 -184.7,-184.71 -45.87,-77.1 -68.81,-162.99 -68.81,-257.41 0,-93.7 22.93,-179.34 68.81,-256.44 45.63,-77.35 107.36,-138.83 184.7,-184.95 77.35,-45.87 162.99,-69.05 256.93,-69.05 94.42,0 180.07,23.18 257.41,69.05 77.1,46.11 138.83,107.6 184.71,184.95 46.11,77.1 69.05,162.74 69.05,256.44 0,94.42 -22.93,180.31 -69.05,257.41 -45.87,77.1 -107.6,138.83 -184.71,184.71 -77.34,46.11 -162.99,69.05 -257.41,69.05zm0 -20.74c50.99,0 98.82,-13.91 143.47,-41.48 44.41,-27.57 83.45,-64.66 117.12,-111.02 33.67,-46.6 60.02,-99.06 79.05,-157.37 19.03,-58.32 28.55,-118.58 28.55,-180.56 0,-61.49 -9.52,-121.51 -28.55,-180.07 -19.03,-58.56 -45.38,-111.26 -79.05,-157.87 -33.67,-46.85 -72.71,-83.94 -117.12,-111.5 -44.65,-27.82 -92.48,-41.48 -143.47,-41.48 -50.51,0 -98.09,13.66 -142.49,41.48 -44.65,27.57 -83.69,64.66 -117.36,111.5 -33.42,46.6 -60.02,99.31 -79.3,157.87 -19.27,58.56 -29.03,118.58 -29.03,180.07 0,61.97 9.76,122.24 29.03,180.56 19.28,58.31 45.87,110.77 79.3,157.37 33.67,46.36 72.71,83.45 117.36,111.02 44.41,27.57 91.99,41.48 142.49,41.48z"/>
  <path id="_24" class="fil1 str0" d="M10757.3 10496.21l-428.21 0 0 -6.34c22.45,0 45.38,-3.42 69.05,-9.76 23.67,-6.34 42.21,-17.32 56.12,-32.45 9.52,-11.47 14.4,-25.86 14.4,-42.94 0,-7.08 -0.73,-14.64 -2.2,-22.2l0.73 0c-9.52,-60.51 -24.16,-121.26 -43.92,-182.51 -20.01,-61.24 -50.02,-113.21 -90.52,-155.91 -40.5,-42.7 -96.87,-66.37 -168.84,-71.25l-73.44 0 0 411.13c2.44,32.94 18.06,58.8 47.58,77.59 29.28,18.79 60.27,28.31 93.21,28.31l0 6.34 -421.14 0 0 -6.34c33.43,0 64.9,-9.76 94.67,-28.79 30.01,-19.03 45.63,-45.14 47.58,-78.56l0 -805.67c-5.13,-30.01 -21.96,-53.68 -50.75,-71 -28.55,-17.32 -58.56,-26.11 -90.03,-26.11l0 -6.59 474.57 0c64.41,0 123.22,9.03 176.65,26.84 53.44,18.06 95.89,45.38 127.61,82.23 31.72,37.09 47.58,83.93 47.58,140.54 0,40.02 -8.05,74.91 -24.4,104.43 -33.18,61.97 -87.35,103.7 -162.26,124.92 -43.19,12.93 -81.98,19.52 -115.65,19.52 63.19,18.54 113.7,50.26 151.52,95.4 37.58,44.9 66.12,95.89 85.64,152.5 19.52,56.85 34.4,112.24 44.4,166.65 9.52,28.06 27.08,52.46 52.95,72.95 25.62,20.5 54.65,30.75 87.1,30.75l0 6.34zm-471.15 -544.11c42.94,0 80.52,-11.22 112.72,-33.91 32.21,-22.69 57.09,-51.48 75.15,-86.86 17.81,-35.13 26.6,-71.49 26.6,-108.58 0,-36.11 -8.78,-71.98 -26.35,-107.11 -17.57,-35.38 -42.46,-64.42 -74.66,-87.35 -32.21,-22.93 -70.02,-34.16 -113.46,-34.16l-110.04 0c-23.67,0 -43.92,8.3 -60.75,24.89 -16.59,16.59 -24.89,36.85 -24.89,60.76l0 372.33 195.68 0z"/>
  <path id="_25" class="fil1 str0" d="M11756.31 10496.21l-428.21 0 0 -6.34c22.45,0 45.38,-3.42 69.05,-9.76 23.67,-6.34 42.21,-17.32 56.12,-32.45 9.52,-11.47 14.4,-25.86 14.4,-42.94 0,-7.08 -0.73,-14.64 -2.2,-22.2l0.73 0c-9.52,-60.51 -24.16,-121.26 -43.92,-182.51 -20.01,-61.24 -50.02,-113.21 -90.52,-155.91 -40.5,-42.7 -96.87,-66.37 -168.84,-71.25l-73.44 0 0 411.13c2.44,32.94 18.06,58.8 47.58,77.59 29.28,18.79 60.27,28.31 93.21,28.31l0 6.34 -421.14 0 0 -6.34c33.43,0 64.9,-9.76 94.67,-28.79 30.01,-19.03 45.63,-45.14 47.58,-78.56l0 -805.67c-5.13,-30.01 -21.96,-53.68 -50.75,-71 -28.55,-17.32 -58.56,-26.11 -90.03,-26.11l0 -6.59 474.57 0c64.41,0 123.22,9.03 176.65,26.84 53.44,18.06 95.89,45.38 127.61,82.23 31.72,37.09 47.58,83.93 47.58,140.54 0,40.02 -8.05,74.91 -24.4,104.43 -33.18,61.97 -87.35,103.7 -162.26,124.92 -43.19,12.93 -81.98,19.52 -115.65,19.52 63.19,18.54 113.7,50.26 151.52,95.4 37.58,44.9 66.12,95.89 85.64,152.5 19.52,56.85 34.4,112.24 44.4,166.65 9.52,28.06 27.08,52.46 52.95,72.95 25.62,20.5 54.65,30.75 87.1,30.75l0 6.34zm-471.15 -544.11c42.94,0 80.52,-11.22 112.72,-33.91 32.21,-22.69 57.09,-51.48 75.15,-86.86 17.81,-35.13 26.6,-71.49 26.6,-108.58 0,-36.11 -8.78,-71.98 -26.35,-107.11 -17.57,-35.38 -42.46,-64.42 -74.66,-87.35 -32.21,-22.93 -70.02,-34.16 -113.46,-34.16l-110.04 0c-23.67,0 -43.92,8.3 -60.75,24.89 -16.59,16.59 -24.89,36.85 -24.89,60.76l0 372.33 195.68 0z"/>
  <path id="_26" class="fil1 str0" d="M12229.27 10494.74l-421.14 0 0 -6.34c33.43,0 64.9,-9.52 94.67,-28.31 30.01,-18.78 45.87,-45.14 48.31,-79.05l0 -794.93c-2.44,-33.67 -18.3,-60.02 -48.31,-78.81 -29.77,-18.79 -61.24,-28.31 -94.67,-28.31l0 -6.34 421.14 0 0 6.34c-32.45,0 -63.2,9.52 -92.48,28.31 -29.52,18.79 -45.63,44.65 -48.31,77.59l0 797.62c2.69,32.94 18.79,58.8 48.31,77.59 29.28,18.79 60.02,28.31 92.48,28.31l0 6.34z"/>
  <path id="_27" class="fil1 str0" d="M13183.39 10533.29c-37.82,0 -73.2,-9.03 -106.63,-27.08 -27.08,-14.4 -54.41,-32.21 -81.49,-53.68 -63.44,28.06 -131.27,42.21 -203.73,42.21 -93.94,0 -179.34,-22.93 -256.68,-69.05 -77.1,-45.87 -138.59,-107.6 -184.7,-184.71 -45.87,-77.1 -69.05,-162.99 -69.05,-257.41 0,-93.7 23.18,-179.34 69.05,-256.44 46.11,-77.35 107.6,-138.83 184.7,-184.95 77.35,-45.87 162.74,-69.05 256.68,-69.05 94.42,0 180.07,23.18 257.41,69.05 77.1,46.11 138.83,107.6 184.71,184.95 46.11,77.1 69.05,162.74 69.05,256.44 0,82.47 -17.81,158.59 -53.19,228.38 -35.62,69.78 -83.94,128.34 -144.94,175.67 20.01,7.08 40.75,10.74 62.22,10.74 13.42,0 32.21,-2.44 56.12,-7.32 24.16,-4.64 55.87,-23.91 95.4,-57.83 2.44,-1.95 5.13,-2.93 8.05,-2.93 2.2,0.49 4.39,1.71 6.35,3.66 9.02,12.44 13.66,30.99 13.66,55.63 0,5.37 -0.73,17.81 -1.95,37.57 -1.22,19.77 -15.62,43.19 -43.19,70.52 -24.89,23.67 -64.17,35.62 -117.85,35.62zm-155.91 -180.07c40.99,-48.07 73.2,-104.43 96.87,-169.09 23.67,-64.66 35.38,-131.27 35.38,-200.56 0,-61.49 -9.52,-121.51 -28.55,-180.07 -19.03,-58.56 -45.38,-111.26 -79.05,-157.87 -33.67,-46.85 -72.71,-83.94 -117.12,-111.5 -44.65,-27.82 -92.48,-41.48 -143.47,-41.48 -50.51,0 -98.09,13.66 -142.49,41.48 -44.65,27.57 -83.69,64.66 -117.36,111.5 -33.42,46.6 -59.78,99.31 -79.05,157.87 -19.03,58.56 -28.55,118.58 -28.55,180.07 0,101.01 24.64,195.93 73.69,284.5 68.56,-39.04 130.78,-58.56 186.65,-58.56 52.7,0 101.99,10.49 147.62,31.47 45.38,20.99 88.57,45.14 129.56,72.22 22.45,14.4 44.4,27.57 65.88,40.01zm-235.94 120.78c58.07,0 111.99,-17.81 161.52,-53.68 -37.57,-30.99 -78.32,-60.26 -122.24,-88.08 -43.68,-28.06 -92.72,-48.07 -146.4,-60.51 -23.91,-5.61 -49.29,-8.54 -76.62,-8.54 -32.94,0 -68.07,4.15 -105.65,12.93 34.16,59.05 76.37,106.87 126.39,143.22 50.02,36.36 104.43,54.66 162.99,54.66z"/>
  <g id="_2600384635648">
   <path class="fil2" d="M8633.39 8615.81c-379.9,0 -726.26,-92.75 -1039.07,-279.26 -312.81,-185.51 -562.46,-435.16 -746.99,-746.98 -185.51,-311.82 -278.27,-659.16 -278.27,-1041.04 0,-378.92 92.75,-725.28 278.27,-1037.09 184.53,-312.81 434.18,-561.47 746.99,-747.97 312.81,-185.51 659.16,-279.26 1039.07,-279.26 381.88,0 728.24,93.74 1041.04,279.26 311.82,186.5 561.47,435.16 746.98,747.97 186.5,311.82 279.26,658.17 279.26,1037.09 0,381.88 -92.75,729.22 -279.26,1041.04 -185.51,311.82 -435.16,561.47 -746.98,746.98 -312.81,186.5 -659.16,279.26 -1041.04,279.26zm0 -83.88c206.23,0 399.64,-56.24 580.22,-167.75 179.59,-111.51 337.47,-261.49 473.65,-448.98 136.17,-188.47 242.75,-400.63 319.71,-636.47 76.97,-235.84 115.45,-479.57 115.45,-730.21 0,-248.67 -38.48,-491.41 -115.45,-728.24 -76.97,-236.82 -183.54,-449.96 -319.71,-638.44 -136.17,-189.46 -294.06,-339.45 -473.65,-450.95 -180.58,-112.49 -373.99,-167.75 -580.22,-167.75 -204.26,0 -396.68,55.26 -576.27,167.75 -180.58,111.51 -338.46,261.49 -474.64,450.95 -135.19,188.47 -242.75,401.61 -320.7,638.44 -77.95,236.83 -117.43,479.57 -117.43,728.24 0,250.64 39.47,494.37 117.43,730.21 77.95,235.84 185.51,447.99 320.7,636.47 136.17,187.49 294.06,337.47 474.64,448.98 179.59,111.5 372.01,167.75 576.27,167.75z"/>
   <path id="_1_16" class="fil1 str0" d="M8633.39 8615.81c-379.9,0 -726.26,-92.75 -1039.07,-279.26 -312.81,-185.51 -562.46,-435.16 -746.99,-746.98 -185.51,-311.82 -278.27,-659.16 -278.27,-1041.04 0,-378.92 92.75,-725.28 278.27,-1037.09 184.53,-312.81 434.18,-561.47 746.99,-747.97 312.81,-185.51 659.16,-279.26 1039.07,-279.26 381.88,0 728.24,93.74 1041.04,279.26 311.82,186.5 561.47,435.16 746.98,747.97 186.5,311.82 279.26,658.17 279.26,1037.09 0,381.88 -92.75,729.22 -279.26,1041.04 -185.51,311.82 -435.16,561.47 -746.98,746.98 -312.81,186.5 -659.16,279.26 -1041.04,279.26zm0 -83.88c206.23,0 399.64,-56.24 580.22,-167.75 179.59,-111.51 337.47,-261.49 473.65,-448.98 136.17,-188.47 242.75,-400.63 319.71,-636.47 76.97,-235.84 115.45,-479.57 115.45,-730.21 0,-248.67 -38.48,-491.41 -115.45,-728.24 -76.97,-236.82 -183.54,-449.96 -319.71,-638.44 -136.17,-189.46 -294.06,-339.45 -473.65,-450.95 -180.58,-112.49 -373.99,-167.75 -580.22,-167.75 -204.26,0 -396.68,55.26 -576.27,167.75 -180.58,111.51 -338.46,261.49 -474.64,450.95 -135.19,188.47 -242.75,401.61 -320.7,638.44 -77.95,236.83 -117.43,479.57 -117.43,728.24 0,250.64 39.47,494.37 117.43,730.21 77.95,235.84 185.51,447.99 320.7,636.47 136.17,187.49 294.06,337.47 474.64,448.98 179.59,111.5 372.01,167.75 576.27,167.75z"/>
   <path class="fil0" d="M13924.16 8615.81l-3546.75 0 0 -31.21c138.81,0 272.25,-38.74 399.22,-114.06 126.97,-75.32 203.38,-180.78 228.13,-315.29l0 -3549.97c-11.84,-146.34 -83.94,-261.49 -214.14,-343.27 -130.2,-81.78 -269.02,-122.67 -416.44,-122.67l0 -32.28 1857.31 0 0 32.28c-140.97,0 -275.48,39.82 -403.53,119.45 -128.06,79.63 -201.23,190.47 -217.37,331.43l0 3540.29c0,108.68 37.66,202.3 115.14,278.7 76.4,76.4 168.94,115.14 278.7,115.14l1106.21 0c174.32,-29.05 324.98,-108.68 450.87,-237.81 125.9,-129.13 222.75,-269.02 290.54,-417.52 66.72,-149.57 101.15,-267.94 103.31,-356.18l29.05 0 -60.26 1102.98z"/>
   <path id="_1_17" class="fil1 str0" d="M13924.16 8615.81l-3546.75 0 0 -31.21c138.81,0 272.25,-38.74 399.22,-114.06 126.97,-75.32 203.38,-180.78 228.13,-315.29l0 -3549.97c-11.84,-146.34 -83.94,-261.49 -214.14,-343.27 -130.2,-81.78 -269.02,-122.67 -416.44,-122.67l0 -32.28 1857.31 0 0 32.28c-140.97,0 -275.48,39.82 -403.53,119.45 -128.06,79.63 -201.23,190.47 -217.37,331.43l0 3540.29c0,108.68 37.66,202.3 115.14,278.7 76.4,76.4 168.94,115.14 278.7,115.14l1106.21 0c174.32,-29.05 324.98,-108.68 450.87,-237.81 125.9,-129.13 222.75,-269.02 290.54,-417.52 66.72,-149.57 101.15,-267.94 103.31,-356.18l29.05 0 -60.26 1102.98z"/>
   <path class="fil0" d="M15294.62 8233.82l-2993.32 0 0 -23.61c117.15,0 229.77,-32.7 336.93,-96.27 107.17,-63.57 170.74,-152.57 189.81,-266.09l0 -3033.28c-19.07,-111.7 -82.64,-199.8 -189.81,-264.28 -107.16,-64.48 -219.78,-97.17 -336.93,-97.17l0 -23.61 2844.38 0 50.86 776.48 -24.52 0c0,-72.65 -21.8,-159.84 -67.21,-260.64 -45.41,-100.81 -115.34,-194.35 -208.88,-279.72 -94.45,-84.46 -215.23,-138.04 -362.36,-158.93l-907.26 0c-78.1,0 -144.4,27.25 -200.7,81.73 -55.4,55.4 -83.55,122.6 -83.55,202.52l0 1500.29 949.94 0c85.37,-19.07 152.57,-83.55 201.61,-194.35 49.95,-109.89 75.38,-211.6 77.19,-305.14l24.52 0 0 1079.81 -24.52 0c-1.82,-95.36 -27.25,-198.89 -77.19,-308.78 -49.04,-109.89 -116.24,-174.37 -201.61,-194.35l-949.94 0 0 1458.52c0,91.73 31.79,170.74 97.18,235.22 64.48,64.48 143.49,97.17 235.21,97.17l930.87 0c148.03,-24.52 274.27,-92.63 380.52,-202.52 107.16,-109.89 188.9,-227.95 246.11,-353.28 58.12,-126.23 87.18,-226.13 87.18,-300.6l26.34 0 -50.86 930.87z"/>
   <path id="_1_18" class="fil1 str0" d="M15294.62 8233.82l-2993.32 0 0 -23.61c117.15,0 229.77,-32.7 336.93,-96.27 107.17,-63.57 170.74,-152.57 189.81,-266.09l0 -3033.28c-19.07,-111.7 -82.64,-199.8 -189.81,-264.28 -107.16,-64.48 -219.78,-97.17 -336.93,-97.17l0 -23.61 2844.38 0 50.86 776.48 -24.52 0c0,-72.65 -21.8,-159.84 -67.21,-260.64 -45.41,-100.81 -115.34,-194.35 -208.88,-279.72 -94.45,-84.46 -215.23,-138.04 -362.36,-158.93l-907.26 0c-78.1,0 -144.4,27.25 -200.7,81.73 -55.4,55.4 -83.55,122.6 -83.55,202.52l0 1500.29 949.94 0c85.37,-19.07 152.57,-83.55 201.61,-194.35 49.95,-109.89 75.38,-211.6 77.19,-305.14l24.52 0 0 1079.81 -24.52 0c-1.82,-95.36 -27.25,-198.89 -77.19,-308.78 -49.04,-109.89 -116.24,-174.37 -201.61,-194.35l-949.94 0 0 1458.52c0,91.73 31.79,170.74 97.18,235.22 64.48,64.48 143.49,97.17 235.21,97.17l930.87 0c148.03,-24.52 274.27,-92.63 380.52,-202.52 107.16,-109.89 188.9,-227.95 246.11,-353.28 58.12,-126.23 87.18,-226.13 87.18,-300.6l26.34 0 -50.86 930.87z"/>
   <path class="fil0" d="M18958.15 8519.26c-257.55,0 -490.33,-75.23 -699.2,-226.58 -207.99,-151.35 -385.89,-370.84 -533.69,-659.37 -147.81,-289.42 -261.1,-620.43 -340.75,-993.93 -41.6,-215.96 -98.24,-434.57 -169.93,-655.83 -71.69,-221.26 -179.67,-408.9 -323.93,-562.9 -144.27,-153.11 -346.06,-238.97 -603.61,-256.67l-269.06 0 0 1488.68c9.74,119.48 68.15,213.3 175.24,281.45 106.21,68.15 218.61,102.67 338.09,102.67l0 25.67 -1530.28 0 0 -25.67c123.02,0 238.08,-34.52 345.17,-102.67 107.09,-68.15 164.62,-163.74 173.47,-286.76l0 -2919.83c-18.58,-110.63 -80.54,-196.49 -184.09,-259.33 -103.55,-61.95 -212.42,-92.93 -326.59,-92.93l0 -23.01 1718.8 0c235.43,0 449.61,31.86 642.56,96.47 192.06,65.49 346.94,164.62 462.89,298.27 115.06,134.53 173.47,304.46 173.47,509.8 0,143.38 -29.21,269.94 -88.51,378.81 -125.68,224.81 -323.05,375.27 -591.22,451.38 -158.43,46.02 -294.73,69.92 -407.13,69.92l-12.39 0c215.96,63.72 387.66,169.93 514.22,318.62 127.45,148.69 227.46,317.74 300.04,508.03 87.62,233.66 154.89,451.38 201.8,654.06 130.99,455.81 292.07,790.37 482.36,1002.78 177.9,200.91 369.07,300.92 572.63,300.92 12.39,0 75.23,-3.54 189.4,-10.62 114.17,-6.2 278.8,-118.6 492.98,-336.33 46.91,94.7 69.92,185.86 69.92,271.72 0,53.99 -15.04,127.45 -46.91,222.15 -30.97,93.82 -107.98,184.98 -230.11,273.49 -144.27,105.32 -308.89,157.54 -495.64,157.54zm-2230.36 -3429.62c157.54,0 294.73,-41.6 409.78,-123.91 115.94,-81.43 206.22,-186.75 271.71,-315.09 64.61,-127.45 96.48,-259.32 96.48,-393.85 0,-130.99 -31.86,-261.1 -95.59,-388.55 -63.72,-128.33 -154,-234.54 -270.83,-317.73 -116.83,-84.08 -254.01,-125.68 -411.55,-125.68l-396.51 0c-85.85,0 -160.2,30.09 -221.26,92.05 -61.96,61.07 -92.05,134.53 -92.05,221.26l0 1351.5 709.83 0z"/>
   <path id="_1_19" class="fil1 str0" d="M18958.15 8519.26c-257.55,0 -490.33,-75.23 -699.2,-226.58 -207.99,-151.35 -385.89,-370.84 -533.69,-659.37 -147.81,-289.42 -261.1,-620.43 -340.75,-993.93 -41.6,-215.96 -98.24,-434.57 -169.93,-655.83 -71.69,-221.26 -179.67,-408.9 -323.93,-562.9 -144.27,-153.11 -346.06,-238.97 -603.61,-256.67l-269.06 0 0 1488.68c9.74,119.48 68.15,213.3 175.24,281.45 106.21,68.15 218.61,102.67 338.09,102.67l0 25.67 -1530.28 0 0 -25.67c123.02,0 238.08,-34.52 345.17,-102.67 107.09,-68.15 164.62,-163.74 173.47,-286.76l0 -2919.83c-18.58,-110.63 -80.54,-196.49 -184.09,-259.33 -103.55,-61.95 -212.42,-92.93 -326.59,-92.93l0 -23.01 1718.8 0c235.43,0 449.61,31.86 642.56,96.47 192.06,65.49 346.94,164.62 462.89,298.27 115.06,134.53 173.47,304.46 173.47,509.8 0,143.38 -29.21,269.94 -88.51,378.81 -125.68,224.81 -323.05,375.27 -591.22,451.38 -158.43,46.02 -294.73,69.92 -407.13,69.92l-12.39 0c215.96,63.72 387.66,169.93 514.22,318.62 127.45,148.69 227.46,317.74 300.04,508.03 87.62,233.66 154.89,451.38 201.8,654.06 130.99,455.81 292.07,790.37 482.36,1002.78 177.9,200.91 369.07,300.92 572.63,300.92 12.39,0 75.23,-3.54 189.4,-10.62 114.17,-6.2 278.8,-118.6 492.98,-336.33 46.91,94.7 69.92,185.86 69.92,271.72 0,53.99 -15.04,127.45 -46.91,222.15 -30.97,93.82 -107.98,184.98 -230.11,273.49 -144.27,105.32 -308.89,157.54 -495.64,157.54zm-2230.36 -3429.62c157.54,0 294.73,-41.6 409.78,-123.91 115.94,-81.43 206.22,-186.75 271.71,-315.09 64.61,-127.45 96.48,-259.32 96.48,-393.85 0,-130.99 -31.86,-261.1 -95.59,-388.55 -63.72,-128.33 -154,-234.54 -270.83,-317.73 -116.83,-84.08 -254.01,-125.68 -411.55,-125.68l-396.51 0c-85.85,0 -160.2,30.09 -221.26,92.05 -61.96,61.07 -92.05,134.53 -92.05,221.26l0 1351.5 709.83 0z"/>
   <path class="fil0" d="M19360.84 8615.81c-358.6,0 -685.53,-87.55 -980.79,-263.59 -295.26,-175.11 -530.91,-410.76 -705.09,-705.09 -175.11,-294.33 -262.66,-622.19 -262.66,-982.65 0,-357.67 87.55,-684.6 262.66,-978.93 174.17,-295.26 409.82,-529.98 705.09,-706.02 295.26,-175.11 622.19,-263.59 980.79,-263.59 360.46,0 687.39,88.49 982.65,263.59 294.33,176.04 529.98,410.76 705.09,706.02 176.04,294.33 263.59,621.26 263.59,978.93 0,360.46 -87.55,688.32 -263.59,982.65 -175.11,294.33 -410.76,529.98 -705.09,705.09 -295.26,176.04 -622.19,263.59 -982.65,263.59zm0 -79.17c194.67,0 377.23,-53.09 547.68,-158.34 169.52,-105.25 318.55,-246.82 447.08,-423.8 128.54,-177.9 229.13,-378.16 301.78,-600.77 72.65,-222.61 108.98,-452.67 108.98,-689.25 0,-234.72 -36.33,-463.85 -108.98,-687.39 -72.65,-223.54 -173.24,-424.73 -301.78,-602.63 -128.54,-178.84 -277.56,-320.41 -447.08,-425.66 -170.45,-106.18 -353.01,-158.34 -547.68,-158.34 -192.8,0 -374.43,52.16 -543.95,158.34 -170.45,105.25 -319.48,246.82 -448.02,425.66 -127.6,177.9 -229.13,379.09 -302.71,602.63 -73.58,223.54 -110.84,452.67 -110.84,687.39 0,236.58 37.25,466.64 110.84,689.25 73.58,222.61 175.11,422.86 302.71,600.77 128.54,176.97 277.57,318.55 448.02,423.8 169.52,105.25 351.15,158.34 543.95,158.34z"/>
   <path id="_1_20" class="fil1 str0" d="M19360.84 8615.81c-358.6,0 -685.53,-87.55 -980.79,-263.59 -295.26,-175.11 -530.91,-410.76 -705.09,-705.09 -175.11,-294.33 -262.66,-622.19 -262.66,-982.65 0,-357.67 87.55,-684.6 262.66,-978.93 174.17,-295.26 409.82,-529.98 705.09,-706.02 295.26,-175.11 622.19,-263.59 980.79,-263.59 360.46,0 687.39,88.49 982.65,263.59 294.33,176.04 529.98,410.76 705.09,706.02 176.04,294.33 263.59,621.26 263.59,978.93 0,360.46 -87.55,688.32 -263.59,982.65 -175.11,294.33 -410.76,529.98 -705.09,705.09 -295.26,176.04 -622.19,263.59 -982.65,263.59zm0 -79.17c194.67,0 377.23,-53.09 547.68,-158.34 169.52,-105.25 318.55,-246.82 447.08,-423.8 128.54,-177.9 229.13,-378.16 301.78,-600.77 72.65,-222.61 108.98,-452.67 108.98,-689.25 0,-234.72 -36.33,-463.85 -108.98,-687.39 -72.65,-223.54 -173.24,-424.73 -301.78,-602.63 -128.54,-178.84 -277.56,-320.41 -447.08,-425.66 -170.45,-106.18 -353.01,-158.34 -547.68,-158.34 -192.8,0 -374.43,52.16 -543.95,158.34 -170.45,105.25 -319.48,246.82 -448.02,425.66 -127.6,177.9 -229.13,379.09 -302.71,602.63 -73.58,223.54 -110.84,452.67 -110.84,687.39 0,236.58 37.25,466.64 110.84,689.25 73.58,222.61 175.11,422.86 302.71,600.77 128.54,176.97 277.57,318.55 448.02,423.8 169.52,105.25 351.15,158.34 543.95,158.34z"/>
   <path class="fil3" d="M-0 8615.81l0 -59.6c265.13,0 519.99,-73.99 762.52,-217.86 242.52,-143.87 386.39,-345.29 429.55,-602.2l0 -372.01c-119.21,-265.14 -178.81,-548.77 -178.81,-848.84 0,-339.13 59.6,-630.98 178.81,-879.67l0 -4764.18c-43.16,-252.8 -184.97,-450.11 -427.5,-596.03 -240.47,-143.87 -491.22,-215.81 -752.24,-215.81l0 -59.61 4172.26 0c499.44,10.28 947.49,104.82 1350.33,279.52 400.78,174.7 723.47,417.22 965.99,731.69 242.52,312.4 363.79,678.25 363.79,1095.47 0,341.18 -80.16,649.47 -240.47,924.88 -160.31,273.35 -380.23,505.6 -659.75,692.64 -279.52,184.97 -598.09,322.68 -959.82,411.06 464.5,80.16 879.67,221.97 1243.46,421.34 363.79,201.42 649.47,452.17 861.17,750.19 209.64,300.07 316.52,639.19 316.52,1021.48 0,456.28 -147.98,857.06 -439.83,1198.24 -293.91,341.18 -682.36,604.26 -1169.46,791.29 -485.05,187.03 -1029.71,283.63 -1631.91,291.85l-4184.59 6.17zm4137.31 -4558.65c281.58,0 522.05,-59.6 723.47,-180.87 199.36,-119.21 361.73,-277.46 487.11,-472.72 123.32,-193.2 215.81,-404.89 277.46,-630.98 59.6,-228.14 90.43,-446 90.43,-653.58 0,-205.53 -30.83,-419.28 -88.38,-645.36 -57.55,-224.03 -150.04,-435.72 -277.46,-630.98 -125.37,-197.31 -289.8,-357.62 -489.16,-482.99 -201.42,-123.32 -441.89,-184.98 -723.47,-184.98l-1083.14 0c-197.31,4.11 -363.79,71.93 -497.39,203.47 -133.59,133.6 -205.53,298.02 -213.75,493.27l0 3185.71 1794.27 0zm0 4383.95c328.85,0 614.54,-69.88 855.01,-211.7 240.47,-139.76 437.78,-318.57 593.98,-534.38 154.14,-217.86 269.24,-448.06 345.29,-692.64 76.05,-244.58 115.1,-470.66 115.1,-674.14 0,-277.46 -67.83,-579.6 -201.42,-906.39 -135.65,-326.79 -343.24,-604.26 -626.87,-830.34 -283.63,-228.14 -643.31,-347.34 -1081.09,-359.67l-1794.27 0 0 573.43c147.98,-28.77 308.29,-43.16 480.94,-43.16 526.16,0 957.77,100.71 1294.84,300.07 337.07,201.42 585.76,474.78 748.13,820.07 160.31,345.29 240.47,733.74 240.47,1167.41l-1235.24 0c24.66,-164.42 36.99,-332.96 36.99,-505.6 0,-63.71 -6.17,-174.7 -16.44,-330.91 -8.22,-156.2 -51.38,-341.18 -125.37,-550.82 -73.99,-211.7 -189.09,-384.34 -341.18,-517.93 -152.09,-133.6 -353.51,-201.42 -602.2,-201.42 -480.94,0 -873.5,137.71 -1175.63,413.12 -304.18,273.35 -456.28,659.75 -456.28,1159.19 0,363.79 92.49,690.58 275.41,980.38 182.92,289.8 425.45,517.93 727.57,690.58 304.18,170.59 637.14,254.86 1002.98,254.86l939.27 0z"/>
  </g>
 </g>
</svg>
