<?xml version="1.0" encoding="UTF-8"?>
<!DOCTYPE svg PUBLIC "-//W3C//DTD SVG 1.1//EN" "http://www.w3.org/Graphics/SVG/1.1/DTD/svg11.dtd">
<!-- Creator: CorelDRAW -->
<svg xmlns="http://www.w3.org/2000/svg" xml:space="preserve" width="21.3137in" height="10.5356in" version="1.1" style="shape-rendering:geometricPrecision; text-rendering:geometricPrecision; image-rendering:optimizeQuality; fill-rule:evenodd; clip-rule:evenodd"
viewBox="0 0 21313.67 10535.55"
 xmlns:xlink="http://www.w3.org/1999/xlink"
 xmlns:xodm="http://www.corel.com/coreldraw/odm/2003">
 <defs>
  <style type="text/css">
   <![CDATA[
    .str0 {stroke:white;stroke-width:3;stroke-miterlimit:2.61313}
    .fil1 {fill:none;fill-rule:nonzero}
    .fil0 {fill:white;fill-rule:nonzero}
   ]]>
  </style>
 </defs>
 <g id="Layer_x0020_1">
  <metadata id="CorelCorpID_0Corel-Layer"/>
  <path class="fil0" d="M4405.01 10495.5l-421.11 0 0 -6.34c33.43,0 64.9,-9.52 94.67,-28.3 30.01,-18.78 45.62,-45.13 47.57,-79.05l0 -805.61c-5.13,-30.01 -21.96,-53.43 -50.75,-70.76 -28.55,-17.08 -58.56,-25.62 -90.03,-25.62l0 -7.07 495.27 0c64.41,0 123.21,9.03 176.64,27.08 53.43,18.06 95.88,45.62 127.6,82.46 31.72,37.08 47.57,83.93 47.57,140.53 0,56.6 -15.86,103.44 -47.57,140.53 -31.72,36.84 -74.17,64.41 -127.6,82.46 -53.43,18.06 -112.23,27.08 -176.64,27.08l-216.41 0 0 410.37c2.44,32.94 18.06,58.8 47.57,77.58 29.28,18.79 60.26,28.3 93.2,28.3l0 6.34zm75.63 -543.09c42.94,0 80.52,-11.46 112.72,-34.4 32.2,-22.93 57.09,-51.97 74.9,-86.86 18.06,-35.13 26.84,-71.24 26.84,-108.32 0,-36.6 -8.78,-72.71 -26.35,-107.84 -17.56,-35.38 -42.45,-64.41 -74.65,-87.35 -32.21,-22.93 -70.02,-34.15 -113.45,-34.15l-130.77 0c-23.67,0 -43.91,8.3 -60.75,24.89 -16.59,16.83 -24.89,37.08 -24.89,60.75l0 373.28 216.41 0z"/>
  <path id="_1" class="fil0" d="M5432.5 10495.5c-74.66,0 -142.97,-11.47 -204.21,-34.65 -61.48,-23.18 -110.52,-57.58 -147.12,-103.69 -36.35,-45.87 -54.65,-102.47 -54.65,-169.81l0 -615.31c-6.59,-29.03 -24.15,-51.72 -52.7,-67.83 -28.79,-16.35 -58.56,-24.4 -89.54,-24.4l0 -7.07 421.11 0 0 7.07c-30.5,0 -60.02,8.05 -88.57,24.4 -28.79,16.1 -46.35,38.8 -52.94,67.83l0 615.31c0,48.8 11.47,94.91 34.16,138.82 22.93,43.67 54.65,79.54 94.91,107.59 40.26,27.81 86.86,41.72 139.56,41.72 60.02,0 114.91,-12.93 164.44,-39.04 49.53,-25.86 89.05,-60.75 118.33,-104.18 29.28,-43.67 43.91,-91.98 43.91,-144.92l0 -633.12c-5.12,-22.93 -22.69,-40.99 -52.21,-54.41 -29.52,-13.42 -57.09,-20.01 -82.71,-20.01l0 -7.07 290.09 0 0 7.07c-25.13,0 -52.7,6.59 -82.22,20.01 -29.52,13.42 -46.84,31.47 -52.21,54.41l0 633.12c0,56.85 -15.61,108.57 -46.85,155.17 -31.23,46.84 -72.95,83.93 -125.65,111.5 -52.7,27.57 -111.01,41.48 -174.93,41.48z"/>
  <path id="_2" class="fil0" d="M6770.32 10495.5l-804.15 0 0 -6.34c31.47,0 61.73,-8.78 90.52,-25.86 28.79,-17.08 45.87,-40.99 50.99,-71.48l0 -814.89c-5.13,-30.01 -22.2,-53.67 -50.99,-71 -28.79,-17.32 -59.04,-26.11 -90.52,-26.11l0 -6.34 764.14 0 13.66 208.6 -6.59 0c0,-19.52 -5.85,-42.94 -18.06,-70.02 -12.2,-27.08 -30.98,-52.21 -56.11,-75.15 -25.37,-22.69 -57.82,-37.08 -97.35,-42.69l-243.73 0c-20.98,0 -38.8,7.32 -53.92,21.96 -14.88,14.88 -22.44,32.94 -22.44,54.41l0 403.05 255.2 0c22.93,-5.12 40.99,-22.44 54.16,-52.21 13.42,-29.52 20.25,-56.85 20.74,-81.98l6.59 0 0 290.09 -6.59 0c-0.49,-25.62 -7.32,-53.43 -20.74,-82.95 -13.17,-29.52 -31.23,-46.84 -54.16,-52.21l-255.2 0 0 391.83c0,24.64 8.54,45.87 26.11,63.19 17.32,17.32 38.55,26.11 63.19,26.11l250.07 0c39.77,-6.59 73.68,-24.89 102.23,-54.41 28.79,-29.52 50.75,-61.24 66.12,-94.91 15.61,-33.91 23.42,-60.75 23.42,-80.76l7.07 0 -13.66 250.07z"/>
  <path id="_3" class="fil0" d="M7790 10496.97l-428.18 0 0 -6.34c22.44,0 45.38,-3.42 69.04,-9.76 23.67,-6.34 42.21,-17.32 56.11,-32.45 9.52,-11.47 14.4,-25.86 14.4,-42.94 0,-7.07 -0.73,-14.64 -2.2,-22.2l0.73 0c-9.52,-60.51 -24.15,-121.26 -43.92,-182.5 -20,-61.24 -50.02,-113.2 -90.52,-155.9 -40.5,-42.7 -96.86,-66.36 -168.83,-71.24l-73.44 0 0 411.1c2.44,32.94 18.06,58.8 47.57,77.58 29.28,18.79 60.26,28.3 93.2,28.3l0 6.34 -421.11 0 0 -6.34c33.43,0 64.9,-9.76 94.67,-28.79 30.01,-19.03 45.62,-45.13 47.57,-78.56l0 -805.61c-5.13,-30.01 -21.96,-53.67 -50.75,-71 -28.55,-17.32 -58.56,-26.11 -90.03,-26.11l0 -6.59 474.54 0c64.41,0 123.21,9.03 176.64,26.84 53.43,18.06 95.89,45.38 127.6,82.22 31.72,37.08 47.57,83.93 47.57,140.53 0,40.02 -8.05,74.9 -24.4,104.43 -33.18,61.97 -87.34,103.69 -162.24,124.91 -43.19,12.93 -81.98,19.52 -115.65,19.52 63.19,18.54 113.69,50.26 151.51,95.39 37.57,44.89 66.12,95.89 85.64,152.49 19.52,56.85 34.4,112.23 44.4,166.63 9.52,28.06 27.08,52.46 52.94,72.95 25.62,20.5 54.65,30.74 87.1,30.74l0 6.34zm-471.12 -544.07c42.94,0 80.51,-11.22 112.72,-33.91 32.2,-22.69 57.09,-51.48 75.15,-86.86 17.81,-35.13 26.59,-71.48 26.59,-108.57 0,-36.11 -8.78,-71.97 -26.35,-107.1 -17.57,-35.38 -42.45,-64.41 -74.66,-87.35 -32.2,-22.93 -70.02,-34.16 -113.45,-34.16l-110.04 0c-23.67,0 -43.91,8.3 -60.75,24.89 -16.59,16.59 -24.89,36.84 -24.89,60.75l0 372.31 195.67 0z"/>
  <path id="_4" class="fil0" d="M8440.54 10495.5l-420.86 0 0 -6.34c33.18,0 64.9,-9.52 94.66,-28.3 29.77,-18.78 45.63,-45.13 47.57,-79.05l0 -888.32 -224.46 0c-39.52,6.59 -73.68,24.64 -102.23,53.92 -28.54,29.28 -50.5,60.75 -65.87,94.66 -15.13,33.91 -22.93,60.75 -23.42,80.76l-6.59 0 13.66 -250.08 959.32 0 14.15 250.08 -7.07 0c0,-20.01 -7.81,-46.85 -23.18,-80.76 -15.61,-33.91 -37.57,-65.39 -65.87,-94.66 -28.3,-29.28 -62.46,-47.33 -102.47,-53.92l-228.12 0 0 889.78c2.44,32.94 18.3,58.8 47.57,77.58 29.28,18.79 60.5,28.3 93.2,28.3l0 6.34z"/>
  <path id="_5" class="fil0" d="M9288.71 10495.5c-93.93,0 -179.57,-22.93 -256.91,-69.04 -77.34,-45.87 -139.07,-107.59 -184.69,-184.69 -45.87,-77.09 -68.8,-162.98 -68.8,-257.39 0,-93.69 22.93,-179.32 68.8,-256.42 45.62,-77.34 107.35,-138.82 184.69,-184.93 77.34,-45.87 162.98,-69.05 256.91,-69.05 94.42,0 180.06,23.18 257.39,69.05 77.1,46.11 138.82,107.59 184.69,184.93 46.11,77.1 69.04,162.73 69.04,256.42 0,94.42 -22.93,180.3 -69.04,257.39 -45.87,77.1 -107.59,138.82 -184.69,184.69 -77.34,46.11 -162.98,69.04 -257.39,69.04zm0 -20.74c50.99,0 98.81,-13.91 143.46,-41.48 44.41,-27.57 83.44,-64.65 117.11,-111.01 33.67,-46.6 60.02,-99.06 79.05,-157.36 19.03,-58.31 28.55,-118.57 28.55,-180.54 0,-61.48 -9.52,-121.5 -28.55,-180.06 -19.03,-58.56 -45.38,-111.26 -79.05,-157.85 -33.67,-46.84 -72.7,-83.93 -117.11,-111.5 -44.65,-27.81 -92.47,-41.48 -143.46,-41.48 -50.5,0 -98.08,13.66 -142.48,41.48 -44.65,27.57 -83.69,64.65 -117.35,111.5 -33.42,46.6 -60.02,99.3 -79.29,157.85 -19.27,58.55 -29.03,118.57 -29.03,180.06 0,61.97 9.76,122.23 29.03,180.54 19.28,58.31 45.87,110.76 79.29,157.36 33.67,46.36 72.71,83.44 117.35,111.01 44.41,27.57 91.98,41.48 142.48,41.48z"/>
  <path id="_6" class="fil0" d="M10758.04 10496.97l-428.18 0 0 -6.34c22.44,0 45.38,-3.42 69.04,-9.76 23.67,-6.34 42.21,-17.32 56.11,-32.45 9.52,-11.47 14.4,-25.86 14.4,-42.94 0,-7.07 -0.73,-14.64 -2.2,-22.2l0.73 0c-9.52,-60.51 -24.15,-121.26 -43.92,-182.5 -20,-61.24 -50.02,-113.2 -90.52,-155.9 -40.5,-42.7 -96.86,-66.36 -168.83,-71.24l-73.44 0 0 411.1c2.44,32.94 18.06,58.8 47.57,77.58 29.28,18.79 60.26,28.3 93.2,28.3l0 6.34 -421.11 0 0 -6.34c33.43,0 64.9,-9.76 94.67,-28.79 30.01,-19.03 45.62,-45.13 47.57,-78.56l0 -805.61c-5.13,-30.01 -21.96,-53.67 -50.75,-71 -28.55,-17.32 -58.56,-26.11 -90.03,-26.11l0 -6.59 474.54 0c64.41,0 123.21,9.03 176.64,26.84 53.43,18.06 95.89,45.38 127.6,82.22 31.72,37.08 47.57,83.93 47.57,140.53 0,40.02 -8.05,74.9 -24.4,104.43 -33.18,61.97 -87.34,103.69 -162.24,124.91 -43.19,12.93 -81.98,19.52 -115.65,19.52 63.19,18.54 113.69,50.26 151.51,95.39 37.57,44.89 66.12,95.89 85.64,152.49 19.52,56.85 34.4,112.23 44.4,166.63 9.52,28.06 27.08,52.46 52.94,72.95 25.62,20.5 54.65,30.74 87.1,30.74l0 6.34zm-471.12 -544.07c42.94,0 80.51,-11.22 112.72,-33.91 32.2,-22.69 57.09,-51.48 75.15,-86.86 17.81,-35.13 26.59,-71.48 26.59,-108.57 0,-36.11 -8.78,-71.97 -26.35,-107.1 -17.57,-35.38 -42.45,-64.41 -74.66,-87.35 -32.2,-22.93 -70.02,-34.16 -113.45,-34.16l-110.04 0c-23.67,0 -43.91,8.3 -60.75,24.89 -16.59,16.59 -24.89,36.84 -24.89,60.75l0 372.31 195.67 0z"/>
  <path id="_7" class="fil0" d="M11756.98 10496.97l-428.18 0 0 -6.34c22.44,0 45.38,-3.42 69.04,-9.76 23.67,-6.34 42.21,-17.32 56.11,-32.45 9.52,-11.47 14.4,-25.86 14.4,-42.94 0,-7.07 -0.73,-14.64 -2.2,-22.2l0.73 0c-9.52,-60.51 -24.15,-121.26 -43.92,-182.5 -20,-61.24 -50.02,-113.2 -90.52,-155.9 -40.5,-42.7 -96.86,-66.36 -168.83,-71.24l-73.44 0 0 411.1c2.44,32.94 18.06,58.8 47.57,77.58 29.28,18.79 60.26,28.3 93.2,28.3l0 6.34 -421.11 0 0 -6.34c33.43,0 64.9,-9.76 94.67,-28.79 30.01,-19.03 45.62,-45.13 47.57,-78.56l0 -805.61c-5.13,-30.01 -21.96,-53.67 -50.75,-71 -28.55,-17.32 -58.56,-26.11 -90.03,-26.11l0 -6.59 474.54 0c64.41,0 123.21,9.03 176.64,26.84 53.43,18.06 95.89,45.38 127.6,82.22 31.72,37.08 47.57,83.93 47.57,140.53 0,40.02 -8.05,74.9 -24.4,104.43 -33.18,61.97 -87.34,103.69 -162.24,124.91 -43.19,12.93 -81.98,19.52 -115.65,19.52 63.19,18.54 113.69,50.26 151.51,95.39 37.57,44.89 66.12,95.89 85.64,152.49 19.52,56.85 34.4,112.23 44.4,166.63 9.52,28.06 27.08,52.46 52.94,72.95 25.62,20.5 54.65,30.74 87.1,30.74l0 6.34zm-471.12 -544.07c42.94,0 80.51,-11.22 112.72,-33.91 32.2,-22.69 57.09,-51.48 75.15,-86.86 17.81,-35.13 26.59,-71.48 26.59,-108.57 0,-36.11 -8.78,-71.97 -26.35,-107.1 -17.57,-35.38 -42.45,-64.41 -74.66,-87.35 -32.2,-22.93 -70.02,-34.16 -113.45,-34.16l-110.04 0c-23.67,0 -43.91,8.3 -60.75,24.89 -16.59,16.59 -24.89,36.84 -24.89,60.75l0 372.31 195.67 0z"/>
  <path id="_8" class="fil0" d="M12229.91 10495.5l-421.11 0 0 -6.34c33.43,0 64.9,-9.52 94.67,-28.3 30.01,-18.78 45.87,-45.13 48.31,-79.05l0 -794.88c-2.44,-33.67 -18.3,-60.02 -48.31,-78.8 -29.77,-18.79 -61.24,-28.3 -94.67,-28.3l0 -6.34 421.11 0 0 6.34c-32.45,0 -63.19,9.52 -92.47,28.3 -29.52,18.79 -45.62,44.65 -48.31,77.58l0 797.56c2.69,32.94 18.79,58.8 48.31,77.58 29.28,18.79 60.02,28.3 92.47,28.3l0 6.34z"/>
  <path id="_9" class="fil0" d="M13183.96 10534.05c-37.82,0 -73.19,-9.03 -106.62,-27.08 -27.08,-14.4 -54.41,-32.2 -81.49,-53.68 -63.43,28.06 -131.26,42.21 -203.72,42.21 -93.93,0 -179.32,-22.93 -256.67,-69.04 -77.09,-45.87 -138.58,-107.59 -184.69,-184.69 -45.87,-77.09 -69.05,-162.98 -69.05,-257.39 0,-93.69 23.18,-179.32 69.05,-256.42 46.11,-77.34 107.59,-138.82 184.69,-184.93 77.34,-45.87 162.73,-69.05 256.67,-69.05 94.42,0 180.06,23.18 257.39,69.05 77.1,46.11 138.82,107.59 184.69,184.93 46.11,77.1 69.04,162.73 69.04,256.42 0,82.46 -17.81,158.58 -53.19,228.36 -35.62,69.78 -83.93,128.33 -144.93,175.66 20.01,7.07 40.74,10.74 62.22,10.74 13.42,0 32.2,-2.44 56.11,-7.32 24.15,-4.64 55.87,-23.91 95.39,-57.82 2.44,-1.95 5.13,-2.93 8.05,-2.93 2.2,0.49 4.39,1.71 6.35,3.66 9.02,12.44 13.66,30.98 13.66,55.63 0,5.37 -0.73,17.81 -1.95,37.57 -1.22,19.76 -15.61,43.19 -43.19,70.51 -24.89,23.67 -64.17,35.62 -117.84,35.62zm-155.9 -180.06c40.99,-48.06 73.19,-104.42 96.86,-169.07 23.67,-64.65 35.38,-131.26 35.38,-200.55 0,-61.48 -9.52,-121.5 -28.55,-180.06 -19.03,-58.56 -45.38,-111.26 -79.05,-157.85 -33.67,-46.84 -72.7,-83.93 -117.11,-111.5 -44.65,-27.81 -92.47,-41.48 -143.46,-41.48 -50.5,0 -98.08,13.66 -142.48,41.48 -44.65,27.57 -83.69,64.65 -117.35,111.5 -33.42,46.6 -59.77,99.3 -79.05,157.85 -19.03,58.55 -28.54,118.57 -28.54,180.06 0,101 24.64,195.91 73.68,284.48 68.56,-39.04 130.77,-58.56 186.64,-58.56 52.7,0 101.98,10.49 147.61,31.47 45.38,20.98 88.56,45.14 129.55,72.22 22.44,14.4 44.4,27.57 65.87,40.01zm-235.93 120.77c58.07,0 111.98,-17.81 161.51,-53.68 -37.57,-30.98 -78.31,-60.26 -122.23,-88.07 -43.67,-28.06 -92.71,-48.06 -146.39,-60.51 -23.91,-5.61 -49.28,-8.54 -76.61,-8.54 -32.94,0 -68.07,4.15 -105.64,12.93 34.16,59.04 76.37,106.86 126.38,143.21 50.02,36.35 104.42,54.65 162.98,54.65z"/>
  <path id="_10" class="fil0" d="M13860.12 10495.5c-74.66,0 -142.97,-11.47 -204.21,-34.65 -61.48,-23.18 -110.52,-57.58 -147.12,-103.69 -36.35,-45.87 -54.65,-102.47 -54.65,-169.81l0 -615.31c-6.59,-29.03 -24.15,-51.72 -52.7,-67.83 -28.79,-16.35 -58.56,-24.4 -89.54,-24.4l0 -7.07 421.11 0 0 7.07c-30.5,0 -60.02,8.05 -88.57,24.4 -28.79,16.1 -46.35,38.8 -52.94,67.83l0 615.31c0,48.8 11.47,94.91 34.16,138.82 22.93,43.67 54.65,79.54 94.91,107.59 40.26,27.81 86.86,41.72 139.56,41.72 60.02,0 114.91,-12.93 164.44,-39.04 49.53,-25.86 89.05,-60.75 118.33,-104.18 29.28,-43.67 43.91,-91.98 43.91,-144.92l0 -633.12c-5.12,-22.93 -22.69,-40.99 -52.21,-54.41 -29.52,-13.42 -57.09,-20.01 -82.71,-20.01l0 -7.07 290.09 0 0 7.07c-25.13,0 -52.7,6.59 -82.22,20.01 -29.52,13.42 -46.84,31.47 -52.21,54.41l0 633.12c0,56.85 -15.61,108.57 -46.85,155.17 -31.23,46.84 -72.95,83.93 -125.65,111.5 -52.7,27.57 -111.01,41.48 -174.93,41.48z"/>
  <path id="_11" class="fil0" d="M15197.94 10495.5l-804.15 0 0 -6.34c31.47,0 61.73,-8.78 90.52,-25.86 28.79,-17.08 45.87,-40.99 50.99,-71.48l0 -814.89c-5.13,-30.01 -22.2,-53.67 -50.99,-71 -28.79,-17.32 -59.04,-26.11 -90.52,-26.11l0 -6.34 764.14 0 13.66 208.6 -6.59 0c0,-19.52 -5.85,-42.94 -18.06,-70.02 -12.2,-27.08 -30.98,-52.21 -56.11,-75.15 -25.37,-22.69 -57.82,-37.08 -97.35,-42.69l-243.73 0c-20.98,0 -38.8,7.32 -53.92,21.96 -14.88,14.88 -22.44,32.94 -22.44,54.41l0 403.05 255.2 0c22.93,-5.12 40.99,-22.44 54.16,-52.21 13.42,-29.52 20.25,-56.85 20.74,-81.98l6.59 0 0 290.09 -6.59 0c-0.49,-25.62 -7.32,-53.43 -20.74,-82.95 -13.17,-29.52 -31.23,-46.84 -54.16,-52.21l-255.2 0 0 391.83c0,24.64 8.54,45.87 26.11,63.19 17.32,17.32 38.55,26.11 63.19,26.11l250.07 0c39.77,-6.59 73.68,-24.89 102.23,-54.41 28.79,-29.52 50.75,-61.24 66.12,-94.91 15.61,-33.91 23.42,-60.75 23.42,-80.76l7.07 0 -13.66 250.07z"/>
  <path id="_12" class="fil0" d="M16126.13 10495.5l-19.28 0 -676.06 -933.46 0 847.09c2.68,24.15 18.78,43.43 47.82,57.82 29.03,14.15 56.36,21.71 82.22,22.2l0 6.34 -279.6 0 0 -6.34c25.37,-0.49 52.7,-8.05 81.98,-22.2 29.28,-14.4 45.38,-33.43 48.06,-57.09l0 -814.15c0,-22.93 -7.07,-43.19 -21.71,-60.5 -14.4,-17.32 -32.45,-30.99 -53.92,-40.99 -21.47,-10 -43.19,-15.13 -65.14,-15.13l0 -6.34 265.94 0 570.42 796.83 -0.73 -710.46c-2.44,-24.15 -18.3,-43.67 -47.57,-57.82 -29.28,-14.4 -56.6,-21.72 -81.73,-22.2l0 -6.34 279.35 0 0 7.07c-25.13,0 -52.21,7.07 -81.49,20.98 -29.04,14.15 -45.14,33.18 -48.55,56.85l0 937.85zm-253.01 -1165.72c-21.47,0 -41.23,-8.05 -59.28,-24.4 -16.59,-14.15 -32.94,-21.47 -48.55,-21.47 -3.91,0 -11.96,1.46 -23.91,4.39 -12.2,2.93 -24.4,14.88 -36.11,36.35l-35.13 -37.81c15.13,-45.38 37.09,-72.22 65.87,-80.76 9.03,-2.93 18.06,-4.39 27.08,-4.39 18.06,0 35.62,6.35 52.94,18.79 23.18,18.06 42.94,27.08 59.29,27.08 2.44,0 8.3,-0.73 18.3,-2.2 9.76,-1.46 21.96,-10.74 36.59,-27.81l31.48 45.63c-22.69,44.4 -52.46,66.61 -88.57,66.61z"/>
  <path id="_13" class="fil0" d="M16818.64 10495.5c-93.93,0 -179.57,-22.93 -256.91,-69.04 -77.34,-45.87 -139.07,-107.59 -184.69,-184.69 -45.87,-77.09 -68.8,-162.98 -68.8,-257.39 0,-93.69 22.93,-179.32 68.8,-256.42 45.62,-77.34 107.35,-138.82 184.69,-184.93 77.34,-45.87 162.98,-69.05 256.91,-69.05 94.42,0 180.06,23.18 257.39,69.05 77.1,46.11 138.82,107.59 184.69,184.93 46.11,77.1 69.04,162.73 69.04,256.42 0,94.42 -22.93,180.3 -69.04,257.39 -45.87,77.1 -107.59,138.82 -184.69,184.69 -77.34,46.11 -162.98,69.04 -257.39,69.04zm0 -20.74c50.99,0 98.81,-13.91 143.46,-41.48 44.41,-27.57 83.44,-64.65 117.11,-111.01 33.67,-46.6 60.02,-99.06 79.05,-157.36 19.03,-58.31 28.55,-118.57 28.55,-180.54 0,-61.48 -9.52,-121.5 -28.55,-180.06 -19.03,-58.56 -45.38,-111.26 -79.05,-157.85 -33.67,-46.84 -72.7,-83.93 -117.11,-111.5 -44.65,-27.81 -92.47,-41.48 -143.46,-41.48 -50.5,0 -98.08,13.66 -142.48,41.48 -44.65,27.57 -83.69,64.65 -117.35,111.5 -33.42,46.6 -60.02,99.3 -79.29,157.85 -19.27,58.55 -29.03,118.57 -29.03,180.06 0,61.97 9.76,122.23 29.03,180.54 19.28,58.31 45.87,110.76 79.29,157.36 33.67,46.36 72.71,83.44 117.35,111.01 44.41,27.57 91.98,41.48 142.48,41.48z"/>
  <path id="_14" class="fil1 str0" d="M4405.01 10495.5l-421.11 0 0 -6.34c33.43,0 64.9,-9.52 94.67,-28.3 30.01,-18.78 45.62,-45.13 47.57,-79.05l0 -805.61c-5.13,-30.01 -21.96,-53.43 -50.75,-70.76 -28.55,-17.08 -58.56,-25.62 -90.03,-25.62l0 -7.07 495.27 0c64.41,0 123.21,9.03 176.64,27.08 53.43,18.06 95.88,45.62 127.6,82.46 31.72,37.08 47.57,83.93 47.57,140.53 0,56.6 -15.86,103.44 -47.57,140.53 -31.72,36.84 -74.17,64.41 -127.6,82.46 -53.43,18.06 -112.23,27.08 -176.64,27.08l-216.41 0 0 410.37c2.44,32.94 18.06,58.8 47.57,77.58 29.28,18.79 60.26,28.3 93.2,28.3l0 6.34zm75.63 -543.09c42.94,0 80.52,-11.46 112.72,-34.4 32.2,-22.93 57.09,-51.97 74.9,-86.86 18.06,-35.13 26.84,-71.24 26.84,-108.32 0,-36.6 -8.78,-72.71 -26.35,-107.84 -17.56,-35.38 -42.45,-64.41 -74.65,-87.35 -32.21,-22.93 -70.02,-34.15 -113.45,-34.15l-130.77 0c-23.67,0 -43.91,8.3 -60.75,24.89 -16.59,16.83 -24.89,37.08 -24.89,60.75l0 373.28 216.41 0z"/>
  <path id="_15" class="fil1 str0" d="M5432.5 10495.5c-74.66,0 -142.97,-11.47 -204.21,-34.65 -61.48,-23.18 -110.52,-57.58 -147.12,-103.69 -36.35,-45.87 -54.65,-102.47 -54.65,-169.81l0 -615.31c-6.59,-29.03 -24.15,-51.72 -52.7,-67.83 -28.79,-16.35 -58.56,-24.4 -89.54,-24.4l0 -7.07 421.11 0 0 7.07c-30.5,0 -60.02,8.05 -88.57,24.4 -28.79,16.1 -46.35,38.8 -52.94,67.83l0 615.31c0,48.8 11.47,94.91 34.16,138.82 22.93,43.67 54.65,79.54 94.91,107.59 40.26,27.81 86.86,41.72 139.56,41.72 60.02,0 114.91,-12.93 164.44,-39.04 49.53,-25.86 89.05,-60.75 118.33,-104.18 29.28,-43.67 43.91,-91.98 43.91,-144.92l0 -633.12c-5.12,-22.93 -22.69,-40.99 -52.21,-54.41 -29.52,-13.42 -57.09,-20.01 -82.71,-20.01l0 -7.07 290.09 0 0 7.07c-25.13,0 -52.7,6.59 -82.22,20.01 -29.52,13.42 -46.84,31.47 -52.21,54.41l0 633.12c0,56.85 -15.61,108.57 -46.85,155.17 -31.23,46.84 -72.95,83.93 -125.65,111.5 -52.7,27.57 -111.01,41.48 -174.93,41.48z"/>
  <path id="_16" class="fil1 str0" d="M6770.32 10495.5l-804.15 0 0 -6.34c31.47,0 61.73,-8.78 90.52,-25.86 28.79,-17.08 45.87,-40.99 50.99,-71.48l0 -814.89c-5.13,-30.01 -22.2,-53.67 -50.99,-71 -28.79,-17.32 -59.04,-26.11 -90.52,-26.11l0 -6.34 764.14 0 13.66 208.6 -6.59 0c0,-19.52 -5.85,-42.94 -18.06,-70.02 -12.2,-27.08 -30.98,-52.21 -56.11,-75.15 -25.37,-22.69 -57.82,-37.08 -97.35,-42.69l-243.73 0c-20.98,0 -38.8,7.32 -53.92,21.96 -14.88,14.88 -22.44,32.94 -22.44,54.41l0 403.05 255.2 0c22.93,-5.12 40.99,-22.44 54.16,-52.21 13.42,-29.52 20.25,-56.85 20.74,-81.98l6.59 0 0 290.09 -6.59 0c-0.49,-25.62 -7.32,-53.43 -20.74,-82.95 -13.17,-29.52 -31.23,-46.84 -54.16,-52.21l-255.2 0 0 391.83c0,24.64 8.54,45.87 26.11,63.19 17.32,17.32 38.55,26.11 63.19,26.11l250.07 0c39.77,-6.59 73.68,-24.89 102.23,-54.41 28.79,-29.52 50.75,-61.24 66.12,-94.91 15.61,-33.91 23.42,-60.75 23.42,-80.76l7.07 0 -13.66 250.07z"/>
  <path id="_17" class="fil1 str0" d="M7790 10496.97l-428.18 0 0 -6.34c22.44,0 45.38,-3.42 69.04,-9.76 23.67,-6.34 42.21,-17.32 56.11,-32.45 9.52,-11.47 14.4,-25.86 14.4,-42.94 0,-7.07 -0.73,-14.64 -2.2,-22.2l0.73 0c-9.52,-60.51 -24.15,-121.26 -43.92,-182.5 -20,-61.24 -50.02,-113.2 -90.52,-155.9 -40.5,-42.7 -96.86,-66.36 -168.83,-71.24l-73.44 0 0 411.1c2.44,32.94 18.06,58.8 47.57,77.58 29.28,18.79 60.26,28.3 93.2,28.3l0 6.34 -421.11 0 0 -6.34c33.43,0 64.9,-9.76 94.67,-28.79 30.01,-19.03 45.62,-45.13 47.57,-78.56l0 -805.61c-5.13,-30.01 -21.96,-53.67 -50.75,-71 -28.55,-17.32 -58.56,-26.11 -90.03,-26.11l0 -6.59 474.54 0c64.41,0 123.21,9.03 176.64,26.84 53.43,18.06 95.89,45.38 127.6,82.22 31.72,37.08 47.57,83.93 47.57,140.53 0,40.02 -8.05,74.9 -24.4,104.43 -33.18,61.97 -87.34,103.69 -162.24,124.91 -43.19,12.93 -81.98,19.52 -115.65,19.52 63.19,18.54 113.69,50.26 151.51,95.39 37.57,44.89 66.12,95.89 85.64,152.49 19.52,56.85 34.4,112.23 44.4,166.63 9.52,28.06 27.08,52.46 52.94,72.95 25.62,20.5 54.65,30.74 87.1,30.74l0 6.34zm-471.12 -544.07c42.94,0 80.51,-11.22 112.72,-33.91 32.2,-22.69 57.09,-51.48 75.15,-86.86 17.81,-35.13 26.59,-71.48 26.59,-108.57 0,-36.11 -8.78,-71.97 -26.35,-107.1 -17.57,-35.38 -42.45,-64.41 -74.66,-87.35 -32.2,-22.93 -70.02,-34.16 -113.45,-34.16l-110.04 0c-23.67,0 -43.91,8.3 -60.75,24.89 -16.59,16.59 -24.89,36.84 -24.89,60.75l0 372.31 195.67 0z"/>
  <path id="_18" class="fil1 str0" d="M8440.54 10495.5l-420.86 0 0 -6.34c33.18,0 64.9,-9.52 94.66,-28.3 29.77,-18.78 45.63,-45.13 47.57,-79.05l0 -888.32 -224.46 0c-39.52,6.59 -73.68,24.64 -102.23,53.92 -28.54,29.28 -50.5,60.75 -65.87,94.66 -15.13,33.91 -22.93,60.75 -23.42,80.76l-6.59 0 13.66 -250.08 959.32 0 14.15 250.08 -7.07 0c0,-20.01 -7.81,-46.85 -23.18,-80.76 -15.61,-33.91 -37.57,-65.39 -65.87,-94.66 -28.3,-29.28 -62.46,-47.33 -102.47,-53.92l-228.12 0 0 889.78c2.44,32.94 18.3,58.8 47.57,77.58 29.28,18.79 60.5,28.3 93.2,28.3l0 6.34z"/>
  <path id="_19" class="fil1 str0" d="M9288.71 10495.5c-93.93,0 -179.57,-22.93 -256.91,-69.04 -77.34,-45.87 -139.07,-107.59 -184.69,-184.69 -45.87,-77.09 -68.8,-162.98 -68.8,-257.39 0,-93.69 22.93,-179.32 68.8,-256.42 45.62,-77.34 107.35,-138.82 184.69,-184.93 77.34,-45.87 162.98,-69.05 256.91,-69.05 94.42,0 180.06,23.18 257.39,69.05 77.1,46.11 138.82,107.59 184.69,184.93 46.11,77.1 69.04,162.73 69.04,256.42 0,94.42 -22.93,180.3 -69.04,257.39 -45.87,77.1 -107.59,138.82 -184.69,184.69 -77.34,46.11 -162.98,69.04 -257.39,69.04zm0 -20.74c50.99,0 98.81,-13.91 143.46,-41.48 44.41,-27.57 83.44,-64.65 117.11,-111.01 33.67,-46.6 60.02,-99.06 79.05,-157.36 19.03,-58.31 28.55,-118.57 28.55,-180.54 0,-61.48 -9.52,-121.5 -28.55,-180.06 -19.03,-58.56 -45.38,-111.26 -79.05,-157.85 -33.67,-46.84 -72.7,-83.93 -117.11,-111.5 -44.65,-27.81 -92.47,-41.48 -143.46,-41.48 -50.5,0 -98.08,13.66 -142.48,41.48 -44.65,27.57 -83.69,64.65 -117.35,111.5 -33.42,46.6 -60.02,99.3 -79.29,157.85 -19.27,58.55 -29.03,118.57 -29.03,180.06 0,61.97 9.76,122.23 29.03,180.54 19.28,58.31 45.87,110.76 79.29,157.36 33.67,46.36 72.71,83.44 117.35,111.01 44.41,27.57 91.98,41.48 142.48,41.48z"/>
  <path id="_20" class="fil1 str0" d="M10758.04 10496.97l-428.18 0 0 -6.34c22.44,0 45.38,-3.42 69.04,-9.76 23.67,-6.34 42.21,-17.32 56.11,-32.45 9.52,-11.47 14.4,-25.86 14.4,-42.94 0,-7.07 -0.73,-14.64 -2.2,-22.2l0.73 0c-9.52,-60.51 -24.15,-121.26 -43.92,-182.5 -20,-61.24 -50.02,-113.2 -90.52,-155.9 -40.5,-42.7 -96.86,-66.36 -168.83,-71.24l-73.44 0 0 411.1c2.44,32.94 18.06,58.8 47.57,77.58 29.28,18.79 60.26,28.3 93.2,28.3l0 6.34 -421.11 0 0 -6.34c33.43,0 64.9,-9.76 94.67,-28.79 30.01,-19.03 45.62,-45.13 47.57,-78.56l0 -805.61c-5.13,-30.01 -21.96,-53.67 -50.75,-71 -28.55,-17.32 -58.56,-26.11 -90.03,-26.11l0 -6.59 474.54 0c64.41,0 123.21,9.03 176.64,26.84 53.43,18.06 95.89,45.38 127.6,82.22 31.72,37.08 47.57,83.93 47.57,140.53 0,40.02 -8.05,74.9 -24.4,104.43 -33.18,61.97 -87.34,103.69 -162.24,124.91 -43.19,12.93 -81.98,19.52 -115.65,19.52 63.19,18.54 113.69,50.26 151.51,95.39 37.57,44.89 66.12,95.89 85.64,152.49 19.52,56.85 34.4,112.23 44.4,166.63 9.52,28.06 27.08,52.46 52.94,72.95 25.62,20.5 54.65,30.74 87.1,30.74l0 6.34zm-471.12 -544.07c42.94,0 80.51,-11.22 112.72,-33.91 32.2,-22.69 57.09,-51.48 75.15,-86.86 17.81,-35.13 26.59,-71.48 26.59,-108.57 0,-36.11 -8.78,-71.97 -26.35,-107.1 -17.57,-35.38 -42.45,-64.41 -74.66,-87.35 -32.2,-22.93 -70.02,-34.16 -113.45,-34.16l-110.04 0c-23.67,0 -43.91,8.3 -60.75,24.89 -16.59,16.59 -24.89,36.84 -24.89,60.75l0 372.31 195.67 0z"/>
  <path id="_21" class="fil1 str0" d="M11756.98 10496.97l-428.18 0 0 -6.34c22.44,0 45.38,-3.42 69.04,-9.76 23.67,-6.34 42.21,-17.32 56.11,-32.45 9.52,-11.47 14.4,-25.86 14.4,-42.94 0,-7.07 -0.73,-14.64 -2.2,-22.2l0.73 0c-9.52,-60.51 -24.15,-121.26 -43.92,-182.5 -20,-61.24 -50.02,-113.2 -90.52,-155.9 -40.5,-42.7 -96.86,-66.36 -168.83,-71.24l-73.44 0 0 411.1c2.44,32.94 18.06,58.8 47.57,77.58 29.28,18.79 60.26,28.3 93.2,28.3l0 6.34 -421.11 0 0 -6.34c33.43,0 64.9,-9.76 94.67,-28.79 30.01,-19.03 45.62,-45.13 47.57,-78.56l0 -805.61c-5.13,-30.01 -21.96,-53.67 -50.75,-71 -28.55,-17.32 -58.56,-26.11 -90.03,-26.11l0 -6.59 474.54 0c64.41,0 123.21,9.03 176.64,26.84 53.43,18.06 95.89,45.38 127.6,82.22 31.72,37.08 47.57,83.93 47.57,140.53 0,40.02 -8.05,74.9 -24.4,104.43 -33.18,61.97 -87.34,103.69 -162.24,124.91 -43.19,12.93 -81.98,19.52 -115.65,19.52 63.19,18.54 113.69,50.26 151.51,95.39 37.57,44.89 66.12,95.89 85.64,152.49 19.52,56.85 34.4,112.23 44.4,166.63 9.52,28.06 27.08,52.46 52.94,72.95 25.62,20.5 54.65,30.74 87.1,30.74l0 6.34zm-471.12 -544.07c42.94,0 80.51,-11.22 112.72,-33.91 32.2,-22.69 57.09,-51.48 75.15,-86.86 17.81,-35.13 26.59,-71.48 26.59,-108.57 0,-36.11 -8.78,-71.97 -26.35,-107.1 -17.57,-35.38 -42.45,-64.41 -74.66,-87.35 -32.2,-22.93 -70.02,-34.16 -113.45,-34.16l-110.04 0c-23.67,0 -43.91,8.3 -60.75,24.89 -16.59,16.59 -24.89,36.84 -24.89,60.75l0 372.31 195.67 0z"/>
  <path id="_22" class="fil1 str0" d="M12229.91 10495.5l-421.11 0 0 -6.34c33.43,0 64.9,-9.52 94.67,-28.3 30.01,-18.78 45.87,-45.13 48.31,-79.05l0 -794.88c-2.44,-33.67 -18.3,-60.02 -48.31,-78.8 -29.77,-18.79 -61.24,-28.3 -94.67,-28.3l0 -6.34 421.11 0 0 6.34c-32.45,0 -63.19,9.52 -92.47,28.3 -29.52,18.79 -45.62,44.65 -48.31,77.58l0 797.56c2.69,32.94 18.79,58.8 48.31,77.58 29.28,18.79 60.02,28.3 92.47,28.3l0 6.34z"/>
  <path id="_23" class="fil1 str0" d="M13183.96 10534.05c-37.82,0 -73.19,-9.03 -106.62,-27.08 -27.08,-14.4 -54.41,-32.2 -81.49,-53.68 -63.43,28.06 -131.26,42.21 -203.72,42.21 -93.93,0 -179.32,-22.93 -256.67,-69.04 -77.09,-45.87 -138.58,-107.59 -184.69,-184.69 -45.87,-77.09 -69.05,-162.98 -69.05,-257.39 0,-93.69 23.18,-179.32 69.05,-256.42 46.11,-77.34 107.59,-138.82 184.69,-184.93 77.34,-45.87 162.73,-69.05 256.67,-69.05 94.42,0 180.06,23.18 257.39,69.05 77.1,46.11 138.82,107.59 184.69,184.93 46.11,77.1 69.04,162.73 69.04,256.42 0,82.46 -17.81,158.58 -53.19,228.36 -35.62,69.78 -83.93,128.33 -144.93,175.66 20.01,7.07 40.74,10.74 62.22,10.74 13.42,0 32.2,-2.44 56.11,-7.32 24.15,-4.64 55.87,-23.91 95.39,-57.82 2.44,-1.95 5.13,-2.93 8.05,-2.93 2.2,0.49 4.39,1.71 6.35,3.66 9.02,12.44 13.66,30.98 13.66,55.63 0,5.37 -0.73,17.81 -1.95,37.57 -1.22,19.76 -15.61,43.19 -43.19,70.51 -24.89,23.67 -64.17,35.62 -117.84,35.62zm-155.9 -180.06c40.99,-48.06 73.19,-104.42 96.86,-169.07 23.67,-64.65 35.38,-131.26 35.38,-200.55 0,-61.48 -9.52,-121.5 -28.55,-180.06 -19.03,-58.56 -45.38,-111.26 -79.05,-157.85 -33.67,-46.84 -72.7,-83.93 -117.11,-111.5 -44.65,-27.81 -92.47,-41.48 -143.46,-41.48 -50.5,0 -98.08,13.66 -142.48,41.48 -44.65,27.57 -83.69,64.65 -117.35,111.5 -33.42,46.6 -59.77,99.3 -79.05,157.85 -19.03,58.55 -28.54,118.57 -28.54,180.06 0,101 24.64,195.91 73.68,284.48 68.56,-39.04 130.77,-58.56 186.64,-58.56 52.7,0 101.98,10.49 147.61,31.47 45.38,20.98 88.56,45.14 129.55,72.22 22.44,14.4 44.4,27.57 65.87,40.01zm-235.93 120.77c58.07,0 111.98,-17.81 161.51,-53.68 -37.57,-30.98 -78.31,-60.26 -122.23,-88.07 -43.67,-28.06 -92.71,-48.06 -146.39,-60.51 -23.91,-5.61 -49.28,-8.54 -76.61,-8.54 -32.94,0 -68.07,4.15 -105.64,12.93 34.16,59.04 76.37,106.86 126.38,143.21 50.02,36.35 104.42,54.65 162.98,54.65z"/>
  <path id="_24" class="fil1 str0" d="M13860.12 10495.5c-74.66,0 -142.97,-11.47 -204.21,-34.65 -61.48,-23.18 -110.52,-57.58 -147.12,-103.69 -36.35,-45.87 -54.65,-102.47 -54.65,-169.81l0 -615.31c-6.59,-29.03 -24.15,-51.72 -52.7,-67.83 -28.79,-16.35 -58.56,-24.4 -89.54,-24.4l0 -7.07 421.11 0 0 7.07c-30.5,0 -60.02,8.05 -88.57,24.4 -28.79,16.1 -46.35,38.8 -52.94,67.83l0 615.31c0,48.8 11.47,94.91 34.16,138.82 22.93,43.67 54.65,79.54 94.91,107.59 40.26,27.81 86.86,41.72 139.56,41.72 60.02,0 114.91,-12.93 164.44,-39.04 49.53,-25.86 89.05,-60.75 118.33,-104.18 29.28,-43.67 43.91,-91.98 43.91,-144.92l0 -633.12c-5.12,-22.93 -22.69,-40.99 -52.21,-54.41 -29.52,-13.42 -57.09,-20.01 -82.71,-20.01l0 -7.07 290.09 0 0 7.07c-25.13,0 -52.7,6.59 -82.22,20.01 -29.52,13.42 -46.84,31.47 -52.21,54.41l0 633.12c0,56.85 -15.61,108.57 -46.85,155.17 -31.23,46.84 -72.95,83.93 -125.65,111.5 -52.7,27.57 -111.01,41.48 -174.93,41.48z"/>
  <path id="_25" class="fil1 str0" d="M15197.94 10495.5l-804.15 0 0 -6.34c31.47,0 61.73,-8.78 90.52,-25.86 28.79,-17.08 45.87,-40.99 50.99,-71.48l0 -814.89c-5.13,-30.01 -22.2,-53.67 -50.99,-71 -28.79,-17.32 -59.04,-26.11 -90.52,-26.11l0 -6.34 764.14 0 13.66 208.6 -6.59 0c0,-19.52 -5.85,-42.94 -18.06,-70.02 -12.2,-27.08 -30.98,-52.21 -56.11,-75.15 -25.37,-22.69 -57.82,-37.08 -97.35,-42.69l-243.73 0c-20.98,0 -38.8,7.32 -53.92,21.96 -14.88,14.88 -22.44,32.94 -22.44,54.41l0 403.05 255.2 0c22.93,-5.12 40.99,-22.44 54.16,-52.21 13.42,-29.52 20.25,-56.85 20.74,-81.98l6.59 0 0 290.09 -6.59 0c-0.49,-25.62 -7.32,-53.43 -20.74,-82.95 -13.17,-29.52 -31.23,-46.84 -54.16,-52.21l-255.2 0 0 391.83c0,24.64 8.54,45.87 26.11,63.19 17.32,17.32 38.55,26.11 63.19,26.11l250.07 0c39.77,-6.59 73.68,-24.89 102.23,-54.41 28.79,-29.52 50.75,-61.24 66.12,-94.91 15.61,-33.91 23.42,-60.75 23.42,-80.76l7.07 0 -13.66 250.07z"/>
  <path id="_26" class="fil1 str0" d="M16126.13 10495.5l-19.28 0 -676.06 -933.46 0 847.09c2.68,24.15 18.78,43.43 47.82,57.82 29.03,14.15 56.36,21.71 82.22,22.2l0 6.34 -279.6 0 0 -6.34c25.37,-0.49 52.7,-8.05 81.98,-22.2 29.28,-14.4 45.38,-33.43 48.06,-57.09l0 -814.15c0,-22.93 -7.07,-43.19 -21.71,-60.5 -14.4,-17.32 -32.45,-30.99 -53.92,-40.99 -21.47,-10 -43.19,-15.13 -65.14,-15.13l0 -6.34 265.94 0 570.42 796.83 -0.73 -710.46c-2.44,-24.15 -18.3,-43.67 -47.57,-57.82 -29.28,-14.4 -56.6,-21.72 -81.73,-22.2l0 -6.34 279.35 0 0 7.07c-25.13,0 -52.21,7.07 -81.49,20.98 -29.04,14.15 -45.14,33.18 -48.55,56.85l0 937.85zm-253.01 -1165.72c-21.47,0 -41.23,-8.05 -59.28,-24.4 -16.59,-14.15 -32.94,-21.47 -48.55,-21.47 -3.91,0 -11.96,1.46 -23.91,4.39 -12.2,2.93 -24.4,14.88 -36.11,36.35l-35.13 -37.81c15.13,-45.38 37.09,-72.22 65.87,-80.76 9.03,-2.93 18.06,-4.39 27.08,-4.39 18.06,0 35.62,6.35 52.94,18.79 23.18,18.06 42.94,27.08 59.29,27.08 2.44,0 8.3,-0.73 18.3,-2.2 9.76,-1.46 21.96,-10.74 36.59,-27.81l31.48 45.63c-22.69,44.4 -52.46,66.61 -88.57,66.61z"/>
  <path id="_27" class="fil1 str0" d="M16818.64 10495.5c-93.93,0 -179.57,-22.93 -256.91,-69.04 -77.34,-45.87 -139.07,-107.59 -184.69,-184.69 -45.87,-77.09 -68.8,-162.98 -68.8,-257.39 0,-93.69 22.93,-179.32 68.8,-256.42 45.62,-77.34 107.35,-138.82 184.69,-184.93 77.34,-45.87 162.98,-69.05 256.91,-69.05 94.42,0 180.06,23.18 257.39,69.05 77.1,46.11 138.82,107.59 184.69,184.93 46.11,77.1 69.04,162.73 69.04,256.42 0,94.42 -22.93,180.3 -69.04,257.39 -45.87,77.1 -107.59,138.82 -184.69,184.69 -77.34,46.11 -162.98,69.04 -257.39,69.04zm0 -20.74c50.99,0 98.81,-13.91 143.46,-41.48 44.41,-27.57 83.44,-64.65 117.11,-111.01 33.67,-46.6 60.02,-99.06 79.05,-157.36 19.03,-58.31 28.55,-118.57 28.55,-180.54 0,-61.48 -9.52,-121.5 -28.55,-180.06 -19.03,-58.56 -45.38,-111.26 -79.05,-157.85 -33.67,-46.84 -72.7,-83.93 -117.11,-111.5 -44.65,-27.81 -92.47,-41.48 -143.46,-41.48 -50.5,0 -98.08,13.66 -142.48,41.48 -44.65,27.57 -83.69,64.65 -117.35,111.5 -33.42,46.6 -60.02,99.3 -79.29,157.85 -19.27,58.55 -29.03,118.57 -29.03,180.06 0,61.97 9.76,122.23 29.03,180.54 19.28,58.31 45.87,110.76 79.29,157.36 33.67,46.36 72.71,83.44 117.35,111.01 44.41,27.57 91.98,41.48 142.48,41.48z"/>
  <g id="_2600895343024">
   <path class="fil0" d="M8634.28 8616.7c-379.88,0 -726.21,-92.75 -1038.99,-279.24 -312.78,-185.5 -562.42,-435.13 -746.93,-746.93 -185.5,-311.8 -278.25,-659.11 -278.25,-1040.97 0,-378.89 92.75,-725.22 278.25,-1037.02 184.52,-312.78 434.15,-561.43 746.93,-747.92 312.78,-185.5 659.11,-279.24 1038.99,-279.24 381.85,0 728.19,93.74 1040.97,279.24 311.8,186.48 561.43,435.13 746.93,747.92 186.49,311.8 279.24,658.13 279.24,1037.02 0,381.85 -92.75,729.17 -279.24,1040.97 -185.5,311.8 -435.13,561.43 -746.93,746.93 -312.78,186.49 -659.11,279.24 -1040.97,279.24zm0 -83.87c206.22,0 399.61,-56.24 580.18,-167.74 179.58,-111.5 337.45,-261.48 473.61,-448.95 136.17,-188.46 242.73,-400.6 319.69,-636.42 76.96,-235.82 115.44,-479.54 115.44,-730.16 0,-248.65 -38.48,-491.37 -115.44,-728.19 -76.96,-236.81 -183.52,-449.93 -319.69,-638.39 -136.17,-189.44 -294.04,-339.42 -473.61,-450.92 -180.57,-112.48 -373.96,-167.74 -580.18,-167.74 -204.24,0 -396.65,55.25 -576.23,167.74 -180.56,111.5 -338.44,261.48 -474.6,450.92 -135.18,188.46 -242.73,401.59 -320.68,638.39 -77.95,236.81 -117.42,479.54 -117.42,728.19 0,250.62 39.47,494.33 117.42,730.16 77.95,235.82 185.5,447.96 320.68,636.42 136.17,187.47 294.04,337.45 474.6,448.95 179.58,111.5 371.99,167.74 576.23,167.74z"/>
   <path id="_1_21" class="fil1 str0" d="M8634.28 8616.7c-379.88,0 -726.21,-92.75 -1038.99,-279.24 -312.78,-185.5 -562.42,-435.13 -746.93,-746.93 -185.5,-311.8 -278.25,-659.11 -278.25,-1040.97 0,-378.89 92.75,-725.22 278.25,-1037.02 184.52,-312.78 434.15,-561.43 746.93,-747.92 312.78,-185.5 659.11,-279.24 1038.99,-279.24 381.85,0 728.19,93.74 1040.97,279.24 311.8,186.48 561.43,435.13 746.93,747.92 186.49,311.8 279.24,658.13 279.24,1037.02 0,381.85 -92.75,729.17 -279.24,1040.97 -185.5,311.8 -435.13,561.43 -746.93,746.93 -312.78,186.49 -659.11,279.24 -1040.97,279.24zm0 -83.87c206.22,0 399.61,-56.24 580.18,-167.74 179.58,-111.5 337.45,-261.48 473.61,-448.95 136.17,-188.46 242.73,-400.6 319.69,-636.42 76.96,-235.82 115.44,-479.54 115.44,-730.16 0,-248.65 -38.48,-491.37 -115.44,-728.19 -76.96,-236.81 -183.52,-449.93 -319.69,-638.39 -136.17,-189.44 -294.04,-339.42 -473.61,-450.92 -180.57,-112.48 -373.96,-167.74 -580.18,-167.74 -204.24,0 -396.65,55.25 -576.23,167.74 -180.56,111.5 -338.44,261.48 -474.6,450.92 -135.18,188.46 -242.73,401.59 -320.68,638.39 -77.95,236.81 -117.42,479.54 -117.42,728.19 0,250.62 39.47,494.33 117.42,730.16 77.95,235.82 185.5,447.96 320.68,636.42 136.17,187.47 294.04,337.45 474.6,448.95 179.58,111.5 371.99,167.74 576.23,167.74z"/>
   <path class="fil0" d="M13924.68 8616.7l-3546.5 0 0 -31.2c138.8,0 272.23,-38.74 399.2,-114.06 126.96,-75.32 203.36,-180.77 228.11,-315.27l0 -3549.72c-11.83,-146.33 -83.93,-261.47 -214.13,-343.24 -130.19,-81.78 -269,-122.67 -416.41,-122.67l0 -32.28 1857.18 0 0 32.28c-140.96,0 -275.46,39.81 -403.5,119.44 -128.05,79.63 -201.21,190.45 -217.35,331.41l0 3540.04c0,108.68 37.66,202.29 115.13,278.69 76.39,76.39 168.93,115.13 278.68,115.13l1106.13 0c174.31,-29.05 324.95,-108.68 450.84,-237.8 125.89,-129.12 222.73,-269 290.52,-417.49 66.71,-149.56 101.15,-267.93 103.3,-356.16l29.05 0 -60.26 1102.9z"/>
   <path id="_1_22" class="fil1 str0" d="M13924.68 8616.7l-3546.5 0 0 -31.2c138.8,0 272.23,-38.74 399.2,-114.06 126.96,-75.32 203.36,-180.77 228.11,-315.27l0 -3549.72c-11.83,-146.33 -83.93,-261.47 -214.13,-343.24 -130.19,-81.78 -269,-122.67 -416.41,-122.67l0 -32.28 1857.18 0 0 32.28c-140.96,0 -275.46,39.81 -403.5,119.44 -128.05,79.63 -201.21,190.45 -217.35,331.41l0 3540.04c0,108.68 37.66,202.29 115.13,278.69 76.39,76.39 168.93,115.13 278.68,115.13l1106.13 0c174.31,-29.05 324.95,-108.68 450.84,-237.8 125.89,-129.12 222.73,-269 290.52,-417.49 66.71,-149.56 101.15,-267.93 103.3,-356.16l29.05 0 -60.26 1102.9z"/>
   <path class="fil0" d="M15295.05 8234.74l-2993.11 0 0 -23.61c117.15,0 229.75,-32.69 336.91,-96.26 107.16,-63.57 170.72,-152.56 189.8,-266.07l0 -3033.06c-19.07,-111.7 -82.64,-199.78 -189.8,-264.26 -107.15,-64.47 -219.76,-97.17 -336.91,-97.17l0 -23.61 2844.18 0 50.85 776.43 -24.52 0c0,-72.65 -21.8,-159.83 -67.2,-260.63 -45.41,-100.8 -115.33,-194.33 -208.87,-279.7 -94.44,-84.45 -215.22,-138.03 -362.33,-158.92l-907.2 0c-78.09,0 -144.39,27.24 -200.69,81.73 -55.39,55.39 -83.55,122.59 -83.55,202.51l0 1500.19 949.88 0c85.36,-19.07 152.56,-83.54 201.6,-194.33 49.94,-109.88 75.37,-211.59 77.19,-305.12l24.52 0 0 1079.74 -24.52 0c-1.81,-95.35 -27.24,-198.87 -77.19,-308.76 -49.04,-109.88 -116.24,-174.35 -201.6,-194.33l-949.88 0 0 1458.41c0,91.72 31.78,170.72 97.17,235.2 64.48,64.47 143.48,97.17 235.2,97.17l930.81 0c148.02,-24.52 274.25,-92.63 380.5,-202.51 107.15,-109.88 188.89,-227.93 246.09,-353.25 58.12,-126.22 87.18,-226.12 87.18,-300.58l26.33 0 -50.85 930.81z"/>
   <path id="_1_23" class="fil1 str0" d="M15295.05 8234.74l-2993.11 0 0 -23.61c117.15,0 229.75,-32.69 336.91,-96.26 107.16,-63.57 170.72,-152.56 189.8,-266.07l0 -3033.06c-19.07,-111.7 -82.64,-199.78 -189.8,-264.26 -107.15,-64.47 -219.76,-97.17 -336.91,-97.17l0 -23.61 2844.18 0 50.85 776.43 -24.52 0c0,-72.65 -21.8,-159.83 -67.2,-260.63 -45.41,-100.8 -115.33,-194.33 -208.87,-279.7 -94.44,-84.45 -215.22,-138.03 -362.33,-158.92l-907.2 0c-78.09,0 -144.39,27.24 -200.69,81.73 -55.39,55.39 -83.55,122.59 -83.55,202.51l0 1500.19 949.88 0c85.36,-19.07 152.56,-83.54 201.6,-194.33 49.94,-109.88 75.37,-211.59 77.19,-305.12l24.52 0 0 1079.74 -24.52 0c-1.81,-95.35 -27.24,-198.87 -77.19,-308.76 -49.04,-109.88 -116.24,-174.35 -201.6,-194.33l-949.88 0 0 1458.41c0,91.72 31.78,170.72 97.17,235.2 64.48,64.47 143.48,97.17 235.2,97.17l930.81 0c148.02,-24.52 274.25,-92.63 380.5,-202.51 107.15,-109.88 188.89,-227.93 246.09,-353.25 58.12,-126.22 87.18,-226.12 87.18,-300.58l26.33 0 -50.85 930.81z"/>
   <path class="fil0" d="M18958.31 8520.17c-257.54,0 -490.29,-75.22 -699.15,-226.56 -207.97,-151.33 -385.86,-370.81 -533.65,-659.33 -147.8,-289.4 -261.08,-620.39 -340.73,-993.86 -41.59,-215.94 -98.24,-434.54 -169.92,-655.79 -71.69,-221.25 -179.65,-408.87 -323.91,-562.86 -144.26,-153.1 -346.04,-238.95 -603.57,-256.65l-269.04 0 0 1488.57c9.74,119.48 68.15,213.28 175.23,281.43 106.2,68.15 218.59,102.66 338.07,102.66l0 25.67 -1530.17 0 0 -25.67c123.02,0 238.07,-34.52 345.15,-102.66 107.09,-68.15 164.61,-163.72 173.46,-286.74l0 -2919.62c-18.58,-110.63 -80.54,-196.47 -184.08,-259.31 -103.55,-61.95 -212.4,-92.93 -326.57,-92.93l0 -23.01 1718.68 0c235.41,0 449.58,31.86 642.51,96.46 192.04,65.49 346.92,164.61 462.85,298.24 115.05,134.52 173.46,304.44 173.46,509.76 0,143.37 -29.2,269.93 -88.5,378.78 -125.67,224.79 -323.03,375.24 -591.18,451.35 -158.42,46.02 -294.7,69.92 -407.1,69.92l-12.39 0c215.94,63.72 387.63,169.92 514.19,318.6 127.44,148.68 227.45,317.72 300.02,507.99 87.62,233.64 154.88,451.35 201.78,654.02 130.98,455.78 292.05,790.31 482.33,1002.71 177.89,200.9 369.04,300.9 572.59,300.9 12.39,0 75.22,-3.54 189.39,-10.62 114.17,-6.2 278.78,-118.59 492.95,-336.3 46.91,94.7 69.91,185.85 69.91,271.7 0,53.98 -15.04,127.44 -46.91,222.13 -30.97,93.81 -107.97,184.97 -230.1,273.47 -144.26,105.31 -308.87,157.53 -495.6,157.53zm-2230.2 -3429.38c157.53,0 294.7,-41.6 409.76,-123.9 115.93,-81.42 206.2,-186.74 271.69,-315.06 64.61,-127.44 96.47,-259.3 96.47,-393.82 0,-130.98 -31.86,-261.08 -95.58,-388.52 -63.72,-128.32 -153.99,-234.52 -270.81,-317.71 -116.82,-84.07 -254,-125.67 -411.52,-125.67l-396.48 0c-85.84,0 -160.19,30.09 -221.25,92.04 -61.95,61.06 -92.04,134.52 -92.04,221.25l0 1351.4 709.78 0z"/>
   <path id="_1_24" class="fil1 str0" d="M18958.31 8520.17c-257.54,0 -490.29,-75.22 -699.15,-226.56 -207.97,-151.33 -385.86,-370.81 -533.65,-659.33 -147.8,-289.4 -261.08,-620.39 -340.73,-993.86 -41.59,-215.94 -98.24,-434.54 -169.92,-655.79 -71.69,-221.25 -179.65,-408.87 -323.91,-562.86 -144.26,-153.1 -346.04,-238.95 -603.57,-256.65l-269.04 0 0 1488.57c9.74,119.48 68.15,213.28 175.23,281.43 106.2,68.15 218.59,102.66 338.07,102.66l0 25.67 -1530.17 0 0 -25.67c123.02,0 238.07,-34.52 345.15,-102.66 107.09,-68.15 164.61,-163.72 173.46,-286.74l0 -2919.62c-18.58,-110.63 -80.54,-196.47 -184.08,-259.31 -103.55,-61.95 -212.4,-92.93 -326.57,-92.93l0 -23.01 1718.68 0c235.41,0 449.58,31.86 642.51,96.46 192.04,65.49 346.92,164.61 462.85,298.24 115.05,134.52 173.46,304.44 173.46,509.76 0,143.37 -29.2,269.93 -88.5,378.78 -125.67,224.79 -323.03,375.24 -591.18,451.35 -158.42,46.02 -294.7,69.92 -407.1,69.92l-12.39 0c215.94,63.72 387.63,169.92 514.19,318.6 127.44,148.68 227.45,317.72 300.02,507.99 87.62,233.64 154.88,451.35 201.78,654.02 130.98,455.78 292.05,790.31 482.33,1002.71 177.89,200.9 369.04,300.9 572.59,300.9 12.39,0 75.22,-3.54 189.39,-10.62 114.17,-6.2 278.78,-118.59 492.95,-336.3 46.91,94.7 69.91,185.85 69.91,271.7 0,53.98 -15.04,127.44 -46.91,222.13 -30.97,93.81 -107.97,184.97 -230.1,273.47 -144.26,105.31 -308.87,157.53 -495.6,157.53zm-2230.2 -3429.38c157.53,0 294.7,-41.6 409.76,-123.9 115.93,-81.42 206.2,-186.74 271.69,-315.06 64.61,-127.44 96.47,-259.3 96.47,-393.82 0,-130.98 -31.86,-261.08 -95.58,-388.52 -63.72,-128.32 -153.99,-234.52 -270.81,-317.71 -116.82,-84.07 -254,-125.67 -411.52,-125.67l-396.48 0c-85.84,0 -160.19,30.09 -221.25,92.04 -61.95,61.06 -92.04,134.52 -92.04,221.25l0 1351.4 709.78 0z"/>
   <path class="fil0" d="M19360.98 8616.7c-358.57,0 -685.48,-87.55 -980.72,-263.57 -295.24,-175.09 -530.87,-410.73 -705.04,-705.04 -175.1,-294.31 -262.65,-622.15 -262.65,-982.58 0,-357.64 87.55,-684.55 262.65,-978.86 174.16,-295.24 409.8,-529.94 705.04,-705.97 295.24,-175.09 622.15,-263.57 980.72,-263.57 360.44,0 687.34,88.48 982.58,263.57 294.31,176.03 529.94,410.73 705.04,705.97 176.03,294.31 263.57,621.22 263.57,978.86 0,360.44 -87.55,688.27 -263.57,982.58 -175.09,294.31 -410.73,529.94 -705.04,705.04 -295.24,176.03 -622.15,263.57 -982.58,263.57zm0 -79.17c194.65,0 377.2,-53.09 547.64,-158.33 169.51,-105.24 318.52,-246.81 447.05,-423.77 128.53,-177.89 229.11,-378.13 301.76,-600.72 72.65,-222.59 108.97,-452.64 108.97,-689.2 0,-234.7 -36.32,-463.81 -108.97,-687.34 -72.65,-223.52 -173.23,-424.7 -301.76,-602.59 -128.53,-178.82 -277.54,-320.39 -447.05,-425.63 -170.44,-106.18 -352.98,-158.33 -547.64,-158.33 -192.79,0 -374.41,52.15 -543.91,158.33 -170.44,105.24 -319.46,246.81 -447.98,425.63 -127.59,177.89 -229.11,379.06 -302.69,602.59 -73.58,223.53 -110.83,452.64 -110.83,687.34 0,236.56 37.25,466.61 110.83,689.2 73.58,222.59 175.09,422.83 302.69,600.72 128.53,176.96 277.55,318.52 447.98,423.77 169.51,105.24 351.12,158.33 543.91,158.33z"/>
   <path id="_1_25" class="fil1 str0" d="M19360.98 8616.7c-358.57,0 -685.48,-87.55 -980.72,-263.57 -295.24,-175.09 -530.87,-410.73 -705.04,-705.04 -175.1,-294.31 -262.65,-622.15 -262.65,-982.58 0,-357.64 87.55,-684.55 262.65,-978.86 174.16,-295.24 409.8,-529.94 705.04,-705.97 295.24,-175.09 622.15,-263.57 980.72,-263.57 360.44,0 687.34,88.48 982.58,263.57 294.31,176.03 529.94,410.73 705.04,705.97 176.03,294.31 263.57,621.22 263.57,978.86 0,360.44 -87.55,688.27 -263.57,982.58 -175.09,294.31 -410.73,529.94 -705.04,705.04 -295.24,176.03 -622.15,263.57 -982.58,263.57zm0 -79.17c194.65,0 377.2,-53.09 547.64,-158.33 169.51,-105.24 318.52,-246.81 447.05,-423.77 128.53,-177.89 229.11,-378.13 301.76,-600.72 72.65,-222.59 108.97,-452.64 108.97,-689.2 0,-234.7 -36.32,-463.81 -108.97,-687.34 -72.65,-223.52 -173.23,-424.7 -301.76,-602.59 -128.53,-178.82 -277.54,-320.39 -447.05,-425.63 -170.44,-106.18 -352.98,-158.33 -547.64,-158.33 -192.79,0 -374.41,52.15 -543.91,158.33 -170.44,105.24 -319.46,246.81 -447.98,425.63 -127.59,177.89 -229.11,379.06 -302.69,602.59 -73.58,223.53 -110.83,452.64 -110.83,687.34 0,236.56 37.25,466.61 110.83,689.2 73.58,222.59 175.09,422.83 302.69,600.72 128.53,176.96 277.55,318.52 447.98,423.77 169.51,105.24 351.12,158.33 543.91,158.33z"/>
   <path class="fil0" d="M1.5 8616.7l0 -59.6c265.11,0 519.96,-73.99 762.46,-217.85 242.51,-143.86 386.37,-345.27 429.52,-602.16l0 -371.98c-119.2,-265.12 -178.8,-548.73 -178.8,-848.78 0,-339.1 59.6,-630.93 178.8,-879.61l0 -4763.85c-43.16,-252.78 -184.96,-450.08 -427.47,-595.99 -240.45,-143.86 -491.19,-215.79 -752.19,-215.79l0 -59.6 4171.96 0c499.4,10.28 947.43,104.81 1350.23,279.5 400.76,174.69 723.42,417.19 965.93,731.63 242.51,312.38 363.76,678.2 363.76,1095.4 0,341.15 -80.15,649.43 -240.45,924.82 -160.3,273.33 -380.2,505.57 -659.7,692.59 -279.5,184.96 -598.05,322.66 -959.76,411.03 464.46,80.15 879.61,221.96 1243.37,421.31 363.76,201.41 649.43,452.13 861.11,750.13 209.63,300.05 316.5,639.15 316.5,1021.41 0,456.24 -147.97,857 -439.8,1198.15 -293.89,341.16 -682.31,604.22 -1169.38,791.24 -485.02,187.02 -1029.63,283.61 -1631.79,291.83l-4184.3 6.17zm4137.02 -4558.33c281.56,0 522.01,-59.6 723.42,-180.85 199.35,-119.2 361.7,-277.44 487.07,-472.69 123.31,-193.19 215.79,-404.87 277.44,-630.93 59.6,-228.12 90.43,-445.97 90.43,-653.54 0,-205.52 -30.83,-419.25 -88.37,-645.32 -57.54,-224.01 -150.03,-435.69 -277.44,-630.93 -125.37,-197.3 -289.78,-357.6 -489.13,-482.96 -201.41,-123.31 -441.86,-184.96 -723.42,-184.96l-1083.06 0c-197.3,4.11 -363.76,71.93 -497.35,203.46 -133.58,133.59 -205.51,298 -213.73,493.24l0 3185.49 1794.15 0zm0 4383.64c328.83,0 614.49,-69.87 854.94,-211.68 240.45,-139.75 437.75,-318.55 593.94,-534.34 154.13,-217.85 269.22,-448.02 345.26,-692.59 76.04,-244.56 115.09,-470.63 115.09,-674.09 0,-277.44 -67.82,-579.56 -201.41,-906.32 -135.64,-326.77 -343.21,-604.22 -626.82,-830.28 -283.61,-228.12 -643.26,-347.32 -1081.01,-359.65l-1794.15 0 0 573.39c147.97,-28.77 308.27,-43.16 480.91,-43.16 526.12,0 957.7,100.7 1294.74,300.05 337.05,201.41 585.72,474.74 748.08,820.01 160.3,345.27 240.45,733.69 240.45,1167.33l-1235.15 0c24.66,-164.41 36.99,-332.93 36.99,-505.57 0,-63.71 -6.17,-174.69 -16.44,-330.88 -8.22,-156.19 -51.38,-341.15 -125.36,-550.78 -73.99,-211.68 -189.07,-384.31 -341.16,-517.9 -152.08,-133.59 -353.48,-201.41 -602.16,-201.41 -480.91,0 -873.44,137.7 -1175.55,413.09 -304.16,273.33 -456.24,659.7 -456.24,1159.11 0,363.76 92.48,690.53 275.39,980.31 182.91,289.78 425.42,517.9 727.52,690.53 304.16,170.58 637.1,254.84 1002.91,254.84l939.2 0z"/>
   <path id="_1_26" class="fil1 str0" d="M1.5 8616.7l0 -59.6c265.11,0 519.96,-73.99 762.46,-217.85 242.51,-143.86 386.37,-345.27 429.52,-602.16l0 -371.98c-119.2,-265.12 -178.8,-548.73 -178.8,-848.78 0,-339.1 59.6,-630.93 178.8,-879.61l0 -4763.85c-43.16,-252.78 -184.96,-450.08 -427.47,-595.99 -240.45,-143.86 -491.19,-215.79 -752.19,-215.79l0 -59.6 4171.96 0c499.4,10.28 947.43,104.81 1350.23,279.5 400.76,174.69 723.42,417.19 965.93,731.63 242.51,312.38 363.76,678.2 363.76,1095.4 0,341.15 -80.15,649.43 -240.45,924.82 -160.3,273.33 -380.2,505.57 -659.7,692.59 -279.5,184.96 -598.05,322.66 -959.76,411.03 464.46,80.15 879.61,221.96 1243.37,421.31 363.76,201.41 649.43,452.13 861.11,750.13 209.63,300.05 316.5,639.15 316.5,1021.41 0,456.24 -147.97,857 -439.8,1198.15 -293.89,341.16 -682.31,604.22 -1169.38,791.24 -485.02,187.02 -1029.63,283.61 -1631.79,291.83l-4184.3 6.17zm4137.02 -4558.33c281.56,0 522.01,-59.6 723.42,-180.85 199.35,-119.2 361.7,-277.44 487.07,-472.69 123.31,-193.19 215.79,-404.87 277.44,-630.93 59.6,-228.12 90.43,-445.97 90.43,-653.54 0,-205.52 -30.83,-419.25 -88.37,-645.32 -57.54,-224.01 -150.03,-435.69 -277.44,-630.93 -125.37,-197.3 -289.78,-357.6 -489.13,-482.96 -201.41,-123.31 -441.86,-184.96 -723.42,-184.96l-1083.06 0c-197.3,4.11 -363.76,71.93 -497.35,203.46 -133.58,133.59 -205.51,298 -213.73,493.24l0 3185.49 1794.15 0zm0 4383.64c328.83,0 614.49,-69.87 854.94,-211.68 240.45,-139.75 437.75,-318.55 593.94,-534.34 154.13,-217.85 269.22,-448.02 345.26,-692.59 76.04,-244.56 115.09,-470.63 115.09,-674.09 0,-277.44 -67.82,-579.56 -201.41,-906.32 -135.64,-326.77 -343.21,-604.22 -626.82,-830.28 -283.61,-228.12 -643.26,-347.32 -1081.01,-359.65l-1794.15 0 0 573.39c147.97,-28.77 308.27,-43.16 480.91,-43.16 526.12,0 957.7,100.7 1294.74,300.05 337.05,201.41 585.72,474.74 748.08,820.01 160.3,345.27 240.45,733.69 240.45,1167.33l-1235.15 0c24.66,-164.41 36.99,-332.93 36.99,-505.57 0,-63.71 -6.17,-174.69 -16.44,-330.88 -8.22,-156.19 -51.38,-341.15 -125.36,-550.78 -73.99,-211.68 -189.07,-384.31 -341.16,-517.9 -152.08,-133.59 -353.48,-201.41 -602.16,-201.41 -480.91,0 -873.44,137.7 -1175.55,413.09 -304.16,273.33 -456.24,659.7 -456.24,1159.11 0,363.76 92.48,690.53 275.39,980.31 182.91,289.78 425.42,517.9 727.52,690.53 304.16,170.58 637.1,254.84 1002.91,254.84l939.2 0z"/>
  </g>
 </g>
</svg>
