<?xml version="1.0" encoding="UTF-8"?>
<!DOCTYPE svg PUBLIC "-//W3C//DTD SVG 1.1//EN" "http://www.w3.org/Graphics/SVG/1.1/DTD/svg11.dtd">
<!-- Creator: CorelDRAW -->
<svg xmlns="http://www.w3.org/2000/svg" xml:space="preserve" width="21.0638in" height="8.14596in" version="1.1" style="shape-rendering:geometricPrecision; text-rendering:geometricPrecision; image-rendering:optimizeQuality; fill-rule:evenodd; clip-rule:evenodd"
viewBox="0 0 155997.92 60328.8"
 xmlns:xlink="http://www.w3.org/1999/xlink"
 xmlns:xodm="http://www.corel.com/coreldraw/odm/2003">
 <defs>
  <style type="text/css">
   <![CDATA[
    .str0 {stroke:white;stroke-width:22.22;stroke-miterlimit:2.61313}
    .fil1 {fill:none;fill-rule:nonzero}
    .fil0 {fill:white;fill-rule:nonzero}
   ]]>
  </style>
 </defs>
 <g id="Layer_x0020_1">
  <metadata id="CorelCorpID_0Corel-Layer"/>
  <g id="_2030436875104">
   <path class="fil0" d="M12727.32 60304.63l-3760.23 0 0 -56.59c294.08,0 572.94,-82.72 836.58,-250.37 263.58,-165.44 407.39,-394.03 433.51,-687.94l0 -3476.67 -4518.38 6.53 0 3463.61c24,293.91 167.77,524.69 427.04,692.31 259.24,167.63 535.91,252.53 830.02,252.53l0 56.59 -3760.26 0 0 -56.59c298.48,0 579.53,-84.91 845.3,-252.53 267.99,-167.63 407.39,-402.75 424.82,-705.35l0 -7092.71c-17.44,-300.44 -156.84,-535.56 -424.82,-703.19 -265.77,-167.63 -546.82,-252.53 -845.3,-252.53l0 -56.59 3760.26 0 0 56.59c-294.11,0 -570.79,84.91 -830.02,252.53 -259.27,167.63 -403.04,398.41 -427.04,692.28l0 3467.98 4518.38 -6.53 0 -3461.45c-26.13,-298.25 -169.93,-531.19 -433.51,-696.63 -263.64,-165.47 -542.5,-248.19 -836.58,-248.19l0 -56.59 3760.23 0 0 56.59c-294.14,0 -573,84.91 -836.58,254.72 -263.61,169.81 -405.23,404.91 -422.64,701l0 7092.71c17.41,298.22 159.02,531.19 422.64,700.97 263.58,172 542.44,256.91 836.58,256.91l0 56.59z"/>
   <path id="_1" class="fil0" d="M21246.88 60304.63l-7180.59 0 0 -56.59c281.05,0 551.19,-78.38 808.27,-230.78 257.08,-152.38 409.57,-365.72 455.32,-637.85l0 -7271.24c-45.75,-267.75 -198.24,-478.94 -455.32,-633.5 -257.08,-154.56 -527.22,-232.94 -808.27,-232.94l0 -56.59 6823.3 0 122.02 1861.35 -58.81 0c0,-174.16 -52.28,-383.16 -161.21,-624.81 -108.96,-241.66 -276.7,-465.88 -501.07,-670.5 -226.58,-202.47 -516.35,-330.91 -869.27,-381l-2176.4 0c-187.37,0 -346.39,65.31 -481.48,195.94 -132.87,132.81 -200.43,293.91 -200.43,485.47l0 3596.42 2278.8 0c204.8,-45.72 366.01,-200.28 483.66,-465.88 119.81,-263.41 180.81,-507.25 185.15,-731.47l58.84 0 0 2588.48 -58.84 0c-4.34,-228.59 -65.34,-476.78 -185.15,-740.19 -117.65,-263.41 -278.86,-418 -483.66,-465.88l-2278.8 0 0 3496.26c0,219.91 76.28,409.28 233.11,563.85 154.68,154.59 344.2,232.97 564.25,232.97l2233.02 0c355.14,-58.78 657.97,-222.06 912.86,-485.5 257.05,-263.41 453.14,-546.41 590.38,-846.85 139.43,-302.6 209.15,-542.07 209.15,-720.6l63.18 0 -122.02 2231.45z"/>
   <path id="_2" class="fil0" d="M31228.34 60317.69l-3823.41 0 0 -56.59c200.43,0 405.2,-30.5 616.53,-87.09 211.3,-56.59 376.89,-154.56 501.07,-289.53 84.96,-102.31 128.53,-230.78 128.53,-383.16 0,-63.13 -6.53,-130.63 -19.59,-198.12l6.53 0c-84.96,-539.88 -215.68,-1081.97 -392.17,-1628.38 -178.62,-546.44 -446.6,-1010.13 -808.21,-1391.13 -361.64,-380.97 -864.93,-592.13 -1507.61,-635.69l-655.75 0 0 3668.26c21.81,293.91 161.24,524.69 424.85,692.31 261.43,167.63 538.1,252.53 832.21,252.53l0 56.59 -3760.23 0 0 -56.59c298.46,0 579.5,-87.09 845.27,-256.91 267.99,-169.78 407.42,-402.75 424.82,-701l0 -7188.5c-45.72,-267.75 -196.05,-478.94 -453.14,-633.5 -254.86,-154.56 -522.85,-232.94 -803.9,-232.94l0 -58.78 4237.33 0c575.13,0 1100.17,80.56 1577.3,239.47 477.1,161.09 856.18,404.94 1139.38,733.66 283.24,330.91 424.85,748.91 424.85,1253.97 0,357.03 -71.9,668.32 -217.89,931.75 -296.27,552.97 -779.9,925.22 -1448.71,1114.63 -385.64,115.38 -732,174.16 -1032.67,174.16 564.25,165.47 1015.2,448.47 1352.87,851.22 335.54,400.56 590.41,855.57 764.68,1360.63 174.33,507.25 307.2,1001.41 396.51,1486.88 84.96,250.37 241.83,468.06 472.76,650.94 228.74,182.88 488.01,274.31 777.77,274.31l0 56.59zm-4206.86 -4854.74c383.45,0 718.93,-100.16 1006.51,-302.6 287.58,-202.47 509.79,-459.37 671,-775.03 159.02,-313.47 237.46,-637.85 237.46,-968.75 0,-322.22 -78.43,-642.22 -235.27,-955.72 -156.87,-315.66 -379.08,-574.72 -666.65,-779.38 -287.58,-204.63 -625.25,-304.78 -1013.04,-304.78l-982.52 0c-211.33,0 -392.17,74.03 -542.47,222.06 -148.15,148.03 -222.24,328.72 -222.24,542.07l0 3322.14 1747.23 0z"/>
   <path id="_3" class="fil0" d="M39747.93 60304.63l-7180.59 0 0 -56.59c281.05,0 551.16,-78.38 808.27,-230.78 257.05,-152.38 409.57,-365.72 455.29,-637.85l0 -7271.24c-45.72,-267.75 -198.24,-478.94 -455.29,-633.5 -257.11,-154.56 -527.22,-232.94 -808.27,-232.94l0 -56.59 6823.3 0 122.02 1861.35 -58.84 0c0,-174.16 -52.28,-383.16 -161.21,-624.81 -108.93,-241.66 -276.7,-465.88 -501.07,-670.5 -226.58,-202.47 -516.35,-330.91 -869.24,-381l-2176.43 0c-187.37,0 -346.39,65.31 -481.48,195.94 -132.87,132.81 -200.43,293.91 -200.43,485.47l0 3596.42 2278.8 0c204.8,-45.72 366.01,-200.28 483.66,-465.88 119.81,-263.41 180.83,-507.25 185.18,-731.47l58.81 0 0 2588.48 -58.81 0c-4.34,-228.59 -65.37,-476.78 -185.18,-740.19 -117.65,-263.41 -278.86,-418 -483.66,-465.88l-2278.8 0 0 3496.26c0,219.91 76.28,409.28 233.11,563.85 154.71,154.59 344.2,232.97 564.25,232.97l2233.05 0c355.14,-58.78 657.94,-222.06 912.83,-485.5 257.08,-263.41 453.14,-546.41 590.41,-846.85 139.4,-302.6 209.12,-542.07 209.12,-720.6l63.21 0 -122.02 2231.45z"/>
   <path id="_4" class="fil0" d="M41367.94 60311.16l0 -63.13c226.61,-4.37 470.6,-71.84 732.03,-198.12 261.43,-128.44 405.2,-298.25 429.17,-509.41l0 -7264.68c0,-200.31 -63.18,-378.81 -193.9,-537.72 -128.53,-156.75 -289.74,-278.66 -481.45,-365.75 -191.71,-87.09 -385.61,-130.63 -581.69,-130.63l0 -63.13 2374.64 0 5093.54 7110.12 -6.53 -6339.46c-21.81,-215.53 -163.4,-389.69 -424.82,-515.94 -261.43,-128.47 -505.44,-191.59 -729.84,-191.59l0 -63.13 2494.47 0 0 63.13c-224.4,0 -466.23,63.13 -727.62,187.22 -259.27,126.28 -403.04,296.09 -433.57,507.25l0 8368.44 -172.09 0 -6036.84 -8329.25 0 7558.59c23.97,215.53 167.74,387.5 427.01,515.94 259.24,126.28 503.23,193.75 734.18,198.12l0 56.59 -2496.69 6.53z"/>
   <path id="_5" class="fil0" d="M55704.35 60304.63c-795.15,0 -1518.46,-204.63 -2167.68,-616.1 -647.03,-409.28 -1163.38,-960.07 -1546.77,-1650.16 -383.45,-692.31 -575.16,-1456.44 -575.16,-2294.57 0,-840.35 191.71,-1606.66 575.16,-2298.94 383.39,-690.1 901.93,-1240.88 1557.65,-1652.35 655.75,-409.28 1394.31,-613.91 2219.99,-613.91 535.94,0 1080.57,141.5 1633.92,426.69 213.49,102.31 407.42,152.41 581.69,152.41 89.34,0 213.52,-26.13 370.36,-78.38 156.84,-54.44 235.27,-219.88 235.27,-500.72l65.37 0 0 2383.82 -65.37 0c-4.34,-267.78 -89.31,-552.97 -254.86,-859.91 -263.64,-400.56 -625.25,-714.06 -1084.95,-944.82 -459.67,-228.59 -952.02,-343.97 -1481.43,-343.97 -381.26,0 -753.81,104.47 -1113.26,315.66 -359.45,211.16 -681.88,507.25 -969.45,890.41 -287.58,383.13 -516.32,838.13 -690.59,1367.16 -172.15,529 -257.11,1114.63 -257.11,1756.85 0,842.5 132.9,1589.2 398.7,2242.32 265.8,653.1 623.06,1162.51 1069.67,1530.44 446.6,367.91 945.52,552.94 1498.87,552.94 450.95,0 867.08,-106.66 1248.35,-320 381.23,-213.34 712.37,-487.66 995.58,-829.44 283.21,-339.63 505.44,-709.72 666.65,-1108.1l198.27 0c-161.21,483.28 -394.32,912.16 -699.31,1286.6 -305.02,374.44 -664.5,668.35 -1078.42,883.88 -416.11,215.5 -858.36,322.19 -1331.12,322.19z"/>
   <path id="_6" class="fil0" d="M64071.47 60304.63l-3760.23 0 0 -56.59c298.46,0 579.5,-84.91 845.27,-252.53 267.99,-167.63 409.57,-402.75 431.35,-705.35l0 -7092.71c-21.78,-300.44 -163.37,-535.56 -431.35,-703.19 -265.77,-167.63 -546.82,-252.53 -845.27,-252.53l0 -56.59 3760.23 0 0 56.59c-289.77,0 -564.25,84.91 -825.68,252.53 -263.61,167.63 -407.39,398.41 -431.38,692.28l0 7116.65c24,293.91 167.77,524.69 431.38,692.31 261.43,167.63 535.91,252.53 825.68,252.53l0 56.59z"/>
   <path id="_7" class="fil0" d="M74889.45 60304.63l-3843 0 0 -56.59c187.37,0 394.35,-28.31 618.72,-82.72 226.58,-56.62 409.57,-143.69 549,-263.44 106.75,-89.25 161.24,-198.1 161.24,-330.91 0,-45.72 -6.56,-93.6 -19.62,-139.31l-1174.26 -3119.67 -3141.51 0 -1237.44 3291.64c-8.72,41.37 -13.06,80.56 -13.06,115.38 0,117.56 61,219.88 185.18,302.62 124.18,82.72 289.74,141.5 501.07,174.16 211.3,34.81 385.58,52.25 527.22,52.25l0 56.59 -2592.53 0 0 -56.59c213.49,0 431.38,-50.09 651.41,-150.22 222.24,-100.16 405.2,-269.94 549,-507.25 187.34,-498.53 426.98,-1132.04 718.9,-1904.88 289.77,-770.66 583.88,-1550.04 880.17,-2340.29 296.27,-788.07 546.79,-1456.41 749.4,-2002.85 204.8,-546.44 315.89,-846.85 333.36,-901.28 28.28,-119.72 43.56,-230.75 43.56,-333.09 0,-134.97 -39.22,-272.13 -117.65,-411.44 -78.43,-137.16 -206.96,-248.19 -383.45,-330.91 -176.43,-82.72 -346.36,-124.09 -507.57,-124.09l-26.15 0 0 -63.13 2261.36 0 3063.07 8150.72c267.99,611.75 688.44,918.72 1263.57,918.72l0 56.59zm-3777.66 -4177.7l-1501.02 -3992.64 -1505.4 3992.64 3006.42 0z"/>
   <path id="_8" class="fil0" d="M88949.15 60304.63l-3843 0 0 -56.59c187.37,0 394.35,-28.31 618.72,-82.72 226.58,-56.62 409.57,-143.69 549,-263.44 106.75,-89.25 161.24,-198.1 161.24,-330.91 0,-45.72 -6.56,-93.6 -19.62,-139.31l-1174.26 -3119.67 -3141.51 0 -1237.44 3291.64c-8.72,41.37 -13.06,80.56 -13.06,115.38 0,117.56 61,219.88 185.18,302.62 124.18,82.72 289.74,141.5 501.07,174.16 211.3,34.81 385.58,52.25 527.22,52.25l0 56.59 -2592.53 0 0 -56.59c213.49,0 431.38,-50.09 651.41,-150.22 222.24,-100.16 405.2,-269.94 549,-507.25 187.34,-498.53 426.98,-1132.04 718.9,-1904.88 289.77,-770.66 583.88,-1550.04 880.17,-2340.29 296.27,-788.07 546.79,-1456.41 749.4,-2002.85 204.83,-546.44 315.89,-846.85 333.36,-901.28 28.28,-119.72 43.56,-230.75 43.56,-333.09 0,-134.97 -39.22,-272.13 -117.65,-411.44 -78.43,-137.16 -206.96,-248.19 -383.45,-330.91 -176.43,-82.72 -346.36,-124.09 -507.57,-124.09l-26.15 0 0 -63.13 2261.36 0 3063.07 8150.72c267.99,611.75 688.44,918.72 1263.57,918.72l0 56.59zm-3777.66 -4177.7l-1500.99 -3992.64 -1505.43 3992.64 3006.42 0z"/>
   <path id="_9" class="fil0" d="M94048.4 60304.63l-3760.26 0 0 -56.59c298.48,0 581.72,-84.91 849.65,-256.91 267.99,-169.78 409.57,-404.91 427.01,-707.5l0 -7175.46c-50.09,-267.75 -204.77,-478.94 -461.85,-633.5 -257.08,-154.56 -527.22,-232.94 -808.24,-232.94l0 -56.59 6823.27 0 128.58 1861.35 -65.37 0c0,-174.16 -52.28,-383.16 -161.21,-624.81 -108.96,-241.66 -276.7,-465.88 -501.07,-670.5 -226.58,-202.47 -514.16,-330.91 -862.74,-381l-2182.93 0c-187.37,0 -346.39,65.31 -481.48,195.94 -132.87,132.81 -200.43,293.91 -200.43,485.47l0 3596.42 2278.8 0c202.61,-45.72 366.01,-200.28 483.66,-465.88 119.81,-263.41 180.81,-507.25 185.18,-731.47l65.34 0 0 2588.48 -65.34 0c0,-228.59 -61.03,-476.78 -180.83,-740.19 -121.99,-263.41 -285.39,-418 -488.01,-465.88l-2278.8 0 0 3515.86c37.06,280.84 185.21,500.72 442.26,659.66 259.24,158.91 529.41,239.47 814.8,239.47l0 56.59z"/>
   <path id="_10" class="fil0" d="M107400.1 60317.69l-3823.44 0 0 -56.59c200.43,0 405.2,-30.5 616.56,-87.09 211.3,-56.59 376.89,-154.56 501.07,-289.53 84.96,-102.31 128.53,-230.78 128.53,-383.16 0,-63.13 -6.53,-130.63 -19.59,-198.12l6.53 0c-84.96,-539.88 -215.71,-1081.97 -392.17,-1628.38 -178.62,-546.44 -446.6,-1010.13 -808.24,-1391.13 -361.64,-380.97 -864.9,-592.13 -1507.58,-635.69l-655.75 0 0 3668.26c21.81,293.91 161.24,524.69 424.82,692.31 261.45,167.63 538.13,252.53 832.24,252.53l0 56.59 -3760.26 0 0 -56.59c298.48,0 579.53,-87.09 845.3,-256.91 267.99,-169.78 407.39,-402.75 424.82,-701l0 -7188.5c-45.72,-267.75 -196.05,-478.94 -453.16,-633.5 -254.86,-154.56 -522.82,-232.94 -803.87,-232.94l0 -58.78 4237.33 0c575.13,0 1100.17,80.56 1577.3,239.47 477.1,161.09 856.18,404.94 1139.38,733.66 283.24,330.91 424.82,748.91 424.82,1253.97 0,357.03 -71.87,668.32 -217.86,931.75 -296.27,552.97 -779.9,925.22 -1448.74,1114.63 -385.61,115.38 -732,174.16 -1032.64,174.16 564.25,165.47 1015.2,448.47 1352.87,851.22 335.51,400.56 590.41,855.57 764.68,1360.63 174.3,507.25 307.2,1001.41 396.51,1486.88 84.96,250.37 241.83,468.06 472.73,650.94 228.77,182.88 488.01,274.31 777.8,274.31l0 56.59zm-4206.86 -4854.74c383.42,0 718.93,-100.16 1006.51,-302.6 287.58,-202.47 509.76,-459.37 670.97,-775.03 159.05,-313.47 237.49,-637.85 237.49,-968.75 0,-322.22 -78.43,-642.22 -235.3,-955.72 -156.87,-315.66 -379.05,-574.72 -666.63,-779.38 -287.58,-204.63 -625.25,-304.78 -1013.04,-304.78l-982.52 0c-211.33,0 -392.17,74.03 -542.5,222.06 -148.12,148.03 -222.21,328.72 -222.21,542.07l0 3322.14 1747.23 0z"/>
   <path id="_11" class="fil0" d="M112499.33 60304.63l-3760.26 0 0 -56.59c298.48,0 579.53,-84.91 845.3,-252.53 267.99,-167.63 409.57,-402.75 431.35,-705.35l0 -7092.71c-21.78,-300.44 -163.37,-535.56 -431.35,-703.19 -265.77,-167.63 -546.82,-252.53 -845.3,-252.53l0 -56.59 3760.26 0 0 56.59c-289.77,0 -564.25,84.91 -825.68,252.53 -263.61,167.63 -407.39,398.41 -431.38,692.28l0 7116.65c24,293.91 167.77,524.69 431.38,692.31 261.43,167.63 535.91,252.53 825.68,252.53l0 56.59z"/>
   <path id="_12" class="fil0" d="M118127.96 60304.63c-795.18,0 -1518.49,-204.63 -2167.71,-616.1 -647.03,-409.28 -1163.35,-960.07 -1546.77,-1650.16 -383.42,-692.31 -575.16,-1456.44 -575.16,-2294.57 0,-840.35 191.74,-1606.66 575.16,-2298.94 383.42,-690.1 901.93,-1240.88 1557.65,-1652.35 655.78,-409.28 1394.34,-613.91 2219.99,-613.91 535.94,0 1080.6,141.5 1633.92,426.69 213.52,102.31 407.42,152.41 581.72,152.41 89.31,0 213.49,-26.13 370.36,-78.38 156.84,-54.44 235.27,-219.88 235.27,-500.72l65.34 0 0 2383.82 -65.34 0c-4.37,-267.78 -89.34,-552.97 -254.89,-859.91 -263.61,-400.56 -625.25,-714.06 -1084.92,-944.82 -459.7,-228.59 -952.05,-343.97 -1481.46,-343.97 -381.23,0 -753.78,104.47 -1113.23,315.66 -359.48,211.16 -681.9,507.25 -969.48,890.41 -287.55,383.13 -516.32,838.13 -690.59,1367.16 -172.12,529 -257.08,1114.63 -257.08,1756.85 0,842.5 132.9,1589.2 398.67,2242.32 265.8,653.1 623.09,1162.51 1069.7,1530.44 446.6,367.91 945.49,552.94 1498.87,552.94 450.95,0 867.05,-106.66 1248.32,-320 381.26,-213.34 712.4,-487.66 995.61,-829.44 283.21,-339.63 505.41,-709.72 666.63,-1108.1l198.27 0c-161.21,483.28 -394.32,912.16 -699.31,1286.6 -305.02,374.44 -664.5,668.35 -1078.42,883.88 -416.11,215.5 -858.36,322.19 -1331.09,322.19z"/>
   <path id="_13" class="fil0" d="M131821.68 60304.63l-3843.03 0 0 -56.59c187.39,0 394.35,-28.31 618.72,-82.72 226.58,-56.62 409.57,-143.69 549,-263.44 106.75,-89.25 161.24,-198.1 161.24,-330.91 0,-45.72 -6.53,-93.6 -19.62,-139.31l-1174.26 -3119.67 -3141.51 0 -1237.41 3291.64c-8.75,41.37 -13.09,80.56 -13.09,115.38 0,117.56 61,219.88 185.18,302.62 124.18,82.72 289.74,141.5 501.07,174.16 211.3,34.81 385.61,52.25 527.22,52.25l0 56.59 -2592.53 0 0 -56.59c213.52,0 431.38,-50.09 651.41,-150.22 222.24,-100.16 405.2,-269.94 549,-507.25 187.34,-498.53 426.98,-1132.04 718.93,-1904.88 289.77,-770.66 583.85,-1550.04 880.15,-2340.29 296.27,-788.07 546.82,-1456.41 749.43,-2002.85 204.8,-546.44 315.86,-846.85 333.33,-901.28 28.31,-119.72 43.56,-230.75 43.56,-333.09 0,-134.97 -39.22,-272.13 -117.65,-411.44 -78.43,-137.16 -206.96,-248.19 -383.42,-330.91 -176.46,-82.72 -346.39,-124.09 -507.6,-124.09l-26.15 0 0 -63.13 2261.36 0 3063.07 8150.72c267.99,611.75 688.44,918.72 1263.59,918.72l0 56.59zm-3777.66 -4177.7l-1501.02 -3992.64 -1505.4 3992.64 3006.42 0z"/>
   <path id="_14" class="fil0" d="M133256.51 60311.16l0 -63.13c226.58,-4.37 470.57,-71.84 732.03,-198.12 261.4,-128.44 405.2,-298.25 429.14,-509.41l0 -7264.68c0,-200.31 -63.15,-378.81 -193.87,-537.72 -128.53,-156.75 -289.74,-278.66 -481.45,-365.75 -191.74,-87.09 -385.64,-130.63 -581.69,-130.63l0 -63.13 2374.64 0 5093.51 7110.12 -6.53 -6339.46c-21.78,-215.53 -163.4,-389.69 -424.79,-515.94 -261.45,-128.47 -505.47,-191.59 -729.84,-191.59l0 -63.13 2494.45 0 0 63.13c-224.37,0 -466.2,63.13 -727.62,187.22 -259.24,126.28 -403.04,296.09 -433.54,507.25l0 8368.44 -172.12 0 -6036.81 -8329.25 0 7558.59c23.94,215.53 167.74,387.5 426.98,515.94 259.27,126.28 503.26,193.75 734.18,198.12l0 56.59 -2496.66 6.53z"/>
   <path id="_15" class="fil0" d="M152782.26 60304.63l-3843 0 0 -56.59c187.37,0 394.35,-28.31 618.72,-82.72 226.58,-56.62 409.57,-143.69 549,-263.44 106.75,-89.25 161.24,-198.1 161.24,-330.91 0,-45.72 -6.56,-93.6 -19.62,-139.31l-1174.26 -3119.67 -3141.51 0 -1237.44 3291.64c-8.72,41.37 -13.06,80.56 -13.06,115.38 0,117.56 61,219.88 185.18,302.62 124.18,82.72 289.74,141.5 501.07,174.16 211.3,34.81 385.58,52.25 527.22,52.25l0 56.59 -2592.53 0 0 -56.59c213.49,0 431.38,-50.09 651.41,-150.22 222.24,-100.16 405.2,-269.94 549,-507.25 187.34,-498.53 426.98,-1132.04 718.9,-1904.88 289.8,-770.66 583.88,-1550.04 880.17,-2340.29 296.27,-788.07 546.82,-1456.41 749.4,-2002.85 204.83,-546.44 315.89,-846.85 333.36,-901.28 28.28,-119.72 43.56,-230.75 43.56,-333.09 0,-134.97 -39.22,-272.13 -117.65,-411.44 -78.43,-137.16 -206.96,-248.19 -383.45,-330.91 -176.43,-82.72 -346.36,-124.09 -507.57,-124.09l-26.15 0 0 -63.13 2261.36 0 3063.07 8150.72c267.99,611.75 688.44,918.72 1263.57,918.72l0 56.59zm-3777.66 -4177.7l-1500.99 -3992.64 -1505.43 3992.64 3006.42 0z"/>
   <path id="_16" class="fil1 str0" d="M12727.32 60304.63l-3760.23 0 0 -56.59c294.08,0 572.94,-82.72 836.58,-250.37 263.58,-165.44 407.39,-394.03 433.51,-687.94l0 -3476.67 -4518.38 6.53 0 3463.61c24,293.91 167.77,524.69 427.04,692.31 259.24,167.63 535.91,252.53 830.02,252.53l0 56.59 -3760.26 0 0 -56.59c298.48,0 579.53,-84.91 845.3,-252.53 267.99,-167.63 407.39,-402.75 424.82,-705.35l0 -7092.71c-17.44,-300.44 -156.84,-535.56 -424.82,-703.19 -265.77,-167.63 -546.82,-252.53 -845.3,-252.53l0 -56.59 3760.26 0 0 56.59c-294.11,0 -570.79,84.91 -830.02,252.53 -259.27,167.63 -403.04,398.41 -427.04,692.28l0 3467.98 4518.38 -6.53 0 -3461.45c-26.13,-298.25 -169.93,-531.19 -433.51,-696.63 -263.64,-165.47 -542.5,-248.19 -836.58,-248.19l0 -56.59 3760.23 0 0 56.59c-294.14,0 -573,84.91 -836.58,254.72 -263.61,169.81 -405.23,404.91 -422.64,701l0 7092.71c17.41,298.22 159.02,531.19 422.64,700.97 263.58,172 542.44,256.91 836.58,256.91l0 56.59z"/>
   <path id="_17" class="fil1 str0" d="M21246.88 60304.63l-7180.59 0 0 -56.59c281.05,0 551.19,-78.38 808.27,-230.78 257.08,-152.38 409.57,-365.72 455.32,-637.85l0 -7271.24c-45.75,-267.75 -198.24,-478.94 -455.32,-633.5 -257.08,-154.56 -527.22,-232.94 -808.27,-232.94l0 -56.59 6823.3 0 122.02 1861.35 -58.81 0c0,-174.16 -52.28,-383.16 -161.21,-624.81 -108.96,-241.66 -276.7,-465.88 -501.07,-670.5 -226.58,-202.47 -516.35,-330.91 -869.27,-381l-2176.4 0c-187.37,0 -346.39,65.31 -481.48,195.94 -132.87,132.81 -200.43,293.91 -200.43,485.47l0 3596.42 2278.8 0c204.8,-45.72 366.01,-200.28 483.66,-465.88 119.81,-263.41 180.81,-507.25 185.15,-731.47l58.84 0 0 2588.48 -58.84 0c-4.34,-228.59 -65.34,-476.78 -185.15,-740.19 -117.65,-263.41 -278.86,-418 -483.66,-465.88l-2278.8 0 0 3496.26c0,219.91 76.28,409.28 233.11,563.85 154.68,154.59 344.2,232.97 564.25,232.97l2233.02 0c355.14,-58.78 657.97,-222.06 912.86,-485.5 257.05,-263.41 453.14,-546.41 590.38,-846.85 139.43,-302.6 209.15,-542.07 209.15,-720.6l63.18 0 -122.02 2231.45z"/>
   <path id="_18" class="fil1 str0" d="M31228.34 60317.69l-3823.41 0 0 -56.59c200.43,0 405.2,-30.5 616.53,-87.09 211.3,-56.59 376.89,-154.56 501.07,-289.53 84.96,-102.31 128.53,-230.78 128.53,-383.16 0,-63.13 -6.53,-130.63 -19.59,-198.12l6.53 0c-84.96,-539.88 -215.68,-1081.97 -392.17,-1628.38 -178.62,-546.44 -446.6,-1010.13 -808.21,-1391.13 -361.64,-380.97 -864.93,-592.13 -1507.61,-635.69l-655.75 0 0 3668.26c21.81,293.91 161.24,524.69 424.85,692.31 261.43,167.63 538.1,252.53 832.21,252.53l0 56.59 -3760.23 0 0 -56.59c298.46,0 579.5,-87.09 845.27,-256.91 267.99,-169.78 407.42,-402.75 424.82,-701l0 -7188.5c-45.72,-267.75 -196.05,-478.94 -453.14,-633.5 -254.86,-154.56 -522.85,-232.94 -803.9,-232.94l0 -58.78 4237.33 0c575.13,0 1100.17,80.56 1577.3,239.47 477.1,161.09 856.18,404.94 1139.38,733.66 283.24,330.91 424.85,748.91 424.85,1253.97 0,357.03 -71.9,668.32 -217.89,931.75 -296.27,552.97 -779.9,925.22 -1448.71,1114.63 -385.64,115.38 -732,174.16 -1032.67,174.16 564.25,165.47 1015.2,448.47 1352.87,851.22 335.54,400.56 590.41,855.57 764.68,1360.63 174.33,507.25 307.2,1001.41 396.51,1486.88 84.96,250.37 241.83,468.06 472.76,650.94 228.74,182.88 488.01,274.31 777.77,274.31l0 56.59zm-4206.86 -4854.74c383.45,0 718.93,-100.16 1006.51,-302.6 287.58,-202.47 509.79,-459.37 671,-775.03 159.02,-313.47 237.46,-637.85 237.46,-968.75 0,-322.22 -78.43,-642.22 -235.27,-955.72 -156.87,-315.66 -379.08,-574.72 -666.65,-779.38 -287.58,-204.63 -625.25,-304.78 -1013.04,-304.78l-982.52 0c-211.33,0 -392.17,74.03 -542.47,222.06 -148.15,148.03 -222.24,328.72 -222.24,542.07l0 3322.14 1747.23 0z"/>
   <path id="_19" class="fil1 str0" d="M39747.93 60304.63l-7180.59 0 0 -56.59c281.05,0 551.16,-78.38 808.27,-230.78 257.05,-152.38 409.57,-365.72 455.29,-637.85l0 -7271.24c-45.72,-267.75 -198.24,-478.94 -455.29,-633.5 -257.11,-154.56 -527.22,-232.94 -808.27,-232.94l0 -56.59 6823.3 0 122.02 1861.35 -58.84 0c0,-174.16 -52.28,-383.16 -161.21,-624.81 -108.93,-241.66 -276.7,-465.88 -501.07,-670.5 -226.58,-202.47 -516.35,-330.91 -869.24,-381l-2176.43 0c-187.37,0 -346.39,65.31 -481.48,195.94 -132.87,132.81 -200.43,293.91 -200.43,485.47l0 3596.42 2278.8 0c204.8,-45.72 366.01,-200.28 483.66,-465.88 119.81,-263.41 180.83,-507.25 185.18,-731.47l58.81 0 0 2588.48 -58.81 0c-4.34,-228.59 -65.37,-476.78 -185.18,-740.19 -117.65,-263.41 -278.86,-418 -483.66,-465.88l-2278.8 0 0 3496.26c0,219.91 76.28,409.28 233.11,563.85 154.71,154.59 344.2,232.97 564.25,232.97l2233.05 0c355.14,-58.78 657.94,-222.06 912.83,-485.5 257.08,-263.41 453.14,-546.41 590.41,-846.85 139.4,-302.6 209.12,-542.07 209.12,-720.6l63.21 0 -122.02 2231.45z"/>
   <path id="_20" class="fil1 str0" d="M41367.94 60311.16l0 -63.13c226.61,-4.37 470.6,-71.84 732.03,-198.12 261.43,-128.44 405.2,-298.25 429.17,-509.41l0 -7264.68c0,-200.31 -63.18,-378.81 -193.9,-537.72 -128.53,-156.75 -289.74,-278.66 -481.45,-365.75 -191.71,-87.09 -385.61,-130.63 -581.69,-130.63l0 -63.13 2374.64 0 5093.54 7110.12 -6.53 -6339.46c-21.81,-215.53 -163.4,-389.69 -424.82,-515.94 -261.43,-128.47 -505.44,-191.59 -729.84,-191.59l0 -63.13 2494.47 0 0 63.13c-224.4,0 -466.23,63.13 -727.62,187.22 -259.27,126.28 -403.04,296.09 -433.57,507.25l0 8368.44 -172.09 0 -6036.84 -8329.25 0 7558.59c23.97,215.53 167.74,387.5 427.01,515.94 259.24,126.28 503.23,193.75 734.18,198.12l0 56.59 -2496.69 6.53z"/>
   <path id="_21" class="fil1 str0" d="M55704.35 60304.63c-795.15,0 -1518.46,-204.63 -2167.68,-616.1 -647.03,-409.28 -1163.38,-960.07 -1546.77,-1650.16 -383.45,-692.31 -575.16,-1456.44 -575.16,-2294.57 0,-840.35 191.71,-1606.66 575.16,-2298.94 383.39,-690.1 901.93,-1240.88 1557.65,-1652.35 655.75,-409.28 1394.31,-613.91 2219.99,-613.91 535.94,0 1080.57,141.5 1633.92,426.69 213.49,102.31 407.42,152.41 581.69,152.41 89.34,0 213.52,-26.13 370.36,-78.38 156.84,-54.44 235.27,-219.88 235.27,-500.72l65.37 0 0 2383.82 -65.37 0c-4.34,-267.78 -89.31,-552.97 -254.86,-859.91 -263.64,-400.56 -625.25,-714.06 -1084.95,-944.82 -459.67,-228.59 -952.02,-343.97 -1481.43,-343.97 -381.26,0 -753.81,104.47 -1113.26,315.66 -359.45,211.16 -681.88,507.25 -969.45,890.41 -287.58,383.13 -516.32,838.13 -690.59,1367.16 -172.15,529 -257.11,1114.63 -257.11,1756.85 0,842.5 132.9,1589.2 398.7,2242.32 265.8,653.1 623.06,1162.51 1069.67,1530.44 446.6,367.91 945.52,552.94 1498.87,552.94 450.95,0 867.08,-106.66 1248.35,-320 381.23,-213.34 712.37,-487.66 995.58,-829.44 283.21,-339.63 505.44,-709.72 666.65,-1108.1l198.27 0c-161.21,483.28 -394.32,912.16 -699.31,1286.6 -305.02,374.44 -664.5,668.35 -1078.42,883.88 -416.11,215.5 -858.36,322.19 -1331.12,322.19z"/>
   <path id="_22" class="fil1 str0" d="M64071.47 60304.63l-3760.23 0 0 -56.59c298.46,0 579.5,-84.91 845.27,-252.53 267.99,-167.63 409.57,-402.75 431.35,-705.35l0 -7092.71c-21.78,-300.44 -163.37,-535.56 -431.35,-703.19 -265.77,-167.63 -546.82,-252.53 -845.27,-252.53l0 -56.59 3760.23 0 0 56.59c-289.77,0 -564.25,84.91 -825.68,252.53 -263.61,167.63 -407.39,398.41 -431.38,692.28l0 7116.65c24,293.91 167.77,524.69 431.38,692.31 261.43,167.63 535.91,252.53 825.68,252.53l0 56.59z"/>
   <path id="_23" class="fil1 str0" d="M74889.45 60304.63l-3843 0 0 -56.59c187.37,0 394.35,-28.31 618.72,-82.72 226.58,-56.62 409.57,-143.69 549,-263.44 106.75,-89.25 161.24,-198.1 161.24,-330.91 0,-45.72 -6.56,-93.6 -19.62,-139.31l-1174.26 -3119.67 -3141.51 0 -1237.44 3291.64c-8.72,41.37 -13.06,80.56 -13.06,115.38 0,117.56 61,219.88 185.18,302.62 124.18,82.72 289.74,141.5 501.07,174.16 211.3,34.81 385.58,52.25 527.22,52.25l0 56.59 -2592.53 0 0 -56.59c213.49,0 431.38,-50.09 651.41,-150.22 222.24,-100.16 405.2,-269.94 549,-507.25 187.34,-498.53 426.98,-1132.04 718.9,-1904.88 289.77,-770.66 583.88,-1550.04 880.17,-2340.29 296.27,-788.07 546.79,-1456.41 749.4,-2002.85 204.8,-546.44 315.89,-846.85 333.36,-901.28 28.28,-119.72 43.56,-230.75 43.56,-333.09 0,-134.97 -39.22,-272.13 -117.65,-411.44 -78.43,-137.16 -206.96,-248.19 -383.45,-330.91 -176.43,-82.72 -346.36,-124.09 -507.57,-124.09l-26.15 0 0 -63.13 2261.36 0 3063.07 8150.72c267.99,611.75 688.44,918.72 1263.57,918.72l0 56.59zm-3777.66 -4177.7l-1501.02 -3992.64 -1505.4 3992.64 3006.42 0z"/>
   <path id="_24" class="fil1 str0" d="M88949.15 60304.63l-3843 0 0 -56.59c187.37,0 394.35,-28.31 618.72,-82.72 226.58,-56.62 409.57,-143.69 549,-263.44 106.75,-89.25 161.24,-198.1 161.24,-330.91 0,-45.72 -6.56,-93.6 -19.62,-139.31l-1174.26 -3119.67 -3141.51 0 -1237.44 3291.64c-8.72,41.37 -13.06,80.56 -13.06,115.38 0,117.56 61,219.88 185.18,302.62 124.18,82.72 289.74,141.5 501.07,174.16 211.3,34.81 385.58,52.25 527.22,52.25l0 56.59 -2592.53 0 0 -56.59c213.49,0 431.38,-50.09 651.41,-150.22 222.24,-100.16 405.2,-269.94 549,-507.25 187.34,-498.53 426.98,-1132.04 718.9,-1904.88 289.77,-770.66 583.88,-1550.04 880.17,-2340.29 296.27,-788.07 546.79,-1456.41 749.4,-2002.85 204.83,-546.44 315.89,-846.85 333.36,-901.28 28.28,-119.72 43.56,-230.75 43.56,-333.09 0,-134.97 -39.22,-272.13 -117.65,-411.44 -78.43,-137.16 -206.96,-248.19 -383.45,-330.91 -176.43,-82.72 -346.36,-124.09 -507.57,-124.09l-26.15 0 0 -63.13 2261.36 0 3063.07 8150.72c267.99,611.75 688.44,918.72 1263.57,918.72l0 56.59zm-3777.66 -4177.7l-1500.99 -3992.64 -1505.43 3992.64 3006.42 0z"/>
   <path id="_25" class="fil1 str0" d="M94048.4 60304.63l-3760.26 0 0 -56.59c298.48,0 581.72,-84.91 849.65,-256.91 267.99,-169.78 409.57,-404.91 427.01,-707.5l0 -7175.46c-50.09,-267.75 -204.77,-478.94 -461.85,-633.5 -257.08,-154.56 -527.22,-232.94 -808.24,-232.94l0 -56.59 6823.27 0 128.58 1861.35 -65.37 0c0,-174.16 -52.28,-383.16 -161.21,-624.81 -108.96,-241.66 -276.7,-465.88 -501.07,-670.5 -226.58,-202.47 -514.16,-330.91 -862.74,-381l-2182.93 0c-187.37,0 -346.39,65.31 -481.48,195.94 -132.87,132.81 -200.43,293.91 -200.43,485.47l0 3596.42 2278.8 0c202.61,-45.72 366.01,-200.28 483.66,-465.88 119.81,-263.41 180.81,-507.25 185.18,-731.47l65.34 0 0 2588.48 -65.34 0c0,-228.59 -61.03,-476.78 -180.83,-740.19 -121.99,-263.41 -285.39,-418 -488.01,-465.88l-2278.8 0 0 3515.86c37.06,280.84 185.21,500.72 442.26,659.66 259.24,158.91 529.41,239.47 814.8,239.47l0 56.59z"/>
   <path id="_26" class="fil1 str0" d="M107400.1 60317.69l-3823.44 0 0 -56.59c200.43,0 405.2,-30.5 616.56,-87.09 211.3,-56.59 376.89,-154.56 501.07,-289.53 84.96,-102.31 128.53,-230.78 128.53,-383.16 0,-63.13 -6.53,-130.63 -19.59,-198.12l6.53 0c-84.96,-539.88 -215.71,-1081.97 -392.17,-1628.38 -178.62,-546.44 -446.6,-1010.13 -808.24,-1391.13 -361.64,-380.97 -864.9,-592.13 -1507.58,-635.69l-655.75 0 0 3668.26c21.81,293.91 161.24,524.69 424.82,692.31 261.45,167.63 538.13,252.53 832.24,252.53l0 56.59 -3760.26 0 0 -56.59c298.48,0 579.53,-87.09 845.3,-256.91 267.99,-169.78 407.39,-402.75 424.82,-701l0 -7188.5c-45.72,-267.75 -196.05,-478.94 -453.16,-633.5 -254.86,-154.56 -522.82,-232.94 -803.87,-232.94l0 -58.78 4237.33 0c575.13,0 1100.17,80.56 1577.3,239.47 477.1,161.09 856.18,404.94 1139.38,733.66 283.24,330.91 424.82,748.91 424.82,1253.97 0,357.03 -71.87,668.32 -217.86,931.75 -296.27,552.97 -779.9,925.22 -1448.74,1114.63 -385.61,115.38 -732,174.16 -1032.64,174.16 564.25,165.47 1015.2,448.47 1352.87,851.22 335.51,400.56 590.41,855.57 764.68,1360.63 174.3,507.25 307.2,1001.41 396.51,1486.88 84.96,250.37 241.83,468.06 472.73,650.94 228.77,182.88 488.01,274.31 777.8,274.31l0 56.59zm-4206.86 -4854.74c383.42,0 718.93,-100.16 1006.51,-302.6 287.58,-202.47 509.76,-459.37 670.97,-775.03 159.05,-313.47 237.49,-637.85 237.49,-968.75 0,-322.22 -78.43,-642.22 -235.3,-955.72 -156.87,-315.66 -379.05,-574.72 -666.63,-779.38 -287.58,-204.63 -625.25,-304.78 -1013.04,-304.78l-982.52 0c-211.33,0 -392.17,74.03 -542.5,222.06 -148.12,148.03 -222.21,328.72 -222.21,542.07l0 3322.14 1747.23 0z"/>
   <path id="_27" class="fil1 str0" d="M112499.33 60304.63l-3760.26 0 0 -56.59c298.48,0 579.53,-84.91 845.3,-252.53 267.99,-167.63 409.57,-402.75 431.35,-705.35l0 -7092.71c-21.78,-300.44 -163.37,-535.56 -431.35,-703.19 -265.77,-167.63 -546.82,-252.53 -845.3,-252.53l0 -56.59 3760.26 0 0 56.59c-289.77,0 -564.25,84.91 -825.68,252.53 -263.61,167.63 -407.39,398.41 -431.38,692.28l0 7116.65c24,293.91 167.77,524.69 431.38,692.31 261.43,167.63 535.91,252.53 825.68,252.53l0 56.59z"/>
   <path id="_28" class="fil1 str0" d="M118127.96 60304.63c-795.18,0 -1518.49,-204.63 -2167.71,-616.1 -647.03,-409.28 -1163.35,-960.07 -1546.77,-1650.16 -383.42,-692.31 -575.16,-1456.44 -575.16,-2294.57 0,-840.35 191.74,-1606.66 575.16,-2298.94 383.42,-690.1 901.93,-1240.88 1557.65,-1652.35 655.78,-409.28 1394.34,-613.91 2219.99,-613.91 535.94,0 1080.6,141.5 1633.92,426.69 213.52,102.31 407.42,152.41 581.72,152.41 89.31,0 213.49,-26.13 370.36,-78.38 156.84,-54.44 235.27,-219.88 235.27,-500.72l65.34 0 0 2383.82 -65.34 0c-4.37,-267.78 -89.34,-552.97 -254.89,-859.91 -263.61,-400.56 -625.25,-714.06 -1084.92,-944.82 -459.7,-228.59 -952.05,-343.97 -1481.46,-343.97 -381.23,0 -753.78,104.47 -1113.23,315.66 -359.48,211.16 -681.9,507.25 -969.48,890.41 -287.55,383.13 -516.32,838.13 -690.59,1367.16 -172.12,529 -257.08,1114.63 -257.08,1756.85 0,842.5 132.9,1589.2 398.67,2242.32 265.8,653.1 623.09,1162.51 1069.7,1530.44 446.6,367.91 945.49,552.94 1498.87,552.94 450.95,0 867.05,-106.66 1248.32,-320 381.26,-213.34 712.4,-487.66 995.61,-829.44 283.21,-339.63 505.41,-709.72 666.63,-1108.1l198.27 0c-161.21,483.28 -394.32,912.16 -699.31,1286.6 -305.02,374.44 -664.5,668.35 -1078.42,883.88 -416.11,215.5 -858.36,322.19 -1331.09,322.19z"/>
   <path id="_29" class="fil1 str0" d="M131821.68 60304.63l-3843.03 0 0 -56.59c187.39,0 394.35,-28.31 618.72,-82.72 226.58,-56.62 409.57,-143.69 549,-263.44 106.75,-89.25 161.24,-198.1 161.24,-330.91 0,-45.72 -6.53,-93.6 -19.62,-139.31l-1174.26 -3119.67 -3141.51 0 -1237.41 3291.64c-8.75,41.37 -13.09,80.56 -13.09,115.38 0,117.56 61,219.88 185.18,302.62 124.18,82.72 289.74,141.5 501.07,174.16 211.3,34.81 385.61,52.25 527.22,52.25l0 56.59 -2592.53 0 0 -56.59c213.52,0 431.38,-50.09 651.41,-150.22 222.24,-100.16 405.2,-269.94 549,-507.25 187.34,-498.53 426.98,-1132.04 718.93,-1904.88 289.77,-770.66 583.85,-1550.04 880.15,-2340.29 296.27,-788.07 546.82,-1456.41 749.43,-2002.85 204.8,-546.44 315.86,-846.85 333.33,-901.28 28.31,-119.72 43.56,-230.75 43.56,-333.09 0,-134.97 -39.22,-272.13 -117.65,-411.44 -78.43,-137.16 -206.96,-248.19 -383.42,-330.91 -176.46,-82.72 -346.39,-124.09 -507.6,-124.09l-26.15 0 0 -63.13 2261.36 0 3063.07 8150.72c267.99,611.75 688.44,918.72 1263.59,918.72l0 56.59zm-3777.66 -4177.7l-1501.02 -3992.64 -1505.4 3992.64 3006.42 0z"/>
   <path id="_30" class="fil1 str0" d="M133256.51 60311.16l0 -63.13c226.58,-4.37 470.57,-71.84 732.03,-198.12 261.4,-128.44 405.2,-298.25 429.14,-509.41l0 -7264.68c0,-200.31 -63.15,-378.81 -193.87,-537.72 -128.53,-156.75 -289.74,-278.66 -481.45,-365.75 -191.74,-87.09 -385.64,-130.63 -581.69,-130.63l0 -63.13 2374.64 0 5093.51 7110.12 -6.53 -6339.46c-21.78,-215.53 -163.4,-389.69 -424.79,-515.94 -261.45,-128.47 -505.47,-191.59 -729.84,-191.59l0 -63.13 2494.45 0 0 63.13c-224.37,0 -466.2,63.13 -727.62,187.22 -259.24,126.28 -403.04,296.09 -433.54,507.25l0 8368.44 -172.12 0 -6036.81 -8329.25 0 7558.59c23.94,215.53 167.74,387.5 426.98,515.94 259.27,126.28 503.26,193.75 734.18,198.12l0 56.59 -2496.66 6.53z"/>
   <path id="_31" class="fil1 str0" d="M152782.26 60304.63l-3843 0 0 -56.59c187.37,0 394.35,-28.31 618.72,-82.72 226.58,-56.62 409.57,-143.69 549,-263.44 106.75,-89.25 161.24,-198.1 161.24,-330.91 0,-45.72 -6.56,-93.6 -19.62,-139.31l-1174.26 -3119.67 -3141.51 0 -1237.44 3291.64c-8.72,41.37 -13.06,80.56 -13.06,115.38 0,117.56 61,219.88 185.18,302.62 124.18,82.72 289.74,141.5 501.07,174.16 211.3,34.81 385.58,52.25 527.22,52.25l0 56.59 -2592.53 0 0 -56.59c213.49,0 431.38,-50.09 651.41,-150.22 222.24,-100.16 405.2,-269.94 549,-507.25 187.34,-498.53 426.98,-1132.04 718.9,-1904.88 289.8,-770.66 583.88,-1550.04 880.17,-2340.29 296.27,-788.07 546.82,-1456.41 749.4,-2002.85 204.83,-546.44 315.89,-846.85 333.36,-901.28 28.28,-119.72 43.56,-230.75 43.56,-333.09 0,-134.97 -39.22,-272.13 -117.65,-411.44 -78.43,-137.16 -206.96,-248.19 -383.45,-330.91 -176.43,-82.72 -346.36,-124.09 -507.57,-124.09l-26.15 0 0 -63.13 2261.36 0 3063.07 8150.72c267.99,611.75 688.44,918.72 1263.57,918.72l0 56.59zm-3777.66 -4177.7l-1500.99 -3992.64 -1505.43 3992.64 3006.42 0z"/>
   <g>
    <path class="fil0" d="M55348.07 43061.43c-2621.37,0 -5011.25,-640.01 -7169.66,-1926.87 -2158.38,-1280.07 -3881,-3002.69 -5154.24,-5154.24 -1280.04,-2151.58 -1920.07,-4548.29 -1920.07,-7183.28 0,-2614.57 640.03,-5004.46 1920.07,-7156.04 1273.25,-2158.38 2995.87,-3874.2 5154.24,-5161.04 2158.41,-1280.07 4548.29,-1926.9 7169.66,-1926.9 2635.01,0 5024.87,646.83 7183.28,1926.9 2151.55,1286.83 3874.17,3002.66 5154.24,5161.04 1286.86,2151.58 1926.9,4541.47 1926.9,7156.04 0,2634.98 -640.03,5031.69 -1926.9,7183.28 -1280.07,2151.55 -3002.69,3874.17 -5154.24,5154.24 -2158.41,1286.86 -4548.26,1926.87 -7183.28,1926.87zm0 -578.75c1423.03,0 2757.56,-388.09 4003.57,-1157.49 1239.19,-769.38 2328.6,-1804.32 3268.2,-3097.97 939.63,-1300.48 1674.98,-2764.38 2206.05,-4391.69 531.1,-1627.27 796.64,-3309.04 796.64,-5038.49 0,-1715.83 -265.54,-3390.77 -796.64,-5024.87 -531.07,-1634.13 -1266.42,-3104.83 -2206.05,-4405.3 -939.6,-1307.27 -2029.01,-2342.21 -3268.2,-3111.62 -1246.01,-776.2 -2580.55,-1157.49 -4003.57,-1157.49 -1409.41,0 -2737.12,381.29 -3976.34,1157.49 -1245.98,769.41 -2335.39,1804.35 -3275.02,3111.62 -932.8,1300.48 -1674.95,2771.18 -2212.84,4405.3 -537.9,1634.1 -810.26,3309.04 -810.26,5024.87 0,1729.44 272.36,3411.21 810.26,5038.49 537.9,1627.3 1280.04,3091.21 2212.84,4391.69 939.63,1293.66 2029.03,2328.6 3275.02,3097.97 1239.22,769.41 2566.93,1157.49 3976.34,1157.49z"/>
    <path id="_1_0" class="fil0" d="M69407.57 43081.87l0 -197.45c742.14,-13.62 1538.78,-224.69 2383.06,-619.59 844.28,-401.73 1307.3,-939.63 1389,-1613.69l-20.44 -22666.44c0,-769.38 -217.86,-1402.62 -646.83,-1892.84 -435.76,-490.22 -946.42,-844.28 -1538.78,-1055.35 -592.36,-211.07 -1103.02,-320.03 -1545.6,-320.03l-81.7 0 0 -197.45 7802.87 0 8558.63 22441.75 8558.63 -22441.75 7816.49 0 0 197.45c-626.39,0 -1239.19,122.58 -1845.17,367.67 -605.98,245.13 -1109.85,599.18 -1504.76,1048.56 -401.7,449.37 -599.16,987.27 -599.16,1593.25l0 22121.75c0,626.42 197.45,1164.28 599.16,1620.48 394.91,449.37 898.78,796.64 1504.76,1041.74 605.98,251.95 1218.78,374.5 1845.17,374.5l0 177.01 -11772.39 0 0 -177.01c640.03,0 1259.63,-122.55 1865.61,-374.5 606.01,-245.1 1109.85,-585.54 1518.37,-1034.91 408.52,-442.58 605.98,-987.27 605.98,-1627.3l0 -23796.7 -10328.92 27010.43 -10233.61 -25709.95 0 23299.65c81.7,674.06 537.9,1211.96 1382.18,1613.69 844.31,394.91 1640.92,605.98 2389.89,619.59l0 177.01 -8102.43 20.44z"/>
    <path id="_2_1" class="fil0" d="M111941.4 43081.87l-7762.02 0 0 -197.45c878.34,0 1715.83,-245.13 2512.44,-721.73 803.43,-476.61 1280.07,-1143.87 1436.67,-1994.98l0 -22700.47c-156.6,-851.1 -633.24,-1511.55 -1423.06,-1994.98 -789.82,-476.61 -1620.48,-714.94 -2485.2,-714.94l0 -204.25 13808.22 20.41c1647.71,27.26 3132.03,333.65 4466.56,912.39 1327.71,578.75 2389.89,1382.18 3193.32,2423.91 796.64,1034.94 1191.55,2246.9 1191.55,3629.11 0,1130.26 -265.57,2151.55 -796.64,3063.95 -531.07,905.57 -1252.81,1674.95 -2171.99,2294.54 -919.19,612.8 -1974.57,1062.18 -3172.91,1341.33 1545.6,279.18 2914.17,748.97 4119.33,1409.44 1205.13,660.44 2151.55,1484.32 2852.88,2485.2 694.5,994.06 1048.56,2117.53 1048.56,3370.33 0,1511.55 -490.25,2839.26 -1457.08,3969.52 -973.65,1130.26 -2260.52,2001.8 -3874.2,2621.4 -1606.86,619.59 -3404.39,939.6 -5399.37,966.83l-6087.05 0 0 20.44zm5923.65 -15081.46c932.8,0 1729.41,-204.25 2396.68,-605.98 660.44,-408.52 1198.34,-925.98 1613.69,-1566.02 408.52,-640.03 714.91,-1334.53 919.19,-2083.5 197.45,-755.76 299.56,-1477.49 299.56,-2165.17 0,-667.27 -102.11,-1375.38 -299.56,-2124.35 -204.28,-755.79 -510.66,-1450.26 -919.19,-2097.12 -415.35,-646.83 -953.24,-1171.11 -1613.69,-1586.43 -667.27,-408.52 -1463.88,-619.59 -2396.68,-619.59l-3588.26 0c-653.62,13.62 -1198.34,238.3 -1640.89,674.06 -435.79,428.93 -667.27,980.45 -694.5,1640.92l0 10533.17 5923.65 0zm0 14502.72c1089.38,0 2035.8,-231.51 2832.44,-701.29 796.64,-463.02 1457.08,-1055.38 1967.75,-1770.29 510.66,-721.73 891.95,-1484.32 1143.87,-2287.75 251.92,-803.43 381.29,-1552.4 381.29,-2240.11 0,-919.19 -224.69,-1920.07 -680.88,-2995.87 -449.37,-1075.79 -1143.87,-1988.16 -2076.68,-2743.95 -925.98,-748.97 -2117.53,-1143.87 -3567.79,-1184.72l-5923.65 0 0 11711.13c0,612.77 211.07,1130.26 626.39,1552.4 422.17,428.93 939.63,646.83 1566.04,660.44l3731.21 0z"/>
    <path id="_3_2" class="fil0" d="M155986.81 43061.43l-12010.72 0 0 -177.01c585.57,0 1232.4,-88.52 1933.72,-258.74 708.12,-177.01 1280.04,-449.37 1715.8,-823.84 333.65,-279.18 503.87,-619.62 503.87,-1034.94 0,-142.99 -20.44,-292.77 -61.29,-435.76l-3669.93 -9757 -9818.29 0 -3867.38 10294.9c-27.23,129.34 -40.85,251.92 -40.85,360.85 0,367.67 190.66,687.68 578.75,946.42 388.11,258.74 905.57,442.58 1566.02,544.72 660.47,108.93 1205.16,163.4 1647.74,163.4l0 177.01 -8102.46 0 0 -177.01c667.27,0 1348.15,-156.6 2035.83,-469.81 694.5,-313.21 1266.42,-844.28 1715.83,-1586.45 585.54,-1559.19 1334.51,-3540.55 2246.9,-5957.67 905.54,-2410.3 1824.73,-4847.86 2750.74,-7319.44 925.98,-2464.76 1709,-4555.09 2342.21,-6264.09 640.03,-1709 987.27,-2648.6 1041.74,-2818.82 88.52,-374.5 136.19,-721.73 136.19,-1041.74 0,-422.17 -122.58,-851.1 -367.67,-1286.86 -245.13,-428.96 -646.83,-776.2 -1198.34,-1034.94 -551.51,-258.74 -1082.61,-388.11 -1586.45,-388.11l-81.7 0 0 -197.45 7067.49 0 9573.16 25492.09c837.49,1913.28 2151.58,2873.32 3949.11,2873.32l0 177.01zm-11806.45 -13066.05l-4691.25 -12487.3 -4704.87 12487.3 9396.12 0z"/>
    <path id="_4_3" class="fil1 str0" d="M55348.07 43061.43c-2621.37,0 -5011.25,-640.01 -7169.66,-1926.87 -2158.38,-1280.07 -3881,-3002.69 -5154.24,-5154.24 -1280.04,-2151.58 -1920.07,-4548.29 -1920.07,-7183.28 0,-2614.57 640.03,-5004.46 1920.07,-7156.04 1273.25,-2158.38 2995.87,-3874.2 5154.24,-5161.04 2158.41,-1280.07 4548.29,-1926.9 7169.66,-1926.9 2635.01,0 5024.87,646.83 7183.28,1926.9 2151.55,1286.83 3874.17,3002.66 5154.24,5161.04 1286.86,2151.58 1926.9,4541.47 1926.9,7156.04 0,2634.98 -640.03,5031.69 -1926.9,7183.28 -1280.07,2151.55 -3002.69,3874.17 -5154.24,5154.24 -2158.41,1286.86 -4548.26,1926.87 -7183.28,1926.87zm0 -578.75c1423.03,0 2757.56,-388.09 4003.57,-1157.49 1239.19,-769.38 2328.6,-1804.32 3268.2,-3097.97 939.63,-1300.48 1674.98,-2764.38 2206.05,-4391.69 531.1,-1627.27 796.64,-3309.04 796.64,-5038.49 0,-1715.83 -265.54,-3390.77 -796.64,-5024.87 -531.07,-1634.13 -1266.42,-3104.83 -2206.05,-4405.3 -939.6,-1307.27 -2029.01,-2342.21 -3268.2,-3111.62 -1246.01,-776.2 -2580.55,-1157.49 -4003.57,-1157.49 -1409.41,0 -2737.12,381.29 -3976.34,1157.49 -1245.98,769.41 -2335.39,1804.35 -3275.02,3111.62 -932.8,1300.48 -1674.95,2771.18 -2212.84,4405.3 -537.9,1634.1 -810.26,3309.04 -810.26,5024.87 0,1729.44 272.36,3411.21 810.26,5038.49 537.9,1627.3 1280.04,3091.21 2212.84,4391.69 939.63,1293.66 2029.03,2328.6 3275.02,3097.97 1239.22,769.41 2566.93,1157.49 3976.34,1157.49z"/>
    <path id="_5_4" class="fil1 str0" d="M69407.57 43081.87l0 -197.45c742.14,-13.62 1538.78,-224.69 2383.06,-619.59 844.28,-401.73 1307.3,-939.63 1389,-1613.69l-20.44 -22666.44c0,-769.38 -217.86,-1402.62 -646.83,-1892.84 -435.76,-490.22 -946.42,-844.28 -1538.78,-1055.35 -592.36,-211.07 -1103.02,-320.03 -1545.6,-320.03l-81.7 0 0 -197.45 7802.87 0 8558.63 22441.75 8558.63 -22441.75 7816.49 0 0 197.45c-626.39,0 -1239.19,122.58 -1845.17,367.67 -605.98,245.13 -1109.85,599.18 -1504.76,1048.56 -401.7,449.37 -599.16,987.27 -599.16,1593.25l0 22121.75c0,626.42 197.45,1164.28 599.16,1620.48 394.91,449.37 898.78,796.64 1504.76,1041.74 605.98,251.95 1218.78,374.5 1845.17,374.5l0 177.01 -11772.39 0 0 -177.01c640.03,0 1259.63,-122.55 1865.61,-374.5 606.01,-245.1 1109.85,-585.54 1518.37,-1034.91 408.52,-442.58 605.98,-987.27 605.98,-1627.3l0 -23796.7 -10328.92 27010.43 -10233.61 -25709.95 0 23299.65c81.7,674.06 537.9,1211.96 1382.18,1613.69 844.31,394.91 1640.92,605.98 2389.89,619.59l0 177.01 -8102.43 20.44z"/>
    <path id="_6_5" class="fil1 str0" d="M111941.4 43081.87l-7762.02 0 0 -197.45c878.34,0 1715.83,-245.13 2512.44,-721.73 803.43,-476.61 1280.07,-1143.87 1436.67,-1994.98l0 -22700.47c-156.6,-851.1 -633.24,-1511.55 -1423.06,-1994.98 -789.82,-476.61 -1620.48,-714.94 -2485.2,-714.94l0 -204.25 13808.22 20.41c1647.71,27.26 3132.03,333.65 4466.56,912.39 1327.71,578.75 2389.89,1382.18 3193.32,2423.91 796.64,1034.94 1191.55,2246.9 1191.55,3629.11 0,1130.26 -265.57,2151.55 -796.64,3063.95 -531.07,905.57 -1252.81,1674.95 -2171.99,2294.54 -919.19,612.8 -1974.57,1062.18 -3172.91,1341.33 1545.6,279.18 2914.17,748.97 4119.33,1409.44 1205.13,660.44 2151.55,1484.32 2852.88,2485.2 694.5,994.06 1048.56,2117.53 1048.56,3370.33 0,1511.55 -490.25,2839.26 -1457.08,3969.52 -973.65,1130.26 -2260.52,2001.8 -3874.2,2621.4 -1606.86,619.59 -3404.39,939.6 -5399.37,966.83l-6087.05 0 0 20.44zm5923.65 -15081.46c932.8,0 1729.41,-204.25 2396.68,-605.98 660.44,-408.52 1198.34,-925.98 1613.69,-1566.02 408.52,-640.03 714.91,-1334.53 919.19,-2083.5 197.45,-755.76 299.56,-1477.49 299.56,-2165.17 0,-667.27 -102.11,-1375.38 -299.56,-2124.35 -204.28,-755.79 -510.66,-1450.26 -919.19,-2097.12 -415.35,-646.83 -953.24,-1171.11 -1613.69,-1586.43 -667.27,-408.52 -1463.88,-619.59 -2396.68,-619.59l-3588.26 0c-653.62,13.62 -1198.34,238.3 -1640.89,674.06 -435.79,428.93 -667.27,980.45 -694.5,1640.92l0 10533.17 5923.65 0zm0 14502.72c1089.38,0 2035.8,-231.51 2832.44,-701.29 796.64,-463.02 1457.08,-1055.38 1967.75,-1770.29 510.66,-721.73 891.95,-1484.32 1143.87,-2287.75 251.92,-803.43 381.29,-1552.4 381.29,-2240.11 0,-919.19 -224.69,-1920.07 -680.88,-2995.87 -449.37,-1075.79 -1143.87,-1988.16 -2076.68,-2743.95 -925.98,-748.97 -2117.53,-1143.87 -3567.79,-1184.72l-5923.65 0 0 11711.13c0,612.77 211.07,1130.26 626.39,1552.4 422.17,428.93 939.63,646.83 1566.04,660.44l3731.21 0z"/>
    <path id="_7_6" class="fil1 str0" d="M155986.81 43061.43l-12010.72 0 0 -177.01c585.57,0 1232.4,-88.52 1933.72,-258.74 708.12,-177.01 1280.04,-449.37 1715.8,-823.84 333.65,-279.18 503.87,-619.62 503.87,-1034.94 0,-142.99 -20.44,-292.77 -61.29,-435.76l-3669.93 -9757 -9818.29 0 -3867.38 10294.9c-27.23,129.34 -40.85,251.92 -40.85,360.85 0,367.67 190.66,687.68 578.75,946.42 388.11,258.74 905.57,442.58 1566.02,544.72 660.47,108.93 1205.16,163.4 1647.74,163.4l0 177.01 -8102.46 0 0 -177.01c667.27,0 1348.15,-156.6 2035.83,-469.81 694.5,-313.21 1266.42,-844.28 1715.83,-1586.45 585.54,-1559.19 1334.51,-3540.55 2246.9,-5957.67 905.54,-2410.3 1824.73,-4847.86 2750.74,-7319.44 925.98,-2464.76 1709,-4555.09 2342.21,-6264.09 640.03,-1709 987.27,-2648.6 1041.74,-2818.82 88.52,-374.5 136.19,-721.73 136.19,-1041.74 0,-422.17 -122.58,-851.1 -367.67,-1286.86 -245.13,-428.96 -646.83,-776.2 -1198.34,-1034.94 -551.51,-258.74 -1082.61,-388.11 -1586.45,-388.11l-81.7 0 0 -197.45 7067.49 0 9573.16 25492.09c837.49,1913.28 2151.58,2873.32 3949.11,2873.32l0 177.01zm-11806.45 -13066.05l-4691.25 -12487.3 -4704.87 12487.3 9396.12 0z"/>
    <path class="fil0" d="M11.11 45263.37l0 -313.06c1392.53,0 2731.09,-388.61 4004.89,-1144.25 1273.8,-755.64 2029.44,-1813.53 2256.14,-3162.91l0 -1953.87c-626.1,-1392.56 -939.16,-2882.24 -939.16,-4458.31 0,-1781.14 313.06,-3314.03 939.16,-4620.22l0 -25022.59c-226.7,-1327.77 -971.52,-2364.08 -2245.32,-3130.51 -1263.01,-755.64 -2579.99,-1133.46 -3950.94,-1133.46l0 -313.06 21913.66 0c2623.18,54 4976.47,550.55 7092.25,1468.13 2105.02,917.55 3799.82,2191.35 5073.62,3842.98 1273.8,1640.83 1910.68,3562.31 1910.68,5753.69 0,1791.96 -421,3411.18 -1262.98,4857.71 -842.01,1435.71 -1997.08,2655.54 -3465.18,3637.88 -1468.1,971.52 -3141.3,1694.8 -5041.23,2158.96 2439.66,421 4620.22,1165.86 6530.94,2212.96 1910.68,1057.92 3411.18,2374.9 4523.07,3940.16 1101.07,1576.05 1662.41,3357.21 1662.41,5365.05 0,2396.48 -777.25,4501.5 -2310.11,6293.45 -1543.68,1791.96 -3583.91,3173.7 -6142.3,4156.04 -2547.6,982.34 -5408.26,1489.68 -8571.17,1532.86l-21978.41 32.39zm21730.14 -23943.1c1478.89,0 2741.9,-313.06 3799.79,-949.95 1047.13,-626.13 1899.93,-1457.32 2558.42,-2482.84 647.67,-1014.71 1133.46,-2126.6 1457.32,-3314.03 313.03,-1198.22 474.97,-2342.51 474.97,-3432.79 0,-1079.49 -161.94,-2202.14 -464.19,-3389.61 -302.27,-1176.65 -788.04,-2288.51 -1457.32,-3314.03 -658.49,-1036.31 -1522.07,-1878.32 -2569.2,-2536.81 -1057.89,-647.67 -2320.9,-971.52 -3799.79,-971.52l-5688.93 0c-1036.31,21.58 -1910.68,377.82 -2612.36,1068.68 -701.67,701.67 -1079.49,1565.29 -1122.68,2590.78l0 16732.12 9423.96 0zm0 23025.54c1727.2,0 3227.67,-367.03 4490.68,-1111.89 1263.01,-734.07 2299.32,-1673.2 3119.73,-2806.66 809.61,-1144.28 1414.13,-2353.29 1813.56,-3637.91 399.4,-1284.59 604.49,-2472.02 604.49,-3540.73 0,-1457.29 -356.22,-3044.15 -1057.89,-4760.53 -712.46,-1716.41 -1802.74,-3173.73 -3292.45,-4361.16 -1489.68,-1198.22 -3378.79,-1824.32 -5678.11,-1889.11l-9423.96 0 0 3011.78c777.25,-151.12 1619.26,-226.7 2526.02,-226.7 2763.48,0 5030.41,528.94 6800.79,1576.07 1770.35,1057.89 3076.54,2493.6 3929.34,4307.16 842.01,1813.53 1263.01,3853.79 1263.01,6131.51l-6487.76 0c129.55,-863.61 194.33,-1748.77 194.33,-2655.57 0,-334.64 -32.39,-917.55 -86.36,-1737.96 -43.18,-820.43 -269.88,-1791.96 -658.49,-2893.06 -388.61,-1111.86 -993.13,-2018.63 -1791.96,-2720.3 -798.83,-701.67 -1856.74,-1057.92 -3162.91,-1057.92 -2526.02,0 -4587.83,723.28 -6174.69,2169.78 -1597.65,1435.74 -2396.48,3465.18 -2396.48,6088.33 0,1910.71 485.79,3627.09 1446.53,5149.17 960.74,1522.1 2234.54,2720.33 3821.4,3627.09 1597.65,895.98 3346.42,1338.59 5267.9,1338.59l4933.29 0z"/>
    <path id="_1_7" class="fil1 str0" d="M11.11 45263.37l0 -313.06c1392.53,0 2731.09,-388.61 4004.89,-1144.25 1273.8,-755.64 2029.44,-1813.53 2256.14,-3162.91l0 -1953.87c-626.1,-1392.56 -939.16,-2882.24 -939.16,-4458.31 0,-1781.14 313.06,-3314.03 939.16,-4620.22l0 -25022.59c-226.7,-1327.77 -971.52,-2364.08 -2245.32,-3130.51 -1263.01,-755.64 -2579.99,-1133.46 -3950.94,-1133.46l0 -313.06 21913.66 0c2623.18,54 4976.47,550.55 7092.25,1468.13 2105.02,917.55 3799.82,2191.35 5073.62,3842.98 1273.8,1640.83 1910.68,3562.31 1910.68,5753.69 0,1791.96 -421,3411.18 -1262.98,4857.71 -842.01,1435.71 -1997.08,2655.54 -3465.18,3637.88 -1468.1,971.52 -3141.3,1694.8 -5041.23,2158.96 2439.66,421 4620.22,1165.86 6530.94,2212.96 1910.68,1057.92 3411.18,2374.9 4523.07,3940.16 1101.07,1576.05 1662.41,3357.21 1662.41,5365.05 0,2396.48 -777.25,4501.5 -2310.11,6293.45 -1543.68,1791.96 -3583.91,3173.7 -6142.3,4156.04 -2547.6,982.34 -5408.26,1489.68 -8571.17,1532.86l-21978.41 32.39zm21730.14 -23943.1c1478.89,0 2741.9,-313.06 3799.79,-949.95 1047.13,-626.13 1899.93,-1457.32 2558.42,-2482.84 647.67,-1014.71 1133.46,-2126.6 1457.32,-3314.03 313.03,-1198.22 474.97,-2342.51 474.97,-3432.79 0,-1079.49 -161.94,-2202.14 -464.19,-3389.61 -302.27,-1176.65 -788.04,-2288.51 -1457.32,-3314.03 -658.49,-1036.31 -1522.07,-1878.32 -2569.2,-2536.81 -1057.89,-647.67 -2320.9,-971.52 -3799.79,-971.52l-5688.93 0c-1036.31,21.58 -1910.68,377.82 -2612.36,1068.68 -701.67,701.67 -1079.49,1565.29 -1122.68,2590.78l0 16732.12 9423.96 0zm0 23025.54c1727.2,0 3227.67,-367.03 4490.68,-1111.89 1263.01,-734.07 2299.32,-1673.2 3119.73,-2806.66 809.61,-1144.28 1414.13,-2353.29 1813.56,-3637.91 399.4,-1284.59 604.49,-2472.02 604.49,-3540.73 0,-1457.29 -356.22,-3044.15 -1057.89,-4760.53 -712.46,-1716.41 -1802.74,-3173.73 -3292.45,-4361.16 -1489.68,-1198.22 -3378.79,-1824.32 -5678.11,-1889.11l-9423.96 0 0 3011.78c777.25,-151.12 1619.26,-226.7 2526.02,-226.7 2763.48,0 5030.41,528.94 6800.79,1576.07 1770.35,1057.89 3076.54,2493.6 3929.34,4307.16 842.01,1813.53 1263.01,3853.79 1263.01,6131.51l-6487.76 0c129.55,-863.61 194.33,-1748.77 194.33,-2655.57 0,-334.64 -32.39,-917.55 -86.36,-1737.96 -43.18,-820.43 -269.88,-1791.96 -658.49,-2893.06 -388.61,-1111.86 -993.13,-2018.63 -1791.96,-2720.3 -798.83,-701.67 -1856.74,-1057.92 -3162.91,-1057.92 -2526.02,0 -4587.83,723.28 -6174.69,2169.78 -1597.65,1435.74 -2396.48,3465.18 -2396.48,6088.33 0,1910.71 485.79,3627.09 1446.53,5149.17 960.74,1522.1 2234.54,2720.33 3821.4,3627.09 1597.65,895.98 3346.42,1338.59 5267.9,1338.59l4933.29 0z"/>
   </g>
  </g>
 </g>
</svg>
