<?xml version="1.0" encoding="UTF-8"?>
<!DOCTYPE svg PUBLIC "-//W3C//DTD SVG 1.1//EN" "http://www.w3.org/Graphics/SVG/1.1/DTD/svg11.dtd">
<!-- Creator: CorelDRAW -->
<svg xmlns="http://www.w3.org/2000/svg" xml:space="preserve" width="24.9956in" height="9.64577in" version="1.1" style="shape-rendering:geometricPrecision; text-rendering:geometricPrecision; image-rendering:optimizeQuality; fill-rule:evenodd; clip-rule:evenodd"
viewBox="0 0 24995.57 9645.77"
 xmlns:xlink="http://www.w3.org/1999/xlink"
 xmlns:xodm="http://www.corel.com/coreldraw/odm/2003">
 <defs>
  <style type="text/css">
   <![CDATA[
    .str0 {stroke:black;stroke-width:3;stroke-miterlimit:2.61313}
    .fil1 {fill:none;fill-rule:nonzero}
    .fil0 {fill:black;fill-rule:nonzero}
   ]]>
  </style>
 </defs>
 <g id="Layer_x0020_1">
  <metadata id="CorelCorpID_0Corel-Layer"/>
  <g id="_2024945677168">
   <path class="fil0" d="M1833.33 5392.79c-339.57,0 -648.44,-87.45 -925.69,-263.28 -276.31,-174.91 -496.8,-410.28 -660.54,-705.2 -163.74,-295.85 -245.61,-622.39 -245.61,-980.57 0,-359.11 81.87,-686.59 245.61,-982.43 163.74,-294.92 385.16,-530.29 665.19,-706.13 280.03,-174.9 595.41,-262.35 948.01,-262.35 228.86,0 461.44,60.47 697.75,182.35 91.17,43.72 173.97,65.12 248.4,65.12 38.14,0 91.17,-11.17 158.16,-33.49 66.98,-23.26 100.48,-93.96 100.48,-213.98l27.91 0 0 1018.72 -27.91 0c-1.86,-114.43 -38.15,-236.31 -108.85,-367.48 -112.57,-171.18 -267.01,-305.15 -463.31,-403.76 -196.3,-97.69 -406.56,-146.99 -632.63,-146.99 -162.81,0 -321.9,44.65 -475.4,134.9 -153.51,90.24 -291.2,216.77 -414,380.51 -122.8,163.74 -220.49,358.18 -294.92,584.25 -73.5,226.07 -109.78,476.33 -109.78,750.78 0,360.04 56.75,679.15 170.25,958.24 113.5,279.1 266.07,496.8 456.8,654.03 190.72,157.22 403.76,236.3 640.07,236.3 192.58,0 370.27,-45.59 533.08,-136.76 162.81,-91.17 304.22,-208.39 425.16,-354.46 120.94,-145.13 215.84,-303.29 284.68,-473.54l84.66 0c-68.84,206.53 -168.39,389.81 -298.64,549.83 -130.25,160.02 -283.75,285.61 -460.52,377.72 -177.69,92.1 -366.55,137.69 -568.43,137.69z"/>
   <path id="_1" class="fil0" d="M6944.91 5392.79l-1641.11 0 0 -24.19c80.01,0 168.39,-12.09 264.22,-35.35 96.76,-24.19 174.9,-61.41 234.44,-112.57 45.59,-38.15 68.84,-84.66 68.84,-141.41 0,-19.54 -2.79,-40 -8.37,-59.54l-501.45 -1333.17 -1341.54 0 -528.43 1406.67c-3.72,17.68 -5.58,34.42 -5.58,49.31 0,50.24 26.05,93.96 79.08,129.31 53.03,35.35 123.74,60.47 213.98,74.43 90.24,14.89 164.67,22.33 225.14,22.33l0 24.19 -1107.1 0 0 -24.19c91.17,0 184.2,-21.4 278.17,-64.19 94.89,-42.8 173.04,-115.36 234.44,-216.77 80.01,-213.05 182.35,-483.78 307.01,-814.04 123.73,-329.34 249.33,-662.4 375.85,-1000.11 126.52,-336.78 233.52,-622.39 320.04,-855.91 87.45,-233.51 134.9,-361.9 142.34,-385.16 12.09,-51.17 18.61,-98.62 18.61,-142.34 0,-57.68 -16.75,-116.29 -50.24,-175.83 -33.49,-58.61 -88.38,-106.06 -163.74,-141.41 -75.36,-35.35 -147.93,-53.03 -216.77,-53.03l-11.16 0 0 -26.98 965.69 0 1308.05 3483.17c114.43,261.43 293.98,392.6 539.59,392.6l0 24.19zm-1613.2 -1785.31l-641 -1706.23 -642.86 1706.23 1283.86 0z"/>
   <path id="_2" class="fil0" d="M6988.95 5395.58l0 -26.98c96.76,-1.86 200.95,-30.7 312.59,-84.66 111.64,-54.89 173.04,-127.45 183.28,-217.7l0 -3104.53c0,-85.59 -26.98,-161.88 -82.8,-229.8 -54.89,-66.98 -123.74,-119.08 -205.61,-156.3 -81.87,-37.21 -164.67,-55.82 -248.4,-55.82l0 -26.98 1014.06 0 2175.13 3038.48 -2.79 -2709.14c-9.3,-92.1 -69.78,-166.53 -181.41,-220.49 -111.64,-54.89 -215.84,-81.87 -311.67,-81.87l0 -26.98 1065.24 0 0 26.98c-95.83,0 -199.09,26.98 -310.73,80.01 -110.71,53.96 -172.11,126.52 -185.14,216.77l0 3576.21 -73.5 0 -2577.96 -3559.46 0 3230.12c10.24,92.1 71.64,165.6 182.35,220.49 110.71,53.96 214.91,82.8 313.52,84.66l0 24.19 -1066.17 2.79z"/>
   <path id="_3" class="fil0" d="M12542.44 5392.79c-339.57,0 -648.44,-87.45 -925.69,-263.28 -276.31,-174.91 -496.8,-410.28 -660.54,-705.2 -163.74,-295.85 -245.61,-622.39 -245.61,-980.57 0,-359.11 81.87,-686.59 245.61,-982.43 163.74,-294.92 385.16,-530.29 665.19,-706.13 280.03,-174.9 595.41,-262.35 948.01,-262.35 228.86,0 461.44,60.47 697.75,182.35 91.17,43.72 173.97,65.12 248.4,65.12 38.14,0 91.17,-11.17 158.16,-33.49 66.98,-23.26 100.48,-93.96 100.48,-213.98l27.91 0 0 1018.72 -27.91 0c-1.86,-114.43 -38.15,-236.31 -108.85,-367.48 -112.57,-171.18 -267.01,-305.15 -463.31,-403.76 -196.3,-97.69 -406.56,-146.99 -632.63,-146.99 -162.81,0 -321.9,44.65 -475.4,134.9 -153.51,90.24 -291.2,216.77 -414,380.51 -122.8,163.74 -220.49,358.18 -294.92,584.25 -73.5,226.07 -109.78,476.33 -109.78,750.78 0,360.04 56.75,679.15 170.25,958.24 113.5,279.1 266.07,496.8 456.8,654.03 190.72,157.22 403.76,236.3 640.07,236.3 192.58,0 370.27,-45.59 533.08,-136.76 162.81,-91.17 304.22,-208.39 425.16,-354.46 120.94,-145.13 215.84,-303.29 284.68,-473.54l84.66 0c-68.84,206.53 -168.39,389.81 -298.64,549.83 -130.25,160.02 -283.75,285.61 -460.52,377.72 -177.69,92.1 -366.55,137.69 -568.43,137.69z"/>
   <path id="_4" class="fil0" d="M15546.81 5392.79l-1605.76 0 0 -24.19c127.46,0 247.47,-36.28 360.97,-107.92 114.43,-71.64 174.91,-172.11 184.21,-301.43l0 -3031.03c-9.3,-128.39 -69.78,-228.86 -184.21,-300.5 -113.5,-71.63 -233.51,-107.92 -360.97,-107.92l0 -24.19 1605.76 0 0 24.19c-123.74,0 -240.96,36.28 -352.6,107.92 -112.57,71.64 -173.97,170.25 -184.21,295.85l0 3041.27c10.24,125.59 71.64,224.21 184.21,295.85 111.64,71.63 228.86,107.92 352.6,107.92l0 24.19z"/>
   <path id="_5" class="fil0" d="M17496.18 5390c-358.18,0 -683.8,-87.45 -978.71,-263.28 -293.98,-174.91 -528.43,-410.28 -704.26,-704.26 -174.9,-293.99 -263.28,-620.54 -263.28,-978.71 0,-359.11 88.38,-686.59 263.28,-980.57 175.83,-294.92 410.28,-529.36 704.26,-705.19 294.92,-174.91 620.54,-262.35 978.71,-262.35 360.04,0 686.59,87.45 981.5,262.35 293.99,175.83 529.36,410.28 704.26,705.19 175.83,293.99 263.29,621.46 263.29,980.57 0,358.18 -87.45,684.72 -263.29,978.71 -174.9,293.98 -410.28,529.36 -704.26,704.26 -294.92,175.83 -621.46,263.28 -981.5,263.28zm0 -76.29c194.44,0 376.79,-53.03 547.04,-158.16 169.32,-105.13 318.17,-246.54 446.56,-423.3 128.39,-177.69 228.86,-377.71 301.43,-601 72.57,-224.21 108.85,-453.07 108.85,-687.52 0,-236.31 -36.28,-466.1 -108.85,-689.38 -72.57,-223.28 -173.04,-424.24 -301.43,-601.93 -128.39,-178.62 -277.24,-320.04 -446.56,-425.16 -170.25,-106.06 -352.6,-158.16 -547.04,-158.16 -192.58,0 -373.99,52.1 -543.31,158.16 -170.25,105.13 -319.11,246.54 -447.49,425.16 -127.46,177.69 -228.86,378.65 -302.36,601.93 -73.5,223.28 -110.71,453.07 -110.71,689.38 0,234.44 37.21,463.31 110.71,687.52 73.5,223.28 174.9,423.3 302.36,601 128.39,176.76 277.24,318.18 447.49,423.3 169.32,105.13 350.74,158.16 543.31,158.16zm-237.24 -4055.33l-130.24 -111.64 356.32 -814.97 382.37 241.89 -608.44 684.73z"/>
   <path id="_6" class="fil0" d="M22529.61 5390l-76.29 0 -1553.66 -2148.14c-268.87,280.03 -547.96,506.1 -836.37,679.14 -259.56,161.88 -517.27,246.54 -771.25,253.05l-2.79 0c-539.59,-12.09 -912.66,-284.68 -1117.33,-816.83 -64.19,-186.07 -95.83,-369.34 -95.83,-550.76 0,-118.15 25.12,-280.03 73.5,-485.64 49.31,-204.67 180.48,-399.11 392.6,-583.32 200.02,-164.67 441.91,-247.47 724.73,-247.47l1014.06 0 960.11 1343.41c252.12,-295.85 500.52,-601 743.34,-915.45 87.45,-112.57 173.97,-223.28 259.56,-330.27 -104.2,-45.59 -199.09,-68.85 -286.54,-70.7l0 -26.98 362.83 0c230.72,-291.2 459.59,-552.62 686.59,-786.13 227,-233.52 454.94,-413.07 683.8,-538.67 196.3,-108.85 407.48,-163.74 632.63,-163.74 196.3,0 360.04,59.54 490.29,177.69 67.91,70.7 116.29,151.65 147.93,241.89 21.4,67.92 32.56,134.9 32.56,201.89 0,28.84 -4.65,76.29 -13.95,140.48 -9.3,64.19 -47.45,128.39 -114.43,192.58 -53.03,40.93 -103.27,62.33 -152.57,62.33 -23.26,0 -59.54,-9.3 -107.92,-28.84 -48.38,-18.61 -76.29,-64.19 -85.59,-134.9 0,-66.98 20.46,-118.15 62.33,-152.58 41.87,-34.42 87.45,-62.33 136.76,-84.66 49.31,-21.4 88.38,-44.66 118.15,-68.85 29.77,-25.12 45.59,-56.75 45.59,-94.89l0 -13.02c-29.77,-81.87 -71.64,-150.72 -125.6,-207.46 -131.18,-118.15 -297.7,-176.76 -501.45,-176.76 -1.86,0 -54.89,0 -160.02,0.93 -104.2,0.93 -235.38,44.66 -393.54,129.31 -225.14,125.6 -449.35,302.36 -671.7,530.29 -222.35,227.93 -448.42,485.64 -677.28,773.11l670.77 2.79 0 24.19c-96.76,1.86 -200.02,29.77 -310.73,82.8 -111.64,53.96 -172.11,125.59 -183.28,213.98l0 3576.21zm-3191.05 -1294.09c234.44,0 470.75,-66.06 710.78,-196.3 289.33,-173.04 567.51,-399.11 834.51,-679.14l-1000.11 -1381.55c-60.47,-81.87 -149.78,-156.3 -268.87,-222.35 -119.08,-66.05 -234.44,-99.54 -347.94,-99.54 -275.38,0 -510.76,80.01 -705.2,240.03 -201.88,173.97 -330.27,406.56 -384.23,697.75 -20.46,103.27 -30.7,206.54 -30.7,310.73 0,187 32.56,374.93 98.62,563.78 192.58,499.59 540.52,755.43 1043.83,766.6l49.31 0zm3114.76 432.61l0 -2706.35c-10.23,-93.96 -72.57,-168.39 -185.14,-223.28l-264.21 334.92c-243.75,316.31 -492.15,623.33 -747.06,921.96l1196.41 1672.74zm-2079.3 861.49l-1068.96 0 0 -24.19c98.62,-1.86 202.81,-29.77 313.52,-84.66 111.64,-54.89 172.11,-127.45 183.28,-217.7l0 -537.73 76.29 0 0 534.94c8.37,92.1 68.85,165.6 180.48,220.49 112.57,54.89 216.77,82.8 315.39,84.66l0 24.19z"/>
   <path id="_7" class="fil1 str0" d="M1833.33 5392.79c-339.57,0 -648.44,-87.45 -925.69,-263.28 -276.31,-174.91 -496.8,-410.28 -660.54,-705.2 -163.74,-295.85 -245.61,-622.39 -245.61,-980.57 0,-359.11 81.87,-686.59 245.61,-982.43 163.74,-294.92 385.16,-530.29 665.19,-706.13 280.03,-174.9 595.41,-262.35 948.01,-262.35 228.86,0 461.44,60.47 697.75,182.35 91.17,43.72 173.97,65.12 248.4,65.12 38.14,0 91.17,-11.17 158.16,-33.49 66.98,-23.26 100.48,-93.96 100.48,-213.98l27.91 0 0 1018.72 -27.91 0c-1.86,-114.43 -38.15,-236.31 -108.85,-367.48 -112.57,-171.18 -267.01,-305.15 -463.31,-403.76 -196.3,-97.69 -406.56,-146.99 -632.63,-146.99 -162.81,0 -321.9,44.65 -475.4,134.9 -153.51,90.24 -291.2,216.77 -414,380.51 -122.8,163.74 -220.49,358.18 -294.92,584.25 -73.5,226.07 -109.78,476.33 -109.78,750.78 0,360.04 56.75,679.15 170.25,958.24 113.5,279.1 266.07,496.8 456.8,654.03 190.72,157.22 403.76,236.3 640.07,236.3 192.58,0 370.27,-45.59 533.08,-136.76 162.81,-91.17 304.22,-208.39 425.16,-354.46 120.94,-145.13 215.84,-303.29 284.68,-473.54l84.66 0c-68.84,206.53 -168.39,389.81 -298.64,549.83 -130.25,160.02 -283.75,285.61 -460.52,377.72 -177.69,92.1 -366.55,137.69 -568.43,137.69z"/>
   <path id="_8" class="fil1 str0" d="M6944.91 5392.79l-1641.11 0 0 -24.19c80.01,0 168.39,-12.09 264.22,-35.35 96.76,-24.19 174.9,-61.41 234.44,-112.57 45.59,-38.15 68.84,-84.66 68.84,-141.41 0,-19.54 -2.79,-40 -8.37,-59.54l-501.45 -1333.17 -1341.54 0 -528.43 1406.67c-3.72,17.68 -5.58,34.42 -5.58,49.31 0,50.24 26.05,93.96 79.08,129.31 53.03,35.35 123.74,60.47 213.98,74.43 90.24,14.89 164.67,22.33 225.14,22.33l0 24.19 -1107.1 0 0 -24.19c91.17,0 184.2,-21.4 278.17,-64.19 94.89,-42.8 173.04,-115.36 234.44,-216.77 80.01,-213.05 182.35,-483.78 307.01,-814.04 123.73,-329.34 249.33,-662.4 375.85,-1000.11 126.52,-336.78 233.52,-622.39 320.04,-855.91 87.45,-233.51 134.9,-361.9 142.34,-385.16 12.09,-51.17 18.61,-98.62 18.61,-142.34 0,-57.68 -16.75,-116.29 -50.24,-175.83 -33.49,-58.61 -88.38,-106.06 -163.74,-141.41 -75.36,-35.35 -147.93,-53.03 -216.77,-53.03l-11.16 0 0 -26.98 965.69 0 1308.05 3483.17c114.43,261.43 293.98,392.6 539.59,392.6l0 24.19zm-1613.2 -1785.31l-641 -1706.23 -642.86 1706.23 1283.86 0z"/>
   <path id="_9" class="fil1 str0" d="M6988.95 5395.58l0 -26.98c96.76,-1.86 200.95,-30.7 312.59,-84.66 111.64,-54.89 173.04,-127.45 183.28,-217.7l0 -3104.53c0,-85.59 -26.98,-161.88 -82.8,-229.8 -54.89,-66.98 -123.74,-119.08 -205.61,-156.3 -81.87,-37.21 -164.67,-55.82 -248.4,-55.82l0 -26.98 1014.06 0 2175.13 3038.48 -2.79 -2709.14c-9.3,-92.1 -69.78,-166.53 -181.41,-220.49 -111.64,-54.89 -215.84,-81.87 -311.67,-81.87l0 -26.98 1065.24 0 0 26.98c-95.83,0 -199.09,26.98 -310.73,80.01 -110.71,53.96 -172.11,126.52 -185.14,216.77l0 3576.21 -73.5 0 -2577.96 -3559.46 0 3230.12c10.24,92.1 71.64,165.6 182.35,220.49 110.71,53.96 214.91,82.8 313.52,84.66l0 24.19 -1066.17 2.79z"/>
   <path id="_10" class="fil1 str0" d="M12542.44 5392.79c-339.57,0 -648.44,-87.45 -925.69,-263.28 -276.31,-174.91 -496.8,-410.28 -660.54,-705.2 -163.74,-295.85 -245.61,-622.39 -245.61,-980.57 0,-359.11 81.87,-686.59 245.61,-982.43 163.74,-294.92 385.16,-530.29 665.19,-706.13 280.03,-174.9 595.41,-262.35 948.01,-262.35 228.86,0 461.44,60.47 697.75,182.35 91.17,43.72 173.97,65.12 248.4,65.12 38.14,0 91.17,-11.17 158.16,-33.49 66.98,-23.26 100.48,-93.96 100.48,-213.98l27.91 0 0 1018.72 -27.91 0c-1.86,-114.43 -38.15,-236.31 -108.85,-367.48 -112.57,-171.18 -267.01,-305.15 -463.31,-403.76 -196.3,-97.69 -406.56,-146.99 -632.63,-146.99 -162.81,0 -321.9,44.65 -475.4,134.9 -153.51,90.24 -291.2,216.77 -414,380.51 -122.8,163.74 -220.49,358.18 -294.92,584.25 -73.5,226.07 -109.78,476.33 -109.78,750.78 0,360.04 56.75,679.15 170.25,958.24 113.5,279.1 266.07,496.8 456.8,654.03 190.72,157.22 403.76,236.3 640.07,236.3 192.58,0 370.27,-45.59 533.08,-136.76 162.81,-91.17 304.22,-208.39 425.16,-354.46 120.94,-145.13 215.84,-303.29 284.68,-473.54l84.66 0c-68.84,206.53 -168.39,389.81 -298.64,549.83 -130.25,160.02 -283.75,285.61 -460.52,377.72 -177.69,92.1 -366.55,137.69 -568.43,137.69z"/>
   <path id="_11" class="fil1 str0" d="M15546.81 5392.79l-1605.76 0 0 -24.19c127.46,0 247.47,-36.28 360.97,-107.92 114.43,-71.64 174.91,-172.11 184.21,-301.43l0 -3031.03c-9.3,-128.39 -69.78,-228.86 -184.21,-300.5 -113.5,-71.63 -233.51,-107.92 -360.97,-107.92l0 -24.19 1605.76 0 0 24.19c-123.74,0 -240.96,36.28 -352.6,107.92 -112.57,71.64 -173.97,170.25 -184.21,295.85l0 3041.27c10.24,125.59 71.64,224.21 184.21,295.85 111.64,71.63 228.86,107.92 352.6,107.92l0 24.19z"/>
   <path id="_12" class="fil1 str0" d="M17496.18 5390c-358.18,0 -683.8,-87.45 -978.71,-263.28 -293.98,-174.91 -528.43,-410.28 -704.26,-704.26 -174.9,-293.99 -263.28,-620.54 -263.28,-978.71 0,-359.11 88.38,-686.59 263.28,-980.57 175.83,-294.92 410.28,-529.36 704.26,-705.19 294.92,-174.91 620.54,-262.35 978.71,-262.35 360.04,0 686.59,87.45 981.5,262.35 293.99,175.83 529.36,410.28 704.26,705.19 175.83,293.99 263.29,621.46 263.29,980.57 0,358.18 -87.45,684.72 -263.29,978.71 -174.9,293.98 -410.28,529.36 -704.26,704.26 -294.92,175.83 -621.46,263.28 -981.5,263.28zm0 -76.29c194.44,0 376.79,-53.03 547.04,-158.16 169.32,-105.13 318.17,-246.54 446.56,-423.3 128.39,-177.69 228.86,-377.71 301.43,-601 72.57,-224.21 108.85,-453.07 108.85,-687.52 0,-236.31 -36.28,-466.1 -108.85,-689.38 -72.57,-223.28 -173.04,-424.24 -301.43,-601.93 -128.39,-178.62 -277.24,-320.04 -446.56,-425.16 -170.25,-106.06 -352.6,-158.16 -547.04,-158.16 -192.58,0 -373.99,52.1 -543.31,158.16 -170.25,105.13 -319.11,246.54 -447.49,425.16 -127.46,177.69 -228.86,378.65 -302.36,601.93 -73.5,223.28 -110.71,453.07 -110.71,689.38 0,234.44 37.21,463.31 110.71,687.52 73.5,223.28 174.9,423.3 302.36,601 128.39,176.76 277.24,318.18 447.49,423.3 169.32,105.13 350.74,158.16 543.31,158.16zm-237.24 -4055.33l-130.24 -111.64 356.32 -814.97 382.37 241.89 -608.44 684.73z"/>
   <path id="_13" class="fil1 str0" d="M22529.61 5390l-76.29 0 -1553.66 -2148.14c-268.87,280.03 -547.96,506.1 -836.37,679.14 -259.56,161.88 -517.27,246.54 -771.25,253.05l-2.79 0c-539.59,-12.09 -912.66,-284.68 -1117.33,-816.83 -64.19,-186.07 -95.83,-369.34 -95.83,-550.76 0,-118.15 25.12,-280.03 73.5,-485.64 49.31,-204.67 180.48,-399.11 392.6,-583.32 200.02,-164.67 441.91,-247.47 724.73,-247.47l1014.06 0 960.11 1343.41c252.12,-295.85 500.52,-601 743.34,-915.45 87.45,-112.57 173.97,-223.28 259.56,-330.27 -104.2,-45.59 -199.09,-68.85 -286.54,-70.7l0 -26.98 362.83 0c230.72,-291.2 459.59,-552.62 686.59,-786.13 227,-233.52 454.94,-413.07 683.8,-538.67 196.3,-108.85 407.48,-163.74 632.63,-163.74 196.3,0 360.04,59.54 490.29,177.69 67.91,70.7 116.29,151.65 147.93,241.89 21.4,67.92 32.56,134.9 32.56,201.89 0,28.84 -4.65,76.29 -13.95,140.48 -9.3,64.19 -47.45,128.39 -114.43,192.58 -53.03,40.93 -103.27,62.33 -152.57,62.33 -23.26,0 -59.54,-9.3 -107.92,-28.84 -48.38,-18.61 -76.29,-64.19 -85.59,-134.9 0,-66.98 20.46,-118.15 62.33,-152.58 41.87,-34.42 87.45,-62.33 136.76,-84.66 49.31,-21.4 88.38,-44.66 118.15,-68.85 29.77,-25.12 45.59,-56.75 45.59,-94.89l0 -13.02c-29.77,-81.87 -71.64,-150.72 -125.6,-207.46 -131.18,-118.15 -297.7,-176.76 -501.45,-176.76 -1.86,0 -54.89,0 -160.02,0.93 -104.2,0.93 -235.38,44.66 -393.54,129.31 -225.14,125.6 -449.35,302.36 -671.7,530.29 -222.35,227.93 -448.42,485.64 -677.28,773.11l670.77 2.79 0 24.19c-96.76,1.86 -200.02,29.77 -310.73,82.8 -111.64,53.96 -172.11,125.59 -183.28,213.98l0 3576.21zm-3191.05 -1294.09c234.44,0 470.75,-66.06 710.78,-196.3 289.33,-173.04 567.51,-399.11 834.51,-679.14l-1000.11 -1381.55c-60.47,-81.87 -149.78,-156.3 -268.87,-222.35 -119.08,-66.05 -234.44,-99.54 -347.94,-99.54 -275.38,0 -510.76,80.01 -705.2,240.03 -201.88,173.97 -330.27,406.56 -384.23,697.75 -20.46,103.27 -30.7,206.54 -30.7,310.73 0,187 32.56,374.93 98.62,563.78 192.58,499.59 540.52,755.43 1043.83,766.6l49.31 0zm3114.76 432.61l0 -2706.35c-10.23,-93.96 -72.57,-168.39 -185.14,-223.28l-264.21 334.92c-243.75,316.31 -492.15,623.33 -747.06,921.96l1196.41 1672.74zm-2079.3 861.49l-1068.96 0 0 -24.19c98.62,-1.86 202.81,-29.77 313.52,-84.66 111.64,-54.89 172.11,-127.45 183.28,-217.7l0 -537.73 76.29 0 0 534.94c8.37,92.1 68.85,165.6 180.48,220.49 112.57,54.89 216.77,82.8 315.39,84.66l0 24.19z"/>
   <path class="fil0" d="M1871.73 9639.17l-1468.37 0 0 -22.12c116.55,0 226.3,-33.18 330.08,-98.69 104.64,-65.5 159.09,-157.39 165.89,-275.64l0 -2809.13c-17.86,-104.64 -76.56,-186.31 -176.95,-246.71 -99.54,-59.55 -204.18,-89.33 -313.92,-89.33l0 -24.67 1727 0c224.59,0 429.62,31.48 615.93,94.43 186.31,62.95 334.34,159.09 444.94,287.55 110.59,129.31 165.89,292.65 165.89,490.03 0,197.37 -55.3,360.71 -165.89,490.02 -110.6,128.46 -258.63,224.59 -444.94,287.55 -186.31,62.96 -391.34,94.43 -615.93,94.43l-754.6 0 0 1430.94c8.51,114.85 62.95,205.03 165.89,270.53 102.09,65.51 210.13,98.69 324.98,98.69l0 22.12zm263.73 -1893.74c149.73,0 280.74,-39.98 393.04,-119.96 112.3,-79.97 199.07,-181.2 261.18,-302.86 62.96,-122.5 93.58,-248.41 93.58,-377.72 0,-127.61 -30.63,-253.52 -91.88,-376.03 -61.25,-123.36 -148.03,-224.59 -260.32,-304.56 -112.3,-79.97 -244.16,-119.1 -395.59,-119.1l-456 0c-82.52,0 -153.13,28.93 -211.83,86.78 -57.85,58.7 -86.78,129.31 -86.78,211.83l0 1301.63 754.6 0z"/>
   <path id="_1_92" class="fil0" d="M8322.78 9639.17l-1468.37 0 0 -22.12c116.55,0 226.3,-33.18 330.08,-98.69 104.64,-65.5 159.09,-157.39 165.89,-275.64l0 -2809.13c-17.86,-104.64 -76.56,-186.31 -176.95,-246.71 -99.54,-59.55 -204.18,-89.33 -313.92,-89.33l0 -24.67 1727 0c224.59,0 429.62,31.48 615.93,94.43 186.31,62.95 334.34,159.09 444.94,287.55 110.59,129.31 165.89,292.65 165.89,490.03 0,197.37 -55.3,360.71 -165.89,490.02 -110.6,128.46 -258.63,224.59 -444.94,287.55 -186.31,62.96 -391.34,94.43 -615.93,94.43l-754.6 0 0 1430.94c8.51,114.85 62.95,205.03 165.89,270.53 102.09,65.51 210.13,98.69 324.98,98.69l0 22.12zm263.73 -1893.74c149.73,0 280.74,-39.98 393.04,-119.96 112.3,-79.97 199.07,-181.2 261.18,-302.86 62.96,-122.5 93.58,-248.41 93.58,-377.72 0,-127.61 -30.63,-253.52 -91.88,-376.03 -61.25,-123.36 -148.03,-224.59 -260.32,-304.56 -112.3,-79.97 -244.16,-119.1 -395.59,-119.1l-456 0c-82.52,0 -153.13,28.93 -211.83,86.78 -57.85,58.7 -86.78,129.31 -86.78,211.83l0 1301.63 754.6 0z"/>
   <path id="_2_93" class="fil0" d="M16079.72 9641.72l-2804.03 0 0 -24.67c109.74,0 215.24,-30.63 315.62,-90.18 100.39,-59.55 160.79,-142.92 180.36,-249.26l0 -2806.58c-9.36,-115.7 -66.36,-206.73 -169.3,-271.39 -102.94,-64.65 -212.69,-96.98 -329.23,-96.98l0 -25.52 1468.37 0 0 25.52c-111.44,0 -217.79,31.48 -319.03,94.43 -101.24,62.95 -159.09,150.58 -171.85,262.03l0 2798.93c0,85.92 29.78,159.94 91.03,220.34 60.4,60.4 133.57,91.03 220.34,91.03l874.56 0c137.82,-22.97 256.93,-85.93 356.46,-188.02 99.54,-102.09 176.1,-212.68 229.7,-330.09 52.75,-118.25 79.97,-211.83 81.67,-281.59l22.97 0 -47.64 872z"/>
   <path id="_3_94" class="fil0" d="M19762.95 9639.17l-1500.7 0 0 -22.12c73.17,0 153.98,-11.06 241.61,-32.33 88.48,-22.12 159.94,-56.15 214.39,-102.94 41.69,-34.88 62.95,-77.42 62.95,-129.31 0,-17.86 -2.55,-36.58 -7.66,-54.44l-458.55 -1219.11 -1226.76 0 -483.22 1286.31c-3.4,16.16 -5.1,31.48 -5.1,45.09 0,45.94 23.82,85.93 72.31,118.25 48.49,32.33 113.15,55.3 195.67,68.06 82.52,13.61 150.58,20.42 205.88,20.42l0 22.12 -1012.37 0 0 -22.12c83.37,0 168.44,-19.57 254.37,-58.7 86.77,-39.13 158.24,-105.49 214.39,-198.22 73.16,-194.82 166.74,-442.38 280.74,-744.39 113.15,-301.16 228,-605.72 343.7,-914.54 115.7,-307.96 213.53,-569.14 292.65,-782.68 79.97,-213.54 123.35,-330.94 130.16,-352.2 11.06,-46.79 17.02,-90.18 17.02,-130.16 0,-52.75 -15.31,-106.34 -45.94,-160.79 -30.63,-53.59 -80.82,-96.98 -149.73,-129.31 -68.91,-32.33 -135.27,-48.49 -198.22,-48.49l-10.21 0 0 -24.67 883.07 0 1196.13 3185.16c104.64,239.06 268.83,359.01 493.43,359.01l0 22.12zm-1475.18 -1632.57l-586.16 -1560.25 -587.86 1560.25 1174.02 0z"/>
   <path id="_4_95" class="fil0" d="M22999.54 9644.27l-1493.04 0 0 -22.12c78.27,0 158.24,-11.91 240.76,-34.03 82.52,-22.12 147.18,-60.41 195.67,-113.15 33.18,-39.98 50.19,-90.18 50.19,-149.73 0,-24.67 -2.55,-51.05 -7.66,-77.42l2.55 0c-33.18,-210.98 -84.22,-422.82 -153.13,-636.35 -69.76,-213.53 -174.4,-394.74 -315.63,-543.62 -141.22,-148.88 -337.74,-231.4 -588.71,-248.42l-256.07 0 0 1433.49c8.51,114.85 62.95,205.03 165.89,270.54 102.09,65.51 210.13,98.69 324.98,98.69l0 22.12 -1468.37 0 0 -22.12c116.55,0 226.3,-34.03 330.08,-100.39 104.64,-66.36 159.09,-157.39 165.89,-273.94l0 -2809.13c-17.86,-104.64 -76.56,-187.16 -176.95,-247.57 -99.54,-60.4 -204.18,-91.03 -313.92,-91.03l0 -22.97 1654.69 0c224.59,0 429.62,31.48 615.93,93.58 186.31,62.96 334.34,158.24 444.93,286.7 110.6,129.31 165.89,292.65 165.89,490.02 0,139.52 -28.07,261.18 -85.07,364.11 -115.7,216.09 -304.57,361.56 -565.74,435.58 -150.58,45.09 -285.85,68.06 -403.25,68.06 220.34,64.65 396.44,175.25 528.31,332.64 131.02,156.54 230.55,334.34 298.61,531.71 68.06,198.22 119.95,391.34 154.83,581.06 33.18,97.83 94.43,182.91 184.61,254.37 89.33,71.46 190.56,107.19 303.71,107.19l0 22.12zm-1642.77 -1897.14c149.73,0 280.74,-39.13 393.04,-118.25 112.3,-79.12 199.07,-179.51 262.03,-302.86 62.1,-122.51 92.73,-249.27 92.73,-378.58 0,-125.91 -30.63,-250.97 -91.88,-373.47 -61.25,-123.36 -148.03,-224.59 -260.33,-304.57 -112.3,-79.97 -244.16,-119.1 -395.59,-119.1l-383.69 0c-82.52,0 -153.13,28.93 -211.83,86.78 -57.85,57.85 -86.78,128.46 -86.78,211.83l0 1298.22 682.29 0z"/>
   <path id="_5_96" class="fil0" d="M5280.17 9639.17c-327.54,0 -626.14,-79.97 -895.83,-240.76 -269.69,-159.94 -484.92,-375.17 -644.01,-644.01 -159.94,-268.83 -239.91,-568.29 -239.91,-897.53 0,-326.68 79.97,-625.29 239.91,-894.13 159.09,-269.68 374.32,-484.07 644.01,-644.86 269.69,-159.94 568.29,-240.76 895.83,-240.76 329.24,0 627.84,80.82 897.53,240.76 268.83,160.79 484.07,375.18 644.01,644.86 160.79,268.83 240.76,567.44 240.76,894.13 0,329.24 -79.97,628.7 -240.76,897.53 -159.94,268.83 -375.18,484.07 -644.01,644.01 -269.69,160.79 -568.29,240.76 -897.53,240.76zm0 -72.31c177.8,0 344.55,-48.49 500.23,-144.62 154.83,-96.13 290.95,-225.45 408.35,-387.09 117.4,-162.49 209.28,-345.4 275.64,-548.72 66.36,-203.33 99.54,-413.46 99.54,-629.55 0,-214.39 -33.18,-423.67 -99.54,-627.84 -66.36,-204.18 -158.24,-387.94 -275.64,-550.43 -117.4,-163.34 -253.52,-292.65 -408.35,-388.78 -155.69,-96.98 -322.43,-144.63 -500.23,-144.63 -176.1,0 -342,47.64 -496.83,144.63 -155.69,96.13 -291.8,225.44 -409.2,388.78 -116.55,162.49 -209.28,346.25 -276.49,550.43 -67.21,204.18 -101.24,413.46 -101.24,627.84 0,216.09 34.03,426.22 101.24,629.55 67.21,203.32 159.94,386.23 276.49,548.72 117.4,161.64 253.52,290.95 409.2,387.09 154.83,96.13 320.73,144.62 496.83,144.62z"/>
   <path id="_6_97" class="fil0" d="M11556.82 9639.17c-260.32,0 -498.53,-39.98 -712.07,-120.81 -214.39,-80.82 -385.38,-200.77 -512.99,-361.56 -126.76,-159.94 -190.57,-357.31 -190.57,-592.11l0 -2145.56c-22.97,-101.24 -84.22,-180.36 -183.76,-236.5 -100.39,-57 -204.18,-85.07 -312.22,-85.07l0 -24.67 1468.37 0 0 24.67c-106.34,0 -209.28,28.07 -308.82,85.07 -100.39,56.15 -161.64,135.26 -184.61,236.5l0 2145.56c0,170.15 39.99,330.94 119.11,484.07 79.97,152.28 190.56,277.34 330.94,375.18 140.37,96.98 302.86,145.48 486.62,145.48 209.28,0 400.7,-45.09 573.4,-136.12 172.7,-90.18 310.52,-211.83 412.61,-363.27 102.09,-152.28 153.13,-320.72 153.13,-505.33l0 -2207.67c-17.87,-79.97 -79.12,-142.92 -182.06,-189.71 -102.94,-46.79 -199.07,-69.76 -288.4,-69.76l0 -24.67 1011.53 0 0 24.67c-87.63,0 -183.76,22.97 -286.7,69.76 -102.94,46.79 -163.34,109.74 -182.06,189.71l0 2207.67c0,198.22 -54.45,378.57 -163.34,541.07 -108.89,163.34 -254.37,292.65 -438.13,388.79 -183.76,96.13 -387.09,144.63 -609.98,144.63z"/>
   <path id="_7_98" class="fil1 str0" d="M1871.73 9639.17l-1468.37 0 0 -22.12c116.55,0 226.3,-33.18 330.08,-98.69 104.64,-65.5 159.09,-157.39 165.89,-275.64l0 -2809.13c-17.86,-104.64 -76.56,-186.31 -176.95,-246.71 -99.54,-59.55 -204.18,-89.33 -313.92,-89.33l0 -24.67 1727 0c224.59,0 429.62,31.48 615.93,94.43 186.31,62.95 334.34,159.09 444.94,287.55 110.59,129.31 165.89,292.65 165.89,490.03 0,197.37 -55.3,360.71 -165.89,490.02 -110.6,128.46 -258.63,224.59 -444.94,287.55 -186.31,62.96 -391.34,94.43 -615.93,94.43l-754.6 0 0 1430.94c8.51,114.85 62.95,205.03 165.89,270.53 102.09,65.51 210.13,98.69 324.98,98.69l0 22.12zm263.73 -1893.74c149.73,0 280.74,-39.98 393.04,-119.96 112.3,-79.97 199.07,-181.2 261.18,-302.86 62.96,-122.5 93.58,-248.41 93.58,-377.72 0,-127.61 -30.63,-253.52 -91.88,-376.03 -61.25,-123.36 -148.03,-224.59 -260.32,-304.56 -112.3,-79.97 -244.16,-119.1 -395.59,-119.1l-456 0c-82.52,0 -153.13,28.93 -211.83,86.78 -57.85,58.7 -86.78,129.31 -86.78,211.83l0 1301.63 754.6 0z"/>
   <path id="_8_99" class="fil1 str0" d="M8322.78 9639.17l-1468.37 0 0 -22.12c116.55,0 226.3,-33.18 330.08,-98.69 104.64,-65.5 159.09,-157.39 165.89,-275.64l0 -2809.13c-17.86,-104.64 -76.56,-186.31 -176.95,-246.71 -99.54,-59.55 -204.18,-89.33 -313.92,-89.33l0 -24.67 1727 0c224.59,0 429.62,31.48 615.93,94.43 186.31,62.95 334.34,159.09 444.94,287.55 110.59,129.31 165.89,292.65 165.89,490.03 0,197.37 -55.3,360.71 -165.89,490.02 -110.6,128.46 -258.63,224.59 -444.94,287.55 -186.31,62.96 -391.34,94.43 -615.93,94.43l-754.6 0 0 1430.94c8.51,114.85 62.95,205.03 165.89,270.53 102.09,65.51 210.13,98.69 324.98,98.69l0 22.12zm263.73 -1893.74c149.73,0 280.74,-39.98 393.04,-119.96 112.3,-79.97 199.07,-181.2 261.18,-302.86 62.96,-122.5 93.58,-248.41 93.58,-377.72 0,-127.61 -30.63,-253.52 -91.88,-376.03 -61.25,-123.36 -148.03,-224.59 -260.32,-304.56 -112.3,-79.97 -244.16,-119.1 -395.59,-119.1l-456 0c-82.52,0 -153.13,28.93 -211.83,86.78 -57.85,58.7 -86.78,129.31 -86.78,211.83l0 1301.63 754.6 0z"/>
   <path id="_9_100" class="fil1 str0" d="M16079.72 9641.72l-2804.03 0 0 -24.67c109.74,0 215.24,-30.63 315.62,-90.18 100.39,-59.55 160.79,-142.92 180.36,-249.26l0 -2806.58c-9.36,-115.7 -66.36,-206.73 -169.3,-271.39 -102.94,-64.65 -212.69,-96.98 -329.23,-96.98l0 -25.52 1468.37 0 0 25.52c-111.44,0 -217.79,31.48 -319.03,94.43 -101.24,62.95 -159.09,150.58 -171.85,262.03l0 2798.93c0,85.92 29.78,159.94 91.03,220.34 60.4,60.4 133.57,91.03 220.34,91.03l874.56 0c137.82,-22.97 256.93,-85.93 356.46,-188.02 99.54,-102.09 176.1,-212.68 229.7,-330.09 52.75,-118.25 79.97,-211.83 81.67,-281.59l22.97 0 -47.64 872z"/>
   <path id="_10_101" class="fil1 str0" d="M19762.95 9639.17l-1500.7 0 0 -22.12c73.17,0 153.98,-11.06 241.61,-32.33 88.48,-22.12 159.94,-56.15 214.39,-102.94 41.69,-34.88 62.95,-77.42 62.95,-129.31 0,-17.86 -2.55,-36.58 -7.66,-54.44l-458.55 -1219.11 -1226.76 0 -483.22 1286.31c-3.4,16.16 -5.1,31.48 -5.1,45.09 0,45.94 23.82,85.93 72.31,118.25 48.49,32.33 113.15,55.3 195.67,68.06 82.52,13.61 150.58,20.42 205.88,20.42l0 22.12 -1012.37 0 0 -22.12c83.37,0 168.44,-19.57 254.37,-58.7 86.77,-39.13 158.24,-105.49 214.39,-198.22 73.16,-194.82 166.74,-442.38 280.74,-744.39 113.15,-301.16 228,-605.72 343.7,-914.54 115.7,-307.96 213.53,-569.14 292.65,-782.68 79.97,-213.54 123.35,-330.94 130.16,-352.2 11.06,-46.79 17.02,-90.18 17.02,-130.16 0,-52.75 -15.31,-106.34 -45.94,-160.79 -30.63,-53.59 -80.82,-96.98 -149.73,-129.31 -68.91,-32.33 -135.27,-48.49 -198.22,-48.49l-10.21 0 0 -24.67 883.07 0 1196.13 3185.16c104.64,239.06 268.83,359.01 493.43,359.01l0 22.12zm-1475.18 -1632.57l-586.16 -1560.25 -587.86 1560.25 1174.02 0z"/>
   <path id="_11_102" class="fil1 str0" d="M22999.54 9644.27l-1493.04 0 0 -22.12c78.27,0 158.24,-11.91 240.76,-34.03 82.52,-22.12 147.18,-60.41 195.67,-113.15 33.18,-39.98 50.19,-90.18 50.19,-149.73 0,-24.67 -2.55,-51.05 -7.66,-77.42l2.55 0c-33.18,-210.98 -84.22,-422.82 -153.13,-636.35 -69.76,-213.53 -174.4,-394.74 -315.63,-543.62 -141.22,-148.88 -337.74,-231.4 -588.71,-248.42l-256.07 0 0 1433.49c8.51,114.85 62.95,205.03 165.89,270.54 102.09,65.51 210.13,98.69 324.98,98.69l0 22.12 -1468.37 0 0 -22.12c116.55,0 226.3,-34.03 330.08,-100.39 104.64,-66.36 159.09,-157.39 165.89,-273.94l0 -2809.13c-17.86,-104.64 -76.56,-187.16 -176.95,-247.57 -99.54,-60.4 -204.18,-91.03 -313.92,-91.03l0 -22.97 1654.69 0c224.59,0 429.62,31.48 615.93,93.58 186.31,62.96 334.34,158.24 444.93,286.7 110.6,129.31 165.89,292.65 165.89,490.02 0,139.52 -28.07,261.18 -85.07,364.11 -115.7,216.09 -304.57,361.56 -565.74,435.58 -150.58,45.09 -285.85,68.06 -403.25,68.06 220.34,64.65 396.44,175.25 528.31,332.64 131.02,156.54 230.55,334.34 298.61,531.71 68.06,198.22 119.95,391.34 154.83,581.06 33.18,97.83 94.43,182.91 184.61,254.37 89.33,71.46 190.56,107.19 303.71,107.19l0 22.12zm-1642.77 -1897.14c149.73,0 280.74,-39.13 393.04,-118.25 112.3,-79.12 199.07,-179.51 262.03,-302.86 62.1,-122.51 92.73,-249.27 92.73,-378.58 0,-125.91 -30.63,-250.97 -91.88,-373.47 -61.25,-123.36 -148.03,-224.59 -260.33,-304.57 -112.3,-79.97 -244.16,-119.1 -395.59,-119.1l-383.69 0c-82.52,0 -153.13,28.93 -211.83,86.78 -57.85,57.85 -86.78,128.46 -86.78,211.83l0 1298.22 682.29 0z"/>
   <path id="_12_103" class="fil1 str0" d="M5280.17 9639.17c-327.54,0 -626.14,-79.97 -895.83,-240.76 -269.69,-159.94 -484.92,-375.17 -644.01,-644.01 -159.94,-268.83 -239.91,-568.29 -239.91,-897.53 0,-326.68 79.97,-625.29 239.91,-894.13 159.09,-269.68 374.32,-484.07 644.01,-644.86 269.69,-159.94 568.29,-240.76 895.83,-240.76 329.24,0 627.84,80.82 897.53,240.76 268.83,160.79 484.07,375.18 644.01,644.86 160.79,268.83 240.76,567.44 240.76,894.13 0,329.24 -79.97,628.7 -240.76,897.53 -159.94,268.83 -375.18,484.07 -644.01,644.01 -269.69,160.79 -568.29,240.76 -897.53,240.76zm0 -72.31c177.8,0 344.55,-48.49 500.23,-144.62 154.83,-96.13 290.95,-225.45 408.35,-387.09 117.4,-162.49 209.28,-345.4 275.64,-548.72 66.36,-203.33 99.54,-413.46 99.54,-629.55 0,-214.39 -33.18,-423.67 -99.54,-627.84 -66.36,-204.18 -158.24,-387.94 -275.64,-550.43 -117.4,-163.34 -253.52,-292.65 -408.35,-388.78 -155.69,-96.98 -322.43,-144.63 -500.23,-144.63 -176.1,0 -342,47.64 -496.83,144.63 -155.69,96.13 -291.8,225.44 -409.2,388.78 -116.55,162.49 -209.28,346.25 -276.49,550.43 -67.21,204.18 -101.24,413.46 -101.24,627.84 0,216.09 34.03,426.22 101.24,629.55 67.21,203.32 159.94,386.23 276.49,548.72 117.4,161.64 253.52,290.95 409.2,387.09 154.83,96.13 320.73,144.62 496.83,144.62z"/>
   <path id="_13_104" class="fil1 str0" d="M11556.82 9639.17c-260.32,0 -498.53,-39.98 -712.07,-120.81 -214.39,-80.82 -385.38,-200.77 -512.99,-361.56 -126.76,-159.94 -190.57,-357.31 -190.57,-592.11l0 -2145.56c-22.97,-101.24 -84.22,-180.36 -183.76,-236.5 -100.39,-57 -204.18,-85.07 -312.22,-85.07l0 -24.67 1468.37 0 0 24.67c-106.34,0 -209.28,28.07 -308.82,85.07 -100.39,56.15 -161.64,135.26 -184.61,236.5l0 2145.56c0,170.15 39.99,330.94 119.11,484.07 79.97,152.28 190.56,277.34 330.94,375.18 140.37,96.98 302.86,145.48 486.62,145.48 209.28,0 400.7,-45.09 573.4,-136.12 172.7,-90.18 310.52,-211.83 412.61,-363.27 102.09,-152.28 153.13,-320.72 153.13,-505.33l0 -2207.67c-17.87,-79.97 -79.12,-142.92 -182.06,-189.71 -102.94,-46.79 -199.07,-69.76 -288.4,-69.76l0 -24.67 1011.53 0 0 24.67c-87.63,0 -183.76,22.97 -286.7,69.76 -102.94,46.79 -163.34,109.74 -182.06,189.71l0 2207.67c0,198.22 -54.45,378.57 -163.34,541.07 -108.89,163.34 -254.37,292.65 -438.13,388.79 -183.76,96.13 -387.09,144.63 -609.98,144.63z"/>
  </g>
 </g>
</svg>
