<?xml version="1.0" encoding="UTF-8"?>
<!DOCTYPE svg PUBLIC "-//W3C//DTD SVG 1.1//EN" "http://www.w3.org/Graphics/SVG/1.1/DTD/svg11.dtd">
<!-- Creator: CorelDRAW -->
<svg xmlns="http://www.w3.org/2000/svg" xml:space="preserve" width="28.3412in" height="8.3905in" version="1.1" style="shape-rendering:geometricPrecision; text-rendering:geometricPrecision; image-rendering:optimizeQuality; fill-rule:evenodd; clip-rule:evenodd"
viewBox="0 0 28341.17 8390.5"
 xmlns:xlink="http://www.w3.org/1999/xlink"
 xmlns:xodm="http://www.corel.com/coreldraw/odm/2003">
 <defs>
  <style type="text/css">
   <![CDATA[
    .str0 {stroke:white;stroke-width:3;stroke-miterlimit:2.61313}
    .fil1 {fill:none;fill-rule:nonzero}
    .fil0 {fill:white;fill-rule:nonzero}
   ]]>
  </style>
 </defs>
 <g id="Layer_x0020_1">
  <metadata id="CorelCorpID_0Corel-Layer"/>
  <g id="_2024955608976">
   <path class="fil0" d="M13390.28 5413.71l-2226.18 0 0 -32.81c108.54,0 228.43,-16.41 358.41,-47.96 131.25,-32.81 237.26,-83.29 318.03,-152.7 61.84,-51.74 93.39,-114.84 93.39,-191.83 0,-26.5 -3.79,-54.27 -11.36,-80.77l-680.22 -1808.46 -1819.81 0 -716.82 1908.15c-5.05,23.98 -7.57,46.7 -7.57,66.89 0,68.15 35.33,127.46 107.27,175.42 71.93,47.96 167.85,82.03 290.26,100.96 122.42,20.19 223.37,30.29 305.41,30.29l0 32.81 -1501.79 0 0 -32.81c123.68,0 249.88,-29.03 377.34,-87.08 128.72,-58.05 234.74,-156.49 318.03,-294.05 108.53,-289 247.35,-656.24 416.46,-1104.26 167.85,-446.75 338.22,-898.55 509.85,-1356.66 171.63,-456.85 316.76,-844.28 434.13,-1161.05 118.63,-316.76 182.99,-490.92 193.09,-522.47 16.41,-69.41 25.24,-133.77 25.24,-193.09 0,-78.24 -22.72,-157.75 -68.15,-238.52 -45.43,-79.5 -119.89,-143.87 -222.11,-191.82 -102.22,-47.96 -200.66,-71.94 -294.05,-71.94l-15.14 0 0 -36.6 1309.96 0 1774.38 4724.96c155.23,354.63 398.8,532.57 731.96,532.57l0 32.81zm-2188.32 -2421.79l-869.52 -2314.52 -872.05 2314.52 1741.57 0z"/>
   <path id="_1" class="fil0" d="M13519.01 5417.5l0 -36.6c131.25,-2.52 272.59,-41.65 424.04,-114.84 151.44,-74.46 234.73,-172.89 248.61,-295.31l0 -4211.31c0,-116.11 -36.6,-219.59 -112.32,-311.72 -74.46,-90.87 -167.85,-161.54 -278.9,-212.02 -111.06,-50.48 -223.38,-75.72 -336.96,-75.72l0 -36.6 1375.59 0 2950.57 4121.72 -3.79 -3674.96c-12.62,-124.94 -94.65,-225.9 -246.09,-299.09 -151.44,-74.46 -292.79,-111.06 -422.77,-111.06l0 -36.6 1445 0 0 36.6c-129.98,0 -270.07,36.6 -421.51,108.54 -150.18,73.2 -233.47,171.63 -251.14,294.05l0 4851.15 -99.7 0 -3497.02 -4828.44 0 4381.69c13.88,124.94 97.18,224.64 247.35,299.09 150.18,73.2 291.52,112.32 425.3,114.84l0 32.81 -1446.26 3.79z"/>
   <path id="_2" class="fil0" d="M22541.1 5413.71l-3904.65 0 0 -107.27 3295.1 -5075.8 -2358.69 0c-180.47,34.07 -335.69,127.46 -466.94,278.91 -129.98,151.44 -229.69,314.24 -299.09,489.66 -69.41,175.42 -104.74,314.24 -107.27,417.72l-29.02 0 61.84 -1293.56 4008.13 0 0 111.06 -3257.24 5075.79 2218.61 0c180.47,-34.07 334.43,-128.72 464.42,-281.43 128.72,-152.7 228.42,-316.76 299.09,-490.92 70.67,-175.42 106.01,-314.24 106.01,-417.72l32.81 0 -63.1 1293.56z"/>
   <path id="_3" class="fil0" d="M28003.06 5413.71l-2226.18 0 0 -32.81c108.54,0 228.43,-16.41 358.41,-47.96 131.25,-32.81 237.26,-83.29 318.03,-152.7 61.84,-51.74 93.39,-114.84 93.39,-191.83 0,-26.5 -3.79,-54.27 -11.36,-80.77l-680.22 -1808.46 -1819.81 0 -716.82 1908.15c-5.05,23.98 -7.57,46.7 -7.57,66.89 0,68.15 35.33,127.46 107.27,175.42 71.93,47.96 167.85,82.03 290.26,100.96 122.42,20.19 223.37,30.29 305.41,30.29l0 32.81 -1501.79 0 0 -32.81c123.68,0 249.88,-29.03 377.34,-87.08 128.72,-58.05 234.74,-156.49 318.03,-294.05 108.53,-289 247.35,-656.24 416.46,-1104.26 167.85,-446.75 338.22,-898.55 509.85,-1356.66 171.63,-456.85 316.76,-844.28 434.13,-1161.05 118.63,-316.76 182.99,-490.92 193.09,-522.47 16.41,-69.41 25.24,-133.77 25.24,-193.09 0,-78.24 -22.72,-157.75 -68.15,-238.52 -45.43,-79.5 -119.89,-143.87 -222.11,-191.82 -102.22,-47.96 -200.66,-71.94 -294.05,-71.94l-15.14 0 0 -36.6 1309.96 0 1774.38 4724.96c155.23,354.63 398.8,532.57 731.96,532.57l0 32.81zm-2188.32 -2421.79l-869.52 -2314.52 -872.05 2314.52 1741.57 0z"/>
   <path id="_4" class="fil1 str0" d="M13390.28 5413.71l-2226.18 0 0 -32.81c108.54,0 228.43,-16.41 358.41,-47.96 131.25,-32.81 237.26,-83.29 318.03,-152.7 61.84,-51.74 93.39,-114.84 93.39,-191.83 0,-26.5 -3.79,-54.27 -11.36,-80.77l-680.22 -1808.46 -1819.81 0 -716.82 1908.15c-5.05,23.98 -7.57,46.7 -7.57,66.89 0,68.15 35.33,127.46 107.27,175.42 71.93,47.96 167.85,82.03 290.26,100.96 122.42,20.19 223.37,30.29 305.41,30.29l0 32.81 -1501.79 0 0 -32.81c123.68,0 249.88,-29.03 377.34,-87.08 128.72,-58.05 234.74,-156.49 318.03,-294.05 108.53,-289 247.35,-656.24 416.46,-1104.26 167.85,-446.75 338.22,-898.55 509.85,-1356.66 171.63,-456.85 316.76,-844.28 434.13,-1161.05 118.63,-316.76 182.99,-490.92 193.09,-522.47 16.41,-69.41 25.24,-133.77 25.24,-193.09 0,-78.24 -22.72,-157.75 -68.15,-238.52 -45.43,-79.5 -119.89,-143.87 -222.11,-191.82 -102.22,-47.96 -200.66,-71.94 -294.05,-71.94l-15.14 0 0 -36.6 1309.96 0 1774.38 4724.96c155.23,354.63 398.8,532.57 731.96,532.57l0 32.81zm-2188.32 -2421.79l-869.52 -2314.52 -872.05 2314.52 1741.57 0z"/>
   <path id="_5" class="fil1 str0" d="M13519.01 5417.5l0 -36.6c131.25,-2.52 272.59,-41.65 424.04,-114.84 151.44,-74.46 234.73,-172.89 248.61,-295.31l0 -4211.31c0,-116.11 -36.6,-219.59 -112.32,-311.72 -74.46,-90.87 -167.85,-161.54 -278.9,-212.02 -111.06,-50.48 -223.38,-75.72 -336.96,-75.72l0 -36.6 1375.59 0 2950.57 4121.72 -3.79 -3674.96c-12.62,-124.94 -94.65,-225.9 -246.09,-299.09 -151.44,-74.46 -292.79,-111.06 -422.77,-111.06l0 -36.6 1445 0 0 36.6c-129.98,0 -270.07,36.6 -421.51,108.54 -150.18,73.2 -233.47,171.63 -251.14,294.05l0 4851.15 -99.7 0 -3497.02 -4828.44 0 4381.69c13.88,124.94 97.18,224.64 247.35,299.09 150.18,73.2 291.52,112.32 425.3,114.84l0 32.81 -1446.26 3.79z"/>
   <path id="_6" class="fil1 str0" d="M22541.1 5413.71l-3904.65 0 0 -107.27 3295.1 -5075.8 -2358.69 0c-180.47,34.07 -335.69,127.46 -466.94,278.91 -129.98,151.44 -229.69,314.24 -299.09,489.66 -69.41,175.42 -104.74,314.24 -107.27,417.72l-29.02 0 61.84 -1293.56 4008.13 0 0 111.06 -3257.24 5075.79 2218.61 0c180.47,-34.07 334.43,-128.72 464.42,-281.43 128.72,-152.7 228.42,-316.76 299.09,-490.92 70.67,-175.42 106.01,-314.24 106.01,-417.72l32.81 0 -63.1 1293.56z"/>
   <path id="_7" class="fil1 str0" d="M28003.06 5413.71l-2226.18 0 0 -32.81c108.54,0 228.43,-16.41 358.41,-47.96 131.25,-32.81 237.26,-83.29 318.03,-152.7 61.84,-51.74 93.39,-114.84 93.39,-191.83 0,-26.5 -3.79,-54.27 -11.36,-80.77l-680.22 -1808.46 -1819.81 0 -716.82 1908.15c-5.05,23.98 -7.57,46.7 -7.57,66.89 0,68.15 35.33,127.46 107.27,175.42 71.93,47.96 167.85,82.03 290.26,100.96 122.42,20.19 223.37,30.29 305.41,30.29l0 32.81 -1501.79 0 0 -32.81c123.68,0 249.88,-29.03 377.34,-87.08 128.72,-58.05 234.74,-156.49 318.03,-294.05 108.53,-289 247.35,-656.24 416.46,-1104.26 167.85,-446.75 338.22,-898.55 509.85,-1356.66 171.63,-456.85 316.76,-844.28 434.13,-1161.05 118.63,-316.76 182.99,-490.92 193.09,-522.47 16.41,-69.41 25.24,-133.77 25.24,-193.09 0,-78.24 -22.72,-157.75 -68.15,-238.52 -45.43,-79.5 -119.89,-143.87 -222.11,-191.82 -102.22,-47.96 -200.66,-71.94 -294.05,-71.94l-15.14 0 0 -36.6 1309.96 0 1774.38 4724.96c155.23,354.63 398.8,532.57 731.96,532.57l0 32.81zm-2188.32 -2421.79l-869.52 -2314.52 -872.05 2314.52 1741.57 0z"/>
   <path class="fil0" d="M8535.18 7944.68l-579.68 0 0 -8.73c46.01,0 89.33,-13.1 130.31,-38.96 41.31,-25.86 62.8,-62.13 65.49,-108.82l0 -1108.98c-7.05,-41.31 -30.22,-73.55 -69.85,-97.4 -39.3,-23.51 -80.61,-35.26 -123.93,-35.26l0 -9.74 681.78 0c88.67,0 169.6,12.43 243.15,37.28 73.55,24.85 131.99,62.81 175.65,113.52 43.66,51.05 65.49,115.53 65.49,193.45 0,77.92 -21.83,142.4 -65.49,193.45 -43.66,50.71 -102.1,88.67 -175.65,113.52 -73.55,24.85 -154.49,37.28 -243.15,37.28l-297.9 0 0 564.9c3.36,45.34 24.85,80.94 65.49,106.8 40.3,25.86 82.96,38.96 128.3,38.96l0 8.73zm104.11 -747.6c59.11,0 110.83,-15.78 155.16,-47.35 44.33,-31.57 78.59,-71.54 103.11,-119.56 24.85,-48.36 36.94,-98.07 36.94,-149.12 0,-50.38 -12.09,-100.08 -36.27,-148.44 -24.18,-48.7 -58.44,-88.67 -102.77,-120.24 -44.33,-31.57 -96.39,-47.02 -156.17,-47.02l-180.02 0c-32.58,0 -60.45,11.42 -83.63,34.26 -22.84,23.17 -34.26,51.05 -34.26,83.63l0 513.85 297.9 0z"/>
   <path id="_1_84" class="fil0" d="M10084.67 7944.68c-102.77,0 -196.81,-15.78 -281.11,-47.69 -84.63,-31.91 -152.14,-79.26 -202.52,-142.74 -50.04,-63.14 -75.23,-141.06 -75.23,-233.75l0 -847.02c-9.07,-39.97 -33.25,-71.2 -72.54,-93.37 -39.63,-22.5 -80.6,-33.59 -123.26,-33.59l0 -9.74 579.68 0 0 9.74c-41.98,0 -82.62,11.08 -121.91,33.59 -39.63,22.17 -63.81,53.4 -72.88,93.37l0 847.02c0,67.17 15.78,130.65 47.02,191.1 31.57,60.11 75.23,109.48 130.65,148.11 55.42,38.29 119.56,57.43 192.11,57.43 82.62,0 158.19,-17.8 226.37,-53.74 68.18,-35.6 122.58,-83.63 162.89,-143.41 40.3,-60.11 60.45,-126.61 60.45,-199.49l0 -871.53c-7.05,-31.57 -31.23,-56.43 -71.87,-74.9 -40.64,-18.47 -78.59,-27.54 -113.85,-27.54l0 -9.74 399.33 0 0 9.74c-34.59,0 -72.54,9.07 -113.18,27.54 -40.64,18.47 -64.48,43.33 -71.87,74.9l0 871.53c0,78.25 -21.49,149.45 -64.48,213.6 -42.99,64.48 -100.42,115.53 -172.96,153.48 -72.54,37.95 -152.81,57.09 -240.81,57.09z"/>
   <path id="_2_85" class="fil0" d="M12061.36 7944.68l-1106.96 0 0 -8.73c43.32,0 84.97,-12.09 124.6,-35.6 39.63,-23.51 63.14,-56.43 70.19,-98.41l0 -1121.74c-7.05,-41.31 -30.56,-73.89 -70.19,-97.73 -39.63,-23.85 -81.28,-35.94 -124.6,-35.94l0 -8.73 1051.88 0 18.81 287.15 -9.07 0c0,-26.87 -8.06,-59.11 -24.85,-96.39 -16.79,-37.28 -42.65,-71.87 -77.24,-103.44 -34.93,-31.24 -79.59,-51.05 -134,-58.78l-335.52 0c-28.88,0 -53.4,10.07 -74.22,30.23 -20.49,20.48 -30.9,45.34 -30.9,74.89l0 554.83 351.3 0c31.57,-7.06 56.42,-30.9 74.56,-71.87 18.47,-40.64 27.87,-78.25 28.55,-112.85l9.07 0 0 399.33 -9.07 0c-0.67,-35.26 -10.08,-73.55 -28.55,-114.19 -18.14,-40.64 -42.99,-64.48 -74.56,-71.87l-351.3 0 0 539.37c0,33.92 11.75,63.14 35.93,86.98 23.85,23.85 53.07,35.94 86.99,35.94l344.24 0c54.74,-9.07 101.43,-34.26 140.72,-74.89 39.63,-40.64 69.86,-84.3 91.02,-130.65 21.5,-46.69 32.24,-83.63 32.24,-111.17l9.74 0 -18.81 344.25z"/>
   <path id="_3_86" class="fil0" d="M13600.1 7946.7l-589.42 0 0 -8.73c30.9,0 62.47,-4.7 95.04,-13.43 32.58,-8.73 58.1,-23.85 77.25,-44.67 13.1,-15.78 19.81,-35.6 19.81,-59.11 0,-9.74 -1.01,-20.15 -3.02,-30.56l1.01 0c-13.1,-83.29 -33.25,-166.92 -60.45,-251.22 -27.54,-84.3 -68.85,-155.83 -124.6,-214.61 -55.75,-58.78 -133.33,-91.35 -232.41,-98.07l-101.09 0 0 565.91c3.36,45.34 24.85,80.94 65.49,106.8 40.3,25.86 82.96,38.96 128.3,38.96l0 8.73 -579.68 0 0 -8.73c46.01,0 89.33,-13.43 130.31,-39.63 41.31,-26.2 62.8,-62.13 65.49,-108.15l0 -1108.98c-7.05,-41.31 -30.22,-73.89 -69.85,-97.73 -39.3,-23.85 -80.61,-35.94 -123.93,-35.94l0 -9.07 653.23 0c88.67,0 169.6,12.43 243.15,36.94 73.55,24.85 131.99,62.46 175.65,113.18 43.66,51.05 65.49,115.53 65.49,193.45 0,55.08 -11.08,103.11 -33.58,143.74 -45.68,85.31 -120.24,142.74 -223.34,171.96 -59.44,17.8 -112.85,26.87 -159.19,26.87 86.98,25.52 156.51,69.19 208.56,131.32 51.72,61.8 91.02,131.99 117.88,209.91 26.87,78.25 47.36,154.49 61.13,229.39 13.1,38.62 37.28,72.21 72.88,100.42 35.26,28.21 75.23,42.32 119.9,42.32l0 8.73zm-648.53 -748.94c59.11,0 110.83,-15.45 155.16,-46.69 44.33,-31.23 78.59,-70.87 103.44,-119.56 24.52,-48.36 36.61,-98.41 36.61,-149.45 0,-49.7 -12.09,-99.07 -36.27,-147.44 -24.18,-48.7 -58.44,-88.67 -102.77,-120.24 -44.33,-31.57 -96.39,-47.02 -156.17,-47.02l-151.47 0c-32.58,0 -60.45,11.42 -83.63,34.26 -22.84,22.84 -34.26,50.72 -34.26,83.63l0 512.51 269.35 0z"/>
   <path id="_4_87" class="fil0" d="M14771.76 7944.68l-579.34 0 0 -8.73c45.68,0 89.34,-13.1 130.31,-38.96 40.98,-25.86 62.8,-62.13 65.49,-108.82l0 -1222.83 -308.98 0c-54.41,9.07 -101.43,33.92 -140.72,74.22 -39.3,40.3 -69.52,83.63 -90.68,130.31 -20.82,46.68 -31.57,83.63 -32.24,111.17l-9.07 0 18.81 -344.25 1320.56 0 19.48 344.25 -9.74 0c0,-27.54 -10.75,-64.48 -31.91,-111.17 -21.5,-46.69 -51.72,-90.01 -90.68,-130.31 -38.96,-40.3 -85.98,-65.15 -141.06,-74.22l-314.02 0 0 1224.85c3.36,45.34 25.19,80.94 65.49,106.8 40.3,25.86 83.29,38.96 128.3,38.96l0 8.73z"/>
   <path id="_5_88" class="fil0" d="M16074.4 7944.68c-129.3,0 -247.19,-31.57 -353.65,-95.05 -106.46,-63.14 -191.44,-148.11 -254.24,-254.24 -63.14,-106.13 -94.71,-224.35 -94.71,-354.32 0,-128.96 31.57,-246.85 94.71,-352.98 62.8,-106.46 147.78,-191.1 254.24,-254.57 106.46,-63.14 224.35,-95.04 353.65,-95.04 129.97,0 247.86,31.91 354.32,95.04 106.13,63.48 191.1,148.11 254.24,254.57 63.48,106.13 95.05,224.02 95.05,352.98 0,129.97 -31.57,248.19 -95.05,354.32 -63.14,106.13 -148.11,191.1 -254.24,254.24 -106.46,63.48 -224.35,95.05 -354.32,95.05zm0 -28.55c70.19,0 136.02,-19.14 197.48,-57.09 61.13,-37.95 114.86,-89 161.21,-152.81 46.35,-64.15 82.62,-136.35 108.81,-216.63 26.2,-80.27 39.3,-163.22 39.3,-248.53 0,-84.63 -13.1,-167.25 -39.3,-247.86 -26.2,-80.6 -62.47,-153.15 -108.81,-217.3 -46.35,-64.48 -100.08,-115.53 -161.21,-153.48 -61.46,-38.29 -127.29,-57.09 -197.48,-57.09 -69.52,0 -135.01,18.81 -196.14,57.09 -61.46,37.95 -115.2,89 -161.54,153.48 -46.01,64.15 -82.62,136.69 -109.15,217.3 -26.53,80.61 -39.97,163.22 -39.97,247.86 0,85.31 13.44,168.26 39.97,248.53 26.53,80.27 63.14,152.48 109.15,216.63 46.35,63.81 100.08,114.86 161.54,152.81 61.13,37.95 126.62,57.09 196.14,57.09z"/>
   <path id="_6_89" class="fil0" d="M18312.72 7946.7l-589.42 0 0 -8.73c30.9,0 62.47,-4.7 95.04,-13.43 32.58,-8.73 58.1,-23.85 77.25,-44.67 13.1,-15.78 19.81,-35.6 19.81,-59.11 0,-9.74 -1.01,-20.15 -3.02,-30.56l1.01 0c-13.1,-83.29 -33.25,-166.92 -60.45,-251.22 -27.54,-84.3 -68.85,-155.83 -124.6,-214.61 -55.75,-58.78 -133.33,-91.35 -232.41,-98.07l-101.09 0 0 565.91c3.36,45.34 24.85,80.94 65.49,106.8 40.3,25.86 82.96,38.96 128.3,38.96l0 8.73 -579.68 0 0 -8.73c46.01,0 89.33,-13.43 130.31,-39.63 41.31,-26.2 62.8,-62.13 65.49,-108.15l0 -1108.98c-7.05,-41.31 -30.22,-73.89 -69.85,-97.73 -39.3,-23.85 -80.61,-35.94 -123.93,-35.94l0 -9.07 653.23 0c88.67,0 169.6,12.43 243.15,36.94 73.55,24.85 131.99,62.46 175.65,113.18 43.66,51.05 65.49,115.53 65.49,193.45 0,55.08 -11.08,103.11 -33.58,143.74 -45.68,85.31 -120.24,142.74 -223.34,171.96 -59.44,17.8 -112.85,26.87 -159.19,26.87 86.98,25.52 156.51,69.19 208.56,131.32 51.72,61.8 91.02,131.99 117.88,209.91 26.87,78.25 47.36,154.49 61.13,229.39 13.1,38.62 37.28,72.21 72.88,100.42 35.26,28.21 75.23,42.32 119.9,42.32l0 8.73zm-648.53 -748.94c59.11,0 110.83,-15.45 155.16,-46.69 44.33,-31.23 78.59,-70.87 103.44,-119.56 24.52,-48.36 36.61,-98.41 36.61,-149.45 0,-49.7 -12.09,-99.07 -36.27,-147.44 -24.18,-48.7 -58.44,-88.67 -102.77,-120.24 -44.33,-31.57 -96.39,-47.02 -156.17,-47.02l-151.47 0c-32.58,0 -60.45,11.42 -83.63,34.26 -22.84,22.84 -34.26,50.72 -34.26,83.63l0 512.51 269.35 0z"/>
   <path id="_7_90" class="fil0" d="M19822.92 7946.7l-589.42 0 0 -8.73c30.9,0 62.47,-4.7 95.04,-13.43 32.58,-8.73 58.1,-23.85 77.25,-44.67 13.1,-15.78 19.81,-35.6 19.81,-59.11 0,-9.74 -1.01,-20.15 -3.02,-30.56l1.01 0c-13.1,-83.29 -33.25,-166.92 -60.45,-251.22 -27.54,-84.3 -68.85,-155.83 -124.6,-214.61 -55.75,-58.78 -133.33,-91.35 -232.41,-98.07l-101.09 0 0 565.91c3.36,45.34 24.85,80.94 65.49,106.8 40.3,25.86 82.96,38.96 128.3,38.96l0 8.73 -579.68 0 0 -8.73c46.01,0 89.33,-13.43 130.31,-39.63 41.31,-26.2 62.8,-62.13 65.49,-108.15l0 -1108.98c-7.05,-41.31 -30.22,-73.89 -69.85,-97.73 -39.3,-23.85 -80.61,-35.94 -123.93,-35.94l0 -9.07 653.23 0c88.67,0 169.6,12.43 243.15,36.94 73.55,24.85 131.99,62.46 175.65,113.18 43.66,51.05 65.49,115.53 65.49,193.45 0,55.08 -11.08,103.11 -33.58,143.74 -45.68,85.31 -120.24,142.74 -223.34,171.96 -59.44,17.8 -112.85,26.87 -159.19,26.87 86.98,25.52 156.51,69.19 208.56,131.32 51.72,61.8 91.02,131.99 117.88,209.91 26.87,78.25 47.36,154.49 61.13,229.39 13.1,38.62 37.28,72.21 72.88,100.42 35.26,28.21 75.23,42.32 119.9,42.32l0 8.73zm-648.53 -748.94c59.11,0 110.83,-15.45 155.16,-46.69 44.33,-31.23 78.59,-70.87 103.44,-119.56 24.52,-48.36 36.61,-98.41 36.61,-149.45 0,-49.7 -12.09,-99.07 -36.27,-147.44 -24.18,-48.7 -58.44,-88.67 -102.77,-120.24 -44.33,-31.57 -96.39,-47.02 -156.17,-47.02l-151.47 0c-32.58,0 -60.45,11.42 -83.63,34.26 -22.84,22.84 -34.26,50.72 -34.26,83.63l0 512.51 269.35 0z"/>
   <path id="_8" class="fil0" d="M20609.02 7944.68l-579.68 0 0 -8.73c46.01,0 89.33,-13.1 130.31,-38.96 41.31,-25.86 63.14,-62.13 66.5,-108.82l0 -1094.2c-3.36,-46.35 -25.19,-82.62 -66.5,-108.48 -40.98,-25.86 -84.3,-38.96 -130.31,-38.96l0 -8.73 579.68 0 0 8.73c-44.67,0 -86.98,13.1 -127.29,38.96 -40.64,25.86 -62.8,61.46 -66.5,106.8l0 1097.89c3.7,45.34 25.86,80.94 66.5,106.8 40.3,25.86 82.62,38.96 127.29,38.96l0 8.73z"/>
   <path id="_9" class="fil0" d="M22057.42 7997.74c-52.06,0 -100.75,-12.43 -146.76,-37.28 -37.28,-19.81 -74.9,-44.33 -112.17,-73.89 -87.32,38.62 -180.69,58.1 -280.44,58.1 -129.3,0 -246.85,-31.57 -353.31,-95.05 -106.13,-63.14 -190.76,-148.11 -254.24,-254.24 -63.14,-106.13 -95.04,-224.35 -95.04,-354.32 0,-128.96 31.91,-246.85 95.04,-352.98 63.48,-106.46 148.11,-191.1 254.24,-254.57 106.46,-63.14 224.01,-95.04 353.31,-95.04 129.97,0 247.86,31.91 354.32,95.04 106.13,63.48 191.1,148.11 254.24,254.57 63.48,106.13 95.05,224.02 95.05,352.98 0,113.52 -24.52,218.3 -73.22,314.35 -49.03,96.06 -115.53,176.66 -199.49,241.81 27.54,9.74 56.09,14.78 85.64,14.78 18.47,0 44.33,-3.36 77.24,-10.07 33.25,-6.38 76.91,-32.91 131.32,-79.59 3.36,-2.69 7.05,-4.03 11.08,-4.03 3.02,0.67 6.04,2.35 8.73,5.04 12.43,17.13 18.81,42.65 18.81,76.57 0,7.39 -1.01,24.52 -2.69,51.72 -1.68,27.2 -21.49,59.44 -59.44,97.06 -34.26,32.57 -88.33,49.03 -162.22,49.03zm-214.61 -247.85c56.42,-66.17 100.76,-143.74 133.33,-232.74 32.58,-89 48.7,-180.69 48.7,-276.07 0,-84.63 -13.1,-167.25 -39.3,-247.86 -26.2,-80.6 -62.47,-153.15 -108.81,-217.3 -46.35,-64.48 -100.08,-115.53 -161.21,-153.48 -61.46,-38.29 -127.29,-57.09 -197.48,-57.09 -69.52,0 -135.01,18.81 -196.14,57.09 -61.46,37.95 -115.2,89 -161.54,153.48 -46.01,64.15 -82.28,136.69 -108.81,217.3 -26.2,80.61 -39.3,163.22 -39.3,247.86 0,139.04 33.92,269.69 101.43,391.6 94.37,-53.74 180.02,-80.61 256.93,-80.61 72.54,0 140.39,14.44 203.19,43.33 62.47,28.88 121.91,62.13 178.33,99.41 30.9,19.81 61.13,37.95 90.68,55.08zm-324.77 166.24c79.93,0 154.15,-24.52 222.33,-73.89 -51.72,-42.65 -107.81,-82.96 -168.26,-121.24 -60.11,-38.62 -127.62,-66.16 -201.51,-83.29 -32.91,-7.72 -67.84,-11.75 -105.46,-11.75 -45.34,0 -93.7,5.71 -145.43,17.8 47.02,81.28 105.12,147.1 173.97,197.15 68.85,50.04 143.74,75.23 224.35,75.23z"/>
   <path id="_10" class="fil0" d="M23264.34 7944.68c-102.77,0 -196.81,-15.78 -281.11,-47.69 -84.63,-31.91 -152.14,-79.26 -202.52,-142.74 -50.04,-63.14 -75.23,-141.06 -75.23,-233.75l0 -847.02c-9.07,-39.97 -33.25,-71.2 -72.54,-93.37 -39.63,-22.5 -80.6,-33.59 -123.26,-33.59l0 -9.74 579.68 0 0 9.74c-41.98,0 -82.62,11.08 -121.91,33.59 -39.63,22.17 -63.81,53.4 -72.88,93.37l0 847.02c0,67.17 15.78,130.65 47.02,191.1 31.57,60.11 75.23,109.48 130.65,148.11 55.42,38.29 119.56,57.43 192.11,57.43 82.62,0 158.19,-17.8 226.37,-53.74 68.18,-35.6 122.58,-83.63 162.89,-143.41 40.3,-60.11 60.45,-126.61 60.45,-199.49l0 -871.53c-7.05,-31.57 -31.23,-56.43 -71.87,-74.9 -40.64,-18.47 -78.59,-27.54 -113.85,-27.54l0 -9.74 399.33 0 0 9.74c-34.59,0 -72.54,9.07 -113.18,27.54 -40.64,18.47 -64.48,43.33 -71.87,74.9l0 871.53c0,78.25 -21.49,149.45 -64.48,213.6 -42.99,64.48 -100.42,115.53 -172.96,153.48 -72.54,37.95 -152.81,57.09 -240.81,57.09z"/>
   <path id="_11" class="fil0" d="M25241.03 7944.68l-1106.96 0 0 -8.73c43.32,0 84.97,-12.09 124.6,-35.6 39.63,-23.51 63.14,-56.43 70.19,-98.41l0 -1121.74c-7.05,-41.31 -30.56,-73.89 -70.19,-97.73 -39.63,-23.85 -81.28,-35.94 -124.6,-35.94l0 -8.73 1051.88 0 18.81 287.15 -9.07 0c0,-26.87 -8.06,-59.11 -24.85,-96.39 -16.79,-37.28 -42.65,-71.87 -77.24,-103.44 -34.93,-31.24 -79.59,-51.05 -134,-58.78l-335.52 0c-28.88,0 -53.4,10.07 -74.22,30.23 -20.49,20.48 -30.9,45.34 -30.9,74.89l0 554.83 351.3 0c31.57,-7.06 56.42,-30.9 74.56,-71.87 18.47,-40.64 27.87,-78.25 28.55,-112.85l9.07 0 0 399.33 -9.07 0c-0.67,-35.26 -10.08,-73.55 -28.55,-114.19 -18.14,-40.64 -42.99,-64.48 -74.56,-71.87l-351.3 0 0 539.37c0,33.92 11.75,63.14 35.93,86.98 23.85,23.85 53.07,35.94 86.99,35.94l344.24 0c54.74,-9.07 101.43,-34.26 140.72,-74.89 39.63,-40.64 69.86,-84.3 91.02,-130.65 21.5,-46.69 32.24,-83.63 32.24,-111.17l9.74 0 -18.81 344.25z"/>
   <path id="_12" class="fil0" d="M26653.83 7944.68l-26.53 0 -930.64 -1284.96 0 1166.07c3.69,33.25 25.86,59.78 65.83,79.59 39.96,19.48 77.58,29.89 113.18,30.56l0 8.73 -384.89 0 0 -8.73c34.93,-0.67 72.54,-11.08 112.85,-30.56 40.3,-19.81 62.47,-46.01 66.16,-78.59l0 -1120.73c0,-31.57 -9.74,-59.45 -29.89,-83.29 -19.81,-23.85 -44.67,-42.65 -74.22,-56.43 -29.56,-13.77 -59.45,-20.82 -89.67,-20.82l0 -8.73 366.07 0 785.22 1096.89 -1.01 -978c-3.36,-33.25 -25.19,-60.12 -65.49,-79.6 -40.3,-19.81 -77.92,-29.89 -112.51,-30.56l0 -8.73 384.55 0 0 9.74c-34.59,0 -71.87,9.74 -112.17,28.89 -39.97,19.48 -62.13,45.67 -66.83,78.25l0 1291.01zm-348.28 -1604.69c-29.56,0 -56.76,-11.08 -81.61,-33.59 -22.83,-19.48 -45.34,-29.56 -66.83,-29.56 -5.37,0 -16.46,2.02 -32.91,6.05 -16.79,4.03 -33.58,20.49 -49.7,50.04l-48.36 -52.06c20.82,-62.47 51.05,-99.41 90.68,-111.17 12.43,-4.03 24.85,-6.05 37.28,-6.05 24.85,0 49.03,8.73 72.88,25.86 31.91,24.85 59.11,37.28 81.61,37.28 3.36,0 11.42,-1.01 25.19,-3.02 13.44,-2.02 30.23,-14.78 50.38,-38.29l43.33 62.8c-31.24,61.13 -72.21,91.69 -121.91,91.69z"/>
   <path id="_13" class="fil0" d="M28339.67 7944.68l-592.44 0 0 -8.73c28.89,0 60.79,-4.37 95.38,-12.76 34.93,-8.73 63.14,-22.17 84.64,-40.64 16.46,-13.77 24.85,-30.56 24.85,-51.05 0,-7.05 -1.01,-14.44 -3.02,-21.5l-181.02 -481.27 -484.3 0 -190.76 507.81c-1.34,6.38 -2.01,12.43 -2.01,17.8 0,18.13 9.4,33.92 28.55,46.68 19.14,12.76 44.67,21.83 77.24,26.87 32.58,5.37 59.44,8.06 81.28,8.06l0 8.73 -399.66 0 0 -8.73c32.91,0 66.5,-7.72 100.42,-23.17 34.26,-15.45 62.47,-41.65 84.63,-78.25 28.89,-76.91 65.83,-174.64 110.83,-293.87 44.67,-118.89 90.01,-239.13 135.69,-361.04 45.68,-121.58 84.3,-224.69 115.53,-308.98 31.57,-84.3 48.7,-130.65 51.39,-139.04 4.37,-18.47 6.72,-35.6 6.72,-51.39 0,-20.82 -6.04,-41.98 -18.13,-63.48 -12.09,-21.16 -31.91,-38.29 -59.11,-51.05 -27.2,-12.76 -53.4,-19.15 -78.25,-19.15l-4.03 0 0 -9.74 348.61 0 472.2 1257.43c41.31,94.37 106.13,141.73 194.79,141.73l0 8.73zm-582.36 -644.5l-231.4 -615.95 -232.07 615.95 463.48 0z"/>
   <path id="_14" class="fil1 str0" d="M8535.18 7944.68l-579.68 0 0 -8.73c46.01,0 89.33,-13.1 130.31,-38.96 41.31,-25.86 62.8,-62.13 65.49,-108.82l0 -1108.98c-7.05,-41.31 -30.22,-73.55 -69.85,-97.4 -39.3,-23.51 -80.61,-35.26 -123.93,-35.26l0 -9.74 681.78 0c88.67,0 169.6,12.43 243.15,37.28 73.55,24.85 131.99,62.81 175.65,113.52 43.66,51.05 65.49,115.53 65.49,193.45 0,77.92 -21.83,142.4 -65.49,193.45 -43.66,50.71 -102.1,88.67 -175.65,113.52 -73.55,24.85 -154.49,37.28 -243.15,37.28l-297.9 0 0 564.9c3.36,45.34 24.85,80.94 65.49,106.8 40.3,25.86 82.96,38.96 128.3,38.96l0 8.73zm104.11 -747.6c59.11,0 110.83,-15.78 155.16,-47.35 44.33,-31.57 78.59,-71.54 103.11,-119.56 24.85,-48.36 36.94,-98.07 36.94,-149.12 0,-50.38 -12.09,-100.08 -36.27,-148.44 -24.18,-48.7 -58.44,-88.67 -102.77,-120.24 -44.33,-31.57 -96.39,-47.02 -156.17,-47.02l-180.02 0c-32.58,0 -60.45,11.42 -83.63,34.26 -22.84,23.17 -34.26,51.05 -34.26,83.63l0 513.85 297.9 0z"/>
   <path id="_15" class="fil1 str0" d="M10084.67 7944.68c-102.77,0 -196.81,-15.78 -281.11,-47.69 -84.63,-31.91 -152.14,-79.26 -202.52,-142.74 -50.04,-63.14 -75.23,-141.06 -75.23,-233.75l0 -847.02c-9.07,-39.97 -33.25,-71.2 -72.54,-93.37 -39.63,-22.5 -80.6,-33.59 -123.26,-33.59l0 -9.74 579.68 0 0 9.74c-41.98,0 -82.62,11.08 -121.91,33.59 -39.63,22.17 -63.81,53.4 -72.88,93.37l0 847.02c0,67.17 15.78,130.65 47.02,191.1 31.57,60.11 75.23,109.48 130.65,148.11 55.42,38.29 119.56,57.43 192.11,57.43 82.62,0 158.19,-17.8 226.37,-53.74 68.18,-35.6 122.58,-83.63 162.89,-143.41 40.3,-60.11 60.45,-126.61 60.45,-199.49l0 -871.53c-7.05,-31.57 -31.23,-56.43 -71.87,-74.9 -40.64,-18.47 -78.59,-27.54 -113.85,-27.54l0 -9.74 399.33 0 0 9.74c-34.59,0 -72.54,9.07 -113.18,27.54 -40.64,18.47 -64.48,43.33 -71.87,74.9l0 871.53c0,78.25 -21.49,149.45 -64.48,213.6 -42.99,64.48 -100.42,115.53 -172.96,153.48 -72.54,37.95 -152.81,57.09 -240.81,57.09z"/>
   <path id="_16" class="fil1 str0" d="M12061.36 7944.68l-1106.96 0 0 -8.73c43.32,0 84.97,-12.09 124.6,-35.6 39.63,-23.51 63.14,-56.43 70.19,-98.41l0 -1121.74c-7.05,-41.31 -30.56,-73.89 -70.19,-97.73 -39.63,-23.85 -81.28,-35.94 -124.6,-35.94l0 -8.73 1051.88 0 18.81 287.15 -9.07 0c0,-26.87 -8.06,-59.11 -24.85,-96.39 -16.79,-37.28 -42.65,-71.87 -77.24,-103.44 -34.93,-31.24 -79.59,-51.05 -134,-58.78l-335.52 0c-28.88,0 -53.4,10.07 -74.22,30.23 -20.49,20.48 -30.9,45.34 -30.9,74.89l0 554.83 351.3 0c31.57,-7.06 56.42,-30.9 74.56,-71.87 18.47,-40.64 27.87,-78.25 28.55,-112.85l9.07 0 0 399.33 -9.07 0c-0.67,-35.26 -10.08,-73.55 -28.55,-114.19 -18.14,-40.64 -42.99,-64.48 -74.56,-71.87l-351.3 0 0 539.37c0,33.92 11.75,63.14 35.93,86.98 23.85,23.85 53.07,35.94 86.99,35.94l344.24 0c54.74,-9.07 101.43,-34.26 140.72,-74.89 39.63,-40.64 69.86,-84.3 91.02,-130.65 21.5,-46.69 32.24,-83.63 32.24,-111.17l9.74 0 -18.81 344.25z"/>
   <path id="_17" class="fil1 str0" d="M13600.1 7946.7l-589.42 0 0 -8.73c30.9,0 62.47,-4.7 95.04,-13.43 32.58,-8.73 58.1,-23.85 77.25,-44.67 13.1,-15.78 19.81,-35.6 19.81,-59.11 0,-9.74 -1.01,-20.15 -3.02,-30.56l1.01 0c-13.1,-83.29 -33.25,-166.92 -60.45,-251.22 -27.54,-84.3 -68.85,-155.83 -124.6,-214.61 -55.75,-58.78 -133.33,-91.35 -232.41,-98.07l-101.09 0 0 565.91c3.36,45.34 24.85,80.94 65.49,106.8 40.3,25.86 82.96,38.96 128.3,38.96l0 8.73 -579.68 0 0 -8.73c46.01,0 89.33,-13.43 130.31,-39.63 41.31,-26.2 62.8,-62.13 65.49,-108.15l0 -1108.98c-7.05,-41.31 -30.22,-73.89 -69.85,-97.73 -39.3,-23.85 -80.61,-35.94 -123.93,-35.94l0 -9.07 653.23 0c88.67,0 169.6,12.43 243.15,36.94 73.55,24.85 131.99,62.46 175.65,113.18 43.66,51.05 65.49,115.53 65.49,193.45 0,55.08 -11.08,103.11 -33.58,143.74 -45.68,85.31 -120.24,142.74 -223.34,171.96 -59.44,17.8 -112.85,26.87 -159.19,26.87 86.98,25.52 156.51,69.19 208.56,131.32 51.72,61.8 91.02,131.99 117.88,209.91 26.87,78.25 47.36,154.49 61.13,229.39 13.1,38.62 37.28,72.21 72.88,100.42 35.26,28.21 75.23,42.32 119.9,42.32l0 8.73zm-648.53 -748.94c59.11,0 110.83,-15.45 155.16,-46.69 44.33,-31.23 78.59,-70.87 103.44,-119.56 24.52,-48.36 36.61,-98.41 36.61,-149.45 0,-49.7 -12.09,-99.07 -36.27,-147.44 -24.18,-48.7 -58.44,-88.67 -102.77,-120.24 -44.33,-31.57 -96.39,-47.02 -156.17,-47.02l-151.47 0c-32.58,0 -60.45,11.42 -83.63,34.26 -22.84,22.84 -34.26,50.72 -34.26,83.63l0 512.51 269.35 0z"/>
   <path id="_18" class="fil1 str0" d="M14771.76 7944.68l-579.34 0 0 -8.73c45.68,0 89.34,-13.1 130.31,-38.96 40.98,-25.86 62.8,-62.13 65.49,-108.82l0 -1222.83 -308.98 0c-54.41,9.07 -101.43,33.92 -140.72,74.22 -39.3,40.3 -69.52,83.63 -90.68,130.31 -20.82,46.68 -31.57,83.63 -32.24,111.17l-9.07 0 18.81 -344.25 1320.56 0 19.48 344.25 -9.74 0c0,-27.54 -10.75,-64.48 -31.91,-111.17 -21.5,-46.69 -51.72,-90.01 -90.68,-130.31 -38.96,-40.3 -85.98,-65.15 -141.06,-74.22l-314.02 0 0 1224.85c3.36,45.34 25.19,80.94 65.49,106.8 40.3,25.86 83.29,38.96 128.3,38.96l0 8.73z"/>
   <path id="_19" class="fil1 str0" d="M16074.4 7944.68c-129.3,0 -247.19,-31.57 -353.65,-95.05 -106.46,-63.14 -191.44,-148.11 -254.24,-254.24 -63.14,-106.13 -94.71,-224.35 -94.71,-354.32 0,-128.96 31.57,-246.85 94.71,-352.98 62.8,-106.46 147.78,-191.1 254.24,-254.57 106.46,-63.14 224.35,-95.04 353.65,-95.04 129.97,0 247.86,31.91 354.32,95.04 106.13,63.48 191.1,148.11 254.24,254.57 63.48,106.13 95.05,224.02 95.05,352.98 0,129.97 -31.57,248.19 -95.05,354.32 -63.14,106.13 -148.11,191.1 -254.24,254.24 -106.46,63.48 -224.35,95.05 -354.32,95.05zm0 -28.55c70.19,0 136.02,-19.14 197.48,-57.09 61.13,-37.95 114.86,-89 161.21,-152.81 46.35,-64.15 82.62,-136.35 108.81,-216.63 26.2,-80.27 39.3,-163.22 39.3,-248.53 0,-84.63 -13.1,-167.25 -39.3,-247.86 -26.2,-80.6 -62.47,-153.15 -108.81,-217.3 -46.35,-64.48 -100.08,-115.53 -161.21,-153.48 -61.46,-38.29 -127.29,-57.09 -197.48,-57.09 -69.52,0 -135.01,18.81 -196.14,57.09 -61.46,37.95 -115.2,89 -161.54,153.48 -46.01,64.15 -82.62,136.69 -109.15,217.3 -26.53,80.61 -39.97,163.22 -39.97,247.86 0,85.31 13.44,168.26 39.97,248.53 26.53,80.27 63.14,152.48 109.15,216.63 46.35,63.81 100.08,114.86 161.54,152.81 61.13,37.95 126.62,57.09 196.14,57.09z"/>
   <path id="_20" class="fil1 str0" d="M18312.72 7946.7l-589.42 0 0 -8.73c30.9,0 62.47,-4.7 95.04,-13.43 32.58,-8.73 58.1,-23.85 77.25,-44.67 13.1,-15.78 19.81,-35.6 19.81,-59.11 0,-9.74 -1.01,-20.15 -3.02,-30.56l1.01 0c-13.1,-83.29 -33.25,-166.92 -60.45,-251.22 -27.54,-84.3 -68.85,-155.83 -124.6,-214.61 -55.75,-58.78 -133.33,-91.35 -232.41,-98.07l-101.09 0 0 565.91c3.36,45.34 24.85,80.94 65.49,106.8 40.3,25.86 82.96,38.96 128.3,38.96l0 8.73 -579.68 0 0 -8.73c46.01,0 89.33,-13.43 130.31,-39.63 41.31,-26.2 62.8,-62.13 65.49,-108.15l0 -1108.98c-7.05,-41.31 -30.22,-73.89 -69.85,-97.73 -39.3,-23.85 -80.61,-35.94 -123.93,-35.94l0 -9.07 653.23 0c88.67,0 169.6,12.43 243.15,36.94 73.55,24.85 131.99,62.46 175.65,113.18 43.66,51.05 65.49,115.53 65.49,193.45 0,55.08 -11.08,103.11 -33.58,143.74 -45.68,85.31 -120.24,142.74 -223.34,171.96 -59.44,17.8 -112.85,26.87 -159.19,26.87 86.98,25.52 156.51,69.19 208.56,131.32 51.72,61.8 91.02,131.99 117.88,209.91 26.87,78.25 47.36,154.49 61.13,229.39 13.1,38.62 37.28,72.21 72.88,100.42 35.26,28.21 75.23,42.32 119.9,42.32l0 8.73zm-648.53 -748.94c59.11,0 110.83,-15.45 155.16,-46.69 44.33,-31.23 78.59,-70.87 103.44,-119.56 24.52,-48.36 36.61,-98.41 36.61,-149.45 0,-49.7 -12.09,-99.07 -36.27,-147.44 -24.18,-48.7 -58.44,-88.67 -102.77,-120.24 -44.33,-31.57 -96.39,-47.02 -156.17,-47.02l-151.47 0c-32.58,0 -60.45,11.42 -83.63,34.26 -22.84,22.84 -34.26,50.72 -34.26,83.63l0 512.51 269.35 0z"/>
   <path id="_21" class="fil1 str0" d="M19822.92 7946.7l-589.42 0 0 -8.73c30.9,0 62.47,-4.7 95.04,-13.43 32.58,-8.73 58.1,-23.85 77.25,-44.67 13.1,-15.78 19.81,-35.6 19.81,-59.11 0,-9.74 -1.01,-20.15 -3.02,-30.56l1.01 0c-13.1,-83.29 -33.25,-166.92 -60.45,-251.22 -27.54,-84.3 -68.85,-155.83 -124.6,-214.61 -55.75,-58.78 -133.33,-91.35 -232.41,-98.07l-101.09 0 0 565.91c3.36,45.34 24.85,80.94 65.49,106.8 40.3,25.86 82.96,38.96 128.3,38.96l0 8.73 -579.68 0 0 -8.73c46.01,0 89.33,-13.43 130.31,-39.63 41.31,-26.2 62.8,-62.13 65.49,-108.15l0 -1108.98c-7.05,-41.31 -30.22,-73.89 -69.85,-97.73 -39.3,-23.85 -80.61,-35.94 -123.93,-35.94l0 -9.07 653.23 0c88.67,0 169.6,12.43 243.15,36.94 73.55,24.85 131.99,62.46 175.65,113.18 43.66,51.05 65.49,115.53 65.49,193.45 0,55.08 -11.08,103.11 -33.58,143.74 -45.68,85.31 -120.24,142.74 -223.34,171.96 -59.44,17.8 -112.85,26.87 -159.19,26.87 86.98,25.52 156.51,69.19 208.56,131.32 51.72,61.8 91.02,131.99 117.88,209.91 26.87,78.25 47.36,154.49 61.13,229.39 13.1,38.62 37.28,72.21 72.88,100.42 35.26,28.21 75.23,42.32 119.9,42.32l0 8.73zm-648.53 -748.94c59.11,0 110.83,-15.45 155.16,-46.69 44.33,-31.23 78.59,-70.87 103.44,-119.56 24.52,-48.36 36.61,-98.41 36.61,-149.45 0,-49.7 -12.09,-99.07 -36.27,-147.44 -24.18,-48.7 -58.44,-88.67 -102.77,-120.24 -44.33,-31.57 -96.39,-47.02 -156.17,-47.02l-151.47 0c-32.58,0 -60.45,11.42 -83.63,34.26 -22.84,22.84 -34.26,50.72 -34.26,83.63l0 512.51 269.35 0z"/>
   <path id="_22" class="fil1 str0" d="M20609.02 7944.68l-579.68 0 0 -8.73c46.01,0 89.33,-13.1 130.31,-38.96 41.31,-25.86 63.14,-62.13 66.5,-108.82l0 -1094.2c-3.36,-46.35 -25.19,-82.62 -66.5,-108.48 -40.98,-25.86 -84.3,-38.96 -130.31,-38.96l0 -8.73 579.68 0 0 8.73c-44.67,0 -86.98,13.1 -127.29,38.96 -40.64,25.86 -62.8,61.46 -66.5,106.8l0 1097.89c3.7,45.34 25.86,80.94 66.5,106.8 40.3,25.86 82.62,38.96 127.29,38.96l0 8.73z"/>
   <path id="_23" class="fil1 str0" d="M22057.42 7997.74c-52.06,0 -100.75,-12.43 -146.76,-37.28 -37.28,-19.81 -74.9,-44.33 -112.17,-73.89 -87.32,38.62 -180.69,58.1 -280.44,58.1 -129.3,0 -246.85,-31.57 -353.31,-95.05 -106.13,-63.14 -190.76,-148.11 -254.24,-254.24 -63.14,-106.13 -95.04,-224.35 -95.04,-354.32 0,-128.96 31.91,-246.85 95.04,-352.98 63.48,-106.46 148.11,-191.1 254.24,-254.57 106.46,-63.14 224.01,-95.04 353.31,-95.04 129.97,0 247.86,31.91 354.32,95.04 106.13,63.48 191.1,148.11 254.24,254.57 63.48,106.13 95.05,224.02 95.05,352.98 0,113.52 -24.52,218.3 -73.22,314.35 -49.03,96.06 -115.53,176.66 -199.49,241.81 27.54,9.74 56.09,14.78 85.64,14.78 18.47,0 44.33,-3.36 77.24,-10.07 33.25,-6.38 76.91,-32.91 131.32,-79.59 3.36,-2.69 7.05,-4.03 11.08,-4.03 3.02,0.67 6.04,2.35 8.73,5.04 12.43,17.13 18.81,42.65 18.81,76.57 0,7.39 -1.01,24.52 -2.69,51.72 -1.68,27.2 -21.49,59.44 -59.44,97.06 -34.26,32.57 -88.33,49.03 -162.22,49.03zm-214.61 -247.85c56.42,-66.17 100.76,-143.74 133.33,-232.74 32.58,-89 48.7,-180.69 48.7,-276.07 0,-84.63 -13.1,-167.25 -39.3,-247.86 -26.2,-80.6 -62.47,-153.15 -108.81,-217.3 -46.35,-64.48 -100.08,-115.53 -161.21,-153.48 -61.46,-38.29 -127.29,-57.09 -197.48,-57.09 -69.52,0 -135.01,18.81 -196.14,57.09 -61.46,37.95 -115.2,89 -161.54,153.48 -46.01,64.15 -82.28,136.69 -108.81,217.3 -26.2,80.61 -39.3,163.22 -39.3,247.86 0,139.04 33.92,269.69 101.43,391.6 94.37,-53.74 180.02,-80.61 256.93,-80.61 72.54,0 140.39,14.44 203.19,43.33 62.47,28.88 121.91,62.13 178.33,99.41 30.9,19.81 61.13,37.95 90.68,55.08zm-324.77 166.24c79.93,0 154.15,-24.52 222.33,-73.89 -51.72,-42.65 -107.81,-82.96 -168.26,-121.24 -60.11,-38.62 -127.62,-66.16 -201.51,-83.29 -32.91,-7.72 -67.84,-11.75 -105.46,-11.75 -45.34,0 -93.7,5.71 -145.43,17.8 47.02,81.28 105.12,147.1 173.97,197.15 68.85,50.04 143.74,75.23 224.35,75.23z"/>
   <path id="_24" class="fil1 str0" d="M23264.34 7944.68c-102.77,0 -196.81,-15.78 -281.11,-47.69 -84.63,-31.91 -152.14,-79.26 -202.52,-142.74 -50.04,-63.14 -75.23,-141.06 -75.23,-233.75l0 -847.02c-9.07,-39.97 -33.25,-71.2 -72.54,-93.37 -39.63,-22.5 -80.6,-33.59 -123.26,-33.59l0 -9.74 579.68 0 0 9.74c-41.98,0 -82.62,11.08 -121.91,33.59 -39.63,22.17 -63.81,53.4 -72.88,93.37l0 847.02c0,67.17 15.78,130.65 47.02,191.1 31.57,60.11 75.23,109.48 130.65,148.11 55.42,38.29 119.56,57.43 192.11,57.43 82.62,0 158.19,-17.8 226.37,-53.74 68.18,-35.6 122.58,-83.63 162.89,-143.41 40.3,-60.11 60.45,-126.61 60.45,-199.49l0 -871.53c-7.05,-31.57 -31.23,-56.43 -71.87,-74.9 -40.64,-18.47 -78.59,-27.54 -113.85,-27.54l0 -9.74 399.33 0 0 9.74c-34.59,0 -72.54,9.07 -113.18,27.54 -40.64,18.47 -64.48,43.33 -71.87,74.9l0 871.53c0,78.25 -21.49,149.45 -64.48,213.6 -42.99,64.48 -100.42,115.53 -172.96,153.48 -72.54,37.95 -152.81,57.09 -240.81,57.09z"/>
   <path id="_25" class="fil1 str0" d="M25241.03 7944.68l-1106.96 0 0 -8.73c43.32,0 84.97,-12.09 124.6,-35.6 39.63,-23.51 63.14,-56.43 70.19,-98.41l0 -1121.74c-7.05,-41.31 -30.56,-73.89 -70.19,-97.73 -39.63,-23.85 -81.28,-35.94 -124.6,-35.94l0 -8.73 1051.88 0 18.81 287.15 -9.07 0c0,-26.87 -8.06,-59.11 -24.85,-96.39 -16.79,-37.28 -42.65,-71.87 -77.24,-103.44 -34.93,-31.24 -79.59,-51.05 -134,-58.78l-335.52 0c-28.88,0 -53.4,10.07 -74.22,30.23 -20.49,20.48 -30.9,45.34 -30.9,74.89l0 554.83 351.3 0c31.57,-7.06 56.42,-30.9 74.56,-71.87 18.47,-40.64 27.87,-78.25 28.55,-112.85l9.07 0 0 399.33 -9.07 0c-0.67,-35.26 -10.08,-73.55 -28.55,-114.19 -18.14,-40.64 -42.99,-64.48 -74.56,-71.87l-351.3 0 0 539.37c0,33.92 11.75,63.14 35.93,86.98 23.85,23.85 53.07,35.94 86.99,35.94l344.24 0c54.74,-9.07 101.43,-34.26 140.72,-74.89 39.63,-40.64 69.86,-84.3 91.02,-130.65 21.5,-46.69 32.24,-83.63 32.24,-111.17l9.74 0 -18.81 344.25z"/>
   <path id="_26" class="fil1 str0" d="M26653.83 7944.68l-26.53 0 -930.64 -1284.96 0 1166.07c3.69,33.25 25.86,59.78 65.83,79.59 39.96,19.48 77.58,29.89 113.18,30.56l0 8.73 -384.89 0 0 -8.73c34.93,-0.67 72.54,-11.08 112.85,-30.56 40.3,-19.81 62.47,-46.01 66.16,-78.59l0 -1120.73c0,-31.57 -9.74,-59.45 -29.89,-83.29 -19.81,-23.85 -44.67,-42.65 -74.22,-56.43 -29.56,-13.77 -59.45,-20.82 -89.67,-20.82l0 -8.73 366.07 0 785.22 1096.89 -1.01 -978c-3.36,-33.25 -25.19,-60.12 -65.49,-79.6 -40.3,-19.81 -77.92,-29.89 -112.51,-30.56l0 -8.73 384.55 0 0 9.74c-34.59,0 -71.87,9.74 -112.17,28.89 -39.97,19.48 -62.13,45.67 -66.83,78.25l0 1291.01zm-348.28 -1604.69c-29.56,0 -56.76,-11.08 -81.61,-33.59 -22.83,-19.48 -45.34,-29.56 -66.83,-29.56 -5.37,0 -16.46,2.02 -32.91,6.05 -16.79,4.03 -33.58,20.49 -49.7,50.04l-48.36 -52.06c20.82,-62.47 51.05,-99.41 90.68,-111.17 12.43,-4.03 24.85,-6.05 37.28,-6.05 24.85,0 49.03,8.73 72.88,25.86 31.91,24.85 59.11,37.28 81.61,37.28 3.36,0 11.42,-1.01 25.19,-3.02 13.44,-2.02 30.23,-14.78 50.38,-38.29l43.33 62.8c-31.24,61.13 -72.21,91.69 -121.91,91.69z"/>
   <path id="_27" class="fil1 str0" d="M28339.67 7944.68l-592.44 0 0 -8.73c28.89,0 60.79,-4.37 95.38,-12.76 34.93,-8.73 63.14,-22.17 84.64,-40.64 16.46,-13.77 24.85,-30.56 24.85,-51.05 0,-7.05 -1.01,-14.44 -3.02,-21.5l-181.02 -481.27 -484.3 0 -190.76 507.81c-1.34,6.38 -2.01,12.43 -2.01,17.8 0,18.13 9.4,33.92 28.55,46.68 19.14,12.76 44.67,21.83 77.24,26.87 32.58,5.37 59.44,8.06 81.28,8.06l0 8.73 -399.66 0 0 -8.73c32.91,0 66.5,-7.72 100.42,-23.17 34.26,-15.45 62.47,-41.65 84.63,-78.25 28.89,-76.91 65.83,-174.64 110.83,-293.87 44.67,-118.89 90.01,-239.13 135.69,-361.04 45.68,-121.58 84.3,-224.69 115.53,-308.98 31.57,-84.3 48.7,-130.65 51.39,-139.04 4.37,-18.47 6.72,-35.6 6.72,-51.39 0,-20.82 -6.04,-41.98 -18.13,-63.48 -12.09,-21.16 -31.91,-38.29 -59.11,-51.05 -27.2,-12.76 -53.4,-19.15 -78.25,-19.15l-4.03 0 0 -9.74 348.61 0 472.2 1257.43c41.31,94.37 106.13,141.73 194.79,141.73l0 8.73zm-582.36 -644.5l-231.4 -615.95 -232.07 615.95 463.48 0z"/>
   <path class="fil0" d="M3032.76 8389l-3031.26 0 0 -58.02c274.11,0 530.22,-76.03 772.32,-226.09 240.1,-150.06 372.15,-360.15 394.17,-630.26l0 -528.22c-54.02,-194.08 -82.04,-396.17 -82.04,-602.25 0,-208.09 28.01,-406.17 82.04,-592.24l0 -4884.04c-34.02,-258.11 -172.07,-458.19 -410.17,-600.25 -238.1,-142.06 -488.2,-214.09 -750.31,-214.09l0 -52.02 3025.26 0c1136.48,4 2050.86,170.07 2741.15,500.21 688.29,330.14 1186.5,806.34 1490.62,1430.6 306.13,622.26 458.19,1376.57 458.19,2258.94 0,832.35 -150.06,1560.65 -448.19,2180.91 -300.13,622.26 -784.33,1106.46 -1454.61,1456.61 -670.28,350.15 -1552.65,534.22 -2647.11,554.23 -74.03,0 -146.06,-4 -216.09,-12 50.02,8 104.04,12 158.07,12l-82.04 6zm-94.04 -18.01l-6 0 6 0zm234.1 -158.07c1220.51,-42.02 2108.88,-480.2 2667.11,-1312.55 470.2,-700.29 704.29,-1602.67 704.29,-2709.13 0,-1132.47 -238.1,-2050.85 -716.3,-2755.15 -578.24,-846.35 -1512.63,-1270.53 -2807.17,-1270.53 -198.08,0 -368.15,70.03 -510.21,214.09 -140.06,142.06 -210.09,312.13 -210.09,512.22l0 3581.49c258.11,-118.05 534.22,-176.07 832.35,-176.07 464.19,0 880.37,82.04 1244.52,246.11 366.15,164.07 652.27,398.17 860.36,704.29 206.09,304.13 310.13,670.28 310.13,1096.46l-1202.5 0c8,-84.04 12.01,-164.07 12.01,-242.1 0,-226.09 -34.02,-462.19 -100.04,-708.3 -66.03,-246.1 -194.08,-462.19 -384.16,-644.27 -188.08,-184.07 -436.18,-276.11 -740.31,-276.11 -532.22,0 -976.41,178.07 -1334.56,536.22 -356.15,358.15 -536.22,802.33 -536.22,1334.56 0,526.22 186.07,970.41 558.23,1330.56 370.15,358.15 822.34,538.22 1352.56,538.22z"/>
   <path id="_1_91" class="fil1 str0" d="M3032.76 8389l-3031.26 0 0 -58.02c274.11,0 530.22,-76.03 772.32,-226.09 240.1,-150.06 372.15,-360.15 394.17,-630.26l0 -528.22c-54.02,-194.08 -82.04,-396.17 -82.04,-602.25 0,-208.09 28.01,-406.17 82.04,-592.24l0 -4884.04c-34.02,-258.11 -172.07,-458.19 -410.17,-600.25 -238.1,-142.06 -488.2,-214.09 -750.31,-214.09l0 -52.02 3025.26 0c1136.48,4 2050.86,170.07 2741.15,500.21 688.29,330.14 1186.5,806.34 1490.62,1430.6 306.13,622.26 458.19,1376.57 458.19,2258.94 0,832.35 -150.06,1560.65 -448.19,2180.91 -300.13,622.26 -784.33,1106.46 -1454.61,1456.61 -670.28,350.15 -1552.65,534.22 -2647.11,554.23 -74.03,0 -146.06,-4 -216.09,-12 50.02,8 104.04,12 158.07,12l-82.04 6zm-94.04 -18.01l-6 0 6 0zm234.1 -158.07c1220.51,-42.02 2108.88,-480.2 2667.11,-1312.55 470.2,-700.29 704.29,-1602.67 704.29,-2709.13 0,-1132.47 -238.1,-2050.85 -716.3,-2755.15 -578.24,-846.35 -1512.63,-1270.53 -2807.17,-1270.53 -198.08,0 -368.15,70.03 -510.21,214.09 -140.06,142.06 -210.09,312.13 -210.09,512.22l0 3581.49c258.11,-118.05 534.22,-176.07 832.35,-176.07 464.19,0 880.37,82.04 1244.52,246.11 366.15,164.07 652.27,398.17 860.36,704.29 206.09,304.13 310.13,670.28 310.13,1096.46l-1202.5 0c8,-84.04 12.01,-164.07 12.01,-242.1 0,-226.09 -34.02,-462.19 -100.04,-708.3 -66.03,-246.1 -194.08,-462.19 -384.16,-644.27 -188.08,-184.07 -436.18,-276.11 -740.31,-276.11 -532.22,0 -976.41,178.07 -1334.56,536.22 -356.15,358.15 -536.22,802.33 -536.22,1334.56 0,526.22 186.07,970.41 558.23,1330.56 370.15,358.15 822.34,538.22 1352.56,538.22z"/>
  </g>
 </g>
</svg>
