<?xml version="1.0" encoding="UTF-8"?>
<!DOCTYPE svg PUBLIC "-//W3C//DTD SVG 1.1//EN" "http://www.w3.org/Graphics/SVG/1.1/DTD/svg11.dtd">
<!-- Creator: CorelDRAW -->
<svg xmlns="http://www.w3.org/2000/svg" xml:space="preserve" width="22.8914in" height="12.27in" version="1.1" style="shape-rendering:geometricPrecision; text-rendering:geometricPrecision; image-rendering:optimizeQuality; fill-rule:evenodd; clip-rule:evenodd"
viewBox="0 0 6153.72 3298.47"
 xmlns:xlink="http://www.w3.org/1999/xlink"
 xmlns:xodm="http://www.corel.com/coreldraw/odm/2003">
 <defs>
  <style type="text/css">
   <![CDATA[
    .str0 {stroke:white;stroke-width:0.81;stroke-miterlimit:2.61313}
    .fil1 {fill:none;fill-rule:nonzero}
    .fil0 {fill:white;fill-rule:nonzero}
   ]]>
  </style>
 </defs>
 <g id="Layer_x0020_1">
  <metadata id="CorelCorpID_0Corel-Layer"/>
  <g id="_1648709503072">
   <g>
    <g>
     <g>
      <path class="fil0" d="M2466 1710.24c-56.6,0 -108.55,-8.94 -155.47,-26.63 -46.92,-17.87 -84.35,-44.32 -112.28,-79.51 -28.12,-35.01 -42.08,-78.2 -42.08,-129.59l0 -469.59c-5.03,-22.16 -18.43,-39.47 -40.22,-51.76 -21.97,-12.48 -44.69,-18.62 -68.33,-18.62l0 -5.4 321.38 0 0 5.4c-23.27,0 -45.8,6.33 -67.4,18.81 -21.6,12.47 -35.01,29.79 -40.03,51.58l0 469.59c0,37.24 8.57,72.43 25.88,105.95 17.32,33.33 41.34,60.7 72.24,82.11 30.91,21.23 66.47,31.84 106.32,31.84 45.8,0 87.7,-9.87 125.5,-29.79 37.8,-19.74 67.96,-46.36 90.68,-79.51 22.53,-33.33 33.7,-70.2 33.7,-110.6l0 -483.18c-3.91,-17.5 -17.32,-31.28 -40.03,-41.52 -22.72,-10.24 -43.76,-15.27 -62.93,-15.27l0 -5.4 221.39 0 0 5.4c-19.36,0 -40.22,5.21 -62.75,15.64 -22.53,10.24 -35.75,24.02 -39.85,41.15l0 483.18c0,43.38 -11.92,82.86 -35.94,118.42 -24.02,35.75 -56.05,64.05 -96.27,85.46 -40.22,21.23 -84.72,31.84 -133.5,31.84zm1.68 -827.46l-26.63 -22.34 71.31 -163.11 76.53 48.41 -121.21 137.04z"/>
      <path id="_1" class="fil0" d="M5098.84 1710.24l-328.45 0 0 -4.84c16.01,0 33.7,-2.42 52.88,-7.08 19.36,-4.84 35.01,-12.29 46.92,-22.53 9.12,-7.63 13.78,-16.94 13.78,-28.3 0,-3.91 -0.56,-8.01 -1.68,-11.92l-100.36 -266.82 -268.5 0 -105.76 281.53c-0.75,3.54 -1.12,6.89 -1.12,9.87 0,10.05 5.21,18.81 15.83,25.88 10.61,7.08 24.76,12.1 42.83,14.9 18.06,2.98 32.96,4.47 45.06,4.47l0 4.84 -221.58 0 0 -4.84c18.25,0 36.87,-4.28 55.67,-12.85 18.99,-8.57 34.63,-23.09 46.92,-43.38 16.01,-42.64 36.49,-96.82 61.45,-162.92 24.76,-65.91 49.9,-132.57 75.22,-200.16 25.32,-67.4 46.74,-124.57 64.05,-171.3 17.5,-46.74 27,-72.43 28.49,-77.09 2.42,-10.24 3.72,-19.74 3.72,-28.49 0,-11.54 -3.35,-23.27 -10.06,-35.19 -6.7,-11.73 -17.69,-21.23 -32.77,-28.3 -15.08,-7.08 -29.61,-10.61 -43.38,-10.61l-2.24 0 0 -5.4 193.27 0 261.79 697.13c22.9,52.32 58.84,78.58 107.99,78.58l0 4.84zm-322.87 -357.31l-128.29 -341.49 -128.66 341.49 256.95 0z"/>
      <path id="_2" class="fil0" d="M3076.92 1710.24c-32.58,0 -63.12,-5.96 -91.61,-18.06 -28.3,-11.92 -53.07,-28.49 -74.11,-49.53l0 0.56c-9.87,-9.87 -18.81,-14.71 -26.81,-14.71 -5.4,0 -12.47,3.72 -21.23,11.36 -8.75,7.63 -13.03,22.16 -13.03,43.57l-5.03 0 0 -247.64 5.03 0c0.75,28.49 6.52,62.19 17.32,101.48 16.39,46.92 42.45,84.91 78.39,114.14 35.75,29.05 78.2,43.57 127.36,43.57l3.72 0c39.66,-2.23 72.99,-13.41 99.99,-33.52 26.81,-20.3 46.55,-45.43 58.84,-75.6 9.87,-24.02 14.71,-48.41 14.71,-73.18 0,-6.52 -0.37,-13.03 -1.12,-19.55 -0.75,-10.61 -5.4,-26.63 -13.78,-48.04 -8.57,-21.41 -26.07,-43.2 -52.13,-65.35 -26.25,-22.16 -65.91,-40.03 -118.98,-53.44l-1.12 0 1.12 0c-135.92,-33.89 -207.61,-106.5 -214.87,-217.67l0 -7.63c0,-30.91 8.19,-59.4 24.76,-85.09 16.57,-25.88 42.08,-46.74 76.34,-62.56 34.45,-15.83 76.53,-23.65 126.24,-23.65 44.87,0 83.98,13.59 117.31,40.78l0 -0.56c8.38,7.08 16.57,10.43 24.58,10.43 5.77,0 13.41,-2.98 22.9,-9.31 9.5,-6.14 14.15,-19.92 14.15,-41.34l5.59 0 0 242.06 -5.59 0c-0.37,-17.32 -2.98,-40.78 -7.82,-70.01 -4.84,-29.23 -13.97,-55.86 -27,-79.88 -15.64,-22.9 -35.94,-41.52 -61.07,-55.67 -25.14,-14.15 -52.69,-21.23 -83.04,-21.23 -46.74,3.54 -81.37,21.23 -103.53,52.88 -15.64,22.53 -23.46,47.48 -23.46,74.67 0,11.73 1.49,23.65 4.28,36.12 7.26,26.07 18.81,47.29 34.63,63.49 15.83,16.2 32.96,28.49 51.39,37.05 18.25,8.57 34.63,14.34 48.78,17.13 102.22,30.91 174.09,72.8 215.99,125.5 32.4,41.52 48.6,86.21 48.6,134.25 0,39.66 -11.36,76.53 -33.89,110.42 -22.53,34.07 -54.56,61.45 -95.89,82.49 -41.52,20.85 -90.49,31.28 -146.91,31.28z"/>
      <path id="_3" class="fil0" d="M3699.38 1710.24l-321.38 0 0 -4.84c25.51,0 49.53,-7.26 72.24,-21.6 22.9,-14.34 35.01,-34.45 36.87,-60.33l0 -606.63c-1.86,-25.69 -13.97,-45.8 -36.87,-60.14 -22.72,-14.34 -46.73,-21.6 -72.24,-21.6l0 -4.84 321.38 0 0 4.84c-24.76,0 -48.23,7.26 -70.57,21.6 -22.53,14.34 -34.82,34.07 -36.87,59.21l0 608.68c2.05,25.14 14.34,44.87 36.87,59.21 22.34,14.34 45.8,21.6 70.57,21.6l0 4.84z"/>
      <path id="_4" class="fil0" d="M4076.8 1710.24c-67.96,0 -129.78,-17.5 -185.27,-52.69 -55.3,-35.01 -99.43,-82.11 -132.2,-141.14 -32.77,-59.21 -49.16,-124.57 -49.16,-196.25 0,-71.87 16.39,-137.41 49.16,-196.62 32.77,-59.03 77.09,-106.13 133.13,-141.32 56.05,-35.01 119.17,-52.51 189.74,-52.51 45.8,0 92.35,12.1 139.65,36.5 18.25,8.75 34.82,13.03 49.72,13.03 7.63,0 18.25,-2.23 31.65,-6.7 13.41,-4.66 20.11,-18.81 20.11,-42.83l5.59 0 0 203.89 -5.59 0c-0.37,-22.9 -7.63,-47.29 -21.79,-73.55 -22.53,-34.26 -53.44,-61.07 -92.73,-80.81 -39.29,-19.55 -81.37,-29.42 -126.61,-29.42 -32.58,0 -64.42,8.94 -95.15,27 -30.72,18.06 -58.28,43.38 -82.86,76.16 -24.58,32.77 -44.13,71.69 -59.02,116.93 -14.71,45.25 -21.97,95.33 -21.97,150.26 0,72.06 11.36,135.92 34.07,191.78 22.72,55.86 53.25,99.43 91.42,130.9 38.17,31.47 80.81,47.29 128.1,47.29 38.54,0 74.11,-9.12 106.69,-27.37 32.58,-18.25 60.89,-41.71 85.09,-70.94 24.21,-29.05 43.2,-60.7 56.98,-94.77l16.94 0c-13.78,41.34 -33.7,78.02 -59.77,110.04 -26.07,32.03 -56.79,57.16 -92.17,75.6 -35.56,18.43 -73.36,27.56 -113.77,27.56z"/>
      <path id="_5" class="fil1 str0" d="M2466 1710.24c-56.6,0 -108.55,-8.94 -155.47,-26.63 -46.92,-17.87 -84.35,-44.32 -112.28,-79.51 -28.12,-35.01 -42.08,-78.2 -42.08,-129.59l0 -469.59c-5.03,-22.16 -18.43,-39.47 -40.22,-51.76 -21.97,-12.48 -44.69,-18.62 -68.33,-18.62l0 -5.4 321.38 0 0 5.4c-23.27,0 -45.8,6.33 -67.4,18.81 -21.6,12.47 -35.01,29.79 -40.03,51.58l0 469.59c0,37.24 8.57,72.43 25.88,105.95 17.32,33.33 41.34,60.7 72.24,82.11 30.91,21.23 66.47,31.84 106.32,31.84 45.8,0 87.7,-9.87 125.5,-29.79 37.8,-19.74 67.96,-46.36 90.68,-79.51 22.53,-33.33 33.7,-70.2 33.7,-110.6l0 -483.18c-3.91,-17.5 -17.32,-31.28 -40.03,-41.52 -22.72,-10.24 -43.76,-15.27 -62.93,-15.27l0 -5.4 221.39 0 0 5.4c-19.36,0 -40.22,5.21 -62.75,15.64 -22.53,10.24 -35.75,24.02 -39.85,41.15l0 483.18c0,43.38 -11.92,82.86 -35.94,118.42 -24.02,35.75 -56.05,64.05 -96.27,85.46 -40.22,21.23 -84.72,31.84 -133.5,31.84zm1.68 -827.46l-26.63 -22.34 71.31 -163.11 76.53 48.41 -121.21 137.04z"/>
      <path id="_6" class="fil1 str0" d="M5098.84 1710.24l-328.45 0 0 -4.84c16.01,0 33.7,-2.42 52.88,-7.08 19.36,-4.84 35.01,-12.29 46.92,-22.53 9.12,-7.63 13.78,-16.94 13.78,-28.3 0,-3.91 -0.56,-8.01 -1.68,-11.92l-100.36 -266.82 -268.5 0 -105.76 281.53c-0.75,3.54 -1.12,6.89 -1.12,9.87 0,10.05 5.21,18.81 15.83,25.88 10.61,7.08 24.76,12.1 42.83,14.9 18.06,2.98 32.96,4.47 45.06,4.47l0 4.84 -221.58 0 0 -4.84c18.25,0 36.87,-4.28 55.67,-12.85 18.99,-8.57 34.63,-23.09 46.92,-43.38 16.01,-42.64 36.49,-96.82 61.45,-162.92 24.76,-65.91 49.9,-132.57 75.22,-200.16 25.32,-67.4 46.74,-124.57 64.05,-171.3 17.5,-46.74 27,-72.43 28.49,-77.09 2.42,-10.24 3.72,-19.74 3.72,-28.49 0,-11.54 -3.35,-23.27 -10.06,-35.19 -6.7,-11.73 -17.69,-21.23 -32.77,-28.3 -15.08,-7.08 -29.61,-10.61 -43.38,-10.61l-2.24 0 0 -5.4 193.27 0 261.79 697.13c22.9,52.32 58.84,78.58 107.99,78.58l0 4.84zm-322.87 -357.31l-128.29 -341.49 -128.66 341.49 256.95 0z"/>
      <path id="_7" class="fil1 str0" d="M3076.92 1710.24c-32.58,0 -63.12,-5.96 -91.61,-18.06 -28.3,-11.92 -53.07,-28.49 -74.11,-49.53l0 0.56c-9.87,-9.87 -18.81,-14.71 -26.81,-14.71 -5.4,0 -12.47,3.72 -21.23,11.36 -8.75,7.63 -13.03,22.16 -13.03,43.57l-5.03 0 0 -247.64 5.03 0c0.75,28.49 6.52,62.19 17.32,101.48 16.39,46.92 42.45,84.91 78.39,114.14 35.75,29.05 78.2,43.57 127.36,43.57l3.72 0c39.66,-2.23 72.99,-13.41 99.99,-33.52 26.81,-20.3 46.55,-45.43 58.84,-75.6 9.87,-24.02 14.71,-48.41 14.71,-73.18 0,-6.52 -0.37,-13.03 -1.12,-19.55 -0.75,-10.61 -5.4,-26.63 -13.78,-48.04 -8.57,-21.41 -26.07,-43.2 -52.13,-65.35 -26.25,-22.16 -65.91,-40.03 -118.98,-53.44l-1.12 0 1.12 0c-135.92,-33.89 -207.61,-106.5 -214.87,-217.67l0 -7.63c0,-30.91 8.19,-59.4 24.76,-85.09 16.57,-25.88 42.08,-46.74 76.34,-62.56 34.45,-15.83 76.53,-23.65 126.24,-23.65 44.87,0 83.98,13.59 117.31,40.78l0 -0.56c8.38,7.08 16.57,10.43 24.58,10.43 5.77,0 13.41,-2.98 22.9,-9.31 9.5,-6.14 14.15,-19.92 14.15,-41.34l5.59 0 0 242.06 -5.59 0c-0.37,-17.32 -2.98,-40.78 -7.82,-70.01 -4.84,-29.23 -13.97,-55.86 -27,-79.88 -15.64,-22.9 -35.94,-41.52 -61.07,-55.67 -25.14,-14.15 -52.69,-21.23 -83.04,-21.23 -46.74,3.54 -81.37,21.23 -103.53,52.88 -15.64,22.53 -23.46,47.48 -23.46,74.67 0,11.73 1.49,23.65 4.28,36.12 7.26,26.07 18.81,47.29 34.63,63.49 15.83,16.2 32.96,28.49 51.39,37.05 18.25,8.57 34.63,14.34 48.78,17.13 102.22,30.91 174.09,72.8 215.99,125.5 32.4,41.52 48.6,86.21 48.6,134.25 0,39.66 -11.36,76.53 -33.89,110.42 -22.53,34.07 -54.56,61.45 -95.89,82.49 -41.52,20.85 -90.49,31.28 -146.91,31.28z"/>
      <path id="_8" class="fil1 str0" d="M3699.38 1710.24l-321.38 0 0 -4.84c25.51,0 49.53,-7.26 72.24,-21.6 22.9,-14.34 35.01,-34.45 36.87,-60.33l0 -606.63c-1.86,-25.69 -13.97,-45.8 -36.87,-60.14 -22.72,-14.34 -46.73,-21.6 -72.24,-21.6l0 -4.84 321.38 0 0 4.84c-24.76,0 -48.23,7.26 -70.57,21.6 -22.53,14.34 -34.82,34.07 -36.87,59.21l0 608.68c2.05,25.14 14.34,44.87 36.87,59.21 22.34,14.34 45.8,21.6 70.57,21.6l0 4.84z"/>
      <path id="_9" class="fil1 str0" d="M4076.8 1710.24c-67.96,0 -129.78,-17.5 -185.27,-52.69 -55.3,-35.01 -99.43,-82.11 -132.2,-141.14 -32.77,-59.21 -49.16,-124.57 -49.16,-196.25 0,-71.87 16.39,-137.41 49.16,-196.62 32.77,-59.03 77.09,-106.13 133.13,-141.32 56.05,-35.01 119.17,-52.51 189.74,-52.51 45.8,0 92.35,12.1 139.65,36.5 18.25,8.75 34.82,13.03 49.72,13.03 7.63,0 18.25,-2.23 31.65,-6.7 13.41,-4.66 20.11,-18.81 20.11,-42.83l5.59 0 0 203.89 -5.59 0c-0.37,-22.9 -7.63,-47.29 -21.79,-73.55 -22.53,-34.26 -53.44,-61.07 -92.73,-80.81 -39.29,-19.55 -81.37,-29.42 -126.61,-29.42 -32.58,0 -64.42,8.94 -95.15,27 -30.72,18.06 -58.28,43.38 -82.86,76.16 -24.58,32.77 -44.13,71.69 -59.02,116.93 -14.71,45.25 -21.97,95.33 -21.97,150.26 0,72.06 11.36,135.92 34.07,191.78 22.72,55.86 53.25,99.43 91.42,130.9 38.17,31.47 80.81,47.29 128.1,47.29 38.54,0 74.11,-9.12 106.69,-27.37 32.58,-18.25 60.89,-41.71 85.09,-70.94 24.21,-29.05 43.2,-60.7 56.98,-94.77l16.94 0c-13.78,41.34 -33.7,78.02 -59.77,110.04 -26.07,32.03 -56.79,57.16 -92.17,75.6 -35.56,18.43 -73.36,27.56 -113.77,27.56z"/>
      <path class="fil0" d="M1061.68 1710.23l-350.11 0 0 -7.68c31.59,-0.59 65.83,-9.45 102.73,-26.86 36.9,-17.42 56.97,-40.74 59.63,-69.96l0 -169.74 25.09 0 0 169.74c3.54,29.23 23.62,52.55 60.22,69.96 36.61,17.42 70.85,26.27 102.44,26.86l0 7.68zm1065.4 0l-509.23 0 0 -7.68c27.16,0 54.02,-5.31 80.3,-15.94 26.57,-10.92 48.41,-25.68 65.83,-45.17 17.42,-19.19 25.98,-42.8 25.98,-70.55l0 -1031.74 -448.12 1171.08 -33.65 -86.5c-23.03,-56.97 -52.25,-129.3 -87.38,-216.98 -35.13,-87.68 -71.74,-179.78 -109.82,-276.02 -145.24,125.76 -279.56,190.11 -402.96,193.06l-0.89 0c-171.22,-3.54 -289.3,-89.45 -353.66,-258.01 -20.96,-58.75 -31.29,-116.61 -31.29,-173.58 0,-38.08 7.97,-89.74 23.32,-154.98 15.65,-64.95 57.57,-126.64 125.46,-185.09 63.47,-52.84 140.22,-79.41 229.97,-79.41l345.98 0 197.2 518.09c109.52,-119.56 215.8,-246.5 318.23,-381.41 92.99,-120.74 183.91,-230.85 273.36,-330.33 165.61,-185.68 321.18,-278.67 467.02,-278.67 63.47,0 116.02,19.19 157.34,57.27 22.14,22.44 37.79,48.12 47.82,76.75 6.79,21.25 10.33,42.81 10.33,64.06 0,9.15 -1.48,24.21 -4.43,44.58 -2.95,20.37 -15.35,40.74 -37.2,60.81 -16.24,12.69 -31.88,19.19 -47.53,19.19 -7.38,0 -18.89,-2.95 -34.24,-9.15 -15.35,-5.9 -24.21,-20.37 -27.16,-42.8 0,-20.66 6.49,-36.61 19.48,-47.53 12.99,-10.92 27.75,-19.78 44.58,-26.86 14.47,-6.79 26.27,-14.17 35.72,-22.14 9.74,-7.68 14.46,-17.12 14.46,-28.04l0 -5.9c-8.86,-25.98 -21.85,-47.82 -38.97,-65.83 -42.21,-37.49 -95.06,-56.09 -159.12,-56.09 -0.59,0 -17.71,0 -51.07,0.3 -33.36,0.3 -74.98,13.88 -124.58,41.03 -89.45,50.19 -178.3,125.17 -267.16,224.65 -88.86,99.19 -179.48,209.3 -271.59,329.75 -103.91,136.68 -211.07,265.1 -321.77,384.95l170.33 446.35 370.19 -973 338.9 0 0 8.56c-26.86,0 -53.73,5.31 -79.7,15.94 -26.27,10.63 -48.12,25.98 -64.95,45.46 -17.12,19.48 -25.68,43.1 -25.68,69.96l0 958.24c0,27.16 8.56,50.48 25.68,70.26 16.83,19.48 38.67,34.54 64.95,45.46 25.98,10.63 52.84,15.94 79.7,15.94l0 7.68zm-1403.41 -410.04c74.39,0 149.37,-20.66 225.54,-61.99 54.32,-31.88 107.16,-70.26 158.23,-115.13 -119.85,-302.88 -184.8,-465.24 -194.54,-487.68 -17.12,-38.67 -39.26,-69.37 -66.13,-91.81 -26.86,-22.44 -53.73,-38.38 -80.89,-48.12 -27.16,-9.45 -48.71,-14.17 -64.95,-14.17 -87.38,0 -162.36,25.68 -224.65,77.05 -63.47,55.2 -104.21,129 -121.92,221.4 -5.9,32.18 -8.86,64.35 -8.86,96.83 0,59.93 10.33,120.15 31.29,180.67 61.11,158.53 171.52,239.71 331.22,242.95l15.65 0z"/>
      <path id="_1_82" class="fil1 str0" d="M1061.68 1710.23l-350.11 0 0 -7.68c31.59,-0.59 65.83,-9.45 102.73,-26.86 36.9,-17.42 56.97,-40.74 59.63,-69.96l0 -169.74 25.09 0 0 169.74c3.54,29.23 23.62,52.55 60.22,69.96 36.61,17.42 70.85,26.27 102.44,26.86l0 7.68zm1065.4 0l-509.23 0 0 -7.68c27.16,0 54.02,-5.31 80.3,-15.94 26.57,-10.92 48.41,-25.68 65.83,-45.17 17.42,-19.19 25.98,-42.8 25.98,-70.55l0 -1031.74 -448.12 1171.08 -33.65 -86.5c-23.03,-56.97 -52.25,-129.3 -87.38,-216.98 -35.13,-87.68 -71.74,-179.78 -109.82,-276.02 -145.24,125.76 -279.56,190.11 -402.96,193.06l-0.89 0c-171.22,-3.54 -289.3,-89.45 -353.66,-258.01 -20.96,-58.75 -31.29,-116.61 -31.29,-173.58 0,-38.08 7.97,-89.74 23.32,-154.98 15.65,-64.95 57.57,-126.64 125.46,-185.09 63.47,-52.84 140.22,-79.41 229.97,-79.41l345.98 0 197.2 518.09c109.52,-119.56 215.8,-246.5 318.23,-381.41 92.99,-120.74 183.91,-230.85 273.36,-330.33 165.61,-185.68 321.18,-278.67 467.02,-278.67 63.47,0 116.02,19.19 157.34,57.27 22.14,22.44 37.79,48.12 47.82,76.75 6.79,21.25 10.33,42.81 10.33,64.06 0,9.15 -1.48,24.21 -4.43,44.58 -2.95,20.37 -15.35,40.74 -37.2,60.81 -16.24,12.69 -31.88,19.19 -47.53,19.19 -7.38,0 -18.89,-2.95 -34.24,-9.15 -15.35,-5.9 -24.21,-20.37 -27.16,-42.8 0,-20.66 6.49,-36.61 19.48,-47.53 12.99,-10.92 27.75,-19.78 44.58,-26.86 14.47,-6.79 26.27,-14.17 35.72,-22.14 9.74,-7.68 14.46,-17.12 14.46,-28.04l0 -5.9c-8.86,-25.98 -21.85,-47.82 -38.97,-65.83 -42.21,-37.49 -95.06,-56.09 -159.12,-56.09 -0.59,0 -17.71,0 -51.07,0.3 -33.36,0.3 -74.98,13.88 -124.58,41.03 -89.45,50.19 -178.3,125.17 -267.16,224.65 -88.86,99.19 -179.48,209.3 -271.59,329.75 -103.91,136.68 -211.07,265.1 -321.77,384.95l170.33 446.35 370.19 -973 338.9 0 0 8.56c-26.86,0 -53.73,5.31 -79.7,15.94 -26.27,10.63 -48.12,25.98 -64.95,45.46 -17.12,19.48 -25.68,43.1 -25.68,69.96l0 958.24c0,27.16 8.56,50.48 25.68,70.26 16.83,19.48 38.67,34.54 64.95,45.46 25.98,10.63 52.84,15.94 79.7,15.94l0 7.68zm-1403.41 -410.04c74.39,0 149.37,-20.66 225.54,-61.99 54.32,-31.88 107.16,-70.26 158.23,-115.13 -119.85,-302.88 -184.8,-465.24 -194.54,-487.68 -17.12,-38.67 -39.26,-69.37 -66.13,-91.81 -26.86,-22.44 -53.73,-38.38 -80.89,-48.12 -27.16,-9.45 -48.71,-14.17 -64.95,-14.17 -87.38,0 -162.36,25.68 -224.65,77.05 -63.47,55.2 -104.21,129 -121.92,221.4 -5.9,32.18 -8.86,64.35 -8.86,96.83 0,59.93 10.33,120.15 31.29,180.67 61.11,158.53 171.52,239.71 331.22,242.95l15.65 0z"/>
     </g>
     <path class="fil0" d="M5331.16 1710.24l-130.1 0 0 -2.23c11.59,0 22.58,-3.26 32.98,-9.7 10.39,-6.44 16.14,-15.46 17.09,-27.05l0 -283.55c-1.63,-11.08 -7.56,-19.66 -17.69,-25.76 -10.13,-6.1 -20.95,-9.19 -32.37,-9.19l0 -2.49 130.1 0c48.78,0.17 88.02,7.3 117.64,21.47 29.54,14.17 50.92,34.69 63.97,61.48 13.14,26.88 19.66,59.25 19.66,97.12 0,36.07 -6.61,67.58 -19.92,94.63 -13.22,26.96 -34.69,47.92 -64.23,62.77 -29.63,14.86 -68.7,22.33 -117.13,22.5zm-0.52 -7.04c55.04,-0.51 94.89,-18.72 119.53,-54.61 20.95,-30.31 31.43,-69.73 31.43,-118.25 0,-48.78 -10.13,-88.19 -30.48,-118.25 -24.82,-36.32 -64.92,-54.53 -120.48,-54.53 -8.5,0 -15.89,3.01 -21.98,9.02 -6.18,6.01 -9.19,13.4 -9.19,22.15l0 283.29c0,8.5 3.01,15.89 9.19,21.98 6.1,6.1 13.48,9.19 21.98,9.19z"/>
     <path id="_1_83" class="fil0" d="M5826.72 1710.24l-283.03 0 0 -2.23c11.08,0 21.73,-3.09 31.86,-9.1 10.13,-6.01 16.14,-14.43 17.95,-25.16l0 -286.81c-1.8,-10.56 -7.81,-18.89 -17.95,-24.99 -10.13,-6.1 -20.78,-9.19 -31.86,-9.19l0 -2.23 268.95 0 4.81 73.42 -2.32 0c0,-6.87 -2.06,-15.11 -6.36,-24.64 -4.29,-9.53 -10.91,-18.38 -19.75,-26.45 -8.93,-7.99 -20.35,-13.05 -34.26,-15.03l-85.79 0c-7.39,0 -13.65,2.58 -18.98,7.73 -5.24,5.24 -7.9,11.59 -7.9,19.15l0 141.86 89.82 0c8.07,-1.8 14.43,-7.9 19.06,-18.38 4.72,-10.39 7.13,-20.01 7.3,-28.85l2.32 0 0 102.1 -2.32 0c-0.17,-9.02 -2.58,-18.81 -7.3,-29.2 -4.64,-10.39 -10.99,-16.49 -19.06,-18.38l-89.82 0 0 137.91c0,8.67 3.01,16.14 9.19,22.24 6.1,6.1 13.57,9.19 22.24,9.19l88.02 0c14,-2.32 25.93,-8.76 35.98,-19.15 10.13,-10.39 17.86,-21.55 23.27,-33.4 5.49,-11.94 8.24,-21.38 8.24,-28.42l2.49 0 -4.81 88.02z"/>
     <path id="_2_84" class="fil1 str0" d="M5331.16 1710.24l-130.1 0 0 -2.23c11.59,0 22.58,-3.26 32.98,-9.7 10.39,-6.44 16.14,-15.46 17.09,-27.05l0 -283.55c-1.63,-11.08 -7.56,-19.66 -17.69,-25.76 -10.13,-6.1 -20.95,-9.19 -32.37,-9.19l0 -2.49 130.1 0c48.78,0.17 88.02,7.3 117.64,21.47 29.54,14.17 50.92,34.69 63.97,61.48 13.14,26.88 19.66,59.25 19.66,97.12 0,36.07 -6.61,67.58 -19.92,94.63 -13.22,26.96 -34.69,47.92 -64.23,62.77 -29.63,14.86 -68.7,22.33 -117.13,22.5zm-0.52 -7.04c55.04,-0.51 94.89,-18.72 119.53,-54.61 20.95,-30.31 31.43,-69.73 31.43,-118.25 0,-48.78 -10.13,-88.19 -30.48,-118.25 -24.82,-36.32 -64.92,-54.53 -120.48,-54.53 -8.5,0 -15.89,3.01 -21.98,9.02 -6.18,6.01 -9.19,13.4 -9.19,22.15l0 283.29c0,8.5 3.01,15.89 9.19,21.98 6.1,6.1 13.48,9.19 21.98,9.19z"/>
     <path id="_3_85" class="fil1 str0" d="M5826.72 1710.24l-283.03 0 0 -2.23c11.08,0 21.73,-3.09 31.86,-9.1 10.13,-6.01 16.14,-14.43 17.95,-25.16l0 -286.81c-1.8,-10.56 -7.81,-18.89 -17.95,-24.99 -10.13,-6.1 -20.78,-9.19 -31.86,-9.19l0 -2.23 268.95 0 4.81 73.42 -2.32 0c0,-6.87 -2.06,-15.11 -6.36,-24.64 -4.29,-9.53 -10.91,-18.38 -19.75,-26.45 -8.93,-7.99 -20.35,-13.05 -34.26,-15.03l-85.79 0c-7.39,0 -13.65,2.58 -18.98,7.73 -5.24,5.24 -7.9,11.59 -7.9,19.15l0 141.86 89.82 0c8.07,-1.8 14.43,-7.9 19.06,-18.38 4.72,-10.39 7.13,-20.01 7.3,-28.85l2.32 0 0 102.1 -2.32 0c-0.17,-9.02 -2.58,-18.81 -7.3,-29.2 -4.64,-10.39 -10.99,-16.49 -19.06,-18.38l-89.82 0 0 137.91c0,8.67 3.01,16.14 9.19,22.24 6.1,6.1 13.57,9.19 22.24,9.19l88.02 0c14,-2.32 25.93,-8.76 35.98,-19.15 10.13,-10.39 17.86,-21.55 23.27,-33.4 5.49,-11.94 8.24,-21.38 8.24,-28.42l2.49 0 -4.81 88.02z"/>
    </g>
    <path class="fil0" d="M367.03 2654.88c-67.96,0 -129.78,-17.5 -185.27,-52.69 -55.3,-35.01 -99.43,-82.11 -132.2,-141.14 -32.77,-59.21 -49.16,-124.57 -49.16,-196.25 0,-71.87 16.39,-137.41 49.16,-196.62 32.77,-59.03 77.09,-106.13 133.13,-141.32 56.05,-35.01 119.17,-52.51 189.74,-52.51 45.8,0 92.35,12.1 139.65,36.5 18.25,8.75 34.82,13.03 49.72,13.03 7.63,0 18.25,-2.23 31.65,-6.7 13.41,-4.66 20.11,-18.81 20.11,-42.83l5.59 0 0 203.89 -5.59 0c-0.37,-22.9 -7.63,-47.29 -21.79,-73.55 -22.53,-34.26 -53.44,-61.07 -92.73,-80.81 -39.29,-19.55 -81.37,-29.42 -126.61,-29.42 -32.58,0 -64.42,8.94 -95.15,27 -30.72,18.06 -58.28,43.38 -82.86,76.16 -24.58,32.77 -44.13,71.69 -59.02,116.93 -14.71,45.25 -21.97,95.33 -21.97,150.26 0,72.06 11.36,135.92 34.07,191.78 22.72,55.86 53.25,99.43 91.42,130.9 38.17,31.47 80.81,47.29 128.1,47.29 38.54,0 74.11,-9.12 106.69,-27.37 32.58,-18.25 60.89,-41.71 85.09,-70.94 24.21,-29.05 43.2,-60.7 56.98,-94.77l16.94 0c-13.78,41.34 -33.7,78.02 -59.77,110.04 -26.07,32.03 -56.79,57.16 -92.17,75.6 -35.56,18.43 -73.36,27.56 -113.77,27.56z"/>
    <path id="_1_86" class="fil0" d="M1480.49 2655.44l0 -5.4c19.36,-0.37 40.22,-6.14 62.56,-16.94 22.34,-10.99 34.63,-25.51 36.68,-43.57l0 -621.34c0,-17.13 -5.4,-32.4 -16.57,-45.99 -10.99,-13.41 -24.76,-23.83 -41.15,-31.28 -16.39,-7.45 -32.96,-11.17 -49.72,-11.17l0 -5.4 202.96 0 435.33 608.12 -0.56 -542.21c-1.86,-18.43 -13.97,-33.33 -36.31,-44.13 -22.34,-10.99 -43.2,-16.39 -62.38,-16.39l0 -5.4 213.2 0 0 5.4c-19.18,0 -39.85,5.4 -62.19,16.01 -22.16,10.8 -34.45,25.32 -37.05,43.38l0 715.75 -14.71 0 -515.95 -712.39 0 646.48c2.05,18.43 14.34,33.14 36.49,44.13 22.16,10.8 43.01,16.57 62.75,16.94l0 4.84 -213.38 0.56z"/>
    <path id="_2_87" class="fil0" d="M2590.98 2654.88c-67.96,0 -129.78,-17.5 -185.27,-52.69 -55.3,-35.01 -99.43,-82.11 -132.2,-141.14 -32.77,-59.21 -49.16,-124.57 -49.16,-196.25 0,-71.87 16.39,-137.41 49.16,-196.62 32.77,-59.03 77.09,-106.13 133.13,-141.32 56.05,-35.01 119.17,-52.51 189.74,-52.51 45.8,0 92.35,12.1 139.65,36.5 18.25,8.75 34.82,13.03 49.72,13.03 7.63,0 18.25,-2.23 31.65,-6.7 13.41,-4.66 20.11,-18.81 20.11,-42.83l5.59 0 0 203.89 -5.59 0c-0.37,-22.9 -7.63,-47.29 -21.79,-73.55 -22.53,-34.26 -53.44,-61.07 -92.73,-80.81 -39.29,-19.55 -81.37,-29.42 -126.61,-29.42 -32.58,0 -64.42,8.94 -95.15,27 -30.72,18.06 -58.28,43.38 -82.86,76.16 -24.58,32.77 -44.13,71.69 -59.02,116.93 -14.71,45.25 -21.97,95.33 -21.97,150.26 0,72.06 11.36,135.92 34.07,191.78 22.72,55.86 53.25,99.43 91.42,130.9 38.17,31.47 80.81,47.29 128.1,47.29 38.54,0 74.11,-9.12 106.69,-27.37 32.58,-18.25 60.89,-41.71 85.09,-70.94 24.21,-29.05 43.2,-60.7 56.98,-94.77l16.94 0c-13.78,41.34 -33.7,78.02 -59.77,110.04 -26.07,32.03 -56.79,57.16 -92.17,75.6 -35.56,18.43 -73.36,27.56 -113.77,27.56z"/>
    <path id="_3_88" class="fil0" d="M3213.62 2654.88l-321.38 0 0 -4.84c25.51,0 49.53,-7.26 72.24,-21.6 22.9,-14.34 35.01,-34.45 36.87,-60.33l0 -606.63c-1.86,-25.69 -13.97,-45.8 -36.87,-60.14 -22.72,-14.34 -46.73,-21.6 -72.24,-21.6l0 -4.84 321.38 0 0 4.84c-24.76,0 -48.23,7.26 -70.57,21.6 -22.53,14.34 -34.82,34.07 -36.87,59.21l0 608.68c2.05,25.14 14.34,44.87 36.87,59.21 22.34,14.34 45.8,21.6 70.57,21.6l0 4.84z"/>
    <path id="_4_89" class="fil0" d="M3882.82 2654.88l-613.71 0 0 -4.84c24.02,0 47.11,-6.7 69.08,-19.74 21.97,-13.03 35.01,-31.28 38.92,-54.56l0 -621.9c-3.91,-22.9 -16.94,-40.96 -38.92,-54.18 -21.97,-13.22 -45.06,-19.92 -69.08,-19.92l0 -4.84 583.17 0 10.43 159.2 -5.03 0c0,-14.9 -4.47,-32.77 -13.78,-53.44 -9.31,-20.67 -23.65,-39.85 -42.83,-57.35 -19.36,-17.32 -44.13,-28.3 -74.29,-32.58l-186.01 0c-16.01,0 -29.61,5.59 -41.15,16.76 -11.36,11.36 -17.13,25.14 -17.13,41.52l0 307.6 194.76 0c17.5,-3.91 31.28,-17.13 41.34,-39.85 10.24,-22.53 15.46,-43.38 15.83,-62.56l5.03 0 0 221.39 -5.03 0c-0.37,-19.55 -5.59,-40.78 -15.83,-63.31 -10.05,-22.53 -23.83,-35.75 -41.34,-39.85l-194.76 0 0 299.03c0,18.81 6.52,35.01 19.92,48.23 13.22,13.22 29.42,19.92 48.23,19.92l190.85 0c30.35,-5.03 56.23,-18.99 78.02,-41.52 21.97,-22.53 38.73,-46.73 50.46,-72.43 11.92,-25.88 17.88,-46.36 17.88,-61.63l5.4 0 -10.43 190.85z"/>
    <path id="_5_90" class="fil0" d="M4632.26 2656l-326.78 0 0 -4.84c17.13,0 34.63,-2.61 52.69,-7.45 18.06,-4.84 32.21,-13.22 42.83,-24.76 7.26,-8.75 10.99,-19.74 10.99,-32.77 0,-5.4 -0.56,-11.17 -1.68,-16.94l0.56 0c-7.26,-46.18 -18.43,-92.54 -33.52,-139.28 -15.27,-46.74 -38.17,-86.4 -69.08,-118.98 -30.91,-32.58 -73.92,-50.65 -128.85,-54.37l-56.05 0 0 313.74c1.86,25.14 13.78,44.87 36.31,59.21 22.34,14.34 45.99,21.6 71.13,21.6l0 4.84 -321.38 0 0 -4.84c25.51,0 49.53,-7.45 72.24,-21.97 22.9,-14.52 34.82,-34.45 36.31,-59.96l0 -614.83c-3.91,-22.9 -16.76,-40.96 -38.73,-54.18 -21.79,-13.22 -44.69,-19.92 -68.71,-19.92l0 -5.03 362.15 0c49.16,0 94.03,6.89 134.81,20.48 40.78,13.78 73.18,34.63 97.38,62.75 24.21,28.3 36.31,64.05 36.31,107.25 0,30.54 -6.14,57.16 -18.62,79.69 -25.32,47.29 -66.66,79.13 -123.82,95.33 -32.96,9.87 -62.56,14.9 -88.26,14.9 48.23,14.15 86.77,38.36 115.63,72.8 28.67,34.26 50.46,73.18 65.35,116.37 14.9,43.38 26.25,85.65 33.89,127.17 7.26,21.41 20.67,40.03 40.4,55.67 19.55,15.64 41.71,23.46 66.47,23.46l0 4.84zm-359.55 -415.22c32.77,0 61.45,-8.57 86.02,-25.88 24.58,-17.32 43.57,-39.29 57.35,-66.29 13.59,-26.81 20.3,-54.56 20.3,-82.86 0,-27.56 -6.7,-54.93 -20.11,-81.74 -13.41,-27 -32.4,-49.16 -56.98,-66.66 -24.58,-17.5 -53.44,-26.07 -86.58,-26.07l-83.97 0c-18.06,0 -33.52,6.33 -46.36,18.99 -12.66,12.66 -18.99,28.12 -18.99,46.36l0 284.14 149.33 0z"/>
    <path id="_6_91" class="fil0" d="M1068.99 2654.88c-71.69,0 -137.04,-17.5 -196.07,-52.69 -59.02,-35.01 -106.13,-82.11 -140.95,-140.95 -35.01,-58.84 -52.51,-124.38 -52.51,-196.44 0,-71.5 17.5,-136.86 52.51,-195.69 34.82,-59.02 81.93,-105.95 140.95,-141.14 59.02,-35.01 124.38,-52.69 196.07,-52.69 72.06,0 137.41,17.69 196.44,52.69 58.84,35.19 105.95,82.11 140.95,141.14 35.19,58.84 52.69,124.19 52.69,195.69 0,72.06 -17.5,137.6 -52.69,196.44 -35.01,58.84 -82.11,105.95 -140.95,140.95 -59.02,35.19 -124.38,52.69 -196.44,52.69zm0 -15.83c38.91,0 75.41,-10.61 109.48,-31.65 33.89,-21.04 63.68,-49.34 89.38,-84.72 25.69,-35.56 45.8,-75.6 60.33,-120.1 14.52,-44.5 21.79,-90.49 21.79,-137.79 0,-46.92 -7.26,-92.73 -21.79,-137.41 -14.52,-44.69 -34.63,-84.91 -60.33,-120.47 -25.7,-35.75 -55.49,-64.05 -89.38,-85.09 -34.07,-21.23 -70.57,-31.65 -109.48,-31.65 -38.54,0 -74.85,10.43 -108.74,31.65 -34.07,21.04 -63.87,49.34 -89.56,85.09 -25.51,35.56 -45.8,75.78 -60.51,120.47 -14.71,44.69 -22.16,90.49 -22.16,137.41 0,47.29 7.45,93.28 22.16,137.79 14.71,44.5 35.01,84.53 60.51,120.1 25.7,35.38 55.49,63.68 89.56,84.72 33.89,21.04 70.2,31.65 108.74,31.65z"/>
    <path id="_7_92" class="fil0" d="M5144.68 2654.88l-321.19 0 0 -4.84c25.32,0 49.53,-7.26 72.24,-21.6 22.72,-14.34 34.82,-34.45 36.31,-60.33l0 -677.95 -171.3 0c-30.16,5.03 -56.23,18.81 -78.02,41.15 -21.79,22.34 -38.54,46.36 -50.27,72.25 -11.54,25.88 -17.5,46.36 -17.88,61.63l-5.03 0 10.43 -190.85 732.13 0 10.8 190.85 -5.4 0c0,-15.27 -5.96,-35.75 -17.69,-61.63 -11.92,-25.88 -28.67,-49.9 -50.27,-72.25 -21.6,-22.34 -47.67,-36.12 -78.2,-41.15l-174.09 0 0 679.06c1.86,25.14 13.96,44.87 36.31,59.21 22.34,14.34 46.18,21.6 71.13,21.6l0 4.84z"/>
    <path id="_8_93" class="fil0" d="M5763.23 2654.88c-71.69,0 -137.04,-17.5 -196.07,-52.69 -59.02,-35.01 -106.13,-82.11 -140.95,-140.95 -35.01,-58.84 -52.51,-124.38 -52.51,-196.44 0,-71.5 17.5,-136.86 52.51,-195.69 34.82,-59.02 81.93,-105.95 140.95,-141.14 59.02,-35.01 124.38,-52.69 196.07,-52.69 72.06,0 137.41,17.69 196.44,52.69 58.84,35.19 105.95,82.11 140.95,141.14 35.19,58.84 52.69,124.19 52.69,195.69 0,72.06 -17.5,137.6 -52.69,196.44 -35.01,58.84 -82.11,105.95 -140.95,140.95 -59.02,35.19 -124.38,52.69 -196.44,52.69zm0 -15.83c38.91,0 75.41,-10.61 109.48,-31.65 33.89,-21.04 63.68,-49.34 89.38,-84.72 25.69,-35.56 45.8,-75.6 60.33,-120.1 14.52,-44.5 21.79,-90.49 21.79,-137.79 0,-46.92 -7.26,-92.73 -21.79,-137.41 -14.52,-44.69 -34.63,-84.91 -60.33,-120.47 -25.7,-35.75 -55.49,-64.05 -89.38,-85.09 -34.07,-21.23 -70.57,-31.65 -109.48,-31.65 -38.54,0 -74.85,10.43 -108.74,31.65 -34.07,21.04 -63.87,49.34 -89.56,85.09 -25.51,35.56 -45.8,75.78 -60.51,120.47 -14.71,44.69 -22.16,90.49 -22.16,137.41 0,47.29 7.45,93.28 22.16,137.79 14.71,44.5 35.01,84.53 60.51,120.1 25.7,35.38 55.49,63.68 89.56,84.72 33.89,21.04 70.2,31.65 108.74,31.65z"/>
    <path id="_9_94" class="fil1 str0" d="M367.03 2654.88c-67.96,0 -129.78,-17.5 -185.27,-52.69 -55.3,-35.01 -99.43,-82.11 -132.2,-141.14 -32.77,-59.21 -49.16,-124.57 -49.16,-196.25 0,-71.87 16.39,-137.41 49.16,-196.62 32.77,-59.03 77.09,-106.13 133.13,-141.32 56.05,-35.01 119.17,-52.51 189.74,-52.51 45.8,0 92.35,12.1 139.65,36.5 18.25,8.75 34.82,13.03 49.72,13.03 7.63,0 18.25,-2.23 31.65,-6.7 13.41,-4.66 20.11,-18.81 20.11,-42.83l5.59 0 0 203.89 -5.59 0c-0.37,-22.9 -7.63,-47.29 -21.79,-73.55 -22.53,-34.26 -53.44,-61.07 -92.73,-80.81 -39.29,-19.55 -81.37,-29.42 -126.61,-29.42 -32.58,0 -64.42,8.94 -95.15,27 -30.72,18.06 -58.28,43.38 -82.86,76.16 -24.58,32.77 -44.13,71.69 -59.02,116.93 -14.71,45.25 -21.97,95.33 -21.97,150.26 0,72.06 11.36,135.92 34.07,191.78 22.72,55.86 53.25,99.43 91.42,130.9 38.17,31.47 80.81,47.29 128.1,47.29 38.54,0 74.11,-9.12 106.69,-27.37 32.58,-18.25 60.89,-41.71 85.09,-70.94 24.21,-29.05 43.2,-60.7 56.98,-94.77l16.94 0c-13.78,41.34 -33.7,78.02 -59.77,110.04 -26.07,32.03 -56.79,57.16 -92.17,75.6 -35.56,18.43 -73.36,27.56 -113.77,27.56z"/>
    <path id="_10" class="fil1 str0" d="M1480.49 2655.44l0 -5.4c19.36,-0.37 40.22,-6.14 62.56,-16.94 22.34,-10.99 34.63,-25.51 36.68,-43.57l0 -621.34c0,-17.13 -5.4,-32.4 -16.57,-45.99 -10.99,-13.41 -24.76,-23.83 -41.15,-31.28 -16.39,-7.45 -32.96,-11.17 -49.72,-11.17l0 -5.4 202.96 0 435.33 608.12 -0.56 -542.21c-1.86,-18.43 -13.97,-33.33 -36.31,-44.13 -22.34,-10.99 -43.2,-16.39 -62.38,-16.39l0 -5.4 213.2 0 0 5.4c-19.18,0 -39.85,5.4 -62.19,16.01 -22.16,10.8 -34.45,25.32 -37.05,43.38l0 715.75 -14.71 0 -515.95 -712.39 0 646.48c2.05,18.43 14.34,33.14 36.49,44.13 22.16,10.8 43.01,16.57 62.75,16.94l0 4.84 -213.38 0.56z"/>
    <path id="_11" class="fil1 str0" d="M2590.98 2654.88c-67.96,0 -129.78,-17.5 -185.27,-52.69 -55.3,-35.01 -99.43,-82.11 -132.2,-141.14 -32.77,-59.21 -49.16,-124.57 -49.16,-196.25 0,-71.87 16.39,-137.41 49.16,-196.62 32.77,-59.03 77.09,-106.13 133.13,-141.32 56.05,-35.01 119.17,-52.51 189.74,-52.51 45.8,0 92.35,12.1 139.65,36.5 18.25,8.75 34.82,13.03 49.72,13.03 7.63,0 18.25,-2.23 31.65,-6.7 13.41,-4.66 20.11,-18.81 20.11,-42.83l5.59 0 0 203.89 -5.59 0c-0.37,-22.9 -7.63,-47.29 -21.79,-73.55 -22.53,-34.26 -53.44,-61.07 -92.73,-80.81 -39.29,-19.55 -81.37,-29.42 -126.61,-29.42 -32.58,0 -64.42,8.94 -95.15,27 -30.72,18.06 -58.28,43.38 -82.86,76.16 -24.58,32.77 -44.13,71.69 -59.02,116.93 -14.71,45.25 -21.97,95.33 -21.97,150.26 0,72.06 11.36,135.92 34.07,191.78 22.72,55.86 53.25,99.43 91.42,130.9 38.17,31.47 80.81,47.29 128.1,47.29 38.54,0 74.11,-9.12 106.69,-27.37 32.58,-18.25 60.89,-41.71 85.09,-70.94 24.21,-29.05 43.2,-60.7 56.98,-94.77l16.94 0c-13.78,41.34 -33.7,78.02 -59.77,110.04 -26.07,32.03 -56.79,57.16 -92.17,75.6 -35.56,18.43 -73.36,27.56 -113.77,27.56z"/>
    <path id="_12" class="fil1 str0" d="M3213.62 2654.88l-321.38 0 0 -4.84c25.51,0 49.53,-7.26 72.24,-21.6 22.9,-14.34 35.01,-34.45 36.87,-60.33l0 -606.63c-1.86,-25.69 -13.97,-45.8 -36.87,-60.14 -22.72,-14.34 -46.73,-21.6 -72.24,-21.6l0 -4.84 321.38 0 0 4.84c-24.76,0 -48.23,7.26 -70.57,21.6 -22.53,14.34 -34.82,34.07 -36.87,59.21l0 608.68c2.05,25.14 14.34,44.87 36.87,59.21 22.34,14.34 45.8,21.6 70.57,21.6l0 4.84z"/>
    <path id="_13" class="fil1 str0" d="M3882.82 2654.88l-613.71 0 0 -4.84c24.02,0 47.11,-6.7 69.08,-19.74 21.97,-13.03 35.01,-31.28 38.92,-54.56l0 -621.9c-3.91,-22.9 -16.94,-40.96 -38.92,-54.18 -21.97,-13.22 -45.06,-19.92 -69.08,-19.92l0 -4.84 583.17 0 10.43 159.2 -5.03 0c0,-14.9 -4.47,-32.77 -13.78,-53.44 -9.31,-20.67 -23.65,-39.85 -42.83,-57.35 -19.36,-17.32 -44.13,-28.3 -74.29,-32.58l-186.01 0c-16.01,0 -29.61,5.59 -41.15,16.76 -11.36,11.36 -17.13,25.14 -17.13,41.52l0 307.6 194.76 0c17.5,-3.91 31.28,-17.13 41.34,-39.85 10.24,-22.53 15.46,-43.38 15.83,-62.56l5.03 0 0 221.39 -5.03 0c-0.37,-19.55 -5.59,-40.78 -15.83,-63.31 -10.05,-22.53 -23.83,-35.75 -41.34,-39.85l-194.76 0 0 299.03c0,18.81 6.52,35.01 19.92,48.23 13.22,13.22 29.42,19.92 48.23,19.92l190.85 0c30.35,-5.03 56.23,-18.99 78.02,-41.52 21.97,-22.53 38.73,-46.73 50.46,-72.43 11.92,-25.88 17.88,-46.36 17.88,-61.63l5.4 0 -10.43 190.85z"/>
    <path id="_14" class="fil1 str0" d="M4632.26 2656l-326.78 0 0 -4.84c17.13,0 34.63,-2.61 52.69,-7.45 18.06,-4.84 32.21,-13.22 42.83,-24.76 7.26,-8.75 10.99,-19.74 10.99,-32.77 0,-5.4 -0.56,-11.17 -1.68,-16.94l0.56 0c-7.26,-46.18 -18.43,-92.54 -33.52,-139.28 -15.27,-46.74 -38.17,-86.4 -69.08,-118.98 -30.91,-32.58 -73.92,-50.65 -128.85,-54.37l-56.05 0 0 313.74c1.86,25.14 13.78,44.87 36.31,59.21 22.34,14.34 45.99,21.6 71.13,21.6l0 4.84 -321.38 0 0 -4.84c25.51,0 49.53,-7.45 72.24,-21.97 22.9,-14.52 34.82,-34.45 36.31,-59.96l0 -614.83c-3.91,-22.9 -16.76,-40.96 -38.73,-54.18 -21.79,-13.22 -44.69,-19.92 -68.71,-19.92l0 -5.03 362.15 0c49.16,0 94.03,6.89 134.81,20.48 40.78,13.78 73.18,34.63 97.38,62.75 24.21,28.3 36.31,64.05 36.31,107.25 0,30.54 -6.14,57.16 -18.62,79.69 -25.32,47.29 -66.66,79.13 -123.82,95.33 -32.96,9.87 -62.56,14.9 -88.26,14.9 48.23,14.15 86.77,38.36 115.63,72.8 28.67,34.26 50.46,73.18 65.35,116.37 14.9,43.38 26.25,85.65 33.89,127.17 7.26,21.41 20.67,40.03 40.4,55.67 19.55,15.64 41.71,23.46 66.47,23.46l0 4.84zm-359.55 -415.22c32.77,0 61.45,-8.57 86.02,-25.88 24.58,-17.32 43.57,-39.29 57.35,-66.29 13.59,-26.81 20.3,-54.56 20.3,-82.86 0,-27.56 -6.7,-54.93 -20.11,-81.74 -13.41,-27 -32.4,-49.16 -56.98,-66.66 -24.58,-17.5 -53.44,-26.07 -86.58,-26.07l-83.97 0c-18.06,0 -33.52,6.33 -46.36,18.99 -12.66,12.66 -18.99,28.12 -18.99,46.36l0 284.14 149.33 0z"/>
    <path id="_15" class="fil1 str0" d="M1068.99 2654.88c-71.69,0 -137.04,-17.5 -196.07,-52.69 -59.02,-35.01 -106.13,-82.11 -140.95,-140.95 -35.01,-58.84 -52.51,-124.38 -52.51,-196.44 0,-71.5 17.5,-136.86 52.51,-195.69 34.82,-59.02 81.93,-105.95 140.95,-141.14 59.02,-35.01 124.38,-52.69 196.07,-52.69 72.06,0 137.41,17.69 196.44,52.69 58.84,35.19 105.95,82.11 140.95,141.14 35.19,58.84 52.69,124.19 52.69,195.69 0,72.06 -17.5,137.6 -52.69,196.44 -35.01,58.84 -82.11,105.95 -140.95,140.95 -59.02,35.19 -124.38,52.69 -196.44,52.69zm0 -15.83c38.91,0 75.41,-10.61 109.48,-31.65 33.89,-21.04 63.68,-49.34 89.38,-84.72 25.69,-35.56 45.8,-75.6 60.33,-120.1 14.52,-44.5 21.79,-90.49 21.79,-137.79 0,-46.92 -7.26,-92.73 -21.79,-137.41 -14.52,-44.69 -34.63,-84.91 -60.33,-120.47 -25.7,-35.75 -55.49,-64.05 -89.38,-85.09 -34.07,-21.23 -70.57,-31.65 -109.48,-31.65 -38.54,0 -74.85,10.43 -108.74,31.65 -34.07,21.04 -63.87,49.34 -89.56,85.09 -25.51,35.56 -45.8,75.78 -60.51,120.47 -14.71,44.69 -22.16,90.49 -22.16,137.41 0,47.29 7.45,93.28 22.16,137.79 14.71,44.5 35.01,84.53 60.51,120.1 25.7,35.38 55.49,63.68 89.56,84.72 33.89,21.04 70.2,31.65 108.74,31.65z"/>
    <path id="_16" class="fil1 str0" d="M5144.68 2654.88l-321.19 0 0 -4.84c25.32,0 49.53,-7.26 72.24,-21.6 22.72,-14.34 34.82,-34.45 36.31,-60.33l0 -677.95 -171.3 0c-30.16,5.03 -56.23,18.81 -78.02,41.15 -21.79,22.34 -38.54,46.36 -50.27,72.25 -11.54,25.88 -17.5,46.36 -17.88,61.63l-5.03 0 10.43 -190.85 732.13 0 10.8 190.85 -5.4 0c0,-15.27 -5.96,-35.75 -17.69,-61.63 -11.92,-25.88 -28.67,-49.9 -50.27,-72.25 -21.6,-22.34 -47.67,-36.12 -78.2,-41.15l-174.09 0 0 679.06c1.86,25.14 13.96,44.87 36.31,59.21 22.34,14.34 46.18,21.6 71.13,21.6l0 4.84z"/>
    <path id="_17" class="fil1 str0" d="M5763.23 2654.88c-71.69,0 -137.04,-17.5 -196.07,-52.69 -59.02,-35.01 -106.13,-82.11 -140.95,-140.95 -35.01,-58.84 -52.51,-124.38 -52.51,-196.44 0,-71.5 17.5,-136.86 52.51,-195.69 34.82,-59.02 81.93,-105.95 140.95,-141.14 59.02,-35.01 124.38,-52.69 196.07,-52.69 72.06,0 137.41,17.69 196.44,52.69 58.84,35.19 105.95,82.11 140.95,141.14 35.19,58.84 52.69,124.19 52.69,195.69 0,72.06 -17.5,137.6 -52.69,196.44 -35.01,58.84 -82.11,105.95 -140.95,140.95 -59.02,35.19 -124.38,52.69 -196.44,52.69zm0 -15.83c38.91,0 75.41,-10.61 109.48,-31.65 33.89,-21.04 63.68,-49.34 89.38,-84.72 25.69,-35.56 45.8,-75.6 60.33,-120.1 14.52,-44.5 21.79,-90.49 21.79,-137.79 0,-46.92 -7.26,-92.73 -21.79,-137.41 -14.52,-44.69 -34.63,-84.91 -60.33,-120.47 -25.7,-35.75 -55.49,-64.05 -89.38,-85.09 -34.07,-21.23 -70.57,-31.65 -109.48,-31.65 -38.54,0 -74.85,10.43 -108.74,31.65 -34.07,21.04 -63.87,49.34 -89.56,85.09 -25.51,35.56 -45.8,75.78 -60.51,120.47 -14.71,44.69 -22.16,90.49 -22.16,137.41 0,47.29 7.45,93.28 22.16,137.79 14.71,44.5 35.01,84.53 60.51,120.1 25.7,35.38 55.49,63.68 89.56,84.72 33.89,21.04 70.2,31.65 108.74,31.65z"/>
   </g>
   <path class="fil0" d="M1503.85 3297.55l-283.03 0 0 -2.23c11.08,0 21.73,-3.09 31.86,-9.1 10.13,-6.01 16.14,-14.43 17.95,-25.16l0 -286.81c-1.8,-10.56 -7.81,-18.89 -17.95,-24.99 -10.13,-6.1 -20.78,-9.19 -31.86,-9.19l0 -2.23 268.95 0 4.81 73.42 -2.32 0c0,-6.87 -2.06,-15.11 -6.36,-24.64 -4.29,-9.53 -10.91,-18.38 -19.75,-26.45 -8.93,-7.99 -20.35,-13.05 -34.26,-15.03l-85.79 0c-7.39,0 -13.65,2.58 -18.98,7.73 -5.24,5.24 -7.9,11.59 -7.9,19.15l0 141.86 89.82 0c8.07,-1.8 14.43,-7.9 19.06,-18.38 4.72,-10.39 7.13,-20.01 7.3,-28.85l2.32 0 0 102.1 -2.32 0c-0.17,-9.02 -2.58,-18.81 -7.3,-29.2 -4.64,-10.39 -10.99,-16.49 -19.06,-18.38l-89.82 0 0 137.91c0,8.67 3.01,16.14 9.19,22.24 6.1,6.1 13.57,9.19 22.24,9.19l88.02 0c14,-2.32 25.93,-8.76 35.98,-19.15 10.13,-10.39 17.86,-21.55 23.27,-33.4 5.49,-11.94 8.24,-21.38 8.24,-28.42l2.49 0 -4.81 88.02z"/>
   <path id="_1_95" class="fil0" d="M1519.91 3297.81l0 -2.49c8.93,-0.17 18.55,-2.83 28.85,-7.81 10.31,-5.07 15.97,-11.76 16.92,-20.1l0 -286.55c0,-7.9 -2.49,-14.94 -7.64,-21.21 -5.07,-6.18 -11.42,-10.99 -18.98,-14.43 -7.56,-3.44 -15.2,-5.15 -22.93,-5.15l0 -2.49 93.6 0 200.77 280.46 -0.26 -250.06c-0.86,-8.5 -6.44,-15.37 -16.75,-20.35 -10.3,-5.07 -19.92,-7.56 -28.77,-7.56l0 -2.49 98.32 0 0 2.49c-8.84,0 -18.38,2.49 -28.68,7.38 -10.22,4.98 -15.89,11.68 -17.09,20.01l0 330.09 -6.78 0 -237.95 -328.55 0 298.15c0.95,8.5 6.61,15.28 16.83,20.35 10.22,4.98 19.84,7.64 28.94,7.81l0 2.23 -98.41 0.26z"/>
   <path id="_2_96" class="fil0" d="M2144.12 3297.55l-148.22 0 0 -2.23c11.76,0 22.84,-3.35 33.32,-9.96 10.56,-6.61 16.06,-15.89 16.75,-27.82l0 -283.55c-1.8,-10.56 -7.73,-18.81 -17.86,-24.9 -10.05,-6.01 -20.61,-9.02 -31.69,-9.02l0 -2.49 174.32 0c22.67,0 43.37,3.18 62.17,9.53 18.81,6.35 33.75,16.06 44.91,29.02 11.16,13.05 16.75,29.54 16.75,49.46 0,19.92 -5.58,36.41 -16.75,49.46 -11.16,12.97 -26.1,22.67 -44.91,29.03 -18.81,6.35 -39.5,9.53 -62.17,9.53l-76.17 0 0 144.44c0.86,11.59 6.35,20.7 16.74,27.31 10.31,6.61 21.21,9.96 32.8,9.96l0 2.23zm26.62 -191.15c15.11,0 28.34,-4.04 39.67,-12.11 11.34,-8.07 20.09,-18.29 26.36,-30.57 6.35,-12.37 9.45,-25.07 9.45,-38.13 0,-12.88 -3.09,-25.59 -9.27,-37.95 -6.18,-12.45 -14.94,-22.67 -26.28,-30.74 -11.34,-8.07 -24.64,-12.02 -39.93,-12.02l-46.03 0c-8.33,0 -15.46,2.92 -21.38,8.76 -5.84,5.93 -8.76,13.05 -8.76,21.38l0 131.38 76.17 0z"/>
   <path id="_3_97" class="fil0" d="M2492.5 3297.55c-26.28,0 -50.32,-4.04 -71.88,-12.19 -21.64,-8.16 -38.9,-20.27 -51.78,-36.5 -12.8,-16.14 -19.24,-36.07 -19.24,-59.77l0 -216.57c-2.32,-10.22 -8.5,-18.2 -18.55,-23.87 -10.13,-5.75 -20.61,-8.59 -31.51,-8.59l0 -2.49 148.22 0 0 2.49c-10.73,0 -21.12,2.83 -31.17,8.59 -10.13,5.67 -16.32,13.65 -18.63,23.87l0 216.57c0,17.18 4.04,33.4 12.02,48.86 8.07,15.37 19.24,27.99 33.4,37.87 14.17,9.79 30.57,14.68 49.12,14.68 21.12,0 40.45,-4.55 57.88,-13.74 17.43,-9.1 31.34,-21.38 41.65,-36.67 10.31,-15.37 15.46,-32.37 15.46,-51.01l0 -222.84c-1.8,-8.07 -7.99,-14.43 -18.38,-19.15 -10.39,-4.72 -20.09,-7.04 -29.11,-7.04l0 -2.49 102.1 0 0 2.49c-8.84,0 -18.55,2.32 -28.94,7.04 -10.39,4.72 -16.49,11.08 -18.38,19.15l0 222.84c0,20.01 -5.5,38.21 -16.49,54.62 -10.99,16.49 -25.68,29.54 -44.22,39.24 -18.55,9.7 -39.07,14.6 -61.57,14.6z"/>
   <path id="_4_98" class="fil0" d="M2950.11 3297.55l-283.03 0 0 -2.23c11.08,0 21.73,-3.09 31.86,-9.1 10.13,-6.01 16.14,-14.43 17.95,-25.16l0 -286.81c-1.8,-10.56 -7.81,-18.89 -17.95,-24.99 -10.13,-6.1 -20.78,-9.19 -31.86,-9.19l0 -2.23 268.95 0 4.81 73.42 -2.32 0c0,-6.87 -2.06,-15.11 -6.36,-24.64 -4.29,-9.53 -10.91,-18.38 -19.75,-26.45 -8.93,-7.99 -20.35,-13.05 -34.26,-15.03l-85.79 0c-7.39,0 -13.65,2.58 -18.98,7.73 -5.24,5.24 -7.9,11.59 -7.9,19.15l0 141.86 89.82 0c8.07,-1.8 14.43,-7.9 19.06,-18.38 4.72,-10.39 7.13,-20.01 7.3,-28.85l2.32 0 0 102.1 -2.32 0c-0.17,-9.02 -2.58,-18.81 -7.3,-29.2 -4.64,-10.39 -10.99,-16.49 -19.06,-18.38l-89.82 0 0 137.91c0,8.67 3.01,16.14 9.19,22.24 6.1,6.1 13.57,9.19 22.24,9.19l88.02 0c14,-2.32 25.93,-8.76 35.98,-19.15 10.13,-10.39 17.86,-21.55 23.27,-33.4 5.49,-11.94 8.24,-21.38 8.24,-28.42l2.49 0 -4.81 88.02z"/>
   <path id="_5_99" class="fil0" d="M3295.75 3298.06l-150.7 0 0 -2.23c7.9,0 15.97,-1.2 24.3,-3.44 8.33,-2.23 14.86,-6.1 19.75,-11.42 3.35,-4.04 5.07,-9.1 5.07,-15.11 0,-2.49 -0.26,-5.15 -0.77,-7.81l0.26 0c-3.35,-21.3 -8.5,-42.68 -15.46,-64.23 -7.04,-21.55 -17.6,-39.85 -31.86,-54.87 -14.26,-15.03 -34.09,-23.36 -59.42,-25.07l-25.85 0 0 144.69c0.86,11.59 6.35,20.7 16.74,27.31 10.31,6.61 21.21,9.96 32.8,9.96l0 2.23 -148.22 0 0 -2.23c11.76,0 22.84,-3.44 33.32,-10.13 10.56,-6.7 16.06,-15.89 16.75,-27.65l0 -283.55c-1.8,-10.56 -7.73,-18.89 -17.86,-24.99 -10.05,-6.1 -20.61,-9.19 -31.69,-9.19l0 -2.32 167.02 0c22.67,0 43.37,3.18 62.17,9.45 18.81,6.36 33.75,15.97 44.91,28.94 11.16,13.05 16.74,29.54 16.74,49.46 0,14.08 -2.83,26.36 -8.59,36.75 -11.68,21.81 -30.74,36.5 -57.11,43.97 -15.2,4.55 -28.85,6.87 -40.7,6.87 22.24,6.53 40.02,17.69 53.33,33.58 13.22,15.8 23.27,33.75 30.14,53.67 6.87,20.01 12.11,39.5 15.63,58.65 3.35,9.87 9.53,18.46 18.63,25.68 9.02,7.21 19.24,10.82 30.66,10.82l0 2.23zm-165.82 -191.49c15.11,0 28.34,-3.95 39.67,-11.94 11.34,-7.99 20.09,-18.12 26.45,-30.57 6.27,-12.37 9.36,-25.16 9.36,-38.21 0,-12.71 -3.09,-25.33 -9.27,-37.7 -6.18,-12.45 -14.94,-22.67 -26.28,-30.74 -11.34,-8.07 -24.64,-12.02 -39.93,-12.02l-38.73 0c-8.33,0 -15.46,2.92 -21.38,8.76 -5.84,5.84 -8.76,12.97 -8.76,21.38l0 131.04 68.87 0z"/>
   <path id="_6_100" class="fil0" d="M3547.53 3297.55l-148.13 0 0 -2.23c11.68,0 22.84,-3.35 33.32,-9.96 10.48,-6.61 16.06,-15.89 16.75,-27.82l0 -312.66 -79 0c-13.91,2.32 -25.93,8.67 -35.98,18.98 -10.05,10.3 -17.78,21.38 -23.19,33.32 -5.32,11.94 -8.07,21.38 -8.24,28.42l-2.32 0 4.81 -88.02 337.65 0 4.98 88.02 -2.49 0c0,-7.04 -2.75,-16.49 -8.16,-28.42 -5.5,-11.94 -13.22,-23.01 -23.19,-33.32 -9.96,-10.31 -21.98,-16.66 -36.07,-18.98l-80.29 0 0 313.18c0.86,11.59 6.44,20.7 16.75,27.31 10.3,6.61 21.3,9.96 32.8,9.96l0 2.23z"/>
   <path id="_7_101" class="fil0" d="M3832.79 3297.55c-33.06,0 -63.2,-8.07 -90.42,-24.3 -27.22,-16.14 -48.95,-37.87 -65,-65.01 -16.14,-27.14 -24.22,-57.36 -24.22,-90.6 0,-32.97 8.07,-63.12 24.22,-90.25 16.06,-27.22 37.78,-48.86 65,-65.09 27.22,-16.14 57.36,-24.3 90.42,-24.3 33.23,0 63.37,8.16 90.6,24.3 27.14,16.23 48.86,37.87 65,65.09 16.23,27.14 24.3,57.28 24.3,90.25 0,33.23 -8.07,63.46 -24.3,90.6 -16.14,27.14 -37.87,48.86 -65,65.01 -27.22,16.23 -57.36,24.3 -90.6,24.3zm0 -7.3c17.95,0 34.78,-4.89 50.49,-14.6 15.63,-9.7 29.37,-22.76 41.22,-39.07 11.85,-16.4 21.12,-34.86 27.82,-55.39 6.7,-20.52 10.05,-41.73 10.05,-63.55 0,-21.64 -3.35,-42.76 -10.05,-63.37 -6.7,-20.61 -15.97,-39.16 -27.82,-55.56 -11.85,-16.49 -25.59,-29.54 -41.22,-39.24 -15.72,-9.79 -32.55,-14.6 -50.49,-14.6 -17.78,0 -34.52,4.81 -50.15,14.6 -15.71,9.7 -29.45,22.76 -41.3,39.24 -11.76,16.4 -21.12,34.95 -27.91,55.56 -6.78,20.61 -10.22,41.73 -10.22,63.37 0,21.81 3.43,43.02 10.22,63.55 6.78,20.52 16.14,38.99 27.91,55.39 11.85,16.32 25.59,29.37 41.3,39.07 15.63,9.7 32.37,14.6 50.15,14.6z"/>
   <path id="_8_102" class="fil0" d="M4485.08 3298.06l-150.7 0 0 -2.23c7.9,0 15.97,-1.2 24.3,-3.44 8.33,-2.23 14.86,-6.1 19.75,-11.42 3.35,-4.04 5.07,-9.1 5.07,-15.11 0,-2.49 -0.26,-5.15 -0.77,-7.81l0.26 0c-3.35,-21.3 -8.5,-42.68 -15.46,-64.23 -7.04,-21.55 -17.6,-39.85 -31.86,-54.87 -14.26,-15.03 -34.09,-23.36 -59.42,-25.07l-25.85 0 0 144.69c0.86,11.59 6.35,20.7 16.74,27.31 10.31,6.61 21.21,9.96 32.8,9.96l0 2.23 -148.22 0 0 -2.23c11.76,0 22.84,-3.44 33.32,-10.13 10.56,-6.7 16.06,-15.89 16.75,-27.65l0 -283.55c-1.8,-10.56 -7.73,-18.89 -17.86,-24.99 -10.05,-6.1 -20.61,-9.19 -31.69,-9.19l0 -2.32 167.02 0c22.67,0 43.37,3.18 62.17,9.45 18.81,6.36 33.75,15.97 44.91,28.94 11.16,13.05 16.74,29.54 16.74,49.46 0,14.08 -2.83,26.36 -8.59,36.75 -11.68,21.81 -30.74,36.5 -57.11,43.97 -15.2,4.55 -28.85,6.87 -40.7,6.87 22.24,6.53 40.02,17.69 53.33,33.58 13.22,15.8 23.27,33.75 30.14,53.67 6.87,20.01 12.11,39.5 15.63,58.65 3.35,9.87 9.53,18.46 18.63,25.68 9.02,7.21 19.24,10.82 30.66,10.82l0 2.23zm-165.82 -191.49c15.11,0 28.34,-3.95 39.67,-11.94 11.34,-7.99 20.09,-18.12 26.45,-30.57 6.27,-12.37 9.36,-25.16 9.36,-38.21 0,-12.71 -3.09,-25.33 -9.27,-37.7 -6.18,-12.45 -14.94,-22.67 -26.28,-30.74 -11.34,-8.07 -24.64,-12.02 -39.93,-12.02l-38.73 0c-8.33,0 -15.46,2.92 -21.38,8.76 -5.84,5.84 -8.76,12.97 -8.76,21.38l0 131.04 68.87 0z"/>
   <path id="_9_103" class="fil0" d="M4638.27 3297.55l-148.22 0 0 -2.23c11.76,0 22.84,-3.35 33.32,-9.96 10.56,-6.61 16.14,-15.89 17,-27.82l0 -279.77c-0.86,-11.85 -6.44,-21.12 -17,-27.74 -10.48,-6.61 -21.55,-9.96 -33.32,-9.96l0 -2.23 148.22 0 0 2.23c-11.42,0 -22.24,3.35 -32.55,9.96 -10.39,6.61 -16.06,15.72 -17,27.31l0 280.72c0.94,11.59 6.61,20.7 17,27.31 10.3,6.61 21.12,9.96 32.55,9.96l0 2.23z"/>
   <path id="_10_104" class="fil0" d="M4812.34 3297.55c-31.34,0 -59.85,-8.07 -85.44,-24.3 -25.5,-16.14 -45.86,-37.87 -60.97,-65.09 -15.11,-27.31 -22.67,-57.45 -22.67,-90.51 0,-33.15 7.56,-63.37 22.67,-90.68 15.11,-27.22 35.55,-48.95 61.4,-65.18 25.85,-16.14 54.96,-24.22 87.5,-24.22 21.12,0 42.59,5.58 64.4,16.83 8.42,4.04 16.06,6.01 22.93,6.01 3.52,0 8.42,-1.03 14.6,-3.09 6.18,-2.15 9.27,-8.67 9.27,-19.75l2.58 0 0 94.03 -2.58 0c-0.17,-10.56 -3.52,-21.81 -10.05,-33.92 -10.39,-15.8 -24.65,-28.17 -42.77,-37.27 -18.12,-9.02 -37.53,-13.57 -58.39,-13.57 -15.03,0 -29.71,4.12 -43.88,12.45 -14.17,8.33 -26.88,20.01 -38.21,35.12 -11.34,15.11 -20.35,33.06 -27.22,53.93 -6.78,20.87 -10.13,43.97 -10.13,69.3 0,33.23 5.24,62.69 15.71,88.45 10.48,25.76 24.56,45.86 42.16,60.37 17.6,14.51 37.27,21.81 59.08,21.81 17.78,0 34.18,-4.21 49.21,-12.62 15.03,-8.42 28.08,-19.24 39.24,-32.72 11.16,-13.4 19.92,-27.99 26.28,-43.71l7.81 0c-6.35,19.06 -15.54,35.98 -27.56,50.75 -12.02,14.77 -26.19,26.36 -42.51,34.86 -16.4,8.5 -33.83,12.71 -52.47,12.71z"/>
   <path id="_11_105" class="fil0" d="M5125.77 3297.55c-33.06,0 -63.2,-8.07 -90.42,-24.3 -27.22,-16.14 -48.95,-37.87 -65,-65.01 -16.14,-27.14 -24.22,-57.36 -24.22,-90.6 0,-32.97 8.07,-63.12 24.22,-90.25 16.06,-27.22 37.78,-48.86 65,-65.09 27.22,-16.14 57.36,-24.3 90.42,-24.3 33.23,0 63.37,8.16 90.6,24.3 27.14,16.23 48.86,37.87 65,65.09 16.23,27.14 24.3,57.28 24.3,90.25 0,33.23 -8.07,63.46 -24.3,90.6 -16.14,27.14 -37.87,48.86 -65,65.01 -27.22,16.23 -57.36,24.3 -90.6,24.3zm0 -7.3c17.95,0 34.78,-4.89 50.49,-14.6 15.63,-9.7 29.37,-22.76 41.22,-39.07 11.85,-16.4 21.12,-34.86 27.82,-55.39 6.7,-20.52 10.05,-41.73 10.05,-63.55 0,-21.64 -3.35,-42.76 -10.05,-63.37 -6.7,-20.61 -15.97,-39.16 -27.82,-55.56 -11.85,-16.49 -25.59,-29.54 -41.22,-39.24 -15.72,-9.79 -32.55,-14.6 -50.49,-14.6 -17.78,0 -34.52,4.81 -50.15,14.6 -15.71,9.7 -29.45,22.76 -41.3,39.24 -11.76,16.4 -21.12,34.95 -27.91,55.56 -6.78,20.61 -10.22,41.73 -10.22,63.37 0,21.81 3.43,43.02 10.22,63.55 6.78,20.52 16.14,38.99 27.91,55.39 11.85,16.32 25.59,29.37 41.3,39.07 15.63,9.7 32.37,14.6 50.15,14.6z"/>
   <path id="_12_106" class="fil1 str0" d="M1503.85 3297.55l-283.03 0 0 -2.23c11.08,0 21.73,-3.09 31.86,-9.1 10.13,-6.01 16.14,-14.43 17.95,-25.16l0 -286.81c-1.8,-10.56 -7.81,-18.89 -17.95,-24.99 -10.13,-6.1 -20.78,-9.19 -31.86,-9.19l0 -2.23 268.95 0 4.81 73.42 -2.32 0c0,-6.87 -2.06,-15.11 -6.36,-24.64 -4.29,-9.53 -10.91,-18.38 -19.75,-26.45 -8.93,-7.99 -20.35,-13.05 -34.26,-15.03l-85.79 0c-7.39,0 -13.65,2.58 -18.98,7.73 -5.24,5.24 -7.9,11.59 -7.9,19.15l0 141.86 89.82 0c8.07,-1.8 14.43,-7.9 19.06,-18.38 4.72,-10.39 7.13,-20.01 7.3,-28.85l2.32 0 0 102.1 -2.32 0c-0.17,-9.02 -2.58,-18.81 -7.3,-29.2 -4.64,-10.39 -10.99,-16.49 -19.06,-18.38l-89.82 0 0 137.91c0,8.67 3.01,16.14 9.19,22.24 6.1,6.1 13.57,9.19 22.24,9.19l88.02 0c14,-2.32 25.93,-8.76 35.98,-19.15 10.13,-10.39 17.86,-21.55 23.27,-33.4 5.49,-11.94 8.24,-21.38 8.24,-28.42l2.49 0 -4.81 88.02z"/>
   <path id="_13_107" class="fil1 str0" d="M1519.91 3297.81l0 -2.49c8.93,-0.17 18.55,-2.83 28.85,-7.81 10.31,-5.07 15.97,-11.76 16.92,-20.1l0 -286.55c0,-7.9 -2.49,-14.94 -7.64,-21.21 -5.07,-6.18 -11.42,-10.99 -18.98,-14.43 -7.56,-3.44 -15.2,-5.15 -22.93,-5.15l0 -2.49 93.6 0 200.77 280.46 -0.26 -250.06c-0.86,-8.5 -6.44,-15.37 -16.75,-20.35 -10.3,-5.07 -19.92,-7.56 -28.77,-7.56l0 -2.49 98.32 0 0 2.49c-8.84,0 -18.38,2.49 -28.68,7.38 -10.22,4.98 -15.89,11.68 -17.09,20.01l0 330.09 -6.78 0 -237.95 -328.55 0 298.15c0.95,8.5 6.61,15.28 16.83,20.35 10.22,4.98 19.84,7.64 28.94,7.81l0 2.23 -98.41 0.26z"/>
   <path id="_14_108" class="fil1 str0" d="M2144.12 3297.55l-148.22 0 0 -2.23c11.76,0 22.84,-3.35 33.32,-9.96 10.56,-6.61 16.06,-15.89 16.75,-27.82l0 -283.55c-1.8,-10.56 -7.73,-18.81 -17.86,-24.9 -10.05,-6.01 -20.61,-9.02 -31.69,-9.02l0 -2.49 174.32 0c22.67,0 43.37,3.18 62.17,9.53 18.81,6.35 33.75,16.06 44.91,29.02 11.16,13.05 16.75,29.54 16.75,49.46 0,19.92 -5.58,36.41 -16.75,49.46 -11.16,12.97 -26.1,22.67 -44.91,29.03 -18.81,6.35 -39.5,9.53 -62.17,9.53l-76.17 0 0 144.44c0.86,11.59 6.35,20.7 16.74,27.31 10.31,6.61 21.21,9.96 32.8,9.96l0 2.23zm26.62 -191.15c15.11,0 28.34,-4.04 39.67,-12.11 11.34,-8.07 20.09,-18.29 26.36,-30.57 6.35,-12.37 9.45,-25.07 9.45,-38.13 0,-12.88 -3.09,-25.59 -9.27,-37.95 -6.18,-12.45 -14.94,-22.67 -26.28,-30.74 -11.34,-8.07 -24.64,-12.02 -39.93,-12.02l-46.03 0c-8.33,0 -15.46,2.92 -21.38,8.76 -5.84,5.93 -8.76,13.05 -8.76,21.38l0 131.38 76.17 0z"/>
   <path id="_15_109" class="fil1 str0" d="M2492.5 3297.55c-26.28,0 -50.32,-4.04 -71.88,-12.19 -21.64,-8.16 -38.9,-20.27 -51.78,-36.5 -12.8,-16.14 -19.24,-36.07 -19.24,-59.77l0 -216.57c-2.32,-10.22 -8.5,-18.2 -18.55,-23.87 -10.13,-5.75 -20.61,-8.59 -31.51,-8.59l0 -2.49 148.22 0 0 2.49c-10.73,0 -21.12,2.83 -31.17,8.59 -10.13,5.67 -16.32,13.65 -18.63,23.87l0 216.57c0,17.18 4.04,33.4 12.02,48.86 8.07,15.37 19.24,27.99 33.4,37.87 14.17,9.79 30.57,14.68 49.12,14.68 21.12,0 40.45,-4.55 57.88,-13.74 17.43,-9.1 31.34,-21.38 41.65,-36.67 10.31,-15.37 15.46,-32.37 15.46,-51.01l0 -222.84c-1.8,-8.07 -7.99,-14.43 -18.38,-19.15 -10.39,-4.72 -20.09,-7.04 -29.11,-7.04l0 -2.49 102.1 0 0 2.49c-8.84,0 -18.55,2.32 -28.94,7.04 -10.39,4.72 -16.49,11.08 -18.38,19.15l0 222.84c0,20.01 -5.5,38.21 -16.49,54.62 -10.99,16.49 -25.68,29.54 -44.22,39.24 -18.55,9.7 -39.07,14.6 -61.57,14.6z"/>
   <path id="_16_110" class="fil1 str0" d="M2950.11 3297.55l-283.03 0 0 -2.23c11.08,0 21.73,-3.09 31.86,-9.1 10.13,-6.01 16.14,-14.43 17.95,-25.16l0 -286.81c-1.8,-10.56 -7.81,-18.89 -17.95,-24.99 -10.13,-6.1 -20.78,-9.19 -31.86,-9.19l0 -2.23 268.95 0 4.81 73.42 -2.32 0c0,-6.87 -2.06,-15.11 -6.36,-24.64 -4.29,-9.53 -10.91,-18.38 -19.75,-26.45 -8.93,-7.99 -20.35,-13.05 -34.26,-15.03l-85.79 0c-7.39,0 -13.65,2.58 -18.98,7.73 -5.24,5.24 -7.9,11.59 -7.9,19.15l0 141.86 89.82 0c8.07,-1.8 14.43,-7.9 19.06,-18.38 4.72,-10.39 7.13,-20.01 7.3,-28.85l2.32 0 0 102.1 -2.32 0c-0.17,-9.02 -2.58,-18.81 -7.3,-29.2 -4.64,-10.39 -10.99,-16.49 -19.06,-18.38l-89.82 0 0 137.91c0,8.67 3.01,16.14 9.19,22.24 6.1,6.1 13.57,9.19 22.24,9.19l88.02 0c14,-2.32 25.93,-8.76 35.98,-19.15 10.13,-10.39 17.86,-21.55 23.27,-33.4 5.49,-11.94 8.24,-21.38 8.24,-28.42l2.49 0 -4.81 88.02z"/>
   <path id="_17_111" class="fil1 str0" d="M3295.75 3298.06l-150.7 0 0 -2.23c7.9,0 15.97,-1.2 24.3,-3.44 8.33,-2.23 14.86,-6.1 19.75,-11.42 3.35,-4.04 5.07,-9.1 5.07,-15.11 0,-2.49 -0.26,-5.15 -0.77,-7.81l0.26 0c-3.35,-21.3 -8.5,-42.68 -15.46,-64.23 -7.04,-21.55 -17.6,-39.85 -31.86,-54.87 -14.26,-15.03 -34.09,-23.36 -59.42,-25.07l-25.85 0 0 144.69c0.86,11.59 6.35,20.7 16.74,27.31 10.31,6.61 21.21,9.96 32.8,9.96l0 2.23 -148.22 0 0 -2.23c11.76,0 22.84,-3.44 33.32,-10.13 10.56,-6.7 16.06,-15.89 16.75,-27.65l0 -283.55c-1.8,-10.56 -7.73,-18.89 -17.86,-24.99 -10.05,-6.1 -20.61,-9.19 -31.69,-9.19l0 -2.32 167.02 0c22.67,0 43.37,3.18 62.17,9.45 18.81,6.36 33.75,15.97 44.91,28.94 11.16,13.05 16.74,29.54 16.74,49.46 0,14.08 -2.83,26.36 -8.59,36.75 -11.68,21.81 -30.74,36.5 -57.11,43.97 -15.2,4.55 -28.85,6.87 -40.7,6.87 22.24,6.53 40.02,17.69 53.33,33.58 13.22,15.8 23.27,33.75 30.14,53.67 6.87,20.01 12.11,39.5 15.63,58.65 3.35,9.87 9.53,18.46 18.63,25.68 9.02,7.21 19.24,10.82 30.66,10.82l0 2.23zm-165.82 -191.49c15.11,0 28.34,-3.95 39.67,-11.94 11.34,-7.99 20.09,-18.12 26.45,-30.57 6.27,-12.37 9.36,-25.16 9.36,-38.21 0,-12.71 -3.09,-25.33 -9.27,-37.7 -6.18,-12.45 -14.94,-22.67 -26.28,-30.74 -11.34,-8.07 -24.64,-12.02 -39.93,-12.02l-38.73 0c-8.33,0 -15.46,2.92 -21.38,8.76 -5.84,5.84 -8.76,12.97 -8.76,21.38l0 131.04 68.87 0z"/>
   <path id="_18" class="fil1 str0" d="M3547.53 3297.55l-148.13 0 0 -2.23c11.68,0 22.84,-3.35 33.32,-9.96 10.48,-6.61 16.06,-15.89 16.75,-27.82l0 -312.66 -79 0c-13.91,2.32 -25.93,8.67 -35.98,18.98 -10.05,10.3 -17.78,21.38 -23.19,33.32 -5.32,11.94 -8.07,21.38 -8.24,28.42l-2.32 0 4.81 -88.02 337.65 0 4.98 88.02 -2.49 0c0,-7.04 -2.75,-16.49 -8.16,-28.42 -5.5,-11.94 -13.22,-23.01 -23.19,-33.32 -9.96,-10.31 -21.98,-16.66 -36.07,-18.98l-80.29 0 0 313.18c0.86,11.59 6.44,20.7 16.75,27.31 10.3,6.61 21.3,9.96 32.8,9.96l0 2.23z"/>
   <path id="_19" class="fil1 str0" d="M3832.79 3297.55c-33.06,0 -63.2,-8.07 -90.42,-24.3 -27.22,-16.14 -48.95,-37.87 -65,-65.01 -16.14,-27.14 -24.22,-57.36 -24.22,-90.6 0,-32.97 8.07,-63.12 24.22,-90.25 16.06,-27.22 37.78,-48.86 65,-65.09 27.22,-16.14 57.36,-24.3 90.42,-24.3 33.23,0 63.37,8.16 90.6,24.3 27.14,16.23 48.86,37.87 65,65.09 16.23,27.14 24.3,57.28 24.3,90.25 0,33.23 -8.07,63.46 -24.3,90.6 -16.14,27.14 -37.87,48.86 -65,65.01 -27.22,16.23 -57.36,24.3 -90.6,24.3zm0 -7.3c17.95,0 34.78,-4.89 50.49,-14.6 15.63,-9.7 29.37,-22.76 41.22,-39.07 11.85,-16.4 21.12,-34.86 27.82,-55.39 6.7,-20.52 10.05,-41.73 10.05,-63.55 0,-21.64 -3.35,-42.76 -10.05,-63.37 -6.7,-20.61 -15.97,-39.16 -27.82,-55.56 -11.85,-16.49 -25.59,-29.54 -41.22,-39.24 -15.72,-9.79 -32.55,-14.6 -50.49,-14.6 -17.78,0 -34.52,4.81 -50.15,14.6 -15.71,9.7 -29.45,22.76 -41.3,39.24 -11.76,16.4 -21.12,34.95 -27.91,55.56 -6.78,20.61 -10.22,41.73 -10.22,63.37 0,21.81 3.43,43.02 10.22,63.55 6.78,20.52 16.14,38.99 27.91,55.39 11.85,16.32 25.59,29.37 41.3,39.07 15.63,9.7 32.37,14.6 50.15,14.6z"/>
   <path id="_20" class="fil1 str0" d="M4485.08 3298.06l-150.7 0 0 -2.23c7.9,0 15.97,-1.2 24.3,-3.44 8.33,-2.23 14.86,-6.1 19.75,-11.42 3.35,-4.04 5.07,-9.1 5.07,-15.11 0,-2.49 -0.26,-5.15 -0.77,-7.81l0.26 0c-3.35,-21.3 -8.5,-42.68 -15.46,-64.23 -7.04,-21.55 -17.6,-39.85 -31.86,-54.87 -14.26,-15.03 -34.09,-23.36 -59.42,-25.07l-25.85 0 0 144.69c0.86,11.59 6.35,20.7 16.74,27.31 10.31,6.61 21.21,9.96 32.8,9.96l0 2.23 -148.22 0 0 -2.23c11.76,0 22.84,-3.44 33.32,-10.13 10.56,-6.7 16.06,-15.89 16.75,-27.65l0 -283.55c-1.8,-10.56 -7.73,-18.89 -17.86,-24.99 -10.05,-6.1 -20.61,-9.19 -31.69,-9.19l0 -2.32 167.02 0c22.67,0 43.37,3.18 62.17,9.45 18.81,6.36 33.75,15.97 44.91,28.94 11.16,13.05 16.74,29.54 16.74,49.46 0,14.08 -2.83,26.36 -8.59,36.75 -11.68,21.81 -30.74,36.5 -57.11,43.97 -15.2,4.55 -28.85,6.87 -40.7,6.87 22.24,6.53 40.02,17.69 53.33,33.58 13.22,15.8 23.27,33.75 30.14,53.67 6.87,20.01 12.11,39.5 15.63,58.65 3.35,9.87 9.53,18.46 18.63,25.68 9.02,7.21 19.24,10.82 30.66,10.82l0 2.23zm-165.82 -191.49c15.11,0 28.34,-3.95 39.67,-11.94 11.34,-7.99 20.09,-18.12 26.45,-30.57 6.27,-12.37 9.36,-25.16 9.36,-38.21 0,-12.71 -3.09,-25.33 -9.27,-37.7 -6.18,-12.45 -14.94,-22.67 -26.28,-30.74 -11.34,-8.07 -24.64,-12.02 -39.93,-12.02l-38.73 0c-8.33,0 -15.46,2.92 -21.38,8.76 -5.84,5.84 -8.76,12.97 -8.76,21.38l0 131.04 68.87 0z"/>
   <path id="_21" class="fil1 str0" d="M4638.27 3297.55l-148.22 0 0 -2.23c11.76,0 22.84,-3.35 33.32,-9.96 10.56,-6.61 16.14,-15.89 17,-27.82l0 -279.77c-0.86,-11.85 -6.44,-21.12 -17,-27.74 -10.48,-6.61 -21.55,-9.96 -33.32,-9.96l0 -2.23 148.22 0 0 2.23c-11.42,0 -22.24,3.35 -32.55,9.96 -10.39,6.61 -16.06,15.72 -17,27.31l0 280.72c0.94,11.59 6.61,20.7 17,27.31 10.3,6.61 21.12,9.96 32.55,9.96l0 2.23z"/>
   <path id="_22" class="fil1 str0" d="M4812.34 3297.55c-31.34,0 -59.85,-8.07 -85.44,-24.3 -25.5,-16.14 -45.86,-37.87 -60.97,-65.09 -15.11,-27.31 -22.67,-57.45 -22.67,-90.51 0,-33.15 7.56,-63.37 22.67,-90.68 15.11,-27.22 35.55,-48.95 61.4,-65.18 25.85,-16.14 54.96,-24.22 87.5,-24.22 21.12,0 42.59,5.58 64.4,16.83 8.42,4.04 16.06,6.01 22.93,6.01 3.52,0 8.42,-1.03 14.6,-3.09 6.18,-2.15 9.27,-8.67 9.27,-19.75l2.58 0 0 94.03 -2.58 0c-0.17,-10.56 -3.52,-21.81 -10.05,-33.92 -10.39,-15.8 -24.65,-28.17 -42.77,-37.27 -18.12,-9.02 -37.53,-13.57 -58.39,-13.57 -15.03,0 -29.71,4.12 -43.88,12.45 -14.17,8.33 -26.88,20.01 -38.21,35.12 -11.34,15.11 -20.35,33.06 -27.22,53.93 -6.78,20.87 -10.13,43.97 -10.13,69.3 0,33.23 5.24,62.69 15.71,88.45 10.48,25.76 24.56,45.86 42.16,60.37 17.6,14.51 37.27,21.81 59.08,21.81 17.78,0 34.18,-4.21 49.21,-12.62 15.03,-8.42 28.08,-19.24 39.24,-32.72 11.16,-13.4 19.92,-27.99 26.28,-43.71l7.81 0c-6.35,19.06 -15.54,35.98 -27.56,50.75 -12.02,14.77 -26.19,26.36 -42.51,34.86 -16.4,8.5 -33.83,12.71 -52.47,12.71z"/>
   <path id="_23" class="fil1 str0" d="M5125.77 3297.55c-33.06,0 -63.2,-8.07 -90.42,-24.3 -27.22,-16.14 -48.95,-37.87 -65,-65.01 -16.14,-27.14 -24.22,-57.36 -24.22,-90.6 0,-32.97 8.07,-63.12 24.22,-90.25 16.06,-27.22 37.78,-48.86 65,-65.09 27.22,-16.14 57.36,-24.3 90.42,-24.3 33.23,0 63.37,8.16 90.6,24.3 27.14,16.23 48.86,37.87 65,65.09 16.23,27.14 24.3,57.28 24.3,90.25 0,33.23 -8.07,63.46 -24.3,90.6 -16.14,27.14 -37.87,48.86 -65,65.01 -27.22,16.23 -57.36,24.3 -90.6,24.3zm0 -7.3c17.95,0 34.78,-4.89 50.49,-14.6 15.63,-9.7 29.37,-22.76 41.22,-39.07 11.85,-16.4 21.12,-34.86 27.82,-55.39 6.7,-20.52 10.05,-41.73 10.05,-63.55 0,-21.64 -3.35,-42.76 -10.05,-63.37 -6.7,-20.61 -15.97,-39.16 -27.82,-55.56 -11.85,-16.49 -25.59,-29.54 -41.22,-39.24 -15.72,-9.79 -32.55,-14.6 -50.49,-14.6 -17.78,0 -34.52,4.81 -50.15,14.6 -15.71,9.7 -29.45,22.76 -41.3,39.24 -11.76,16.4 -21.12,34.95 -27.91,55.56 -6.78,20.61 -10.22,41.73 -10.22,63.37 0,21.81 3.43,43.02 10.22,63.55 6.78,20.52 16.14,38.99 27.91,55.39 11.85,16.32 25.59,29.37 41.3,39.07 15.63,9.7 32.37,14.6 50.15,14.6z"/>
  </g>
 </g>
</svg>
