<?xml version="1.0" encoding="UTF-8"?>
<!DOCTYPE svg PUBLIC "-//W3C//DTD SVG 1.1//EN" "http://www.w3.org/Graphics/SVG/1.1/DTD/svg11.dtd">
<!-- Creator: CorelDRAW -->
<svg xmlns="http://www.w3.org/2000/svg" xml:space="preserve" width="9.12574in" height="5.61299in" version="1.1" style="shape-rendering:geometricPrecision; text-rendering:geometricPrecision; image-rendering:optimizeQuality; fill-rule:evenodd; clip-rule:evenodd"
viewBox="0 0 4317.22 2655.4"
 xmlns:xlink="http://www.w3.org/1999/xlink"
 xmlns:xodm="http://www.corel.com/coreldraw/odm/2003">
 <defs>
  <style type="text/css">
   <![CDATA[
    .str0 {stroke:white;stroke-width:1.42;stroke-miterlimit:2.61313}
    .fil1 {fill:none;fill-rule:nonzero}
    .fil0 {fill:white;fill-rule:nonzero}
   ]]>
  </style>
 </defs>
 <g id="Layer_x0020_1">
  <metadata id="CorelCorpID_0Corel-Layer"/>
  <g id="_2030706072336">
   <path class="fil0" d="M134.04 2554.07l-88.63 0 0 -1.33c7.04,0 13.66,-2 19.93,-5.95 6.32,-3.95 9.6,-9.49 10.01,-16.63l0 -169.44c-1.08,-6.31 -4.62,-11.24 -10.68,-14.88 -6.01,-3.59 -12.32,-5.39 -18.95,-5.39l0 -1.49 104.25 0c13.56,0 25.93,1.9 37.18,5.7 11.25,3.8 20.18,9.6 26.86,17.35 6.67,7.8 10.01,17.65 10.01,29.56 0,11.91 -3.34,21.76 -10.01,29.56 -6.68,7.75 -15.61,13.55 -26.86,17.34 -11.25,3.8 -23.62,5.7 -37.18,5.7l-45.55 0 0 86.31c0.51,6.93 3.8,12.37 10.01,16.32 6.16,3.95 12.68,5.95 19.62,5.95l0 1.33zm15.92 -114.23c9.04,0 16.95,-2.41 23.72,-7.24 6.78,-4.82 12.02,-10.93 15.77,-18.27 3.8,-7.39 5.65,-14.98 5.65,-22.78 0,-7.7 -1.85,-15.29 -5.55,-22.68 -3.7,-7.44 -8.93,-13.55 -15.71,-18.37 -6.78,-4.82 -14.74,-7.18 -23.88,-7.18l-27.52 0c-4.98,0 -9.25,1.75 -12.79,5.23 -3.49,3.54 -5.24,7.8 -5.24,12.78l0 78.51 45.55 0z"/>
   <path id="_1" class="fil0" d="M350.31 2554.07c-15.71,0 -30.09,-2.41 -42.98,-7.29 -12.94,-4.87 -23.26,-12.11 -30.97,-21.81 -7.65,-9.65 -11.5,-21.55 -11.5,-35.72l0 -129.42c-1.39,-6.11 -5.08,-10.88 -11.09,-14.27 -6.06,-3.44 -12.33,-5.13 -18.85,-5.13l0 -1.49 88.63 0 0 1.49c-6.42,0 -12.63,1.69 -18.64,5.13 -6.06,3.39 -9.76,8.16 -11.14,14.27l0 129.42c0,10.26 2.41,19.96 7.19,29.2 4.83,9.19 11.5,16.73 19.98,22.63 8.47,5.85 18.28,8.77 29.37,8.77 12.63,0 24.19,-2.72 34.61,-8.21 10.42,-5.44 18.74,-12.78 24.91,-21.91 6.16,-9.19 9.24,-19.35 9.24,-30.48l0 -133.16c-1.08,-4.82 -4.78,-8.62 -10.99,-11.44 -6.22,-2.82 -12.02,-4.21 -17.41,-4.21l0 -1.49 61.06 0 0 1.49c-5.29,0 -11.09,1.39 -17.3,4.21 -6.22,2.82 -9.86,6.62 -10.99,11.44l0 133.16c0,11.96 -3.29,22.84 -9.86,32.64 -6.57,9.85 -15.35,17.65 -26.45,23.45 -11.1,5.8 -23.37,8.72 -36.82,8.72z"/>
   <path id="_2" class="fil0" d="M631.9 2554.07l-169.26 0 0 -1.33c6.62,0 12.99,-1.85 19.05,-5.44 6.06,-3.59 9.65,-8.62 10.73,-15.04l0 -171.4c-1.08,-6.31 -4.67,-11.29 -10.73,-14.93 -6.06,-3.64 -12.43,-5.49 -19.05,-5.49l0 -1.33 160.84 0 2.88 43.88 -1.39 0c0,-4.11 -1.23,-9.03 -3.8,-14.73 -2.57,-5.7 -6.52,-10.98 -11.81,-15.81 -5.34,-4.77 -12.17,-7.8 -20.49,-8.98l-51.3 0c-4.41,0 -8.17,1.54 -11.35,4.62 -3.13,3.13 -4.73,6.93 -4.73,11.44l0 84.77 53.72 0c4.83,-1.08 8.63,-4.72 11.4,-10.98 2.82,-6.21 4.26,-11.96 4.37,-17.24l1.39 0 0 61.02 -1.39 0c-0.1,-5.39 -1.54,-11.24 -4.37,-17.45 -2.77,-6.21 -6.57,-9.85 -11.4,-10.98l-53.72 0 0 82.41c0,5.18 1.8,9.65 5.49,13.29 3.65,3.64 8.12,5.49 13.3,5.49l52.64 0c8.37,-1.39 15.51,-5.23 21.52,-11.44 6.06,-6.21 10.68,-12.88 13.92,-19.96 3.29,-7.13 4.93,-12.78 4.93,-16.98l1.49 0 -2.88 52.6z"/>
   <path id="_3" class="fil0" d="M846.52 2554.38l-90.12 0 0 -1.34c4.73,0 9.55,-0.72 14.53,-2.05 4.98,-1.33 8.88,-3.64 11.81,-6.82 2,-2.41 3.03,-5.44 3.03,-9.03 0,-1.49 -0.15,-3.08 -0.46,-4.67l0.15 0c-2,-12.73 -5.08,-25.51 -9.24,-38.38 -4.21,-12.88 -10.53,-23.81 -19.05,-32.79 -8.52,-8.98 -20.39,-13.96 -35.54,-14.98l-15.46 0 0 86.47c0.52,6.93 3.8,12.37 10.01,16.32 6.16,3.95 12.68,5.95 19.62,5.95l0 1.34 -88.63 0 0 -1.34c7.03,0 13.66,-2.05 19.92,-6.06 6.32,-4 9.6,-9.49 10.01,-16.52l0 -169.45c-1.08,-6.31 -4.62,-11.29 -10.68,-14.93 -6.01,-3.64 -12.32,-5.49 -18.95,-5.49l0 -1.39 99.88 0c13.56,0 25.93,1.9 37.18,5.65 11.25,3.8 20.18,9.54 26.86,17.29 6.68,7.8 10.01,17.65 10.01,29.56 0,8.42 -1.69,15.76 -5.13,21.96 -6.98,13.03 -18.38,21.81 -34.15,26.27 -9.09,2.72 -17.25,4.11 -24.34,4.11 13.3,3.9 23.93,10.57 31.89,20.06 7.91,9.44 13.92,20.17 18.03,32.07 4.11,11.96 7.24,23.61 9.34,35.05 2,5.9 5.7,11.03 11.14,15.34 5.39,4.31 11.5,6.46 18.33,6.46l0 1.34zm-99.16 -114.44c9.04,0 16.95,-2.36 23.72,-7.13 6.78,-4.77 12.02,-10.83 15.82,-18.27 3.75,-7.39 5.6,-15.04 5.6,-22.84 0,-7.59 -1.85,-15.14 -5.55,-22.53 -3.7,-7.44 -8.94,-13.55 -15.71,-18.37 -6.78,-4.82 -14.74,-7.19 -23.88,-7.19l-23.16 0c-4.98,0 -9.24,1.75 -12.79,5.24 -3.49,3.49 -5.24,7.75 -5.24,12.78l0 78.31 41.19 0z"/>
   <path id="_4" class="fil0" d="M1005.02 2554.07l-88.59 0 0 -1.33c6.98,0 13.66,-2 19.93,-5.95 6.27,-3.95 9.6,-9.49 10.01,-16.63l0 -186.84 -47.24 0c-8.32,1.39 -15.51,5.18 -21.52,11.34 -6.01,6.16 -10.63,12.78 -13.87,19.91 -3.18,7.13 -4.83,12.78 -4.93,16.99l-1.39 0 2.88 -52.6 201.92 0 2.98 52.6 -1.49 0c0,-4.21 -1.64,-9.85 -4.88,-16.99 -3.29,-7.13 -7.91,-13.75 -13.86,-19.91 -5.96,-6.16 -13.15,-9.96 -21.57,-11.34l-48.02 0 0 187.15c0.51,6.93 3.85,12.37 10.01,16.32 6.16,3.95 12.74,5.95 19.62,5.95l0 1.33z"/>
   <path id="_5" class="fil0" d="M1183.54 2554.07c-19.77,0 -37.79,-4.82 -54.07,-14.52 -16.28,-9.65 -29.27,-22.63 -38.87,-38.85 -9.66,-16.22 -14.48,-34.28 -14.48,-54.14 0,-19.71 4.83,-37.72 14.48,-53.93 9.6,-16.27 22.59,-29.2 38.87,-38.9 16.28,-9.65 34.3,-14.52 54.07,-14.52 19.87,0 37.9,4.87 54.18,14.52 16.23,9.7 29.22,22.63 38.87,38.9 9.71,16.22 14.54,34.23 14.54,53.93 0,19.86 -4.83,37.92 -14.54,54.14 -9.65,16.22 -22.64,29.2 -38.87,38.85 -16.28,9.7 -34.3,14.52 -54.18,14.52zm0 -4.36c10.74,0 20.8,-2.92 30.2,-8.72 9.35,-5.8 17.56,-13.6 24.65,-23.35 7.09,-9.8 12.63,-20.83 16.64,-33.1 4,-12.26 6.01,-24.94 6.01,-37.97 0,-12.93 -2,-25.56 -6.01,-37.87 -4.01,-12.32 -9.55,-23.4 -16.64,-33.2 -7.09,-9.85 -15.3,-17.65 -24.65,-23.45 -9.4,-5.85 -19.46,-8.72 -30.2,-8.72 -10.63,0 -20.64,2.87 -29.99,8.72 -9.4,5.8 -17.61,13.6 -24.7,23.45 -7.03,9.8 -12.63,20.89 -16.69,33.2 -4.06,12.32 -6.11,24.94 -6.11,37.87 0,13.03 2.05,25.71 6.11,37.97 4.06,12.26 9.66,23.3 16.69,33.1 7.09,9.75 15.3,17.55 24.7,23.35 9.35,5.8 19.36,8.72 29.99,8.72z"/>
   <path id="_6" class="fil0" d="M1505.13 2554.38l-90.12 0 0 -1.34c4.72,0 9.55,-0.72 14.53,-2.05 4.98,-1.33 8.88,-3.64 11.81,-6.82 2,-2.41 3.03,-5.44 3.03,-9.03 0,-1.49 -0.15,-3.08 -0.46,-4.67l0.15 0c-2,-12.73 -5.08,-25.51 -9.24,-38.38 -4.21,-12.88 -10.53,-23.81 -19.05,-32.79 -8.52,-8.98 -20.39,-13.96 -35.54,-14.98l-15.46 0 0 86.47c0.51,6.93 3.8,12.37 10.01,16.32 6.16,3.95 12.68,5.95 19.62,5.95l0 1.34 -88.64 0 0 -1.34c7.04,0 13.66,-2.05 19.93,-6.06 6.32,-4 9.6,-9.49 10.01,-16.52l0 -169.45c-1.08,-6.31 -4.62,-11.29 -10.68,-14.93 -6.01,-3.64 -12.32,-5.49 -18.95,-5.49l0 -1.39 99.88 0c13.56,0 25.93,1.9 37.18,5.65 11.25,3.8 20.18,9.54 26.86,17.29 6.67,7.8 10.01,17.65 10.01,29.56 0,8.42 -1.69,15.76 -5.13,21.96 -6.98,13.03 -18.38,21.81 -34.15,26.27 -9.09,2.72 -17.25,4.11 -24.34,4.11 13.3,3.9 23.93,10.57 31.89,20.06 7.91,9.44 13.92,20.17 18.03,32.07 4.11,11.96 7.24,23.61 9.35,35.05 2,5.9 5.7,11.03 11.14,15.34 5.39,4.31 11.5,6.46 18.33,6.46l0 1.34zm-99.16 -114.44c9.04,0 16.95,-2.36 23.72,-7.13 6.78,-4.77 12.02,-10.83 15.82,-18.27 3.75,-7.39 5.6,-15.04 5.6,-22.84 0,-7.59 -1.85,-15.14 -5.55,-22.53 -3.7,-7.44 -8.93,-13.55 -15.71,-18.37 -6.78,-4.82 -14.74,-7.19 -23.88,-7.19l-23.16 0c-4.98,0 -9.24,1.75 -12.79,5.24 -3.49,3.49 -5.24,7.75 -5.24,12.78l0 78.31 41.19 0z"/>
   <path id="_7" class="fil0" d="M1715.39 2554.38l-90.12 0 0 -1.34c4.72,0 9.55,-0.72 14.53,-2.05 4.98,-1.33 8.88,-3.64 11.81,-6.82 2,-2.41 3.03,-5.44 3.03,-9.03 0,-1.49 -0.15,-3.08 -0.46,-4.67l0.15 0c-2,-12.73 -5.08,-25.51 -9.24,-38.38 -4.21,-12.88 -10.53,-23.81 -19.05,-32.79 -8.52,-8.98 -20.39,-13.96 -35.54,-14.98l-15.46 0 0 86.47c0.51,6.93 3.8,12.37 10.01,16.32 6.16,3.95 12.68,5.95 19.62,5.95l0 1.34 -88.64 0 0 -1.34c7.04,0 13.66,-2.05 19.93,-6.06 6.32,-4 9.6,-9.49 10.01,-16.52l0 -169.45c-1.08,-6.31 -4.62,-11.29 -10.68,-14.93 -6.01,-3.64 -12.32,-5.49 -18.95,-5.49l0 -1.39 99.88 0c13.56,0 25.93,1.9 37.18,5.65 11.25,3.8 20.18,9.54 26.86,17.29 6.67,7.8 10.01,17.65 10.01,29.56 0,8.42 -1.69,15.76 -5.13,21.96 -6.98,13.03 -18.38,21.81 -34.15,26.27 -9.09,2.72 -17.25,4.11 -24.34,4.11 13.3,3.9 23.93,10.57 31.89,20.06 7.91,9.44 13.92,20.17 18.03,32.07 4.11,11.96 7.24,23.61 9.35,35.05 2,5.9 5.7,11.03 11.14,15.34 5.39,4.31 11.5,6.46 18.33,6.46l0 1.34zm-99.16 -114.44c9.04,0 16.95,-2.36 23.72,-7.13 6.78,-4.77 12.02,-10.83 15.82,-18.27 3.75,-7.39 5.6,-15.04 5.6,-22.84 0,-7.59 -1.85,-15.14 -5.55,-22.53 -3.7,-7.44 -8.93,-13.55 -15.71,-18.37 -6.78,-4.82 -14.74,-7.19 -23.88,-7.19l-23.16 0c-4.98,0 -9.24,1.75 -12.79,5.24 -3.49,3.49 -5.24,7.75 -5.24,12.78l0 78.31 41.19 0z"/>
   <path id="_8" class="fil0" d="M1814.93 2554.07l-88.64 0 0 -1.33c7.04,0 13.66,-2 19.93,-5.95 6.32,-3.95 9.66,-9.49 10.17,-16.63l0 -167.19c-0.51,-7.08 -3.85,-12.62 -10.17,-16.57 -6.26,-3.95 -12.89,-5.95 -19.93,-5.95l0 -1.33 88.64 0 0 1.33c-6.83,0 -13.3,2 -19.46,5.95 -6.21,3.95 -9.6,9.39 -10.17,16.32l0 167.75c0.56,6.93 3.96,12.37 10.17,16.32 6.16,3.95 12.63,5.95 19.46,5.95l0 1.33z"/>
   <path id="_9" class="fil0" d="M2015.74 2562.18c-7.96,0 -15.41,-1.9 -22.44,-5.7 -5.7,-3.03 -11.45,-6.77 -17.15,-11.29 -13.35,5.9 -27.63,8.88 -42.88,8.88 -19.77,0 -37.74,-4.82 -54.02,-14.52 -16.23,-9.65 -29.17,-22.63 -38.87,-38.85 -9.65,-16.22 -14.53,-34.28 -14.53,-54.14 0,-19.71 4.88,-37.72 14.53,-53.93 9.71,-16.27 22.65,-29.2 38.87,-38.9 16.28,-9.65 34.25,-14.52 54.02,-14.52 19.87,0 37.9,4.87 54.18,14.52 16.23,9.7 29.22,22.63 38.87,38.9 9.71,16.22 14.54,34.23 14.54,53.93 0,17.35 -3.75,33.36 -11.2,48.03 -7.5,14.68 -17.66,26.99 -30.5,36.95 4.21,1.49 8.58,2.26 13.1,2.26 2.83,0 6.78,-0.51 11.81,-1.54 5.08,-0.98 11.76,-5.03 20.08,-12.16 0.51,-0.41 1.08,-0.62 1.69,-0.62 0.46,0.1 0.92,0.36 1.33,0.77 1.9,2.62 2.88,6.52 2.88,11.7 0,1.13 -0.15,3.75 -0.41,7.9 -0.26,4.16 -3.29,9.08 -9.09,14.83 -5.24,4.98 -13.51,7.49 -24.8,7.49zm-32.82 -37.87c8.63,-10.11 15.41,-21.96 20.39,-35.56 4.98,-13.6 7.45,-27.61 7.45,-42.18 0,-12.93 -2,-25.56 -6.01,-37.87 -4.01,-12.32 -9.55,-23.4 -16.64,-33.2 -7.09,-9.85 -15.3,-17.65 -24.65,-23.45 -9.4,-5.85 -19.46,-8.72 -30.2,-8.72 -10.63,0 -20.64,2.87 -29.99,8.72 -9.4,5.8 -17.61,13.6 -24.7,23.45 -7.04,9.8 -12.58,20.89 -16.64,33.2 -4.01,12.32 -6.01,24.94 -6.01,37.87 0,21.25 5.19,41.21 15.51,59.84 14.43,-8.21 27.53,-12.32 39.29,-12.32 11.09,0 21.47,2.21 31.07,6.62 9.55,4.41 18.64,9.5 27.27,15.19 4.73,3.03 9.35,5.8 13.86,8.41zm-49.66 25.4c12.22,0 23.57,-3.75 34,-11.29 -7.91,-6.52 -16.48,-12.67 -25.73,-18.52 -9.19,-5.9 -19.51,-10.11 -30.81,-12.73 -5.03,-1.18 -10.37,-1.8 -16.13,-1.8 -6.93,0 -14.33,0.87 -22.23,2.72 7.19,12.42 16.07,22.48 26.6,30.12 10.53,7.65 21.98,11.49 34.3,11.49z"/>
   <path id="_10" class="fil0" d="M2179.63 2554.07c-15.71,0 -30.09,-2.41 -42.98,-7.29 -12.94,-4.87 -23.26,-12.11 -30.97,-21.81 -7.65,-9.65 -11.5,-21.55 -11.5,-35.72l0 -129.42c-1.39,-6.11 -5.08,-10.88 -11.09,-14.27 -6.06,-3.44 -12.33,-5.13 -18.85,-5.13l0 -1.49 88.63 0 0 1.49c-6.42,0 -12.63,1.69 -18.64,5.13 -6.06,3.39 -9.76,8.16 -11.15,14.27l0 129.42c0,10.26 2.41,19.96 7.19,29.2 4.83,9.19 11.5,16.73 19.98,22.63 8.47,5.85 18.28,8.77 29.37,8.77 12.63,0 24.19,-2.72 34.61,-8.21 10.43,-5.44 18.74,-12.78 24.91,-21.91 6.16,-9.19 9.24,-19.35 9.24,-30.48l0 -133.16c-1.08,-4.82 -4.78,-8.62 -10.99,-11.44 -6.21,-2.82 -12.02,-4.21 -17.41,-4.21l0 -1.49 61.06 0 0 1.49c-5.29,0 -11.09,1.39 -17.3,4.21 -6.22,2.82 -9.86,6.62 -10.99,11.44l0 133.16c0,11.96 -3.29,22.84 -9.86,32.64 -6.57,9.85 -15.35,17.65 -26.45,23.45 -11.09,5.8 -23.37,8.72 -36.82,8.72z"/>
   <path id="_11" class="fil0" d="M2461.22 2554.07l-169.26 0 0 -1.33c6.62,0 12.99,-1.85 19.05,-5.44 6.06,-3.59 9.65,-8.62 10.73,-15.04l0 -171.4c-1.08,-6.31 -4.67,-11.29 -10.73,-14.93 -6.06,-3.64 -12.43,-5.49 -19.05,-5.49l0 -1.33 160.84 0 2.88 43.88 -1.39 0c0,-4.11 -1.23,-9.03 -3.8,-14.73 -2.57,-5.7 -6.52,-10.98 -11.81,-15.81 -5.34,-4.77 -12.17,-7.8 -20.49,-8.98l-51.3 0c-4.41,0 -8.17,1.54 -11.35,4.62 -3.13,3.13 -4.73,6.93 -4.73,11.44l0 84.77 53.72 0c4.83,-1.08 8.63,-4.72 11.4,-10.98 2.82,-6.21 4.26,-11.96 4.37,-17.24l1.39 0 0 61.02 -1.39 0c-0.1,-5.39 -1.54,-11.24 -4.37,-17.45 -2.77,-6.21 -6.57,-9.85 -11.4,-10.98l-53.72 0 0 82.41c0,5.18 1.8,9.65 5.49,13.29 3.65,3.64 8.12,5.49 13.3,5.49l52.64 0c8.37,-1.39 15.51,-5.23 21.52,-11.44 6.06,-6.21 10.68,-12.88 13.92,-19.96 3.29,-7.13 4.93,-12.78 4.93,-16.98l1.49 0 -2.88 52.6z"/>
   <path id="_12" class="fil0" d="M2656.58 2554.07l-4.06 0 -142.3 -196.33 0 178.17c0.56,5.08 3.95,9.13 10.06,12.16 6.11,2.98 11.86,4.57 17.31,4.67l0 1.33 -58.85 0 0 -1.33c5.34,-0.1 11.09,-1.69 17.26,-4.67 6.16,-3.03 9.55,-7.03 10.12,-12.01l0 -171.24c0,-4.82 -1.49,-9.08 -4.57,-12.73 -3.03,-3.64 -6.83,-6.52 -11.35,-8.62 -4.52,-2.1 -9.09,-3.18 -13.71,-3.18l0 -1.33 55.97 0 120.06 167.6 -0.15 -149.43c-0.51,-5.08 -3.85,-9.18 -10.01,-12.16 -6.16,-3.03 -11.91,-4.57 -17.2,-4.67l0 -1.33 58.8 0 0 1.49c-5.29,0 -10.99,1.49 -17.15,4.41 -6.11,2.98 -9.5,6.98 -10.22,11.96l0 197.26zm-53.25 -245.19c-4.52,0 -8.68,-1.69 -12.48,-5.13 -3.49,-2.98 -6.93,-4.52 -10.22,-4.52 -0.82,0 -2.52,0.31 -5.03,0.92 -2.57,0.62 -5.13,3.13 -7.6,7.65l-7.39 -7.95c3.18,-9.55 7.81,-15.19 13.86,-16.99 1.9,-0.62 3.8,-0.92 5.7,-0.92 3.8,0 7.5,1.33 11.15,3.95 4.88,3.8 9.04,5.7 12.48,5.7 0.51,0 1.75,-0.15 3.85,-0.46 2.05,-0.31 4.62,-2.26 7.7,-5.85l6.62 9.6c-4.78,9.34 -11.04,14.01 -18.64,14.01z"/>
   <path id="_13" class="fil0" d="M2918.35 2554.07l-90.59 0 0 -1.33c4.42,0 9.29,-0.67 14.58,-1.95 5.34,-1.33 9.66,-3.39 12.94,-6.21 2.52,-2.1 3.8,-4.67 3.8,-7.8 0,-1.08 -0.15,-2.21 -0.46,-3.28l-27.68 -73.54 -74.05 0 -29.17 77.59c-0.21,0.97 -0.31,1.9 -0.31,2.72 0,2.77 1.44,5.18 4.37,7.13 2.93,1.95 6.83,3.33 11.81,4.11 4.98,0.82 9.09,1.23 12.43,1.23l0 1.33 -61.11 0 0 -1.33c5.03,0 10.17,-1.18 15.35,-3.54 5.24,-2.36 9.55,-6.36 12.94,-11.96 4.42,-11.75 10.06,-26.68 16.95,-44.9 6.83,-18.17 13.76,-36.54 20.75,-55.16 6.98,-18.57 12.89,-34.33 17.67,-47.21 4.83,-12.88 7.45,-19.96 7.86,-21.25 0.67,-2.82 1.03,-5.44 1.03,-7.85 0,-3.18 -0.92,-6.41 -2.77,-9.7 -1.85,-3.23 -4.88,-5.85 -9.04,-7.8 -4.16,-1.95 -8.16,-2.93 -11.96,-2.93l-0.62 0 0 -1.49 53.3 0 72.2 192.13c6.32,14.42 16.23,21.66 29.79,21.66l0 1.33zm-89.05 -98.48l-35.38 -94.11 -35.48 94.11 70.87 0z"/>
   <path id="_14" class="fil1 str0" d="M134.04 2554.07l-88.63 0 0 -1.33c7.04,0 13.66,-2 19.93,-5.95 6.32,-3.95 9.6,-9.49 10.01,-16.63l0 -169.44c-1.08,-6.31 -4.62,-11.24 -10.68,-14.88 -6.01,-3.59 -12.32,-5.39 -18.95,-5.39l0 -1.49 104.25 0c13.56,0 25.93,1.9 37.18,5.7 11.25,3.8 20.18,9.6 26.86,17.35 6.67,7.8 10.01,17.65 10.01,29.56 0,11.91 -3.34,21.76 -10.01,29.56 -6.68,7.75 -15.61,13.55 -26.86,17.34 -11.25,3.8 -23.62,5.7 -37.18,5.7l-45.55 0 0 86.31c0.51,6.93 3.8,12.37 10.01,16.32 6.16,3.95 12.68,5.95 19.62,5.95l0 1.33zm15.92 -114.23c9.04,0 16.95,-2.41 23.72,-7.24 6.78,-4.82 12.02,-10.93 15.77,-18.27 3.8,-7.39 5.65,-14.98 5.65,-22.78 0,-7.7 -1.85,-15.29 -5.55,-22.68 -3.7,-7.44 -8.93,-13.55 -15.71,-18.37 -6.78,-4.82 -14.74,-7.18 -23.88,-7.18l-27.52 0c-4.98,0 -9.25,1.75 -12.79,5.23 -3.49,3.54 -5.24,7.8 -5.24,12.78l0 78.51 45.55 0z"/>
   <path id="_15" class="fil1 str0" d="M350.31 2554.07c-15.71,0 -30.09,-2.41 -42.98,-7.29 -12.94,-4.87 -23.26,-12.11 -30.97,-21.81 -7.65,-9.65 -11.5,-21.55 -11.5,-35.72l0 -129.42c-1.39,-6.11 -5.08,-10.88 -11.09,-14.27 -6.06,-3.44 -12.33,-5.13 -18.85,-5.13l0 -1.49 88.63 0 0 1.49c-6.42,0 -12.63,1.69 -18.64,5.13 -6.06,3.39 -9.76,8.16 -11.14,14.27l0 129.42c0,10.26 2.41,19.96 7.19,29.2 4.83,9.19 11.5,16.73 19.98,22.63 8.47,5.85 18.28,8.77 29.37,8.77 12.63,0 24.19,-2.72 34.61,-8.21 10.42,-5.44 18.74,-12.78 24.91,-21.91 6.16,-9.19 9.24,-19.35 9.24,-30.48l0 -133.16c-1.08,-4.82 -4.78,-8.62 -10.99,-11.44 -6.22,-2.82 -12.02,-4.21 -17.41,-4.21l0 -1.49 61.06 0 0 1.49c-5.29,0 -11.09,1.39 -17.3,4.21 -6.22,2.82 -9.86,6.62 -10.99,11.44l0 133.16c0,11.96 -3.29,22.84 -9.86,32.64 -6.57,9.85 -15.35,17.65 -26.45,23.45 -11.1,5.8 -23.37,8.72 -36.82,8.72z"/>
   <path id="_16" class="fil1 str0" d="M631.9 2554.07l-169.26 0 0 -1.33c6.62,0 12.99,-1.85 19.05,-5.44 6.06,-3.59 9.65,-8.62 10.73,-15.04l0 -171.4c-1.08,-6.31 -4.67,-11.29 -10.73,-14.93 -6.06,-3.64 -12.43,-5.49 -19.05,-5.49l0 -1.33 160.84 0 2.88 43.88 -1.39 0c0,-4.11 -1.23,-9.03 -3.8,-14.73 -2.57,-5.7 -6.52,-10.98 -11.81,-15.81 -5.34,-4.77 -12.17,-7.8 -20.49,-8.98l-51.3 0c-4.41,0 -8.17,1.54 -11.35,4.62 -3.13,3.13 -4.73,6.93 -4.73,11.44l0 84.77 53.72 0c4.83,-1.08 8.63,-4.72 11.4,-10.98 2.82,-6.21 4.26,-11.96 4.37,-17.24l1.39 0 0 61.02 -1.39 0c-0.1,-5.39 -1.54,-11.24 -4.37,-17.45 -2.77,-6.21 -6.57,-9.85 -11.4,-10.98l-53.72 0 0 82.41c0,5.18 1.8,9.65 5.49,13.29 3.65,3.64 8.12,5.49 13.3,5.49l52.64 0c8.37,-1.39 15.51,-5.23 21.52,-11.44 6.06,-6.21 10.68,-12.88 13.92,-19.96 3.29,-7.13 4.93,-12.78 4.93,-16.98l1.49 0 -2.88 52.6z"/>
   <path id="_17" class="fil1 str0" d="M846.52 2554.38l-90.12 0 0 -1.34c4.73,0 9.55,-0.72 14.53,-2.05 4.98,-1.33 8.88,-3.64 11.81,-6.82 2,-2.41 3.03,-5.44 3.03,-9.03 0,-1.49 -0.15,-3.08 -0.46,-4.67l0.15 0c-2,-12.73 -5.08,-25.51 -9.24,-38.38 -4.21,-12.88 -10.53,-23.81 -19.05,-32.79 -8.52,-8.98 -20.39,-13.96 -35.54,-14.98l-15.46 0 0 86.47c0.52,6.93 3.8,12.37 10.01,16.32 6.16,3.95 12.68,5.95 19.62,5.95l0 1.34 -88.63 0 0 -1.34c7.03,0 13.66,-2.05 19.92,-6.06 6.32,-4 9.6,-9.49 10.01,-16.52l0 -169.45c-1.08,-6.31 -4.62,-11.29 -10.68,-14.93 -6.01,-3.64 -12.32,-5.49 -18.95,-5.49l0 -1.39 99.88 0c13.56,0 25.93,1.9 37.18,5.65 11.25,3.8 20.18,9.54 26.86,17.29 6.68,7.8 10.01,17.65 10.01,29.56 0,8.42 -1.69,15.76 -5.13,21.96 -6.98,13.03 -18.38,21.81 -34.15,26.27 -9.09,2.72 -17.25,4.11 -24.34,4.11 13.3,3.9 23.93,10.57 31.89,20.06 7.91,9.44 13.92,20.17 18.03,32.07 4.11,11.96 7.24,23.61 9.34,35.05 2,5.9 5.7,11.03 11.14,15.34 5.39,4.31 11.5,6.46 18.33,6.46l0 1.34zm-99.16 -114.44c9.04,0 16.95,-2.36 23.72,-7.13 6.78,-4.77 12.02,-10.83 15.82,-18.27 3.75,-7.39 5.6,-15.04 5.6,-22.84 0,-7.59 -1.85,-15.14 -5.55,-22.53 -3.7,-7.44 -8.94,-13.55 -15.71,-18.37 -6.78,-4.82 -14.74,-7.19 -23.88,-7.19l-23.16 0c-4.98,0 -9.24,1.75 -12.79,5.24 -3.49,3.49 -5.24,7.75 -5.24,12.78l0 78.31 41.19 0z"/>
   <path id="_18" class="fil1 str0" d="M1005.02 2554.07l-88.59 0 0 -1.33c6.98,0 13.66,-2 19.93,-5.95 6.27,-3.95 9.6,-9.49 10.01,-16.63l0 -186.84 -47.24 0c-8.32,1.39 -15.51,5.18 -21.52,11.34 -6.01,6.16 -10.63,12.78 -13.87,19.91 -3.18,7.13 -4.83,12.78 -4.93,16.99l-1.39 0 2.88 -52.6 201.92 0 2.98 52.6 -1.49 0c0,-4.21 -1.64,-9.85 -4.88,-16.99 -3.29,-7.13 -7.91,-13.75 -13.86,-19.91 -5.96,-6.16 -13.15,-9.96 -21.57,-11.34l-48.02 0 0 187.15c0.51,6.93 3.85,12.37 10.01,16.32 6.16,3.95 12.74,5.95 19.62,5.95l0 1.33z"/>
   <path id="_19" class="fil1 str0" d="M1183.54 2554.07c-19.77,0 -37.79,-4.82 -54.07,-14.52 -16.28,-9.65 -29.27,-22.63 -38.87,-38.85 -9.66,-16.22 -14.48,-34.28 -14.48,-54.14 0,-19.71 4.83,-37.72 14.48,-53.93 9.6,-16.27 22.59,-29.2 38.87,-38.9 16.28,-9.65 34.3,-14.52 54.07,-14.52 19.87,0 37.9,4.87 54.18,14.52 16.23,9.7 29.22,22.63 38.87,38.9 9.71,16.22 14.54,34.23 14.54,53.93 0,19.86 -4.83,37.92 -14.54,54.14 -9.65,16.22 -22.64,29.2 -38.87,38.85 -16.28,9.7 -34.3,14.52 -54.18,14.52zm0 -4.36c10.74,0 20.8,-2.92 30.2,-8.72 9.35,-5.8 17.56,-13.6 24.65,-23.35 7.09,-9.8 12.63,-20.83 16.64,-33.1 4,-12.26 6.01,-24.94 6.01,-37.97 0,-12.93 -2,-25.56 -6.01,-37.87 -4.01,-12.32 -9.55,-23.4 -16.64,-33.2 -7.09,-9.85 -15.3,-17.65 -24.65,-23.45 -9.4,-5.85 -19.46,-8.72 -30.2,-8.72 -10.63,0 -20.64,2.87 -29.99,8.72 -9.4,5.8 -17.61,13.6 -24.7,23.45 -7.03,9.8 -12.63,20.89 -16.69,33.2 -4.06,12.32 -6.11,24.94 -6.11,37.87 0,13.03 2.05,25.71 6.11,37.97 4.06,12.26 9.66,23.3 16.69,33.1 7.09,9.75 15.3,17.55 24.7,23.35 9.35,5.8 19.36,8.72 29.99,8.72z"/>
   <path id="_20" class="fil1 str0" d="M1505.13 2554.38l-90.12 0 0 -1.34c4.72,0 9.55,-0.72 14.53,-2.05 4.98,-1.33 8.88,-3.64 11.81,-6.82 2,-2.41 3.03,-5.44 3.03,-9.03 0,-1.49 -0.15,-3.08 -0.46,-4.67l0.15 0c-2,-12.73 -5.08,-25.51 -9.24,-38.38 -4.21,-12.88 -10.53,-23.81 -19.05,-32.79 -8.52,-8.98 -20.39,-13.96 -35.54,-14.98l-15.46 0 0 86.47c0.51,6.93 3.8,12.37 10.01,16.32 6.16,3.95 12.68,5.95 19.62,5.95l0 1.34 -88.64 0 0 -1.34c7.04,0 13.66,-2.05 19.93,-6.06 6.32,-4 9.6,-9.49 10.01,-16.52l0 -169.45c-1.08,-6.31 -4.62,-11.29 -10.68,-14.93 -6.01,-3.64 -12.32,-5.49 -18.95,-5.49l0 -1.39 99.88 0c13.56,0 25.93,1.9 37.18,5.65 11.25,3.8 20.18,9.54 26.86,17.29 6.67,7.8 10.01,17.65 10.01,29.56 0,8.42 -1.69,15.76 -5.13,21.96 -6.98,13.03 -18.38,21.81 -34.15,26.27 -9.09,2.72 -17.25,4.11 -24.34,4.11 13.3,3.9 23.93,10.57 31.89,20.06 7.91,9.44 13.92,20.17 18.03,32.07 4.11,11.96 7.24,23.61 9.35,35.05 2,5.9 5.7,11.03 11.14,15.34 5.39,4.31 11.5,6.46 18.33,6.46l0 1.34zm-99.16 -114.44c9.04,0 16.95,-2.36 23.72,-7.13 6.78,-4.77 12.02,-10.83 15.82,-18.27 3.75,-7.39 5.6,-15.04 5.6,-22.84 0,-7.59 -1.85,-15.14 -5.55,-22.53 -3.7,-7.44 -8.93,-13.55 -15.71,-18.37 -6.78,-4.82 -14.74,-7.19 -23.88,-7.19l-23.16 0c-4.98,0 -9.24,1.75 -12.79,5.24 -3.49,3.49 -5.24,7.75 -5.24,12.78l0 78.31 41.19 0z"/>
   <path id="_21" class="fil1 str0" d="M1715.39 2554.38l-90.12 0 0 -1.34c4.72,0 9.55,-0.72 14.53,-2.05 4.98,-1.33 8.88,-3.64 11.81,-6.82 2,-2.41 3.03,-5.44 3.03,-9.03 0,-1.49 -0.15,-3.08 -0.46,-4.67l0.15 0c-2,-12.73 -5.08,-25.51 -9.24,-38.38 -4.21,-12.88 -10.53,-23.81 -19.05,-32.79 -8.52,-8.98 -20.39,-13.96 -35.54,-14.98l-15.46 0 0 86.47c0.51,6.93 3.8,12.37 10.01,16.32 6.16,3.95 12.68,5.95 19.62,5.95l0 1.34 -88.64 0 0 -1.34c7.04,0 13.66,-2.05 19.93,-6.06 6.32,-4 9.6,-9.49 10.01,-16.52l0 -169.45c-1.08,-6.31 -4.62,-11.29 -10.68,-14.93 -6.01,-3.64 -12.32,-5.49 -18.95,-5.49l0 -1.39 99.88 0c13.56,0 25.93,1.9 37.18,5.65 11.25,3.8 20.18,9.54 26.86,17.29 6.67,7.8 10.01,17.65 10.01,29.56 0,8.42 -1.69,15.76 -5.13,21.96 -6.98,13.03 -18.38,21.81 -34.15,26.27 -9.09,2.72 -17.25,4.11 -24.34,4.11 13.3,3.9 23.93,10.57 31.89,20.06 7.91,9.44 13.92,20.17 18.03,32.07 4.11,11.96 7.24,23.61 9.35,35.05 2,5.9 5.7,11.03 11.14,15.34 5.39,4.31 11.5,6.46 18.33,6.46l0 1.34zm-99.16 -114.44c9.04,0 16.95,-2.36 23.72,-7.13 6.78,-4.77 12.02,-10.83 15.82,-18.27 3.75,-7.39 5.6,-15.04 5.6,-22.84 0,-7.59 -1.85,-15.14 -5.55,-22.53 -3.7,-7.44 -8.93,-13.55 -15.71,-18.37 -6.78,-4.82 -14.74,-7.19 -23.88,-7.19l-23.16 0c-4.98,0 -9.24,1.75 -12.79,5.24 -3.49,3.49 -5.24,7.75 -5.24,12.78l0 78.31 41.19 0z"/>
   <path id="_22" class="fil1 str0" d="M1814.93 2554.07l-88.64 0 0 -1.33c7.04,0 13.66,-2 19.93,-5.95 6.32,-3.95 9.66,-9.49 10.17,-16.63l0 -167.19c-0.51,-7.08 -3.85,-12.62 -10.17,-16.57 -6.26,-3.95 -12.89,-5.95 -19.93,-5.95l0 -1.33 88.64 0 0 1.33c-6.83,0 -13.3,2 -19.46,5.95 -6.21,3.95 -9.6,9.39 -10.17,16.32l0 167.75c0.56,6.93 3.96,12.37 10.17,16.32 6.16,3.95 12.63,5.95 19.46,5.95l0 1.33z"/>
   <path id="_23" class="fil1 str0" d="M2015.74 2562.18c-7.96,0 -15.41,-1.9 -22.44,-5.7 -5.7,-3.03 -11.45,-6.77 -17.15,-11.29 -13.35,5.9 -27.63,8.88 -42.88,8.88 -19.77,0 -37.74,-4.82 -54.02,-14.52 -16.23,-9.65 -29.17,-22.63 -38.87,-38.85 -9.65,-16.22 -14.53,-34.28 -14.53,-54.14 0,-19.71 4.88,-37.72 14.53,-53.93 9.71,-16.27 22.65,-29.2 38.87,-38.9 16.28,-9.65 34.25,-14.52 54.02,-14.52 19.87,0 37.9,4.87 54.18,14.52 16.23,9.7 29.22,22.63 38.87,38.9 9.71,16.22 14.54,34.23 14.54,53.93 0,17.35 -3.75,33.36 -11.2,48.03 -7.5,14.68 -17.66,26.99 -30.5,36.95 4.21,1.49 8.58,2.26 13.1,2.26 2.83,0 6.78,-0.51 11.81,-1.54 5.08,-0.98 11.76,-5.03 20.08,-12.16 0.51,-0.41 1.08,-0.62 1.69,-0.62 0.46,0.1 0.92,0.36 1.33,0.77 1.9,2.62 2.88,6.52 2.88,11.7 0,1.13 -0.15,3.75 -0.41,7.9 -0.26,4.16 -3.29,9.08 -9.09,14.83 -5.24,4.98 -13.51,7.49 -24.8,7.49zm-32.82 -37.87c8.63,-10.11 15.41,-21.96 20.39,-35.56 4.98,-13.6 7.45,-27.61 7.45,-42.18 0,-12.93 -2,-25.56 -6.01,-37.87 -4.01,-12.32 -9.55,-23.4 -16.64,-33.2 -7.09,-9.85 -15.3,-17.65 -24.65,-23.45 -9.4,-5.85 -19.46,-8.72 -30.2,-8.72 -10.63,0 -20.64,2.87 -29.99,8.72 -9.4,5.8 -17.61,13.6 -24.7,23.45 -7.04,9.8 -12.58,20.89 -16.64,33.2 -4.01,12.32 -6.01,24.94 -6.01,37.87 0,21.25 5.19,41.21 15.51,59.84 14.43,-8.21 27.53,-12.32 39.29,-12.32 11.09,0 21.47,2.21 31.07,6.62 9.55,4.41 18.64,9.5 27.27,15.19 4.73,3.03 9.35,5.8 13.86,8.41zm-49.66 25.4c12.22,0 23.57,-3.75 34,-11.29 -7.91,-6.52 -16.48,-12.67 -25.73,-18.52 -9.19,-5.9 -19.51,-10.11 -30.81,-12.73 -5.03,-1.18 -10.37,-1.8 -16.13,-1.8 -6.93,0 -14.33,0.87 -22.23,2.72 7.19,12.42 16.07,22.48 26.6,30.12 10.53,7.65 21.98,11.49 34.3,11.49z"/>
   <path id="_24" class="fil1 str0" d="M2179.63 2554.07c-15.71,0 -30.09,-2.41 -42.98,-7.29 -12.94,-4.87 -23.26,-12.11 -30.97,-21.81 -7.65,-9.65 -11.5,-21.55 -11.5,-35.72l0 -129.42c-1.39,-6.11 -5.08,-10.88 -11.09,-14.27 -6.06,-3.44 -12.33,-5.13 -18.85,-5.13l0 -1.49 88.63 0 0 1.49c-6.42,0 -12.63,1.69 -18.64,5.13 -6.06,3.39 -9.76,8.16 -11.15,14.27l0 129.42c0,10.26 2.41,19.96 7.19,29.2 4.83,9.19 11.5,16.73 19.98,22.63 8.47,5.85 18.28,8.77 29.37,8.77 12.63,0 24.19,-2.72 34.61,-8.21 10.43,-5.44 18.74,-12.78 24.91,-21.91 6.16,-9.19 9.24,-19.35 9.24,-30.48l0 -133.16c-1.08,-4.82 -4.78,-8.62 -10.99,-11.44 -6.21,-2.82 -12.02,-4.21 -17.41,-4.21l0 -1.49 61.06 0 0 1.49c-5.29,0 -11.09,1.39 -17.3,4.21 -6.22,2.82 -9.86,6.62 -10.99,11.44l0 133.16c0,11.96 -3.29,22.84 -9.86,32.64 -6.57,9.85 -15.35,17.65 -26.45,23.45 -11.09,5.8 -23.37,8.72 -36.82,8.72z"/>
   <path id="_25" class="fil1 str0" d="M2461.22 2554.07l-169.26 0 0 -1.33c6.62,0 12.99,-1.85 19.05,-5.44 6.06,-3.59 9.65,-8.62 10.73,-15.04l0 -171.4c-1.08,-6.31 -4.67,-11.29 -10.73,-14.93 -6.06,-3.64 -12.43,-5.49 -19.05,-5.49l0 -1.33 160.84 0 2.88 43.88 -1.39 0c0,-4.11 -1.23,-9.03 -3.8,-14.73 -2.57,-5.7 -6.52,-10.98 -11.81,-15.81 -5.34,-4.77 -12.17,-7.8 -20.49,-8.98l-51.3 0c-4.41,0 -8.17,1.54 -11.35,4.62 -3.13,3.13 -4.73,6.93 -4.73,11.44l0 84.77 53.72 0c4.83,-1.08 8.63,-4.72 11.4,-10.98 2.82,-6.21 4.26,-11.96 4.37,-17.24l1.39 0 0 61.02 -1.39 0c-0.1,-5.39 -1.54,-11.24 -4.37,-17.45 -2.77,-6.21 -6.57,-9.85 -11.4,-10.98l-53.72 0 0 82.41c0,5.18 1.8,9.65 5.49,13.29 3.65,3.64 8.12,5.49 13.3,5.49l52.64 0c8.37,-1.39 15.51,-5.23 21.52,-11.44 6.06,-6.21 10.68,-12.88 13.92,-19.96 3.29,-7.13 4.93,-12.78 4.93,-16.98l1.49 0 -2.88 52.6z"/>
   <path id="_26" class="fil1 str0" d="M2656.58 2554.07l-4.06 0 -142.3 -196.33 0 178.17c0.56,5.08 3.95,9.13 10.06,12.16 6.11,2.98 11.86,4.57 17.31,4.67l0 1.33 -58.85 0 0 -1.33c5.34,-0.1 11.09,-1.69 17.26,-4.67 6.16,-3.03 9.55,-7.03 10.12,-12.01l0 -171.24c0,-4.82 -1.49,-9.08 -4.57,-12.73 -3.03,-3.64 -6.83,-6.52 -11.35,-8.62 -4.52,-2.1 -9.09,-3.18 -13.71,-3.18l0 -1.33 55.97 0 120.06 167.6 -0.15 -149.43c-0.51,-5.08 -3.85,-9.18 -10.01,-12.16 -6.16,-3.03 -11.91,-4.57 -17.2,-4.67l0 -1.33 58.8 0 0 1.49c-5.29,0 -10.99,1.49 -17.15,4.41 -6.11,2.98 -9.5,6.98 -10.22,11.96l0 197.26zm-53.25 -245.19c-4.52,0 -8.68,-1.69 -12.48,-5.13 -3.49,-2.98 -6.93,-4.52 -10.22,-4.52 -0.82,0 -2.52,0.31 -5.03,0.92 -2.57,0.62 -5.13,3.13 -7.6,7.65l-7.39 -7.95c3.18,-9.55 7.81,-15.19 13.86,-16.99 1.9,-0.62 3.8,-0.92 5.7,-0.92 3.8,0 7.5,1.33 11.15,3.95 4.88,3.8 9.04,5.7 12.48,5.7 0.51,0 1.75,-0.15 3.85,-0.46 2.05,-0.31 4.62,-2.26 7.7,-5.85l6.62 9.6c-4.78,9.34 -11.04,14.01 -18.64,14.01z"/>
   <path id="_27" class="fil1 str0" d="M2918.35 2554.07l-90.59 0 0 -1.33c4.42,0 9.29,-0.67 14.58,-1.95 5.34,-1.33 9.66,-3.39 12.94,-6.21 2.52,-2.1 3.8,-4.67 3.8,-7.8 0,-1.08 -0.15,-2.21 -0.46,-3.28l-27.68 -73.54 -74.05 0 -29.17 77.59c-0.21,0.97 -0.31,1.9 -0.31,2.72 0,2.77 1.44,5.18 4.37,7.13 2.93,1.95 6.83,3.33 11.81,4.11 4.98,0.82 9.09,1.23 12.43,1.23l0 1.33 -61.11 0 0 -1.33c5.03,0 10.17,-1.18 15.35,-3.54 5.24,-2.36 9.55,-6.36 12.94,-11.96 4.42,-11.75 10.06,-26.68 16.95,-44.9 6.83,-18.17 13.76,-36.54 20.75,-55.16 6.98,-18.57 12.89,-34.33 17.67,-47.21 4.83,-12.88 7.45,-19.96 7.86,-21.25 0.67,-2.82 1.03,-5.44 1.03,-7.85 0,-3.18 -0.92,-6.41 -2.77,-9.7 -1.85,-3.23 -4.88,-5.85 -9.04,-7.8 -4.16,-1.95 -8.16,-2.93 -11.96,-2.93l-0.62 0 0 -1.49 53.3 0 72.2 192.13c6.32,14.42 16.23,21.66 29.79,21.66l0 1.33zm-89.05 -98.48l-35.38 -94.11 -35.48 94.11 70.87 0z"/>
   <path class="fil0 str0" d="M3858.9 1742.02l-229.37 -609.01 -151.97 404.59c154.52,16.44 281.54,84.77 381.34,204.42zm-430.39 912.67c-123.62,0 -233.34,-37.71 -329.74,-113.41 -96.4,-75.42 -163.31,-176.64 -201.02,-303.37 -14.46,-52.17 -21.55,-103.2 -21.55,-153.11 0,-91.3 23.53,-180.04 70.6,-266.51 75.13,-131.27 185.71,-218.31 331.44,-261.69 49.62,-14.46 99.52,-21.55 149.42,-21.55l24.95 0.85c87.89,-234.76 133.26,-356.11 135.24,-363.76 3.97,-15.59 5.95,-29.77 5.95,-42.53 0,-17.58 -5.1,-35.73 -15.31,-53.87 -10.21,-18.43 -27.22,-32.89 -50.75,-43.66 -23.53,-10.77 -46.5,-16.16 -68.61,-16.16l0 -7.37 294.02 0 398.92 1060.67c34.31,79.67 89.03,119.65 164.44,119.65l0 8.22 -500.14 0 0 -8.22c24.38,0 51.04,-3.69 80.24,-10.77 28.92,-7.37 53.02,-18.71 71.73,-34.31 13.89,-11.63 20.7,-25.8 20.7,-43.1 0,-5.95 -0.57,-12.19 -2.27,-18.15l-89.88 -237.59c-43.1,-82.51 -102.64,-148.57 -178.05,-198.19 -75.7,-49.62 -159.06,-78.25 -250.35,-85.91l-204.42 544.08c-1.13,5.39 -1.7,10.49 -1.7,15.03 0,15.31 7.94,28.64 24.1,39.41 16.16,10.77 37.71,18.43 65.21,22.68 27.5,4.54 50.18,6.8 68.61,6.8l0 7.37 -337.4 0.85 0 -8.22 3.4 0c26.65,0 53.87,-6.52 82.22,-19.56 28.35,-13.04 51.88,-35.16 70.6,-66.06 57.56,-149.99 125.6,-331.16 204.42,-543.23l-15.88 0c-47.63,0 -95.55,6.52 -143.75,19.85 -138.93,41.11 -244.4,124.47 -316.41,250.07 -44.8,81.94 -67.19,166.71 -67.19,254.32 0,47.92 6.8,96.96 20.7,146.87 27.22,90.73 74,164.16 140.34,220.02 66.34,56.14 143.75,92.71 231.64,109.72 36.01,7.37 72.58,10.77 109.72,10.77 52.74,0 106.04,-7.37 160.48,-22.4l19.85 83.92c-52.17,14.46 -103.49,21.55 -154.52,21.55z"/>
   <path class="fil0 str0" d="M2278.42 2181.77l0 -8.22c29.49,-0.57 61.3,-9.24 95.26,-25.8 34.08,-16.61 55.86,-38.67 55.86,-66.34l0 -930.81c0,-26.08 -8.24,-49.32 -25.24,-70.03 -16.74,-20.4 -37.71,-36.29 -62.66,-47.63 -24.95,-11.34 -50.18,-17.01 -75.7,-17.01l0 -8.22 309.04 0 636.29 696.13 -0.85 -595.77c-0.04,-28.21 -21.32,-50.64 -55.29,-67.2 -34.07,-16.61 -65.78,-24.95 -94.98,-24.95l0 -8.22 324.64 0 0 8.22c-29.2,0 -60.76,8.06 -94.7,24.38 -33.82,16.27 -56.42,38.28 -56.42,66.06l0 860.01 -22.4 0 -759.06 -854.91 0 969.09c0,28.24 21.78,50.58 55.57,67.2 33.68,16.56 65.49,25.23 95.55,25.8l0 7.37 -324.92 0.85z"/>
   <path class="fil0 str0" d="M2205.62 2196.23l-934.5 0 0 -7.37c36.58,0 71.73,-10.21 105.19,-30.05 33.46,-19.85 53.3,-47.63 59.26,-83.07l0 -946.97c-5.95,-34.88 -25.8,-62.38 -59.26,-82.51 -33.45,-20.13 -68.61,-30.34 -105.19,-30.34l0 -7.37 888 0 15.88 242.41 -7.66 0c0,-22.68 -6.8,-49.9 -20.98,-81.37 -14.18,-31.47 -36.01,-60.67 -65.21,-87.33 -29.49,-26.37 -67.19,-43.1 -113.13,-49.62l-283.24 0c-24.38,0 -45.08,8.51 -62.66,25.52 -17.3,17.3 -26.08,38.27 -26.08,63.23l0 468.39 296.57 0c26.65,-5.95 47.63,-26.08 62.94,-60.68 15.59,-34.31 23.53,-66.06 24.1,-95.26l7.65 0 0 337.11 -7.65 0c-0.57,-29.77 -8.51,-62.09 -24.1,-96.4 -15.31,-34.31 -36.29,-54.44 -62.94,-60.67l-296.57 0 0 455.34c0,28.64 9.92,53.3 30.34,73.43 20.13,20.13 44.8,30.34 73.43,30.34l290.61 0c46.21,-7.66 85.62,-28.92 118.8,-63.23 33.46,-34.31 58.97,-71.17 76.83,-110.29 18.15,-39.41 27.22,-70.6 27.22,-93.85l8.22 0 -15.88 290.62z"/>
   <path class="fil0 str0" d="M1329.37 1954.5l-729.72 0 0 -8.22c36.57,0 71.73,-10.21 105.19,-30.05 33.46,-19.85 60.11,-47.04 60.11,-83.07l0 -552.38c0,-38.68 -22.12,-68.9 -56.42,-90.44 -34.31,-21.55 -70.88,-32.32 -109.72,-32.32l0 -8.51 489.37 0 0 8.51c-37.14,0 -72.58,10.49 -106.32,31.47 -33.74,20.98 -57.27,49.94 -57.27,87.33l0 549.83c0,28.63 10,53.24 30.34,73.43 20.19,20.05 44.51,30.34 73.43,30.34l86.68 0c46.56,0 85.63,-28.64 118.8,-62.66 33.17,-34.02 58.87,-70.81 76.55,-110.01 17.74,-39.33 26.65,-70.6 27.22,-93.85l7.65 0 -15.88 290.61z"/>
   <path class="fil0 str0" d="M776.57 2196.23l-775.86 0 0 -11.69c61.58,0 119.51,-17.64 174.41,-52.15 55.22,-34.71 87.66,-83.06 87.66,-145.64l0 -1795.45c0,-56.09 -40.42,-98.51 -93.5,-130.36 -52.55,-31.53 -107.88,-47.2 -165.87,-47.2l0 -13.04 912.51 0c118.67,0 227,16.63 325.45,49.9 98.44,33.26 176.77,83.97 235.1,151.94 58.54,68.23 87.65,154.63 87.65,258.92 0,104.29 -29.11,190.69 -87.65,258.92 -58.32,67.97 -136.65,118.67 -235.1,151.94 -98.44,33.26 -206.78,49.9 -325.45,49.9l-398.72 0 0 1067.24c0,60.84 33.33,108.23 87.66,142.94 54,34.51 111.03,52.15 171.71,52.15l0 11.69zm139.35 -1311.78c79.11,0 148.34,-21.13 207.68,-63.38 59.34,-42.25 105.1,-95.79 138,-160.03 33.17,-64.77 49.45,-131.26 49.45,-199.58 0,-67.43 -16.27,-133.91 -48.55,-198.68 -32.45,-65.13 -78.22,-118.67 -137.55,-160.93 -59.33,-42.25 -129.02,-62.93 -209.02,-62.93l-240.94 0c-43.6,0 -81.14,15.06 -111.93,45.85 -30.79,30.79 -45.85,68.33 -45.85,111.93l0 687.75 398.72 0z"/>
  </g>
 </g>
</svg>
