<?xml version="1.0" encoding="UTF-8"?>
<!DOCTYPE svg PUBLIC "-//W3C//DTD SVG 1.1//EN" "http://www.w3.org/Graphics/SVG/1.1/DTD/svg11.dtd">
<!-- Creator: CorelDRAW -->
<svg xmlns="http://www.w3.org/2000/svg" xml:space="preserve" width="19.4071in" height="8.1268in" version="1.1" style="shape-rendering:geometricPrecision; text-rendering:geometricPrecision; image-rendering:optimizeQuality; fill-rule:evenodd; clip-rule:evenodd"
viewBox="0 0 3006.93 1259.16"
 xmlns:xlink="http://www.w3.org/1999/xlink"
 xmlns:xodm="http://www.corel.com/coreldraw/odm/2003">
 <defs>
  <style type="text/css">
   <![CDATA[
    .str0 {stroke:black;stroke-width:0.46;stroke-miterlimit:2.61313}
    .fil1 {fill:none;fill-rule:nonzero}
    .fil0 {fill:black;fill-rule:nonzero}
   ]]>
  </style>
 </defs>
 <g id="Layer_x0020_1">
  <metadata id="CorelCorpID_0Corel-Layer"/>
  <path class="fil0" d="M200.83 487.42l-200.59 0 0 -3.02c15.92,0 30.91,-4.53 45.09,-13.48 14.29,-8.95 21.73,-21.5 22.66,-37.65l0 -383.75c-2.44,-14.29 -10.46,-25.45 -24.17,-33.7 -13.6,-8.13 -27.89,-12.2 -42.88,-12.2l0 -3.37 235.92 0c30.68,0 58.69,4.3 84.14,12.9 25.45,8.6 45.67,21.73 60.78,39.28 15.11,17.67 22.66,39.98 22.66,66.94 0,26.96 -7.55,49.28 -22.66,66.94 -15.11,17.55 -35.33,30.68 -60.78,39.28 -25.45,8.6 -53.46,12.9 -84.14,12.9l-103.09 0 0 195.48c1.16,15.69 8.6,28.01 22.66,36.96 13.95,8.95 28.71,13.48 44.4,13.48l0 3.02zm36.03 -258.7c20.45,0 38.35,-5.46 53.69,-16.39 15.34,-10.92 27.19,-24.75 35.68,-41.37 8.6,-16.74 12.78,-33.94 12.78,-51.6 0,-17.43 -4.18,-34.63 -12.55,-51.37 -8.37,-16.85 -20.22,-30.68 -35.56,-41.61 -15.34,-10.92 -33.35,-16.27 -54.04,-16.27l-62.29 0c-11.27,0 -20.92,3.95 -28.94,11.85 -7.9,8.02 -11.85,17.67 -11.85,28.94l0 177.81 103.09 0z"/>
  <path id="_1" class="fil0" d="M918.12 487.77l0 -3.37c12.09,-0.23 25.1,-3.84 39.05,-10.58 13.95,-6.86 21.62,-15.92 22.9,-27.19l0 -387.82c0,-10.69 -3.37,-20.22 -10.34,-28.71 -6.86,-8.37 -15.46,-14.88 -25.68,-19.52 -10.23,-4.65 -20.57,-6.97 -31.03,-6.97l0 -3.37 126.68 0 271.72 379.57 -0.35 -338.43c-1.16,-11.51 -8.72,-20.8 -22.66,-27.54 -13.95,-6.86 -26.96,-10.23 -38.93,-10.23l0 -3.37 133.07 0 0 3.37c-11.97,0 -24.87,3.37 -38.82,9.99 -13.83,6.74 -21.5,15.81 -23.13,27.08l0 446.74 -9.18 0 -322.04 -444.65 0 403.51c1.28,11.51 8.95,20.69 22.78,27.54 13.83,6.74 26.85,10.34 39.17,10.58l0 3.02 -133.19 0.35z"/>
  <path id="_2" class="fil0" d="M1618.22 487.42c-42.42,0 -81,-10.92 -115.64,-32.89 -34.52,-21.85 -62.06,-51.25 -82.51,-88.09 -20.45,-36.96 -30.68,-77.75 -30.68,-122.49 0,-44.86 10.23,-85.77 30.68,-122.73 20.45,-36.84 48.11,-66.24 83.1,-88.21 34.98,-21.85 74.38,-32.77 118.43,-32.77 28.59,0 57.64,7.55 87.16,22.78 11.39,5.46 21.73,8.13 31.03,8.13 4.76,0 11.39,-1.39 19.76,-4.18 8.37,-2.91 12.55,-11.74 12.55,-26.73l3.49 0 0 127.26 -3.49 0c-0.23,-14.3 -4.76,-29.52 -13.6,-45.91 -14.06,-21.38 -33.35,-38.12 -57.88,-50.44 -24.52,-12.2 -50.79,-18.36 -79.03,-18.36 -20.34,0 -40.21,5.58 -59.39,16.85 -19.18,11.27 -36.38,27.08 -51.72,47.53 -15.34,20.45 -27.54,44.74 -36.84,72.99 -9.18,28.24 -13.71,59.5 -13.71,93.79 0,44.98 7.09,84.84 21.27,119.71 14.18,34.87 33.24,62.06 57.06,81.7 23.82,19.64 50.44,29.52 79.96,29.52 24.06,0 46.25,-5.69 66.59,-17.08 20.34,-11.39 38,-26.03 53.11,-44.28 15.11,-18.13 26.96,-37.89 35.56,-59.16l10.58 0c-8.6,25.8 -21.04,48.7 -37.31,68.69 -16.27,19.99 -35.45,35.68 -57.53,47.18 -22.2,11.51 -45.79,17.2 -71.01,17.2z"/>
  <path id="_3" class="fil0" d="M2182.35 487.42l-383.06 0 0 -3.02c14.99,0 29.4,-4.18 43.12,-12.32 13.71,-8.13 21.85,-19.52 24.29,-34.05l0 -388.17c-2.44,-14.3 -10.58,-25.57 -24.29,-33.82 -13.71,-8.25 -28.12,-12.44 -43.12,-12.44l0 -3.02 364 0 6.51 99.37 -3.14 0c0,-9.3 -2.79,-20.45 -8.6,-33.35 -5.81,-12.9 -14.76,-24.87 -26.73,-35.8 -12.09,-10.81 -27.54,-17.67 -46.37,-20.34l-116.1 0c-9.99,0 -18.48,3.49 -25.68,10.46 -7.09,7.09 -10.69,15.69 -10.69,25.92l0 191.99 121.56 0c10.92,-2.44 19.52,-10.69 25.8,-24.87 6.39,-14.06 9.65,-27.08 9.88,-39.05l3.14 0 0 138.18 -3.14 0c-0.23,-12.2 -3.49,-25.45 -9.88,-39.51 -6.28,-14.06 -14.88,-22.31 -25.8,-24.87l-121.56 0 0 186.65c0,11.74 4.07,21.85 12.44,30.1 8.25,8.25 18.36,12.44 30.1,12.44l119.12 0c18.94,-3.14 35.1,-11.85 48.7,-25.92 13.71,-14.06 24.17,-29.17 31.5,-45.21 7.44,-16.15 11.16,-28.94 11.16,-38.47l3.37 0 -6.51 119.12z"/>
  <path id="_4" class="fil0" d="M675.23 487.42c-44.74,0 -85.54,-10.92 -122.38,-32.89 -36.84,-21.85 -66.24,-51.25 -87.98,-87.98 -21.85,-36.72 -32.77,-77.63 -32.77,-122.61 0,-44.63 10.92,-85.42 32.77,-122.15 21.73,-36.84 51.14,-66.13 87.98,-88.09 36.84,-21.85 77.63,-32.89 122.38,-32.89 44.98,0 85.77,11.04 122.61,32.89 36.72,21.97 66.13,51.25 87.98,88.09 21.96,36.72 32.89,77.52 32.89,122.15 0,44.98 -10.93,85.89 -32.89,122.61 -21.85,36.72 -51.25,66.13 -87.98,87.98 -36.84,21.96 -77.63,32.89 -122.61,32.89zm0 -9.88c24.29,0 47.07,-6.62 68.34,-19.76 21.15,-13.13 39.75,-30.8 55.78,-52.88 16.04,-22.2 28.59,-47.18 37.65,-74.96 9.07,-27.78 13.6,-56.48 13.6,-86 0,-29.29 -4.53,-57.88 -13.6,-85.77 -9.07,-27.89 -21.62,-53 -37.65,-75.19 -16.04,-22.31 -34.63,-39.98 -55.78,-53.11 -21.27,-13.25 -44.05,-19.76 -68.34,-19.76 -24.06,0 -46.72,6.51 -67.87,19.76 -21.27,13.13 -39.86,30.8 -55.9,53.11 -15.92,22.2 -28.59,47.3 -37.77,75.19 -9.18,27.89 -13.83,56.48 -13.83,85.77 0,29.52 4.65,58.23 13.83,86 9.18,27.78 21.85,52.76 37.77,74.96 16.04,22.08 34.63,39.75 55.9,52.88 21.15,13.13 43.81,19.76 67.87,19.76z"/>
  <path id="_5" class="fil1 str0" d="M200.83 487.42l-200.59 0 0 -3.02c15.92,0 30.91,-4.53 45.09,-13.48 14.29,-8.95 21.73,-21.5 22.66,-37.65l0 -383.75c-2.44,-14.29 -10.46,-25.45 -24.17,-33.7 -13.6,-8.13 -27.89,-12.2 -42.88,-12.2l0 -3.37 235.92 0c30.68,0 58.69,4.3 84.14,12.9 25.45,8.6 45.67,21.73 60.78,39.28 15.11,17.67 22.66,39.98 22.66,66.94 0,26.96 -7.55,49.28 -22.66,66.94 -15.11,17.55 -35.33,30.68 -60.78,39.28 -25.45,8.6 -53.46,12.9 -84.14,12.9l-103.09 0 0 195.48c1.16,15.69 8.6,28.01 22.66,36.96 13.95,8.95 28.71,13.48 44.4,13.48l0 3.02zm36.03 -258.7c20.45,0 38.35,-5.46 53.69,-16.39 15.34,-10.92 27.19,-24.75 35.68,-41.37 8.6,-16.74 12.78,-33.94 12.78,-51.6 0,-17.43 -4.18,-34.63 -12.55,-51.37 -8.37,-16.85 -20.22,-30.68 -35.56,-41.61 -15.34,-10.92 -33.35,-16.27 -54.04,-16.27l-62.29 0c-11.27,0 -20.92,3.95 -28.94,11.85 -7.9,8.02 -11.85,17.67 -11.85,28.94l0 177.81 103.09 0z"/>
  <path id="_6" class="fil1 str0" d="M918.12 487.77l0 -3.37c12.09,-0.23 25.1,-3.84 39.05,-10.58 13.95,-6.86 21.62,-15.92 22.9,-27.19l0 -387.82c0,-10.69 -3.37,-20.22 -10.34,-28.71 -6.86,-8.37 -15.46,-14.88 -25.68,-19.52 -10.23,-4.65 -20.57,-6.97 -31.03,-6.97l0 -3.37 126.68 0 271.72 379.57 -0.35 -338.43c-1.16,-11.51 -8.72,-20.8 -22.66,-27.54 -13.95,-6.86 -26.96,-10.23 -38.93,-10.23l0 -3.37 133.07 0 0 3.37c-11.97,0 -24.87,3.37 -38.82,9.99 -13.83,6.74 -21.5,15.81 -23.13,27.08l0 446.74 -9.18 0 -322.04 -444.65 0 403.51c1.28,11.51 8.95,20.69 22.78,27.54 13.83,6.74 26.85,10.34 39.17,10.58l0 3.02 -133.19 0.35z"/>
  <path id="_7" class="fil1 str0" d="M1618.22 487.42c-42.42,0 -81,-10.92 -115.64,-32.89 -34.52,-21.85 -62.06,-51.25 -82.51,-88.09 -20.45,-36.96 -30.68,-77.75 -30.68,-122.49 0,-44.86 10.23,-85.77 30.68,-122.73 20.45,-36.84 48.11,-66.24 83.1,-88.21 34.98,-21.85 74.38,-32.77 118.43,-32.77 28.59,0 57.64,7.55 87.16,22.78 11.39,5.46 21.73,8.13 31.03,8.13 4.76,0 11.39,-1.39 19.76,-4.18 8.37,-2.91 12.55,-11.74 12.55,-26.73l3.49 0 0 127.26 -3.49 0c-0.23,-14.3 -4.76,-29.52 -13.6,-45.91 -14.06,-21.38 -33.35,-38.12 -57.88,-50.44 -24.52,-12.2 -50.79,-18.36 -79.03,-18.36 -20.34,0 -40.21,5.58 -59.39,16.85 -19.18,11.27 -36.38,27.08 -51.72,47.53 -15.34,20.45 -27.54,44.74 -36.84,72.99 -9.18,28.24 -13.71,59.5 -13.71,93.79 0,44.98 7.09,84.84 21.27,119.71 14.18,34.87 33.24,62.06 57.06,81.7 23.82,19.64 50.44,29.52 79.96,29.52 24.06,0 46.25,-5.69 66.59,-17.08 20.34,-11.39 38,-26.03 53.11,-44.28 15.11,-18.13 26.96,-37.89 35.56,-59.16l10.58 0c-8.6,25.8 -21.04,48.7 -37.31,68.69 -16.27,19.99 -35.45,35.68 -57.53,47.18 -22.2,11.51 -45.79,17.2 -71.01,17.2z"/>
  <path id="_8" class="fil1 str0" d="M2182.35 487.42l-383.06 0 0 -3.02c14.99,0 29.4,-4.18 43.12,-12.32 13.71,-8.13 21.85,-19.52 24.29,-34.05l0 -388.17c-2.44,-14.3 -10.58,-25.57 -24.29,-33.82 -13.71,-8.25 -28.12,-12.44 -43.12,-12.44l0 -3.02 364 0 6.51 99.37 -3.14 0c0,-9.3 -2.79,-20.45 -8.6,-33.35 -5.81,-12.9 -14.76,-24.87 -26.73,-35.8 -12.09,-10.81 -27.54,-17.67 -46.37,-20.34l-116.1 0c-9.99,0 -18.48,3.49 -25.68,10.46 -7.09,7.09 -10.69,15.69 -10.69,25.92l0 191.99 121.56 0c10.92,-2.44 19.52,-10.69 25.8,-24.87 6.39,-14.06 9.65,-27.08 9.88,-39.05l3.14 0 0 138.18 -3.14 0c-0.23,-12.2 -3.49,-25.45 -9.88,-39.51 -6.28,-14.06 -14.88,-22.31 -25.8,-24.87l-121.56 0 0 186.65c0,11.74 4.07,21.85 12.44,30.1 8.25,8.25 18.36,12.44 30.1,12.44l119.12 0c18.94,-3.14 35.1,-11.85 48.7,-25.92 13.71,-14.06 24.17,-29.17 31.5,-45.21 7.44,-16.15 11.16,-28.94 11.16,-38.47l3.37 0 -6.51 119.12z"/>
  <path id="_9" class="fil1 str0" d="M675.23 487.42c-44.74,0 -85.54,-10.92 -122.38,-32.89 -36.84,-21.85 -66.24,-51.25 -87.98,-87.98 -21.85,-36.72 -32.77,-77.63 -32.77,-122.61 0,-44.63 10.92,-85.42 32.77,-122.15 21.73,-36.84 51.14,-66.13 87.98,-88.09 36.84,-21.85 77.63,-32.89 122.38,-32.89 44.98,0 85.77,11.04 122.61,32.89 36.72,21.97 66.13,51.25 87.98,88.09 21.96,36.72 32.89,77.52 32.89,122.15 0,44.98 -10.93,85.89 -32.89,122.61 -21.85,36.72 -51.25,66.13 -87.98,87.98 -36.84,21.96 -77.63,32.89 -122.61,32.89zm0 -9.88c24.29,0 47.07,-6.62 68.34,-19.76 21.15,-13.13 39.75,-30.8 55.78,-52.88 16.04,-22.2 28.59,-47.18 37.65,-74.96 9.07,-27.78 13.6,-56.48 13.6,-86 0,-29.29 -4.53,-57.88 -13.6,-85.77 -9.07,-27.89 -21.62,-53 -37.65,-75.19 -16.04,-22.31 -34.63,-39.98 -55.78,-53.11 -21.27,-13.25 -44.05,-19.76 -68.34,-19.76 -24.06,0 -46.72,6.51 -67.87,19.76 -21.27,13.13 -39.86,30.8 -55.9,53.11 -15.92,22.2 -28.59,47.3 -37.77,75.19 -9.18,27.89 -13.83,56.48 -13.83,85.77 0,29.52 4.65,58.23 13.83,86 9.18,27.78 21.85,52.76 37.77,74.96 16.04,22.08 34.63,39.75 55.9,52.88 21.15,13.13 43.81,19.76 67.87,19.76z"/>
  <path class="fil0" d="M549.73 1071.77l0 -3.37c12.67,-0.23 26.27,-3.84 40.68,-10.58 14.41,-6.86 22.31,-16.04 23.71,-27.54l-0.35 -386.89c0,-13.13 -3.72,-23.94 -11.04,-32.31 -7.44,-8.37 -16.15,-14.41 -26.27,-18.01 -10.11,-3.6 -18.83,-5.46 -26.38,-5.46l-1.39 0 0 -3.37 133.19 0 146.09 383.06 146.09 -383.06 133.42 0 0 3.37c-10.69,0 -21.15,2.09 -31.5,6.28 -10.34,4.18 -18.94,10.23 -25.68,17.9 -6.86,7.67 -10.23,16.85 -10.23,27.2l0 377.59c0,10.69 3.37,19.87 10.23,27.66 6.74,7.67 15.34,13.6 25.68,17.78 10.34,4.3 20.8,6.39 31.5,6.39l0 3.02 -200.94 0 0 -3.02c10.93,0 21.5,-2.09 31.84,-6.39 10.34,-4.18 18.94,-9.99 25.92,-17.66 6.97,-7.55 10.34,-16.85 10.34,-27.78l0 -406.18 -176.3 461.04 -174.68 -438.84 0 397.7c1.4,11.51 9.18,20.69 23.59,27.54 14.41,6.74 28.01,10.34 40.79,10.58l0 3.02 -138.3 0.35z"/>
  <path id="_1_51" class="fil0" d="M1375.34 1071.42c-35.33,0 -67.76,-5.58 -97.04,-16.62 -29.29,-11.16 -52.65,-27.66 -70.08,-49.63 -17.55,-21.85 -26.27,-48.81 -26.27,-80.89l0 -293.1c-3.14,-13.83 -11.51,-24.64 -25.1,-32.31 -13.71,-7.79 -27.89,-11.62 -42.65,-11.62l0 -3.37 200.59 0 0 3.37c-14.53,0 -28.59,3.95 -42.07,11.74 -13.48,7.79 -21.85,18.59 -24.99,32.19l0 293.1c0,23.24 5.35,45.21 16.15,66.13 10.81,20.8 25.8,37.89 45.09,51.25 19.29,13.25 41.49,19.87 66.36,19.87 28.59,0 54.74,-6.16 78.33,-18.6 23.59,-12.32 42.42,-28.94 56.6,-49.63 14.06,-20.8 21.04,-43.81 21.04,-69.03l0 -301.59c-2.44,-10.92 -10.81,-19.52 -24.99,-25.92 -14.18,-6.39 -27.31,-9.53 -39.28,-9.53l0 -3.37 138.18 0 0 3.37c-12.09,0 -25.1,3.25 -39.17,9.76 -14.06,6.39 -22.31,14.99 -24.87,25.68l0 301.59c0,27.08 -7.44,51.72 -22.43,73.91 -14.99,22.31 -34.98,39.98 -60.09,53.34 -25.1,13.25 -52.88,19.87 -83.33,19.87zm1.05 -516.47l-16.62 -13.95 44.51 -101.81 47.77 30.22 -75.66 85.54z"/>
  <path id="_2_52" class="fil0" d="M1756.65 1071.42c-20.34,0 -39.4,-3.72 -57.18,-11.27 -17.67,-7.44 -33.12,-17.78 -46.25,-30.91l0 0.35c-6.16,-6.16 -11.74,-9.18 -16.74,-9.18 -3.37,0 -7.79,2.32 -13.25,7.09 -5.46,4.76 -8.14,13.83 -8.14,27.19l-3.14 0 0 -154.57 3.14 0c0.46,17.78 4.07,38.82 10.81,63.34 10.23,29.29 26.5,53 48.93,71.24 22.31,18.13 48.81,27.2 79.49,27.2l2.32 0c24.75,-1.4 45.56,-8.37 62.41,-20.92 16.74,-12.67 29.05,-28.36 36.72,-47.18 6.16,-14.99 9.18,-30.22 9.18,-45.67 0,-4.07 -0.23,-8.14 -0.7,-12.2 -0.46,-6.62 -3.37,-16.62 -8.6,-29.98 -5.35,-13.37 -16.27,-26.96 -32.54,-40.79 -16.39,-13.83 -41.14,-24.99 -74.26,-33.35l-0.7 0 0.7 0c-84.84,-21.15 -129.58,-66.48 -134.12,-135.86l0 -4.77c0,-19.29 5.11,-37.07 15.46,-53.11 10.34,-16.15 26.27,-29.17 47.65,-39.05 21.5,-9.88 47.77,-14.76 78.8,-14.76 28.01,0 52.41,8.48 73.22,25.45l0 -0.35c5.23,4.42 10.34,6.51 15.34,6.51 3.6,0 8.37,-1.86 14.29,-5.81 5.93,-3.84 8.83,-12.43 8.83,-25.8l3.49 0 0 151.08 -3.49 0c-0.23,-10.81 -1.86,-25.45 -4.88,-43.7 -3.02,-18.25 -8.72,-34.87 -16.85,-49.86 -9.76,-14.29 -22.43,-25.92 -38.12,-34.75 -15.69,-8.83 -32.89,-13.25 -51.83,-13.25 -29.17,2.21 -50.79,13.25 -64.62,33.01 -9.76,14.06 -14.64,29.64 -14.64,46.6 0,7.32 0.93,14.76 2.67,22.55 4.53,16.27 11.74,29.52 21.62,39.63 9.88,10.11 20.57,17.78 32.08,23.13 11.39,5.35 21.62,8.95 30.45,10.69 63.8,19.29 108.66,45.44 134.81,78.33 20.22,25.92 30.33,53.81 30.33,83.79 0,24.75 -7.09,47.77 -21.15,68.92 -14.06,21.27 -34.05,38.35 -59.85,51.49 -25.92,13.02 -56.48,19.52 -91.7,19.52z"/>
  <path id="_3_53" class="fil0" d="M2145.17 1071.42l-200.59 0 0 -3.02c15.92,0 30.91,-4.53 45.09,-13.48 14.29,-8.95 21.85,-21.5 23.01,-37.65l0 -378.64c-1.16,-16.04 -8.72,-28.59 -23.01,-37.54 -14.18,-8.95 -29.17,-13.48 -45.09,-13.48l0 -3.02 200.59 0 0 3.02c-15.46,0 -30.1,4.53 -44.05,13.48 -14.06,8.95 -21.73,21.27 -23.01,36.96l0 379.92c1.28,15.69 8.95,28.01 23.01,36.96 13.95,8.95 28.59,13.48 44.05,13.48l0 3.02z"/>
  <path id="_4_54" class="fil0" d="M2380.75 1071.42c-42.42,0 -81,-10.92 -115.64,-32.89 -34.52,-21.85 -62.06,-51.25 -82.51,-88.09 -20.45,-36.96 -30.68,-77.75 -30.68,-122.49 0,-44.86 10.23,-85.77 30.68,-122.73 20.45,-36.84 48.11,-66.24 83.1,-88.21 34.98,-21.85 74.38,-32.77 118.43,-32.77 28.59,0 57.64,7.55 87.16,22.78 11.39,5.46 21.73,8.13 31.03,8.13 4.76,0 11.39,-1.39 19.76,-4.18 8.37,-2.91 12.55,-11.74 12.55,-26.73l3.49 0 0 127.26 -3.49 0c-0.23,-14.3 -4.76,-29.52 -13.6,-45.91 -14.06,-21.38 -33.35,-38.12 -57.88,-50.44 -24.52,-12.2 -50.79,-18.36 -79.03,-18.36 -20.34,0 -40.21,5.58 -59.39,16.85 -19.18,11.27 -36.38,27.08 -51.72,47.53 -15.34,20.45 -27.54,44.74 -36.84,72.99 -9.18,28.24 -13.71,59.5 -13.71,93.79 0,44.98 7.09,84.84 21.27,119.71 14.18,34.87 33.24,62.06 57.06,81.7 23.82,19.64 50.44,29.52 79.96,29.52 24.06,0 46.25,-5.69 66.59,-17.08 20.34,-11.39 38,-26.03 53.11,-44.28 15.11,-18.13 26.96,-37.89 35.56,-59.16l10.58 0c-8.6,25.8 -21.04,48.7 -37.31,68.69 -16.27,19.99 -35.45,35.68 -57.53,47.18 -22.2,11.51 -45.79,17.2 -71.01,17.2z"/>
  <path id="_5_55" class="fil0" d="M2643.38 1258.58c-50.67,0.09 -95.79,-15.17 -135.36,-46.02 -39.57,-30.85 -67.18,-72.29 -82.85,-124.21 -5.96,-21.26 -9.02,-42.17 -9.06,-62.63 -0.18,-37.42 9.4,-73.93 28.51,-109.41 30.7,-53.86 75.85,-89.74 135.56,-107.62 20.33,-6.08 40.78,-9.02 61.23,-9.17l10.23 0.33c35.74,-96.29 54.02,-146.18 54.94,-149.32 1.62,-6.39 2.3,-12.09 2.29,-17.32 -0.01,-7.32 -2.12,-14.64 -6.31,-22.19 -4.2,-7.43 -11.18,-13.35 -20.83,-17.75 -9.65,-4.4 -19.07,-6.59 -28.14,-6.58l-0.01 -3.02 120.52 -0.44 164.97 434.25c14.12,32.63 36.69,48.86 67.61,48.81l0.01 3.37 -205.01 0.71 -0.01 -3.37c9.99,-0.02 20.92,-1.55 32.88,-4.59 11.85,-2.93 21.72,-7.71 29.38,-14 5.69,-4.89 8.47,-10.71 8.45,-17.8 -0,-2.44 -0.36,-5 -1.06,-7.44l-37.13 -97.33c-17.84,-33.67 -42.29,-60.71 -73.36,-80.88 -30.95,-20.28 -65.25,-31.85 -102.68,-34.92l-83.05 223.28c-0.46,2.33 -0.57,4.3 -0.57,6.16 0.01,6.39 3.27,11.73 9.91,16.14 6.52,4.4 15.47,7.53 26.75,9.25 11.28,1.84 20.58,2.64 28.13,2.62l0.01 3.14 -138.3 0.82 -0.01 -3.49 1.39 -0c10.92,-0.02 22.08,-2.71 33.69,-8.08 11.5,-5.37 21.13,-14.45 28.77,-27.13 23.48,-61.64 51.13,-135.95 83.06,-223.05l-6.51 0.01c-19.52,0.15 -39.16,2.86 -58.91,8.36 -56.92,17.07 -99.97,51.43 -129.29,102.96 -18.3,33.73 -27.42,68.5 -27.25,104.29 0.03,19.76 2.97,39.86 8.71,60.3 11.22,37.17 30.57,67.12 57.92,89.97 27.24,22.85 58.99,37.67 95.14,44.58 14.76,3 29.76,4.36 44.87,4.34 21.62,-0.04 43.46,-3.21 65.76,-9.41l8.31 34.39c-21.37,5.96 -42.52,8.91 -63.32,9.06zm175.07 -374.88l-94.92 -249.24 -61.65 166.07c63.35,6.63 115.46,34.32 156.58,83.17z"/>
  <path id="_6_56" class="fil1 str0" d="M549.73 1071.77l0 -3.37c12.67,-0.23 26.27,-3.84 40.68,-10.58 14.41,-6.86 22.31,-16.04 23.71,-27.54l-0.35 -386.89c0,-13.13 -3.72,-23.94 -11.04,-32.31 -7.44,-8.37 -16.15,-14.41 -26.27,-18.01 -10.11,-3.6 -18.83,-5.46 -26.38,-5.46l-1.39 0 0 -3.37 133.19 0 146.09 383.06 146.09 -383.06 133.42 0 0 3.37c-10.69,0 -21.15,2.09 -31.5,6.28 -10.34,4.18 -18.94,10.23 -25.68,17.9 -6.86,7.67 -10.23,16.85 -10.23,27.2l0 377.59c0,10.69 3.37,19.87 10.23,27.66 6.74,7.67 15.34,13.6 25.68,17.78 10.34,4.3 20.8,6.39 31.5,6.39l0 3.02 -200.94 0 0 -3.02c10.93,0 21.5,-2.09 31.84,-6.39 10.34,-4.18 18.94,-9.99 25.92,-17.66 6.97,-7.55 10.34,-16.85 10.34,-27.78l0 -406.18 -176.3 461.04 -174.68 -438.84 0 397.7c1.4,11.51 9.18,20.69 23.59,27.54 14.41,6.74 28.01,10.34 40.79,10.58l0 3.02 -138.3 0.35z"/>
  <path id="_7_57" class="fil1 str0" d="M1375.34 1071.42c-35.33,0 -67.76,-5.58 -97.04,-16.62 -29.29,-11.16 -52.65,-27.66 -70.08,-49.63 -17.55,-21.85 -26.27,-48.81 -26.27,-80.89l0 -293.1c-3.14,-13.83 -11.51,-24.64 -25.1,-32.31 -13.71,-7.79 -27.89,-11.62 -42.65,-11.62l0 -3.37 200.59 0 0 3.37c-14.53,0 -28.59,3.95 -42.07,11.74 -13.48,7.79 -21.85,18.59 -24.99,32.19l0 293.1c0,23.24 5.35,45.21 16.15,66.13 10.81,20.8 25.8,37.89 45.09,51.25 19.29,13.25 41.49,19.87 66.36,19.87 28.59,0 54.74,-6.16 78.33,-18.6 23.59,-12.32 42.42,-28.94 56.6,-49.63 14.06,-20.8 21.04,-43.81 21.04,-69.03l0 -301.59c-2.44,-10.92 -10.81,-19.52 -24.99,-25.92 -14.18,-6.39 -27.31,-9.53 -39.28,-9.53l0 -3.37 138.18 0 0 3.37c-12.09,0 -25.1,3.25 -39.17,9.76 -14.06,6.39 -22.31,14.99 -24.87,25.68l0 301.59c0,27.08 -7.44,51.72 -22.43,73.91 -14.99,22.31 -34.98,39.98 -60.09,53.34 -25.1,13.25 -52.88,19.87 -83.33,19.87zm1.05 -516.47l-16.62 -13.95 44.51 -101.81 47.77 30.22 -75.66 85.54z"/>
  <path id="_8_58" class="fil1 str0" d="M1756.65 1071.42c-20.34,0 -39.4,-3.72 -57.18,-11.27 -17.67,-7.44 -33.12,-17.78 -46.25,-30.91l0 0.35c-6.16,-6.16 -11.74,-9.18 -16.74,-9.18 -3.37,0 -7.79,2.32 -13.25,7.09 -5.46,4.76 -8.14,13.83 -8.14,27.19l-3.14 0 0 -154.57 3.14 0c0.46,17.78 4.07,38.82 10.81,63.34 10.23,29.29 26.5,53 48.93,71.24 22.31,18.13 48.81,27.2 79.49,27.2l2.32 0c24.75,-1.4 45.56,-8.37 62.41,-20.92 16.74,-12.67 29.05,-28.36 36.72,-47.18 6.16,-14.99 9.18,-30.22 9.18,-45.67 0,-4.07 -0.23,-8.14 -0.7,-12.2 -0.46,-6.62 -3.37,-16.62 -8.6,-29.98 -5.35,-13.37 -16.27,-26.96 -32.54,-40.79 -16.39,-13.83 -41.14,-24.99 -74.26,-33.35l-0.7 0 0.7 0c-84.84,-21.15 -129.58,-66.48 -134.12,-135.86l0 -4.77c0,-19.29 5.11,-37.07 15.46,-53.11 10.34,-16.15 26.27,-29.17 47.65,-39.05 21.5,-9.88 47.77,-14.76 78.8,-14.76 28.01,0 52.41,8.48 73.22,25.45l0 -0.35c5.23,4.42 10.34,6.51 15.34,6.51 3.6,0 8.37,-1.86 14.29,-5.81 5.93,-3.84 8.83,-12.43 8.83,-25.8l3.49 0 0 151.08 -3.49 0c-0.23,-10.81 -1.86,-25.45 -4.88,-43.7 -3.02,-18.25 -8.72,-34.87 -16.85,-49.86 -9.76,-14.29 -22.43,-25.92 -38.12,-34.75 -15.69,-8.83 -32.89,-13.25 -51.83,-13.25 -29.17,2.21 -50.79,13.25 -64.62,33.01 -9.76,14.06 -14.64,29.64 -14.64,46.6 0,7.32 0.93,14.76 2.67,22.55 4.53,16.27 11.74,29.52 21.62,39.63 9.88,10.11 20.57,17.78 32.08,23.13 11.39,5.35 21.62,8.95 30.45,10.69 63.8,19.29 108.66,45.44 134.81,78.33 20.22,25.92 30.33,53.81 30.33,83.79 0,24.75 -7.09,47.77 -21.15,68.92 -14.06,21.27 -34.05,38.35 -59.85,51.49 -25.92,13.02 -56.48,19.52 -91.7,19.52z"/>
  <path id="_9_59" class="fil1 str0" d="M2145.17 1071.42l-200.59 0 0 -3.02c15.92,0 30.91,-4.53 45.09,-13.48 14.29,-8.95 21.85,-21.5 23.01,-37.65l0 -378.64c-1.16,-16.04 -8.72,-28.59 -23.01,-37.54 -14.18,-8.95 -29.17,-13.48 -45.09,-13.48l0 -3.02 200.59 0 0 3.02c-15.46,0 -30.1,4.53 -44.05,13.48 -14.06,8.95 -21.73,21.27 -23.01,36.96l0 379.92c1.28,15.69 8.95,28.01 23.01,36.96 13.95,8.95 28.59,13.48 44.05,13.48l0 3.02z"/>
  <path id="_10" class="fil1 str0" d="M2380.75 1071.42c-42.42,0 -81,-10.92 -115.64,-32.89 -34.52,-21.85 -62.06,-51.25 -82.51,-88.09 -20.45,-36.96 -30.68,-77.75 -30.68,-122.49 0,-44.86 10.23,-85.77 30.68,-122.73 20.45,-36.84 48.11,-66.24 83.1,-88.21 34.98,-21.85 74.38,-32.77 118.43,-32.77 28.59,0 57.64,7.55 87.16,22.78 11.39,5.46 21.73,8.13 31.03,8.13 4.76,0 11.39,-1.39 19.76,-4.18 8.37,-2.91 12.55,-11.74 12.55,-26.73l3.49 0 0 127.26 -3.49 0c-0.23,-14.3 -4.76,-29.52 -13.6,-45.91 -14.06,-21.38 -33.35,-38.12 -57.88,-50.44 -24.52,-12.2 -50.79,-18.36 -79.03,-18.36 -20.34,0 -40.21,5.58 -59.39,16.85 -19.18,11.27 -36.38,27.08 -51.72,47.53 -15.34,20.45 -27.54,44.74 -36.84,72.99 -9.18,28.24 -13.71,59.5 -13.71,93.79 0,44.98 7.09,84.84 21.27,119.71 14.18,34.87 33.24,62.06 57.06,81.7 23.82,19.64 50.44,29.52 79.96,29.52 24.06,0 46.25,-5.69 66.59,-17.08 20.34,-11.39 38,-26.03 53.11,-44.28 15.11,-18.13 26.96,-37.89 35.56,-59.16l10.58 0c-8.6,25.8 -21.04,48.7 -37.31,68.69 -16.27,19.99 -35.45,35.68 -57.53,47.18 -22.2,11.51 -45.79,17.2 -71.01,17.2z"/>
  <path id="_11" class="fil1 str0" d="M2643.38 1258.58c-50.67,0.09 -95.79,-15.17 -135.36,-46.02 -39.57,-30.85 -67.18,-72.29 -82.85,-124.21 -5.96,-21.26 -9.02,-42.17 -9.06,-62.63 -0.18,-37.42 9.4,-73.93 28.51,-109.41 30.7,-53.86 75.85,-89.74 135.56,-107.62 20.33,-6.08 40.78,-9.02 61.23,-9.17l10.23 0.33c35.74,-96.29 54.02,-146.18 54.94,-149.32 1.62,-6.39 2.3,-12.09 2.29,-17.32 -0.01,-7.32 -2.12,-14.64 -6.31,-22.19 -4.2,-7.43 -11.18,-13.35 -20.83,-17.75 -9.65,-4.4 -19.07,-6.59 -28.14,-6.58l-0.01 -3.02 120.52 -0.44 164.97 434.25c14.12,32.63 36.69,48.86 67.61,48.81l0.01 3.37 -205.01 0.71 -0.01 -3.37c9.99,-0.02 20.92,-1.55 32.88,-4.59 11.85,-2.93 21.72,-7.71 29.38,-14 5.69,-4.89 8.47,-10.71 8.45,-17.8 -0,-2.44 -0.36,-5 -1.06,-7.44l-37.13 -97.33c-17.84,-33.67 -42.29,-60.71 -73.36,-80.88 -30.95,-20.28 -65.25,-31.85 -102.68,-34.92l-83.05 223.28c-0.46,2.33 -0.57,4.3 -0.57,6.16 0.01,6.39 3.27,11.73 9.91,16.14 6.52,4.4 15.47,7.53 26.75,9.25 11.28,1.84 20.58,2.64 28.13,2.62l0.01 3.14 -138.3 0.82 -0.01 -3.49 1.39 -0c10.92,-0.02 22.08,-2.71 33.69,-8.08 11.5,-5.37 21.13,-14.45 28.77,-27.13 23.48,-61.64 51.13,-135.95 83.06,-223.05l-6.51 0.01c-19.52,0.15 -39.16,2.86 -58.91,8.36 -56.92,17.07 -99.97,51.43 -129.29,102.96 -18.3,33.73 -27.42,68.5 -27.25,104.29 0.03,19.76 2.97,39.86 8.71,60.3 11.22,37.17 30.57,67.12 57.92,89.97 27.24,22.85 58.99,37.67 95.14,44.58 14.76,3 29.76,4.36 44.87,4.34 21.62,-0.04 43.46,-3.21 65.76,-9.41l8.31 34.39c-21.37,5.96 -42.52,8.91 -63.32,9.06zm175.07 -374.88l-94.92 -249.24 -61.65 166.07c63.35,6.63 115.46,34.32 156.58,83.17z"/>
  <path class="fil0" d="M286.58 870.51l-221.42 0 0 -1.75c8.67,0 17,-2.42 24.92,-7.12 7.93,-4.7 12.63,-11.29 14.04,-19.68l0 -224.38c-1.41,-8.26 -6.11,-14.78 -14.04,-19.55 -7.93,-4.77 -16.26,-7.19 -24.92,-7.19l0 -1.75 210.4 0 3.76 57.44 -1.81 0c0,-5.37 -1.61,-11.82 -4.97,-19.28 -3.36,-7.46 -8.53,-14.38 -15.45,-20.69 -6.99,-6.25 -15.92,-10.21 -26.8,-11.76l-67.11 0c-5.78,0 -10.68,2.02 -14.85,6.05 -4.1,4.1 -6.18,9.07 -6.18,14.98l0 110.98 70.27 0c6.31,-1.41 11.29,-6.18 14.91,-14.38 3.69,-8.13 5.58,-15.65 5.71,-22.57l1.81 0 0 79.88 -1.81 0c-0.13,-7.05 -2.02,-14.71 -5.71,-22.84 -3.63,-8.13 -8.6,-12.9 -14.91,-14.38l-70.27 0 0 107.89c0,6.79 2.35,12.63 7.19,17.4 4.77,4.77 10.61,7.19 17.4,7.19l68.86 0c10.95,-1.81 20.29,-6.85 28.15,-14.98 7.93,-8.13 13.97,-16.86 18.21,-26.13 4.3,-9.34 6.45,-16.73 6.45,-22.24l1.95 0 -3.76 68.86z"/>
  <path id="_1_60" class="fil0" d="M379.83 870.51c-11.76,0 -22.77,-2.15 -33.05,-6.52 -10.21,-4.3 -19.15,-10.28 -26.74,-17.87l0 0.2c-3.56,-3.56 -6.79,-5.31 -9.67,-5.31 -1.95,0 -4.5,1.34 -7.66,4.1 -3.16,2.75 -4.7,7.99 -4.7,15.72l-1.81 0 0 -89.35 1.81 0c0.27,10.28 2.35,22.44 6.25,36.61 5.91,16.93 15.32,30.63 28.28,41.18 12.9,10.48 28.21,15.72 45.95,15.72l1.34 0c14.31,-0.81 26.33,-4.84 36.07,-12.09 9.67,-7.32 16.8,-16.39 21.23,-27.27 3.56,-8.67 5.31,-17.47 5.31,-26.4 0,-2.35 -0.13,-4.7 -0.4,-7.05 -0.27,-3.83 -1.95,-9.61 -4.97,-17.33 -3.09,-7.73 -9.4,-15.59 -18.81,-23.58 -9.47,-7.99 -23.78,-14.44 -42.93,-19.28l-0.4 0 0.4 0c-49.04,-12.23 -74.9,-38.43 -77.52,-78.53l0 -2.75c0,-11.15 2.96,-21.43 8.93,-30.7 5.98,-9.34 15.18,-16.86 27.54,-22.57 12.43,-5.71 27.61,-8.53 45.55,-8.53 16.19,0 30.3,4.9 42.32,14.71l0 -0.2c3.02,2.55 5.98,3.76 8.87,3.76 2.08,0 4.84,-1.07 8.26,-3.36 3.43,-2.22 5.11,-7.19 5.11,-14.91l2.02 0 0 87.33 -2.02 0c-0.13,-6.25 -1.07,-14.71 -2.82,-25.26 -1.75,-10.55 -5.04,-20.15 -9.74,-28.82 -5.64,-8.26 -12.97,-14.98 -22.03,-20.09 -9.07,-5.11 -19.01,-7.66 -29.96,-7.66 -16.86,1.28 -29.36,7.66 -37.35,19.08 -5.64,8.13 -8.46,17.13 -8.46,26.94 0,4.23 0.54,8.53 1.55,13.03 2.62,9.4 6.79,17.06 12.5,22.91 5.71,5.84 11.89,10.28 18.54,13.37 6.58,3.09 12.5,5.17 17.6,6.18 36.88,11.15 62.81,26.27 77.93,45.28 11.69,14.98 17.53,31.1 17.53,48.44 0,14.31 -4.1,27.61 -12.23,39.84 -8.13,12.29 -19.68,22.17 -34.6,29.76 -14.98,7.52 -32.65,11.29 -53,11.29z"/>
  <path id="_2_61" class="fil1 str0" d="M286.58 870.51l-221.42 0 0 -1.75c8.67,0 17,-2.42 24.92,-7.12 7.93,-4.7 12.63,-11.29 14.04,-19.68l0 -224.38c-1.41,-8.26 -6.11,-14.78 -14.04,-19.55 -7.93,-4.77 -16.26,-7.19 -24.92,-7.19l0 -1.75 210.4 0 3.76 57.44 -1.81 0c0,-5.37 -1.61,-11.82 -4.97,-19.28 -3.36,-7.46 -8.53,-14.38 -15.45,-20.69 -6.99,-6.25 -15.92,-10.21 -26.8,-11.76l-67.11 0c-5.78,0 -10.68,2.02 -14.85,6.05 -4.1,4.1 -6.18,9.07 -6.18,14.98l0 110.98 70.27 0c6.31,-1.41 11.29,-6.18 14.91,-14.38 3.69,-8.13 5.58,-15.65 5.71,-22.57l1.81 0 0 79.88 -1.81 0c-0.13,-7.05 -2.02,-14.71 -5.71,-22.84 -3.63,-8.13 -8.6,-12.9 -14.91,-14.38l-70.27 0 0 107.89c0,6.79 2.35,12.63 7.19,17.4 4.77,4.77 10.61,7.19 17.4,7.19l68.86 0c10.95,-1.81 20.29,-6.85 28.15,-14.98 7.93,-8.13 13.97,-16.86 18.21,-26.13 4.3,-9.34 6.45,-16.73 6.45,-22.24l1.95 0 -3.76 68.86z"/>
  <path id="_3_62" class="fil1 str0" d="M379.83 870.51c-11.76,0 -22.77,-2.15 -33.05,-6.52 -10.21,-4.3 -19.15,-10.28 -26.74,-17.87l0 0.2c-3.56,-3.56 -6.79,-5.31 -9.67,-5.31 -1.95,0 -4.5,1.34 -7.66,4.1 -3.16,2.75 -4.7,7.99 -4.7,15.72l-1.81 0 0 -89.35 1.81 0c0.27,10.28 2.35,22.44 6.25,36.61 5.91,16.93 15.32,30.63 28.28,41.18 12.9,10.48 28.21,15.72 45.95,15.72l1.34 0c14.31,-0.81 26.33,-4.84 36.07,-12.09 9.67,-7.32 16.8,-16.39 21.23,-27.27 3.56,-8.67 5.31,-17.47 5.31,-26.4 0,-2.35 -0.13,-4.7 -0.4,-7.05 -0.27,-3.83 -1.95,-9.61 -4.97,-17.33 -3.09,-7.73 -9.4,-15.59 -18.81,-23.58 -9.47,-7.99 -23.78,-14.44 -42.93,-19.28l-0.4 0 0.4 0c-49.04,-12.23 -74.9,-38.43 -77.52,-78.53l0 -2.75c0,-11.15 2.96,-21.43 8.93,-30.7 5.98,-9.34 15.18,-16.86 27.54,-22.57 12.43,-5.71 27.61,-8.53 45.55,-8.53 16.19,0 30.3,4.9 42.32,14.71l0 -0.2c3.02,2.55 5.98,3.76 8.87,3.76 2.08,0 4.84,-1.07 8.26,-3.36 3.43,-2.22 5.11,-7.19 5.11,-14.91l2.02 0 0 87.33 -2.02 0c-0.13,-6.25 -1.07,-14.71 -2.82,-25.26 -1.75,-10.55 -5.04,-20.15 -9.74,-28.82 -5.64,-8.26 -12.97,-14.98 -22.03,-20.09 -9.07,-5.11 -19.01,-7.66 -29.96,-7.66 -16.86,1.28 -29.36,7.66 -37.35,19.08 -5.64,8.13 -8.46,17.13 -8.46,26.94 0,4.23 0.54,8.53 1.55,13.03 2.62,9.4 6.79,17.06 12.5,22.91 5.71,5.84 11.89,10.28 18.54,13.37 6.58,3.09 12.5,5.17 17.6,6.18 36.88,11.15 62.81,26.27 77.93,45.28 11.69,14.98 17.53,31.1 17.53,48.44 0,14.31 -4.1,27.61 -12.23,39.84 -8.13,12.29 -19.68,22.17 -34.6,29.76 -14.98,7.52 -32.65,11.29 -53,11.29z"/>
 </g>
</svg>
