<?xml version="1.0" encoding="UTF-8"?>
<!DOCTYPE svg PUBLIC "-//W3C//DTD SVG 1.1//EN" "http://www.w3.org/Graphics/SVG/1.1/DTD/svg11.dtd">
<!-- Creator: CorelDRAW -->
<svg xmlns="http://www.w3.org/2000/svg" xml:space="preserve" width="25.2894in" height="16.7194in" version="1.1" style="shape-rendering:geometricPrecision; text-rendering:geometricPrecision; image-rendering:optimizeQuality; fill-rule:evenodd; clip-rule:evenodd"
viewBox="0 0 22178.87 14662.98"
 xmlns:xlink="http://www.w3.org/1999/xlink"
 xmlns:xodm="http://www.corel.com/coreldraw/odm/2003">
 <defs>
  <style type="text/css">
   <![CDATA[
    .str0 {stroke:white;stroke-width:2.63;stroke-miterlimit:2.61313}
    .fil1 {fill:none;fill-rule:nonzero}
    .fil0 {fill:white;fill-rule:nonzero}
   ]]>
  </style>
 </defs>
 <g id="Layer_x0020_1">
  <metadata id="CorelCorpID_0Corel-Layer"/>
  <path class="fil0" d="M10999.62 9579.92c-282.4,0 -540.8,-44.27 -772.45,-131.88 -232.56,-88.53 -418.06,-219.49 -556.49,-393.78 -137.5,-173.38 -206.72,-387.33 -206.72,-641.86l0 -2325.81c-24.92,-109.74 -91.36,-195.51 -199.34,-256.38 -108.9,-61.79 -221.49,-92.22 -338.69,-92.22l0 -26.75 1592.88 0 0 26.75c-115.36,0 -227.03,31.35 -334.08,93.14 -107.05,61.79 -174.42,147.55 -201.19,255.45l0 2325.81c0,184.44 43.37,358.74 129.2,524.74 86.75,165.08 206.72,300.64 359,406.69 152.27,105.13 328.54,157.7 527.88,157.7 227.03,0 434.67,-48.88 622.01,-147.55 187.34,-97.75 336.85,-229.63 447.59,-393.78 110.74,-165.07 166.12,-347.67 166.12,-547.79l0 -2393.13c-19.38,-86.69 -85.83,-154.93 -197.49,-205.65 -111.67,-50.72 -215.02,-75.62 -310.08,-75.62l0 -26.75 1097.29 0 0 26.75c-97.82,0 -202.11,25.82 -313.77,77.46 -111.67,50.72 -177.19,118.97 -197.49,203.81l0 2393.13c0,214.88 -59.07,410.39 -177.19,586.53 -118.13,177.06 -275.94,317.24 -475.28,423.3 -199.34,105.13 -419.91,157.7 -661.7,157.7zm-56.3 -4471.8l-386.68 0 0 -386.4 386.68 0 0 386.4zm657.08 0l-386.68 0 0 -386.4 386.68 0 0 386.4z"/>
  <path id="_1" class="fil0" d="M14651.46 9579.92l-1592.88 0 0 -23.98c126.43,0 245.48,-35.96 358.07,-106.97 113.51,-71.01 173.5,-170.61 182.73,-298.8l0 -3004.56c-9.23,-127.27 -69.21,-226.86 -182.73,-297.87 -112.59,-71.01 -231.64,-106.98 -358.07,-106.98l0 -23.98 1592.88 0 0 23.98c-122.75,0 -239.02,35.97 -349.77,106.98 -111.67,71.01 -172.58,168.76 -182.73,293.26l0 3014.7c10.15,124.5 71.06,222.25 182.73,293.26 110.74,71.01 227.02,106.97 349.77,106.97l0 23.98z"/>
  <path id="_2" class="fil0" d="M18467.57 9585.45l-1619.64 0 0 -23.98c84.9,0 171.65,-12.91 261.17,-36.89 89.52,-23.98 159.66,-65.47 212.26,-122.65 36,-43.35 54.45,-97.75 54.45,-162.31 0,-26.75 -2.77,-55.33 -8.31,-83.92l2.77 0c-35.99,-228.71 -91.36,-458.34 -166.12,-689.81 -75.68,-231.47 -189.19,-427.91 -342.39,-589.29 -153.2,-161.39 -366.38,-250.84 -638.63,-269.28l-277.79 0 0 1553.92c9.23,124.5 68.3,222.25 179.96,293.26 110.74,71.01 227.95,106.98 352.54,106.98l0 23.98 -1592.88 0 0 -23.98c126.43,0 245.48,-36.89 358.08,-108.82 113.51,-71.93 172.57,-170.61 179.96,-296.95l0 -3045.14c-19.38,-113.43 -83.06,-202.88 -191.96,-268.36 -107.97,-65.47 -221.49,-98.68 -340.54,-98.68l0 -24.9 1794.98 0c243.64,0 466.05,34.12 668.16,101.44 202.11,68.24 362.69,171.53 482.66,310.78 119.97,140.18 179.96,317.24 179.96,531.19 0,151.24 -30.45,283.12 -92.29,394.7 -125.51,234.24 -330.39,391.94 -613.71,472.17 -163.35,48.88 -310.08,73.78 -437.44,73.78 239.02,70.09 430.06,189.97 573.1,360.58 142.12,169.69 250.1,362.43 323.93,576.38 73.83,214.88 130.12,424.22 167.96,629.87 35.99,106.06 102.44,198.28 200.26,275.74 96.9,77.47 206.72,116.2 329.47,116.2l0 23.98zm-1782.07 -2056.52c162.43,0 304.55,-42.42 426.37,-128.19 121.82,-85.77 215.95,-194.59 284.25,-328.31 67.37,-132.8 100.59,-270.21 100.59,-410.38 0,-136.49 -33.22,-272.05 -99.67,-404.85 -66.45,-133.72 -160.58,-243.47 -282.4,-330.15 -121.82,-86.69 -264.87,-129.11 -429.14,-129.11l-416.21 0c-89.52,0 -166.12,31.35 -229.8,94.06 -62.76,62.71 -94.14,139.25 -94.14,229.63l0 1407.29 740.14 0z"/>
  <path id="_3" class="fil0" d="M20244.14 9579.92c-355.31,0 -679.24,-86.69 -971.79,-260.99 -292.55,-173.37 -526.04,-406.69 -698.61,-698.11 -173.5,-291.42 -260.25,-616.04 -260.25,-972.93 0,-354.13 86.75,-677.83 260.25,-969.24 172.58,-292.34 406.06,-524.74 698.61,-699.03 292.55,-173.37 616.48,-260.98 971.79,-260.98 357.15,0 681.08,87.61 973.63,260.98 291.63,174.3 525.11,406.69 698.61,699.03 174.43,291.42 261.18,615.11 261.18,969.24 0,356.89 -86.75,681.51 -261.18,972.93 -173.5,291.42 -406.98,524.74 -698.61,698.11 -292.55,174.3 -616.48,260.99 -973.63,260.99zm0 -78.39c192.88,0 373.76,-52.56 542.65,-156.78 167.96,-104.21 315.62,-244.38 442.98,-419.6 127.35,-176.14 227.02,-374.42 299.01,-594.83 71.98,-220.41 107.97,-448.19 107.97,-682.43 0,-232.4 -35.99,-459.26 -107.97,-680.59 -71.99,-221.33 -171.66,-420.53 -299.01,-596.67 -127.36,-177.06 -275.02,-317.24 -442.98,-421.45 -168.89,-105.13 -349.77,-156.78 -542.65,-156.78 -191.04,0 -371,51.64 -538.96,156.78 -168.89,104.21 -316.54,244.38 -443.9,421.45 -126.44,176.14 -227.03,375.34 -299.94,596.67 -72.91,221.33 -109.82,448.19 -109.82,680.59 0,234.24 36.91,462.03 109.82,682.43 72.91,220.41 173.5,418.68 299.94,594.83 127.36,175.22 275.01,315.4 443.9,419.6 167.96,104.21 347.92,156.78 538.96,156.78z"/>
  <path id="_4" class="fil1 str0" d="M10999.62 9579.92c-282.4,0 -540.8,-44.27 -772.45,-131.88 -232.56,-88.53 -418.06,-219.49 -556.49,-393.78 -137.5,-173.38 -206.72,-387.33 -206.72,-641.86l0 -2325.81c-24.92,-109.74 -91.36,-195.51 -199.34,-256.38 -108.9,-61.79 -221.49,-92.22 -338.69,-92.22l0 -26.75 1592.88 0 0 26.75c-115.36,0 -227.03,31.35 -334.08,93.14 -107.05,61.79 -174.42,147.55 -201.19,255.45l0 2325.81c0,184.44 43.37,358.74 129.2,524.74 86.75,165.08 206.72,300.64 359,406.69 152.27,105.13 328.54,157.7 527.88,157.7 227.03,0 434.67,-48.88 622.01,-147.55 187.34,-97.75 336.85,-229.63 447.59,-393.78 110.74,-165.07 166.12,-347.67 166.12,-547.79l0 -2393.13c-19.38,-86.69 -85.83,-154.93 -197.49,-205.65 -111.67,-50.72 -215.02,-75.62 -310.08,-75.62l0 -26.75 1097.29 0 0 26.75c-97.82,0 -202.11,25.82 -313.77,77.46 -111.67,50.72 -177.19,118.97 -197.49,203.81l0 2393.13c0,214.88 -59.07,410.39 -177.19,586.53 -118.13,177.06 -275.94,317.24 -475.28,423.3 -199.34,105.13 -419.91,157.7 -661.7,157.7zm-56.3 -4471.8l-386.68 0 0 -386.4 386.68 0 0 386.4zm657.08 0l-386.68 0 0 -386.4 386.68 0 0 386.4z"/>
  <path id="_5" class="fil1 str0" d="M14651.46 9579.92l-1592.88 0 0 -23.98c126.43,0 245.48,-35.96 358.07,-106.97 113.51,-71.01 173.5,-170.61 182.73,-298.8l0 -3004.56c-9.23,-127.27 -69.21,-226.86 -182.73,-297.87 -112.59,-71.01 -231.64,-106.98 -358.07,-106.98l0 -23.98 1592.88 0 0 23.98c-122.75,0 -239.02,35.97 -349.77,106.98 -111.67,71.01 -172.58,168.76 -182.73,293.26l0 3014.7c10.15,124.5 71.06,222.25 182.73,293.26 110.74,71.01 227.02,106.97 349.77,106.97l0 23.98z"/>
  <path id="_6" class="fil1 str0" d="M18467.57 9585.45l-1619.64 0 0 -23.98c84.9,0 171.65,-12.91 261.17,-36.89 89.52,-23.98 159.66,-65.47 212.26,-122.65 36,-43.35 54.45,-97.75 54.45,-162.31 0,-26.75 -2.77,-55.33 -8.31,-83.92l2.77 0c-35.99,-228.71 -91.36,-458.34 -166.12,-689.81 -75.68,-231.47 -189.19,-427.91 -342.39,-589.29 -153.2,-161.39 -366.38,-250.84 -638.63,-269.28l-277.79 0 0 1553.92c9.23,124.5 68.3,222.25 179.96,293.26 110.74,71.01 227.95,106.98 352.54,106.98l0 23.98 -1592.88 0 0 -23.98c126.43,0 245.48,-36.89 358.08,-108.82 113.51,-71.93 172.57,-170.61 179.96,-296.95l0 -3045.14c-19.38,-113.43 -83.06,-202.88 -191.96,-268.36 -107.97,-65.47 -221.49,-98.68 -340.54,-98.68l0 -24.9 1794.98 0c243.64,0 466.05,34.12 668.16,101.44 202.11,68.24 362.69,171.53 482.66,310.78 119.97,140.18 179.96,317.24 179.96,531.19 0,151.24 -30.45,283.12 -92.29,394.7 -125.51,234.24 -330.39,391.94 -613.71,472.17 -163.35,48.88 -310.08,73.78 -437.44,73.78 239.02,70.09 430.06,189.97 573.1,360.58 142.12,169.69 250.1,362.43 323.93,576.38 73.83,214.88 130.12,424.22 167.96,629.87 35.99,106.06 102.44,198.28 200.26,275.74 96.9,77.47 206.72,116.2 329.47,116.2l0 23.98zm-1782.07 -2056.52c162.43,0 304.55,-42.42 426.37,-128.19 121.82,-85.77 215.95,-194.59 284.25,-328.31 67.37,-132.8 100.59,-270.21 100.59,-410.38 0,-136.49 -33.22,-272.05 -99.67,-404.85 -66.45,-133.72 -160.58,-243.47 -282.4,-330.15 -121.82,-86.69 -264.87,-129.11 -429.14,-129.11l-416.21 0c-89.52,0 -166.12,31.35 -229.8,94.06 -62.76,62.71 -94.14,139.25 -94.14,229.63l0 1407.29 740.14 0z"/>
  <path id="_7" class="fil1 str0" d="M20244.14 9579.92c-355.31,0 -679.24,-86.69 -971.79,-260.99 -292.55,-173.37 -526.04,-406.69 -698.61,-698.11 -173.5,-291.42 -260.25,-616.04 -260.25,-972.93 0,-354.13 86.75,-677.83 260.25,-969.24 172.58,-292.34 406.06,-524.74 698.61,-699.03 292.55,-173.37 616.48,-260.98 971.79,-260.98 357.15,0 681.08,87.61 973.63,260.98 291.63,174.3 525.11,406.69 698.61,699.03 174.43,291.42 261.18,615.11 261.18,969.24 0,356.89 -86.75,681.51 -261.18,972.93 -173.5,291.42 -406.98,524.74 -698.61,698.11 -292.55,174.3 -616.48,260.99 -973.63,260.99zm0 -78.39c192.88,0 373.76,-52.56 542.65,-156.78 167.96,-104.21 315.62,-244.38 442.98,-419.6 127.35,-176.14 227.02,-374.42 299.01,-594.83 71.98,-220.41 107.97,-448.19 107.97,-682.43 0,-232.4 -35.99,-459.26 -107.97,-680.59 -71.99,-221.33 -171.66,-420.53 -299.01,-596.67 -127.36,-177.06 -275.02,-317.24 -442.98,-421.45 -168.89,-105.13 -349.77,-156.78 -542.65,-156.78 -191.04,0 -371,51.64 -538.96,156.78 -168.89,104.21 -316.54,244.38 -443.9,421.45 -126.44,176.14 -227.03,375.34 -299.94,596.67 -72.91,221.33 -109.82,448.19 -109.82,680.59 0,234.24 36.91,462.03 109.82,682.43 72.91,220.41 173.5,418.68 299.94,594.83 127.36,175.22 275.01,315.4 443.9,419.6 167.96,104.21 347.92,156.78 538.96,156.78z"/>
  <path class="fil0" d="M13578.96 4792.18l-441.33 0 0 -7.57c39.33,0 76.61,-11.06 111.86,-32.89 35.25,-21.83 54.77,-52.4 57.97,-91.7l0 -961.21c-5.53,-37.55 -25.63,-66.66 -60.01,-87.33 -34.37,-20.67 -71.08,-31.15 -109.82,-31.15l0 -8.44 441.33 0c165.46,0.58 298.59,24.74 399.09,72.77 100.21,48.03 172.74,117.6 217.02,208.43 44.57,91.12 66.71,200.86 66.71,329.23 0,122.26 -22.43,229.09 -67.58,320.79 -44.86,91.4 -117.69,162.43 -217.9,212.79 -100.5,50.36 -233.04,75.68 -397.34,76.27zm-1.75 -23.87c186.73,-1.75 321.89,-63.46 405.5,-185.14 71.08,-102.76 106.62,-236.37 106.62,-400.84 0,-165.34 -34.37,-298.96 -103.41,-400.84 -84.19,-123.13 -220.23,-184.85 -408.7,-184.85 -28.84,0 -53.89,10.19 -74.57,30.57 -20.98,20.37 -31.17,45.41 -31.17,75.1l0 960.34c0,28.82 10.19,53.85 31.17,74.52 20.68,20.67 45.73,31.15 74.57,31.15z"/>
  <path id="_1_182" class="fil0" d="M15316.91 4792.18l-960.15 0 0 -7.57c37.58,0 73.7,-10.48 108.08,-30.86 34.38,-20.37 54.76,-48.91 60.88,-85.29l0 -972.27c-6.12,-35.81 -26.51,-64.04 -60.88,-84.71 -34.37,-20.67 -70.5,-31.15 -108.08,-31.15l0 -7.57 912.38 0 16.31 248.89 -7.86 0c0,-23.29 -7,-51.23 -21.56,-83.55 -14.57,-32.31 -36.99,-62.29 -67,-89.66 -30.29,-27.07 -69.04,-44.25 -116.23,-50.94l-291.02 0c-25.05,0 -46.32,8.74 -64.38,26.2 -17.77,17.76 -26.8,39.3 -26.8,64.92l0 480.89 304.71 0c27.38,-6.11 48.94,-26.78 64.67,-62.29 16.02,-35.23 24.18,-67.83 24.76,-97.81l7.87 0 0 346.12 -7.87 0c-0.58,-30.56 -8.74,-63.75 -24.76,-98.97 -15.73,-35.22 -37.28,-55.89 -64.67,-62.29l-304.71 0 0 467.5c0,29.4 10.19,54.73 31.17,75.39 20.68,20.67 46.03,31.15 75.45,31.15l298.59 0c47.48,-7.86 87.97,-29.69 122.06,-64.92 34.38,-35.22 60.6,-73.07 78.95,-113.24 18.64,-40.46 27.96,-72.48 27.96,-96.35l8.45 0 -16.31 298.37z"/>
  <path id="_2_183" class="fil0" d="M16376.4 4793.05l-960.15 0 0 -8.44c37.58,0 73.7,-10.48 108.08,-30.86 34.38,-20.37 55.06,-48.91 61.76,-85.29l0 -960.33c-3.21,-39.59 -22.72,-70.74 -57.97,-92.86 -35.25,-22.12 -72.83,-33.18 -112.74,-33.18l0 -8.73 502.8 0 0 8.73c-38.16,0 -74.58,10.77 -109.24,32.31 -34.67,21.54 -54.47,51.53 -58.84,89.66l0 957.72c0,29.4 10.19,54.73 31.17,75.39 20.69,20.67 45.74,31.15 75.45,31.15l299.46 0c47.19,-7.86 87.98,-29.4 122.06,-64.33 34.08,-34.93 60.3,-72.78 78.65,-112.95 18.06,-40.46 27.38,-72.48 27.96,-96.35l7.87 0 -16.31 298.37z"/>
  <path id="_3_184" class="fil1 str0" d="M13578.96 4792.18l-441.33 0 0 -7.57c39.33,0 76.61,-11.06 111.86,-32.89 35.25,-21.83 54.77,-52.4 57.97,-91.7l0 -961.21c-5.53,-37.55 -25.63,-66.66 -60.01,-87.33 -34.37,-20.67 -71.08,-31.15 -109.82,-31.15l0 -8.44 441.33 0c165.46,0.58 298.59,24.74 399.09,72.77 100.21,48.03 172.74,117.6 217.02,208.43 44.57,91.12 66.71,200.86 66.71,329.23 0,122.26 -22.43,229.09 -67.58,320.79 -44.86,91.4 -117.69,162.43 -217.9,212.79 -100.5,50.36 -233.04,75.68 -397.34,76.27zm-1.75 -23.87c186.73,-1.75 321.89,-63.46 405.5,-185.14 71.08,-102.76 106.62,-236.37 106.62,-400.84 0,-165.34 -34.37,-298.96 -103.41,-400.84 -84.19,-123.13 -220.23,-184.85 -408.7,-184.85 -28.84,0 -53.89,10.19 -74.57,30.57 -20.98,20.37 -31.17,45.41 -31.17,75.1l0 960.34c0,28.82 10.19,53.85 31.17,74.52 20.68,20.67 45.73,31.15 74.57,31.15z"/>
  <path id="_4_185" class="fil1 str0" d="M15316.91 4792.18l-960.15 0 0 -7.57c37.58,0 73.7,-10.48 108.08,-30.86 34.38,-20.37 54.76,-48.91 60.88,-85.29l0 -972.27c-6.12,-35.81 -26.51,-64.04 -60.88,-84.71 -34.37,-20.67 -70.5,-31.15 -108.08,-31.15l0 -7.57 912.38 0 16.31 248.89 -7.86 0c0,-23.29 -7,-51.23 -21.56,-83.55 -14.57,-32.31 -36.99,-62.29 -67,-89.66 -30.29,-27.07 -69.04,-44.25 -116.23,-50.94l-291.02 0c-25.05,0 -46.32,8.74 -64.38,26.2 -17.77,17.76 -26.8,39.3 -26.8,64.92l0 480.89 304.71 0c27.38,-6.11 48.94,-26.78 64.67,-62.29 16.02,-35.23 24.18,-67.83 24.76,-97.81l7.87 0 0 346.12 -7.87 0c-0.58,-30.56 -8.74,-63.75 -24.76,-98.97 -15.73,-35.22 -37.28,-55.89 -64.67,-62.29l-304.71 0 0 467.5c0,29.4 10.19,54.73 31.17,75.39 20.68,20.67 46.03,31.15 75.45,31.15l298.59 0c47.48,-7.86 87.97,-29.69 122.06,-64.92 34.38,-35.22 60.6,-73.07 78.95,-113.24 18.64,-40.46 27.96,-72.48 27.96,-96.35l8.45 0 -16.31 298.37z"/>
  <path id="_5_186" class="fil1 str0" d="M16376.4 4793.05l-960.15 0 0 -8.44c37.58,0 73.7,-10.48 108.08,-30.86 34.38,-20.37 55.06,-48.91 61.76,-85.29l0 -960.33c-3.21,-39.59 -22.72,-70.74 -57.97,-92.86 -35.25,-22.12 -72.83,-33.18 -112.74,-33.18l0 -8.73 502.8 0 0 8.73c-38.16,0 -74.58,10.77 -109.24,32.31 -34.67,21.54 -54.47,51.53 -58.84,89.66l0 957.72c0,29.4 10.19,54.73 31.17,75.39 20.69,20.67 45.74,31.15 75.45,31.15l299.46 0c47.19,-7.86 87.98,-29.4 122.06,-64.33 34.08,-34.93 60.3,-72.78 78.65,-112.95 18.06,-40.46 27.38,-72.48 27.96,-96.35l7.87 0 -16.31 298.37z"/>
  <path class="fil0" d="M10637.39 2938.64c-91.65,0 -177.53,-16.76 -257.66,-50.8 -79.6,-33.52 -149.26,-80.12 -208.44,-139.31l0 1.57c-27.76,-27.76 -52.89,-41.37 -75.41,-41.37 -15.19,0 -35.09,10.48 -59.71,31.95 -24.61,21.47 -36.66,62.32 -36.66,122.55l-14.14 0 0 -696.53 14.14 0c2.1,80.13 18.33,174.92 48.7,285.42 46.09,131.98 119.4,238.81 220.48,321.04 100.55,81.7 219.96,122.55 358.22,122.55l10.47 0c111.55,-6.28 205.29,-37.7 281.23,-94.27 75.42,-57.08 130.93,-127.78 165.49,-212.62 27.76,-67.56 41.37,-136.16 41.37,-205.82 0,-18.33 -1.05,-36.66 -3.14,-54.99 -2.1,-29.85 -15.19,-74.89 -38.75,-135.12 -24.09,-60.23 -73.32,-121.5 -146.64,-183.82 -73.84,-62.32 -185.39,-112.6 -334.65,-150.3l-3.14 0 3.14 0c-382.31,-95.32 -583.94,-299.56 -604.36,-612.22l0 -21.47c0,-86.94 23.04,-167.07 69.65,-239.34 46.61,-72.79 118.36,-131.45 214.72,-175.97 96.88,-44.51 215.24,-66.51 355.07,-66.51 126.22,0 236.19,38.23 329.94,114.69l0 -1.57c23.57,19.9 46.61,29.33 69.13,29.33 16.23,0 37.71,-8.38 64.41,-26.19 26.71,-17.28 39.8,-56.04 39.8,-116.27l15.71 0 0 680.82 -15.71 0c-1.05,-48.7 -8.38,-114.69 -22,-196.91 -13.61,-82.22 -39.28,-157.11 -75.94,-224.67 -43.99,-64.42 -101.08,-116.79 -171.78,-156.59 -70.7,-39.8 -148.21,-59.7 -233.58,-59.7 -131.45,9.95 -228.86,59.7 -291.18,148.73 -43.99,63.37 -65.99,133.55 -65.99,210.01 0,32.99 4.19,66.51 12.05,101.6 20.42,73.32 52.89,133.02 97.41,178.59 44.51,45.56 92.7,80.12 144.54,104.21 51.32,24.09 97.41,40.33 137.21,48.18 287.52,86.93 489.67,204.77 607.5,352.98 91.13,116.79 136.69,242.48 136.69,377.59 0,111.55 -31.95,215.25 -95.31,310.56 -63.37,95.84 -153.45,172.82 -269.71,232 -116.79,58.66 -254.52,87.98 -413.21,87.98z"/>
  <path id="_1_187" class="fil0" d="M13659.66 2938.64l-923.82 0 0 -13.62c45.04,0 94.79,-6.81 148.73,-19.9 54.47,-13.62 98.46,-34.57 131.98,-63.37 25.66,-21.47 38.75,-47.66 38.75,-79.6 0,-11 -1.57,-22.52 -4.71,-33.52l-282.28 -750.47 -755.19 0 -297.47 791.85c-2.1,9.95 -3.14,19.38 -3.14,27.76 0,28.28 14.66,52.89 44.51,72.79 29.85,19.9 69.65,34.04 120.45,41.9 50.8,8.38 92.7,12.57 126.74,12.57l0 13.62 -623.21 0 0 -13.62c51.32,0 103.69,-12.04 156.59,-36.13 53.42,-24.09 97.41,-64.94 131.98,-122.02 45.04,-119.93 102.65,-272.33 172.82,-458.24 69.65,-185.39 140.35,-372.88 211.58,-562.99 71.23,-189.58 131.45,-350.36 180.16,-481.81 49.23,-131.45 75.94,-203.72 80.12,-216.82 6.81,-28.8 10.48,-55.51 10.48,-80.12 0,-32.47 -9.43,-65.46 -28.28,-98.98 -18.85,-32.99 -49.75,-59.7 -92.17,-79.6 -42.42,-19.9 -83.27,-29.85 -122.02,-29.85l-6.28 0 0 -15.19 543.61 0 736.33 1960.76c64.41,147.16 165.49,221 303.75,221l0 13.62zm-908.11 -1004.99l-360.84 -960.48 -361.88 960.48 722.72 0z"/>
  <path id="_2_188" class="fil0" d="M15314.54 2940.21l-1726.14 0 0 -15.19c67.56,0 132.5,-18.85 194.29,-55.51 61.8,-36.66 98.98,-87.98 111.03,-153.45l0 -1727.71c-5.76,-71.22 -40.85,-127.26 -104.22,-167.06 -63.37,-39.8 -130.93,-59.7 -202.67,-59.7l0 -15.71 903.92 0 0 15.71c-68.6,0 -134.07,19.38 -196.39,58.13 -62.32,38.75 -97.93,92.7 -105.79,161.3l0 1723c0,52.9 18.33,98.46 56.04,135.64 37.18,37.18 82.22,56.03 135.64,56.03l538.37 0c84.84,-14.14 158.16,-52.89 219.43,-115.74 61.27,-62.85 108.41,-130.93 141.4,-203.2 32.47,-72.79 49.23,-130.4 50.28,-173.35l14.14 0 -29.33 536.8z"/>
  <path id="_3_189" class="fil0" d="M16366.62 2937.07c-201.63,0 -384.93,-49.23 -550.94,-148.21 -165.49,-98.46 -297.46,-230.96 -396.45,-396.45 -98.46,-165.49 -148.21,-349.31 -148.21,-550.94 0,-202.15 49.75,-386.5 148.21,-551.99 98.98,-166.02 230.96,-297.99 396.45,-396.97 166.02,-98.46 349.31,-147.69 550.94,-147.69 202.68,0 386.5,49.23 552.51,147.69 165.49,98.98 297.99,230.96 396.45,396.97 98.98,165.49 148.21,349.84 148.21,551.99 0,201.63 -49.23,385.45 -148.21,550.94 -98.46,165.49 -230.96,297.99 -396.45,396.45 -166.02,98.98 -349.83,148.21 -552.51,148.21zm0 -42.95c109.46,0 212.1,-29.85 307.94,-89.03 95.31,-59.18 179.11,-138.78 251.38,-238.29 72.27,-100.03 128.83,-212.62 169.68,-338.32 40.85,-126.21 61.27,-255.05 61.27,-387.02 0,-133.02 -20.42,-262.38 -61.27,-388.07 -40.85,-125.69 -97.41,-238.81 -169.68,-338.84 -72.27,-100.55 -156.07,-180.16 -251.38,-239.34 -95.84,-59.7 -198.49,-89.03 -307.94,-89.03 -108.41,0 -210.53,29.33 -305.84,89.03 -95.84,59.18 -179.63,138.78 -251.9,239.34 -71.75,100.03 -128.83,213.15 -170.21,338.84 -41.37,125.69 -62.32,255.05 -62.32,388.07 0,131.98 20.95,260.81 62.32,387.02 41.37,125.69 98.46,238.29 170.21,338.32 72.27,99.51 156.07,179.11 251.9,238.29 95.31,59.18 197.44,89.03 305.84,89.03zm-133.54 -2282.84l-73.32 -62.84 200.58 -458.77 215.25 136.17 -342.5 385.45z"/>
  <path id="_4_190" class="fil0" d="M17452.23 2940.21l0 -15.19c54.47,-1.05 113.12,-17.28 175.97,-47.66 62.84,-30.9 97.41,-71.75 103.17,-122.55l0 -1747.61c0,-48.18 -15.19,-91.13 -46.61,-129.36 -30.9,-37.7 -69.65,-67.03 -115.74,-87.98 -46.09,-20.95 -92.7,-31.42 -139.83,-31.42l0 -15.19 570.84 0 1224.43 1710.43 -1.57 -1525.04c-5.24,-51.85 -39.28,-93.74 -102.12,-124.12 -62.85,-30.9 -121.5,-46.08 -175.45,-46.08l0 -15.19 599.65 0 0 15.19c-53.94,0 -112.07,15.19 -174.92,45.04 -62.32,30.37 -96.88,71.22 -104.22,122.02l0 2013.13 -41.37 0 -1451.2 -2003.71 0 1818.31c5.76,51.85 40.32,93.22 102.65,124.12 62.32,30.37 120.97,46.61 176.49,47.66l0 13.62 -600.17 1.57z"/>
  <path id="_5_191" class="fil1 str0" d="M10637.39 2938.64c-91.65,0 -177.53,-16.76 -257.66,-50.8 -79.6,-33.52 -149.26,-80.12 -208.44,-139.31l0 1.57c-27.76,-27.76 -52.89,-41.37 -75.41,-41.37 -15.19,0 -35.09,10.48 -59.71,31.95 -24.61,21.47 -36.66,62.32 -36.66,122.55l-14.14 0 0 -696.53 14.14 0c2.1,80.13 18.33,174.92 48.7,285.42 46.09,131.98 119.4,238.81 220.48,321.04 100.55,81.7 219.96,122.55 358.22,122.55l10.47 0c111.55,-6.28 205.29,-37.7 281.23,-94.27 75.42,-57.08 130.93,-127.78 165.49,-212.62 27.76,-67.56 41.37,-136.16 41.37,-205.82 0,-18.33 -1.05,-36.66 -3.14,-54.99 -2.1,-29.85 -15.19,-74.89 -38.75,-135.12 -24.09,-60.23 -73.32,-121.5 -146.64,-183.82 -73.84,-62.32 -185.39,-112.6 -334.65,-150.3l-3.14 0 3.14 0c-382.31,-95.32 -583.94,-299.56 -604.36,-612.22l0 -21.47c0,-86.94 23.04,-167.07 69.65,-239.34 46.61,-72.79 118.36,-131.45 214.72,-175.97 96.88,-44.51 215.24,-66.51 355.07,-66.51 126.22,0 236.19,38.23 329.94,114.69l0 -1.57c23.57,19.9 46.61,29.33 69.13,29.33 16.23,0 37.71,-8.38 64.41,-26.19 26.71,-17.28 39.8,-56.04 39.8,-116.27l15.71 0 0 680.82 -15.71 0c-1.05,-48.7 -8.38,-114.69 -22,-196.91 -13.61,-82.22 -39.28,-157.11 -75.94,-224.67 -43.99,-64.42 -101.08,-116.79 -171.78,-156.59 -70.7,-39.8 -148.21,-59.7 -233.58,-59.7 -131.45,9.95 -228.86,59.7 -291.18,148.73 -43.99,63.37 -65.99,133.55 -65.99,210.01 0,32.99 4.19,66.51 12.05,101.6 20.42,73.32 52.89,133.02 97.41,178.59 44.51,45.56 92.7,80.12 144.54,104.21 51.32,24.09 97.41,40.33 137.21,48.18 287.52,86.93 489.67,204.77 607.5,352.98 91.13,116.79 136.69,242.48 136.69,377.59 0,111.55 -31.95,215.25 -95.31,310.56 -63.37,95.84 -153.45,172.82 -269.71,232 -116.79,58.66 -254.52,87.98 -413.21,87.98z"/>
  <path id="_6_192" class="fil1 str0" d="M13659.66 2938.64l-923.82 0 0 -13.62c45.04,0 94.79,-6.81 148.73,-19.9 54.47,-13.62 98.46,-34.57 131.98,-63.37 25.66,-21.47 38.75,-47.66 38.75,-79.6 0,-11 -1.57,-22.52 -4.71,-33.52l-282.28 -750.47 -755.19 0 -297.47 791.85c-2.1,9.95 -3.14,19.38 -3.14,27.76 0,28.28 14.66,52.89 44.51,72.79 29.85,19.9 69.65,34.04 120.45,41.9 50.8,8.38 92.7,12.57 126.74,12.57l0 13.62 -623.21 0 0 -13.62c51.32,0 103.69,-12.04 156.59,-36.13 53.42,-24.09 97.41,-64.94 131.98,-122.02 45.04,-119.93 102.65,-272.33 172.82,-458.24 69.65,-185.39 140.35,-372.88 211.58,-562.99 71.23,-189.58 131.45,-350.36 180.16,-481.81 49.23,-131.45 75.94,-203.72 80.12,-216.82 6.81,-28.8 10.48,-55.51 10.48,-80.12 0,-32.47 -9.43,-65.46 -28.28,-98.98 -18.85,-32.99 -49.75,-59.7 -92.17,-79.6 -42.42,-19.9 -83.27,-29.85 -122.02,-29.85l-6.28 0 0 -15.19 543.61 0 736.33 1960.76c64.41,147.16 165.49,221 303.75,221l0 13.62zm-908.11 -1004.99l-360.84 -960.48 -361.88 960.48 722.72 0z"/>
  <path id="_7_193" class="fil1 str0" d="M15314.54 2940.21l-1726.14 0 0 -15.19c67.56,0 132.5,-18.85 194.29,-55.51 61.8,-36.66 98.98,-87.98 111.03,-153.45l0 -1727.71c-5.76,-71.22 -40.85,-127.26 -104.22,-167.06 -63.37,-39.8 -130.93,-59.7 -202.67,-59.7l0 -15.71 903.92 0 0 15.71c-68.6,0 -134.07,19.38 -196.39,58.13 -62.32,38.75 -97.93,92.7 -105.79,161.3l0 1723c0,52.9 18.33,98.46 56.04,135.64 37.18,37.18 82.22,56.03 135.64,56.03l538.37 0c84.84,-14.14 158.16,-52.89 219.43,-115.74 61.27,-62.85 108.41,-130.93 141.4,-203.2 32.47,-72.79 49.23,-130.4 50.28,-173.35l14.14 0 -29.33 536.8z"/>
  <path id="_8" class="fil1 str0" d="M16366.62 2937.07c-201.63,0 -384.93,-49.23 -550.94,-148.21 -165.49,-98.46 -297.46,-230.96 -396.45,-396.45 -98.46,-165.49 -148.21,-349.31 -148.21,-550.94 0,-202.15 49.75,-386.5 148.21,-551.99 98.98,-166.02 230.96,-297.99 396.45,-396.97 166.02,-98.46 349.31,-147.69 550.94,-147.69 202.68,0 386.5,49.23 552.51,147.69 165.49,98.98 297.99,230.96 396.45,396.97 98.98,165.49 148.21,349.84 148.21,551.99 0,201.63 -49.23,385.45 -148.21,550.94 -98.46,165.49 -230.96,297.99 -396.45,396.45 -166.02,98.98 -349.83,148.21 -552.51,148.21zm0 -42.95c109.46,0 212.1,-29.85 307.94,-89.03 95.31,-59.18 179.11,-138.78 251.38,-238.29 72.27,-100.03 128.83,-212.62 169.68,-338.32 40.85,-126.21 61.27,-255.05 61.27,-387.02 0,-133.02 -20.42,-262.38 -61.27,-388.07 -40.85,-125.69 -97.41,-238.81 -169.68,-338.84 -72.27,-100.55 -156.07,-180.16 -251.38,-239.34 -95.84,-59.7 -198.49,-89.03 -307.94,-89.03 -108.41,0 -210.53,29.33 -305.84,89.03 -95.84,59.18 -179.63,138.78 -251.9,239.34 -71.75,100.03 -128.83,213.15 -170.21,338.84 -41.37,125.69 -62.32,255.05 -62.32,388.07 0,131.98 20.95,260.81 62.32,387.02 41.37,125.69 98.46,238.29 170.21,338.32 72.27,99.51 156.07,179.11 251.9,238.29 95.31,59.18 197.44,89.03 305.84,89.03zm-133.54 -2282.84l-73.32 -62.84 200.58 -458.77 215.25 136.17 -342.5 385.45z"/>
  <path id="_9" class="fil1 str0" d="M17452.23 2940.21l0 -15.19c54.47,-1.05 113.12,-17.28 175.97,-47.66 62.84,-30.9 97.41,-71.75 103.17,-122.55l0 -1747.61c0,-48.18 -15.19,-91.13 -46.61,-129.36 -30.9,-37.7 -69.65,-67.03 -115.74,-87.98 -46.09,-20.95 -92.7,-31.42 -139.83,-31.42l0 -15.19 570.84 0 1224.43 1710.43 -1.57 -1525.04c-5.24,-51.85 -39.28,-93.74 -102.12,-124.12 -62.85,-30.9 -121.5,-46.08 -175.45,-46.08l0 -15.19 599.65 0 0 15.19c-53.94,0 -112.07,15.19 -174.92,45.04 -62.32,30.37 -96.88,71.22 -104.22,122.02l0 2013.13 -41.37 0 -1451.2 -2003.71 0 1818.31c5.76,51.85 40.32,93.22 102.65,124.12 62.32,30.37 120.97,46.61 176.49,47.66l0 13.62 -600.17 1.57z"/>
  <path class="fil0 str0" d="M10243.09 14661.67c-354.16,0 -686.64,-132.51 -1002.25,-395.12 -433.67,-385.48 -744.46,-864.92 -932.39,-1433.51 -187.92,-568.58 -303.56,-1178.13 -346.93,-1828.63 -587.86,-79.5 -1202.22,-120.46 -1840.68,-120.46 -221.65,0 -607.13,12.05 -1158.85,36.14 -549.31,24.09 -1226.31,146.96 -2026.19,366.21 -489.08,127.69 -978.16,334.89 -1469.65,619.18 -491.49,284.29 -862.51,672.19 -1113.08,1161.27 -14.46,50.59 -21.68,98.78 -21.68,139.74 0,161.42 132.51,308.38 395.12,445.71 284.29,134.92 424.03,298.75 424.03,486.67l-7.23 91.55c-50.59,178.28 -175.87,289.11 -373.43,332.48 -43.37,9.64 -81.91,14.45 -120.46,14.45 -149.37,0 -293.93,-74.69 -428.85,-219.24 -146.96,-187.92 -219.24,-409.57 -219.24,-664.96 0,-228.88 50.6,-455.35 154.19,-677.01 390.3,-874.56 1298.59,-1517.83 2724.87,-1927.41 963.71,-267.43 2057.51,-402.34 3281.42,-402.34 607.13,0 1202.22,38.55 1785.26,113.23 -7.23,-139.74 -19.27,-373.43 -31.32,-698.69 -12.05,-325.25 -21.68,-650.5 -31.32,-980.57 -9.64,-330.07 -14.46,-575.81 -14.46,-742.05l-358.98 486.67c-272.24,334.89 -568.58,592.68 -881.79,770.96 -315.61,178.29 -631.22,301.16 -942.02,366.21 -313.2,67.46 -602.31,98.78 -864.93,98.78 -881.79,0 -1679.25,-226.47 -2397.22,-681.82 -717.96,-452.94 -1288.95,-1062.48 -1710.57,-1826.22 -424.03,-766.15 -636.04,-1614.2 -636.04,-2544.18 0,-927.57 209.61,-1773.21 631.23,-2539.36 421.62,-763.74 995.02,-1373.28 1722.62,-1826.22 727.6,-455.35 1544.33,-681.82 2452.63,-681.82 597.5,0 1199.81,156.6 1806.94,472.21 236.11,113.23 448.12,168.65 636.04,168.65 103.6,0 243.34,-28.91 419.21,-91.55 175.88,-60.23 265.02,-243.34 265.02,-549.31l62.64 0 0 2640.55 -62.64 0c-4.82,-298.75 -98.78,-616.77 -281.88,-961.29 -291.52,-438.49 -693.87,-783.01 -1204.63,-1038.39 -510.76,-252.97 -1057.67,-380.66 -1640.71,-380.66 -419.21,0 -828.79,118.05 -1228.72,349.34 -399.94,233.7 -758.92,561.36 -1076.94,985.39 -315.61,424.03 -568.58,927.57 -756.51,1513.02 -190.33,587.86 -284.29,1233.54 -284.29,1939.46 0,934.79 146.96,1761.17 438.48,2471.9 291.52,713.14 684.23,1272.09 1178.13,1676.84 522.81,428.85 1110.67,643.27 1765.99,643.27 455.35,0 869.74,-98.78 1240.77,-293.93 373.43,-195.15 662.55,-539.67 869.74,-1033.57l0 -2523.29c0,-337.85 -175.88,-599.91 -469.81,-785.42 -293.92,-185.51 -607.13,-279.47 -934.79,-279.47l0 -69.87 4155.97 0 0 69.87c-327.66,0 -638.45,93.96 -927.56,281.88 -289.11,187.92 -462.58,449.98 -462.58,783.01l0 4874.73c1110.67,178.29 1939.45,474.62 2483.95,889.02 390.3,337.29 631.22,660.13 720.37,966.11 57.82,192.74 84.32,361.39 84.32,508.35 0,79.5 -9.64,154.19 -26.5,219.24 -113.24,544.49 -428.85,922.75 -946.84,1129.94 -154.19,55.41 -310.8,84.33 -464.99,84.33zm-14.46 -204.79c134.92,0 272.25,-24.09 409.57,-69.87 445.71,-180.69 720.37,-505.94 819.15,-975.75 7.23,-69.87 12.05,-137.33 12.05,-204.79 0,-460.17 -238.52,-891.43 -717.96,-1291.36 -489.08,-375.85 -1274.5,-657.73 -2351.44,-845.65 14.45,624 89.14,1207.04 226.47,1741.89 134.92,537.27 385.48,970.93 746.87,1298.59 279.48,231.29 563.77,346.93 855.29,346.93z"/>
 </g>
</svg>
