<?xml version="1.0" encoding="UTF-8"?>
<!DOCTYPE svg PUBLIC "-//W3C//DTD SVG 1.1//EN" "http://www.w3.org/Graphics/SVG/1.1/DTD/svg11.dtd">
<!-- Creator: CorelDRAW -->
<svg xmlns="http://www.w3.org/2000/svg" xml:space="preserve" width="14.7112in" height="9.43322in" version="1.1" style="shape-rendering:geometricPrecision; text-rendering:geometricPrecision; image-rendering:optimizeQuality; fill-rule:evenodd; clip-rule:evenodd"
viewBox="0 0 14711.19 9433.22"
 xmlns:xlink="http://www.w3.org/1999/xlink"
 xmlns:xodm="http://www.corel.com/coreldraw/odm/2003">
 <defs>
  <style type="text/css">
   <![CDATA[
    .str0 {stroke:white;stroke-width:3;stroke-miterlimit:2.61313}
    .fil1 {fill:none;fill-rule:nonzero}
    .fil0 {fill:white;fill-rule:nonzero}
   ]]>
  </style>
 </defs>
 <g id="Layer_x0020_1">
  <metadata id="CorelCorpID_0Corel-Layer"/>
  <g id="_2600897939120">
   <path class="fil0" d="M8021.32 6184.27l-1469.85 0 0 -21.67c71.66,0 150.82,-10.83 236.64,-31.66 86.66,-21.67 156.65,-55 209.98,-100.82 40.83,-34.17 61.66,-75.83 61.66,-126.65 0,-17.5 -2.5,-35.83 -7.5,-53.33l-449.12 -1194.04 -1201.54 0 -473.28 1259.87c-3.33,15.83 -5,30.83 -5,44.17 0,44.99 23.33,84.16 70.83,115.82 47.49,31.67 110.82,54.16 191.65,66.66 80.83,13.33 147.48,20 201.65,20l0 21.67 -991.56 0 0 -21.67c81.66,0 164.98,-19.17 249.14,-57.49 84.99,-38.33 154.98,-103.32 209.98,-194.15 71.66,-190.81 163.31,-433.29 274.97,-729.09 110.82,-294.97 223.31,-593.27 336.63,-895.74 113.32,-301.63 209.15,-557.44 286.64,-766.59 78.33,-209.15 120.82,-324.13 127.49,-344.96 10.83,-45.83 16.67,-88.32 16.67,-127.49 0,-51.66 -15,-104.15 -45,-157.48 -30,-52.49 -79.16,-94.99 -146.65,-126.65 -67.49,-31.66 -132.48,-47.49 -194.15,-47.49l-10 0 0 -24.17 864.91 0 1171.54 3119.68c102.49,234.14 263.31,351.63 483.28,351.63l0 21.67zm-1444.85 -1599l-574.11 -1528.18 -575.78 1528.18 1149.88 0z"/>
   <path id="_1" class="fil1 str0" d="M8021.32 6184.27l-1469.85 0 0 -21.67c71.66,0 150.82,-10.83 236.64,-31.66 86.66,-21.67 156.65,-55 209.98,-100.82 40.83,-34.17 61.66,-75.83 61.66,-126.65 0,-17.5 -2.5,-35.83 -7.5,-53.33l-449.12 -1194.04 -1201.54 0 -473.28 1259.87c-3.33,15.83 -5,30.83 -5,44.17 0,44.99 23.33,84.16 70.83,115.82 47.49,31.67 110.82,54.16 191.65,66.66 80.83,13.33 147.48,20 201.65,20l0 21.67 -991.56 0 0 -21.67c81.66,0 164.98,-19.17 249.14,-57.49 84.99,-38.33 154.98,-103.32 209.98,-194.15 71.66,-190.81 163.31,-433.29 274.97,-729.09 110.82,-294.97 223.31,-593.27 336.63,-895.74 113.32,-301.63 209.15,-557.44 286.64,-766.59 78.33,-209.15 120.82,-324.13 127.49,-344.96 10.83,-45.83 16.67,-88.32 16.67,-127.49 0,-51.66 -15,-104.15 -45,-157.48 -30,-52.49 -79.16,-94.99 -146.65,-126.65 -67.49,-31.66 -132.48,-47.49 -194.15,-47.49l-10 0 0 -24.17 864.91 0 1171.54 3119.68c102.49,234.14 263.31,351.63 483.28,351.63l0 21.67zm-1444.85 -1599l-574.11 -1528.18 -575.78 1528.18 1149.88 0z"/>
   <path class="fil0" d="M2552.1 8589.56c-358.52,0 -694.5,-65.56 -1007.95,-198.72 -311.4,-131.12 -583.87,-313.45 -815.37,-544.95l0 6.15c-108.58,-108.58 -206.92,-161.85 -295.01,-161.85 -59.41,0 -137.26,40.97 -233.55,124.97 -96.29,84 -143.41,243.8 -143.41,479.39l-55.31 0 0 -2724.74 55.31 0c8.2,313.45 71.7,684.26 190.53,1116.53 180.28,516.26 467.1,934.2 862.5,1255.84 393.35,319.59 860.44,479.39 1401.3,479.39l40.97 0c436.37,-24.58 803.08,-147.5 1100.14,-368.76 295.01,-223.3 512.17,-499.87 647.38,-831.76 108.58,-264.28 161.84,-532.66 161.84,-805.13 0,-71.7 -4.09,-143.41 -12.29,-215.11 -8.19,-116.77 -59.41,-292.96 -151.6,-528.56 -94.24,-235.6 -286.81,-475.29 -573.63,-719.09 -288.86,-243.79 -725.23,-440.46 -1309.1,-587.97l-12.3 0 12.3 0c-1495.54,-372.86 -2284.28,-1171.84 -2364.18,-2394.91l0 -84c0,-340.08 90.14,-653.53 272.48,-936.24 182.33,-284.77 463,-514.22 839.96,-688.35 379,-174.14 842.01,-260.19 1389,-260.19 493.73,0 923.95,149.56 1290.67,448.66l0 -6.15c92.19,77.85 182.33,114.72 270.43,114.72 63.51,0 147.51,-32.78 251.99,-102.43 104.48,-67.61 155.7,-219.21 155.7,-454.81l61.46 0 0 2663.28 -61.46 0c-4.1,-190.53 -32.78,-448.66 -86.04,-770.3 -53.27,-321.64 -153.65,-614.6 -297.06,-878.88 -172.09,-251.99 -395.39,-456.86 -671.97,-612.56 -276.57,-155.7 -579.78,-233.55 -913.71,-233.55 -514.22,38.93 -895.27,233.55 -1139.07,581.83 -172.09,247.89 -258.13,522.41 -258.13,821.52 0,129.07 16.39,260.18 47.12,397.44 79.9,286.81 206.92,520.37 381.06,698.6 174.14,178.24 362.61,313.45 565.43,407.69 200.77,94.24 381.06,157.75 536.76,188.48 1124.72,340.08 1915.51,801.04 2376.46,1380.81 356.47,456.85 534.7,948.54 534.7,1477.09 0,436.37 -124.97,842.01 -372.86,1214.87 -247.89,374.91 -600.26,676.07 -1055.07,907.57 -456.85,229.45 -995.66,344.18 -1616.41,344.18z"/>
   <path id="_1_0" class="fil1 str0" d="M2552.1 8589.56c-358.52,0 -694.5,-65.56 -1007.95,-198.72 -311.4,-131.12 -583.87,-313.45 -815.37,-544.95l0 6.15c-108.58,-108.58 -206.92,-161.85 -295.01,-161.85 -59.41,0 -137.26,40.97 -233.55,124.97 -96.29,84 -143.41,243.8 -143.41,479.39l-55.31 0 0 -2724.74 55.31 0c8.2,313.45 71.7,684.26 190.53,1116.53 180.28,516.26 467.1,934.2 862.5,1255.84 393.35,319.59 860.44,479.39 1401.3,479.39l40.97 0c436.37,-24.58 803.08,-147.5 1100.14,-368.76 295.01,-223.3 512.17,-499.87 647.38,-831.76 108.58,-264.28 161.84,-532.66 161.84,-805.13 0,-71.7 -4.09,-143.41 -12.29,-215.11 -8.19,-116.77 -59.41,-292.96 -151.6,-528.56 -94.24,-235.6 -286.81,-475.29 -573.63,-719.09 -288.86,-243.79 -725.23,-440.46 -1309.1,-587.97l-12.3 0 12.3 0c-1495.54,-372.86 -2284.28,-1171.84 -2364.18,-2394.91l0 -84c0,-340.08 90.14,-653.53 272.48,-936.24 182.33,-284.77 463,-514.22 839.96,-688.35 379,-174.14 842.01,-260.19 1389,-260.19 493.73,0 923.95,149.56 1290.67,448.66l0 -6.15c92.19,77.85 182.33,114.72 270.43,114.72 63.51,0 147.51,-32.78 251.99,-102.43 104.48,-67.61 155.7,-219.21 155.7,-454.81l61.46 0 0 2663.28 -61.46 0c-4.1,-190.53 -32.78,-448.66 -86.04,-770.3 -53.27,-321.64 -153.65,-614.6 -297.06,-878.88 -172.09,-251.99 -395.39,-456.86 -671.97,-612.56 -276.57,-155.7 -579.78,-233.55 -913.71,-233.55 -514.22,38.93 -895.27,233.55 -1139.07,581.83 -172.09,247.89 -258.13,522.41 -258.13,821.52 0,129.07 16.39,260.18 47.12,397.44 79.9,286.81 206.92,520.37 381.06,698.6 174.14,178.24 362.61,313.45 565.43,407.69 200.77,94.24 381.06,157.75 536.76,188.48 1124.72,340.08 1915.51,801.04 2376.46,1380.81 356.47,456.85 534.7,948.54 534.7,1477.09 0,436.37 -124.97,842.01 -372.86,1214.87 -247.89,374.91 -600.26,676.07 -1055.07,907.57 -456.85,229.45 -995.66,344.18 -1616.41,344.18z"/>
   <path class="fil0" d="M10047.3 6909.87l-2746.38 0 0 -24.17c107.49,0 210.81,-30 309.13,-88.32 98.32,-58.33 157.48,-139.98 176.65,-244.14l0 -2748.88c-9.17,-113.32 -65,-202.48 -165.82,-265.81 -100.82,-63.33 -208.31,-94.99 -322.46,-94.99l0 -25 1438.19 0 0 25c-109.16,0 -213.31,30.83 -312.47,92.49 -99.16,61.66 -155.82,147.48 -168.31,256.64l0 2741.38c0,84.16 29.16,156.65 89.16,215.81 59.16,59.16 130.82,89.16 215.81,89.16l856.57 0c134.99,-22.5 251.64,-84.16 349.13,-184.15 97.49,-99.99 172.48,-208.31 224.98,-323.3 51.66,-115.82 78.32,-207.48 79.99,-275.8l22.5 0 -46.66 854.08z"/>
   <path id="_1_1" class="fil1 str0" d="M10047.3 6909.87l-2746.38 0 0 -24.17c107.49,0 210.81,-30 309.13,-88.32 98.32,-58.33 157.48,-139.98 176.65,-244.14l0 -2748.88c-9.17,-113.32 -65,-202.48 -165.82,-265.81 -100.82,-63.33 -208.31,-94.99 -322.46,-94.99l0 -25 1438.19 0 0 25c-109.16,0 -213.31,30.83 -312.47,92.49 -99.16,61.66 -155.82,147.48 -168.31,256.64l0 2741.38c0,84.16 29.16,156.65 89.16,215.81 59.16,59.16 130.82,89.16 215.81,89.16l856.57 0c134.99,-22.5 251.64,-84.16 349.13,-184.15 97.49,-99.99 172.48,-208.31 224.98,-323.3 51.66,-115.82 78.32,-207.48 79.99,-275.8l22.5 0 -46.66 854.08z"/>
   <path class="fil0" d="M7117.9 2318.28l-1826.28 0 0 -14.76c71.48,0 140.19,-18.31 205.57,-53.93 65.38,-35.62 104.72,-85.48 117.46,-149.08l0 -1678.56c-6.09,-69.2 -43.22,-123.64 -110.26,-162.31 -67.05,-38.67 -138.53,-58 -214.43,-58l0 -15.26 956.36 0 0 15.26c-72.59,0 -141.85,18.83 -207.78,56.48 -65.94,37.65 -103.61,90.06 -111.93,156.71l0 1673.98c0,51.39 19.39,95.65 59.28,131.78 39.34,36.13 87,54.44 143.51,54.44l569.61 0c89.76,-13.74 167.33,-51.39 232.17,-112.45 64.83,-61.06 114.7,-127.2 149.6,-197.42 34.35,-70.72 52.08,-126.69 53.2,-168.42l14.96 0 -31.03 521.53z"/>
   <path id="_1_2" class="fil0" d="M7504.6 1493.25l-488.7 0 0 -6.61c23.82,0 50.15,-3.31 78.68,-9.67 28.81,-6.62 52.08,-16.79 69.81,-30.78 13.57,-10.43 20.5,-23.15 20.5,-38.67 0,-5.34 -0.83,-10.94 -2.49,-16.28l-149.33 -364.56 -399.5 0 -157.37 384.66c-1.11,4.83 -1.66,9.41 -1.66,13.48 0,13.74 7.76,25.69 23.55,35.36 15.79,9.67 36.85,16.54 63.72,20.35 26.87,4.07 49.04,6.11 67.04,6.11l0 6.61 -329.68 0 0 -6.61c27.15,0 54.85,-5.85 82.83,-17.56 28.26,-11.7 51.53,-31.54 69.81,-59.28 23.83,-58.26 54.3,-132.29 91.43,-222.6 36.85,-90.06 74.25,-181.14 111.93,-273.49 37.68,-92.09 69.54,-170.2 95.3,-234.05 26.04,-63.85 40.17,-98.96 42.39,-105.32 3.6,-13.99 5.54,-26.97 5.54,-38.93 0,-15.77 -4.98,-31.8 -14.96,-48.08 -9.98,-16.03 -26.32,-29 -48.76,-38.67 -22.44,-9.67 -44.06,-14.5 -64.55,-14.5l-3.33 0 0 -7.38 287.57 0 389.53 952.49c34.07,71.49 87.54,107.36 160.68,107.36l0 6.61zm-480.4 -488.2l-190.88 -466.58 -191.44 466.58 382.32 0z"/>
   <path id="_2" class="fil1 str0" d="M7117.9 2318.28l-1826.28 0 0 -14.76c71.48,0 140.19,-18.31 205.57,-53.93 65.38,-35.62 104.72,-85.48 117.46,-149.08l0 -1678.56c-6.09,-69.2 -43.22,-123.64 -110.26,-162.31 -67.05,-38.67 -138.53,-58 -214.43,-58l0 -15.26 956.36 0 0 15.26c-72.59,0 -141.85,18.83 -207.78,56.48 -65.94,37.65 -103.61,90.06 -111.93,156.71l0 1673.98c0,51.39 19.39,95.65 59.28,131.78 39.34,36.13 87,54.44 143.51,54.44l569.61 0c89.76,-13.74 167.33,-51.39 232.17,-112.45 64.83,-61.06 114.7,-127.2 149.6,-197.42 34.35,-70.72 52.08,-126.69 53.2,-168.42l14.96 0 -31.03 521.53z"/>
   <path id="_3" class="fil1 str0" d="M7504.6 1493.25l-488.7 0 0 -6.61c23.82,0 50.15,-3.31 78.68,-9.67 28.81,-6.62 52.08,-16.79 69.81,-30.78 13.57,-10.43 20.5,-23.15 20.5,-38.67 0,-5.34 -0.83,-10.94 -2.49,-16.28l-149.33 -364.56 -399.5 0 -157.37 384.66c-1.11,4.83 -1.66,9.41 -1.66,13.48 0,13.74 7.76,25.69 23.55,35.36 15.79,9.67 36.85,16.54 63.72,20.35 26.87,4.07 49.04,6.11 67.04,6.11l0 6.61 -329.68 0 0 -6.61c27.15,0 54.85,-5.85 82.83,-17.56 28.26,-11.7 51.53,-31.54 69.81,-59.28 23.83,-58.26 54.3,-132.29 91.43,-222.6 36.85,-90.06 74.25,-181.14 111.93,-273.49 37.68,-92.09 69.54,-170.2 95.3,-234.05 26.04,-63.85 40.17,-98.96 42.39,-105.32 3.6,-13.99 5.54,-26.97 5.54,-38.93 0,-15.77 -4.98,-31.8 -14.96,-48.08 -9.98,-16.03 -26.32,-29 -48.76,-38.67 -22.44,-9.67 -44.06,-14.5 -64.55,-14.5l-3.33 0 0 -7.38 287.57 0 389.53 952.49c34.07,71.49 87.54,107.36 160.68,107.36l0 6.61zm-480.4 -488.2l-190.88 -466.58 -191.44 466.58 382.32 0z"/>
   <path class="fil0" d="M10225.74 6490.93c-145.82,0 -282.47,-26.67 -409.96,-80.82 -126.65,-53.33 -237.48,-127.49 -331.63,-221.65l0 2.5c-44.17,-44.16 -84.16,-65.83 -119.99,-65.83 -24.17,0 -55.83,16.67 -94.99,50.83 -39.16,34.17 -58.33,99.16 -58.33,194.98l-22.5 0 0 -1108.22 22.5 0c3.33,127.48 29.17,278.3 77.49,454.12 73.33,209.98 189.98,379.96 350.8,510.78 159.98,129.99 349.96,194.98 569.94,194.98l16.67 0c177.48,-10 326.63,-59.99 447.45,-149.98 119.99,-90.82 208.31,-203.31 263.31,-338.3 44.16,-107.49 65.82,-216.64 65.82,-327.46 0,-29.17 -1.67,-58.33 -5,-87.49 -3.33,-47.5 -24.17,-119.15 -61.66,-214.98 -38.33,-95.82 -116.65,-193.31 -233.31,-292.47 -117.49,-99.15 -294.97,-179.15 -532.44,-239.14l-5 0 5 0c-608.27,-151.65 -929.07,-476.61 -961.57,-974.06l0 -34.17c0,-138.32 36.67,-265.81 110.82,-380.79 74.16,-115.82 188.31,-209.15 341.63,-279.97 154.15,-70.83 342.46,-105.82 564.94,-105.82 200.81,0 375.79,60.83 524.94,182.48l0 -2.5c37.5,31.67 74.16,46.66 109.99,46.66 25.83,0 59.99,-13.33 102.49,-41.66 42.5,-27.5 63.33,-89.16 63.33,-184.98l25 0 0 1083.22 -25 0c-1.67,-77.49 -13.33,-182.48 -35,-313.3 -21.67,-130.82 -62.49,-249.98 -120.82,-357.46 -70,-102.49 -160.82,-185.81 -273.31,-249.14 -112.49,-63.33 -235.81,-94.99 -371.63,-94.99 -209.15,15.83 -364.13,94.99 -463.29,236.64 -69.99,100.82 -104.99,212.48 -104.99,334.13 0,52.49 6.67,105.82 19.17,161.65 32.5,116.65 84.16,211.64 154.98,284.14 70.82,72.49 147.48,127.48 229.97,165.81 81.66,38.33 154.98,64.16 218.31,76.66 457.45,138.32 779.09,325.8 966.57,561.61 144.99,185.81 217.48,385.79 217.48,600.77 0,177.48 -50.83,342.46 -151.65,494.11 -100.82,152.48 -244.14,274.97 -429.12,369.13 -185.81,93.32 -404.96,139.98 -657.43,139.98z"/>
   <path id="_1_3" class="fil1 str0" d="M10225.74 6490.93c-145.82,0 -282.47,-26.67 -409.96,-80.82 -126.65,-53.33 -237.48,-127.49 -331.63,-221.65l0 2.5c-44.17,-44.16 -84.16,-65.83 -119.99,-65.83 -24.17,0 -55.83,16.67 -94.99,50.83 -39.16,34.17 -58.33,99.16 -58.33,194.98l-22.5 0 0 -1108.22 22.5 0c3.33,127.48 29.17,278.3 77.49,454.12 73.33,209.98 189.98,379.96 350.8,510.78 159.98,129.99 349.96,194.98 569.94,194.98l16.67 0c177.48,-10 326.63,-59.99 447.45,-149.98 119.99,-90.82 208.31,-203.31 263.31,-338.3 44.16,-107.49 65.82,-216.64 65.82,-327.46 0,-29.17 -1.67,-58.33 -5,-87.49 -3.33,-47.5 -24.17,-119.15 -61.66,-214.98 -38.33,-95.82 -116.65,-193.31 -233.31,-292.47 -117.49,-99.15 -294.97,-179.15 -532.44,-239.14l-5 0 5 0c-608.27,-151.65 -929.07,-476.61 -961.57,-974.06l0 -34.17c0,-138.32 36.67,-265.81 110.82,-380.79 74.16,-115.82 188.31,-209.15 341.63,-279.97 154.15,-70.83 342.46,-105.82 564.94,-105.82 200.81,0 375.79,60.83 524.94,182.48l0 -2.5c37.5,31.67 74.16,46.66 109.99,46.66 25.83,0 59.99,-13.33 102.49,-41.66 42.5,-27.5 63.33,-89.16 63.33,-184.98l25 0 0 1083.22 -25 0c-1.67,-77.49 -13.33,-182.48 -35,-313.3 -21.67,-130.82 -62.49,-249.98 -120.82,-357.46 -70,-102.49 -160.82,-185.81 -273.31,-249.14 -112.49,-63.33 -235.81,-94.99 -371.63,-94.99 -209.15,15.83 -364.13,94.99 -463.29,236.64 -69.99,100.82 -104.99,212.48 -104.99,334.13 0,52.49 6.67,105.82 19.17,161.65 32.5,116.65 84.16,211.64 154.98,284.14 70.82,72.49 147.48,127.48 229.97,165.81 81.66,38.33 154.98,64.16 218.31,76.66 457.45,138.32 779.09,325.8 966.57,561.61 144.99,185.81 217.48,385.79 217.48,600.77 0,177.48 -50.83,342.46 -151.65,494.11 -100.82,152.48 -244.14,274.97 -429.12,369.13 -185.81,93.32 -404.96,139.98 -657.43,139.98z"/>
   <path class="fil0" d="M11974.11 8344.98c-380.81,0 -718.83,-116.17 -1015.8,-349.37 -296.97,-232.33 -503.1,-544.15 -619.26,-934.57 -44.54,-160.71 -66.38,-317.93 -66.38,-471.65 0,-281.24 72.49,-554.63 217.48,-821.02 231.46,-404.4 572.09,-672.54 1021.04,-806.18 152.85,-44.54 306.57,-66.38 460.3,-66.38l76.86 2.62c270.76,-723.2 410.51,-1097.03 416.63,-1120.61 12.23,-48.04 18.34,-91.71 18.34,-131.02 0,-54.15 -15.72,-110.05 -47.17,-165.95 -31.44,-56.78 -83.85,-101.32 -156.34,-134.51 -72.5,-33.19 -143.24,-49.79 -211.37,-49.79l0 -22.71 905.74 0 1228.92 3267.5c105.69,245.43 274.26,368.59 506.59,368.59l0 25.33 -1540.73 0 0 -25.33c75.11,0 157.22,-11.35 247.18,-33.19 89.09,-22.71 163.33,-57.65 220.98,-105.69 42.8,-35.81 63.76,-79.48 63.76,-132.76 0,-18.34 -1.74,-37.56 -6.98,-55.9l-276.88 -731.93c-132.76,-254.17 -316.18,-457.68 -548.52,-610.53 -233.2,-152.85 -489.99,-241.07 -771.24,-264.65l-629.74 1676.11c-3.49,16.6 -5.24,32.32 -5.24,46.29 0,47.17 24.46,88.22 74.24,121.41 49.79,33.19 116.17,56.77 200.89,69.87 84.72,13.98 154.6,20.96 211.37,20.96l0 22.71 -1039.38 2.62 0 -25.33 10.48 0c82.1,0 165.95,-20.09 253.3,-60.26 87.34,-40.18 159.84,-108.31 217.48,-203.51 177.31,-462.04 386.93,-1020.17 629.74,-1673.49l-48.91 0c-146.74,0 -294.35,20.09 -442.83,61.14 -427.98,126.65 -752.9,383.44 -974.75,770.37 -138,252.42 -207,513.57 -207,783.46 0,147.61 20.96,298.71 63.76,452.44 83.85,279.5 227.96,505.72 432.35,677.78 204.39,172.94 442.83,285.61 713.59,338.02 110.93,22.71 223.6,33.19 338.02,33.19 162.46,0 326.67,-22.71 494.36,-69l61.14 258.54c-160.71,44.55 -318.8,66.38 -476.02,66.38zm1325.87 -2811.57l-706.61 -1876.13 -468.16 1246.38c476.02,50.66 867.31,261.16 1174.76,629.74z"/>
   <path id="_1_4" class="fil1 str0" d="M11974.11 8344.98c-380.81,0 -718.83,-116.17 -1015.8,-349.37 -296.97,-232.33 -503.1,-544.15 -619.26,-934.57 -44.54,-160.71 -66.38,-317.93 -66.38,-471.65 0,-281.24 72.49,-554.63 217.48,-821.02 231.46,-404.4 572.09,-672.54 1021.04,-806.18 152.85,-44.54 306.57,-66.38 460.3,-66.38l76.86 2.62c270.76,-723.2 410.51,-1097.03 416.63,-1120.61 12.23,-48.04 18.34,-91.71 18.34,-131.02 0,-54.15 -15.72,-110.05 -47.17,-165.95 -31.44,-56.78 -83.85,-101.32 -156.34,-134.51 -72.5,-33.19 -143.24,-49.79 -211.37,-49.79l0 -22.71 905.74 0 1228.92 3267.5c105.69,245.43 274.26,368.59 506.59,368.59l0 25.33 -1540.73 0 0 -25.33c75.11,0 157.22,-11.35 247.18,-33.19 89.09,-22.71 163.33,-57.65 220.98,-105.69 42.8,-35.81 63.76,-79.48 63.76,-132.76 0,-18.34 -1.74,-37.56 -6.98,-55.9l-276.88 -731.93c-132.76,-254.17 -316.18,-457.68 -548.52,-610.53 -233.2,-152.85 -489.99,-241.07 -771.24,-264.65l-629.74 1676.11c-3.49,16.6 -5.24,32.32 -5.24,46.29 0,47.17 24.46,88.22 74.24,121.41 49.79,33.19 116.17,56.77 200.89,69.87 84.72,13.98 154.6,20.96 211.37,20.96l0 22.71 -1039.38 2.62 0 -25.33 10.48 0c82.1,0 165.95,-20.09 253.3,-60.26 87.34,-40.18 159.84,-108.31 217.48,-203.51 177.31,-462.04 386.93,-1020.17 629.74,-1673.49l-48.91 0c-146.74,0 -294.35,20.09 -442.83,61.14 -427.98,126.65 -752.9,383.44 -974.75,770.37 -138,252.42 -207,513.57 -207,783.46 0,147.61 20.96,298.71 63.76,452.44 83.85,279.5 227.96,505.72 432.35,677.78 204.39,172.94 442.83,285.61 713.59,338.02 110.93,22.71 223.6,33.19 338.02,33.19 162.46,0 326.67,-22.71 494.36,-69l61.14 258.54c-160.71,44.55 -318.8,66.38 -476.02,66.38zm1325.87 -2811.57l-706.61 -1876.13 -468.16 1246.38c476.02,50.66 867.31,261.16 1174.76,629.74z"/>
   <path class="fil0" d="M4990.38 9405.93l-267.11 0 0 -4.25c21.2,0 41.17,-6.37 60.05,-18.94 19.04,-12.57 28.94,-30.2 30.18,-52.9l0 -539.16c-3.25,-20.09 -13.93,-35.76 -32.19,-47.35 -18.1,-11.43 -37.14,-17.15 -57.1,-17.15l0 -4.73 314.16 0c40.85,0 78.15,6.04 112.04,18.12 33.89,12.08 60.82,30.54 80.94,55.19 20.12,24.82 30.17,56.17 30.17,94.05 0,37.88 -10.06,69.23 -30.17,94.05 -20.12,24.66 -47.05,43.11 -80.94,55.19 -33.89,12.08 -71.19,18.12 -112.04,18.12l-137.27 0 0 274.65c1.55,22.04 11.45,39.35 30.18,51.92 18.57,12.57 38.22,18.94 59.12,18.94l0 4.25zm47.98 -363.47c27.23,0 51.07,-7.67 71.5,-23.02 20.43,-15.35 36.21,-34.78 47.51,-58.13 11.45,-23.51 17.02,-47.68 17.02,-72.5 0,-24.49 -5.57,-48.66 -16.71,-72.17 -11.14,-23.68 -26.93,-43.11 -47.36,-58.46 -20.43,-15.35 -44.41,-22.86 -71.96,-22.86l-82.95 0c-15.01,0 -27.86,5.55 -38.54,16.65 -10.53,11.27 -15.79,24.82 -15.79,40.66l0 249.82 137.27 0z"/>
   <path id="_1_5" class="fil0" d="M5692.82 9405.93c-47.35,0 -90.69,-7.68 -129.53,-23.19 -39,-15.51 -70.11,-38.54 -93.32,-69.39 -23.06,-30.7 -34.67,-68.58 -34.67,-113.65l0 -411.8c-4.18,-19.43 -15.32,-34.61 -33.43,-45.39 -18.26,-10.94 -37.14,-16.33 -56.8,-16.33l0 -4.73 267.11 0 0 4.73c-19.34,0 -38.07,5.39 -56.18,16.33 -18.26,10.78 -29.4,25.96 -33.58,45.39l0 411.8c0,32.66 7.27,63.52 21.66,92.91 14.55,29.22 34.67,53.23 60.2,72.01 25.53,18.61 55.09,27.92 88.52,27.92 38.07,0 72.89,-8.65 104.3,-26.13 31.42,-17.31 56.48,-40.66 75.06,-69.72 18.57,-29.22 27.86,-61.56 27.86,-96.99l0 -423.72c-3.25,-15.35 -14.4,-27.43 -33.12,-36.41 -18.72,-8.98 -36.21,-13.39 -52.46,-13.39l0 -4.73 184.01 0 0 4.73c-15.94,0 -33.43,4.41 -52.15,13.39 -18.72,8.98 -29.71,21.06 -33.12,36.41l0 423.72c0,38.04 -9.91,72.66 -29.71,103.85 -19.81,31.35 -46.27,56.17 -79.7,74.62 -33.43,18.45 -70.42,27.76 -110.96,27.76z"/>
   <path id="_2_6" class="fil0" d="M6592.11 9405.93l-510.07 0 0 -4.25c19.96,0 39.15,-5.88 57.42,-17.31 18.26,-11.43 29.09,-27.43 32.34,-47.84l0 -545.37c-3.25,-20.08 -14.08,-35.92 -32.34,-47.52 -18.26,-11.59 -37.45,-17.47 -57.42,-17.47l0 -4.24 484.7 0 8.67 139.61 -4.18 0c0,-13.06 -3.71,-28.74 -11.45,-46.86 -7.74,-18.12 -19.65,-34.94 -35.59,-50.29 -16.09,-15.19 -36.67,-24.82 -61.75,-28.57l-154.6 0c-13.3,0 -24.6,4.9 -34.2,14.7 -9.44,9.96 -14.24,22.04 -14.24,36.41l0 269.74 161.88 0c14.54,-3.43 26,-15.02 34.35,-34.94 8.51,-19.76 12.84,-38.04 13.15,-54.86l4.18 0 0 194.15 -4.18 0c-0.31,-17.15 -4.64,-35.76 -13.15,-55.52 -8.36,-19.76 -19.81,-31.35 -34.35,-34.94l-161.88 0 0 262.23c0,16.49 5.42,30.7 16.56,42.29 10.99,11.59 24.45,17.47 40.08,17.47l158.63 0c25.23,-4.41 46.74,-16.66 64.85,-36.41 18.26,-19.76 32.19,-40.98 41.94,-63.52 9.91,-22.7 14.86,-40.66 14.86,-54.05l4.49 0 -8.67 167.37z"/>
   <path id="_3_7" class="fil0" d="M7289.59 9406.91l-271.59 0 0 -4.24c14.24,0 28.78,-2.29 43.8,-6.53 15.01,-4.24 26.77,-11.59 35.59,-21.72 6.04,-7.67 9.13,-17.31 9.13,-28.74 0,-4.74 -0.46,-9.8 -1.39,-14.86l0.46 0c-6.04,-40.5 -15.32,-81.15 -27.85,-122.14 -12.69,-40.98 -31.72,-75.76 -57.42,-104.34 -25.69,-28.57 -61.44,-44.41 -107.09,-47.68l-46.58 0 0 275.13c1.55,22.04 11.45,39.35 30.18,51.93 18.57,12.57 38.22,18.94 59.11,18.94l0 4.24 -267.11 0 0 -4.24c21.2,0 41.17,-6.53 60.04,-19.27 19.04,-12.74 28.94,-30.21 30.18,-52.57l0 -539.17c-3.25,-20.08 -13.93,-35.92 -32.19,-47.52 -18.1,-11.59 -37.14,-17.47 -57.1,-17.47l0 -4.41 301 0c40.85,0 78.15,6.04 112.04,17.96 33.89,12.08 60.82,30.37 80.94,55.03 20.11,24.82 30.18,56.17 30.18,94.05 0,26.78 -5.11,50.13 -15.48,69.89 -21.05,41.47 -55.4,69.39 -102.91,83.6 -27.39,8.66 -52,13.06 -73.35,13.06 40.08,12.41 72.12,33.64 96.1,63.85 23.83,30.04 41.94,64.17 54.32,102.05 12.38,38.04 21.82,75.11 28.17,111.52 6.03,18.78 17.17,35.11 33.58,48.82 16.24,13.72 34.66,20.57 55.24,20.57l0 4.24zm-298.83 -364.12c27.24,0 51.07,-7.51 71.5,-22.69 20.43,-15.19 36.21,-34.46 47.67,-58.13 11.3,-23.51 16.87,-47.84 16.87,-72.66 0,-24.17 -5.57,-48.17 -16.71,-71.68 -11.14,-23.68 -26.93,-43.11 -47.35,-58.46 -20.43,-15.35 -44.42,-22.86 -71.96,-22.86l-69.8 0c-15.01,0 -27.86,5.55 -38.54,16.65 -10.53,11.1 -15.79,24.66 -15.79,40.66l0 249.17 124.12 0z"/>
   <path id="_4" class="fil0" d="M7752.94 9405.93l-266.96 0 0 -4.25c21.05,0 41.17,-6.37 60.04,-18.94 18.88,-12.57 28.94,-30.2 30.18,-52.9l0 -594.52 -142.37 0c-25.07,4.41 -46.74,16.49 -64.85,36.09 -18.1,19.59 -32.03,40.66 -41.78,63.35 -9.59,22.69 -14.55,40.66 -14.85,54.04l-4.18 0 8.67 -167.36 608.5 0 8.98 167.36 -4.49 0c0,-13.39 -4.95,-31.35 -14.7,-54.04 -9.91,-22.7 -23.83,-43.76 -41.79,-63.35 -17.95,-19.59 -39.62,-31.68 -65,-36.09l-144.7 0 0 595.5c1.55,22.04 11.61,39.35 30.18,51.92 18.57,12.57 38.38,18.94 59.12,18.94l0 4.25z"/>
   <path id="_5" class="fil0" d="M8341.63 9405.93c-59.58,0 -113.9,-15.35 -162.96,-46.21 -49.06,-30.7 -88.21,-72.01 -117.15,-123.6 -29.09,-51.6 -43.64,-109.07 -43.64,-172.26 0,-62.7 14.55,-120.02 43.64,-171.61 28.94,-51.76 68.09,-92.91 117.15,-123.77 49.06,-30.7 103.38,-46.21 162.96,-46.21 59.89,0 114.21,15.51 163.27,46.21 48.91,30.86 88.06,72.01 117.15,123.77 29.25,51.6 43.8,108.91 43.8,171.61 0,63.19 -14.55,120.67 -43.8,172.26 -29.09,51.59 -68.25,92.91 -117.15,123.6 -49.06,30.86 -103.37,46.21 -163.27,46.21zm0 -13.88c32.35,0 62.68,-9.31 91,-27.76 28.16,-18.45 52.93,-43.27 74.28,-74.3 21.35,-31.19 38.07,-66.29 50.14,-105.32 12.07,-39.02 18.11,-79.35 18.11,-120.83 0,-41.15 -6.04,-81.32 -18.11,-120.5 -12.07,-39.19 -28.78,-74.46 -50.14,-105.65 -21.36,-31.35 -46.12,-56.17 -74.28,-74.62 -28.32,-18.61 -58.65,-27.76 -91,-27.76 -32.03,0 -62.21,9.14 -90.37,27.76 -28.32,18.45 -53.08,43.27 -74.44,74.62 -21.2,31.19 -38.07,66.46 -50.3,105.65 -12.22,39.19 -18.41,79.35 -18.41,120.5 0,41.47 6.19,81.8 18.41,120.83 12.23,39.03 29.1,74.13 50.3,105.32 21.35,31.02 46.11,55.84 74.44,74.3 28.17,18.45 58.34,27.76 90.37,27.76z"/>
   <path id="_6" class="fil0" d="M11494.8 9405.93c-47.35,0 -90.69,-7.68 -129.53,-23.19 -39,-15.51 -70.11,-38.54 -93.32,-69.39 -23.06,-30.7 -34.67,-68.58 -34.67,-113.65l0 -411.8c-4.18,-19.43 -15.32,-34.61 -33.43,-45.39 -18.26,-10.94 -37.14,-16.33 -56.8,-16.33l0 -4.73 267.11 0 0 4.73c-19.34,0 -38.07,5.39 -56.18,16.33 -18.26,10.78 -29.4,25.96 -33.58,45.39l0 411.8c0,32.66 7.28,63.52 21.67,92.91 14.55,29.22 34.67,53.23 60.2,72.01 25.53,18.61 55.09,27.92 88.52,27.92 38.07,0 72.89,-8.65 104.3,-26.13 31.42,-17.31 56.48,-40.66 75.06,-69.72 18.57,-29.22 27.86,-61.56 27.86,-96.99l0 -423.72c-3.25,-15.35 -14.4,-27.43 -33.12,-36.41 -18.72,-8.98 -36.21,-13.39 -52.46,-13.39l0 -4.73 184.01 0 0 4.73c-15.94,0 -33.43,4.41 -52.15,13.39 -18.72,8.98 -29.71,21.06 -33.12,36.41l0 423.72c0,38.04 -9.91,72.66 -29.71,103.85 -19.81,31.35 -46.27,56.17 -79.7,74.62 -33.43,18.45 -70.42,27.76 -110.96,27.76z"/>
   <path id="_7" class="fil0" d="M12394.09 9405.93l-510.07 0 0 -4.25c19.96,0 39.15,-5.88 57.42,-17.31 18.26,-11.43 29.09,-27.43 32.34,-47.84l0 -545.37c-3.25,-20.08 -14.08,-35.92 -32.34,-47.52 -18.26,-11.59 -37.45,-17.47 -57.42,-17.47l0 -4.24 484.7 0 8.67 139.61 -4.18 0c0,-13.06 -3.71,-28.74 -11.45,-46.86 -7.74,-18.12 -19.65,-34.94 -35.59,-50.29 -16.09,-15.19 -36.67,-24.82 -61.75,-28.57l-154.6 0c-13.31,0 -24.6,4.9 -34.2,14.7 -9.44,9.96 -14.24,22.04 -14.24,36.41l0 269.74 161.88 0c14.54,-3.43 26,-15.02 34.35,-34.94 8.51,-19.76 12.84,-38.04 13.15,-54.86l4.18 0 0 194.15 -4.18 0c-0.31,-17.15 -4.64,-35.76 -13.15,-55.52 -8.36,-19.76 -19.81,-31.35 -34.35,-34.94l-161.88 0 0 262.23c0,16.49 5.42,30.7 16.56,42.29 10.99,11.59 24.45,17.47 40.08,17.47l158.63 0c25.23,-4.41 46.74,-16.66 64.85,-36.41 18.26,-19.76 32.19,-40.98 41.94,-63.52 9.91,-22.7 14.86,-40.66 14.86,-54.05l4.49 0 -8.67 167.37z"/>
   <path id="_8" class="fil0" d="M13033.55 9405.93l-12.22 0 -428.83 -624.72 0 566.92c1.7,16.17 11.92,29.06 30.33,38.7 18.41,9.47 35.75,14.53 52.15,14.86l0 4.25 -177.35 0 0 -4.25c16.09,-0.33 33.43,-5.39 52,-14.86 18.57,-9.63 28.78,-22.37 30.48,-38.21l0 -544.88c0,-15.35 -4.49,-28.9 -13.77,-40.49 -9.13,-11.59 -20.58,-20.74 -34.2,-27.43 -13.61,-6.69 -27.39,-10.12 -41.31,-10.12l0 -4.24 168.68 0 361.82 533.28 -0.47 -475.48c-1.55,-16.17 -11.6,-29.22 -30.17,-38.7 -18.57,-9.63 -35.91,-14.53 -51.85,-14.86l0 -4.24 177.2 0 0 4.73c-15.94,0 -33.12,4.74 -51.69,14.04 -18.42,9.47 -28.63,22.21 -30.8,38.05l0 627.66zm-160.48 -780.17c-13.62,0 -26.16,-5.39 -37.61,-16.33 -10.52,-9.47 -20.89,-14.37 -30.8,-14.37 -2.48,0 -7.58,0.98 -15.17,2.94 -7.74,1.96 -15.48,9.96 -22.91,24.33l-22.28 -25.31c9.59,-30.37 23.52,-48.33 41.78,-54.05 5.73,-1.96 11.45,-2.94 17.18,-2.94 11.45,0 22.59,4.24 33.58,12.57 14.7,12.09 27.23,18.13 37.6,18.13 1.55,0 5.26,-0.49 11.61,-1.47 6.19,-0.98 13.93,-7.19 23.21,-18.61l19.96 30.53c-14.39,29.72 -33.27,44.58 -56.17,44.58z"/>
   <path id="_9" class="fil0" d="M13873.1 9405.93l-272.99 0 0 -4.25c13.31,0 28.01,-2.12 43.95,-6.2 16.09,-4.24 29.09,-10.78 39,-19.76 7.58,-6.7 11.45,-14.86 11.45,-24.82 0,-3.43 -0.46,-7.02 -1.39,-10.45l-83.41 -233.99 -223.16 0 -87.9 246.89c-0.62,3.1 -0.93,6.04 -0.93,8.65 0,8.82 4.33,16.49 13.15,22.7 8.82,6.2 20.58,10.61 35.59,13.06 15.01,2.61 27.39,3.92 37.45,3.92l0 4.25 -184.16 0 0 -4.25c15.17,0 30.64,-3.76 46.27,-11.26 15.79,-7.51 28.79,-20.25 39,-38.05 13.31,-37.39 30.33,-84.91 51.07,-142.87 20.58,-57.8 41.48,-116.26 62.52,-175.53 21.05,-59.11 38.84,-109.24 53.24,-150.22 14.54,-40.98 22.44,-63.52 23.68,-67.6 2.01,-8.98 3.09,-17.31 3.09,-24.98 0,-10.12 -2.79,-20.41 -8.36,-30.86 -5.57,-10.28 -14.7,-18.61 -27.24,-24.82 -12.54,-6.2 -24.6,-9.31 -36.06,-9.31l-1.85 0 0 -4.73 160.64 0 217.59 611.33c19.04,45.88 48.9,68.91 89.76,68.91l0 4.25zm-268.35 -313.34l-106.63 -299.46 -106.94 299.46 213.56 0z"/>
   <path id="_10" class="fil0" d="M9324.33 9406.91l-271.59 0 0 -4.24c14.24,0 28.78,-2.29 43.8,-6.53 15.01,-4.24 26.77,-11.59 35.59,-21.72 6.04,-7.67 9.13,-17.31 9.13,-28.74 0,-4.74 -0.46,-9.8 -1.39,-14.86l0.46 0c-6.04,-40.5 -15.32,-81.15 -27.85,-122.14 -12.69,-40.98 -31.72,-75.76 -57.42,-104.34 -25.69,-28.57 -61.44,-44.41 -107.09,-47.68l-46.58 0 0 275.13c1.55,22.04 11.45,39.35 30.18,51.93 18.57,12.57 38.22,18.94 59.11,18.94l0 4.24 -267.11 0 0 -4.24c21.2,0 41.16,-6.53 60.04,-19.27 19.04,-12.74 28.94,-30.21 30.18,-52.57l0 -539.17c-3.25,-20.08 -13.93,-35.92 -32.19,-47.52 -18.1,-11.59 -37.14,-17.47 -57.1,-17.47l0 -4.41 301 0c40.85,0 78.15,6.04 112.04,17.96 33.89,12.08 60.81,30.37 80.94,55.03 20.11,24.82 30.18,56.17 30.18,94.05 0,26.78 -5.11,50.13 -15.48,69.89 -21.05,41.47 -55.4,69.39 -102.91,83.6 -27.39,8.66 -52,13.06 -73.35,13.06 40.08,12.41 72.12,33.64 96.1,63.85 23.83,30.04 41.94,64.17 54.32,102.05 12.38,38.04 21.82,75.11 28.17,111.52 6.03,18.78 17.17,35.11 33.58,48.82 16.24,13.72 34.66,20.57 55.24,20.57l0 4.24zm-298.83 -364.12c27.24,0 51.07,-7.51 71.5,-22.69 20.43,-15.19 36.21,-34.46 47.67,-58.13 11.3,-23.51 16.87,-47.84 16.87,-72.66 0,-24.17 -5.57,-48.17 -16.71,-71.68 -11.14,-23.68 -26.93,-43.11 -47.35,-58.46 -20.43,-15.35 -44.42,-22.86 -71.96,-22.86l-69.8 0c-15.01,0 -27.86,5.55 -38.54,16.65 -10.53,11.1 -15.79,24.66 -15.79,40.66l0 249.17 124.12 0z"/>
   <path id="_11" class="fil0" d="M10008.67 9406.91l-271.59 0 0 -4.24c14.24,0 28.78,-2.29 43.8,-6.53 15.01,-4.24 26.77,-11.59 35.59,-21.72 6.04,-7.67 9.13,-17.31 9.13,-28.74 0,-4.74 -0.46,-9.8 -1.39,-14.86l0.46 0c-6.04,-40.5 -15.32,-81.15 -27.85,-122.14 -12.69,-40.98 -31.72,-75.76 -57.42,-104.34 -25.69,-28.57 -61.44,-44.41 -107.09,-47.68l-46.58 0 0 275.13c1.55,22.04 11.45,39.35 30.18,51.93 18.57,12.57 38.22,18.94 59.11,18.94l0 4.24 -267.11 0 0 -4.24c21.2,0 41.17,-6.53 60.04,-19.27 19.04,-12.74 28.94,-30.21 30.18,-52.57l0 -539.17c-3.25,-20.08 -13.93,-35.92 -32.19,-47.52 -18.11,-11.59 -37.14,-17.47 -57.1,-17.47l0 -4.41 301 0c40.85,0 78.15,6.04 112.04,17.96 33.89,12.08 60.82,30.37 80.94,55.03 20.11,24.82 30.18,56.17 30.18,94.05 0,26.78 -5.11,50.13 -15.48,69.89 -21.05,41.47 -55.4,69.39 -102.91,83.6 -27.39,8.66 -52,13.06 -73.35,13.06 40.08,12.41 72.12,33.64 96.1,63.85 23.83,30.04 41.94,64.17 54.32,102.05 12.38,38.04 21.82,75.11 28.17,111.52 6.03,18.78 17.17,35.11 33.58,48.82 16.24,13.72 34.67,20.57 55.24,20.57l0 4.24zm-298.83 -364.12c27.24,0 51.07,-7.51 71.5,-22.69 20.43,-15.19 36.21,-34.46 47.67,-58.13 11.3,-23.51 16.87,-47.84 16.87,-72.66 0,-24.17 -5.57,-48.17 -16.71,-71.68 -11.14,-23.68 -26.93,-43.11 -47.35,-58.46 -20.43,-15.35 -44.42,-22.86 -71.96,-22.86l-69.8 0c-15.01,0 -27.86,5.55 -38.54,16.65 -10.53,11.1 -15.79,24.66 -15.79,40.66l0 249.17 124.12 0z"/>
   <path id="_12" class="fil0" d="M10359.35 9405.93l-267.11 0 0 -4.25c21.2,0 41.17,-6.37 60.04,-18.94 19.04,-12.57 29.09,-30.2 30.65,-52.9l0 -531.98c-1.55,-22.53 -11.61,-40.17 -30.65,-52.74 -18.88,-12.57 -38.84,-18.94 -60.04,-18.94l0 -4.24 267.11 0 0 4.24c-20.58,0 -40.08,6.37 -58.65,18.94 -18.72,12.57 -28.94,29.88 -30.64,51.93l0 533.78c1.7,22.04 11.92,39.35 30.64,51.92 18.57,12.57 38.07,18.94 58.65,18.94l0 4.25z"/>
   <path id="_13" class="fil0" d="M11015.21 9431.72c-23.99,0 -46.43,-6.04 -67.63,-18.12 -17.18,-9.63 -34.51,-21.56 -51.69,-35.92 -40.24,18.78 -83.26,28.25 -129.22,28.25 -59.58,0 -113.74,-15.35 -162.8,-46.21 -48.9,-30.7 -87.91,-72.01 -117.15,-123.6 -29.09,-51.6 -43.8,-109.07 -43.8,-172.26 0,-62.7 14.7,-120.02 43.8,-171.61 29.24,-51.76 68.25,-92.91 117.15,-123.77 49.06,-30.7 103.22,-46.21 162.8,-46.21 59.89,0 114.21,15.51 163.27,46.21 48.9,30.86 88.06,72.01 117.15,123.77 29.25,51.6 43.8,108.91 43.8,171.61 0,55.19 -11.3,106.13 -33.74,152.83 -22.59,46.7 -53.24,85.89 -91.92,117.56 12.69,4.74 25.84,7.19 39.46,7.19 8.51,0 20.43,-1.63 35.59,-4.9 15.32,-3.1 35.44,-16 60.51,-38.7 1.55,-1.31 3.25,-1.96 5.11,-1.96 1.39,0.33 2.79,1.14 4.02,2.45 5.72,8.33 8.67,20.74 8.67,37.23 0,3.59 -0.46,11.92 -1.24,25.15 -0.78,13.23 -9.91,28.9 -27.39,47.19 -15.79,15.84 -40.7,23.84 -74.75,23.84zm-98.89 -120.5c26,-32.17 46.43,-69.89 61.44,-113.16 15.01,-43.27 22.44,-87.85 22.44,-134.22 0,-41.15 -6.04,-81.32 -18.11,-120.5 -12.07,-39.19 -28.79,-74.46 -50.14,-105.65 -21.36,-31.35 -46.12,-56.17 -74.28,-74.62 -28.32,-18.61 -58.65,-27.76 -91,-27.76 -32.04,0 -62.21,9.14 -90.38,27.76 -28.32,18.45 -53.08,43.27 -74.44,74.62 -21.2,31.19 -37.92,66.46 -50.14,105.65 -12.07,39.19 -18.11,79.35 -18.11,120.5 0,67.6 15.63,131.11 46.74,190.39 43.49,-26.13 82.95,-39.19 118.39,-39.19 33.43,0 64.69,7.02 93.63,21.07 28.78,14.04 56.18,30.2 82.18,48.33 14.24,9.63 28.17,18.45 41.78,26.78zm-149.65 80.82c36.83,0 71.03,-11.92 102.45,-35.92 -23.83,-20.74 -49.68,-40.33 -77.53,-58.94 -27.7,-18.78 -58.81,-32.17 -92.86,-40.5 -15.16,-3.76 -31.26,-5.71 -48.59,-5.71 -20.89,0 -43.18,2.78 -67.01,8.65 21.67,39.52 48.44,71.52 80.17,95.85 31.72,24.33 66.24,36.57 103.38,36.57z"/>
   <path id="_14" class="fil1 str0" d="M4990.38 9405.93l-267.11 0 0 -4.25c21.2,0 41.17,-6.37 60.05,-18.94 19.04,-12.57 28.94,-30.2 30.18,-52.9l0 -539.16c-3.25,-20.09 -13.93,-35.76 -32.19,-47.35 -18.1,-11.43 -37.14,-17.15 -57.1,-17.15l0 -4.73 314.16 0c40.85,0 78.15,6.04 112.04,18.12 33.89,12.08 60.82,30.54 80.94,55.19 20.12,24.82 30.17,56.17 30.17,94.05 0,37.88 -10.06,69.23 -30.17,94.05 -20.12,24.66 -47.05,43.11 -80.94,55.19 -33.89,12.08 -71.19,18.12 -112.04,18.12l-137.27 0 0 274.65c1.55,22.04 11.45,39.35 30.18,51.92 18.57,12.57 38.22,18.94 59.12,18.94l0 4.25zm47.98 -363.47c27.23,0 51.07,-7.67 71.5,-23.02 20.43,-15.35 36.21,-34.78 47.51,-58.13 11.45,-23.51 17.02,-47.68 17.02,-72.5 0,-24.49 -5.57,-48.66 -16.71,-72.17 -11.14,-23.68 -26.93,-43.11 -47.36,-58.46 -20.43,-15.35 -44.41,-22.86 -71.96,-22.86l-82.95 0c-15.01,0 -27.86,5.55 -38.54,16.65 -10.53,11.27 -15.79,24.82 -15.79,40.66l0 249.82 137.27 0z"/>
   <path id="_15" class="fil1 str0" d="M5692.82 9405.93c-47.35,0 -90.69,-7.68 -129.53,-23.19 -39,-15.51 -70.11,-38.54 -93.32,-69.39 -23.06,-30.7 -34.67,-68.58 -34.67,-113.65l0 -411.8c-4.18,-19.43 -15.32,-34.61 -33.43,-45.39 -18.26,-10.94 -37.14,-16.33 -56.8,-16.33l0 -4.73 267.11 0 0 4.73c-19.34,0 -38.07,5.39 -56.18,16.33 -18.26,10.78 -29.4,25.96 -33.58,45.39l0 411.8c0,32.66 7.27,63.52 21.66,92.91 14.55,29.22 34.67,53.23 60.2,72.01 25.53,18.61 55.09,27.92 88.52,27.92 38.07,0 72.89,-8.65 104.3,-26.13 31.42,-17.31 56.48,-40.66 75.06,-69.72 18.57,-29.22 27.86,-61.56 27.86,-96.99l0 -423.72c-3.25,-15.35 -14.4,-27.43 -33.12,-36.41 -18.72,-8.98 -36.21,-13.39 -52.46,-13.39l0 -4.73 184.01 0 0 4.73c-15.94,0 -33.43,4.41 -52.15,13.39 -18.72,8.98 -29.71,21.06 -33.12,36.41l0 423.72c0,38.04 -9.91,72.66 -29.71,103.85 -19.81,31.35 -46.27,56.17 -79.7,74.62 -33.43,18.45 -70.42,27.76 -110.96,27.76z"/>
   <path id="_16" class="fil1 str0" d="M6592.11 9405.93l-510.07 0 0 -4.25c19.96,0 39.15,-5.88 57.42,-17.31 18.26,-11.43 29.09,-27.43 32.34,-47.84l0 -545.37c-3.25,-20.08 -14.08,-35.92 -32.34,-47.52 -18.26,-11.59 -37.45,-17.47 -57.42,-17.47l0 -4.24 484.7 0 8.67 139.61 -4.18 0c0,-13.06 -3.71,-28.74 -11.45,-46.86 -7.74,-18.12 -19.65,-34.94 -35.59,-50.29 -16.09,-15.19 -36.67,-24.82 -61.75,-28.57l-154.6 0c-13.3,0 -24.6,4.9 -34.2,14.7 -9.44,9.96 -14.24,22.04 -14.24,36.41l0 269.74 161.88 0c14.54,-3.43 26,-15.02 34.35,-34.94 8.51,-19.76 12.84,-38.04 13.15,-54.86l4.18 0 0 194.15 -4.18 0c-0.31,-17.15 -4.64,-35.76 -13.15,-55.52 -8.36,-19.76 -19.81,-31.35 -34.35,-34.94l-161.88 0 0 262.23c0,16.49 5.42,30.7 16.56,42.29 10.99,11.59 24.45,17.47 40.08,17.47l158.63 0c25.23,-4.41 46.74,-16.66 64.85,-36.41 18.26,-19.76 32.19,-40.98 41.94,-63.52 9.91,-22.7 14.86,-40.66 14.86,-54.05l4.49 0 -8.67 167.37z"/>
   <path id="_17" class="fil1 str0" d="M7289.59 9406.91l-271.59 0 0 -4.24c14.24,0 28.78,-2.29 43.8,-6.53 15.01,-4.24 26.77,-11.59 35.59,-21.72 6.04,-7.67 9.13,-17.31 9.13,-28.74 0,-4.74 -0.46,-9.8 -1.39,-14.86l0.46 0c-6.04,-40.5 -15.32,-81.15 -27.85,-122.14 -12.69,-40.98 -31.72,-75.76 -57.42,-104.34 -25.69,-28.57 -61.44,-44.41 -107.09,-47.68l-46.58 0 0 275.13c1.55,22.04 11.45,39.35 30.18,51.93 18.57,12.57 38.22,18.94 59.11,18.94l0 4.24 -267.11 0 0 -4.24c21.2,0 41.17,-6.53 60.04,-19.27 19.04,-12.74 28.94,-30.21 30.18,-52.57l0 -539.17c-3.25,-20.08 -13.93,-35.92 -32.19,-47.52 -18.1,-11.59 -37.14,-17.47 -57.1,-17.47l0 -4.41 301 0c40.85,0 78.15,6.04 112.04,17.96 33.89,12.08 60.82,30.37 80.94,55.03 20.11,24.82 30.18,56.17 30.18,94.05 0,26.78 -5.11,50.13 -15.48,69.89 -21.05,41.47 -55.4,69.39 -102.91,83.6 -27.39,8.66 -52,13.06 -73.35,13.06 40.08,12.41 72.12,33.64 96.1,63.85 23.83,30.04 41.94,64.17 54.32,102.05 12.38,38.04 21.82,75.11 28.17,111.52 6.03,18.78 17.17,35.11 33.58,48.82 16.24,13.72 34.66,20.57 55.24,20.57l0 4.24zm-298.83 -364.12c27.24,0 51.07,-7.51 71.5,-22.69 20.43,-15.19 36.21,-34.46 47.67,-58.13 11.3,-23.51 16.87,-47.84 16.87,-72.66 0,-24.17 -5.57,-48.17 -16.71,-71.68 -11.14,-23.68 -26.93,-43.11 -47.35,-58.46 -20.43,-15.35 -44.42,-22.86 -71.96,-22.86l-69.8 0c-15.01,0 -27.86,5.55 -38.54,16.65 -10.53,11.1 -15.79,24.66 -15.79,40.66l0 249.17 124.12 0z"/>
   <path id="_18" class="fil1 str0" d="M7752.94 9405.93l-266.96 0 0 -4.25c21.05,0 41.17,-6.37 60.04,-18.94 18.88,-12.57 28.94,-30.2 30.18,-52.9l0 -594.52 -142.37 0c-25.07,4.41 -46.74,16.49 -64.85,36.09 -18.1,19.59 -32.03,40.66 -41.78,63.35 -9.59,22.69 -14.55,40.66 -14.85,54.04l-4.18 0 8.67 -167.36 608.5 0 8.98 167.36 -4.49 0c0,-13.39 -4.95,-31.35 -14.7,-54.04 -9.91,-22.7 -23.83,-43.76 -41.79,-63.35 -17.95,-19.59 -39.62,-31.68 -65,-36.09l-144.7 0 0 595.5c1.55,22.04 11.61,39.35 30.18,51.92 18.57,12.57 38.38,18.94 59.12,18.94l0 4.25z"/>
   <path id="_19" class="fil1 str0" d="M8341.63 9405.93c-59.58,0 -113.9,-15.35 -162.96,-46.21 -49.06,-30.7 -88.21,-72.01 -117.15,-123.6 -29.09,-51.6 -43.64,-109.07 -43.64,-172.26 0,-62.7 14.55,-120.02 43.64,-171.61 28.94,-51.76 68.09,-92.91 117.15,-123.77 49.06,-30.7 103.38,-46.21 162.96,-46.21 59.89,0 114.21,15.51 163.27,46.21 48.91,30.86 88.06,72.01 117.15,123.77 29.25,51.6 43.8,108.91 43.8,171.61 0,63.19 -14.55,120.67 -43.8,172.26 -29.09,51.59 -68.25,92.91 -117.15,123.6 -49.06,30.86 -103.37,46.21 -163.27,46.21zm0 -13.88c32.35,0 62.68,-9.31 91,-27.76 28.16,-18.45 52.93,-43.27 74.28,-74.3 21.35,-31.19 38.07,-66.29 50.14,-105.32 12.07,-39.02 18.11,-79.35 18.11,-120.83 0,-41.15 -6.04,-81.32 -18.11,-120.5 -12.07,-39.19 -28.78,-74.46 -50.14,-105.65 -21.36,-31.35 -46.12,-56.17 -74.28,-74.62 -28.32,-18.61 -58.65,-27.76 -91,-27.76 -32.03,0 -62.21,9.14 -90.37,27.76 -28.32,18.45 -53.08,43.27 -74.44,74.62 -21.2,31.19 -38.07,66.46 -50.3,105.65 -12.22,39.19 -18.41,79.35 -18.41,120.5 0,41.47 6.19,81.8 18.41,120.83 12.23,39.03 29.1,74.13 50.3,105.32 21.35,31.02 46.11,55.84 74.44,74.3 28.17,18.45 58.34,27.76 90.37,27.76z"/>
   <path id="_20" class="fil1 str0" d="M11494.8 9405.93c-47.35,0 -90.69,-7.68 -129.53,-23.19 -39,-15.51 -70.11,-38.54 -93.32,-69.39 -23.06,-30.7 -34.67,-68.58 -34.67,-113.65l0 -411.8c-4.18,-19.43 -15.32,-34.61 -33.43,-45.39 -18.26,-10.94 -37.14,-16.33 -56.8,-16.33l0 -4.73 267.11 0 0 4.73c-19.34,0 -38.07,5.39 -56.18,16.33 -18.26,10.78 -29.4,25.96 -33.58,45.39l0 411.8c0,32.66 7.28,63.52 21.67,92.91 14.55,29.22 34.67,53.23 60.2,72.01 25.53,18.61 55.09,27.92 88.52,27.92 38.07,0 72.89,-8.65 104.3,-26.13 31.42,-17.31 56.48,-40.66 75.06,-69.72 18.57,-29.22 27.86,-61.56 27.86,-96.99l0 -423.72c-3.25,-15.35 -14.4,-27.43 -33.12,-36.41 -18.72,-8.98 -36.21,-13.39 -52.46,-13.39l0 -4.73 184.01 0 0 4.73c-15.94,0 -33.43,4.41 -52.15,13.39 -18.72,8.98 -29.71,21.06 -33.12,36.41l0 423.72c0,38.04 -9.91,72.66 -29.71,103.85 -19.81,31.35 -46.27,56.17 -79.7,74.62 -33.43,18.45 -70.42,27.76 -110.96,27.76z"/>
   <path id="_21" class="fil1 str0" d="M12394.09 9405.93l-510.07 0 0 -4.25c19.96,0 39.15,-5.88 57.42,-17.31 18.26,-11.43 29.09,-27.43 32.34,-47.84l0 -545.37c-3.25,-20.08 -14.08,-35.92 -32.34,-47.52 -18.26,-11.59 -37.45,-17.47 -57.42,-17.47l0 -4.24 484.7 0 8.67 139.61 -4.18 0c0,-13.06 -3.71,-28.74 -11.45,-46.86 -7.74,-18.12 -19.65,-34.94 -35.59,-50.29 -16.09,-15.19 -36.67,-24.82 -61.75,-28.57l-154.6 0c-13.31,0 -24.6,4.9 -34.2,14.7 -9.44,9.96 -14.24,22.04 -14.24,36.41l0 269.74 161.88 0c14.54,-3.43 26,-15.02 34.35,-34.94 8.51,-19.76 12.84,-38.04 13.15,-54.86l4.18 0 0 194.15 -4.18 0c-0.31,-17.15 -4.64,-35.76 -13.15,-55.52 -8.36,-19.76 -19.81,-31.35 -34.35,-34.94l-161.88 0 0 262.23c0,16.49 5.42,30.7 16.56,42.29 10.99,11.59 24.45,17.47 40.08,17.47l158.63 0c25.23,-4.41 46.74,-16.66 64.85,-36.41 18.26,-19.76 32.19,-40.98 41.94,-63.52 9.91,-22.7 14.86,-40.66 14.86,-54.05l4.49 0 -8.67 167.37z"/>
   <path id="_22" class="fil1 str0" d="M13033.55 9405.93l-12.22 0 -428.83 -624.72 0 566.92c1.7,16.17 11.92,29.06 30.33,38.7 18.41,9.47 35.75,14.53 52.15,14.86l0 4.25 -177.35 0 0 -4.25c16.09,-0.33 33.43,-5.39 52,-14.86 18.57,-9.63 28.78,-22.37 30.48,-38.21l0 -544.88c0,-15.35 -4.49,-28.9 -13.77,-40.49 -9.13,-11.59 -20.58,-20.74 -34.2,-27.43 -13.61,-6.69 -27.39,-10.12 -41.31,-10.12l0 -4.24 168.68 0 361.82 533.28 -0.47 -475.48c-1.55,-16.17 -11.6,-29.22 -30.17,-38.7 -18.57,-9.63 -35.91,-14.53 -51.85,-14.86l0 -4.24 177.2 0 0 4.73c-15.94,0 -33.12,4.74 -51.69,14.04 -18.42,9.47 -28.63,22.21 -30.8,38.05l0 627.66zm-160.48 -780.17c-13.62,0 -26.16,-5.39 -37.61,-16.33 -10.52,-9.47 -20.89,-14.37 -30.8,-14.37 -2.48,0 -7.58,0.98 -15.17,2.94 -7.74,1.96 -15.48,9.96 -22.91,24.33l-22.28 -25.31c9.59,-30.37 23.52,-48.33 41.78,-54.05 5.73,-1.96 11.45,-2.94 17.18,-2.94 11.45,0 22.59,4.24 33.58,12.57 14.7,12.09 27.23,18.13 37.6,18.13 1.55,0 5.26,-0.49 11.61,-1.47 6.19,-0.98 13.93,-7.19 23.21,-18.61l19.96 30.53c-14.39,29.72 -33.27,44.58 -56.17,44.58z"/>
   <path id="_23" class="fil1 str0" d="M13873.1 9405.93l-272.99 0 0 -4.25c13.31,0 28.01,-2.12 43.95,-6.2 16.09,-4.24 29.09,-10.78 39,-19.76 7.58,-6.7 11.45,-14.86 11.45,-24.82 0,-3.43 -0.46,-7.02 -1.39,-10.45l-83.41 -233.99 -223.16 0 -87.9 246.89c-0.62,3.1 -0.93,6.04 -0.93,8.65 0,8.82 4.33,16.49 13.15,22.7 8.82,6.2 20.58,10.61 35.59,13.06 15.01,2.61 27.39,3.92 37.45,3.92l0 4.25 -184.16 0 0 -4.25c15.17,0 30.64,-3.76 46.27,-11.26 15.79,-7.51 28.79,-20.25 39,-38.05 13.31,-37.39 30.33,-84.91 51.07,-142.87 20.58,-57.8 41.48,-116.26 62.52,-175.53 21.05,-59.11 38.84,-109.24 53.24,-150.22 14.54,-40.98 22.44,-63.52 23.68,-67.6 2.01,-8.98 3.09,-17.31 3.09,-24.98 0,-10.12 -2.79,-20.41 -8.36,-30.86 -5.57,-10.28 -14.7,-18.61 -27.24,-24.82 -12.54,-6.2 -24.6,-9.31 -36.06,-9.31l-1.85 0 0 -4.73 160.64 0 217.59 611.33c19.04,45.88 48.9,68.91 89.76,68.91l0 4.25zm-268.35 -313.34l-106.63 -299.46 -106.94 299.46 213.56 0z"/>
   <path id="_24" class="fil1 str0" d="M9324.33 9406.91l-271.59 0 0 -4.24c14.24,0 28.78,-2.29 43.8,-6.53 15.01,-4.24 26.77,-11.59 35.59,-21.72 6.04,-7.67 9.13,-17.31 9.13,-28.74 0,-4.74 -0.46,-9.8 -1.39,-14.86l0.46 0c-6.04,-40.5 -15.32,-81.15 -27.85,-122.14 -12.69,-40.98 -31.72,-75.76 -57.42,-104.34 -25.69,-28.57 -61.44,-44.41 -107.09,-47.68l-46.58 0 0 275.13c1.55,22.04 11.45,39.35 30.18,51.93 18.57,12.57 38.22,18.94 59.11,18.94l0 4.24 -267.11 0 0 -4.24c21.2,0 41.16,-6.53 60.04,-19.27 19.04,-12.74 28.94,-30.21 30.18,-52.57l0 -539.17c-3.25,-20.08 -13.93,-35.92 -32.19,-47.52 -18.1,-11.59 -37.14,-17.47 -57.1,-17.47l0 -4.41 301 0c40.85,0 78.15,6.04 112.04,17.96 33.89,12.08 60.81,30.37 80.94,55.03 20.11,24.82 30.18,56.17 30.18,94.05 0,26.78 -5.11,50.13 -15.48,69.89 -21.05,41.47 -55.4,69.39 -102.91,83.6 -27.39,8.66 -52,13.06 -73.35,13.06 40.08,12.41 72.12,33.64 96.1,63.85 23.83,30.04 41.94,64.17 54.32,102.05 12.38,38.04 21.82,75.11 28.17,111.52 6.03,18.78 17.17,35.11 33.58,48.82 16.24,13.72 34.66,20.57 55.24,20.57l0 4.24zm-298.83 -364.12c27.24,0 51.07,-7.51 71.5,-22.69 20.43,-15.19 36.21,-34.46 47.67,-58.13 11.3,-23.51 16.87,-47.84 16.87,-72.66 0,-24.17 -5.57,-48.17 -16.71,-71.68 -11.14,-23.68 -26.93,-43.11 -47.35,-58.46 -20.43,-15.35 -44.42,-22.86 -71.96,-22.86l-69.8 0c-15.01,0 -27.86,5.55 -38.54,16.65 -10.53,11.1 -15.79,24.66 -15.79,40.66l0 249.17 124.12 0z"/>
   <path id="_25" class="fil1 str0" d="M10008.67 9406.91l-271.59 0 0 -4.24c14.24,0 28.78,-2.29 43.8,-6.53 15.01,-4.24 26.77,-11.59 35.59,-21.72 6.04,-7.67 9.13,-17.31 9.13,-28.74 0,-4.74 -0.46,-9.8 -1.39,-14.86l0.46 0c-6.04,-40.5 -15.32,-81.15 -27.85,-122.14 -12.69,-40.98 -31.72,-75.76 -57.42,-104.34 -25.69,-28.57 -61.44,-44.41 -107.09,-47.68l-46.58 0 0 275.13c1.55,22.04 11.45,39.35 30.18,51.93 18.57,12.57 38.22,18.94 59.11,18.94l0 4.24 -267.11 0 0 -4.24c21.2,0 41.17,-6.53 60.04,-19.27 19.04,-12.74 28.94,-30.21 30.18,-52.57l0 -539.17c-3.25,-20.08 -13.93,-35.92 -32.19,-47.52 -18.11,-11.59 -37.14,-17.47 -57.1,-17.47l0 -4.41 301 0c40.85,0 78.15,6.04 112.04,17.96 33.89,12.08 60.82,30.37 80.94,55.03 20.11,24.82 30.18,56.17 30.18,94.05 0,26.78 -5.11,50.13 -15.48,69.89 -21.05,41.47 -55.4,69.39 -102.91,83.6 -27.39,8.66 -52,13.06 -73.35,13.06 40.08,12.41 72.12,33.64 96.1,63.85 23.83,30.04 41.94,64.17 54.32,102.05 12.38,38.04 21.82,75.11 28.17,111.52 6.03,18.78 17.17,35.11 33.58,48.82 16.24,13.72 34.67,20.57 55.24,20.57l0 4.24zm-298.83 -364.12c27.24,0 51.07,-7.51 71.5,-22.69 20.43,-15.19 36.21,-34.46 47.67,-58.13 11.3,-23.51 16.87,-47.84 16.87,-72.66 0,-24.17 -5.57,-48.17 -16.71,-71.68 -11.14,-23.68 -26.93,-43.11 -47.35,-58.46 -20.43,-15.35 -44.42,-22.86 -71.96,-22.86l-69.8 0c-15.01,0 -27.86,5.55 -38.54,16.65 -10.53,11.1 -15.79,24.66 -15.79,40.66l0 249.17 124.12 0z"/>
   <path id="_26" class="fil1 str0" d="M10359.35 9405.93l-267.11 0 0 -4.25c21.2,0 41.17,-6.37 60.04,-18.94 19.04,-12.57 29.09,-30.2 30.65,-52.9l0 -531.98c-1.55,-22.53 -11.61,-40.17 -30.65,-52.74 -18.88,-12.57 -38.84,-18.94 -60.04,-18.94l0 -4.24 267.11 0 0 4.24c-20.58,0 -40.08,6.37 -58.65,18.94 -18.72,12.57 -28.94,29.88 -30.64,51.93l0 533.78c1.7,22.04 11.92,39.35 30.64,51.92 18.57,12.57 38.07,18.94 58.65,18.94l0 4.25z"/>
   <path id="_27" class="fil1 str0" d="M11015.21 9431.72c-23.99,0 -46.43,-6.04 -67.63,-18.12 -17.18,-9.63 -34.51,-21.56 -51.69,-35.92 -40.24,18.78 -83.26,28.25 -129.22,28.25 -59.58,0 -113.74,-15.35 -162.8,-46.21 -48.9,-30.7 -87.91,-72.01 -117.15,-123.6 -29.09,-51.6 -43.8,-109.07 -43.8,-172.26 0,-62.7 14.7,-120.02 43.8,-171.61 29.24,-51.76 68.25,-92.91 117.15,-123.77 49.06,-30.7 103.22,-46.21 162.8,-46.21 59.89,0 114.21,15.51 163.27,46.21 48.9,30.86 88.06,72.01 117.15,123.77 29.25,51.6 43.8,108.91 43.8,171.61 0,55.19 -11.3,106.13 -33.74,152.83 -22.59,46.7 -53.24,85.89 -91.92,117.56 12.69,4.74 25.84,7.19 39.46,7.19 8.51,0 20.43,-1.63 35.59,-4.9 15.32,-3.1 35.44,-16 60.51,-38.7 1.55,-1.31 3.25,-1.96 5.11,-1.96 1.39,0.33 2.79,1.14 4.02,2.45 5.72,8.33 8.67,20.74 8.67,37.23 0,3.59 -0.46,11.92 -1.24,25.15 -0.78,13.23 -9.91,28.9 -27.39,47.19 -15.79,15.84 -40.7,23.84 -74.75,23.84zm-98.89 -120.5c26,-32.17 46.43,-69.89 61.44,-113.16 15.01,-43.27 22.44,-87.85 22.44,-134.22 0,-41.15 -6.04,-81.32 -18.11,-120.5 -12.07,-39.19 -28.79,-74.46 -50.14,-105.65 -21.36,-31.35 -46.12,-56.17 -74.28,-74.62 -28.32,-18.61 -58.65,-27.76 -91,-27.76 -32.04,0 -62.21,9.14 -90.38,27.76 -28.32,18.45 -53.08,43.27 -74.44,74.62 -21.2,31.19 -37.92,66.46 -50.14,105.65 -12.07,39.19 -18.11,79.35 -18.11,120.5 0,67.6 15.63,131.11 46.74,190.39 43.49,-26.13 82.95,-39.19 118.39,-39.19 33.43,0 64.69,7.02 93.63,21.07 28.78,14.04 56.18,30.2 82.18,48.33 14.24,9.63 28.17,18.45 41.78,26.78zm-149.65 80.82c36.83,0 71.03,-11.92 102.45,-35.92 -23.83,-20.74 -49.68,-40.33 -77.53,-58.94 -27.7,-18.78 -58.81,-32.17 -92.86,-40.5 -15.16,-3.76 -31.26,-5.71 -48.59,-5.71 -20.89,0 -43.18,2.78 -67.01,8.65 21.67,39.52 48.44,71.52 80.17,95.85 31.72,24.33 66.24,36.57 103.38,36.57z"/>
  </g>
 </g>
</svg>
