<?xml version="1.0" encoding="UTF-8"?>
<!DOCTYPE svg PUBLIC "-//W3C//DTD SVG 1.1//EN" "http://www.w3.org/Graphics/SVG/1.1/DTD/svg11.dtd">
<!-- Creator: CorelDRAW -->
<svg xmlns="http://www.w3.org/2000/svg" xml:space="preserve" width="6.76294in" height="3.88486in" version="1.1" style="shape-rendering:geometricPrecision; text-rendering:geometricPrecision; image-rendering:optimizeQuality; fill-rule:evenodd; clip-rule:evenodd"
viewBox="0 0 6173.66 3546.36"
 xmlns:xlink="http://www.w3.org/1999/xlink"
 xmlns:xodm="http://www.corel.com/coreldraw/odm/2003">
 <defs>
  <style type="text/css">
   <![CDATA[
    .str0 {stroke:white;stroke-width:2.74;stroke-miterlimit:2.61313}
    .fil1 {fill:none;fill-rule:nonzero}
    .fil0 {fill:white;fill-rule:nonzero}
   ]]>
  </style>
 </defs>
 <g id="Layer_x0020_1">
  <metadata id="CorelCorpID_0Corel-Layer"/>
  <path class="fil0" d="M3611.98 1966.42l-98.8 0 0 -1.7c8.81,0 17.15,-2.48 25.04,-7.36 7.89,-4.89 12.26,-11.73 12.97,-20.53l0 -215.18c-1.24,-8.41 -5.74,-14.92 -13.43,-19.55 -7.7,-4.63 -15.91,-6.97 -24.59,-6.97l0 -1.89 98.8 0c37.04,0.13 66.84,5.54 89.34,16.29 22.43,10.75 38.67,26.33 48.58,46.66 9.98,20.4 14.93,44.96 14.93,73.7 0,27.37 -5.02,51.29 -15.13,71.81 -10.05,20.46 -26.35,36.36 -48.78,47.63 -22.5,11.27 -52.17,16.94 -88.95,17.07zm-0.39 -5.34c41.8,-0.39 72.06,-14.21 90.78,-41.45 15.91,-23 23.86,-52.91 23.86,-89.73 0,-37.01 -7.69,-66.93 -23.15,-89.73 -18.85,-27.57 -49.3,-41.38 -91.49,-41.38 -6.46,0 -12.06,2.28 -16.7,6.84 -4.69,4.56 -6.98,10.17 -6.98,16.81l0 214.98c0,6.45 2.28,12.05 6.98,16.68 4.63,4.63 10.24,6.97 16.7,6.97z"/>
  <path id="_1" class="fil0" d="M4001.78 1966.42l-214.94 0 0 -1.7c8.41,0 16.5,-2.35 24.19,-6.91 7.69,-4.56 12.26,-10.95 13.63,-19.09l0 -217.65c-1.37,-8.02 -5.93,-14.34 -13.63,-18.97 -7.69,-4.63 -15.78,-6.97 -24.19,-6.97l0 -1.69 204.24 0 3.66 55.72 -1.76 0c0,-5.21 -1.57,-11.47 -4.83,-18.7 -3.26,-7.23 -8.28,-13.95 -15,-20.07 -6.79,-6.06 -15.45,-9.9 -26.02,-11.4l-65.15 0c-5.61,0 -10.37,1.96 -14.41,5.87 -3.98,3.97 -6,8.8 -6,14.53l0 107.65 68.21 0c6.13,-1.37 10.95,-5.99 14.48,-13.94 3.59,-7.89 5.41,-15.18 5.55,-21.89l1.76 0 0 77.48 -1.76 0c-0.13,-6.84 -1.96,-14.27 -5.55,-22.16 -3.52,-7.89 -8.35,-12.51 -14.48,-13.95l-68.21 0 0 104.66c0,6.58 2.29,12.25 6.98,16.88 4.63,4.63 10.3,6.97 16.89,6.97l66.85 0c10.63,-1.76 19.69,-6.65 27.32,-14.53 7.7,-7.89 13.56,-16.36 17.68,-25.35 4.17,-9.06 6.26,-16.23 6.26,-21.57l1.89 0 -3.65 66.8z"/>
  <path id="_2" class="fil0" d="M4239.72 1966.62l-214.94 0 0 -1.89c8.41,0 16.5,-2.35 24.19,-6.91 7.69,-4.56 12.32,-10.95 13.83,-19.09l0 -214.98c-0.72,-8.86 -5.09,-15.83 -12.98,-20.79 -7.89,-4.95 -16.3,-7.43 -25.24,-7.43l0 -1.96 112.56 0 0 1.96c-8.54,0 -16.69,2.41 -24.45,7.23 -7.76,4.82 -12.2,11.53 -13.18,20.07l0 214.39c0,6.58 2.28,12.25 6.98,16.88 4.63,4.63 10.24,6.97 16.89,6.97l67.04 0c10.56,-1.76 19.69,-6.58 27.32,-14.4 7.63,-7.82 13.5,-16.29 17.6,-25.29 4.05,-9.06 6.13,-16.22 6.26,-21.57l1.76 0 -3.66 66.79z"/>
  <path id="_3" class="fil1 str0" d="M3611.98 1966.42l-98.8 0 0 -1.7c8.81,0 17.15,-2.48 25.04,-7.36 7.89,-4.89 12.26,-11.73 12.97,-20.53l0 -215.18c-1.24,-8.41 -5.74,-14.92 -13.43,-19.55 -7.7,-4.63 -15.91,-6.97 -24.59,-6.97l0 -1.89 98.8 0c37.04,0.13 66.84,5.54 89.34,16.29 22.43,10.75 38.67,26.33 48.58,46.66 9.98,20.4 14.93,44.96 14.93,73.7 0,27.37 -5.02,51.29 -15.13,71.81 -10.05,20.46 -26.35,36.36 -48.78,47.63 -22.5,11.27 -52.17,16.94 -88.95,17.07zm-0.39 -5.34c41.8,-0.39 72.06,-14.21 90.78,-41.45 15.91,-23 23.86,-52.91 23.86,-89.73 0,-37.01 -7.69,-66.93 -23.15,-89.73 -18.85,-27.57 -49.3,-41.38 -91.49,-41.38 -6.46,0 -12.06,2.28 -16.7,6.84 -4.69,4.56 -6.98,10.17 -6.98,16.81l0 214.98c0,6.45 2.28,12.05 6.98,16.68 4.63,4.63 10.24,6.97 16.7,6.97z"/>
  <path id="_4" class="fil1 str0" d="M4001.78 1966.42l-214.94 0 0 -1.7c8.41,0 16.5,-2.35 24.19,-6.91 7.69,-4.56 12.26,-10.95 13.63,-19.09l0 -217.65c-1.37,-8.02 -5.93,-14.34 -13.63,-18.97 -7.69,-4.63 -15.78,-6.97 -24.19,-6.97l0 -1.69 204.24 0 3.66 55.72 -1.76 0c0,-5.21 -1.57,-11.47 -4.83,-18.7 -3.26,-7.23 -8.28,-13.95 -15,-20.07 -6.79,-6.06 -15.45,-9.9 -26.02,-11.4l-65.15 0c-5.61,0 -10.37,1.96 -14.41,5.87 -3.98,3.97 -6,8.8 -6,14.53l0 107.65 68.21 0c6.13,-1.37 10.95,-5.99 14.48,-13.94 3.59,-7.89 5.41,-15.18 5.55,-21.89l1.76 0 0 77.48 -1.76 0c-0.13,-6.84 -1.96,-14.27 -5.55,-22.16 -3.52,-7.89 -8.35,-12.51 -14.48,-13.95l-68.21 0 0 104.66c0,6.58 2.29,12.25 6.98,16.88 4.63,4.63 10.3,6.97 16.89,6.97l66.85 0c10.63,-1.76 19.69,-6.65 27.32,-14.53 7.7,-7.89 13.56,-16.36 17.68,-25.35 4.17,-9.06 6.26,-16.23 6.26,-21.57l1.89 0 -3.65 66.8z"/>
  <path id="_5" class="fil1 str0" d="M4239.72 1966.62l-214.94 0 0 -1.89c8.41,0 16.5,-2.35 24.19,-6.91 7.69,-4.56 12.32,-10.95 13.83,-19.09l0 -214.98c-0.72,-8.86 -5.09,-15.83 -12.98,-20.79 -7.89,-4.95 -16.3,-7.43 -25.24,-7.43l0 -1.96 112.56 0 0 1.96c-8.54,0 -16.69,2.41 -24.45,7.23 -7.76,4.82 -12.2,11.53 -13.18,20.07l0 214.39c0,6.58 2.28,12.25 6.98,16.88 4.63,4.63 10.24,6.97 16.89,6.97l67.04 0c10.56,-1.76 19.69,-6.58 27.32,-14.4 7.63,-7.82 13.5,-16.29 17.6,-25.29 4.05,-9.06 6.13,-16.22 6.26,-21.57l1.76 0 -3.66 66.79z"/>
  <path class="fil0" d="M2425.87 1417.84l-359.53 0 0 -5.3c17.53,0 36.89,-2.65 57.88,-7.74 21.19,-5.3 38.32,-13.45 51.36,-24.66 9.99,-8.36 15.08,-18.55 15.08,-30.98 0,-4.28 -0.61,-8.77 -1.83,-13.05l-109.86 -292.06 -293.9 0 -115.77 308.16c-0.82,3.87 -1.22,7.54 -1.22,10.8 0,11 5.71,20.59 17.32,28.33 11.62,7.74 27.11,13.25 46.88,16.3 19.77,3.26 36.07,4.89 49.32,4.89l0 5.3 -242.53 0 0 -5.3c19.97,0 40.35,-4.69 60.94,-14.06 20.79,-9.37 37.91,-25.27 51.36,-47.49 17.53,-46.67 39.95,-105.98 67.26,-178.34 27.11,-72.15 54.62,-145.11 82.34,-219.1 27.72,-73.78 51.16,-136.35 70.11,-187.51 19.16,-51.16 29.55,-79.28 31.18,-84.38 2.65,-11.21 4.08,-21.6 4.08,-31.18 0,-12.64 -3.67,-25.47 -11.01,-38.52 -7.34,-12.84 -19.36,-23.23 -35.87,-30.98 -16.51,-7.74 -32.4,-11.62 -47.49,-11.62l-2.44 0 0 -5.91 211.55 0 286.56 763.08c25.07,57.27 64.41,86.01 118.21,86.01l0 5.3zm-353.41 -391.12l-140.43 -373.79 -140.83 373.79 281.26 0z"/>
  <path id="_1_134" class="fil0" d="M3091.86 1418.45l-671.76 0 0 -5.91c26.29,0 51.56,-7.34 75.61,-21.6 24.05,-14.27 38.52,-34.24 43.21,-59.72l0 -672.38c-2.24,-27.72 -15.9,-49.52 -40.56,-65.01 -24.66,-15.49 -50.95,-23.23 -78.87,-23.23l0 -6.11 351.78 0 0 6.11c-26.7,0 -52.18,7.54 -76.43,22.62 -24.26,15.08 -38.11,36.08 -41.17,62.78l0 670.54c0,20.59 7.13,38.32 21.81,52.79 14.47,14.47 32,21.81 52.79,21.81l209.52 0c33.02,-5.51 61.55,-20.59 85.4,-45.04 23.85,-24.46 42.19,-50.96 55.03,-79.08 12.64,-28.33 19.16,-50.75 19.57,-67.46l5.5 0 -11.41 208.91z"/>
  <path id="_2_135" class="fil0" d="M3768.66 1417.84l-671.76 0 0 -5.3c26.29,0 51.56,-7.34 75.61,-21.6 24.05,-14.27 38.32,-34.24 42.6,-59.72l0 -680.74c-4.28,-25.07 -18.54,-44.84 -42.6,-59.31 -24.05,-14.47 -49.32,-21.81 -75.61,-21.81l0 -5.3 638.34 0 11.41 174.26 -5.51 0c0,-16.3 -4.89,-35.87 -15.08,-58.49 -10.19,-22.62 -25.88,-43.62 -46.88,-62.78 -21.2,-18.95 -48.31,-30.98 -81.32,-35.67l-203.61 0c-17.53,0 -32.41,6.11 -45.04,18.34 -12.43,12.43 -18.75,27.51 -18.75,45.45l0 336.7 213.19 0c19.16,-4.28 34.24,-18.75 45.24,-43.62 11.21,-24.66 16.92,-47.49 17.32,-68.48l5.51 0 0 242.33 -5.51 0c-0.41,-21.4 -6.11,-44.63 -17.32,-69.3 -11,-24.66 -26.09,-39.13 -45.24,-43.62l-213.19 0 0 327.32c0,20.59 7.13,38.32 21.81,52.79 14.47,14.47 32.2,21.81 52.79,21.81l208.91 0c33.22,-5.51 61.55,-20.79 85.4,-45.45 24.05,-24.66 42.39,-51.16 55.23,-79.28 13.05,-28.33 19.57,-50.75 19.57,-67.46l5.91 0 -11.41 208.91z"/>
  <path id="_3_136" class="fil0" d="M4570.81 1419.06l-357.69 0 0 -5.3c18.75,0 37.91,-2.85 57.68,-8.15 19.77,-5.3 35.26,-14.47 46.88,-27.11 7.95,-9.58 12.02,-21.6 12.02,-35.87 0,-5.91 -0.61,-12.23 -1.83,-18.55l0.61 0c-7.95,-50.55 -20.18,-101.29 -36.69,-152.45 -16.71,-51.16 -41.78,-94.57 -75.61,-130.23 -33.83,-35.67 -80.91,-55.44 -141.04,-59.51l-61.35 0 0 343.42c2.04,27.51 15.08,49.12 39.75,64.81 24.46,15.69 50.34,23.64 77.86,23.64l0 5.3 -351.78 0 0 -5.3c27.92,0 54.21,-8.15 79.08,-24.05 25.07,-15.9 38.11,-37.7 39.74,-65.63l0 -672.99c-4.28,-25.07 -18.34,-44.84 -42.39,-59.31 -23.85,-14.47 -48.92,-21.81 -75.21,-21.81l0 -5.5 396.41 0c53.81,0 102.93,7.54 147.56,22.42 44.64,15.08 80.1,37.91 106.6,68.68 26.49,30.98 39.74,70.11 39.74,117.4 0,33.42 -6.72,62.57 -20.38,87.23 -27.72,51.77 -72.96,86.62 -135.54,104.35 -36.08,10.8 -68.48,16.31 -96.61,16.31 52.78,15.49 94.97,41.98 126.56,79.69 31.39,37.5 55.24,80.09 71.54,127.38 16.3,47.49 28.74,93.76 37.09,139.2 7.95,23.44 22.62,43.82 44.23,60.94 21.4,17.12 45.65,25.68 72.76,25.68l0 5.3zm-393.56 -454.5c35.87,0 67.26,-9.37 94.16,-28.33 26.9,-18.95 47.7,-43.01 62.78,-72.56 14.88,-29.35 22.21,-59.72 22.21,-90.7 0,-30.16 -7.34,-60.12 -22.01,-89.48 -14.67,-29.55 -35.47,-53.81 -62.37,-72.96 -26.9,-19.16 -58.5,-28.53 -94.78,-28.53l-91.92 0c-19.77,0 -36.68,6.93 -50.75,20.79 -13.86,13.86 -20.79,30.78 -20.79,50.75l0 311.02 163.46 0z"/>
  <path id="_4_137" class="fil0" d="M4916.21 1417.84l-351.78 0 0 -5.3c27.92,0 54.21,-7.95 79.08,-23.64 25.07,-15.69 38.32,-37.7 40.36,-66.04l0 -664.02c-2.04,-28.13 -15.29,-50.14 -40.36,-65.83 -24.87,-15.69 -51.16,-23.64 -79.08,-23.64l0 -5.3 351.78 0 0 5.3c-27.11,0 -52.79,7.95 -77.24,23.64 -24.66,15.69 -38.11,37.3 -40.36,64.81l0 666.26c2.24,27.52 15.69,49.12 40.36,64.81 24.46,15.69 50.14,23.64 77.24,23.64l0 5.3z"/>
  <path id="_5_138" class="fil0" d="M5796.61 1417.84l-359.53 0 0 -5.3c17.53,0 36.89,-2.65 57.88,-7.74 21.19,-5.3 38.32,-13.45 51.36,-24.66 9.99,-8.36 15.08,-18.55 15.08,-30.98 0,-4.28 -0.61,-8.77 -1.83,-13.05l-109.86 -292.06 -293.9 0 -115.77 308.16c-0.82,3.87 -1.22,7.54 -1.22,10.8 0,11 5.71,20.59 17.32,28.33 11.62,7.74 27.11,13.25 46.88,16.3 19.77,3.26 36.07,4.89 49.32,4.89l0 5.3 -242.53 0 0 -5.3c19.97,0 40.35,-4.69 60.94,-14.06 20.79,-9.37 37.91,-25.27 51.36,-47.49 17.53,-46.67 39.95,-105.98 67.26,-178.34 27.11,-72.15 54.62,-145.11 82.34,-219.1 27.72,-73.78 51.16,-136.35 70.11,-187.51 19.16,-51.16 29.55,-79.28 31.18,-84.38 2.65,-11.21 4.08,-21.6 4.08,-31.18 0,-12.64 -3.67,-25.47 -11.01,-38.52 -7.34,-12.84 -19.36,-23.23 -35.87,-30.98 -16.51,-7.74 -32.4,-11.62 -47.49,-11.62l-2.44 0 0 -5.91 211.55 0 286.56 763.08c25.07,57.27 64.41,86.01 118.21,86.01l0 5.3zm-353.41 -391.12l-140.43 -373.79 -140.83 373.79 281.26 0z"/>
  <path id="_6" class="fil1 str0" d="M2425.87 1417.84l-359.53 0 0 -5.3c17.53,0 36.89,-2.65 57.88,-7.74 21.19,-5.3 38.32,-13.45 51.36,-24.66 9.99,-8.36 15.08,-18.55 15.08,-30.98 0,-4.28 -0.61,-8.77 -1.83,-13.05l-109.86 -292.06 -293.9 0 -115.77 308.16c-0.82,3.87 -1.22,7.54 -1.22,10.8 0,11 5.71,20.59 17.32,28.33 11.62,7.74 27.11,13.25 46.88,16.3 19.77,3.26 36.07,4.89 49.32,4.89l0 5.3 -242.53 0 0 -5.3c19.97,0 40.35,-4.69 60.94,-14.06 20.79,-9.37 37.91,-25.27 51.36,-47.49 17.53,-46.67 39.95,-105.98 67.26,-178.34 27.11,-72.15 54.62,-145.11 82.34,-219.1 27.72,-73.78 51.16,-136.35 70.11,-187.51 19.16,-51.16 29.55,-79.28 31.18,-84.38 2.65,-11.21 4.08,-21.6 4.08,-31.18 0,-12.64 -3.67,-25.47 -11.01,-38.52 -7.34,-12.84 -19.36,-23.23 -35.87,-30.98 -16.51,-7.74 -32.4,-11.62 -47.49,-11.62l-2.44 0 0 -5.91 211.55 0 286.56 763.08c25.07,57.27 64.41,86.01 118.21,86.01l0 5.3zm-353.41 -391.12l-140.43 -373.79 -140.83 373.79 281.26 0z"/>
  <path id="_7" class="fil1 str0" d="M3091.86 1418.45l-671.76 0 0 -5.91c26.29,0 51.56,-7.34 75.61,-21.6 24.05,-14.27 38.52,-34.24 43.21,-59.72l0 -672.38c-2.24,-27.72 -15.9,-49.52 -40.56,-65.01 -24.66,-15.49 -50.95,-23.23 -78.87,-23.23l0 -6.11 351.78 0 0 6.11c-26.7,0 -52.18,7.54 -76.43,22.62 -24.26,15.08 -38.11,36.08 -41.17,62.78l0 670.54c0,20.59 7.13,38.32 21.81,52.79 14.47,14.47 32,21.81 52.79,21.81l209.52 0c33.02,-5.51 61.55,-20.59 85.4,-45.04 23.85,-24.46 42.19,-50.96 55.03,-79.08 12.64,-28.33 19.16,-50.75 19.57,-67.46l5.5 0 -11.41 208.91z"/>
  <path id="_8" class="fil1 str0" d="M3768.66 1417.84l-671.76 0 0 -5.3c26.29,0 51.56,-7.34 75.61,-21.6 24.05,-14.27 38.32,-34.24 42.6,-59.72l0 -680.74c-4.28,-25.07 -18.54,-44.84 -42.6,-59.31 -24.05,-14.47 -49.32,-21.81 -75.61,-21.81l0 -5.3 638.34 0 11.41 174.26 -5.51 0c0,-16.3 -4.89,-35.87 -15.08,-58.49 -10.19,-22.62 -25.88,-43.62 -46.88,-62.78 -21.2,-18.95 -48.31,-30.98 -81.32,-35.67l-203.61 0c-17.53,0 -32.41,6.11 -45.04,18.34 -12.43,12.43 -18.75,27.51 -18.75,45.45l0 336.7 213.19 0c19.16,-4.28 34.24,-18.75 45.24,-43.62 11.21,-24.66 16.92,-47.49 17.32,-68.48l5.51 0 0 242.33 -5.51 0c-0.41,-21.4 -6.11,-44.63 -17.32,-69.3 -11,-24.66 -26.09,-39.13 -45.24,-43.62l-213.19 0 0 327.32c0,20.59 7.13,38.32 21.81,52.79 14.47,14.47 32.2,21.81 52.79,21.81l208.91 0c33.22,-5.51 61.55,-20.79 85.4,-45.45 24.05,-24.66 42.39,-51.16 55.23,-79.28 13.05,-28.33 19.57,-50.75 19.57,-67.46l5.91 0 -11.41 208.91z"/>
  <path id="_9" class="fil1 str0" d="M4570.81 1419.06l-357.69 0 0 -5.3c18.75,0 37.91,-2.85 57.68,-8.15 19.77,-5.3 35.26,-14.47 46.88,-27.11 7.95,-9.58 12.02,-21.6 12.02,-35.87 0,-5.91 -0.61,-12.23 -1.83,-18.55l0.61 0c-7.95,-50.55 -20.18,-101.29 -36.69,-152.45 -16.71,-51.16 -41.78,-94.57 -75.61,-130.23 -33.83,-35.67 -80.91,-55.44 -141.04,-59.51l-61.35 0 0 343.42c2.04,27.51 15.08,49.12 39.75,64.81 24.46,15.69 50.34,23.64 77.86,23.64l0 5.3 -351.78 0 0 -5.3c27.92,0 54.21,-8.15 79.08,-24.05 25.07,-15.9 38.11,-37.7 39.74,-65.63l0 -672.99c-4.28,-25.07 -18.34,-44.84 -42.39,-59.31 -23.85,-14.47 -48.92,-21.81 -75.21,-21.81l0 -5.5 396.41 0c53.81,0 102.93,7.54 147.56,22.42 44.64,15.08 80.1,37.91 106.6,68.68 26.49,30.98 39.74,70.11 39.74,117.4 0,33.42 -6.72,62.57 -20.38,87.23 -27.72,51.77 -72.96,86.62 -135.54,104.35 -36.08,10.8 -68.48,16.31 -96.61,16.31 52.78,15.49 94.97,41.98 126.56,79.69 31.39,37.5 55.24,80.09 71.54,127.38 16.3,47.49 28.74,93.76 37.09,139.2 7.95,23.44 22.62,43.82 44.23,60.94 21.4,17.12 45.65,25.68 72.76,25.68l0 5.3zm-393.56 -454.5c35.87,0 67.26,-9.37 94.16,-28.33 26.9,-18.95 47.7,-43.01 62.78,-72.56 14.88,-29.35 22.21,-59.72 22.21,-90.7 0,-30.16 -7.34,-60.12 -22.01,-89.48 -14.67,-29.55 -35.47,-53.81 -62.37,-72.96 -26.9,-19.16 -58.5,-28.53 -94.78,-28.53l-91.92 0c-19.77,0 -36.68,6.93 -50.75,20.79 -13.86,13.86 -20.79,30.78 -20.79,50.75l0 311.02 163.46 0z"/>
  <path id="_10" class="fil1 str0" d="M4916.21 1417.84l-351.78 0 0 -5.3c27.92,0 54.21,-7.95 79.08,-23.64 25.07,-15.69 38.32,-37.7 40.36,-66.04l0 -664.02c-2.04,-28.13 -15.29,-50.14 -40.36,-65.83 -24.87,-15.69 -51.16,-23.64 -79.08,-23.64l0 -5.3 351.78 0 0 5.3c-27.11,0 -52.79,7.95 -77.24,23.64 -24.66,15.69 -38.11,37.3 -40.36,64.81l0 666.26c2.24,27.52 15.69,49.12 40.36,64.81 24.46,15.69 50.14,23.64 77.24,23.64l0 5.3z"/>
  <path id="_11" class="fil1 str0" d="M5796.61 1417.84l-359.53 0 0 -5.3c17.53,0 36.89,-2.65 57.88,-7.74 21.19,-5.3 38.32,-13.45 51.36,-24.66 9.99,-8.36 15.08,-18.55 15.08,-30.98 0,-4.28 -0.61,-8.77 -1.83,-13.05l-109.86 -292.06 -293.9 0 -115.77 308.16c-0.82,3.87 -1.22,7.54 -1.22,10.8 0,11 5.71,20.59 17.32,28.33 11.62,7.74 27.11,13.25 46.88,16.3 19.77,3.26 36.07,4.89 49.32,4.89l0 5.3 -242.53 0 0 -5.3c19.97,0 40.35,-4.69 60.94,-14.06 20.79,-9.37 37.91,-25.27 51.36,-47.49 17.53,-46.67 39.95,-105.98 67.26,-178.34 27.11,-72.15 54.62,-145.11 82.34,-219.1 27.72,-73.78 51.16,-136.35 70.11,-187.51 19.16,-51.16 29.55,-79.28 31.18,-84.38 2.65,-11.21 4.08,-21.6 4.08,-31.18 0,-12.64 -3.67,-25.47 -11.01,-38.52 -7.34,-12.84 -19.36,-23.23 -35.87,-30.98 -16.51,-7.74 -32.4,-11.62 -47.49,-11.62l-2.44 0 0 -5.91 211.55 0 286.56 763.08c25.07,57.27 64.41,86.01 118.21,86.01l0 5.3zm-353.41 -391.12l-140.43 -373.79 -140.83 373.79 281.26 0z"/>
  <path class="fil0" d="M2777.43 3012.42c-62.37,0 -119.43,-9.58 -170.59,-28.94 -51.36,-19.36 -92.33,-48.1 -122.9,-86.62 -30.37,-38.32 -45.65,-85.6 -45.65,-141.85l0 -514.02c-5.5,-24.25 -20.18,-43.21 -44.02,-56.66 -24.05,-13.66 -48.91,-20.38 -74.8,-20.38l0 -5.91 351.78 0 0 5.91c-25.48,0 -50.14,6.72 -73.99,20.38 -24.05,13.45 -38.72,32.41 -44.23,56.66l0 514.02c0,40.76 9.58,79.28 28.53,115.97 19.16,36.48 45.65,66.45 79.29,89.88 33.63,23.23 72.55,34.85 116.58,34.85 50.14,0 95.99,-10.8 137.37,-32.61 41.37,-21.6 74.39,-50.75 98.85,-87.03 24.46,-36.48 36.69,-76.84 36.69,-121.07l0 -528.89c-4.28,-19.16 -18.95,-34.24 -43.62,-45.45 -24.66,-11.21 -47.69,-16.71 -69.09,-16.71l0 -5.91 242.33 0 0 5.91c-21,0 -44.03,5.5 -68.69,16.71 -24.66,11.21 -39.13,26.29 -43.62,45.45l0 528.89c0,47.49 -13.04,90.7 -39.13,129.63 -26.09,39.13 -60.94,70.11 -104.96,93.14 -44.03,23.03 -92.73,34.65 -146.13,34.65z"/>
  <path id="_1_139" class="fil0" d="M5745.3 3012.42c-78.47,0 -150.01,-19.16 -214.62,-57.68 -64.61,-38.32 -116.17,-89.88 -154.29,-154.29 -38.32,-64.41 -57.47,-136.15 -57.47,-215.02 0,-78.27 19.16,-149.8 57.47,-214.21 38.11,-64.61 89.68,-115.97 154.29,-154.49 64.61,-38.32 136.15,-57.68 214.62,-57.68 78.87,0 150.41,19.36 215.02,57.68 64.41,38.52 115.97,89.88 154.29,154.49 38.52,64.4 57.68,135.94 57.68,214.21 0,78.87 -19.16,150.62 -57.68,215.02 -38.32,64.4 -89.88,115.97 -154.29,154.29 -64.61,38.52 -136.15,57.68 -215.02,57.68zm0 -17.32c42.6,0 82.54,-11.62 119.84,-34.65 37.09,-23.03 69.7,-54.01 97.83,-92.73 28.13,-38.93 50.14,-82.75 66.04,-131.46 15.9,-48.71 23.85,-99.05 23.85,-150.82 0,-51.36 -7.95,-101.5 -23.85,-150.41 -15.9,-48.91 -37.91,-92.94 -66.04,-131.87 -28.13,-39.13 -60.74,-70.11 -97.83,-93.14 -37.3,-23.23 -77.24,-34.65 -119.84,-34.65 -42.19,0 -81.94,11.41 -119.03,34.65 -37.3,23.03 -69.91,54.01 -98.03,93.14 -27.93,38.93 -50.14,82.95 -66.24,131.87 -16.1,48.91 -24.26,99.05 -24.26,150.41 0,51.77 8.15,102.11 24.26,150.82 16.1,48.71 38.32,92.53 66.24,131.46 28.13,38.72 60.73,69.7 98.03,92.73 37.09,23.03 76.84,34.65 119.03,34.65z"/>
  <path id="_2_140" class="fil0" d="M3938.08 3012.42l-359.53 0 0 -5.3c17.53,0 36.89,-2.65 57.88,-7.74 21.19,-5.3 38.32,-13.45 51.36,-24.66 9.99,-8.36 15.08,-18.55 15.08,-30.98 0,-4.28 -0.61,-8.77 -1.83,-13.05l-109.86 -292.06 -293.9 0 -115.77 308.16c-0.82,3.87 -1.22,7.54 -1.22,10.8 0,11 5.71,20.59 17.32,28.33 11.62,7.74 27.11,13.25 46.88,16.3 19.77,3.26 36.07,4.89 49.32,4.89l0 5.3 -242.53 0 0 -5.3c19.97,0 40.35,-4.69 60.94,-14.06 20.79,-9.37 37.91,-25.27 51.36,-47.49 17.53,-46.67 39.95,-105.98 67.26,-178.34 27.11,-72.15 54.62,-145.11 82.34,-219.1 27.72,-73.78 51.16,-136.35 70.11,-187.51 19.16,-51.16 29.55,-79.28 31.18,-84.38 2.65,-11.21 4.08,-21.6 4.08,-31.18 0,-12.64 -3.67,-25.47 -11.01,-38.52 -7.34,-12.84 -19.36,-23.23 -35.87,-30.98 -16.51,-7.74 -32.4,-11.62 -47.49,-11.62l-2.44 0 0 -5.91 211.55 0 286.56 763.08c25.07,57.27 64.41,86.01 118.21,86.01l0 5.3zm-353.41 -391.12l-140.43 -373.79 -140.83 373.79 281.26 0z"/>
  <path id="_3_141" class="fil0" d="M4338.3 3012.42l-351.58 0 0 -5.3c27.72,0 54.21,-7.95 79.08,-23.64 24.86,-15.69 38.11,-37.7 39.74,-66.04l0 -742.08 -187.51 0c-33.02,5.5 -61.55,20.58 -85.4,45.04 -23.85,24.46 -42.19,50.75 -55.03,79.08 -12.64,28.33 -19.16,50.75 -19.57,67.46l-5.5 0 11.41 -208.91 801.39 0 11.82 208.91 -5.91 0c0,-16.71 -6.52,-39.13 -19.36,-67.46 -13.05,-28.33 -31.39,-54.62 -55.03,-79.08 -23.64,-24.46 -52.18,-39.54 -85.6,-45.04l-190.57 0 0 743.3c2.04,27.52 15.29,49.12 39.74,64.81 24.46,15.69 50.55,23.64 77.86,23.64l0 5.3z"/>
  <path id="_4_142" class="fil0" d="M5361.99 3013.65l-357.69 0 0 -5.3c18.75,0 37.91,-2.85 57.68,-8.15 19.77,-5.3 35.26,-14.47 46.88,-27.11 7.95,-9.58 12.02,-21.6 12.02,-35.87 0,-5.91 -0.61,-12.23 -1.83,-18.55l0.61 0c-7.95,-50.55 -20.18,-101.29 -36.69,-152.45 -16.71,-51.16 -41.78,-94.57 -75.61,-130.23 -33.83,-35.67 -80.91,-55.44 -141.04,-59.51l-61.35 0 0 343.42c2.04,27.51 15.08,49.12 39.75,64.81 24.46,15.69 50.34,23.64 77.86,23.64l0 5.3 -351.78 0 0 -5.3c27.92,0 54.21,-8.15 79.08,-24.05 25.07,-15.9 38.11,-37.7 39.74,-65.63l0 -672.99c-4.28,-25.07 -18.34,-44.84 -42.39,-59.31 -23.85,-14.47 -48.92,-21.81 -75.21,-21.81l0 -5.5 396.41 0c53.81,0 102.93,7.54 147.56,22.42 44.64,15.08 80.1,37.91 106.6,68.68 26.49,30.98 39.74,70.11 39.74,117.4 0,33.42 -6.72,62.57 -20.38,87.23 -27.72,51.77 -72.96,86.62 -135.54,104.35 -36.08,10.8 -68.48,16.31 -96.61,16.31 52.78,15.49 94.97,41.98 126.56,79.69 31.39,37.5 55.24,80.09 71.54,127.38 16.3,47.49 28.74,93.76 37.09,139.2 7.95,23.44 22.62,43.82 44.23,60.94 21.4,17.12 45.65,25.68 72.76,25.68l0 5.3zm-393.56 -454.5c35.87,0 67.26,-9.37 94.16,-28.33 26.9,-18.95 47.7,-43.01 62.78,-72.56 14.88,-29.35 22.21,-59.72 22.21,-90.7 0,-30.16 -7.34,-60.12 -22.01,-89.48 -14.67,-29.55 -35.47,-53.81 -62.37,-72.96 -26.9,-19.16 -58.5,-28.53 -94.78,-28.53l-91.92 0c-19.77,0 -36.68,6.93 -50.75,20.79 -13.86,13.86 -20.79,30.78 -20.79,50.75l0 311.02 163.46 0z"/>
  <path id="_5_143" class="fil1 str0" d="M2777.43 3012.42c-62.37,0 -119.43,-9.58 -170.59,-28.94 -51.36,-19.36 -92.33,-48.1 -122.9,-86.62 -30.37,-38.32 -45.65,-85.6 -45.65,-141.85l0 -514.02c-5.5,-24.25 -20.18,-43.21 -44.02,-56.66 -24.05,-13.66 -48.91,-20.38 -74.8,-20.38l0 -5.91 351.78 0 0 5.91c-25.48,0 -50.14,6.72 -73.99,20.38 -24.05,13.45 -38.72,32.41 -44.23,56.66l0 514.02c0,40.76 9.58,79.28 28.53,115.97 19.16,36.48 45.65,66.45 79.29,89.88 33.63,23.23 72.55,34.85 116.58,34.85 50.14,0 95.99,-10.8 137.37,-32.61 41.37,-21.6 74.39,-50.75 98.85,-87.03 24.46,-36.48 36.69,-76.84 36.69,-121.07l0 -528.89c-4.28,-19.16 -18.95,-34.24 -43.62,-45.45 -24.66,-11.21 -47.69,-16.71 -69.09,-16.71l0 -5.91 242.33 0 0 5.91c-21,0 -44.03,5.5 -68.69,16.71 -24.66,11.21 -39.13,26.29 -43.62,45.45l0 528.89c0,47.49 -13.04,90.7 -39.13,129.63 -26.09,39.13 -60.94,70.11 -104.96,93.14 -44.03,23.03 -92.73,34.65 -146.13,34.65z"/>
  <path id="_6_144" class="fil1 str0" d="M5745.3 3012.42c-78.47,0 -150.01,-19.16 -214.62,-57.68 -64.61,-38.32 -116.17,-89.88 -154.29,-154.29 -38.32,-64.41 -57.47,-136.15 -57.47,-215.02 0,-78.27 19.16,-149.8 57.47,-214.21 38.11,-64.61 89.68,-115.97 154.29,-154.49 64.61,-38.32 136.15,-57.68 214.62,-57.68 78.87,0 150.41,19.36 215.02,57.68 64.41,38.52 115.97,89.88 154.29,154.49 38.52,64.4 57.68,135.94 57.68,214.21 0,78.87 -19.16,150.62 -57.68,215.02 -38.32,64.4 -89.88,115.97 -154.29,154.29 -64.61,38.52 -136.15,57.68 -215.02,57.68zm0 -17.32c42.6,0 82.54,-11.62 119.84,-34.65 37.09,-23.03 69.7,-54.01 97.83,-92.73 28.13,-38.93 50.14,-82.75 66.04,-131.46 15.9,-48.71 23.85,-99.05 23.85,-150.82 0,-51.36 -7.95,-101.5 -23.85,-150.41 -15.9,-48.91 -37.91,-92.94 -66.04,-131.87 -28.13,-39.13 -60.74,-70.11 -97.83,-93.14 -37.3,-23.23 -77.24,-34.65 -119.84,-34.65 -42.19,0 -81.94,11.41 -119.03,34.65 -37.3,23.03 -69.91,54.01 -98.03,93.14 -27.93,38.93 -50.14,82.95 -66.24,131.87 -16.1,48.91 -24.26,99.05 -24.26,150.41 0,51.77 8.15,102.11 24.26,150.82 16.1,48.71 38.32,92.53 66.24,131.46 28.13,38.72 60.73,69.7 98.03,92.73 37.09,23.03 76.84,34.65 119.03,34.65z"/>
  <path id="_7_145" class="fil1 str0" d="M3938.08 3012.42l-359.53 0 0 -5.3c17.53,0 36.89,-2.65 57.88,-7.74 21.19,-5.3 38.32,-13.45 51.36,-24.66 9.99,-8.36 15.08,-18.55 15.08,-30.98 0,-4.28 -0.61,-8.77 -1.83,-13.05l-109.86 -292.06 -293.9 0 -115.77 308.16c-0.82,3.87 -1.22,7.54 -1.22,10.8 0,11 5.71,20.59 17.32,28.33 11.62,7.74 27.11,13.25 46.88,16.3 19.77,3.26 36.07,4.89 49.32,4.89l0 5.3 -242.53 0 0 -5.3c19.97,0 40.35,-4.69 60.94,-14.06 20.79,-9.37 37.91,-25.27 51.36,-47.49 17.53,-46.67 39.95,-105.98 67.26,-178.34 27.11,-72.15 54.62,-145.11 82.34,-219.1 27.72,-73.78 51.16,-136.35 70.11,-187.51 19.16,-51.16 29.55,-79.28 31.18,-84.38 2.65,-11.21 4.08,-21.6 4.08,-31.18 0,-12.64 -3.67,-25.47 -11.01,-38.52 -7.34,-12.84 -19.36,-23.23 -35.87,-30.98 -16.51,-7.74 -32.4,-11.62 -47.49,-11.62l-2.44 0 0 -5.91 211.55 0 286.56 763.08c25.07,57.27 64.41,86.01 118.21,86.01l0 5.3zm-353.41 -391.12l-140.43 -373.79 -140.83 373.79 281.26 0z"/>
  <path id="_8_146" class="fil1 str0" d="M4338.3 3012.42l-351.58 0 0 -5.3c27.72,0 54.21,-7.95 79.08,-23.64 24.86,-15.69 38.11,-37.7 39.74,-66.04l0 -742.08 -187.51 0c-33.02,5.5 -61.55,20.58 -85.4,45.04 -23.85,24.46 -42.19,50.75 -55.03,79.08 -12.64,28.33 -19.16,50.75 -19.57,67.46l-5.5 0 11.41 -208.91 801.39 0 11.82 208.91 -5.91 0c0,-16.71 -6.52,-39.13 -19.36,-67.46 -13.05,-28.33 -31.39,-54.62 -55.03,-79.08 -23.64,-24.46 -52.18,-39.54 -85.6,-45.04l-190.57 0 0 743.3c2.04,27.52 15.29,49.12 39.74,64.81 24.46,15.69 50.55,23.64 77.86,23.64l0 5.3z"/>
  <path id="_9_147" class="fil1 str0" d="M5361.99 3013.65l-357.69 0 0 -5.3c18.75,0 37.91,-2.85 57.68,-8.15 19.77,-5.3 35.26,-14.47 46.88,-27.11 7.95,-9.58 12.02,-21.6 12.02,-35.87 0,-5.91 -0.61,-12.23 -1.83,-18.55l0.61 0c-7.95,-50.55 -20.18,-101.29 -36.69,-152.45 -16.71,-51.16 -41.78,-94.57 -75.61,-130.23 -33.83,-35.67 -80.91,-55.44 -141.04,-59.51l-61.35 0 0 343.42c2.04,27.51 15.08,49.12 39.75,64.81 24.46,15.69 50.34,23.64 77.86,23.64l0 5.3 -351.78 0 0 -5.3c27.92,0 54.21,-8.15 79.08,-24.05 25.07,-15.9 38.11,-37.7 39.74,-65.63l0 -672.99c-4.28,-25.07 -18.34,-44.84 -42.39,-59.31 -23.85,-14.47 -48.92,-21.81 -75.21,-21.81l0 -5.5 396.41 0c53.81,0 102.93,7.54 147.56,22.42 44.64,15.08 80.1,37.91 106.6,68.68 26.49,30.98 39.74,70.11 39.74,117.4 0,33.42 -6.72,62.57 -20.38,87.23 -27.72,51.77 -72.96,86.62 -135.54,104.35 -36.08,10.8 -68.48,16.31 -96.61,16.31 52.78,15.49 94.97,41.98 126.56,79.69 31.39,37.5 55.24,80.09 71.54,127.38 16.3,47.49 28.74,93.76 37.09,139.2 7.95,23.44 22.62,43.82 44.23,60.94 21.4,17.12 45.65,25.68 72.76,25.68l0 5.3zm-393.56 -454.5c35.87,0 67.26,-9.37 94.16,-28.33 26.9,-18.95 47.7,-43.01 62.78,-72.56 14.88,-29.35 22.21,-59.72 22.21,-90.7 0,-30.16 -7.34,-60.12 -22.01,-89.48 -14.67,-29.55 -35.47,-53.81 -62.37,-72.96 -26.9,-19.16 -58.5,-28.53 -94.78,-28.53l-91.92 0c-19.77,0 -36.68,6.93 -50.75,20.79 -13.86,13.86 -20.79,30.78 -20.79,50.75l0 311.02 163.46 0z"/>
  <path class="fil0" d="M1811.84 2592.93c-62.61,0 -121.38,-23.43 -177.17,-69.85 -76.66,-68.15 -131.6,-152.9 -164.82,-253.41 -33.22,-100.51 -53.66,-208.26 -61.33,-323.25 -103.92,-14.06 -212.52,-21.29 -325.38,-21.29 -39.18,0 -107.33,2.13 -204.86,6.39 -97.1,4.26 -216.78,25.98 -358.18,64.74 -86.46,22.57 -172.91,59.2 -259.79,109.45 -86.88,50.25 -152.47,118.82 -196.76,205.28 -2.56,8.95 -3.83,17.46 -3.83,24.7 0,28.54 23.43,54.52 69.85,78.79 50.26,23.85 74.96,52.81 74.96,86.03l-1.28 16.18c-8.94,31.52 -31.09,51.11 -66.01,58.77 -7.67,1.7 -14.48,2.56 -21.29,2.56 -26.4,0 -51.96,-13.2 -75.81,-38.75 -25.98,-33.22 -38.76,-72.4 -38.76,-117.55 0,-40.46 8.95,-80.49 27.26,-119.68 69,-154.6 229.56,-268.31 481.69,-340.71 170.36,-47.27 363.71,-71.12 580.07,-71.12 107.33,0 212.52,6.81 315.59,20.01 -1.28,-24.7 -3.41,-66.01 -5.54,-123.51 -2.13,-57.49 -3.83,-114.99 -5.53,-173.34 -1.7,-58.35 -2.56,-101.79 -2.56,-131.18l-63.46 86.03c-48.13,59.2 -100.51,104.77 -155.88,136.28 -55.79,31.52 -111.59,53.24 -166.53,64.74 -55.36,11.92 -106.47,17.46 -152.89,17.46 -155.88,0 -296.85,-40.03 -423.76,-120.53 -126.92,-80.07 -227.85,-187.82 -302.38,-322.83 -74.96,-135.43 -112.44,-285.35 -112.44,-449.74 0,-163.97 37.05,-313.46 111.59,-448.89 74.53,-135.01 175.9,-242.76 304.51,-322.83 128.62,-80.49 273,-120.53 433.56,-120.53 105.62,0 212.09,27.68 319.42,83.48 41.74,20.01 79.22,29.81 112.44,29.81 18.31,0 43.02,-5.11 74.1,-16.18 31.09,-10.65 46.85,-43.02 46.85,-97.11l11.08 0 0 466.78 -11.08 0c-0.85,-52.81 -17.46,-109.03 -49.83,-169.93 -51.53,-77.51 -122.66,-138.42 -212.95,-183.56 -90.29,-44.72 -186.96,-67.29 -290.03,-67.29 -74.1,0 -146.51,20.87 -217.2,61.75 -70.7,41.31 -134.16,99.24 -190.38,174.19 -55.79,74.96 -100.51,163.97 -133.73,267.46 -33.65,103.92 -50.25,218.06 -50.25,342.84 0,165.25 25.98,311.33 77.51,436.97 51.53,126.07 120.95,224.87 208.26,296.42 92.42,75.81 196.34,113.71 312.18,113.71 80.49,0 153.75,-17.46 219.33,-51.96 66.01,-34.5 117.12,-95.4 153.75,-182.71l0 -309.62c-3.41,-59.63 -31.09,-106.05 -83.05,-138.84 -51.96,-32.79 -107.33,-49.4 -165.25,-49.4l0 -12.35 734.67 0 0 12.35c-57.92,0 -112.86,16.61 -163.97,49.83 -51.11,33.22 -78.36,79.64 -81.77,138.42l0 725.3c196.34,31.52 342.85,83.9 439.1,157.15 69,59.63 111.59,116.7 127.34,170.78 10.22,34.07 14.91,63.88 14.91,89.86 0,14.06 -1.7,27.26 -4.68,38.76 -20.02,96.25 -75.81,163.12 -167.38,199.74 -27.26,9.8 -54.94,14.91 -82.2,14.91zm-2.56 -36.2c23.85,0 48.13,-4.26 72.4,-12.35 78.79,-31.94 127.34,-89.44 144.8,-172.49 1.28,-12.35 2.13,-24.28 2.13,-36.2 0,-81.35 -42.16,-157.58 -126.92,-228.28 -86.46,-66.44 -225.3,-116.27 -415.67,-149.49 2.56,110.31 15.76,213.37 40.04,307.92 23.85,94.97 68.14,171.64 132.02,229.56 49.41,40.88 99.66,61.33 151.19,61.33z"/>
  <path id="_1_148" class="fil1 str0" d="M1811.84 2592.93c-62.61,0 -121.38,-23.43 -177.17,-69.85 -76.66,-68.15 -131.6,-152.9 -164.82,-253.41 -33.22,-100.51 -53.66,-208.26 -61.33,-323.25 -103.92,-14.06 -212.52,-21.29 -325.38,-21.29 -39.18,0 -107.33,2.13 -204.86,6.39 -97.1,4.26 -216.78,25.98 -358.18,64.74 -86.46,22.57 -172.91,59.2 -259.79,109.45 -86.88,50.25 -152.47,118.82 -196.76,205.28 -2.56,8.95 -3.83,17.46 -3.83,24.7 0,28.54 23.43,54.52 69.85,78.79 50.26,23.85 74.96,52.81 74.96,86.03l-1.28 16.18c-8.94,31.52 -31.09,51.11 -66.01,58.77 -7.67,1.7 -14.48,2.56 -21.29,2.56 -26.4,0 -51.96,-13.2 -75.81,-38.75 -25.98,-33.22 -38.76,-72.4 -38.76,-117.55 0,-40.46 8.95,-80.49 27.26,-119.68 69,-154.6 229.56,-268.31 481.69,-340.71 170.36,-47.27 363.71,-71.12 580.07,-71.12 107.33,0 212.52,6.81 315.59,20.01 -1.28,-24.7 -3.41,-66.01 -5.54,-123.51 -2.13,-57.49 -3.83,-114.99 -5.53,-173.34 -1.7,-58.35 -2.56,-101.79 -2.56,-131.18l-63.46 86.03c-48.13,59.2 -100.51,104.77 -155.88,136.28 -55.79,31.52 -111.59,53.24 -166.53,64.74 -55.36,11.92 -106.47,17.46 -152.89,17.46 -155.88,0 -296.85,-40.03 -423.76,-120.53 -126.92,-80.07 -227.85,-187.82 -302.38,-322.83 -74.96,-135.43 -112.44,-285.35 -112.44,-449.74 0,-163.97 37.05,-313.46 111.59,-448.89 74.53,-135.01 175.9,-242.76 304.51,-322.83 128.62,-80.49 273,-120.53 433.56,-120.53 105.62,0 212.09,27.68 319.42,83.48 41.74,20.01 79.22,29.81 112.44,29.81 18.31,0 43.02,-5.11 74.1,-16.18 31.09,-10.65 46.85,-43.02 46.85,-97.11l11.08 0 0 466.78 -11.08 0c-0.85,-52.81 -17.46,-109.03 -49.83,-169.93 -51.53,-77.51 -122.66,-138.42 -212.95,-183.56 -90.29,-44.72 -186.96,-67.29 -290.03,-67.29 -74.1,0 -146.51,20.87 -217.2,61.75 -70.7,41.31 -134.16,99.24 -190.38,174.19 -55.79,74.96 -100.51,163.97 -133.73,267.46 -33.65,103.92 -50.25,218.06 -50.25,342.84 0,165.25 25.98,311.33 77.51,436.97 51.53,126.07 120.95,224.87 208.26,296.42 92.42,75.81 196.34,113.71 312.18,113.71 80.49,0 153.75,-17.46 219.33,-51.96 66.01,-34.5 117.12,-95.4 153.75,-182.71l0 -309.62c-3.41,-59.63 -31.09,-106.05 -83.05,-138.84 -51.96,-32.79 -107.33,-49.4 -165.25,-49.4l0 -12.35 734.67 0 0 12.35c-57.92,0 -112.86,16.61 -163.97,49.83 -51.11,33.22 -78.36,79.64 -81.77,138.42l0 725.3c196.34,31.52 342.85,83.9 439.1,157.15 69,59.63 111.59,116.7 127.34,170.78 10.22,34.07 14.91,63.88 14.91,89.86 0,14.06 -1.7,27.26 -4.68,38.76 -20.02,96.25 -75.81,163.12 -167.38,199.74 -27.26,9.8 -54.94,14.91 -82.2,14.91zm-2.56 -36.2c23.85,0 48.13,-4.26 72.4,-12.35 78.79,-31.94 127.34,-89.44 144.8,-172.49 1.28,-12.35 2.13,-24.28 2.13,-36.2 0,-81.35 -42.16,-157.58 -126.92,-228.28 -86.46,-66.44 -225.3,-116.27 -415.67,-149.49 2.56,110.31 15.76,213.37 40.04,307.92 23.85,94.97 68.14,171.64 132.02,229.56 49.41,40.88 99.66,61.33 151.19,61.33z"/>
  <path class="fil0" d="M2747.18 3544.99c-168.37,0 -321.52,-44.09 -458.98,-132.74 -137.01,-88.18 -246.33,-206.85 -327.52,-355.54 -81.19,-149.16 -121.78,-313.8 -121.78,-494.38 0,-181.06 40.59,-346.16 121.78,-495.32 81.19,-148.69 190.98,-267.36 329.82,-356.01 138.85,-88.18 295.23,-132.27 470.06,-132.27 113.48,0 228.8,30.49 345.97,91.93 45.2,22.05 86.26,32.83 123.16,32.83 18.92,0 45.21,-5.63 78.42,-16.89 33.22,-11.73 49.82,-47.37 49.82,-107.88l13.84 0 0 513.61 -13.84 0c-0.92,-57.69 -18.91,-119.14 -53.97,-185.28 -55.82,-86.31 -132.39,-153.85 -229.72,-203.57 -97.34,-49.25 -201.59,-74.11 -313.68,-74.11 -80.72,0 -159.61,22.51 -235.72,68.01 -76.11,45.5 -144.38,109.29 -205.28,191.84 -60.89,82.55 -109.33,180.59 -146.23,294.56 -36.44,113.98 -54.43,240.16 -54.43,378.53 0,181.52 28.14,342.41 84.42,483.12 56.27,140.71 131.93,250.47 226.49,329.74 94.56,79.27 200.2,119.14 317.36,119.14 95.49,0 183.6,-22.98 264.32,-68.95 80.73,-45.97 150.85,-105.07 210.81,-178.71 59.97,-73.17 107.02,-152.91 141.15,-238.75l41.98 0c-34.14,104.13 -83.49,196.53 -148.07,277.21 -64.58,80.68 -140.7,144 -228.34,190.44 -88.11,46.43 -181.75,69.42 -281.85,69.42z"/>
  <path id="_1_149" class="fil1 str0" d="M2747.18 3544.99c-168.37,0 -321.52,-44.09 -458.98,-132.74 -137.01,-88.18 -246.33,-206.85 -327.52,-355.54 -81.19,-149.16 -121.78,-313.8 -121.78,-494.38 0,-181.06 40.59,-346.16 121.78,-495.32 81.19,-148.69 190.98,-267.36 329.82,-356.01 138.85,-88.18 295.23,-132.27 470.06,-132.27 113.48,0 228.8,30.49 345.97,91.93 45.2,22.05 86.26,32.83 123.16,32.83 18.92,0 45.21,-5.63 78.42,-16.89 33.22,-11.73 49.82,-47.37 49.82,-107.88l13.84 0 0 513.61 -13.84 0c-0.92,-57.69 -18.91,-119.14 -53.97,-185.28 -55.82,-86.31 -132.39,-153.85 -229.72,-203.57 -97.34,-49.25 -201.59,-74.11 -313.68,-74.11 -80.72,0 -159.61,22.51 -235.72,68.01 -76.11,45.5 -144.38,109.29 -205.28,191.84 -60.89,82.55 -109.33,180.59 -146.23,294.56 -36.44,113.98 -54.43,240.16 -54.43,378.53 0,181.52 28.14,342.41 84.42,483.12 56.27,140.71 131.93,250.47 226.49,329.74 94.56,79.27 200.2,119.14 317.36,119.14 95.49,0 183.6,-22.98 264.32,-68.95 80.73,-45.97 150.85,-105.07 210.81,-178.71 59.97,-73.17 107.02,-152.91 141.15,-238.75l41.98 0c-34.14,104.13 -83.49,196.53 -148.07,277.21 -64.58,80.68 -140.7,144 -228.34,190.44 -88.11,46.43 -181.75,69.42 -281.85,69.42z"/>
 </g>
</svg>
