<?xml version="1.0" encoding="UTF-8"?>
<!DOCTYPE svg PUBLIC "-//W3C//DTD SVG 1.1//EN" "http://www.w3.org/Graphics/SVG/1.1/DTD/svg11.dtd">
<!-- Creator: CorelDRAW -->
<svg xmlns="http://www.w3.org/2000/svg" xml:space="preserve" width="5.47309in" height="5.31414in" version="1.1" style="shape-rendering:geometricPrecision; text-rendering:geometricPrecision; image-rendering:optimizeQuality; fill-rule:evenodd; clip-rule:evenodd"
viewBox="0 0 5473.09 5314.14"
 xmlns:xlink="http://www.w3.org/1999/xlink"
 xmlns:xodm="http://www.corel.com/coreldraw/odm/2003">
 <defs>
  <style type="text/css">
   <![CDATA[
    .str0 {stroke:#373435;stroke-width:3;stroke-miterlimit:2.61313}
    .fil1 {fill:none;fill-rule:nonzero}
    .fil0 {fill:#373435;fill-rule:nonzero}
   ]]>
  </style>
 </defs>
 <g id="Layer_x0020_1">
  <metadata id="CorelCorpID_0Corel-Layer"/>
  <path class="fil0" d="M62.43 4873.8l0 -3.36c12.64,-0.23 26.2,-3.83 40.58,-10.55 14.38,-6.84 22.26,-16 23.65,-27.48l-0.35 -385.97c0,-13.1 -3.71,-23.88 -11.02,-32.23 -7.42,-8.35 -16.12,-14.38 -26.2,-17.97 -10.09,-3.59 -18.78,-5.45 -26.32,-5.45l-1.39 0 0 -3.36 132.87 0 145.74 382.14 145.74 -382.14 133.1 0 0 3.36c-10.67,0 -21.1,2.09 -31.42,6.26 -10.32,4.17 -18.9,10.2 -25.62,17.85 -6.84,7.65 -10.2,16.81 -10.2,27.13l0 376.7c0,10.67 3.36,19.82 10.2,27.59 6.72,7.65 15.3,13.56 25.62,17.74 10.32,4.29 20.75,6.38 31.42,6.38l0 3.02 -200.46 0 0 -3.02c10.9,0 21.45,-2.09 31.77,-6.38 10.32,-4.17 18.9,-9.97 25.85,-17.62 6.96,-7.54 10.32,-16.81 10.32,-27.71l0 -405.22 -175.88 459.94 -174.26 -437.8 0 396.75c1.39,11.48 9.16,20.64 23.54,27.48 14.38,6.72 27.94,10.32 40.7,10.55l0 3.02 -137.97 0.35z"/>
  <path id="_1" class="fil0" d="M2909.45 4873.8l0 -3.36c12.64,-0.23 26.2,-3.83 40.58,-10.55 14.38,-6.84 22.26,-16 23.65,-27.48l-0.35 -385.97c0,-13.1 -3.71,-23.88 -11.02,-32.23 -7.42,-8.35 -16.12,-14.38 -26.2,-17.97 -10.09,-3.59 -18.78,-5.45 -26.32,-5.45l-1.39 0 0 -3.36 132.87 0 145.74 382.14 145.74 -382.14 133.1 0 0 3.36c-10.67,0 -21.1,2.09 -31.42,6.26 -10.32,4.17 -18.9,10.2 -25.62,17.85 -6.84,7.65 -10.2,16.81 -10.2,27.13l0 376.7c0,10.67 3.36,19.82 10.2,27.59 6.72,7.65 15.3,13.56 25.62,17.74 10.32,4.29 20.75,6.38 31.42,6.38l0 3.02 -200.46 0 0 -3.02c10.9,0 21.45,-2.09 31.77,-6.38 10.32,-4.17 18.9,-9.97 25.85,-17.62 6.96,-7.54 10.32,-16.81 10.32,-27.71l0 -405.22 -175.88 459.94 -174.26 -437.8 0 396.75c1.39,11.48 9.16,20.64 23.54,27.48 14.38,6.72 27.94,10.32 40.7,10.55l0 3.02 -137.97 0.35z"/>
  <path id="_2" class="fil0" d="M902.36 4873.48c-32.52,0 -62.28,-5 -88.96,-15.09 -26.78,-10.1 -48.15,-25.09 -64.09,-45.17 -15.83,-19.98 -23.81,-44.64 -23.81,-73.98l0 -268.05c-2.87,-12.65 -10.52,-22.53 -22.96,-29.55 -12.54,-7.12 -25.51,-10.63 -39.01,-10.63l0 -3.08 183.45 0 0 3.08c-13.29,0 -26.15,3.5 -38.58,10.63 -12.54,7.02 -20.19,16.9 -23.06,29.55l0 268.05c0,21.26 5,41.35 14.88,60.48 9.99,19.03 23.81,34.65 41.35,46.87 17.54,12.11 37.84,18.17 60.8,18.17 26.15,0 50.06,-5.63 71.64,-17 21.57,-11.27 38.79,-26.46 51.55,-45.39 12.76,-19.02 19.13,-40.07 19.13,-63.13l0 -275.81c-2.23,-9.99 -9.88,-17.86 -22.74,-23.7 -12.86,-5.85 -24.87,-8.71 -36.03,-8.71l0 -3.08 126.37 0 0 3.08c-10.95,0 -22.96,2.87 -35.82,8.71 -12.86,5.85 -20.41,13.71 -22.74,23.7l0 275.81c0,24.77 -6.8,47.3 -20.41,67.6 -13.61,20.41 -31.78,36.56 -54.74,48.57 -22.96,12.01 -48.36,18.07 -76.21,18.07z"/>
  <path id="_3" class="fil0" d="M1285.84 4873.48c-18.6,0 -36.03,-3.4 -52.3,-10.31 -16.15,-6.8 -30.29,-16.26 -42.3,-28.27l0 0.32c-5.63,-5.63 -10.74,-8.39 -15.31,-8.39 -3.08,0 -7.12,2.12 -12.11,6.48 -5,4.36 -7.44,12.65 -7.44,24.87l-2.87 0 0 -141.36 2.87 0c0.43,16.26 3.72,35.5 9.88,57.93 9.35,26.78 24.24,48.47 44.75,65.15 20.41,16.58 44.64,24.87 72.7,24.87l2.13 0c22.64,-1.28 41.66,-7.65 57.07,-19.13 15.3,-11.59 26.57,-25.93 33.59,-43.15 5.63,-13.71 8.39,-27.63 8.39,-41.77 0,-3.72 -0.21,-7.44 -0.64,-11.16 -0.43,-6.06 -3.08,-15.2 -7.86,-27.42 -4.89,-12.22 -14.88,-24.66 -29.76,-37.31 -14.99,-12.65 -37.63,-22.85 -67.92,-30.5l-0.64 0 0.64 0c-77.59,-19.34 -118.51,-60.8 -122.65,-124.25l0 -4.36c0,-17.64 4.68,-33.9 14.13,-48.57 9.46,-14.77 24.02,-26.68 43.58,-35.71 19.66,-9.03 43.68,-13.5 72.06,-13.5 25.61,0 47.93,7.76 66.96,23.28l0 -0.32c4.78,4.04 9.46,5.95 14.03,5.95 3.3,0 7.65,-1.7 13.07,-5.31 5.42,-3.51 8.08,-11.37 8.08,-23.59l3.19 0 0 138.17 -3.19 0c-0.21,-9.89 -1.7,-23.28 -4.46,-39.96 -2.76,-16.69 -7.97,-31.89 -15.41,-45.59 -8.93,-13.07 -20.51,-23.7 -34.86,-31.78 -14.35,-8.08 -30.08,-12.12 -47.4,-12.12 -26.68,2.02 -46.45,12.12 -59.1,30.19 -8.93,12.86 -13.39,27.11 -13.39,42.62 0,6.7 0.85,13.5 2.44,20.62 4.15,14.88 10.73,27 19.77,36.24 9.04,9.25 18.81,16.26 29.33,21.15 10.42,4.89 19.77,8.19 27.85,9.78 58.35,17.65 99.38,41.56 123.29,71.64 18.5,23.7 27.74,49.21 27.74,76.63 0,22.64 -6.48,43.69 -19.34,63.03 -12.86,19.45 -31.14,35.07 -54.74,47.09 -23.7,11.9 -51.66,17.85 -83.86,17.85z"/>
  <path id="_4" class="fil0" d="M1843.09 4873.48l-350.31 0 0 -2.76c13.71,0 26.89,-3.83 39.43,-11.27 12.54,-7.44 19.98,-17.85 22.21,-31.14l0 -354.99c-2.23,-13.07 -9.67,-23.38 -22.21,-30.93 -12.54,-7.55 -25.72,-11.37 -39.43,-11.37l0 -2.76 332.89 0 5.95 90.87 -2.87 0c0,-8.5 -2.55,-18.71 -7.87,-30.5 -5.31,-11.8 -13.5,-22.75 -24.44,-32.74 -11.06,-9.89 -25.19,-16.16 -42.41,-18.6l-106.18 0c-9.14,0 -16.9,3.19 -23.49,9.57 -6.48,6.48 -9.78,14.35 -9.78,23.7l0 175.58 111.17 0c9.99,-2.23 17.86,-9.78 23.59,-22.74 5.85,-12.86 8.82,-24.76 9.04,-35.71l2.87 0 0 126.37 -2.87 0c-0.21,-11.16 -3.19,-23.28 -9.04,-36.14 -5.74,-12.86 -13.6,-20.41 -23.59,-22.74l-111.17 0 0 170.7c0,10.73 3.72,19.98 11.37,27.53 7.54,7.54 16.79,11.37 27.53,11.37l108.94 0c17.32,-2.87 32.1,-10.84 44.54,-23.7 12.54,-12.86 22.11,-26.68 28.8,-41.35 6.8,-14.77 10.2,-26.46 10.2,-35.18l3.08 0 -5.95 108.94z"/>
  <path id="_5" class="fil0" d="M2115.72 4873.48c-40.92,0 -78.23,-9.99 -111.92,-30.08 -33.69,-19.98 -60.58,-46.87 -80.46,-80.46 -19.98,-33.59 -29.97,-71 -29.97,-112.13 0,-40.81 9.99,-78.12 29.97,-111.7 19.87,-33.69 46.76,-60.48 80.46,-80.56 33.69,-19.98 71,-30.08 111.92,-30.08 41.13,0 78.44,10.09 112.13,30.08 33.59,20.09 60.48,46.87 80.46,80.56 20.09,33.59 30.08,70.89 30.08,111.7 0,41.13 -9.99,78.55 -30.08,112.13 -19.98,33.59 -46.87,60.48 -80.46,80.46 -33.69,20.09 -71,30.08 -112.13,30.08zm0 -9.04c22.21,0 43.04,-6.06 62.5,-18.07 19.34,-12.01 36.35,-28.17 51.02,-48.36 14.67,-20.3 26.15,-43.15 34.44,-68.55 8.29,-25.4 12.43,-51.66 12.43,-78.65 0,-26.78 -4.15,-52.93 -12.43,-78.44 -8.29,-25.51 -19.77,-48.46 -34.44,-68.77 -14.67,-20.41 -31.67,-36.56 -51.02,-48.57 -19.45,-12.12 -40.28,-18.07 -62.5,-18.07 -22,0 -42.73,5.95 -62.07,18.07 -19.45,12.01 -36.46,28.17 -51.13,48.57 -14.56,20.3 -26.15,43.26 -34.54,68.77 -8.39,25.51 -12.65,51.65 -12.65,78.44 0,27 4.25,53.25 12.65,78.65 8.4,25.4 19.98,48.25 34.54,68.55 14.67,20.2 31.67,36.35 51.13,48.36 19.34,12.01 40.07,18.07 62.07,18.07z"/>
  <path id="_6" class="fil0" d="M3749.39 4873.48c-32.31,0 -61.96,-5.1 -88.75,-15.2 -26.78,-10.2 -48.15,-25.3 -64.09,-45.39 -16.05,-19.98 -24.02,-44.64 -24.02,-73.98l0 -268.05c-2.87,-12.65 -10.52,-22.53 -22.96,-29.55 -12.54,-7.12 -25.51,-10.63 -39.01,-10.63l0 -3.08 183.45 0 0 3.08c-13.29,0 -26.15,3.61 -38.48,10.73 -12.33,7.12 -19.98,17.01 -22.85,29.44l0 268.05c0,21.26 4.89,41.35 14.77,60.48 9.89,19.03 23.6,34.65 41.24,46.87 17.64,12.12 37.94,18.17 60.69,18.17 26.15,0 50.06,-5.63 71.64,-17 21.57,-11.27 38.79,-26.46 51.76,-45.39 12.86,-19.02 19.24,-40.07 19.24,-63.13l0 -275.81c-2.23,-9.99 -9.88,-17.86 -22.85,-23.7 -12.96,-5.85 -24.98,-8.71 -35.93,-8.71l0 -3.08 126.37 0 0 3.08c-11.06,0 -22.96,2.97 -35.82,8.93 -12.86,5.85 -20.41,13.71 -22.74,23.49l0 275.81c0,24.77 -6.8,47.3 -20.51,67.6 -13.71,20.41 -31.99,36.56 -54.95,48.79 -22.96,12.11 -48.36,18.17 -76.21,18.17zm0.96 -472.33l-15.2 -12.76 40.7 -93.11 43.69 27.63 -69.19 78.23z"/>
  <path id="_7" class="fil0" d="M4133.19 4873.48c-18.6,0 -36.03,-3.4 -52.3,-10.31 -16.15,-6.8 -30.29,-16.26 -42.3,-28.27l0 0.32c-5.63,-5.63 -10.74,-8.39 -15.31,-8.39 -3.08,0 -7.12,2.12 -12.11,6.48 -5,4.36 -7.44,12.65 -7.44,24.87l-2.87 0 0 -141.36 2.87 0c0.43,16.26 3.72,35.5 9.88,57.93 9.35,26.78 24.24,48.47 44.75,65.15 20.41,16.58 44.64,24.87 72.7,24.87l2.13 0c22.64,-1.28 41.66,-7.65 57.07,-19.13 15.3,-11.59 26.57,-25.93 33.59,-43.15 5.63,-13.71 8.39,-27.63 8.39,-41.77 0,-3.72 -0.21,-7.44 -0.64,-11.16 -0.43,-6.06 -3.08,-15.2 -7.86,-27.42 -4.89,-12.22 -14.88,-24.66 -29.76,-37.31 -14.99,-12.65 -37.63,-22.85 -67.92,-30.5l-0.64 0 0.64 0c-77.59,-19.34 -118.51,-60.8 -122.65,-124.25l0 -4.36c0,-17.64 4.68,-33.9 14.13,-48.57 9.46,-14.77 24.02,-26.68 43.58,-35.71 19.66,-9.03 43.68,-13.5 72.06,-13.5 25.61,0 47.93,7.76 66.96,23.28l0 -0.32c4.78,4.04 9.46,5.95 14.03,5.95 3.3,0 7.65,-1.7 13.07,-5.31 5.42,-3.51 8.08,-11.37 8.08,-23.59l3.19 0 0 138.17 -3.19 0c-0.21,-9.89 -1.7,-23.28 -4.46,-39.96 -2.76,-16.69 -7.97,-31.89 -15.41,-45.59 -8.93,-13.07 -20.51,-23.7 -34.86,-31.78 -14.35,-8.08 -30.08,-12.12 -47.4,-12.12 -26.68,2.02 -46.45,12.12 -59.1,30.19 -8.93,12.86 -13.39,27.11 -13.39,42.62 0,6.7 0.85,13.5 2.44,20.62 4.15,14.88 10.73,27 19.77,36.24 9.04,9.25 18.81,16.26 29.33,21.15 10.42,4.89 19.77,8.19 27.85,9.78 58.35,17.65 99.38,41.56 123.29,71.64 18.5,23.7 27.74,49.21 27.74,76.63 0,22.64 -6.48,43.69 -19.34,63.03 -12.86,19.45 -31.14,35.07 -54.74,47.09 -23.7,11.9 -51.66,17.85 -83.86,17.85z"/>
  <path id="_8" class="fil0" d="M4523.57 4873.48l-183.45 0 0 -2.76c14.56,0 28.27,-4.15 41.24,-12.33 13.07,-8.19 19.98,-19.67 21.04,-34.44l0 -346.28c-1.06,-14.67 -7.97,-26.15 -21.04,-34.33 -12.97,-8.19 -26.68,-12.33 -41.24,-12.33l0 -2.76 183.45 0 0 2.76c-14.14,0 -27.53,4.14 -40.28,12.33 -12.86,8.19 -19.87,19.45 -21.04,33.8l0 347.45c1.17,14.35 8.19,25.61 21.04,33.8 12.76,8.18 26.15,12.33 40.28,12.33l0 2.76z"/>
  <path id="_9" class="fil0" d="M4774.09 4873.48c-38.8,0 -74.08,-9.99 -105.76,-30.08 -31.56,-19.98 -56.76,-46.87 -75.46,-80.56 -18.7,-33.8 -28.06,-71.11 -28.06,-112.03 0,-41.02 9.35,-78.44 28.06,-112.24 18.7,-33.69 44,-60.58 75.99,-80.67 31.99,-19.98 68.02,-29.97 108.31,-29.97 26.15,0 52.72,6.91 79.71,20.83 10.42,5 19.88,7.44 28.38,7.44 4.36,0 10.42,-1.28 18.07,-3.83 7.65,-2.66 11.48,-10.74 11.48,-24.44l3.19 0 0 116.38 -3.19 0c-0.21,-13.07 -4.35,-27 -12.43,-41.98 -12.86,-19.56 -30.5,-34.86 -52.93,-46.13 -22.43,-11.16 -46.45,-16.8 -72.28,-16.8 -18.6,0 -36.78,5.1 -54.31,15.41 -17.54,10.31 -33.27,24.76 -47.3,43.47 -14.03,18.71 -25.19,40.92 -33.69,66.75 -8.39,25.83 -12.54,54.42 -12.54,85.77 0,41.13 6.48,77.59 19.45,109.48 12.97,31.89 30.4,56.76 52.19,74.72 21.79,17.96 46.13,27 73.13,27 22,0 42.3,-5.2 60.9,-15.62 18.6,-10.42 34.76,-23.81 48.57,-40.5 13.82,-16.58 24.66,-34.65 32.52,-54.1l9.67 0c-7.87,23.59 -19.24,44.54 -34.12,62.81 -14.88,18.28 -32.42,32.63 -52.61,43.15 -20.3,10.52 -41.88,15.73 -64.94,15.73z"/>
  <path id="_10" class="fil0" d="M5411.7 4873.48l-187.49 0 0 -2.76c9.14,0 19.24,-1.38 30.19,-4.04 11.05,-2.76 19.98,-7.02 26.78,-12.86 5.21,-4.36 7.87,-9.67 7.87,-16.16 0,-2.23 -0.32,-4.57 -0.96,-6.8l-57.29 -152.31 -153.26 0 -60.37 160.7c-0.43,2.02 -0.64,3.93 -0.64,5.63 0,5.74 2.98,10.74 9.03,14.77 6.06,4.04 14.14,6.91 24.45,8.5 10.31,1.7 18.81,2.55 25.72,2.55l0 2.76 -126.48 0 0 -2.76c10.42,0 21.04,-2.44 31.78,-7.33 10.84,-4.89 19.77,-13.18 26.78,-24.76 9.14,-24.34 20.83,-55.27 35.07,-93 14.13,-37.63 28.48,-75.67 42.94,-114.26 14.46,-38.48 26.68,-71.11 36.56,-97.78 9.99,-26.68 15.41,-41.34 16.26,-44 1.38,-5.85 2.13,-11.27 2.13,-16.26 0,-6.59 -1.91,-13.28 -5.74,-20.09 -3.83,-6.7 -10.1,-12.12 -18.71,-16.16 -8.61,-4.04 -16.9,-6.06 -24.76,-6.06l-1.28 0 0 -3.08 110.33 0 149.44 397.93c13.07,29.87 33.59,44.85 61.65,44.85l0 2.76zm-184.3 -203.96l-73.23 -194.93 -73.44 194.93 146.67 0z"/>
  <path id="_11" class="fil1 str0" d="M62.43 4873.8l0 -3.36c12.64,-0.23 26.2,-3.83 40.58,-10.55 14.38,-6.84 22.26,-16 23.65,-27.48l-0.35 -385.97c0,-13.1 -3.71,-23.88 -11.02,-32.23 -7.42,-8.35 -16.12,-14.38 -26.2,-17.97 -10.09,-3.59 -18.78,-5.45 -26.32,-5.45l-1.39 0 0 -3.36 132.87 0 145.74 382.14 145.74 -382.14 133.1 0 0 3.36c-10.67,0 -21.1,2.09 -31.42,6.26 -10.32,4.17 -18.9,10.2 -25.62,17.85 -6.84,7.65 -10.2,16.81 -10.2,27.13l0 376.7c0,10.67 3.36,19.82 10.2,27.59 6.72,7.65 15.3,13.56 25.62,17.74 10.32,4.29 20.75,6.38 31.42,6.38l0 3.02 -200.46 0 0 -3.02c10.9,0 21.45,-2.09 31.77,-6.38 10.32,-4.17 18.9,-9.97 25.85,-17.62 6.96,-7.54 10.32,-16.81 10.32,-27.71l0 -405.22 -175.88 459.94 -174.26 -437.8 0 396.75c1.39,11.48 9.16,20.64 23.54,27.48 14.38,6.72 27.94,10.32 40.7,10.55l0 3.02 -137.97 0.35z"/>
  <path id="_12" class="fil1 str0" d="M2909.45 4873.8l0 -3.36c12.64,-0.23 26.2,-3.83 40.58,-10.55 14.38,-6.84 22.26,-16 23.65,-27.48l-0.35 -385.97c0,-13.1 -3.71,-23.88 -11.02,-32.23 -7.42,-8.35 -16.12,-14.38 -26.2,-17.97 -10.09,-3.59 -18.78,-5.45 -26.32,-5.45l-1.39 0 0 -3.36 132.87 0 145.74 382.14 145.74 -382.14 133.1 0 0 3.36c-10.67,0 -21.1,2.09 -31.42,6.26 -10.32,4.17 -18.9,10.2 -25.62,17.85 -6.84,7.65 -10.2,16.81 -10.2,27.13l0 376.7c0,10.67 3.36,19.82 10.2,27.59 6.72,7.65 15.3,13.56 25.62,17.74 10.32,4.29 20.75,6.38 31.42,6.38l0 3.02 -200.46 0 0 -3.02c10.9,0 21.45,-2.09 31.77,-6.38 10.32,-4.17 18.9,-9.97 25.85,-17.62 6.96,-7.54 10.32,-16.81 10.32,-27.71l0 -405.22 -175.88 459.94 -174.26 -437.8 0 396.75c1.39,11.48 9.16,20.64 23.54,27.48 14.38,6.72 27.94,10.32 40.7,10.55l0 3.02 -137.97 0.35z"/>
  <path id="_13" class="fil1 str0" d="M902.36 4873.48c-32.52,0 -62.28,-5 -88.96,-15.09 -26.78,-10.1 -48.15,-25.09 -64.09,-45.17 -15.83,-19.98 -23.81,-44.64 -23.81,-73.98l0 -268.05c-2.87,-12.65 -10.52,-22.53 -22.96,-29.55 -12.54,-7.12 -25.51,-10.63 -39.01,-10.63l0 -3.08 183.45 0 0 3.08c-13.29,0 -26.15,3.5 -38.58,10.63 -12.54,7.02 -20.19,16.9 -23.06,29.55l0 268.05c0,21.26 5,41.35 14.88,60.48 9.99,19.03 23.81,34.65 41.35,46.87 17.54,12.11 37.84,18.17 60.8,18.17 26.15,0 50.06,-5.63 71.64,-17 21.57,-11.27 38.79,-26.46 51.55,-45.39 12.76,-19.02 19.13,-40.07 19.13,-63.13l0 -275.81c-2.23,-9.99 -9.88,-17.86 -22.74,-23.7 -12.86,-5.85 -24.87,-8.71 -36.03,-8.71l0 -3.08 126.37 0 0 3.08c-10.95,0 -22.96,2.87 -35.82,8.71 -12.86,5.85 -20.41,13.71 -22.74,23.7l0 275.81c0,24.77 -6.8,47.3 -20.41,67.6 -13.61,20.41 -31.78,36.56 -54.74,48.57 -22.96,12.01 -48.36,18.07 -76.21,18.07z"/>
  <path id="_14" class="fil1 str0" d="M1285.84 4873.48c-18.6,0 -36.03,-3.4 -52.3,-10.31 -16.15,-6.8 -30.29,-16.26 -42.3,-28.27l0 0.32c-5.63,-5.63 -10.74,-8.39 -15.31,-8.39 -3.08,0 -7.12,2.12 -12.11,6.48 -5,4.36 -7.44,12.65 -7.44,24.87l-2.87 0 0 -141.36 2.87 0c0.43,16.26 3.72,35.5 9.88,57.93 9.35,26.78 24.24,48.47 44.75,65.15 20.41,16.58 44.64,24.87 72.7,24.87l2.13 0c22.64,-1.28 41.66,-7.65 57.07,-19.13 15.3,-11.59 26.57,-25.93 33.59,-43.15 5.63,-13.71 8.39,-27.63 8.39,-41.77 0,-3.72 -0.21,-7.44 -0.64,-11.16 -0.43,-6.06 -3.08,-15.2 -7.86,-27.42 -4.89,-12.22 -14.88,-24.66 -29.76,-37.31 -14.99,-12.65 -37.63,-22.85 -67.92,-30.5l-0.64 0 0.64 0c-77.59,-19.34 -118.51,-60.8 -122.65,-124.25l0 -4.36c0,-17.64 4.68,-33.9 14.13,-48.57 9.46,-14.77 24.02,-26.68 43.58,-35.71 19.66,-9.03 43.68,-13.5 72.06,-13.5 25.61,0 47.93,7.76 66.96,23.28l0 -0.32c4.78,4.04 9.46,5.95 14.03,5.95 3.3,0 7.65,-1.7 13.07,-5.31 5.42,-3.51 8.08,-11.37 8.08,-23.59l3.19 0 0 138.17 -3.19 0c-0.21,-9.89 -1.7,-23.28 -4.46,-39.96 -2.76,-16.69 -7.97,-31.89 -15.41,-45.59 -8.93,-13.07 -20.51,-23.7 -34.86,-31.78 -14.35,-8.08 -30.08,-12.12 -47.4,-12.12 -26.68,2.02 -46.45,12.12 -59.1,30.19 -8.93,12.86 -13.39,27.11 -13.39,42.62 0,6.7 0.85,13.5 2.44,20.62 4.15,14.88 10.73,27 19.77,36.24 9.04,9.25 18.81,16.26 29.33,21.15 10.42,4.89 19.77,8.19 27.85,9.78 58.35,17.65 99.38,41.56 123.29,71.64 18.5,23.7 27.74,49.21 27.74,76.63 0,22.64 -6.48,43.69 -19.34,63.03 -12.86,19.45 -31.14,35.07 -54.74,47.09 -23.7,11.9 -51.66,17.85 -83.86,17.85z"/>
  <path id="_15" class="fil1 str0" d="M1843.09 4873.48l-350.31 0 0 -2.76c13.71,0 26.89,-3.83 39.43,-11.27 12.54,-7.44 19.98,-17.85 22.21,-31.14l0 -354.99c-2.23,-13.07 -9.67,-23.38 -22.21,-30.93 -12.54,-7.55 -25.72,-11.37 -39.43,-11.37l0 -2.76 332.89 0 5.95 90.87 -2.87 0c0,-8.5 -2.55,-18.71 -7.87,-30.5 -5.31,-11.8 -13.5,-22.75 -24.44,-32.74 -11.06,-9.89 -25.19,-16.16 -42.41,-18.6l-106.18 0c-9.14,0 -16.9,3.19 -23.49,9.57 -6.48,6.48 -9.78,14.35 -9.78,23.7l0 175.58 111.17 0c9.99,-2.23 17.86,-9.78 23.59,-22.74 5.85,-12.86 8.82,-24.76 9.04,-35.71l2.87 0 0 126.37 -2.87 0c-0.21,-11.16 -3.19,-23.28 -9.04,-36.14 -5.74,-12.86 -13.6,-20.41 -23.59,-22.74l-111.17 0 0 170.7c0,10.73 3.72,19.98 11.37,27.53 7.54,7.54 16.79,11.37 27.53,11.37l108.94 0c17.32,-2.87 32.1,-10.84 44.54,-23.7 12.54,-12.86 22.11,-26.68 28.8,-41.35 6.8,-14.77 10.2,-26.46 10.2,-35.18l3.08 0 -5.95 108.94z"/>
  <path id="_16" class="fil1 str0" d="M2115.72 4873.48c-40.92,0 -78.23,-9.99 -111.92,-30.08 -33.69,-19.98 -60.58,-46.87 -80.46,-80.46 -19.98,-33.59 -29.97,-71 -29.97,-112.13 0,-40.81 9.99,-78.12 29.97,-111.7 19.87,-33.69 46.76,-60.48 80.46,-80.56 33.69,-19.98 71,-30.08 111.92,-30.08 41.13,0 78.44,10.09 112.13,30.08 33.59,20.09 60.48,46.87 80.46,80.56 20.09,33.59 30.08,70.89 30.08,111.7 0,41.13 -9.99,78.55 -30.08,112.13 -19.98,33.59 -46.87,60.48 -80.46,80.46 -33.69,20.09 -71,30.08 -112.13,30.08zm0 -9.04c22.21,0 43.04,-6.06 62.5,-18.07 19.34,-12.01 36.35,-28.17 51.02,-48.36 14.67,-20.3 26.15,-43.15 34.44,-68.55 8.29,-25.4 12.43,-51.66 12.43,-78.65 0,-26.78 -4.15,-52.93 -12.43,-78.44 -8.29,-25.51 -19.77,-48.46 -34.44,-68.77 -14.67,-20.41 -31.67,-36.56 -51.02,-48.57 -19.45,-12.12 -40.28,-18.07 -62.5,-18.07 -22,0 -42.73,5.95 -62.07,18.07 -19.45,12.01 -36.46,28.17 -51.13,48.57 -14.56,20.3 -26.15,43.26 -34.54,68.77 -8.39,25.51 -12.65,51.65 -12.65,78.44 0,27 4.25,53.25 12.65,78.65 8.4,25.4 19.98,48.25 34.54,68.55 14.67,20.2 31.67,36.35 51.13,48.36 19.34,12.01 40.07,18.07 62.07,18.07z"/>
  <path id="_17" class="fil1 str0" d="M3749.39 4873.48c-32.31,0 -61.96,-5.1 -88.75,-15.2 -26.78,-10.2 -48.15,-25.3 -64.09,-45.39 -16.05,-19.98 -24.02,-44.64 -24.02,-73.98l0 -268.05c-2.87,-12.65 -10.52,-22.53 -22.96,-29.55 -12.54,-7.12 -25.51,-10.63 -39.01,-10.63l0 -3.08 183.45 0 0 3.08c-13.29,0 -26.15,3.61 -38.48,10.73 -12.33,7.12 -19.98,17.01 -22.85,29.44l0 268.05c0,21.26 4.89,41.35 14.77,60.48 9.89,19.03 23.6,34.65 41.24,46.87 17.64,12.12 37.94,18.17 60.69,18.17 26.15,0 50.06,-5.63 71.64,-17 21.57,-11.27 38.79,-26.46 51.76,-45.39 12.86,-19.02 19.24,-40.07 19.24,-63.13l0 -275.81c-2.23,-9.99 -9.88,-17.86 -22.85,-23.7 -12.96,-5.85 -24.98,-8.71 -35.93,-8.71l0 -3.08 126.37 0 0 3.08c-11.06,0 -22.96,2.97 -35.82,8.93 -12.86,5.85 -20.41,13.71 -22.74,23.49l0 275.81c0,24.77 -6.8,47.3 -20.51,67.6 -13.71,20.41 -31.99,36.56 -54.95,48.79 -22.96,12.11 -48.36,18.17 -76.21,18.17zm0.96 -472.33l-15.2 -12.76 40.7 -93.11 43.69 27.63 -69.19 78.23z"/>
  <path id="_18" class="fil1 str0" d="M4133.19 4873.48c-18.6,0 -36.03,-3.4 -52.3,-10.31 -16.15,-6.8 -30.29,-16.26 -42.3,-28.27l0 0.32c-5.63,-5.63 -10.74,-8.39 -15.31,-8.39 -3.08,0 -7.12,2.12 -12.11,6.48 -5,4.36 -7.44,12.65 -7.44,24.87l-2.87 0 0 -141.36 2.87 0c0.43,16.26 3.72,35.5 9.88,57.93 9.35,26.78 24.24,48.47 44.75,65.15 20.41,16.58 44.64,24.87 72.7,24.87l2.13 0c22.64,-1.28 41.66,-7.65 57.07,-19.13 15.3,-11.59 26.57,-25.93 33.59,-43.15 5.63,-13.71 8.39,-27.63 8.39,-41.77 0,-3.72 -0.21,-7.44 -0.64,-11.16 -0.43,-6.06 -3.08,-15.2 -7.86,-27.42 -4.89,-12.22 -14.88,-24.66 -29.76,-37.31 -14.99,-12.65 -37.63,-22.85 -67.92,-30.5l-0.64 0 0.64 0c-77.59,-19.34 -118.51,-60.8 -122.65,-124.25l0 -4.36c0,-17.64 4.68,-33.9 14.13,-48.57 9.46,-14.77 24.02,-26.68 43.58,-35.71 19.66,-9.03 43.68,-13.5 72.06,-13.5 25.61,0 47.93,7.76 66.96,23.28l0 -0.32c4.78,4.04 9.46,5.95 14.03,5.95 3.3,0 7.65,-1.7 13.07,-5.31 5.42,-3.51 8.08,-11.37 8.08,-23.59l3.19 0 0 138.17 -3.19 0c-0.21,-9.89 -1.7,-23.28 -4.46,-39.96 -2.76,-16.69 -7.97,-31.89 -15.41,-45.59 -8.93,-13.07 -20.51,-23.7 -34.86,-31.78 -14.35,-8.08 -30.08,-12.12 -47.4,-12.12 -26.68,2.02 -46.45,12.12 -59.1,30.19 -8.93,12.86 -13.39,27.11 -13.39,42.62 0,6.7 0.85,13.5 2.44,20.62 4.15,14.88 10.73,27 19.77,36.24 9.04,9.25 18.81,16.26 29.33,21.15 10.42,4.89 19.77,8.19 27.85,9.78 58.35,17.65 99.38,41.56 123.29,71.64 18.5,23.7 27.74,49.21 27.74,76.63 0,22.64 -6.48,43.69 -19.34,63.03 -12.86,19.45 -31.14,35.07 -54.74,47.09 -23.7,11.9 -51.66,17.85 -83.86,17.85z"/>
  <path id="_19" class="fil1 str0" d="M4523.57 4873.48l-183.45 0 0 -2.76c14.56,0 28.27,-4.15 41.24,-12.33 13.07,-8.19 19.98,-19.67 21.04,-34.44l0 -346.28c-1.06,-14.67 -7.97,-26.15 -21.04,-34.33 -12.97,-8.19 -26.68,-12.33 -41.24,-12.33l0 -2.76 183.45 0 0 2.76c-14.14,0 -27.53,4.14 -40.28,12.33 -12.86,8.19 -19.87,19.45 -21.04,33.8l0 347.45c1.17,14.35 8.19,25.61 21.04,33.8 12.76,8.18 26.15,12.33 40.28,12.33l0 2.76z"/>
  <path id="_20" class="fil1 str0" d="M4774.09 4873.48c-38.8,0 -74.08,-9.99 -105.76,-30.08 -31.56,-19.98 -56.76,-46.87 -75.46,-80.56 -18.7,-33.8 -28.06,-71.11 -28.06,-112.03 0,-41.02 9.35,-78.44 28.06,-112.24 18.7,-33.69 44,-60.58 75.99,-80.67 31.99,-19.98 68.02,-29.97 108.31,-29.97 26.15,0 52.72,6.91 79.71,20.83 10.42,5 19.88,7.44 28.38,7.44 4.36,0 10.42,-1.28 18.07,-3.83 7.65,-2.66 11.48,-10.74 11.48,-24.44l3.19 0 0 116.38 -3.19 0c-0.21,-13.07 -4.35,-27 -12.43,-41.98 -12.86,-19.56 -30.5,-34.86 -52.93,-46.13 -22.43,-11.16 -46.45,-16.8 -72.28,-16.8 -18.6,0 -36.78,5.1 -54.31,15.41 -17.54,10.31 -33.27,24.76 -47.3,43.47 -14.03,18.71 -25.19,40.92 -33.69,66.75 -8.39,25.83 -12.54,54.42 -12.54,85.77 0,41.13 6.48,77.59 19.45,109.48 12.97,31.89 30.4,56.76 52.19,74.72 21.79,17.96 46.13,27 73.13,27 22,0 42.3,-5.2 60.9,-15.62 18.6,-10.42 34.76,-23.81 48.57,-40.5 13.82,-16.58 24.66,-34.65 32.52,-54.1l9.67 0c-7.87,23.59 -19.24,44.54 -34.12,62.81 -14.88,18.28 -32.42,32.63 -52.61,43.15 -20.3,10.52 -41.88,15.73 -64.94,15.73z"/>
  <path id="_21" class="fil1 str0" d="M5411.7 4873.48l-187.49 0 0 -2.76c9.14,0 19.24,-1.38 30.19,-4.04 11.05,-2.76 19.98,-7.02 26.78,-12.86 5.21,-4.36 7.87,-9.67 7.87,-16.16 0,-2.23 -0.32,-4.57 -0.96,-6.8l-57.29 -152.31 -153.26 0 -60.37 160.7c-0.43,2.02 -0.64,3.93 -0.64,5.63 0,5.74 2.98,10.74 9.03,14.77 6.06,4.04 14.14,6.91 24.45,8.5 10.31,1.7 18.81,2.55 25.72,2.55l0 2.76 -126.48 0 0 -2.76c10.42,0 21.04,-2.44 31.78,-7.33 10.84,-4.89 19.77,-13.18 26.78,-24.76 9.14,-24.34 20.83,-55.27 35.07,-93 14.13,-37.63 28.48,-75.67 42.94,-114.26 14.46,-38.48 26.68,-71.11 36.56,-97.78 9.99,-26.68 15.41,-41.34 16.26,-44 1.38,-5.85 2.13,-11.27 2.13,-16.26 0,-6.59 -1.91,-13.28 -5.74,-20.09 -3.83,-6.7 -10.1,-12.12 -18.71,-16.16 -8.61,-4.04 -16.9,-6.06 -24.76,-6.06l-1.28 0 0 -3.08 110.33 0 149.44 397.93c13.07,29.87 33.59,44.85 61.65,44.85l0 2.76zm-184.3 -203.96l-73.23 -194.93 -73.44 194.93 146.67 0z"/>
  <path class="fil0" d="M203.23 5302.94l-115.38 0 0 -1.74c9.16,0 17.78,-2.61 25.94,-7.76 8.22,-5.15 12.5,-12.37 13.04,-21.66l0 -220.73c-1.4,-8.22 -6.02,-14.64 -13.9,-19.39 -7.82,-4.68 -16.04,-7.02 -24.67,-7.02l0 -1.94 135.7 0c17.65,0 33.76,2.47 48.39,7.42 14.64,4.94 26.27,12.5 34.96,22.59 8.69,10.16 13.04,22.99 13.04,38.5 0,15.51 -4.34,28.34 -13.04,38.5 -8.69,10.09 -20.32,17.65 -34.96,22.59 -14.64,4.95 -30.75,7.42 -48.39,7.42l-59.3 0 0 112.44c0.67,9.02 4.95,16.11 13.04,21.26 8.02,5.15 16.51,7.76 25.54,7.76l0 1.74zm20.72 -148.8c11.76,0 22.06,-3.14 30.88,-9.43 8.82,-6.28 15.64,-14.24 20.52,-23.8 4.95,-9.63 7.35,-19.52 7.35,-29.68 0,-10.03 -2.41,-19.92 -7.22,-29.55 -4.81,-9.69 -11.63,-17.65 -20.45,-23.93 -8.82,-6.28 -19.19,-9.36 -31.08,-9.36l-35.83 0c-6.48,0 -12.03,2.28 -16.65,6.82 -4.54,4.61 -6.82,10.16 -6.82,16.65l0 102.28 59.3 0z"/>
  <path id="_1_55" class="fil0" d="M626.14 5302.96c-18.75,0 -35.91,-2.88 -51.29,-8.7 -15.44,-5.82 -27.76,-14.46 -36.95,-26.04 -9.13,-11.52 -13.73,-25.74 -13.73,-42.65l0 -154.54c-1.65,-7.3 -6.06,-12.99 -13.23,-17.04 -7.23,-4.11 -14.71,-6.13 -22.49,-6.13l0 -1.78 105.77 0 0 1.78c-7.66,0 -15.07,2.02 -22.24,6.13 -7.23,4.04 -11.64,9.74 -13.3,17.04l0 154.54c0,12.26 2.88,23.84 8.58,34.87 5.76,10.97 13.73,19.98 23.84,27.02 10.11,6.99 21.81,10.48 35.05,10.48 15.07,0 28.86,-3.25 41.3,-9.8 12.44,-6.5 22.37,-15.26 29.72,-26.17 7.35,-10.97 11.03,-23.1 11.03,-36.4l0 -159.02c-1.29,-5.76 -5.7,-10.29 -13.11,-13.66 -7.41,-3.37 -14.34,-5.03 -20.78,-5.03l0 -1.78 72.86 0 0 1.78c-6.31,0 -13.24,1.66 -20.65,5.03 -7.41,3.37 -11.76,7.9 -13.11,13.66l0 159.02c0,14.28 -3.92,27.27 -11.77,38.97 -7.84,11.77 -18.32,21.08 -31.56,28 -13.24,6.93 -27.88,10.42 -43.94,10.42z"/>
  <path id="_2_56" class="fil0" d="M1103.37 5302.96l-201.97 0 0 -1.59c7.91,0 15.5,-2.21 22.74,-6.5 7.23,-4.29 11.52,-10.3 12.81,-17.96l0 -204.67c-1.29,-7.54 -5.58,-13.48 -12.81,-17.83 -7.23,-4.35 -14.83,-6.56 -22.74,-6.56l0 -1.59 191.92 0 3.43 52.39 -1.65 0c0,-4.9 -1.47,-10.78 -4.54,-17.59 -3.06,-6.8 -7.78,-13.11 -14.09,-18.87 -6.37,-5.7 -14.52,-9.31 -24.45,-10.72l-61.22 0c-5.27,0 -9.74,1.84 -13.54,5.51 -3.74,3.74 -5.64,8.28 -5.64,13.67l0 101.23 64.1 0c5.76,-1.29 10.3,-5.64 13.6,-13.11 3.37,-7.41 5.09,-14.28 5.21,-20.59l1.65 0 0 72.86 -1.65 0c-0.12,-6.44 -1.84,-13.42 -5.21,-20.83 -3.31,-7.42 -7.84,-11.77 -13.6,-13.11l-64.1 0 0 98.41c0,6.19 2.15,11.52 6.56,15.87 4.35,4.35 9.68,6.56 15.87,6.56l62.81 0c9.99,-1.65 18.5,-6.25 25.67,-13.67 7.23,-7.41 12.74,-15.38 16.61,-23.83 3.92,-8.52 5.88,-15.26 5.88,-20.28l1.78 0 -3.43 62.81z"/>
  <path id="_3_57" class="fil0" d="M1500.7 5303.33l-107.54 0 0 -1.59c5.64,0 11.4,-0.86 17.34,-2.45 5.94,-1.59 10.6,-4.35 14.09,-8.15 2.39,-2.88 3.61,-6.49 3.61,-10.78 0,-1.78 -0.19,-3.68 -0.55,-5.57l0.19 0c-2.39,-15.2 -6.07,-30.46 -11.03,-45.84 -5.02,-15.38 -12.56,-28.43 -22.73,-39.15 -10.17,-10.72 -24.33,-16.67 -42.41,-17.89l-18.44 0 0 103.25c0.61,8.27 4.54,14.77 11.95,19.49 7.35,4.72 15.13,7.11 23.41,7.11l0 1.59 -105.77 0 0 -1.59c8.4,0 16.3,-2.45 23.78,-7.23 7.54,-4.78 11.46,-11.33 11.95,-19.73l0 -202.34c-1.28,-7.54 -5.51,-13.48 -12.74,-17.83 -7.17,-4.35 -14.7,-6.56 -22.61,-6.56l0 -1.65 119.19 0c16.18,0 30.94,2.27 44.36,6.74 13.42,4.54 24.08,11.4 32.05,20.65 7.96,9.31 11.95,21.08 11.95,35.3 0,10.05 -2.02,18.81 -6.13,26.23 -8.33,15.56 -21.94,26.04 -40.75,31.37 -10.85,3.25 -20.59,4.9 -29.05,4.9 15.87,4.66 28.56,12.62 38.06,23.96 9.44,11.28 16.61,24.08 21.51,38.3 4.9,14.28 8.64,28.19 11.15,41.85 2.39,7.05 6.8,13.17 13.3,18.32 6.44,5.15 13.73,7.72 21.88,7.72l0 1.59zm-118.33 -136.65c10.78,0 20.22,-2.82 28.31,-8.52 8.09,-5.7 14.34,-12.93 18.87,-21.81 4.48,-8.82 6.68,-17.95 6.68,-27.27 0,-9.07 -2.2,-18.07 -6.62,-26.9 -4.41,-8.88 -10.66,-16.18 -18.75,-21.94 -8.09,-5.76 -17.59,-8.58 -28.49,-8.58l-27.64 0c-5.94,0 -11.03,2.08 -15.26,6.25 -4.17,4.17 -6.25,9.25 -6.25,15.26l0 93.51 49.15 0z"/>
  <path id="_4_58" class="fil0" d="M1831.06 5302.96l-105.7 0 0 -1.59c8.33,0 16.3,-2.39 23.78,-7.11 7.48,-4.72 11.46,-11.33 11.95,-19.85l0 -223.11 -56.37 0c-9.93,1.65 -18.51,6.19 -25.68,13.54 -7.17,7.35 -12.69,15.26 -16.54,23.78 -3.8,8.52 -5.76,15.26 -5.88,20.28l-1.66 0 3.43 -62.81 240.94 0 3.55 62.81 -1.78 0c0,-5.03 -1.96,-11.77 -5.82,-20.28 -3.92,-8.52 -9.44,-16.43 -16.54,-23.78 -7.11,-7.35 -15.69,-11.89 -25.74,-13.54l-57.3 0 0 223.48c0.61,8.27 4.59,14.77 11.95,19.48 7.35,4.72 15.2,7.11 23.41,7.11l0 1.59z"/>
  <path id="_5_59" class="fil0" d="M2185.31 5302.96c-23.59,0 -45.1,-5.76 -64.52,-17.34 -19.43,-11.52 -34.93,-27.02 -46.39,-46.39 -11.52,-19.36 -17.28,-40.93 -17.28,-64.65 0,-23.53 5.76,-45.04 17.28,-64.41 11.46,-19.43 26.96,-34.87 46.39,-46.45 19.43,-11.52 40.93,-17.34 64.52,-17.34 23.72,0 45.22,5.82 64.65,17.34 19.36,11.58 34.87,27.02 46.39,46.45 11.58,19.37 17.34,40.87 17.34,64.41 0,23.71 -5.76,45.28 -17.34,64.65 -11.52,19.37 -27.02,34.87 -46.39,46.39 -19.43,11.58 -40.93,17.34 -64.65,17.34zm0 -5.21c12.81,0 24.82,-3.49 36.03,-10.42 11.15,-6.92 20.96,-16.24 29.41,-27.88 8.46,-11.7 15.07,-24.88 19.85,-39.53 4.78,-14.65 7.17,-29.78 7.17,-45.34 0,-15.44 -2.39,-30.52 -7.17,-45.22 -4.78,-14.7 -11.4,-27.94 -19.85,-39.65 -8.46,-11.77 -18.26,-21.08 -29.41,-28 -11.21,-6.98 -23.22,-10.42 -36.03,-10.42 -12.69,0 -24.63,3.43 -35.78,10.42 -11.22,6.93 -21.02,16.24 -29.48,28 -8.39,11.7 -15.07,24.94 -19.91,39.65 -4.84,14.71 -7.3,29.78 -7.3,45.22 0,15.56 2.45,30.7 7.3,45.34 4.84,14.65 11.52,27.82 19.91,39.53 8.46,11.64 18.26,20.96 29.48,27.88 11.15,6.93 23.1,10.42 35.78,10.42z"/>
  <path id="_6_60" class="fil0" d="M2710.29 5303.33l-107.54 0 0 -1.59c5.64,0 11.4,-0.86 17.34,-2.45 5.94,-1.59 10.6,-4.35 14.09,-8.15 2.39,-2.88 3.61,-6.49 3.61,-10.78 0,-1.78 -0.19,-3.68 -0.55,-5.57l0.19 0c-2.39,-15.2 -6.07,-30.46 -11.03,-45.84 -5.02,-15.38 -12.56,-28.43 -22.73,-39.15 -10.17,-10.72 -24.33,-16.67 -42.41,-17.89l-18.44 0 0 103.25c0.61,8.27 4.54,14.77 11.95,19.49 7.35,4.72 15.13,7.11 23.41,7.11l0 1.59 -105.77 0 0 -1.59c8.4,0 16.3,-2.45 23.78,-7.23 7.54,-4.78 11.46,-11.33 11.95,-19.73l0 -202.34c-1.28,-7.54 -5.51,-13.48 -12.74,-17.83 -7.17,-4.35 -14.7,-6.56 -22.61,-6.56l0 -1.65 119.19 0c16.18,0 30.94,2.27 44.36,6.74 13.42,4.54 24.08,11.4 32.05,20.65 7.96,9.31 11.95,21.08 11.95,35.3 0,10.05 -2.02,18.81 -6.13,26.23 -8.33,15.56 -21.94,26.04 -40.75,31.37 -10.85,3.25 -20.59,4.9 -29.05,4.9 15.87,4.66 28.56,12.62 38.06,23.96 9.44,11.28 16.61,24.08 21.51,38.3 4.9,14.28 8.64,28.19 11.15,41.85 2.39,7.05 6.8,13.17 13.3,18.32 6.44,5.15 13.73,7.72 21.88,7.72l0 1.59zm-118.33 -136.65c10.78,0 20.22,-2.82 28.31,-8.52 8.09,-5.7 14.34,-12.93 18.87,-21.81 4.48,-8.82 6.68,-17.95 6.68,-27.27 0,-9.07 -2.2,-18.07 -6.62,-26.9 -4.41,-8.88 -10.66,-16.18 -18.75,-21.94 -8.09,-5.76 -17.59,-8.58 -28.49,-8.58l-27.64 0c-5.94,0 -11.03,2.08 -15.26,6.25 -4.17,4.17 -6.25,9.25 -6.25,15.26l0 93.51 49.15 0z"/>
  <path id="_7_61" class="fil0" d="M3102.41 5303.33l-107.54 0 0 -1.59c5.64,0 11.4,-0.86 17.34,-2.45 5.94,-1.59 10.6,-4.35 14.09,-8.15 2.39,-2.88 3.61,-6.49 3.61,-10.78 0,-1.78 -0.19,-3.68 -0.55,-5.57l0.19 0c-2.39,-15.2 -6.07,-30.46 -11.03,-45.84 -5.02,-15.38 -12.56,-28.43 -22.73,-39.15 -10.17,-10.72 -24.33,-16.67 -42.41,-17.89l-18.44 0 0 103.25c0.61,8.27 4.54,14.77 11.95,19.49 7.35,4.72 15.13,7.11 23.41,7.11l0 1.59 -105.77 0 0 -1.59c8.4,0 16.3,-2.45 23.78,-7.23 7.54,-4.78 11.46,-11.33 11.95,-19.73l0 -202.34c-1.28,-7.54 -5.51,-13.48 -12.74,-17.83 -7.17,-4.35 -14.7,-6.56 -22.61,-6.56l0 -1.65 119.19 0c16.18,0 30.94,2.27 44.36,6.74 13.42,4.54 24.08,11.4 32.05,20.65 7.96,9.31 11.95,21.08 11.95,35.3 0,10.05 -2.02,18.81 -6.13,26.23 -8.33,15.56 -21.94,26.04 -40.75,31.37 -10.85,3.25 -20.59,4.9 -29.05,4.9 15.87,4.66 28.56,12.62 38.06,23.96 9.44,11.28 16.61,24.08 21.51,38.3 4.9,14.28 8.64,28.19 11.15,41.85 2.39,7.05 6.8,13.17 13.3,18.32 6.44,5.15 13.73,7.72 21.88,7.72l0 1.59zm-118.33 -136.65c10.78,0 20.22,-2.82 28.31,-8.52 8.09,-5.7 14.34,-12.93 18.87,-21.81 4.48,-8.82 6.68,-17.95 6.68,-27.27 0,-9.07 -2.2,-18.07 -6.62,-26.9 -4.41,-8.88 -10.66,-16.18 -18.75,-21.94 -8.09,-5.76 -17.59,-8.58 -28.49,-8.58l-27.64 0c-5.94,0 -11.03,2.08 -15.26,6.25 -4.17,4.17 -6.25,9.25 -6.25,15.26l0 93.51 49.15 0z"/>
  <path id="_8_62" class="fil0" d="M3362.42 5302.96l-105.77 0 0 -1.59c8.4,0 16.3,-2.39 23.78,-7.11 7.54,-4.72 11.52,-11.33 12.13,-19.85l0 -199.64c-0.61,-8.46 -4.59,-15.07 -12.13,-19.79 -7.47,-4.72 -15.38,-7.11 -23.78,-7.11l0 -1.59 105.77 0 0 1.59c-8.15,0 -15.87,2.39 -23.22,7.11 -7.42,4.72 -11.46,11.21 -12.13,19.48l0 200.32c0.67,8.27 4.72,14.77 12.13,19.48 7.35,4.72 15.07,7.11 23.22,7.11l0 1.59z"/>
  <path id="_9_63" class="fil0" d="M3743.26 5312.64c-9.5,0 -18.38,-2.26 -26.78,-6.8 -6.8,-3.61 -13.67,-8.09 -20.46,-13.48 -15.93,7.05 -32.97,10.6 -51.17,10.6 -23.59,0 -45.04,-5.76 -64.46,-17.34 -19.36,-11.52 -34.8,-27.02 -46.39,-46.39 -11.52,-19.36 -17.34,-40.93 -17.34,-64.65 0,-23.53 5.82,-45.04 17.34,-64.41 11.58,-19.43 27.02,-34.87 46.39,-46.45 19.43,-11.52 40.87,-17.34 64.46,-17.34 23.72,0 45.22,5.82 64.65,17.34 19.36,11.58 34.87,27.02 46.39,46.45 11.58,19.37 17.34,40.87 17.34,64.41 0,20.71 -4.47,39.83 -13.36,57.35 -8.95,17.52 -21.08,32.23 -36.4,44.12 5.02,1.78 10.23,2.7 15.63,2.7 3.37,0 8.09,-0.61 14.09,-1.84 6.07,-1.16 14.04,-6 23.96,-14.52 0.61,-0.49 1.29,-0.74 2.02,-0.74 0.55,0.12 1.1,0.43 1.59,0.92 2.27,3.13 3.43,7.78 3.43,13.97 0,1.35 -0.19,4.47 -0.49,9.44 -0.3,4.96 -3.92,10.85 -10.84,17.71 -6.25,5.94 -16.12,8.94 -29.6,8.94zm-39.16 -45.22c10.3,-12.07 18.39,-26.23 24.33,-42.46 5.94,-16.24 8.89,-32.97 8.89,-50.37 0,-15.44 -2.39,-30.52 -7.17,-45.22 -4.78,-14.7 -11.4,-27.94 -19.85,-39.65 -8.46,-11.77 -18.26,-21.08 -29.41,-28 -11.21,-6.98 -23.22,-10.42 -36.03,-10.42 -12.69,0 -24.63,3.43 -35.78,10.42 -11.22,6.93 -21.02,16.24 -29.48,28 -8.39,11.7 -15.01,24.94 -19.85,39.65 -4.78,14.71 -7.17,29.78 -7.17,45.22 0,25.37 6.19,49.2 18.51,71.45 17.22,-9.8 32.84,-14.71 46.87,-14.71 13.24,0 25.61,2.64 37.07,7.91 11.4,5.27 22.24,11.34 32.54,18.14 5.64,3.62 11.15,6.93 16.54,10.05zm-59.26 30.33c14.59,0 28.13,-4.47 40.57,-13.48 -9.44,-7.78 -19.67,-15.13 -30.7,-22.12 -10.97,-7.05 -23.28,-12.07 -36.77,-15.2 -6,-1.41 -12.38,-2.14 -19.24,-2.14 -8.27,0 -17.09,1.04 -26.53,3.25 8.58,14.83 19.18,26.84 31.74,35.97 12.56,9.13 26.23,13.72 40.93,13.72z"/>
  <path id="_10_64" class="fil0" d="M4080.05 5302.96c-18.75,0 -35.91,-2.88 -51.29,-8.7 -15.44,-5.82 -27.76,-14.46 -36.95,-26.04 -9.13,-11.52 -13.73,-25.74 -13.73,-42.65l0 -154.54c-1.65,-7.3 -6.06,-12.99 -13.23,-17.04 -7.23,-4.11 -14.71,-6.13 -22.49,-6.13l0 -1.78 105.77 0 0 1.78c-7.66,0 -15.07,2.02 -22.24,6.13 -7.23,4.04 -11.64,9.74 -13.3,17.04l0 154.54c0,12.26 2.88,23.84 8.58,34.87 5.76,10.97 13.73,19.98 23.84,27.02 10.11,6.99 21.81,10.48 35.05,10.48 15.07,0 28.86,-3.25 41.3,-9.8 12.44,-6.5 22.37,-15.26 29.72,-26.17 7.35,-10.97 11.03,-23.1 11.03,-36.4l0 -159.02c-1.29,-5.76 -5.7,-10.29 -13.11,-13.66 -7.41,-3.37 -14.34,-5.03 -20.78,-5.03l0 -1.78 72.86 0 0 1.78c-6.31,0 -13.24,1.66 -20.65,5.03 -7.41,3.37 -11.76,7.9 -13.11,13.66l0 159.02c0,14.28 -3.92,27.27 -11.77,38.97 -7.84,11.77 -18.32,21.08 -31.56,28 -13.24,6.93 -27.88,10.42 -43.94,10.42z"/>
  <path id="_11_65" class="fil0" d="M4557.29 5302.96l-201.97 0 0 -1.59c7.91,0 15.5,-2.21 22.74,-6.5 7.23,-4.29 11.52,-10.3 12.81,-17.96l0 -204.67c-1.29,-7.54 -5.58,-13.48 -12.81,-17.83 -7.23,-4.35 -14.83,-6.56 -22.74,-6.56l0 -1.59 191.92 0 3.43 52.39 -1.65 0c0,-4.9 -1.47,-10.78 -4.54,-17.59 -3.06,-6.8 -7.78,-13.11 -14.09,-18.87 -6.37,-5.7 -14.52,-9.31 -24.45,-10.72l-61.22 0c-5.27,0 -9.74,1.84 -13.54,5.51 -3.74,3.74 -5.64,8.28 -5.64,13.67l0 101.23 64.1 0c5.76,-1.29 10.3,-5.64 13.6,-13.11 3.37,-7.41 5.09,-14.28 5.21,-20.59l1.65 0 0 72.86 -1.65 0c-0.12,-6.44 -1.84,-13.42 -5.21,-20.83 -3.31,-7.42 -7.84,-11.77 -13.6,-13.11l-64.1 0 0 98.41c0,6.19 2.15,11.52 6.56,15.87 4.35,4.35 9.68,6.56 15.87,6.56l62.81 0c9.99,-1.65 18.5,-6.25 25.67,-13.67 7.23,-7.41 12.74,-15.38 16.61,-23.83 3.92,-8.52 5.88,-15.26 5.88,-20.28l1.78 0 -3.43 62.81z"/>
  <path id="_12_66" class="fil0" d="M4931.64 5302.96l-4.84 0 -169.8 -234.44 0 212.75c0.67,6.07 4.72,10.91 12.01,14.52 7.29,3.56 14.15,5.46 20.65,5.58l0 1.59 -70.22 0 0 -1.59c6.37,-0.12 13.24,-2.02 20.59,-5.58 7.35,-3.61 11.4,-8.39 12.07,-14.34l0 -204.48c0,-5.76 -1.78,-10.84 -5.45,-15.2 -3.61,-4.35 -8.15,-7.78 -13.54,-10.29 -5.39,-2.52 -10.85,-3.8 -16.36,-3.8l0 -1.59 66.8 0 143.26 200.13 -0.18 -178.44c-0.61,-6.07 -4.6,-10.97 -11.95,-14.52 -7.35,-3.61 -14.22,-5.45 -20.53,-5.57l0 -1.59 70.16 0 0 1.78c-6.31,0 -13.11,1.78 -20.47,5.27 -7.29,3.56 -11.33,8.33 -12.19,14.28l0 235.55zm-63.54 -292.78c-5.39,0 -10.36,-2.02 -14.89,-6.13 -4.17,-3.56 -8.28,-5.39 -12.2,-5.39 -0.98,0 -3,0.37 -6,1.1 -3.06,0.74 -6.13,3.74 -9.07,9.13l-8.82 -9.5c3.8,-11.4 9.31,-18.14 16.54,-20.28 2.27,-0.74 4.54,-1.1 6.8,-1.1 4.54,0 8.95,1.59 13.3,4.72 5.82,4.54 10.78,6.8 14.89,6.8 0.61,0 2.08,-0.19 4.59,-0.55 2.45,-0.37 5.52,-2.7 9.19,-6.99l7.91 11.46c-5.7,11.15 -13.18,16.73 -22.24,16.73z"/>
  <path id="_13_67" class="fil0" d="M5385.22 5302.96l-108.09 0 0 -1.59c5.27,0 11.09,-0.8 17.4,-2.33 6.37,-1.59 11.52,-4.04 15.44,-7.41 3,-2.51 4.54,-5.57 4.54,-9.31 0,-1.29 -0.19,-2.63 -0.55,-3.92l-33.03 -87.81 -88.36 0 -34.81 92.65c-0.24,1.16 -0.37,2.26 -0.37,3.24 0,3.31 1.72,6.19 5.21,8.52 3.49,2.33 8.15,3.98 14.09,4.9 5.94,0.98 10.84,1.47 14.83,1.47l0 1.59 -72.92 0 0 -1.59c6.01,0 12.13,-1.41 18.32,-4.23 6.25,-2.82 11.4,-7.6 15.44,-14.28 5.27,-14.03 12.01,-31.86 20.22,-53.62 8.15,-21.69 16.42,-43.63 24.76,-65.87 8.33,-22.18 15.38,-40.99 21.08,-56.37 5.76,-15.38 8.89,-23.84 9.37,-25.37 0.8,-3.37 1.23,-6.5 1.23,-9.37 0,-3.8 -1.11,-7.66 -3.31,-11.58 -2.2,-3.86 -5.82,-6.98 -10.78,-9.31 -4.96,-2.33 -9.74,-3.49 -14.28,-3.49l-0.74 0 0 -1.78 63.61 0 86.16 229.42c7.54,17.22 19.36,25.86 35.54,25.86l0 1.59zm-106.26 -117.59l-42.22 -112.38 -42.34 112.38 84.56 0z"/>
  <path id="_14_68" class="fil1 str0" d="M203.23 5302.94l-115.38 0 0 -1.74c9.16,0 17.78,-2.61 25.94,-7.76 8.22,-5.15 12.5,-12.37 13.04,-21.66l0 -220.73c-1.4,-8.22 -6.02,-14.64 -13.9,-19.39 -7.82,-4.68 -16.04,-7.02 -24.67,-7.02l0 -1.94 135.7 0c17.65,0 33.76,2.47 48.39,7.42 14.64,4.94 26.27,12.5 34.96,22.59 8.69,10.16 13.04,22.99 13.04,38.5 0,15.51 -4.34,28.34 -13.04,38.5 -8.69,10.09 -20.32,17.65 -34.96,22.59 -14.64,4.95 -30.75,7.42 -48.39,7.42l-59.3 0 0 112.44c0.67,9.02 4.95,16.11 13.04,21.26 8.02,5.15 16.51,7.76 25.54,7.76l0 1.74zm20.72 -148.8c11.76,0 22.06,-3.14 30.88,-9.43 8.82,-6.28 15.64,-14.24 20.52,-23.8 4.95,-9.63 7.35,-19.52 7.35,-29.68 0,-10.03 -2.41,-19.92 -7.22,-29.55 -4.81,-9.69 -11.63,-17.65 -20.45,-23.93 -8.82,-6.28 -19.19,-9.36 -31.08,-9.36l-35.83 0c-6.48,0 -12.03,2.28 -16.65,6.82 -4.54,4.61 -6.82,10.16 -6.82,16.65l0 102.28 59.3 0z"/>
  <path id="_15_69" class="fil1 str0" d="M626.14 5302.96c-18.75,0 -35.91,-2.88 -51.29,-8.7 -15.44,-5.82 -27.76,-14.46 -36.95,-26.04 -9.13,-11.52 -13.73,-25.74 -13.73,-42.65l0 -154.54c-1.65,-7.3 -6.06,-12.99 -13.23,-17.04 -7.23,-4.11 -14.71,-6.13 -22.49,-6.13l0 -1.78 105.77 0 0 1.78c-7.66,0 -15.07,2.02 -22.24,6.13 -7.23,4.04 -11.64,9.74 -13.3,17.04l0 154.54c0,12.26 2.88,23.84 8.58,34.87 5.76,10.97 13.73,19.98 23.84,27.02 10.11,6.99 21.81,10.48 35.05,10.48 15.07,0 28.86,-3.25 41.3,-9.8 12.44,-6.5 22.37,-15.26 29.72,-26.17 7.35,-10.97 11.03,-23.1 11.03,-36.4l0 -159.02c-1.29,-5.76 -5.7,-10.29 -13.11,-13.66 -7.41,-3.37 -14.34,-5.03 -20.78,-5.03l0 -1.78 72.86 0 0 1.78c-6.31,0 -13.24,1.66 -20.65,5.03 -7.41,3.37 -11.76,7.9 -13.11,13.66l0 159.02c0,14.28 -3.92,27.27 -11.77,38.97 -7.84,11.77 -18.32,21.08 -31.56,28 -13.24,6.93 -27.88,10.42 -43.94,10.42z"/>
  <path id="_16_70" class="fil1 str0" d="M1103.37 5302.96l-201.97 0 0 -1.59c7.91,0 15.5,-2.21 22.74,-6.5 7.23,-4.29 11.52,-10.3 12.81,-17.96l0 -204.67c-1.29,-7.54 -5.58,-13.48 -12.81,-17.83 -7.23,-4.35 -14.83,-6.56 -22.74,-6.56l0 -1.59 191.92 0 3.43 52.39 -1.65 0c0,-4.9 -1.47,-10.78 -4.54,-17.59 -3.06,-6.8 -7.78,-13.11 -14.09,-18.87 -6.37,-5.7 -14.52,-9.31 -24.45,-10.72l-61.22 0c-5.27,0 -9.74,1.84 -13.54,5.51 -3.74,3.74 -5.64,8.28 -5.64,13.67l0 101.23 64.1 0c5.76,-1.29 10.3,-5.64 13.6,-13.11 3.37,-7.41 5.09,-14.28 5.21,-20.59l1.65 0 0 72.86 -1.65 0c-0.12,-6.44 -1.84,-13.42 -5.21,-20.83 -3.31,-7.42 -7.84,-11.77 -13.6,-13.11l-64.1 0 0 98.41c0,6.19 2.15,11.52 6.56,15.87 4.35,4.35 9.68,6.56 15.87,6.56l62.81 0c9.99,-1.65 18.5,-6.25 25.67,-13.67 7.23,-7.41 12.74,-15.38 16.61,-23.83 3.92,-8.52 5.88,-15.26 5.88,-20.28l1.78 0 -3.43 62.81z"/>
  <path id="_17_71" class="fil1 str0" d="M1500.7 5303.33l-107.54 0 0 -1.59c5.64,0 11.4,-0.86 17.34,-2.45 5.94,-1.59 10.6,-4.35 14.09,-8.15 2.39,-2.88 3.61,-6.49 3.61,-10.78 0,-1.78 -0.19,-3.68 -0.55,-5.57l0.19 0c-2.39,-15.2 -6.07,-30.46 -11.03,-45.84 -5.02,-15.38 -12.56,-28.43 -22.73,-39.15 -10.17,-10.72 -24.33,-16.67 -42.41,-17.89l-18.44 0 0 103.25c0.61,8.27 4.54,14.77 11.95,19.49 7.35,4.72 15.13,7.11 23.41,7.11l0 1.59 -105.77 0 0 -1.59c8.4,0 16.3,-2.45 23.78,-7.23 7.54,-4.78 11.46,-11.33 11.95,-19.73l0 -202.34c-1.28,-7.54 -5.51,-13.48 -12.74,-17.83 -7.17,-4.35 -14.7,-6.56 -22.61,-6.56l0 -1.65 119.19 0c16.18,0 30.94,2.27 44.36,6.74 13.42,4.54 24.08,11.4 32.05,20.65 7.96,9.31 11.95,21.08 11.95,35.3 0,10.05 -2.02,18.81 -6.13,26.23 -8.33,15.56 -21.94,26.04 -40.75,31.37 -10.85,3.25 -20.59,4.9 -29.05,4.9 15.87,4.66 28.56,12.62 38.06,23.96 9.44,11.28 16.61,24.08 21.51,38.3 4.9,14.28 8.64,28.19 11.15,41.85 2.39,7.05 6.8,13.17 13.3,18.32 6.44,5.15 13.73,7.72 21.88,7.72l0 1.59zm-118.33 -136.65c10.78,0 20.22,-2.82 28.31,-8.52 8.09,-5.7 14.34,-12.93 18.87,-21.81 4.48,-8.82 6.68,-17.95 6.68,-27.27 0,-9.07 -2.2,-18.07 -6.62,-26.9 -4.41,-8.88 -10.66,-16.18 -18.75,-21.94 -8.09,-5.76 -17.59,-8.58 -28.49,-8.58l-27.64 0c-5.94,0 -11.03,2.08 -15.26,6.25 -4.17,4.17 -6.25,9.25 -6.25,15.26l0 93.51 49.15 0z"/>
  <path id="_18_72" class="fil1 str0" d="M1831.06 5302.96l-105.7 0 0 -1.59c8.33,0 16.3,-2.39 23.78,-7.11 7.48,-4.72 11.46,-11.33 11.95,-19.85l0 -223.11 -56.37 0c-9.93,1.65 -18.51,6.19 -25.68,13.54 -7.17,7.35 -12.69,15.26 -16.54,23.78 -3.8,8.52 -5.76,15.26 -5.88,20.28l-1.66 0 3.43 -62.81 240.94 0 3.55 62.81 -1.78 0c0,-5.03 -1.96,-11.77 -5.82,-20.28 -3.92,-8.52 -9.44,-16.43 -16.54,-23.78 -7.11,-7.35 -15.69,-11.89 -25.74,-13.54l-57.3 0 0 223.48c0.61,8.27 4.59,14.77 11.95,19.48 7.35,4.72 15.2,7.11 23.41,7.11l0 1.59z"/>
  <path id="_19_73" class="fil1 str0" d="M2185.31 5302.96c-23.59,0 -45.1,-5.76 -64.52,-17.34 -19.43,-11.52 -34.93,-27.02 -46.39,-46.39 -11.52,-19.36 -17.28,-40.93 -17.28,-64.65 0,-23.53 5.76,-45.04 17.28,-64.41 11.46,-19.43 26.96,-34.87 46.39,-46.45 19.43,-11.52 40.93,-17.34 64.52,-17.34 23.72,0 45.22,5.82 64.65,17.34 19.36,11.58 34.87,27.02 46.39,46.45 11.58,19.37 17.34,40.87 17.34,64.41 0,23.71 -5.76,45.28 -17.34,64.65 -11.52,19.37 -27.02,34.87 -46.39,46.39 -19.43,11.58 -40.93,17.34 -64.65,17.34zm0 -5.21c12.81,0 24.82,-3.49 36.03,-10.42 11.15,-6.92 20.96,-16.24 29.41,-27.88 8.46,-11.7 15.07,-24.88 19.85,-39.53 4.78,-14.65 7.17,-29.78 7.17,-45.34 0,-15.44 -2.39,-30.52 -7.17,-45.22 -4.78,-14.7 -11.4,-27.94 -19.85,-39.65 -8.46,-11.77 -18.26,-21.08 -29.41,-28 -11.21,-6.98 -23.22,-10.42 -36.03,-10.42 -12.69,0 -24.63,3.43 -35.78,10.42 -11.22,6.93 -21.02,16.24 -29.48,28 -8.39,11.7 -15.07,24.94 -19.91,39.65 -4.84,14.71 -7.3,29.78 -7.3,45.22 0,15.56 2.45,30.7 7.3,45.34 4.84,14.65 11.52,27.82 19.91,39.53 8.46,11.64 18.26,20.96 29.48,27.88 11.15,6.93 23.1,10.42 35.78,10.42z"/>
  <path id="_20_74" class="fil1 str0" d="M2710.29 5303.33l-107.54 0 0 -1.59c5.64,0 11.4,-0.86 17.34,-2.45 5.94,-1.59 10.6,-4.35 14.09,-8.15 2.39,-2.88 3.61,-6.49 3.61,-10.78 0,-1.78 -0.19,-3.68 -0.55,-5.57l0.19 0c-2.39,-15.2 -6.07,-30.46 -11.03,-45.84 -5.02,-15.38 -12.56,-28.43 -22.73,-39.15 -10.17,-10.72 -24.33,-16.67 -42.41,-17.89l-18.44 0 0 103.25c0.61,8.27 4.54,14.77 11.95,19.49 7.35,4.72 15.13,7.11 23.41,7.11l0 1.59 -105.77 0 0 -1.59c8.4,0 16.3,-2.45 23.78,-7.23 7.54,-4.78 11.46,-11.33 11.95,-19.73l0 -202.34c-1.28,-7.54 -5.51,-13.48 -12.74,-17.83 -7.17,-4.35 -14.7,-6.56 -22.61,-6.56l0 -1.65 119.19 0c16.18,0 30.94,2.27 44.36,6.74 13.42,4.54 24.08,11.4 32.05,20.65 7.96,9.31 11.95,21.08 11.95,35.3 0,10.05 -2.02,18.81 -6.13,26.23 -8.33,15.56 -21.94,26.04 -40.75,31.37 -10.85,3.25 -20.59,4.9 -29.05,4.9 15.87,4.66 28.56,12.62 38.06,23.96 9.44,11.28 16.61,24.08 21.51,38.3 4.9,14.28 8.64,28.19 11.15,41.85 2.39,7.05 6.8,13.17 13.3,18.32 6.44,5.15 13.73,7.72 21.88,7.72l0 1.59zm-118.33 -136.65c10.78,0 20.22,-2.82 28.31,-8.52 8.09,-5.7 14.34,-12.93 18.87,-21.81 4.48,-8.82 6.68,-17.95 6.68,-27.27 0,-9.07 -2.2,-18.07 -6.62,-26.9 -4.41,-8.88 -10.66,-16.18 -18.75,-21.94 -8.09,-5.76 -17.59,-8.58 -28.49,-8.58l-27.64 0c-5.94,0 -11.03,2.08 -15.26,6.25 -4.17,4.17 -6.25,9.25 -6.25,15.26l0 93.51 49.15 0z"/>
  <path id="_21_75" class="fil1 str0" d="M3102.41 5303.33l-107.54 0 0 -1.59c5.64,0 11.4,-0.86 17.34,-2.45 5.94,-1.59 10.6,-4.35 14.09,-8.15 2.39,-2.88 3.61,-6.49 3.61,-10.78 0,-1.78 -0.19,-3.68 -0.55,-5.57l0.19 0c-2.39,-15.2 -6.07,-30.46 -11.03,-45.84 -5.02,-15.38 -12.56,-28.43 -22.73,-39.15 -10.17,-10.72 -24.33,-16.67 -42.41,-17.89l-18.44 0 0 103.25c0.61,8.27 4.54,14.77 11.95,19.49 7.35,4.72 15.13,7.11 23.41,7.11l0 1.59 -105.77 0 0 -1.59c8.4,0 16.3,-2.45 23.78,-7.23 7.54,-4.78 11.46,-11.33 11.95,-19.73l0 -202.34c-1.28,-7.54 -5.51,-13.48 -12.74,-17.83 -7.17,-4.35 -14.7,-6.56 -22.61,-6.56l0 -1.65 119.19 0c16.18,0 30.94,2.27 44.36,6.74 13.42,4.54 24.08,11.4 32.05,20.65 7.96,9.31 11.95,21.08 11.95,35.3 0,10.05 -2.02,18.81 -6.13,26.23 -8.33,15.56 -21.94,26.04 -40.75,31.37 -10.85,3.25 -20.59,4.9 -29.05,4.9 15.87,4.66 28.56,12.62 38.06,23.96 9.44,11.28 16.61,24.08 21.51,38.3 4.9,14.28 8.64,28.19 11.15,41.85 2.39,7.05 6.8,13.17 13.3,18.32 6.44,5.15 13.73,7.72 21.88,7.72l0 1.59zm-118.33 -136.65c10.78,0 20.22,-2.82 28.31,-8.52 8.09,-5.7 14.34,-12.93 18.87,-21.81 4.48,-8.82 6.68,-17.95 6.68,-27.27 0,-9.07 -2.2,-18.07 -6.62,-26.9 -4.41,-8.88 -10.66,-16.18 -18.75,-21.94 -8.09,-5.76 -17.59,-8.58 -28.49,-8.58l-27.64 0c-5.94,0 -11.03,2.08 -15.26,6.25 -4.17,4.17 -6.25,9.25 -6.25,15.26l0 93.51 49.15 0z"/>
  <path id="_22" class="fil1 str0" d="M3362.42 5302.96l-105.77 0 0 -1.59c8.4,0 16.3,-2.39 23.78,-7.11 7.54,-4.72 11.52,-11.33 12.13,-19.85l0 -199.64c-0.61,-8.46 -4.59,-15.07 -12.13,-19.79 -7.47,-4.72 -15.38,-7.11 -23.78,-7.11l0 -1.59 105.77 0 0 1.59c-8.15,0 -15.87,2.39 -23.22,7.11 -7.42,4.72 -11.46,11.21 -12.13,19.48l0 200.32c0.67,8.27 4.72,14.77 12.13,19.48 7.35,4.72 15.07,7.11 23.22,7.11l0 1.59z"/>
  <path id="_23" class="fil1 str0" d="M3743.26 5312.64c-9.5,0 -18.38,-2.26 -26.78,-6.8 -6.8,-3.61 -13.67,-8.09 -20.46,-13.48 -15.93,7.05 -32.97,10.6 -51.17,10.6 -23.59,0 -45.04,-5.76 -64.46,-17.34 -19.36,-11.52 -34.8,-27.02 -46.39,-46.39 -11.52,-19.36 -17.34,-40.93 -17.34,-64.65 0,-23.53 5.82,-45.04 17.34,-64.41 11.58,-19.43 27.02,-34.87 46.39,-46.45 19.43,-11.52 40.87,-17.34 64.46,-17.34 23.72,0 45.22,5.82 64.65,17.34 19.36,11.58 34.87,27.02 46.39,46.45 11.58,19.37 17.34,40.87 17.34,64.41 0,20.71 -4.47,39.83 -13.36,57.35 -8.95,17.52 -21.08,32.23 -36.4,44.12 5.02,1.78 10.23,2.7 15.63,2.7 3.37,0 8.09,-0.61 14.09,-1.84 6.07,-1.16 14.04,-6 23.96,-14.52 0.61,-0.49 1.29,-0.74 2.02,-0.74 0.55,0.12 1.1,0.43 1.59,0.92 2.27,3.13 3.43,7.78 3.43,13.97 0,1.35 -0.19,4.47 -0.49,9.44 -0.3,4.96 -3.92,10.85 -10.84,17.71 -6.25,5.94 -16.12,8.94 -29.6,8.94zm-39.16 -45.22c10.3,-12.07 18.39,-26.23 24.33,-42.46 5.94,-16.24 8.89,-32.97 8.89,-50.37 0,-15.44 -2.39,-30.52 -7.17,-45.22 -4.78,-14.7 -11.4,-27.94 -19.85,-39.65 -8.46,-11.77 -18.26,-21.08 -29.41,-28 -11.21,-6.98 -23.22,-10.42 -36.03,-10.42 -12.69,0 -24.63,3.43 -35.78,10.42 -11.22,6.93 -21.02,16.24 -29.48,28 -8.39,11.7 -15.01,24.94 -19.85,39.65 -4.78,14.71 -7.17,29.78 -7.17,45.22 0,25.37 6.19,49.2 18.51,71.45 17.22,-9.8 32.84,-14.71 46.87,-14.71 13.24,0 25.61,2.64 37.07,7.91 11.4,5.27 22.24,11.34 32.54,18.14 5.64,3.62 11.15,6.93 16.54,10.05zm-59.26 30.33c14.59,0 28.13,-4.47 40.57,-13.48 -9.44,-7.78 -19.67,-15.13 -30.7,-22.12 -10.97,-7.05 -23.28,-12.07 -36.77,-15.2 -6,-1.41 -12.38,-2.14 -19.24,-2.14 -8.27,0 -17.09,1.04 -26.53,3.25 8.58,14.83 19.18,26.84 31.74,35.97 12.56,9.13 26.23,13.72 40.93,13.72z"/>
  <path id="_24" class="fil1 str0" d="M4080.05 5302.96c-18.75,0 -35.91,-2.88 -51.29,-8.7 -15.44,-5.82 -27.76,-14.46 -36.95,-26.04 -9.13,-11.52 -13.73,-25.74 -13.73,-42.65l0 -154.54c-1.65,-7.3 -6.06,-12.99 -13.23,-17.04 -7.23,-4.11 -14.71,-6.13 -22.49,-6.13l0 -1.78 105.77 0 0 1.78c-7.66,0 -15.07,2.02 -22.24,6.13 -7.23,4.04 -11.64,9.74 -13.3,17.04l0 154.54c0,12.26 2.88,23.84 8.58,34.87 5.76,10.97 13.73,19.98 23.84,27.02 10.11,6.99 21.81,10.48 35.05,10.48 15.07,0 28.86,-3.25 41.3,-9.8 12.44,-6.5 22.37,-15.26 29.72,-26.17 7.35,-10.97 11.03,-23.1 11.03,-36.4l0 -159.02c-1.29,-5.76 -5.7,-10.29 -13.11,-13.66 -7.41,-3.37 -14.34,-5.03 -20.78,-5.03l0 -1.78 72.86 0 0 1.78c-6.31,0 -13.24,1.66 -20.65,5.03 -7.41,3.37 -11.76,7.9 -13.11,13.66l0 159.02c0,14.28 -3.92,27.27 -11.77,38.97 -7.84,11.77 -18.32,21.08 -31.56,28 -13.24,6.93 -27.88,10.42 -43.94,10.42z"/>
  <path id="_25" class="fil1 str0" d="M4557.29 5302.96l-201.97 0 0 -1.59c7.91,0 15.5,-2.21 22.74,-6.5 7.23,-4.29 11.52,-10.3 12.81,-17.96l0 -204.67c-1.29,-7.54 -5.58,-13.48 -12.81,-17.83 -7.23,-4.35 -14.83,-6.56 -22.74,-6.56l0 -1.59 191.92 0 3.43 52.39 -1.65 0c0,-4.9 -1.47,-10.78 -4.54,-17.59 -3.06,-6.8 -7.78,-13.11 -14.09,-18.87 -6.37,-5.7 -14.52,-9.31 -24.45,-10.72l-61.22 0c-5.27,0 -9.74,1.84 -13.54,5.51 -3.74,3.74 -5.64,8.28 -5.64,13.67l0 101.23 64.1 0c5.76,-1.29 10.3,-5.64 13.6,-13.11 3.37,-7.41 5.09,-14.28 5.21,-20.59l1.65 0 0 72.86 -1.65 0c-0.12,-6.44 -1.84,-13.42 -5.21,-20.83 -3.31,-7.42 -7.84,-11.77 -13.6,-13.11l-64.1 0 0 98.41c0,6.19 2.15,11.52 6.56,15.87 4.35,4.35 9.68,6.56 15.87,6.56l62.81 0c9.99,-1.65 18.5,-6.25 25.67,-13.67 7.23,-7.41 12.74,-15.38 16.61,-23.83 3.92,-8.52 5.88,-15.26 5.88,-20.28l1.78 0 -3.43 62.81z"/>
  <path id="_26" class="fil1 str0" d="M4931.64 5302.96l-4.84 0 -169.8 -234.44 0 212.75c0.67,6.07 4.72,10.91 12.01,14.52 7.29,3.56 14.15,5.46 20.65,5.58l0 1.59 -70.22 0 0 -1.59c6.37,-0.12 13.24,-2.02 20.59,-5.58 7.35,-3.61 11.4,-8.39 12.07,-14.34l0 -204.48c0,-5.76 -1.78,-10.84 -5.45,-15.2 -3.61,-4.35 -8.15,-7.78 -13.54,-10.29 -5.39,-2.52 -10.85,-3.8 -16.36,-3.8l0 -1.59 66.8 0 143.26 200.13 -0.18 -178.44c-0.61,-6.07 -4.6,-10.97 -11.95,-14.52 -7.35,-3.61 -14.22,-5.45 -20.53,-5.57l0 -1.59 70.16 0 0 1.78c-6.31,0 -13.11,1.78 -20.47,5.27 -7.29,3.56 -11.33,8.33 -12.19,14.28l0 235.55zm-63.54 -292.78c-5.39,0 -10.36,-2.02 -14.89,-6.13 -4.17,-3.56 -8.28,-5.39 -12.2,-5.39 -0.98,0 -3,0.37 -6,1.1 -3.06,0.74 -6.13,3.74 -9.07,9.13l-8.82 -9.5c3.8,-11.4 9.31,-18.14 16.54,-20.28 2.27,-0.74 4.54,-1.1 6.8,-1.1 4.54,0 8.95,1.59 13.3,4.72 5.82,4.54 10.78,6.8 14.89,6.8 0.61,0 2.08,-0.19 4.59,-0.55 2.45,-0.37 5.52,-2.7 9.19,-6.99l7.91 11.46c-5.7,11.15 -13.18,16.73 -22.24,16.73z"/>
  <path id="_27" class="fil1 str0" d="M5385.22 5302.96l-108.09 0 0 -1.59c5.27,0 11.09,-0.8 17.4,-2.33 6.37,-1.59 11.52,-4.04 15.44,-7.41 3,-2.51 4.54,-5.57 4.54,-9.31 0,-1.29 -0.19,-2.63 -0.55,-3.92l-33.03 -87.81 -88.36 0 -34.81 92.65c-0.24,1.16 -0.37,2.26 -0.37,3.24 0,3.31 1.72,6.19 5.21,8.52 3.49,2.33 8.15,3.98 14.09,4.9 5.94,0.98 10.84,1.47 14.83,1.47l0 1.59 -72.92 0 0 -1.59c6.01,0 12.13,-1.41 18.32,-4.23 6.25,-2.82 11.4,-7.6 15.44,-14.28 5.27,-14.03 12.01,-31.86 20.22,-53.62 8.15,-21.69 16.42,-43.63 24.76,-65.87 8.33,-22.18 15.38,-40.99 21.08,-56.37 5.76,-15.38 8.89,-23.84 9.37,-25.37 0.8,-3.37 1.23,-6.5 1.23,-9.37 0,-3.8 -1.11,-7.66 -3.31,-11.58 -2.2,-3.86 -5.82,-6.98 -10.78,-9.31 -4.96,-2.33 -9.74,-3.49 -14.28,-3.49l-0.74 0 0 -1.78 63.61 0 86.16 229.42c7.54,17.22 19.36,25.86 35.54,25.86l0 1.59zm-106.26 -117.59l-42.22 -112.38 -42.34 112.38 84.56 0z"/>
  <polygon class="fil0" points="-0,4130.95 5473.09,4130.95 5473.09,4184.71 -0,4184.71 "/>
  <path class="fil0" d="M2543.6 4602.2l-52.48 0 0 -0.9c4.68,0 9.11,-1.32 13.3,-3.91 4.19,-2.6 6.51,-6.24 6.89,-10.91l0 -114.39c-0.66,-4.47 -3.05,-7.93 -7.14,-10.39 -4.09,-2.46 -8.45,-3.71 -13.06,-3.71l0 -1 52.48 0c19.67,0.07 35.51,2.94 47.46,8.66 11.92,5.72 20.54,14 25.81,24.8 5.3,10.84 7.93,23.9 7.93,39.18 0,14.55 -2.67,27.26 -8.04,38.17 -5.33,10.88 -14,19.33 -25.91,25.32 -11.95,5.99 -27.71,9.01 -47.25,9.08zm-0.21 -2.84c22.2,-0.21 38.28,-7.55 48.22,-22.03 8.45,-12.23 12.68,-28.13 12.68,-47.7 0,-19.68 -4.09,-35.58 -12.3,-47.7 -10.01,-14.65 -26.19,-22 -48.6,-22 -3.43,0 -6.41,1.21 -8.87,3.64 -2.49,2.43 -3.7,5.41 -3.7,8.94l0 114.28c0,3.43 1.21,6.41 3.7,8.87 2.46,2.46 5.44,3.7 8.87,3.7z"/>
  <path id="_1_76" class="fil0" d="M2755.28 4602.2l-114.18 0 0 -0.9c4.47,0 8.76,-1.25 12.85,-3.67 4.09,-2.43 6.51,-5.82 7.24,-10.15l0 -115.7c-0.73,-4.26 -3.15,-7.62 -7.24,-10.08 -4.09,-2.46 -8.39,-3.71 -12.85,-3.71l0 -0.9 108.5 0 1.94 29.62 -0.93 0c0,-2.77 -0.83,-6.1 -2.56,-9.94 -1.73,-3.84 -4.4,-7.41 -7.97,-10.67 -3.6,-3.22 -8.21,-5.26 -13.82,-6.06l-34.61 0c-2.98,0 -5.51,1.04 -7.66,3.11 -2.11,2.11 -3.19,4.68 -3.19,7.73l0 57.23 36.24 0c3.26,-0.73 5.82,-3.19 7.69,-7.41 1.91,-4.19 2.87,-8.07 2.94,-11.64l0.93 0 0 41.19 -0.93 0c-0.07,-3.64 -1.04,-7.59 -2.94,-11.78 -1.87,-4.19 -4.43,-6.65 -7.69,-7.41l-36.24 0 0 55.64c0,3.5 1.21,6.51 3.7,8.97 2.46,2.46 5.48,3.7 8.97,3.7l35.51 0c5.65,-0.93 10.46,-3.53 14.52,-7.72 4.09,-4.19 7.2,-8.7 9.39,-13.48 2.22,-4.81 3.32,-8.63 3.32,-11.46l1 0 -1.94 35.51z"/>
  <path id="_2_77" class="fil1 str0" d="M2543.6 4602.2l-52.48 0 0 -0.9c4.68,0 9.11,-1.32 13.3,-3.91 4.19,-2.6 6.51,-6.24 6.89,-10.91l0 -114.39c-0.66,-4.47 -3.05,-7.93 -7.14,-10.39 -4.09,-2.46 -8.45,-3.71 -13.06,-3.71l0 -1 52.48 0c19.67,0.07 35.51,2.94 47.46,8.66 11.92,5.72 20.54,14 25.81,24.8 5.3,10.84 7.93,23.9 7.93,39.18 0,14.55 -2.67,27.26 -8.04,38.17 -5.33,10.88 -14,19.33 -25.91,25.32 -11.95,5.99 -27.71,9.01 -47.25,9.08zm-0.21 -2.84c22.2,-0.21 38.28,-7.55 48.22,-22.03 8.45,-12.23 12.68,-28.13 12.68,-47.7 0,-19.68 -4.09,-35.58 -12.3,-47.7 -10.01,-14.65 -26.19,-22 -48.6,-22 -3.43,0 -6.41,1.21 -8.87,3.64 -2.49,2.43 -3.7,5.41 -3.7,8.94l0 114.28c0,3.43 1.21,6.41 3.7,8.87 2.46,2.46 5.44,3.7 8.87,3.7z"/>
  <path id="_3_78" class="fil1 str0" d="M2755.28 4602.2l-114.18 0 0 -0.9c4.47,0 8.76,-1.25 12.85,-3.67 4.09,-2.43 6.51,-5.82 7.24,-10.15l0 -115.7c-0.73,-4.26 -3.15,-7.62 -7.24,-10.08 -4.09,-2.46 -8.39,-3.71 -12.85,-3.71l0 -0.9 108.5 0 1.94 29.62 -0.93 0c0,-2.77 -0.83,-6.1 -2.56,-9.94 -1.73,-3.84 -4.4,-7.41 -7.97,-10.67 -3.6,-3.22 -8.21,-5.26 -13.82,-6.06l-34.61 0c-2.98,0 -5.51,1.04 -7.66,3.11 -2.11,2.11 -3.19,4.68 -3.19,7.73l0 57.23 36.24 0c3.26,-0.73 5.82,-3.19 7.69,-7.41 1.91,-4.19 2.87,-8.07 2.94,-11.64l0.93 0 0 41.19 -0.93 0c-0.07,-3.64 -1.04,-7.59 -2.94,-11.78 -1.87,-4.19 -4.43,-6.65 -7.69,-7.41l-36.24 0 0 55.64c0,3.5 1.21,6.51 3.7,8.97 2.46,2.46 5.48,3.7 8.97,3.7l35.51 0c5.65,-0.93 10.46,-3.53 14.52,-7.72 4.09,-4.19 7.2,-8.7 9.39,-13.48 2.22,-4.81 3.32,-8.63 3.32,-11.46l1 0 -1.94 35.51z"/>
  <path class="fil0" d="M2608.47 4819.53l-114.18 0 0 -1c4.47,0 8.76,-1.25 12.85,-3.67 4.09,-2.43 6.55,-5.82 7.34,-10.15l0 -114.28c-0.38,-4.71 -2.7,-8.42 -6.89,-11.05 -4.19,-2.63 -8.66,-3.95 -13.41,-3.95l0 -1.04 59.79 0 0 1.04c-4.54,0 -8.87,1.28 -12.99,3.85 -4.12,2.56 -6.48,6.13 -7,10.67l0 113.97c0,3.5 1.21,6.51 3.71,8.97 2.46,2.46 5.44,3.7 8.97,3.7l35.61 0c5.61,-0.93 10.46,-3.5 14.52,-7.65 4.05,-4.16 7.17,-8.66 9.35,-13.44 2.15,-4.81 3.26,-8.62 3.32,-11.46l0.94 0 -1.94 35.51z"/>
  <path id="_1_79" class="fil0" d="M2779.13 4819.43l-61.11 0 0 -0.9c2.98,0 6.27,-0.45 9.84,-1.32 3.6,-0.9 6.51,-2.28 8.73,-4.19 1.7,-1.42 2.57,-3.15 2.57,-5.27 0,-0.72 -0.11,-1.49 -0.31,-2.22l-18.67 -49.64 -49.95 0 -19.68 52.38c-0.14,0.66 -0.21,1.28 -0.21,1.84 0,1.87 0.97,3.5 2.94,4.81 1.97,1.31 4.61,2.25 7.97,2.77 3.36,0.55 6.13,0.83 8.38,0.83l0 0.9 -41.22 0 0 -0.9c3.39,0 6.86,-0.8 10.36,-2.39 3.54,-1.59 6.44,-4.3 8.73,-8.07 2.98,-7.93 6.79,-18.02 11.43,-30.31 4.61,-12.26 9.28,-24.66 14,-37.24 4.71,-12.54 8.69,-23.17 11.92,-31.87 3.26,-8.69 5.02,-13.47 5.3,-14.34 0.45,-1.91 0.69,-3.67 0.69,-5.3 0,-2.15 -0.62,-4.33 -1.87,-6.55 -1.25,-2.18 -3.29,-3.95 -6.1,-5.26 -2.81,-1.31 -5.51,-1.98 -8.07,-1.98l-0.42 0 0 -1 35.96 0 48.7 129.7c4.26,9.73 10.95,14.62 20.09,14.62l0 0.9zm-60.07 -66.48l-23.87 -63.53 -23.94 63.53 47.8 0z"/>
  <path id="_2_80" class="fil1 str0" d="M2608.47 4819.53l-114.18 0 0 -1c4.47,0 8.76,-1.25 12.85,-3.67 4.09,-2.43 6.55,-5.82 7.34,-10.15l0 -114.28c-0.38,-4.71 -2.7,-8.42 -6.89,-11.05 -4.19,-2.63 -8.66,-3.95 -13.41,-3.95l0 -1.04 59.79 0 0 1.04c-4.54,0 -8.87,1.28 -12.99,3.85 -4.12,2.56 -6.48,6.13 -7,10.67l0 113.97c0,3.5 1.21,6.51 3.71,8.97 2.46,2.46 5.44,3.7 8.97,3.7l35.61 0c5.61,-0.93 10.46,-3.5 14.52,-7.65 4.05,-4.16 7.17,-8.66 9.35,-13.44 2.15,-4.81 3.26,-8.62 3.32,-11.46l0.94 0 -1.94 35.51z"/>
  <path id="_3_81" class="fil1 str0" d="M2779.13 4819.43l-61.11 0 0 -0.9c2.98,0 6.27,-0.45 9.84,-1.32 3.6,-0.9 6.51,-2.28 8.73,-4.19 1.7,-1.42 2.57,-3.15 2.57,-5.27 0,-0.72 -0.11,-1.49 -0.31,-2.22l-18.67 -49.64 -49.95 0 -19.68 52.38c-0.14,0.66 -0.21,1.28 -0.21,1.84 0,1.87 0.97,3.5 2.94,4.81 1.97,1.31 4.61,2.25 7.97,2.77 3.36,0.55 6.13,0.83 8.38,0.83l0 0.9 -41.22 0 0 -0.9c3.39,0 6.86,-0.8 10.36,-2.39 3.54,-1.59 6.44,-4.3 8.73,-8.07 2.98,-7.93 6.79,-18.02 11.43,-30.31 4.61,-12.26 9.28,-24.66 14,-37.24 4.71,-12.54 8.69,-23.17 11.92,-31.87 3.26,-8.69 5.02,-13.47 5.3,-14.34 0.45,-1.91 0.69,-3.67 0.69,-5.3 0,-2.15 -0.62,-4.33 -1.87,-6.55 -1.25,-2.18 -3.29,-3.95 -6.1,-5.26 -2.81,-1.31 -5.51,-1.98 -8.07,-1.98l-0.42 0 0 -1 35.96 0 48.7 129.7c4.26,9.73 10.95,14.62 20.09,14.62l0 0.9zm-60.07 -66.48l-23.87 -63.53 -23.94 63.53 47.8 0z"/>
  <path class="fil0" d="M3454.39 3338.55l0 -1415.89c0,-67.79 -42.97,-119.07 -99.32,-157.5 -15.21,-10.38 -30.66,-19.36 -46.3,-26.89l-546.9 1430.14 -540.67 -1358.34 -0.24 0.19 -10.29 -25.69 -7.48 -18.59 -10.23 -25.59 0.39 -0.24 -117.62 -295.49 0 377.33 86.38 -60.11 8.93 26.56 6.61 19.8 8.93 26.56c-19.31,13.57 -40.8,28.44 -63.06,43.6l-47.8 32.44 0 1095.97c5.46,45.19 36.07,81.26 92.65,108.2 56.64,26.46 110.04,40.65 160.25,41.52l0 11.88 -543.23 1.4 0 -13.28c49.73,-0.87 103.13,-15.06 159.77,-41.52 56.59,-26.94 87.63,-63.01 93.14,-108.2l-0.97 -1070.14 -0.63 0.39 0.15 -32.35 0.05 -23.08 0.15 -32.69 0.19 -0.15 -0.34 -361.69c0,-51.57 -14.58,-94.06 -43.36,-126.89 -10.43,-11.74 -21.44,-22.26 -33.12,-31.63l-270.29 706.76 -584.41 -1468.28 0 1615.2c55.48,7.15 112.45,8.26 171.07,3.38 78.56,-6.57 159.72,-24 243.44,-52.15 60.59,-22.79 121.48,-49.3 182.51,-79.57 60.74,-30.18 121.38,-63.97 181.69,-101.3 45.58,-30.61 76.29,-51.28 110.61,-74.74l0.77 31.92 0.53 21.97 0.77 31.72c-33.8,22.4 -62.57,41.33 -80.1,52.53l-0.53 0.34c-176.14,107.24 -340.44,182.17 -492.68,224.56 -112.4,31.33 -218.48,44.95 -318.09,40.94l0 213.94c0,38.77 30.61,69.38 78.89,92.12 48.19,22.74 93.72,34.62 136.5,35.39l0 10.14 -462.69 1.16 0 -11.3c42.39,-0.77 87.92,-12.65 136.06,-35.39 48.33,-22.74 79.38,-53.35 79.33,-92.12l-0.14 -215.87c-25.44,-2.03 -50.46,-5.26 -75.03,-9.66l-1.02 -0.19c-84.59,-11.54 -162.37,-34.43 -232.82,-66.92 -179.08,-82.47 -311.33,-226.69 -391.19,-404.56 -79.28,-176.47 -106.94,-386.21 -77.69,-601.07 17.09,-125.54 53.69,-252.91 110.61,-376.56 54.61,-118.48 121.96,-217.61 200.47,-292.93 77.4,-74.11 165.66,-125.34 263.43,-149.29 92.65,-22.16 292.35,-30.56 398.53,26.56l2.37 0 4.83 4.06c16.61,9.8 30.61,21.44 41.09,35l-1.21 2.7 473.27 1239.85 143.88 -377.28c-13.47,-8.06 -27.76,-14.87 -42.83,-20.23 -39.69,-14.15 -73.92,-21.44 -103.61,-21.44l-5.46 0 0 -13.28 172.85 0 323.93 -849.39 446.37 0 0 11.25c-35.78,0 -70.78,7 -105.4,21 -34.57,14 -63.3,34.33 -85.9,59.92 -22.83,25.73 -34.23,56.39 -34.23,90.96l0 907.38c40.94,-34.19 81.84,-68.76 122.59,-103.76l10.09 -8.69c-1.11,11.69 -1.54,23.8 -1.2,36.41l0 0.05 0 0.68 0.05 1.4 0 0.72 0.05 0 0 0.67 0.1 2.17 0.05 1.4 0.05 1.45 0.1 1.45 0.09 2.17 0.05 0.67 0 0.05 0.05 0.72 0.05 0.67 0 0.05 0.05 0.78 0.05 0.63 0 0.1 0.05 0.72 0.15 1.45 0.05 0.63 0 0.15 0.05 0.72 0.05 0.58 0 0.15 0.09 0.77 0.05 0.58 0 0.15 0.1 0.77 0.05 0.53 0 0.19c0.96,10.28 2.46,20.76 4.25,31.63 -45.58,38.82 -91.3,77.11 -137.07,114.86l0 175.17 379.36 994.72 394.95 -1035.71c-30.66,-10.38 -62.09,-15.55 -94.3,-15.55l0 -15.79 106.27 0 166.87 -437.63 524.11 0 0 13.28c-42,0 -83.09,8.21 -123.75,24.62 -40.61,16.46 -74.31,40.32 -100.86,70.3 -26.8,30.23 -40.17,66.24 -40.17,106.85l0 222.58 423.48 0c126.07,0 241.13,20.13 345.66,60.31 104.58,40.17 187.77,101.44 249.72,183.57 62.19,82.47 93.09,186.85 93.09,312.87 0,126.02 -30.9,230.41 -93.09,312.82 -61.95,82.13 -145.14,143.4 -249.72,183.62 -104.53,40.17 -219.59,60.26 -345.66,60.26l-423.44 0 0 532.75 -0.05 0 0 273.43c0,41.96 13.28,78.12 40.17,108.69 26.46,30.08 60.35,53.21 100.86,69.82 40.7,16.66 81.74,25.11 123.75,25.11l0 11.88 -789.33 0 0 -11.88c42.93,0 84.4,-8.45 125.1,-25.11 40.51,-16.56 74.31,-39.4 101.78,-69.38 27.23,-29.74 40.65,-66.2 40.65,-109.12l0 -273.43zm-323.64 -2345.77l0.19 -0.53 0.15 -0.48 0.19 -0.53 0.09 -0.24 0.05 -0.24 0.2 -0.53 0.19 -0.53 0.14 -0.48 0.15 -0.33 0.05 -0.2 0.15 -0.53 0.19 -0.48 0.19 -0.53 0.15 -0.43 0 -0.1 0.19 -0.53 0.15 -0.48 0.19 -0.53 0.19 -0.53 0.15 -0.53 0.19 -0.53 0.15 -0.53 0.19 -0.53 0.05 -0.05 0.1 -0.43 0.19 -0.53 0.19 -0.53 0.14 -0.53 0.1 -0.19 0.1 -0.34 0.14 -0.53 0.19 -0.53 0.15 -0.53 0.1 -0.29 0.09 -0.29 0.19 -0.53 0.15 -0.53 0.19 -0.53 0.1 -0.39 0.05 -0.15 0.19 -0.53 0.15 -0.53 0.19 -0.58 0.15 -0.48 0 -0.05 0.19 -0.53 0.14 -0.53 0.2 -0.58 0.14 -0.53 0.05 -0.05 0.14 -0.48 0.19 -0.58 0.15 -0.53 0.19 -0.53 0 -0.15 0.15 -0.43 0.19 -0.53 0.15 -0.58 0.19 -0.53 0.05 -0.24 0.1 -0.33 0.19 -0.53 0.15 -0.58 0.24 -0.87 0.09 -0.24 0.19 -0.58 0.15 -0.53 0.19 -0.58 0.1 -0.43 0.05 -0.15 0.19 -0.53 0.15 -0.58 0.19 -0.58 0.15 -0.53 0.19 -0.58 0.15 -0.58c4.2,-14.58 8.26,-30.28 12.8,-47.13l0.19 -0.92c74.55,-67.55 148.32,-132.97 221.37,-196.22 116.51,-100.96 230.6,-195.98 342.23,-284.96 209.5,-168.27 404.46,-287.14 584.7,-356.43 182.41,-70.11 350.1,-89.47 502.96,-58.13 67.6,13.91 127.42,37.61 179.18,70.93 52.15,33.56 96.23,76.96 132.1,129.93l0.72 1.06c18.69,30.61 33.61,62.43 44.76,95.21 11.3,32.78 18.93,66.78 23.22,101.69l0 0.72c2.46,25.93 3.14,51.56 2.07,76.67 -1.16,25.3 -4.06,50.12 -8.79,74.11 -2.07,10.43 -5.65,24.38 -10.67,41.38 -5.02,17.09 -11.2,36.11 -18.3,56.93 -8.45,24.67 -22.35,48.23 -41.62,70.3 -18.3,21.1 -41.86,41.04 -70.49,59.72l-1.93 1.16c-21.3,11.49 -41.91,19.46 -61.9,23.66 -20.86,4.44 -41.13,4.78 -60.69,0.72 -10.19,-2.08 -22.02,-6.57 -35.25,-13.47 -11.83,-6.13 -25.35,-14.39 -40.22,-24.77 -19.02,-12.99 -32.44,-31.05 -40.46,-53.79 -7.29,-21 -9.85,-45.87 -7.77,-74.26l0.43 -3.23c5.02,-25.54 13.47,-47.9 25.25,-66.63 12.26,-19.41 28.05,-34.86 47.32,-46.2 16.7,-9.85 34.23,-18.35 52.48,-25.4 17.87,-6.95 36.55,-12.6 55.96,-17.04 14.82,-4.01 28.68,-8.64 41.38,-13.76 12.51,-5.07 23.76,-10.57 33.75,-16.51l0.87 -0.44c7.87,-4.3 14.15,-9.61 18.78,-15.69 4.39,-5.75 7.39,-12.7 8.89,-20.52l1.74 -8.93c-3.28,-26.75 -8.74,-51.91 -16.22,-75.28 -7.68,-24.04 -17.67,-46.54 -29.79,-67.45 -32.64,-46.26 -72.19,-84.01 -118.68,-113.27 -46.88,-29.45 -101.06,-50.5 -162.57,-63.2l-103.86 -20.57c-31.14,-6.08 -67.88,-6.32 -110.04,-0.53 -43.02,5.89 -91.88,18.11 -146.2,36.6 -99.56,35.1 -201.63,83.63 -306.21,145.28 -104.96,61.75 -212.64,137.12 -323.06,225.67 -109.26,87.34 -222.05,181.64 -338.07,282.6 -102.99,89.47 -207.71,183.67 -313.94,282.31 7.87,-17.14 15.31,-36.17 22.6,-57.46zm-2057.14 1184.62l-0.96 -1574.17c0,-14.44 -1.3,-28 -3.96,-40.75 -3.48,-8.45 -40.41,-81.12 -111.58,-86.81 -34.04,-8.2 -72.33,-4.68 -103.91,2.13 -22.35,4.83 -41.09,11.35 -52.58,16.37 -119.98,53.26 -213.02,139.59 -278.11,253.2 -67.16,117.23 -105.02,263.72 -112.64,433.39 -9.27,205.64 19.36,398.81 100.81,562.69 72.43,145.72 187.15,268.89 354.64,357.58 18.93,10.04 38.09,19.36 57.5,28.44l57.26 25.83 40.65 11.69 29.74 6.08c7.68,1.59 15.4,2.99 23.13,4.35zm2252.73 -485.05l128.04 0 0 -334.89 -128.04 334.89zm-1337.68 -437.63l291.34 0 0 -761.9 -291.34 761.9zm2146.22 1505.46c84.06,0 157.6,-25.54 220.61,-76.57 63.01,-51.04 111.63,-115.74 146.54,-193.37 35.24,-78.27 52.53,-158.56 52.53,-241.12 0,-81.5 -17.29,-161.8 -51.57,-240.06 -34.47,-78.7 -83.05,-143.4 -146.1,-194.44 -63.01,-51.08 -137.03,-76.04 -222.01,-76.04l-255.9 0c-46.3,0 -86.13,18.2 -118.87,55.38 -32.69,37.23 -48.67,82.57 -48.67,135.24l0 831 423.44 0z"/>
  <path class="fil0" d="M2983.85 1416.91c15.54,127.72 54.66,533.59 -134.88,544.23 -36.11,2.03 -52.46,-11.87 -70.14,-41.23 37.09,-12.88 76.55,-14.56 68.27,-75.41 -15.3,-112.41 -160.86,-78.68 -135.13,41.13 20.46,95.27 158.17,134.93 232.57,52.18 106.94,-118.95 87.3,-281.07 75.83,-429.39 -15.14,-200.01 -77.27,-388.85 -91.71,-576.78 -26.01,-338.52 334.49,-162.78 -50.19,189.92 -125.62,115.17 -235.23,198.04 -182.13,387.58 37.29,119.52 160.85,188.8 312,142.57 129.7,-39.67 175.59,-147.25 132.38,-272.44 -69.88,-168.97 -358.72,-73.37 -293.3,130.94 10.6,30.95 15.97,40.26 47,51.37 -3.53,-79.74 -9.78,-184.13 97.42,-183.77 62.47,0.21 95.89,62.93 83.43,123.1 -34.81,168.11 -246.93,180.39 -318.77,32.26 -13.31,-27.44 -15.11,-45.04 -15.24,-74.78 3.95,-67.52 41.69,-126.81 85.31,-174.96 150.6,-154.91 219.58,-151.85 278.24,-385.73 15.02,-59.88 8.82,-224.63 -80.98,-239.73 -36.96,-6.22 -75.87,27.64 -88.54,58.87 -78.65,193.84 17.53,493.85 48.6,700.05z"/>
 </g>
</svg>
