<?xml version="1.0" encoding="UTF-8"?>
<!DOCTYPE svg PUBLIC "-//W3C//DTD SVG 1.1//EN" "http://www.w3.org/Graphics/SVG/1.1/DTD/svg11.dtd">
<!-- Creator: CorelDRAW -->
<svg xmlns="http://www.w3.org/2000/svg" xml:space="preserve" width="6.90124in" height="3.54841in" version="1.1" style="shape-rendering:geometricPrecision; text-rendering:geometricPrecision; image-rendering:optimizeQuality; fill-rule:evenodd; clip-rule:evenodd"
viewBox="0 0 6051.44 3111.47"
 xmlns:xlink="http://www.w3.org/1999/xlink"
 xmlns:xodm="http://www.corel.com/coreldraw/odm/2003">
 <defs>
  <style type="text/css">
   <![CDATA[
    .str0 {stroke:black;stroke-width:2.63;stroke-miterlimit:2.61313}
    .fil1 {fill:none;fill-rule:nonzero}
    .fil0 {fill:black;fill-rule:nonzero}
   ]]>
  </style>
 </defs>
 <g id="Layer_x0020_1">
  <metadata id="CorelCorpID_0Corel-Layer"/>
  <path class="fil0" d="M803.21 3109.63c-63.45,0 -121.16,-16.33 -172.96,-49.16 -51.62,-32.65 -92.82,-76.6 -123.42,-131.67 -30.6,-55.24 -45.89,-116.21 -45.89,-183.08 0,-67.05 15.3,-128.19 45.89,-183.43 30.59,-55.06 71.96,-99.01 124.29,-131.84 52.32,-32.66 111.25,-48.98 177.13,-48.98 42.76,0 86.22,11.29 130.37,34.05 17.04,8.16 32.51,12.16 46.42,12.16 7.13,0 17.04,-2.09 29.55,-6.26 12.52,-4.34 18.77,-17.54 18.77,-39.95l5.21 0 0 190.2 -5.21 0c-0.35,-21.37 -7.13,-44.12 -20.34,-68.61 -21.03,-31.96 -49.89,-56.98 -86.57,-75.39 -36.68,-18.24 -75.96,-27.45 -118.2,-27.45 -30.42,0 -60.14,8.34 -88.83,25.19 -28.68,16.85 -54.41,40.47 -77.35,71.04 -22.95,30.57 -41.2,66.88 -55.1,109.09 -13.73,42.21 -20.51,88.94 -20.51,140.18 0,67.22 10.61,126.8 31.81,178.91 21.21,52.11 49.72,92.76 85.35,122.11 35.64,29.36 75.44,44.12 119.6,44.12 35.98,0 69.19,-8.51 99.6,-25.54 30.42,-17.02 56.84,-38.91 79.44,-66.18 22.59,-27.1 40.33,-56.63 53.19,-88.42l15.82 0c-12.87,38.56 -31.47,72.78 -55.8,102.66 -24.33,29.88 -53.02,53.33 -86.05,70.52 -33.2,17.2 -68.49,25.71 -106.21,25.71z"/>
  <path id="_1" class="fil0" d="M1749.55 3109.63l-306.64 0 0 -4.52c14.95,0 31.47,-2.26 49.37,-6.6 18.08,-4.52 32.68,-11.46 43.81,-21.02 8.52,-7.12 12.86,-15.8 12.86,-26.4 0,-3.65 -0.52,-7.47 -1.56,-11.12l-93.69 -248.92 -250.67 0 -98.73 262.64c-0.7,3.3 -1.04,6.43 -1.04,9.21 0,9.38 4.86,17.54 14.78,24.14 9.91,6.6 23.12,11.29 39.98,13.9 16.86,2.78 30.77,4.17 42.07,4.17l0 4.52 -206.86 0 0 -4.52c17.03,0 34.42,-3.99 51.98,-11.99 17.73,-7.99 32.33,-21.54 43.81,-40.47 14.95,-39.78 34.07,-90.32 57.36,-151.99 23.12,-61.49 46.58,-123.68 70.23,-186.73 23.64,-62.88 43.63,-116.21 59.8,-159.81 16.34,-43.6 25.2,-67.57 26.59,-71.91 2.26,-9.55 3.48,-18.41 3.48,-26.58 0,-10.77 -3.13,-21.71 -9.39,-32.83 -6.26,-10.94 -16.51,-19.8 -30.59,-26.4 -14.08,-6.6 -27.64,-9.9 -40.5,-9.9l-2.09 0 0 -5.04 180.43 0 244.4 650.35c21.38,48.81 54.93,73.3 100.82,73.3l0 4.52zm-301.42 -333.34l-119.77 -318.57 -120.11 318.57 239.88 0z"/>
  <path id="_2" class="fil0" d="M1742.95 3110.15l0 -5.04c18.95,-0.35 39.29,-5.73 60.84,-15.81 21.56,-10.25 33.38,-23.97 35.46,-41.17l-0.52 -578.26c0,-19.63 -5.57,-35.78 -16.52,-48.29 -11.12,-12.51 -24.16,-21.54 -39.28,-26.92 -15.12,-5.39 -28.16,-8.16 -39.46,-8.16l-2.09 0 0 -5.04 199.21 0 218.5 572.53 218.5 -572.53 199.56 0 0 5.04c-15.99,0 -31.64,3.12 -47.11,9.38 -15.47,6.25 -28.34,15.29 -38.42,26.75 -10.26,11.46 -15.3,25.19 -15.3,40.65l0 564.37c0,15.98 5.04,29.7 15.3,41.34 10.08,11.46 22.95,20.32 38.42,26.58 15.47,6.43 31.12,9.56 47.11,9.56l0 4.52 -300.55 0 0 -4.52c16.34,0 32.16,-3.13 47.63,-9.56 15.47,-6.25 28.34,-14.94 38.77,-26.4 10.43,-11.29 15.47,-25.19 15.47,-41.51l0 -607.1 -263.7 689.08 -261.26 -655.91 0 594.42c2.09,17.2 13.73,30.92 35.29,41.17 21.55,10.07 41.89,15.46 61.01,15.81l0 4.52 -206.86 0.52z"/>
  <path id="_3" class="fil0" d="M2921.17 3109.63l-300.03 0 0 -4.52c23.82,0 46.24,-6.78 67.45,-20.15 21.38,-13.37 32.51,-32.13 33.9,-56.28l0 -573.57c-3.65,-21.37 -15.65,-38.04 -36.16,-50.37 -20.34,-12.16 -41.72,-18.24 -64.15,-18.24l0 -5.04 352.88 0c45.89,0 87.78,6.42 125.85,19.28 38.07,12.85 68.32,32.48 90.91,58.71 22.6,26.4 33.9,59.75 33.9,100.05 0,40.3 -11.3,73.65 -33.9,100.06 -22.6,26.23 -52.84,45.86 -90.91,58.71 -38.07,12.85 -79.96,19.28 -125.85,19.28l-154.19 0 0 292.17c1.74,23.45 12.86,41.87 33.9,55.24 20.86,13.37 42.94,20.15 66.4,20.15l0 4.52zm53.89 -386.67c30.59,0 57.36,-8.16 80.31,-24.49 22.95,-16.33 40.68,-37 53.37,-61.84 12.86,-25.01 19.12,-50.72 19.12,-77.13 0,-26.05 -6.26,-51.76 -18.77,-76.78 -12.52,-25.19 -30.25,-45.86 -53.19,-62.18 -22.95,-16.33 -49.89,-24.32 -80.83,-24.32l-93.18 0c-16.86,0 -31.29,5.9 -43.28,17.72 -11.82,11.99 -17.73,26.4 -17.73,43.25l0 265.77 154.19 0z"/>
  <path id="_4" class="fil0" d="M4065.67 3109.63c-30.42,0 -58.93,-5.56 -85.52,-16.85 -26.43,-11.12 -49.55,-26.58 -69.19,-46.2l0 0.52c-9.21,-9.21 -17.55,-13.72 -25.03,-13.72 -5.04,0 -11.64,3.47 -19.82,10.59 -8.17,7.12 -12.17,20.67 -12.17,40.65l-4.7 0 0 -231.03 4.7 0c0.7,26.58 6.09,58.02 16.17,94.67 15.3,43.77 39.63,79.21 73.18,106.48 33.38,27.1 73.01,40.65 118.9,40.65l3.47 0c37.03,-2.09 68.15,-12.51 93.35,-31.27 25.03,-18.93 43.46,-42.38 54.93,-70.52 9.21,-22.41 13.73,-45.17 13.73,-68.27 0,-6.08 -0.35,-12.16 -1.04,-18.24 -0.7,-9.9 -5.04,-24.84 -12.87,-44.82 -7.99,-19.97 -24.33,-40.3 -48.67,-60.97 -24.51,-20.67 -61.54,-37.35 -111.08,-49.85l-1.04 0 1.04 0c-126.89,-31.62 -193.82,-99.36 -200.6,-203.06l0 -7.12c0,-28.84 7.65,-55.41 23.12,-79.38 15.47,-24.14 39.28,-43.6 71.27,-58.36 32.16,-14.77 71.44,-22.06 117.85,-22.06 41.9,0 78.4,12.68 109.51,38.04l0 -0.52c7.82,6.6 15.47,9.73 22.95,9.73 5.39,0 12.52,-2.78 21.38,-8.69 8.87,-5.73 13.21,-18.59 13.21,-38.56l5.21 0 0 225.81 -5.21 0c-0.35,-16.15 -2.78,-38.04 -7.3,-65.31 -4.52,-27.27 -13.04,-52.11 -25.2,-74.52 -14.6,-21.37 -33.55,-38.73 -57.01,-51.94 -23.47,-13.2 -49.2,-19.8 -77.53,-19.8 -43.63,3.3 -75.96,19.8 -96.65,49.33 -14.6,21.02 -21.9,44.3 -21.9,69.66 0,10.94 1.39,22.06 4,33.7 6.78,24.32 17.55,44.12 32.33,59.23 14.78,15.11 30.77,26.58 47.98,34.57 17.04,7.99 32.33,13.37 45.55,15.98 95.43,28.84 162.53,67.92 201.64,117.08 30.24,38.74 45.37,80.43 45.37,125.24 0,37 -10.6,71.39 -31.64,103.01 -21.03,31.79 -50.93,57.32 -89.52,76.95 -38.76,19.45 -84.48,29.18 -137.15,29.18z"/>
  <path id="_5" class="fil0" d="M4628.54 3109.63l-300.03 0 0 -4.52c23.82,0 46.24,-6.78 67.45,-20.15 21.38,-13.37 32.68,-32.13 34.42,-56.28l0 -565.93c-1.74,-23.97 -13.04,-42.73 -34.42,-56.11 -21.21,-13.38 -43.63,-20.15 -67.45,-20.15l0 -4.52 300.03 0 0 4.52c-23.12,0 -45.02,6.77 -65.88,20.15 -21.04,13.37 -32.51,31.78 -34.42,55.24l0 567.84c1.91,23.45 13.38,41.87 34.42,55.24 20.86,13.37 42.76,20.15 65.88,20.15l0 4.52z"/>
  <path id="_6" class="fil0" d="M4680.17 3110.15l0 -5.04c18.08,-0.35 37.55,-5.73 58.41,-15.81 20.86,-10.25 32.33,-23.8 34.24,-40.65l0 -579.65c0,-15.98 -5.04,-30.22 -15.47,-42.9 -10.26,-12.51 -23.12,-22.24 -38.42,-29.18 -15.3,-6.95 -30.77,-10.42 -46.41,-10.42l0 -5.04 189.47 0 406.41 567.32 -0.52 -505.83c-1.74,-17.2 -13.04,-31.09 -33.9,-41.17 -20.86,-10.25 -40.33,-15.29 -58.23,-15.29l0 -5.04 199.04 0 0 5.04c-17.91,0 -37.2,5.04 -58.06,14.94 -20.69,10.07 -32.16,23.62 -34.59,40.47l0 667.72 -13.73 0 -481.68 -664.59 0 603.1c1.92,17.2 13.39,30.92 34.07,41.17 20.69,10.07 40.16,15.46 58.58,15.81l0 4.52 -199.21 0.52z"/>
  <path id="_7" class="fil0" d="M3759.21 3109.63l-572.94 0 0 -4.52c22.42,0 43.98,-6.26 64.49,-18.41 20.51,-12.16 32.68,-29.18 36.33,-50.9l0 -580.17c-3.65,-21.37 -15.82,-38.22 -36.33,-50.55 -20.51,-12.33 -42.07,-18.59 -64.49,-18.59l0 -4.52 544.43 0 9.74 148.51 -4.7 0c0,-13.9 -4.17,-30.57 -12.86,-49.85 -8.69,-19.28 -22.07,-37.17 -39.98,-53.5 -18.08,-16.16 -41.2,-26.4 -69.36,-30.4l-173.66 0c-14.95,0 -27.64,5.21 -38.42,15.64 -10.6,10.59 -15.99,23.45 -15.99,38.74l0 286.96 181.82 0c16.34,-3.65 29.21,-15.98 38.59,-37.17 9.56,-21.02 14.43,-40.47 14.78,-58.36l4.69 0 0 206.53 -4.69 0c-0.35,-18.24 -5.22,-38.04 -14.78,-59.06 -9.39,-21.02 -22.25,-33.35 -38.59,-37.17l-181.82 0 0 278.97c0,17.54 6.08,32.66 18.6,44.99 12.34,12.33 27.47,18.59 45.02,18.59l178.18 0c28.33,-4.69 52.49,-17.72 72.83,-38.74 20.52,-21.02 36.16,-43.6 47.11,-67.57 11.13,-24.14 16.69,-43.25 16.69,-57.5l5.04 0 -9.74 178.05z"/>
  <path id="_8" class="fil0" d="M6050.13 3109.63l-306.64 0 0 -4.52c14.95,0 31.47,-2.26 49.37,-6.6 18.08,-4.52 32.68,-11.46 43.81,-21.02 8.52,-7.12 12.86,-15.8 12.86,-26.4 0,-3.65 -0.52,-7.47 -1.56,-11.12l-93.7 -248.92 -250.66 0 -98.73 262.64c-0.7,3.3 -1.04,6.43 -1.04,9.21 0,9.38 4.86,17.54 14.78,24.14 9.91,6.6 23.12,11.29 39.98,13.9 16.86,2.78 30.77,4.17 42.07,4.17l0 4.52 -206.86 0 0 -4.52c17.03,0 34.42,-3.99 51.98,-11.99 17.73,-7.99 32.33,-21.54 43.81,-40.47 14.95,-39.78 34.07,-90.32 57.36,-151.99 23.12,-61.49 46.58,-123.68 70.23,-186.73 23.64,-62.88 43.63,-116.21 59.8,-159.81 16.34,-43.6 25.2,-67.57 26.59,-71.91 2.26,-9.55 3.48,-18.41 3.48,-26.58 0,-10.77 -3.13,-21.71 -9.39,-32.83 -6.26,-10.94 -16.52,-19.8 -30.59,-26.4 -14.08,-6.6 -27.64,-9.9 -40.5,-9.9l-2.09 0 0 -5.04 180.43 0 244.4 650.35c21.38,48.81 54.93,73.3 100.82,73.3l0 4.52zm-301.42 -333.34l-119.77 -318.57 -120.12 318.57 239.88 0z"/>
  <path id="_9" class="fil1 str0" d="M803.21 3109.63c-63.45,0 -121.16,-16.33 -172.96,-49.16 -51.62,-32.65 -92.82,-76.6 -123.42,-131.67 -30.6,-55.24 -45.89,-116.21 -45.89,-183.08 0,-67.05 15.3,-128.19 45.89,-183.43 30.59,-55.06 71.96,-99.01 124.29,-131.84 52.32,-32.66 111.25,-48.98 177.13,-48.98 42.76,0 86.22,11.29 130.37,34.05 17.04,8.16 32.51,12.16 46.42,12.16 7.13,0 17.04,-2.09 29.55,-6.26 12.52,-4.34 18.77,-17.54 18.77,-39.95l5.21 0 0 190.2 -5.21 0c-0.35,-21.37 -7.13,-44.12 -20.34,-68.61 -21.03,-31.96 -49.89,-56.98 -86.57,-75.39 -36.68,-18.24 -75.96,-27.45 -118.2,-27.45 -30.42,0 -60.14,8.34 -88.83,25.19 -28.68,16.85 -54.41,40.47 -77.35,71.04 -22.95,30.57 -41.2,66.88 -55.1,109.09 -13.73,42.21 -20.51,88.94 -20.51,140.18 0,67.22 10.61,126.8 31.81,178.91 21.21,52.11 49.72,92.76 85.35,122.11 35.64,29.36 75.44,44.12 119.6,44.12 35.98,0 69.19,-8.51 99.6,-25.54 30.42,-17.02 56.84,-38.91 79.44,-66.18 22.59,-27.1 40.33,-56.63 53.19,-88.42l15.82 0c-12.87,38.56 -31.47,72.78 -55.8,102.66 -24.33,29.88 -53.02,53.33 -86.05,70.52 -33.2,17.2 -68.49,25.71 -106.21,25.71z"/>
  <path id="_10" class="fil1 str0" d="M1749.55 3109.63l-306.64 0 0 -4.52c14.95,0 31.47,-2.26 49.37,-6.6 18.08,-4.52 32.68,-11.46 43.81,-21.02 8.52,-7.12 12.86,-15.8 12.86,-26.4 0,-3.65 -0.52,-7.47 -1.56,-11.12l-93.69 -248.92 -250.67 0 -98.73 262.64c-0.7,3.3 -1.04,6.43 -1.04,9.21 0,9.38 4.86,17.54 14.78,24.14 9.91,6.6 23.12,11.29 39.98,13.9 16.86,2.78 30.77,4.17 42.07,4.17l0 4.52 -206.86 0 0 -4.52c17.03,0 34.42,-3.99 51.98,-11.99 17.73,-7.99 32.33,-21.54 43.81,-40.47 14.95,-39.78 34.07,-90.32 57.36,-151.99 23.12,-61.49 46.58,-123.68 70.23,-186.73 23.64,-62.88 43.63,-116.21 59.8,-159.81 16.34,-43.6 25.2,-67.57 26.59,-71.91 2.26,-9.55 3.48,-18.41 3.48,-26.58 0,-10.77 -3.13,-21.71 -9.39,-32.83 -6.26,-10.94 -16.51,-19.8 -30.59,-26.4 -14.08,-6.6 -27.64,-9.9 -40.5,-9.9l-2.09 0 0 -5.04 180.43 0 244.4 650.35c21.38,48.81 54.93,73.3 100.82,73.3l0 4.52zm-301.42 -333.34l-119.77 -318.57 -120.11 318.57 239.88 0z"/>
  <path id="_11" class="fil1 str0" d="M1742.95 3110.15l0 -5.04c18.95,-0.35 39.29,-5.73 60.84,-15.81 21.56,-10.25 33.38,-23.97 35.46,-41.17l-0.52 -578.26c0,-19.63 -5.57,-35.78 -16.52,-48.29 -11.12,-12.51 -24.16,-21.54 -39.28,-26.92 -15.12,-5.39 -28.16,-8.16 -39.46,-8.16l-2.09 0 0 -5.04 199.21 0 218.5 572.53 218.5 -572.53 199.56 0 0 5.04c-15.99,0 -31.64,3.12 -47.11,9.38 -15.47,6.25 -28.34,15.29 -38.42,26.75 -10.26,11.46 -15.3,25.19 -15.3,40.65l0 564.37c0,15.98 5.04,29.7 15.3,41.34 10.08,11.46 22.95,20.32 38.42,26.58 15.47,6.43 31.12,9.56 47.11,9.56l0 4.52 -300.55 0 0 -4.52c16.34,0 32.16,-3.13 47.63,-9.56 15.47,-6.25 28.34,-14.94 38.77,-26.4 10.43,-11.29 15.47,-25.19 15.47,-41.51l0 -607.1 -263.7 689.08 -261.26 -655.91 0 594.42c2.09,17.2 13.73,30.92 35.29,41.17 21.55,10.07 41.89,15.46 61.01,15.81l0 4.52 -206.86 0.52z"/>
  <path id="_12" class="fil1 str0" d="M2921.17 3109.63l-300.03 0 0 -4.52c23.82,0 46.24,-6.78 67.45,-20.15 21.38,-13.37 32.51,-32.13 33.9,-56.28l0 -573.57c-3.65,-21.37 -15.65,-38.04 -36.16,-50.37 -20.34,-12.16 -41.72,-18.24 -64.15,-18.24l0 -5.04 352.88 0c45.89,0 87.78,6.42 125.85,19.28 38.07,12.85 68.32,32.48 90.91,58.71 22.6,26.4 33.9,59.75 33.9,100.05 0,40.3 -11.3,73.65 -33.9,100.06 -22.6,26.23 -52.84,45.86 -90.91,58.71 -38.07,12.85 -79.96,19.28 -125.85,19.28l-154.19 0 0 292.17c1.74,23.45 12.86,41.87 33.9,55.24 20.86,13.37 42.94,20.15 66.4,20.15l0 4.52zm53.89 -386.67c30.59,0 57.36,-8.16 80.31,-24.49 22.95,-16.33 40.68,-37 53.37,-61.84 12.86,-25.01 19.12,-50.72 19.12,-77.13 0,-26.05 -6.26,-51.76 -18.77,-76.78 -12.52,-25.19 -30.25,-45.86 -53.19,-62.18 -22.95,-16.33 -49.89,-24.32 -80.83,-24.32l-93.18 0c-16.86,0 -31.29,5.9 -43.28,17.72 -11.82,11.99 -17.73,26.4 -17.73,43.25l0 265.77 154.19 0z"/>
  <path id="_13" class="fil1 str0" d="M4065.67 3109.63c-30.42,0 -58.93,-5.56 -85.52,-16.85 -26.43,-11.12 -49.55,-26.58 -69.19,-46.2l0 0.52c-9.21,-9.21 -17.55,-13.72 -25.03,-13.72 -5.04,0 -11.64,3.47 -19.82,10.59 -8.17,7.12 -12.17,20.67 -12.17,40.65l-4.7 0 0 -231.03 4.7 0c0.7,26.58 6.09,58.02 16.17,94.67 15.3,43.77 39.63,79.21 73.18,106.48 33.38,27.1 73.01,40.65 118.9,40.65l3.47 0c37.03,-2.09 68.15,-12.51 93.35,-31.27 25.03,-18.93 43.46,-42.38 54.93,-70.52 9.21,-22.41 13.73,-45.17 13.73,-68.27 0,-6.08 -0.35,-12.16 -1.04,-18.24 -0.7,-9.9 -5.04,-24.84 -12.87,-44.82 -7.99,-19.97 -24.33,-40.3 -48.67,-60.97 -24.51,-20.67 -61.54,-37.35 -111.08,-49.85l-1.04 0 1.04 0c-126.89,-31.62 -193.82,-99.36 -200.6,-203.06l0 -7.12c0,-28.84 7.65,-55.41 23.12,-79.38 15.47,-24.14 39.28,-43.6 71.27,-58.36 32.16,-14.77 71.44,-22.06 117.85,-22.06 41.9,0 78.4,12.68 109.51,38.04l0 -0.52c7.82,6.6 15.47,9.73 22.95,9.73 5.39,0 12.52,-2.78 21.38,-8.69 8.87,-5.73 13.21,-18.59 13.21,-38.56l5.21 0 0 225.81 -5.21 0c-0.35,-16.15 -2.78,-38.04 -7.3,-65.31 -4.52,-27.27 -13.04,-52.11 -25.2,-74.52 -14.6,-21.37 -33.55,-38.73 -57.01,-51.94 -23.47,-13.2 -49.2,-19.8 -77.53,-19.8 -43.63,3.3 -75.96,19.8 -96.65,49.33 -14.6,21.02 -21.9,44.3 -21.9,69.66 0,10.94 1.39,22.06 4,33.7 6.78,24.32 17.55,44.12 32.33,59.23 14.78,15.11 30.77,26.58 47.98,34.57 17.04,7.99 32.33,13.37 45.55,15.98 95.43,28.84 162.53,67.92 201.64,117.08 30.24,38.74 45.37,80.43 45.37,125.24 0,37 -10.6,71.39 -31.64,103.01 -21.03,31.79 -50.93,57.32 -89.52,76.95 -38.76,19.45 -84.48,29.18 -137.15,29.18z"/>
  <path id="_14" class="fil1 str0" d="M4628.54 3109.63l-300.03 0 0 -4.52c23.82,0 46.24,-6.78 67.45,-20.15 21.38,-13.37 32.68,-32.13 34.42,-56.28l0 -565.93c-1.74,-23.97 -13.04,-42.73 -34.42,-56.11 -21.21,-13.38 -43.63,-20.15 -67.45,-20.15l0 -4.52 300.03 0 0 4.52c-23.12,0 -45.02,6.77 -65.88,20.15 -21.04,13.37 -32.51,31.78 -34.42,55.24l0 567.84c1.91,23.45 13.38,41.87 34.42,55.24 20.86,13.37 42.76,20.15 65.88,20.15l0 4.52z"/>
  <path id="_15" class="fil1 str0" d="M4680.17 3110.15l0 -5.04c18.08,-0.35 37.55,-5.73 58.41,-15.81 20.86,-10.25 32.33,-23.8 34.24,-40.65l0 -579.65c0,-15.98 -5.04,-30.22 -15.47,-42.9 -10.26,-12.51 -23.12,-22.24 -38.42,-29.18 -15.3,-6.95 -30.77,-10.42 -46.41,-10.42l0 -5.04 189.47 0 406.41 567.32 -0.52 -505.83c-1.74,-17.2 -13.04,-31.09 -33.9,-41.17 -20.86,-10.25 -40.33,-15.29 -58.23,-15.29l0 -5.04 199.04 0 0 5.04c-17.91,0 -37.2,5.04 -58.06,14.94 -20.69,10.07 -32.16,23.62 -34.59,40.47l0 667.72 -13.73 0 -481.68 -664.59 0 603.1c1.92,17.2 13.39,30.92 34.07,41.17 20.69,10.07 40.16,15.46 58.58,15.81l0 4.52 -199.21 0.52z"/>
  <path id="_16" class="fil1 str0" d="M3759.21 3109.63l-572.94 0 0 -4.52c22.42,0 43.98,-6.26 64.49,-18.41 20.51,-12.16 32.68,-29.18 36.33,-50.9l0 -580.17c-3.65,-21.37 -15.82,-38.22 -36.33,-50.55 -20.51,-12.33 -42.07,-18.59 -64.49,-18.59l0 -4.52 544.43 0 9.74 148.51 -4.7 0c0,-13.9 -4.17,-30.57 -12.86,-49.85 -8.69,-19.28 -22.07,-37.17 -39.98,-53.5 -18.08,-16.16 -41.2,-26.4 -69.36,-30.4l-173.66 0c-14.95,0 -27.64,5.21 -38.42,15.64 -10.6,10.59 -15.99,23.45 -15.99,38.74l0 286.96 181.82 0c16.34,-3.65 29.21,-15.98 38.59,-37.17 9.56,-21.02 14.43,-40.47 14.78,-58.36l4.69 0 0 206.53 -4.69 0c-0.35,-18.24 -5.22,-38.04 -14.78,-59.06 -9.39,-21.02 -22.25,-33.35 -38.59,-37.17l-181.82 0 0 278.97c0,17.54 6.08,32.66 18.6,44.99 12.34,12.33 27.47,18.59 45.02,18.59l178.18 0c28.33,-4.69 52.49,-17.72 72.83,-38.74 20.52,-21.02 36.16,-43.6 47.11,-67.57 11.13,-24.14 16.69,-43.25 16.69,-57.5l5.04 0 -9.74 178.05z"/>
  <path id="_17" class="fil1 str0" d="M6050.13 3109.63l-306.64 0 0 -4.52c14.95,0 31.47,-2.26 49.37,-6.6 18.08,-4.52 32.68,-11.46 43.81,-21.02 8.52,-7.12 12.86,-15.8 12.86,-26.4 0,-3.65 -0.52,-7.47 -1.56,-11.12l-93.7 -248.92 -250.66 0 -98.73 262.64c-0.7,3.3 -1.04,6.43 -1.04,9.21 0,9.38 4.86,17.54 14.78,24.14 9.91,6.6 23.12,11.29 39.98,13.9 16.86,2.78 30.77,4.17 42.07,4.17l0 4.52 -206.86 0 0 -4.52c17.03,0 34.42,-3.99 51.98,-11.99 17.73,-7.99 32.33,-21.54 43.81,-40.47 14.95,-39.78 34.07,-90.32 57.36,-151.99 23.12,-61.49 46.58,-123.68 70.23,-186.73 23.64,-62.88 43.63,-116.21 59.8,-159.81 16.34,-43.6 25.2,-67.57 26.59,-71.91 2.26,-9.55 3.48,-18.41 3.48,-26.58 0,-10.77 -3.13,-21.71 -9.39,-32.83 -6.26,-10.94 -16.52,-19.8 -30.59,-26.4 -14.08,-6.6 -27.64,-9.9 -40.5,-9.9l-2.09 0 0 -5.04 180.43 0 244.4 650.35c21.38,48.81 54.93,73.3 100.82,73.3l0 4.52zm-301.42 -333.34l-119.77 -318.57 -120.12 318.57 239.88 0z"/>
  <path class="fil0" d="M2708.47 2173.68c-71.92,0 -137.92,-11.35 -197.54,-33.83 -59.61,-22.71 -107.16,-56.3 -142.65,-101.01 -35.72,-44.47 -53.46,-99.36 -53.46,-164.65l0 -596.62c-6.39,-28.15 -23.42,-50.15 -51.1,-65.76 -27.91,-15.85 -56.78,-23.66 -86.82,-23.66l0 -6.86 408.31 0 0 6.86c-29.57,0 -58.19,8.04 -85.64,23.9 -27.44,15.85 -44.47,37.85 -50.86,65.53l0 596.62c0,47.32 10.88,92.03 32.88,134.61 22,42.34 52.52,77.12 91.79,104.33 39.27,26.97 84.46,40.45 135.08,40.45 58.19,0 111.42,-12.54 159.44,-37.85 48.02,-25.08 86.35,-58.91 115.21,-101.02 28.63,-42.34 42.82,-89.19 42.82,-140.52l0 -613.89c-4.97,-22.24 -22,-39.74 -50.86,-52.75 -28.86,-13.01 -55.59,-19.4 -79.96,-19.4l0 -6.86 281.28 0 0 6.86c-24.6,0 -51.1,6.62 -79.72,19.87 -28.63,13.01 -45.42,30.51 -50.63,52.28l0 613.89c0,55.12 -15.14,105.27 -45.66,150.46 -30.52,45.42 -71.21,81.38 -122.31,108.58 -51.1,26.97 -107.64,40.45 -169.62,40.45zm2.13 -1051.3l-33.83 -28.39 90.61 -207.23 97.23 61.51 -154.01 174.11z"/>
  <path id="_1_150" class="fil0" d="M3438.02 2173.68c-41.4,0 -80.2,-7.57 -116.39,-22.95 -35.96,-15.14 -67.42,-36.19 -94.15,-62.93l0 0.71c-12.54,-12.54 -23.89,-18.69 -34.07,-18.69 -6.86,0 -15.85,4.73 -26.97,14.43 -11.12,9.7 -16.56,28.15 -16.56,55.36l-6.39 0 0 -314.64 6.39 0c0.95,36.19 8.28,79.01 22,128.93 20.82,59.61 53.94,107.87 99.6,145.01 45.42,36.9 99.36,55.36 161.81,55.36l4.73 0c50.39,-2.84 92.74,-17.03 127.04,-42.58 34.07,-25.79 59.14,-57.72 74.75,-96.05 12.54,-30.52 18.69,-61.51 18.69,-92.97 0,-8.28 -0.47,-16.56 -1.42,-24.84 -0.95,-13.48 -6.86,-33.83 -17.51,-61.04 -10.88,-27.2 -33.12,-54.88 -66.24,-83.04 -33.36,-28.15 -83.74,-50.86 -151.17,-67.89l-1.42 0 1.42 0c-172.69,-43.05 -263.77,-135.31 -273,-276.55l0 -9.7c0,-39.27 10.41,-75.47 31.46,-108.11 21.06,-32.88 53.46,-59.38 96.99,-79.48 43.76,-20.11 97.23,-30.04 160.39,-30.04 57.01,0 106.69,17.27 149.04,51.81l0 -0.71c10.64,8.99 21.06,13.25 31.23,13.25 7.34,0 17.03,-3.79 29.1,-11.83 12.07,-7.81 17.98,-25.32 17.98,-52.52l7.1 0 0 307.54 -7.1 0c-0.47,-22 -3.78,-51.81 -9.94,-88.95 -6.15,-37.14 -17.74,-70.97 -34.3,-101.49 -19.87,-29.1 -45.66,-52.75 -77.6,-70.73 -31.94,-17.98 -66.95,-26.97 -105.51,-26.97 -59.38,4.49 -103.38,26.97 -131.53,67.18 -19.87,28.63 -29.81,60.32 -29.81,94.86 0,14.9 1.9,30.04 5.44,45.89 9.22,33.12 23.89,60.09 44,80.67 20.11,20.58 41.88,36.19 65.3,47.08 23.18,10.88 44,18.21 61.98,21.76 129.87,39.27 221.19,92.5 274.42,159.45 41.16,52.75 61.74,109.53 61.74,170.56 0,50.39 -14.43,97.23 -43.06,140.28 -28.62,43.29 -69.31,78.07 -121.83,104.8 -52.75,26.5 -114.97,39.74 -186.65,39.74z"/>
  <path id="_2_151" class="fil0" d="M4182.24 2173.68l-408.31 0 0 -6.15c32.41,0 62.93,-9.23 91.79,-27.44 29.1,-18.22 44.47,-43.77 46.84,-76.65l0 -770.74c-2.37,-32.65 -17.74,-58.19 -46.84,-76.41 -28.86,-18.21 -59.38,-27.44 -91.79,-27.44l0 -6.15 408.31 0 0 6.15c-31.46,0 -61.27,9.23 -89.66,27.44 -28.63,18.22 -44.24,43.29 -46.84,75.23l0 773.34c2.6,31.94 18.21,57.01 46.84,75.23 28.39,18.21 58.19,27.44 89.66,27.44l0 6.15z"/>
  <path id="_3_152" class="fil0" d="M4615.15 2173.68c-86.35,0 -164.88,-22.24 -235.38,-66.95 -70.26,-44.47 -126.33,-104.33 -167.96,-179.32 -41.63,-75.23 -62.45,-158.26 -62.45,-249.34 0,-91.31 20.82,-174.59 62.45,-249.82 41.64,-74.99 97.94,-134.84 169.14,-179.55 71.21,-44.47 151.4,-66.71 241.07,-66.71 58.19,0 117.34,15.38 177.42,46.37 23.19,11.12 44.24,16.56 63.17,16.56 9.7,0 23.18,-2.84 40.21,-8.52 17.03,-5.91 25.55,-23.89 25.55,-54.41l7.1 0 0 259.04 -7.1 0c-0.47,-29.1 -9.7,-60.09 -27.68,-93.44 -28.62,-43.53 -67.89,-77.6 -117.81,-102.67 -49.92,-24.84 -103.38,-37.38 -160.86,-37.38 -41.4,0 -81.86,11.35 -120.89,34.3 -39.03,22.95 -74.05,55.12 -105.27,96.76 -31.23,41.64 -56.07,91.08 -74.99,148.56 -18.69,57.49 -27.91,121.12 -27.91,190.91 0,91.55 14.43,172.69 43.29,243.66 28.86,70.97 67.66,126.33 116.15,166.31 48.5,39.98 102.67,60.09 162.76,60.09 48.97,0 94.16,-11.59 135.55,-34.78 41.4,-23.18 77.36,-52.99 108.11,-90.13 30.76,-36.9 54.88,-77.12 72.39,-120.41l21.53 0c-17.51,52.52 -42.82,99.12 -75.94,139.81 -33.12,40.69 -72.15,72.62 -117.1,96.05 -45.19,23.42 -93.21,35.01 -144.54,35.01z"/>
  <path id="_4_153" class="fil0" d="M5966.4 2173.68l-417.31 0 0 -6.15c20.35,0 42.82,-3.08 67.19,-8.99 24.6,-6.15 44.47,-15.61 59.61,-28.63 11.59,-9.7 17.51,-21.53 17.51,-35.96 0,-4.97 -0.71,-10.17 -2.13,-15.14l-127.51 -339 -341.13 0 -134.37 357.69c-0.95,4.49 -1.42,8.75 -1.42,12.54 0,12.77 6.62,23.89 20.11,32.88 13.48,8.99 31.46,15.38 54.41,18.93 22.95,3.79 41.87,5.68 57.25,5.68l0 6.15 -281.51 0 0 -6.15c23.19,0 46.84,-5.44 70.74,-16.33 24.13,-10.88 44,-29.33 59.61,-55.12 20.34,-54.18 46.37,-123.02 78.07,-207 31.46,-83.74 63.4,-168.43 95.57,-254.31 32.17,-85.64 59.38,-158.26 81.38,-217.64 22.24,-59.38 34.3,-92.03 36.2,-97.94 3.08,-13.01 4.73,-25.08 4.73,-36.2 0,-14.67 -4.26,-29.57 -12.77,-44.71 -8.52,-14.9 -22.47,-26.97 -41.64,-35.96 -19.16,-8.99 -37.61,-13.48 -55.12,-13.48l-2.84 0 0 -6.86 245.56 0 332.61 885.71c29.1,66.48 74.76,99.83 137.21,99.83l0 6.15zm-410.21 -453.97l-162.99 -433.86 -163.47 433.86 326.46 0z"/>
  <path id="_5_154" class="fil1 str0" d="M2708.47 2173.68c-71.92,0 -137.92,-11.35 -197.54,-33.83 -59.61,-22.71 -107.16,-56.3 -142.65,-101.01 -35.72,-44.47 -53.46,-99.36 -53.46,-164.65l0 -596.62c-6.39,-28.15 -23.42,-50.15 -51.1,-65.76 -27.91,-15.85 -56.78,-23.66 -86.82,-23.66l0 -6.86 408.31 0 0 6.86c-29.57,0 -58.19,8.04 -85.64,23.9 -27.44,15.85 -44.47,37.85 -50.86,65.53l0 596.62c0,47.32 10.88,92.03 32.88,134.61 22,42.34 52.52,77.12 91.79,104.33 39.27,26.97 84.46,40.45 135.08,40.45 58.19,0 111.42,-12.54 159.44,-37.85 48.02,-25.08 86.35,-58.91 115.21,-101.02 28.63,-42.34 42.82,-89.19 42.82,-140.52l0 -613.89c-4.97,-22.24 -22,-39.74 -50.86,-52.75 -28.86,-13.01 -55.59,-19.4 -79.96,-19.4l0 -6.86 281.28 0 0 6.86c-24.6,0 -51.1,6.62 -79.72,19.87 -28.63,13.01 -45.42,30.51 -50.63,52.28l0 613.89c0,55.12 -15.14,105.27 -45.66,150.46 -30.52,45.42 -71.21,81.38 -122.31,108.58 -51.1,26.97 -107.64,40.45 -169.62,40.45zm2.13 -1051.3l-33.83 -28.39 90.61 -207.23 97.23 61.51 -154.01 174.11z"/>
  <path id="_6_155" class="fil1 str0" d="M3438.02 2173.68c-41.4,0 -80.2,-7.57 -116.39,-22.95 -35.96,-15.14 -67.42,-36.19 -94.15,-62.93l0 0.71c-12.54,-12.54 -23.89,-18.69 -34.07,-18.69 -6.86,0 -15.85,4.73 -26.97,14.43 -11.12,9.7 -16.56,28.15 -16.56,55.36l-6.39 0 0 -314.64 6.39 0c0.95,36.19 8.28,79.01 22,128.93 20.82,59.61 53.94,107.87 99.6,145.01 45.42,36.9 99.36,55.36 161.81,55.36l4.73 0c50.39,-2.84 92.74,-17.03 127.04,-42.58 34.07,-25.79 59.14,-57.72 74.75,-96.05 12.54,-30.52 18.69,-61.51 18.69,-92.97 0,-8.28 -0.47,-16.56 -1.42,-24.84 -0.95,-13.48 -6.86,-33.83 -17.51,-61.04 -10.88,-27.2 -33.12,-54.88 -66.24,-83.04 -33.36,-28.15 -83.74,-50.86 -151.17,-67.89l-1.42 0 1.42 0c-172.69,-43.05 -263.77,-135.31 -273,-276.55l0 -9.7c0,-39.27 10.41,-75.47 31.46,-108.11 21.06,-32.88 53.46,-59.38 96.99,-79.48 43.76,-20.11 97.23,-30.04 160.39,-30.04 57.01,0 106.69,17.27 149.04,51.81l0 -0.71c10.64,8.99 21.06,13.25 31.23,13.25 7.34,0 17.03,-3.79 29.1,-11.83 12.07,-7.81 17.98,-25.32 17.98,-52.52l7.1 0 0 307.54 -7.1 0c-0.47,-22 -3.78,-51.81 -9.94,-88.95 -6.15,-37.14 -17.74,-70.97 -34.3,-101.49 -19.87,-29.1 -45.66,-52.75 -77.6,-70.73 -31.94,-17.98 -66.95,-26.97 -105.51,-26.97 -59.38,4.49 -103.38,26.97 -131.53,67.18 -19.87,28.63 -29.81,60.32 -29.81,94.86 0,14.9 1.9,30.04 5.44,45.89 9.22,33.12 23.89,60.09 44,80.67 20.11,20.58 41.88,36.19 65.3,47.08 23.18,10.88 44,18.21 61.98,21.76 129.87,39.27 221.19,92.5 274.42,159.45 41.16,52.75 61.74,109.53 61.74,170.56 0,50.39 -14.43,97.23 -43.06,140.28 -28.62,43.29 -69.31,78.07 -121.83,104.8 -52.75,26.5 -114.97,39.74 -186.65,39.74z"/>
  <path id="_7_156" class="fil1 str0" d="M4182.24 2173.68l-408.31 0 0 -6.15c32.41,0 62.93,-9.23 91.79,-27.44 29.1,-18.22 44.47,-43.77 46.84,-76.65l0 -770.74c-2.37,-32.65 -17.74,-58.19 -46.84,-76.41 -28.86,-18.21 -59.38,-27.44 -91.79,-27.44l0 -6.15 408.31 0 0 6.15c-31.46,0 -61.27,9.23 -89.66,27.44 -28.63,18.22 -44.24,43.29 -46.84,75.23l0 773.34c2.6,31.94 18.21,57.01 46.84,75.23 28.39,18.21 58.19,27.44 89.66,27.44l0 6.15z"/>
  <path id="_8_157" class="fil1 str0" d="M4615.15 2173.68c-86.35,0 -164.88,-22.24 -235.38,-66.95 -70.26,-44.47 -126.33,-104.33 -167.96,-179.32 -41.63,-75.23 -62.45,-158.26 -62.45,-249.34 0,-91.31 20.82,-174.59 62.45,-249.82 41.64,-74.99 97.94,-134.84 169.14,-179.55 71.21,-44.47 151.4,-66.71 241.07,-66.71 58.19,0 117.34,15.38 177.42,46.37 23.19,11.12 44.24,16.56 63.17,16.56 9.7,0 23.18,-2.84 40.21,-8.52 17.03,-5.91 25.55,-23.89 25.55,-54.41l7.1 0 0 259.04 -7.1 0c-0.47,-29.1 -9.7,-60.09 -27.68,-93.44 -28.62,-43.53 -67.89,-77.6 -117.81,-102.67 -49.92,-24.84 -103.38,-37.38 -160.86,-37.38 -41.4,0 -81.86,11.35 -120.89,34.3 -39.03,22.95 -74.05,55.12 -105.27,96.76 -31.23,41.64 -56.07,91.08 -74.99,148.56 -18.69,57.49 -27.91,121.12 -27.91,190.91 0,91.55 14.43,172.69 43.29,243.66 28.86,70.97 67.66,126.33 116.15,166.31 48.5,39.98 102.67,60.09 162.76,60.09 48.97,0 94.16,-11.59 135.55,-34.78 41.4,-23.18 77.36,-52.99 108.11,-90.13 30.76,-36.9 54.88,-77.12 72.39,-120.41l21.53 0c-17.51,52.52 -42.82,99.12 -75.94,139.81 -33.12,40.69 -72.15,72.62 -117.1,96.05 -45.19,23.42 -93.21,35.01 -144.54,35.01z"/>
  <path id="_9_158" class="fil1 str0" d="M5966.4 2173.68l-417.31 0 0 -6.15c20.35,0 42.82,-3.08 67.19,-8.99 24.6,-6.15 44.47,-15.61 59.61,-28.63 11.59,-9.7 17.51,-21.53 17.51,-35.96 0,-4.97 -0.71,-10.17 -2.13,-15.14l-127.51 -339 -341.13 0 -134.37 357.69c-0.95,4.49 -1.42,8.75 -1.42,12.54 0,12.77 6.62,23.89 20.11,32.88 13.48,8.99 31.46,15.38 54.41,18.93 22.95,3.79 41.87,5.68 57.25,5.68l0 6.15 -281.51 0 0 -6.15c23.19,0 46.84,-5.44 70.74,-16.33 24.13,-10.88 44,-29.33 59.61,-55.12 20.34,-54.18 46.37,-123.02 78.07,-207 31.46,-83.74 63.4,-168.43 95.57,-254.31 32.17,-85.64 59.38,-158.26 81.38,-217.64 22.24,-59.38 34.3,-92.03 36.2,-97.94 3.08,-13.01 4.73,-25.08 4.73,-36.2 0,-14.67 -4.26,-29.57 -12.77,-44.71 -8.52,-14.9 -22.47,-26.97 -41.64,-35.96 -19.16,-8.99 -37.61,-13.48 -55.12,-13.48l-2.84 0 0 -6.86 245.56 0 332.61 885.71c29.1,66.48 74.76,99.83 137.21,99.83l0 6.15zm-410.21 -453.97l-162.99 -433.86 -163.47 433.86 326.46 0z"/>
  <path class="fil0" d="M940.85 2173.68l-444.83 0 0 -9.75c40.13,-0.75 83.64,-12 130.52,-34.13 46.88,-22.13 72.39,-51.76 75.76,-88.89l0 -215.66 31.88 0 0 215.66c4.5,37.13 30.01,66.76 76.52,88.89 46.5,22.13 90.01,33.38 130.15,34.13l0 9.75zm1353.6 0l-646.98 0 0 -9.75c34.51,0 68.64,-6.75 102.02,-20.25 33.76,-13.88 61.51,-32.63 83.64,-57.39 22.13,-24.38 33.01,-54.38 33.01,-89.64l0 -1310.85 -569.35 1487.88 -42.76 -109.89c-29.26,-72.39 -66.39,-164.28 -111.02,-275.67 -44.63,-111.39 -91.14,-228.41 -139.52,-350.68 -184.53,159.78 -355.19,241.54 -511.96,245.29l-1.12 0c-217.54,-4.5 -367.56,-113.64 -449.33,-327.81 -26.63,-74.64 -39.76,-148.15 -39.76,-220.53 0,-48.38 10.13,-114.02 29.63,-196.91 19.88,-82.51 73.14,-160.9 159.4,-235.17 80.64,-67.14 178.16,-100.89 292.18,-100.89l439.57 0 250.54 658.24c139.15,-151.9 274.17,-313.18 404.32,-484.58 118.15,-153.4 233.66,-293.3 347.31,-419.7 210.41,-235.91 408.07,-354.06 593.35,-354.06 80.64,0 147.4,24.38 199.91,72.76 28.13,28.5 48.01,61.14 60.76,97.51 8.63,27.01 13.13,54.39 13.13,81.39 0,11.63 -1.87,30.76 -5.62,56.63 -3.75,25.88 -19.51,51.76 -47.26,77.26 -20.63,16.13 -40.51,24.38 -60.39,24.38 -9.38,0 -24,-3.75 -43.51,-11.63 -19.5,-7.5 -30.76,-25.88 -34.5,-54.38 0,-26.25 8.25,-46.51 24.76,-60.39 16.5,-13.88 35.25,-25.13 56.63,-34.13 18.38,-8.62 33.38,-18 45.38,-28.13 12.38,-9.75 18.38,-21.75 18.38,-35.63l0 -7.5c-11.25,-33.01 -27.75,-60.76 -49.51,-83.64 -53.63,-47.63 -120.77,-71.26 -202.16,-71.26 -0.75,0 -22.5,0 -64.88,0.38 -42.38,0.37 -95.27,17.63 -158.28,52.13 -113.64,63.76 -226.54,159.03 -339.43,285.42 -112.89,126.02 -228.04,265.92 -345.06,418.95 -132.02,173.65 -268.17,336.81 -408.82,489.08l216.41 567.1 470.33 -1236.21 430.57 0 0 10.88c-34.13,0 -68.26,6.75 -101.27,20.25 -33.38,13.5 -61.14,33.01 -82.51,57.76 -21.76,24.76 -32.63,54.76 -32.63,88.89l0 1217.45c0,34.5 10.87,64.14 32.63,89.26 21.38,24.76 49.13,43.88 82.51,57.76 33.01,13.5 67.14,20.25 101.27,20.25l0 9.75zm-1783.05 -520.96c94.51,0 189.78,-26.25 286.55,-78.77 69.01,-40.5 136.15,-89.26 201.03,-146.27 -152.28,-384.82 -234.79,-591.1 -247.17,-619.6 -21.75,-49.13 -49.88,-88.14 -84.01,-116.64 -34.13,-28.5 -68.26,-48.76 -102.77,-61.14 -34.51,-12 -61.89,-18 -82.51,-18 -111.02,0 -206.28,32.63 -285.42,97.89 -80.64,70.14 -132.4,163.9 -154.9,281.3 -7.5,40.88 -11.25,81.77 -11.25,123.02 0,76.14 13.13,152.65 39.76,229.54 77.64,201.41 217.91,304.55 420.82,308.68l19.88 0z"/>
  <path id="_1_159" class="fil1 str0" d="M940.85 2173.68l-444.83 0 0 -9.75c40.13,-0.75 83.64,-12 130.52,-34.13 46.88,-22.13 72.39,-51.76 75.76,-88.89l0 -215.66 31.88 0 0 215.66c4.5,37.13 30.01,66.76 76.52,88.89 46.5,22.13 90.01,33.38 130.15,34.13l0 9.75zm1353.6 0l-646.98 0 0 -9.75c34.51,0 68.64,-6.75 102.02,-20.25 33.76,-13.88 61.51,-32.63 83.64,-57.39 22.13,-24.38 33.01,-54.38 33.01,-89.64l0 -1310.85 -569.35 1487.88 -42.76 -109.89c-29.26,-72.39 -66.39,-164.28 -111.02,-275.67 -44.63,-111.39 -91.14,-228.41 -139.52,-350.68 -184.53,159.78 -355.19,241.54 -511.96,245.29l-1.12 0c-217.54,-4.5 -367.56,-113.64 -449.33,-327.81 -26.63,-74.64 -39.76,-148.15 -39.76,-220.53 0,-48.38 10.13,-114.02 29.63,-196.91 19.88,-82.51 73.14,-160.9 159.4,-235.17 80.64,-67.14 178.16,-100.89 292.18,-100.89l439.57 0 250.54 658.24c139.15,-151.9 274.17,-313.18 404.32,-484.58 118.15,-153.4 233.66,-293.3 347.31,-419.7 210.41,-235.91 408.07,-354.06 593.35,-354.06 80.64,0 147.4,24.38 199.91,72.76 28.13,28.5 48.01,61.14 60.76,97.51 8.63,27.01 13.13,54.39 13.13,81.39 0,11.63 -1.87,30.76 -5.62,56.63 -3.75,25.88 -19.51,51.76 -47.26,77.26 -20.63,16.13 -40.51,24.38 -60.39,24.38 -9.38,0 -24,-3.75 -43.51,-11.63 -19.5,-7.5 -30.76,-25.88 -34.5,-54.38 0,-26.25 8.25,-46.51 24.76,-60.39 16.5,-13.88 35.25,-25.13 56.63,-34.13 18.38,-8.62 33.38,-18 45.38,-28.13 12.38,-9.75 18.38,-21.75 18.38,-35.63l0 -7.5c-11.25,-33.01 -27.75,-60.76 -49.51,-83.64 -53.63,-47.63 -120.77,-71.26 -202.16,-71.26 -0.75,0 -22.5,0 -64.88,0.38 -42.38,0.37 -95.27,17.63 -158.28,52.13 -113.64,63.76 -226.54,159.03 -339.43,285.42 -112.89,126.02 -228.04,265.92 -345.06,418.95 -132.02,173.65 -268.17,336.81 -408.82,489.08l216.41 567.1 470.33 -1236.21 430.57 0 0 10.88c-34.13,0 -68.26,6.75 -101.27,20.25 -33.38,13.5 -61.14,33.01 -82.51,57.76 -21.76,24.76 -32.63,54.76 -32.63,88.89l0 1217.45c0,34.5 10.87,64.14 32.63,89.26 21.38,24.76 49.13,43.88 82.51,57.76 33.01,13.5 67.14,20.25 101.27,20.25l0 9.75zm-1783.05 -520.96c94.51,0 189.78,-26.25 286.55,-78.77 69.01,-40.5 136.15,-89.26 201.03,-146.27 -152.28,-384.82 -234.79,-591.1 -247.17,-619.6 -21.75,-49.13 -49.88,-88.14 -84.01,-116.64 -34.13,-28.5 -68.26,-48.76 -102.77,-61.14 -34.51,-12 -61.89,-18 -82.51,-18 -111.02,0 -206.28,32.63 -285.42,97.89 -80.64,70.14 -132.4,163.9 -154.9,281.3 -7.5,40.88 -11.25,81.77 -11.25,123.02 0,76.14 13.13,152.65 39.76,229.54 77.64,201.41 217.91,304.55 420.82,308.68l19.88 0z"/>
 </g>
</svg>
