<?xml version="1.0" encoding="UTF-8"?>
<!DOCTYPE svg PUBLIC "-//W3C//DTD SVG 1.1//EN" "http://www.w3.org/Graphics/SVG/1.1/DTD/svg11.dtd">
<!-- Creator: CorelDRAW -->
<svg xmlns="http://www.w3.org/2000/svg" xml:space="preserve" width="5.31474in" height="3.03913in" version="1.1" style="shape-rendering:geometricPrecision; text-rendering:geometricPrecision; image-rendering:optimizeQuality; fill-rule:evenodd; clip-rule:evenodd"
viewBox="0 0 4948.58 2829.75"
 xmlns:xlink="http://www.w3.org/1999/xlink"
 xmlns:xodm="http://www.corel.com/coreldraw/odm/2003">
 <defs>
  <style type="text/css">
   <![CDATA[
    .str0 {stroke:black;stroke-width:2.79;stroke-miterlimit:2.61313}
    .fil1 {fill:none;fill-rule:nonzero}
    .fil0 {fill:black;fill-rule:nonzero}
   ]]>
  </style>
 </defs>
 <g id="Layer_x0020_1">
  <metadata id="CorelCorpID_0Corel-Layer"/>
  <path class="fil0" d="M2657.56 1580.02l-519.01 0 0 -7.65c25.3,0 53.26,-3.82 83.56,-11.18 30.6,-7.65 55.31,-19.42 74.14,-35.6 14.42,-12.06 21.77,-26.77 21.77,-44.72 0,-6.18 -0.88,-12.65 -2.65,-18.83l-158.59 -421.63 -424.27 0 -167.12 444.87c-1.18,5.59 -1.76,10.88 -1.76,15.59 0,15.89 8.24,29.71 25.01,40.9 16.77,11.18 39.13,19.12 67.67,23.54 28.54,4.71 52.08,7.06 71.2,7.06l0 7.65 -350.13 0 0 -7.65c28.83,0 58.26,-6.77 87.97,-20.3 30.01,-13.53 54.73,-36.48 74.14,-68.55 25.3,-67.38 57.67,-153 97.1,-257.45 39.13,-104.16 78.85,-209.49 118.87,-316.29 40.02,-106.51 73.85,-196.84 101.21,-270.69 27.66,-73.85 42.67,-114.45 45.02,-121.81 3.82,-16.18 5.88,-31.18 5.88,-45.02 0,-18.24 -5.3,-36.78 -15.89,-55.61 -10.59,-18.54 -27.95,-33.54 -51.78,-44.72 -23.83,-11.18 -46.78,-16.77 -68.56,-16.77l-3.53 0 0 -8.53 305.41 0 413.68 1101.58c36.19,82.67 92.97,124.16 170.65,124.16l0 7.65zm-510.18 -564.62l-202.72 -539.61 -203.31 539.61 406.03 0z"/>
  <path id="_1" class="fil1 str0" d="M2657.56 1580.02l-519.01 0 0 -7.65c25.3,0 53.26,-3.82 83.56,-11.18 30.6,-7.65 55.31,-19.42 74.14,-35.6 14.42,-12.06 21.77,-26.77 21.77,-44.72 0,-6.18 -0.88,-12.65 -2.65,-18.83l-158.59 -421.63 -424.27 0 -167.12 444.87c-1.18,5.59 -1.76,10.88 -1.76,15.59 0,15.89 8.24,29.71 25.01,40.9 16.77,11.18 39.13,19.12 67.67,23.54 28.54,4.71 52.08,7.06 71.2,7.06l0 7.65 -350.13 0 0 -7.65c28.83,0 58.26,-6.77 87.97,-20.3 30.01,-13.53 54.73,-36.48 74.14,-68.55 25.3,-67.38 57.67,-153 97.1,-257.45 39.13,-104.16 78.85,-209.49 118.87,-316.29 40.02,-106.51 73.85,-196.84 101.21,-270.69 27.66,-73.85 42.67,-114.45 45.02,-121.81 3.82,-16.18 5.88,-31.18 5.88,-45.02 0,-18.24 -5.3,-36.78 -15.89,-55.61 -10.59,-18.54 -27.95,-33.54 -51.78,-44.72 -23.83,-11.18 -46.78,-16.77 -68.56,-16.77l-3.53 0 0 -8.53 305.41 0 413.68 1101.58c36.19,82.67 92.97,124.16 170.65,124.16l0 7.65zm-510.18 -564.62l-202.72 -539.61 -203.31 539.61 406.03 0z"/>
  <path class="fil0" d="M840.99 2828.35c-118.02,0 -228.61,-21.58 -331.79,-65.41 -102.51,-43.16 -192.2,-103.18 -268.4,-179.38l0 2.02c-35.74,-35.74 -68.11,-53.27 -97.11,-53.27 -19.56,0 -45.18,13.49 -76.88,41.14 -31.69,27.65 -47.2,80.25 -47.2,157.8l-18.21 0 0 -896.91 18.21 0c2.7,103.18 23.6,225.24 62.72,367.53 59.34,169.94 153.75,307.51 283.91,413.39 129.48,105.2 283.24,157.8 461.27,157.8l13.49 0c143.64,-8.09 264.35,-48.55 362.13,-121.38 97.11,-73.51 168.59,-164.55 213.1,-273.8 35.74,-86.99 53.27,-175.33 53.27,-265.02 0,-23.6 -1.35,-47.21 -4.05,-70.81 -2.7,-38.44 -19.56,-96.43 -49.9,-173.98 -31.02,-77.55 -94.41,-156.46 -188.82,-236.7 -95.09,-80.25 -238.73,-144.99 -430.92,-193.55l-4.05 0 4.05 0c-492.29,-122.73 -751.92,-385.74 -778.22,-788.33l0 -27.65c0,-111.95 29.67,-215.12 89.69,-308.18 60.02,-93.74 152.41,-169.27 276.49,-226.59 124.76,-57.32 277.17,-85.65 457.22,-85.65 162.52,0 304.14,49.23 424.85,147.69l0 -2.02c30.35,25.62 60.02,37.76 89.02,37.76 20.91,0 48.55,-10.79 82.95,-33.72 34.39,-22.25 51.25,-72.16 51.25,-149.71l20.23 0 0 876.68 -20.23 0c-1.35,-62.71 -10.79,-147.69 -28.33,-253.56 -17.53,-105.87 -50.58,-202.31 -97.78,-289.31 -56.65,-82.95 -130.15,-150.38 -221.19,-201.64 -91.04,-51.25 -190.85,-76.88 -300.77,-76.88 -169.27,12.82 -294.7,76.88 -374.95,191.52 -56.65,81.6 -84.97,171.96 -84.97,270.42 0,42.48 5.4,85.64 15.51,130.83 26.3,94.41 68.11,171.29 125.43,229.96 57.32,58.67 119.36,103.18 186.13,134.2 66.09,31.02 125.43,51.93 176.68,62.04 370.23,111.95 630.53,263.68 782.27,454.52 117.34,150.38 176.01,312.23 176.01,486.22 0,143.64 -41.14,277.17 -122.74,399.9 -81.6,123.41 -197.59,222.54 -347.3,298.75 -150.38,75.53 -327.74,113.29 -532.08,113.29z"/>
  <path id="_1_202" class="fil1 str0" d="M840.99 2828.35c-118.02,0 -228.61,-21.58 -331.79,-65.41 -102.51,-43.16 -192.2,-103.18 -268.4,-179.38l0 2.02c-35.74,-35.74 -68.11,-53.27 -97.11,-53.27 -19.56,0 -45.18,13.49 -76.88,41.14 -31.69,27.65 -47.2,80.25 -47.2,157.8l-18.21 0 0 -896.91 18.21 0c2.7,103.18 23.6,225.24 62.72,367.53 59.34,169.94 153.75,307.51 283.91,413.39 129.48,105.2 283.24,157.8 461.27,157.8l13.49 0c143.64,-8.09 264.35,-48.55 362.13,-121.38 97.11,-73.51 168.59,-164.55 213.1,-273.8 35.74,-86.99 53.27,-175.33 53.27,-265.02 0,-23.6 -1.35,-47.21 -4.05,-70.81 -2.7,-38.44 -19.56,-96.43 -49.9,-173.98 -31.02,-77.55 -94.41,-156.46 -188.82,-236.7 -95.09,-80.25 -238.73,-144.99 -430.92,-193.55l-4.05 0 4.05 0c-492.29,-122.73 -751.92,-385.74 -778.22,-788.33l0 -27.65c0,-111.95 29.67,-215.12 89.69,-308.18 60.02,-93.74 152.41,-169.27 276.49,-226.59 124.76,-57.32 277.17,-85.65 457.22,-85.65 162.52,0 304.14,49.23 424.85,147.69l0 -2.02c30.35,25.62 60.02,37.76 89.02,37.76 20.91,0 48.55,-10.79 82.95,-33.72 34.39,-22.25 51.25,-72.16 51.25,-149.71l20.23 0 0 876.68 -20.23 0c-1.35,-62.71 -10.79,-147.69 -28.33,-253.56 -17.53,-105.87 -50.58,-202.31 -97.78,-289.31 -56.65,-82.95 -130.15,-150.38 -221.19,-201.64 -91.04,-51.25 -190.85,-76.88 -300.77,-76.88 -169.27,12.82 -294.7,76.88 -374.95,191.52 -56.65,81.6 -84.97,171.96 -84.97,270.42 0,42.48 5.4,85.64 15.51,130.83 26.3,94.41 68.11,171.29 125.43,229.96 57.32,58.67 119.36,103.18 186.13,134.2 66.09,31.02 125.43,51.93 176.68,62.04 370.23,111.95 630.53,263.68 782.27,454.52 117.34,150.38 176.01,312.23 176.01,486.22 0,143.64 -41.14,277.17 -122.74,399.9 -81.6,123.41 -197.59,222.54 -347.3,298.75 -150.38,75.53 -327.74,113.29 -532.08,113.29z"/>
  <path class="fil0" d="M3372.94 2014.9l-969.76 0 0 -8.53c37.96,0 74.44,-10.59 109.16,-31.18 34.72,-20.6 55.61,-49.43 62.38,-86.21l0 -970.65c-3.24,-40.02 -22.95,-71.5 -58.55,-93.86 -35.6,-22.36 -73.55,-33.54 -113.86,-33.54l0 -8.83 507.83 0 0 8.83c-38.54,0 -75.32,10.89 -110.34,32.66 -35.01,21.77 -55.02,52.08 -59.43,90.62l0 968c0,29.71 10.3,55.31 31.49,76.2 20.89,20.89 46.19,31.48 76.2,31.48l302.46 0c47.66,-7.94 88.85,-29.72 123.28,-65.02 34.42,-35.31 60.9,-73.56 79.44,-114.16 18.24,-40.9 27.65,-73.26 28.24,-97.39l7.94 0 -16.48 301.58z"/>
  <path id="_1_203" class="fil1 str0" d="M3372.94 2014.9l-969.76 0 0 -8.53c37.96,0 74.44,-10.59 109.16,-31.18 34.72,-20.6 55.61,-49.43 62.38,-86.21l0 -970.65c-3.24,-40.02 -22.95,-71.5 -58.55,-93.86 -35.6,-22.36 -73.55,-33.54 -113.86,-33.54l0 -8.83 507.83 0 0 8.83c-38.54,0 -75.32,10.89 -110.34,32.66 -35.01,21.77 -55.02,52.08 -59.43,90.62l0 968c0,29.71 10.3,55.31 31.49,76.2 20.89,20.89 46.19,31.48 76.2,31.48l302.46 0c47.66,-7.94 88.85,-29.72 123.28,-65.02 34.42,-35.31 60.9,-73.56 79.44,-114.16 18.24,-40.9 27.65,-73.26 28.24,-97.39l7.94 0 -16.48 301.58z"/>
  <path class="fil0" d="M3435.95 1688.31c-51.49,0 -99.74,-9.41 -144.76,-28.54 -44.72,-18.83 -83.85,-45.02 -117.1,-78.26l0 0.88c-15.59,-15.59 -29.72,-23.24 -42.37,-23.24 -8.53,0 -19.71,5.88 -33.54,17.95 -13.83,12.06 -20.59,35.01 -20.59,68.85l-7.94 0 0 -391.32 7.94 0c1.18,45.02 10.3,98.27 27.36,160.35 25.89,74.14 67.08,134.17 123.87,180.36 56.49,45.9 123.57,68.85 201.25,68.85l5.89 0c62.67,-3.53 115.34,-21.18 158,-52.96 42.37,-32.07 73.55,-71.79 92.97,-119.45 15.59,-37.96 23.24,-76.5 23.24,-115.63 0,-10.3 -0.59,-20.6 -1.76,-30.9 -1.18,-16.77 -8.53,-42.08 -21.77,-75.91 -13.53,-33.84 -41.19,-68.26 -82.38,-103.27 -41.49,-35.01 -104.16,-63.26 -188.01,-84.44l-1.77 0 1.77 0c-214.78,-53.55 -328.06,-168.3 -339.53,-343.95l0 -12.06c0,-48.84 12.94,-93.86 39.13,-134.46 26.18,-40.9 66.49,-73.85 120.63,-98.86 54.43,-25.01 120.93,-37.37 199.48,-37.37 70.91,0 132.69,21.48 185.36,64.44l0 -0.88c13.24,11.18 26.18,16.48 38.84,16.48 9.12,0 21.18,-4.71 36.19,-14.71 15,-9.71 22.36,-31.48 22.36,-65.32l8.83 0 0 382.49 -8.83 0c-0.59,-27.36 -4.71,-64.44 -12.36,-110.63 -7.65,-46.19 -22.07,-88.27 -42.66,-126.22 -24.71,-36.19 -56.79,-65.61 -96.51,-87.97 -39.72,-22.36 -83.27,-33.54 -131.22,-33.54 -73.85,5.59 -128.58,33.54 -163.59,83.56 -24.71,35.6 -37.08,75.03 -37.08,117.99 0,18.53 2.36,37.37 6.77,57.08 11.47,41.19 29.71,74.73 54.72,100.33 25.01,25.6 52.08,45.02 81.21,58.55 28.83,13.53 54.73,22.66 77.09,27.07 161.53,48.84 275.1,115.04 341.3,198.31 51.2,65.61 76.79,136.22 76.79,212.13 0,62.67 -17.95,120.93 -53.55,174.48 -35.6,53.84 -86.21,97.09 -151.52,130.34 -65.61,32.96 -142.99,49.43 -232.14,49.43z"/>
  <path id="_1_204" class="fil1 str0" d="M3435.95 1688.31c-51.49,0 -99.74,-9.41 -144.76,-28.54 -44.72,-18.83 -83.85,-45.02 -117.1,-78.26l0 0.88c-15.59,-15.59 -29.72,-23.24 -42.37,-23.24 -8.53,0 -19.71,5.88 -33.54,17.95 -13.83,12.06 -20.59,35.01 -20.59,68.85l-7.94 0 0 -391.32 7.94 0c1.18,45.02 10.3,98.27 27.36,160.35 25.89,74.14 67.08,134.17 123.87,180.36 56.49,45.9 123.57,68.85 201.25,68.85l5.89 0c62.67,-3.53 115.34,-21.18 158,-52.96 42.37,-32.07 73.55,-71.79 92.97,-119.45 15.59,-37.96 23.24,-76.5 23.24,-115.63 0,-10.3 -0.59,-20.6 -1.76,-30.9 -1.18,-16.77 -8.53,-42.08 -21.77,-75.91 -13.53,-33.84 -41.19,-68.26 -82.38,-103.27 -41.49,-35.01 -104.16,-63.26 -188.01,-84.44l-1.77 0 1.77 0c-214.78,-53.55 -328.06,-168.3 -339.53,-343.95l0 -12.06c0,-48.84 12.94,-93.86 39.13,-134.46 26.18,-40.9 66.49,-73.85 120.63,-98.86 54.43,-25.01 120.93,-37.37 199.48,-37.37 70.91,0 132.69,21.48 185.36,64.44l0 -0.88c13.24,11.18 26.18,16.48 38.84,16.48 9.12,0 21.18,-4.71 36.19,-14.71 15,-9.71 22.36,-31.48 22.36,-65.32l8.83 0 0 382.49 -8.83 0c-0.59,-27.36 -4.71,-64.44 -12.36,-110.63 -7.65,-46.19 -22.07,-88.27 -42.66,-126.22 -24.71,-36.19 -56.79,-65.61 -96.51,-87.97 -39.72,-22.36 -83.27,-33.54 -131.22,-33.54 -73.85,5.59 -128.58,33.54 -163.59,83.56 -24.71,35.6 -37.08,75.03 -37.08,117.99 0,18.53 2.36,37.37 6.77,57.08 11.47,41.19 29.71,74.73 54.72,100.33 25.01,25.6 52.08,45.02 81.21,58.55 28.83,13.53 54.73,22.66 77.09,27.07 161.53,48.84 275.1,115.04 341.3,198.31 51.2,65.61 76.79,136.22 76.79,212.13 0,62.67 -17.95,120.93 -53.55,174.48 -35.6,53.84 -86.21,97.09 -151.52,130.34 -65.61,32.96 -142.99,49.43 -232.14,49.43z"/>
  <path class="fil0" d="M4025.67 2483.93c-128.28,0 -242.15,-39.13 -342.18,-117.69 -100.04,-78.26 -169.48,-183.3 -208.61,-314.82 -15,-54.14 -22.36,-107.1 -22.36,-158.88 0,-94.74 24.42,-186.83 73.26,-276.57 77.97,-136.23 192.72,-226.55 343.95,-271.57 51.49,-15.01 103.27,-22.36 155.05,-22.36l25.89 0.88c91.21,-243.62 138.29,-369.54 140.35,-377.49 4.12,-16.18 6.18,-30.89 6.18,-44.13 0,-18.24 -5.29,-37.07 -15.89,-55.9 -10.59,-19.12 -28.24,-34.13 -52.67,-45.31 -24.42,-11.18 -48.25,-16.77 -71.2,-16.77l0 -7.65 305.11 0 413.97 1100.7c35.6,82.67 92.39,124.16 170.65,124.16l0 8.53 -519.01 0 0 -8.53c25.3,0 52.96,-3.82 83.27,-11.18 30.01,-7.65 55.02,-19.42 74.44,-35.6 14.42,-12.06 21.48,-26.77 21.48,-44.72 0,-6.18 -0.59,-12.65 -2.35,-18.83l-93.27 -246.56c-44.72,-85.62 -106.51,-154.17 -184.77,-205.66 -78.56,-51.49 -165.06,-81.2 -259.8,-89.15l-212.13 564.62c-1.18,5.59 -1.77,10.88 -1.77,15.59 0,15.89 8.24,29.71 25.01,40.9 16.77,11.18 39.13,19.12 67.67,23.54 28.54,4.71 52.08,7.06 71.2,7.06l0 7.65 -350.13 0.88 0 -8.53 3.53 0c27.66,0 55.9,-6.77 85.32,-20.3 29.43,-13.53 53.84,-36.48 73.26,-68.55 59.73,-155.64 130.34,-343.65 212.13,-563.73l-16.48 0c-49.43,0 -99.15,6.77 -149.17,20.59 -144.17,42.66 -253.62,129.16 -328.35,259.51 -46.49,85.03 -69.73,173 -69.73,263.92 0,49.73 7.06,100.63 21.48,152.41 28.24,94.15 76.79,170.36 145.64,228.32 68.85,58.26 149.17,96.21 240.38,113.87 37.37,7.65 75.32,11.18 113.86,11.18 54.73,0 110.04,-7.65 166.53,-23.24l20.59 87.09c-54.14,15 -107.39,22.36 -160.35,22.36zm446.63 -947.11l-238.03 -631.99 -157.7 419.86c160.35,17.06 292.16,87.97 395.73,212.13z"/>
  <path id="_1_205" class="fil1 str0" d="M4025.67 2483.93c-128.28,0 -242.15,-39.13 -342.18,-117.69 -100.04,-78.26 -169.48,-183.3 -208.61,-314.82 -15,-54.14 -22.36,-107.1 -22.36,-158.88 0,-94.74 24.42,-186.83 73.26,-276.57 77.97,-136.23 192.72,-226.55 343.95,-271.57 51.49,-15.01 103.27,-22.36 155.05,-22.36l25.89 0.88c91.21,-243.62 138.29,-369.54 140.35,-377.49 4.12,-16.18 6.18,-30.89 6.18,-44.13 0,-18.24 -5.29,-37.07 -15.89,-55.9 -10.59,-19.12 -28.24,-34.13 -52.67,-45.31 -24.42,-11.18 -48.25,-16.77 -71.2,-16.77l0 -7.65 305.11 0 413.97 1100.7c35.6,82.67 92.39,124.16 170.65,124.16l0 8.53 -519.01 0 0 -8.53c25.3,0 52.96,-3.82 83.27,-11.18 30.01,-7.65 55.02,-19.42 74.44,-35.6 14.42,-12.06 21.48,-26.77 21.48,-44.72 0,-6.18 -0.59,-12.65 -2.35,-18.83l-93.27 -246.56c-44.72,-85.62 -106.51,-154.17 -184.77,-205.66 -78.56,-51.49 -165.06,-81.2 -259.8,-89.15l-212.13 564.62c-1.18,5.59 -1.77,10.88 -1.77,15.59 0,15.89 8.24,29.71 25.01,40.9 16.77,11.18 39.13,19.12 67.67,23.54 28.54,4.71 52.08,7.06 71.2,7.06l0 7.65 -350.13 0.88 0 -8.53 3.53 0c27.66,0 55.9,-6.77 85.32,-20.3 29.43,-13.53 53.84,-36.48 73.26,-68.55 59.73,-155.64 130.34,-343.65 212.13,-563.73l-16.48 0c-49.43,0 -99.15,6.77 -149.17,20.59 -144.17,42.66 -253.62,129.16 -328.35,259.51 -46.49,85.03 -69.73,173 -69.73,263.92 0,49.73 7.06,100.63 21.48,152.41 28.24,94.15 76.79,170.36 145.64,228.32 68.85,58.26 149.17,96.21 240.38,113.87 37.37,7.65 75.32,11.18 113.86,11.18 54.73,0 110.04,-7.65 166.53,-23.24l20.59 87.09c-54.14,15 -107.39,22.36 -160.35,22.36zm446.63 -947.11l-238.03 -631.99 -157.7 419.86c160.35,17.06 292.16,87.97 395.73,212.13z"/>
 </g>
</svg>
